<?xml version="1.0" encoding="UTF-8"?>
<svg id="logos" xmlns="http://www.w3.org/2000/svg" viewBox="0 0 800 400">
  <defs>
    <style>
      .cls-1 {
        fill: #fff;
      }
    </style>
  </defs>
  <g id="AC-UI-Desktop--V1">
    <g id="AC---Home">
      <g id="appuio_logo">
        <path id="Combined-Shape" class="cls-1" d="M638.59,87.5c7.75,0,14.15,6.27,14.15,14.02h0v158.08c0,7.75-6.27,14.02-14.02,14.02h-86.97l-29.4,38.87v-38.87H164.48c-7.75,0-14.02-6.27-14.02-14.02h0l-3.2-158.08c0-7.75,6.27-14.02,14.02-14.02h477.31ZM566.38,222.2h0c-6.03,0-10.95,4.8-10.95,10.95s4.92,10.95,11.07,10.95,11.07-4.8,11.07-10.95-5.04-10.95-11.19-10.95h0ZM312.1,222.08h0c-6.15,0-11.07,4.67-11.07,10.95s4.92,10.83,11.07,10.83,11.19-4.67,11.19-10.83c-.12-6.27-5.04-10.95-11.19-10.95h0ZM290.7,221.96v.12c-6.15,0-11.19,4.55-11.19,10.83s5.04,10.83,11.19,10.83c3.44,0,6.4-1.35,8.37-3.81h0l-2.58-2.21c-1.35,1.72-3.44,2.71-5.78,2.71-4.18,0-7.38-3.2-7.38-7.5s3.2-7.5,7.38-7.5c2.34,0,4.31.98,5.78,2.58h0l2.58-2.21c-2.09-2.34-5.04-3.81-8.37-3.81h0ZM374.23,222.45h-3.2l-.25.12-8.73,21.04h4.06l1.72-4.18h9.35l1.72,4.18h4.06l-8.73-21.16ZM589.76,222.57h-8.37v21.04h3.81v-7.5h3.69l4.55,7.5h4.31l-5.17-8.37c2.21-.86,3.81-3.2,3.81-5.9.12-3.94-2.95-6.77-6.64-6.77h0ZM389.73,222.57h-3.81l.12,21.04h3.69v-21.04ZM398.22,222.57h-3.32v21.04h3.69v-14.89l11.32,14.89h3.08v-21.04h-3.69v14.64l-11.07-14.64ZM431.55,222.57h-13.41v21.04h13.65v-3.44h-9.84v-5.78h9.1v-3.44h-9.1v-5.04h9.6v-3.32ZM604.39,222.57h-3.32l.12,20.91h3.57v-14.27l7.14,11.07,7.14-11.19v14.39h3.57v-21.04h-3.2l-7.5,11.81-7.5-11.69ZM552.6,222.45h-12.79l.12,21.04h3.69v-8.98h8.12v-3.44h-8.24v-5.29h8.98v-3.32h.12ZM238.78,221.96c-3.57,0-6.52,2.21-6.52,5.66,0,3.69,2.58,5.04,6.03,6.4,2.58.98,4.31,1.72,4.31,3.57,0,.98-.62,2.71-3.57,2.71-2.58,0-4.31-1.23-5.29-3.2h0l-.12-.25-2.83,1.72c1.35,2.95,4.06,4.8,8.12,4.8,4.92,0,7.38-2.71,7.38-6.27,0-3.2-1.72-4.92-5.54-6.4-3.08-1.35-4.8-1.6-4.8-3.57,0-1.35,1.23-2.21,2.95-2.21s2.95.74,3.81,1.97h0l2.71-1.85c-1.48-1.6-3.44-3.08-6.64-3.08ZM256.62,221.96c-3.57,0-6.52,2.21-6.52,5.66,0,3.69,2.58,5.04,6.03,6.4,2.58.98,4.31,1.72,4.31,3.57,0,.98-.62,2.71-3.57,2.71-2.58,0-4.31-1.23-5.29-3.2h0v-.25l-2.83,1.72c1.35,2.95,4.06,4.8,8.12,4.8,4.92,0,7.38-2.71,7.38-6.27,0-3.2-1.85-4.92-5.66-6.4-3.08-1.35-4.8-1.6-4.8-3.57,0-1.35,1.23-2.21,2.83-2.21,1.85,0,3.08.74,3.81,1.97h0l2.71-1.85c-1.35-1.6-3.32-3.08-6.52-3.08ZM184.04,221.84c-3.57,0-6.52,2.21-6.52,5.66,0,3.69,2.71,5.04,6.03,6.4,2.58.98,4.31,1.72,4.31,3.69,0,.98-.62,2.71-3.57,2.71-2.58,0-4.31-1.35-5.29-3.2h0l.25-.12-2.83,1.85c1.23,2.83,3.94,4.67,7.63,4.8h.37c5.04,0,7.38-2.71,7.38-6.27,0-3.2-1.85-4.8-5.66-6.4-3.08-1.23-4.8-1.6-4.8-3.44,0-1.35,1.23-2.21,2.83-2.21,1.85,0,2.95.62,3.69,1.85h0l2.71-1.85c-1.23-1.97-3.32-3.44-6.52-3.44ZM536.73,222.33h-15.25v3.44h5.78l.12.12v17.59h3.69v-17.71h5.66v-3.44h0ZM326.87,222.2v21.04h3.69v-14.89l11.69,15.13h3.08v-21.04h-3.69v14.64l-11.19-14.64h-3.32l-.25-.25ZM513.36,222.33h-3.08l-8.73,21.16h3.81l1.72-4.18h9.35l1.72,4.18h3.94l-8.73-21.16ZM490.36,222.33h-3.81l.25,21.16h11.93v-3.44h-8.37v-17.71h0ZM476.33,222.33h-8v21.04h3.69v-7.38h4.31c3.57,0,6.89-2.83,6.89-6.77,0-4.31-3.44-6.89-6.89-6.89h0ZM444.22,222.45h-7.63v20.91h3.81v-7.5h3.69l4.55,7.5h3.69l-5.04-8.37c2.21-.86,3.81-3.2,3.81-5.9,0-3.81-3.2-6.64-6.89-6.64h0ZM363.16,222.2h-15.13v3.44h5.66l-.12.12v17.59h3.81v-17.71h5.78v-3.44h0ZM196.84,222.33h-3.69l6.4,21.04h2.95l4.43-14.15,4.43,14.15h3.08l6.27-21.04h-3.69l-4.31,14.15-4.43-14.15h-2.83l-4.31,14.15-4.31-14.15ZM227.59,222.33h-3.81v21.04h3.81v-21.04ZM566.26,225.65c4.18,0,7.38,3.32,7.38,7.5s-3.2,7.5-7.38,7.5h-.25c-4.06-.12-7.14-3.32-7.26-7.26v-.25c.12-4.18,3.32-7.5,7.5-7.5ZM311.98,225.53c4.18,0,7.38,3.32,7.38,7.5s-3.2,7.5-7.38,7.5h-.25c-4.06-.12-7.01-3.32-7.14-7.26v-.25c0-4.18,3.2-7.5,7.38-7.5ZM372.63,227.62l3.57,8.61h-7.14l3.57-8.61ZM511.76,227.49l3.44,8.61h-6.89l3.44-8.61ZM589.51,226.02c1.85,0,3.2,1.35,3.2,3.32s-1.35,3.44-3.44,3.44h-4.06v-6.77h4.31ZM444.1,225.9c1.85,0,3.2,1.35,3.2,3.32s-1.35,3.44-3.44,3.44h-3.81v-6.77h4.06ZM476.21,225.77c1.6,0,3.32.98,3.32,3.44s-1.85,3.44-3.32,3.44h-4.18v-6.89h4.18ZM576.22,117.15c-25.83,0-46.62,19.93-46.62,45.89s20.79,45.76,46.62,45.76,46.75-19.81,46.75-45.76-20.79-45.89-46.75-45.89ZM433.77,118.87h-15.75v54.5c0,23.5,15.75,35.18,35.8,35.18s35.68-11.69,35.68-35.31v-54.37h-15.75v52.9c0,15.75-8,22.51-19.93,22.51s-20.05-6.89-20.05-22.51v-52.9h0ZM307.43,118.87l.12.12h-33.71v88.45h15.87v-31.12h17.84c14.64,0,28.66-11.81,28.66-28.66,0-17.84-14.76-28.79-28.79-28.79ZM518.77,143.35h-15.13l-.12,63.97h15.25v-63.97ZM379.76,118.87h-33.71v88.45h15.87v-31h17.96c14.64,0,28.66-11.81,28.66-28.66,0-17.84-14.76-28.79-28.79-28.79ZM227.96,118.87h-13.41l-36.91,88.45h16.73l7.26-17.59h39.24l7.26,17.59h16.61l-36.78-88.45ZM576.22,131.54v.12c17.59,0,31,13.9,31,31.62s-13.41,31.37-31,31.37-31-13.65-31-31.49,13.29-31.62,31-31.62ZM221.32,140.52l14.64,36.04h-29.4l14.76-36.04ZM379.15,133.26c6.27,0,13.78,4.43,13.78,14.52s-7.5,14.39-13.78,14.39h-17.1v-28.91h17.1ZM306.81,133.26c6.4,0,13.78,4.43,13.78,14.52s-7.5,14.39-13.78,14.39v-.12h-17.1v-28.79h17.1ZM511.27,117.89c-4.92,0-9.1,3.94-9.1,8.98s4.18,8.98,9.1,8.98,8.98-3.94,8.98-8.98-4.18-8.98-8.98-8.98Z"/>
      </g>
    </g>
  </g>
</svg>