<?xml version="1.0" encoding="UTF-8"?>
<svg id="logos" xmlns="http://www.w3.org/2000/svg" viewBox="0 0 800 400">
  <defs>
    <style>
      .cls-1 {
        fill-rule: evenodd;
      }

      .cls-1, .cls-2 {
        fill: #fff;
      }
    </style>
  </defs>
  <path class="cls-2" d="M263.43,224.26c2.4-3.75,3.71-8.06,3.93-12.94h-16.72c-.13,3.98-1.21,6.88-3.26,8.71-2.04,1.83-5,2.74-8.86,2.74-4.57,0-7.79-1.6-9.68-4.81-1.85-3.21-2.78-8.55-2.78-16.02v-4.95c.1-6.89,1.12-11.91,3.07-15.05,1.95-3.14,5.01-4.71,9.2-4.71s7.19.93,9.2,2.79c2.01,1.86,3.08,4.92,3.21,9.19h16.77c-.7-7.86-3.63-14.01-8.77-18.47-5.14-4.49-11.95-6.73-20.41-6.73-5.88,0-11.05,1.41-15.52,4.23-4.47,2.79-7.91,6.77-10.3,11.93-2.36,5.13-3.55,11.13-3.55,17.99v3.46c0,10.93,2.64,19.4,7.9,25.39,5.27,6,12.49,8.99,21.66,8.99,5.56,0,10.49-1.03,14.8-3.08,4.34-2.05,7.71-4.94,10.11-8.66Z"/>
  <path class="cls-2" d="M326.71,235.04h16.72v-70.03h-16.72v27.8h-24.77v-27.8h-16.82v70.03h16.82v-29.24h24.77v29.24Z"/>
  <path class="cls-2" d="M373.18,219.31c2.56,0,4.68.77,6.37,2.31,1.69,1.51,2.54,3.45,2.54,5.82s-.85,4.33-2.54,5.87c-1.69,1.51-3.82,2.26-6.37,2.26s-4.73-.77-6.42-2.31c-1.66-1.54-2.49-3.48-2.49-5.82s.83-4.28,2.49-5.82c1.69-1.54,3.83-2.31,6.42-2.31Z"/>
  <path class="cls-2" d="M455.95,224.26c2.4-3.75,3.71-8.06,3.93-12.94h-16.72c-.13,3.98-1.21,6.88-3.26,8.71-2.04,1.83-5,2.74-8.86,2.74-4.57,0-7.79-1.6-9.68-4.81-1.85-3.21-2.78-8.55-2.78-16.02v-4.95c.1-6.89,1.12-11.91,3.07-15.05,1.95-3.14,5.01-4.71,9.2-4.71s7.19.93,9.2,2.79c2.01,1.86,3.08,4.92,3.21,9.19h16.77c-.7-7.86-3.62-14.01-8.77-18.47-5.14-4.49-11.95-6.73-20.41-6.73-5.88,0-11.05,1.41-15.52,4.23-4.47,2.79-7.9,6.77-10.3,11.93-2.36,5.13-3.55,11.13-3.55,17.99v3.46c0,10.93,2.64,19.4,7.91,25.39,5.27,6,12.49,8.99,21.66,8.99,5.56,0,10.49-1.03,14.8-3.08,4.34-2.05,7.71-4.94,10.11-8.66Z"/>
  <path class="cls-2" d="M494.46,222.05h29.27v12.99h-46.09v-70.03h16.82v57.04Z"/>
  <path class="cls-1" d="M592.86,219.6c2.52-5.26,3.78-11.3,3.78-18.13v-3.22c-.03-6.73-1.34-12.7-3.93-17.89-2.56-5.23-6.15-9.25-10.78-12.07-4.63-2.82-9.9-4.23-15.81-4.23s-11.31,1.43-16,4.28c-4.66,2.85-8.26,6.91-10.78,12.17-2.49,5.23-3.74,11.27-3.74,18.13v3.94c.13,6.61,1.47,12.46,4.02,17.56,2.59,5.1,6.18,9.03,10.78,11.78,4.6,2.73,9.87,4.09,15.81,4.09s11.23-1.41,15.86-4.23c4.66-2.85,8.26-6.91,10.78-12.17ZM576.04,182.71c2.33,3.59,3.5,8.87,3.5,15.82v3.22c-.03,6.8-1.2,12.01-3.5,15.63-2.3,3.62-5.57,5.43-9.82,5.43-4.47,0-7.84-1.84-10.11-5.53-2.27-3.69-3.4-8.96-3.4-15.82l.05-5.15c.48-12.7,4.93-19.05,13.37-19.05,4.31,0,7.62,1.81,9.92,5.43Z"/>
  <path class="cls-2" d="M669.84,165.01v45.84c0,5.19-1.1,9.7-3.31,13.51-2.2,3.78-5.36,6.67-9.49,8.66-4.12,1.99-8.99,2.98-14.61,2.98-8.5,0-15.19-2.21-20.07-6.64-4.89-4.43-7.38-10.49-7.47-18.18v-46.17h16.91v46.51c.19,7.66,3.74,11.49,10.64,11.49,3.48,0,6.12-.96,7.9-2.89,1.79-1.92,2.68-5.05,2.68-9.38v-45.74h16.81Z"/>
  <path class="cls-1" d="M690.19,165.01v70.03h22.95c6.04-.03,11.5-1.47,16.39-4.33,4.92-2.89,8.72-6.86,11.4-11.93,2.72-5.1,4.07-10.85,4.07-17.27v-3.22c-.03-6.35-1.44-12.07-4.22-17.17-2.74-5.13-6.58-9.09-11.5-11.88-4.92-2.82-10.46-4.23-16.63-4.23h-22.47ZM707.01,222.05v-44.01h5.65c4.95,0,8.72,1.72,11.31,5.15,2.59,3.43,3.88,8.53,3.88,15.29v3.03c0,6.8-1.29,11.93-3.88,15.39-2.59,3.43-6.29,5.15-11.12,5.15h-5.84Z"/>
  <path class="cls-1" d="M55,235.04h18.07c2.03-5.61,6.24-10.96,12.56-15.49,3.41-2.44,7.35-4.57,11.73-6.28,1.15-.45,2.32-.87,3.53-1.26,6.64-2.16,14.11-3.4,22.08-3.4,4.93,0,9.67.47,14.14,1.35v25.09h16.82v-19.37c2.29,1.18,4.43,2.48,6.38,3.88,6.33,4.53,10.54,9.88,12.56,15.49h17.35c-2.39-11.82-10.04-21.9-20.2-29.17-3.4-2.43-7.12-4.59-11.1-6.43-2.65-1.23-5.43-2.33-8.29-3.28-2.87-.95-5.84-1.75-8.89-2.4-1.52-.32-3.07-.61-4.63-.85-4.58-.72-9.31-1.09-14.14-1.09-5.55,0-10.98.49-16.18,1.44l-10.39-28.23h-15.81l-25.58,70.03ZM92.38,197.19l-3.89-12.56-5.12,16.62c2.85-1.52,5.86-2.88,9.01-4.06Z"/>
  <path class="cls-2" d="M122.17,235.04l-7.35-19.96c-5.73.68-11.01,2.05-15.68,3.93l4.97,16.03h18.06Z"/>
  <path class="cls-2" d="M137.11,186.83v-21.82h27.45c8.27,0,14.74,1.84,19.4,5.53,4.66,3.69,6.99,8.9,6.99,15.63,0,4.87-.99,8.91-2.97,12.12-1.85,3.04-4.7,5.53-8.56,7.48-1.88-1.71-3.87-3.31-5.94-4.79-1.96-1.4-4.02-2.72-6.16-3.95,1.85-.36,3.32-1.11,4.41-2.25,1.63-1.7,2.44-4.06,2.44-7.07s-.81-5.37-2.44-7.07c-1.63-1.73-4.02-2.6-7.19-2.6h-10.64v12.9c-5.33-1.87-10.97-3.25-16.82-4.11Z"/>
</svg>