<?xml version="1.0" encoding="UTF-8"?>
<svg id="logos" xmlns="http://www.w3.org/2000/svg" viewBox="0 0 800 400">
  <defs>
    <style>
      .cls-1 {
        fill: #fff;
        fill-rule: evenodd;
      }
    </style>
  </defs>
  <path class="cls-1" d="M673.24,107.2h-10.35c-19.96-15.24-123.26-14.69-141.52,0h-10.54l-20.6,10.38,203.94-.03-20.94-10.35ZM698.01,122.25l-212.2.04-11.53,15.5.13,5.84,91.71,15.7-.05,5.39c4.76,7.17,11.19,11.13,19.12,12.19l-.11,4.85,3.79-.05,1.38,101.72-5.1,6.75v9.42s6.01,4.4,6.01,4.4h1.93s5.75-4.5,5.75-4.5l.02-9.34-5.01-6.79.82-101.74,4.28-.05-.1-4.81c12.94-2.81,14.12-6.39,19.18-12.11l-.15-5.39,91.72-16.43v-4.91l-11.59-15.71Z"/>
  <path class="cls-1" d="M90.4,188.44v76.99h6.01c1.32,0,2.13-.66,2.4-1.99l.47-4.81c1.78,2.4,3.85,4.27,6.22,5.59,2.4,1.29,5.35,1.93,8.83,1.93s6.69-.68,9.51-2.04c2.79-1.37,5.24-3.35,7.16-5.8,1.99-2.51,3.5-5.52,4.55-9.04,1.04-3.52,1.57-7.42,1.57-11.71,0-4.01-.47-7.61-1.41-10.82-.91-3.21-2.23-5.92-3.97-8.15-1.74-2.26-3.87-3.99-6.38-5.17-2.47-1.18-5.26-1.78-8.36-1.78-3.66,0-6.9.77-9.72,2.3-2.79,1.53-5.3,3.59-7.53,6.17v-31.67h-9.35ZM313.05,189.17c-.91,0-1.76.18-2.56.52-.77.35-1.46.85-2.04,1.46-.59.59-1.06,1.31-1.41,2.14-.35.81-.53,1.68-.52,2.56,0,.91.17,1.76.52,2.56.35.77.83,1.48,1.41,2.09.59.59,1.28,1.07,2.04,1.41.8.35,1.66.52,2.56.52s1.76-.18,2.56-.52c.84-.35,1.55-.82,2.14-1.41.61-.6,1.11-1.31,1.46-2.09.38-.8.58-1.68.57-2.56,0-.89-.19-1.76-.57-2.56-.33-.81-.83-1.54-1.46-2.14-.59-.63-1.31-1.11-2.14-1.46-.81-.35-1.68-.53-2.56-.52ZM396.47,189.17c-.91,0-1.76.18-2.56.52-.77.35-1.46.85-2.04,1.46-.59.59-1.06,1.31-1.41,2.14-.35.81-.53,1.68-.52,2.56,0,.91.18,1.76.52,2.56.35.77.83,1.48,1.41,2.09.59.59,1.28,1.07,2.04,1.41.8.35,1.66.52,2.56.52s1.76-.18,2.56-.52c.84-.35,1.55-.82,2.14-1.41.61-.6,1.11-1.31,1.46-2.09.38-.8.58-1.68.58-2.56,0-.89-.19-1.76-.58-2.56-.33-.81-.83-1.54-1.46-2.14-.59-.63-1.31-1.11-2.14-1.46-.81-.35-1.68-.53-2.56-.52ZM276.05,211.54c-3.76,0-7.11.84-10.03,2.51-2.93,1.67-5.51,3.89-7.74,6.64l-.84-6.27c-.31-1.29-1.13-1.93-2.46-1.93h-5.59v70.87h9.36v-23.41c1.78,1.95,3.82,3.48,6.12,4.6,2.33,1.08,5.12,1.62,8.36,1.62,3.55,0,6.74-.7,9.56-2.09,2.86-1.43,5.26-3.36,7.21-5.8,1.99-2.47,3.5-5.38,4.55-8.73,1.05-3.38,1.57-7.02,1.57-10.92,0-4.39-.47-8.27-1.41-11.65-.94-3.38-2.28-6.2-4.02-8.47-1.74-2.3-3.85-4.02-6.32-5.17-2.47-1.18-5.24-1.78-8.31-1.78h0ZM435.82,211.54c-4.11,0-7.86.7-11.24,2.09-3.38,1.39-6.53,3.5-9.46,6.33l1.67,2.98c.31.48.7.91,1.15,1.25.45.31.99.47,1.62.47.8,0,1.6-.28,2.4-.84.84-.59,1.81-1.24,2.93-1.93,1.15-.73,2.49-1.38,4.02-1.93,1.57-.59,3.5-.89,5.8-.89,3.41,0,6.01,1.06,7.79,3.19,1.78,2.09,2.66,5.19,2.66,9.3v4.13c-6.03.14-11.11.7-15.26,1.67-4.15.94-7.51,2.16-10.09,3.66-2.58,1.5-4.44,3.22-5.59,5.17-1.15,1.92-1.72,3.92-1.72,6.01,0,2.4.38,4.49,1.15,6.27.8,1.74,1.86,3.19,3.19,4.34,1.36,1.15,2.94,2.02,4.76,2.61,1.81.56,3.75.84,5.8.84s3.85-.19,5.49-.58c1.67-.35,3.24-.85,4.7-1.51,1.47-.7,2.87-1.54,4.18-2.51,1.32-1.01,2.68-2.16,4.08-3.45l1.04,5.02c.28.87.66,1.46,1.15,1.78.49.28,1.18.42,2.09.42h4.13v-33.87c0-2.96-.4-5.68-1.2-8.15-.8-2.47-1.99-4.58-3.55-6.32-1.57-1.74-3.5-3.1-5.8-4.08-2.3-.98-4.93-1.46-7.89-1.46h0ZM170.63,211.64c-3.83,0-7.28.68-10.35,2.04-3.07,1.32-5.66,3.17-7.79,5.54-2.13,2.33-3.76,5.1-4.91,8.31-1.11,3.21-1.67,6.65-1.67,10.35,0,4.56.63,8.61,1.88,12.12,1.25,3.52,3,6.48,5.23,8.89,2.26,2.37,4.93,4.18,8,5.44,3.1,1.22,6.48,1.83,10.14,1.83,1.95,0,3.89-.18,5.8-.52,1.92-.31,3.81-.8,5.65-1.46,1.81-.65,3.55-1.49,5.17-2.51,1.6-1.04,2.98-2.26,4.13-3.66l-2.61-3.4c-.42-.59-1.01-.89-1.78-.89-.59,0-1.31.28-2.14.84-.8.52-1.81,1.1-3.03,1.72-1.22.63-2.68,1.22-4.39,1.78-1.67.52-3.68.78-6.01.78-2.51,0-4.77-.4-6.79-1.2-2-.82-3.79-2.09-5.23-3.71-1.46-1.67-2.61-3.75-3.45-6.22-.8-2.47-1.25-5.38-1.36-8.73h35.38c.87,0,1.46-.24,1.78-.73.31-.49.47-1.46.47-2.93,0-3.76-.56-7.11-1.67-10.03-1.12-2.96-2.67-5.44-4.65-7.42-1.95-2.02-4.29-3.55-7-4.6-2.68-1.08-5.61-1.62-8.78-1.62h0ZM220.49,211.64c-3,0-5.66.42-8,1.25-2.33.84-4.3,1.97-5.91,3.4-1.6,1.39-2.82,3.03-3.66,4.91-.83,1.82-1.26,3.8-1.25,5.8,0,2.26.38,4.2,1.15,5.8.8,1.57,1.85,2.89,3.14,3.97,1.29,1.08,2.75,1.99,4.39,2.72,1.66.69,3.36,1.32,5.07,1.88l5.07,1.62c1.67.49,3.15,1.08,4.44,1.78,1.29.66,2.32,1.48,3.08,2.46.8.94,1.2,2.14,1.2,3.61,0,1.18-.23,2.3-.68,3.34-.42,1.04-1.08,1.97-1.99,2.77-.91.8-2.04,1.45-3.4,1.93-1.36.45-2.94.68-4.76.68-2.13,0-3.9-.24-5.33-.73-1.43-.49-2.65-1.03-3.66-1.62-.85-.51-1.69-1.05-2.51-1.62-.7-.49-1.36-.73-1.99-.73-.59,0-1.08.12-1.46.37-.38.24-.71.59-.99,1.05l-2.2,3.55c2.09,1.88,4.63,3.43,7.63,4.65,3,1.18,6.34,1.78,10.04,1.78,3.24,0,6.1-.43,8.57-1.31,2.47-.87,4.56-2.06,6.27-3.55,1.71-1.53,3-3.33,3.87-5.38.87-2.09,1.31-4.36,1.31-6.79,0-2.13-.4-3.94-1.2-5.44-.77-1.53-1.79-2.82-3.08-3.87-1.29-1.04-2.75-1.92-4.39-2.61-1.66-.71-3.35-1.33-5.07-1.88-1.71-.59-3.38-1.13-5.02-1.62-1.64-.52-3.1-1.12-4.39-1.78-1.29-.66-2.33-1.45-3.14-2.35-.77-.91-1.15-2.04-1.15-3.4,0-1.08.23-2.07.68-2.98.49-.94,1.17-1.76,2.04-2.46.91-.7,1.99-1.24,3.24-1.62,1.25-.42,2.66-.63,4.23-.63,1.81,0,3.38.21,4.7.63,1.32.38,2.46.82,3.4,1.31.98.45,1.79.87,2.46,1.25.66.38,1.25.58,1.78.58.87,0,1.52-.38,1.93-1.15l2.09-3.4c-2.02-1.92-4.42-3.41-7.21-4.49-2.75-1.11-5.87-1.67-9.36-1.67h0ZM359.46,211.64c-1.88,0-3.64.21-5.28.63-1.6.38-3.14.96-4.6,1.73-1.45.74-2.81,1.64-4.08,2.66-1.31,1.07-2.54,2.24-3.66,3.5l-.73-5.75c-.31-1.29-1.13-1.93-2.46-1.93h-5.59v52.95h9.35v-38.99c2.02-2.26,4.22-4.06,6.59-5.38,2.4-1.32,4.98-1.99,7.73-1.99,3.73,0,6.5,1.12,8.31,3.35,1.85,2.2,2.77,5.3,2.77,9.3v33.71h9.36v-33.71c0-3-.38-5.73-1.15-8.21-.77-2.47-1.9-4.58-3.4-6.32-1.46-1.78-3.31-3.14-5.54-4.08-2.19-.98-4.74-1.46-7.63-1.46h0ZM494.83,211.64c-1.88,0-3.64.21-5.28.63-1.6.38-3.14.96-4.6,1.73-1.45.74-2.81,1.64-4.08,2.66-1.31,1.07-2.54,2.24-3.66,3.5l-.73-5.75c-.31-1.29-1.13-1.93-2.46-1.93h-5.59v52.95h9.35v-38.99c2.02-2.26,4.22-4.06,6.59-5.38,2.4-1.32,4.98-1.99,7.74-1.99,3.73,0,6.5,1.12,8.31,3.35,1.85,2.2,2.77,5.3,2.77,9.3v33.71h9.36v-33.71c0-3-.38-5.73-1.15-8.21-.77-2.47-1.9-4.58-3.4-6.32-1.46-1.78-3.31-3.14-5.54-4.08-2.19-.98-4.74-1.46-7.63-1.46h0ZM308.5,212.48v52.95h9.3v-52.95h-9.3ZM391.92,212.48v52.95h9.3v-52.95h-9.3ZM170.84,218.49c2.13,0,4.02.37,5.7,1.1,1.67.7,3.08,1.71,4.23,3.03,1.18,1.29,2.07,2.84,2.66,4.65.63,1.78.94,3.75.94,5.91h-28.95c.63-4.6,2.23-8.19,4.81-10.77,2.61-2.61,6.15-3.92,10.61-3.92h0ZM113.92,219.06c4.36,0,7.7,1.53,10.04,4.6,2.37,3.03,3.55,7.79,3.55,14.27,0,6.97-1.32,12.21-3.97,15.73-2.65,3.52-6.46,5.28-11.45,5.28-2.44,0-4.69-.47-6.74-1.41-2.02-.94-3.89-2.56-5.59-4.86v-25.61c1.92-2.54,3.99-4.51,6.22-5.91,2.27-1.39,4.91-2.09,7.94-2.09ZM273.02,219.06c2.12,0,4.02.37,5.7,1.1,1.67.73,3.08,1.9,4.23,3.5,1.15,1.57,2.02,3.59,2.61,6.06.63,2.47.94,5.43.94,8.88,0,6.52-1.32,11.53-3.97,15.05-2.65,3.52-6.45,5.28-11.39,5.28-2.51,0-4.77-.47-6.8-1.41-2.02-.94-3.88-2.56-5.59-4.86v-25.61c1.92-2.54,4.01-4.51,6.27-5.91,2.3-1.39,4.97-2.09,8-2.09h0ZM445.18,241.59v10.98c-1,1.07-2.08,2.07-3.24,2.98-1.07.86-2.23,1.62-3.45,2.25-1.21.64-2.49,1.13-3.81,1.46-1.36.31-2.86.47-4.5.47-1.22,0-2.37-.14-3.45-.42-1.05-.31-1.97-.78-2.77-1.41-.77-.66-1.38-1.5-1.83-2.51s-.68-2.21-.68-3.61c0-1.46.42-2.79,1.25-3.97.87-1.18,2.25-2.21,4.13-3.08,1.92-.87,4.37-1.57,7.37-2.09,3.03-.56,6.69-.91,10.97-1.05h0Z"/>
</svg>