<?xml version="1.0" encoding="UTF-8"?>
<svg id="logos" xmlns="http://www.w3.org/2000/svg" viewBox="0 0 800 400">
  <defs>
    <style>
      .cls-1 {
        fill: none;
      }

      .cls-2 {
        fill: #fff;
      }
    </style>
  </defs>
  <path class="cls-1" d="M385.11,264.09h-3.49v4.59h3.56c1.71,0,2.67-.89,2.67-2.26v-.07c.07-1.51-1.03-2.26-2.74-2.26h0ZM451.25,221.77c.68.75,1.51,1.3,2.53,1.71s2.19.62,3.63.62h.07c.55,0,1.03,0,1.57-.07s1.03-.14,1.51-.21.89-.21,1.3-.34.68-.27.96-.34l-.55-3.56v-.07c-.48.21-1.1.41-1.85.55s-1.51.21-2.26.21h-.07c-1.23,0-2.26-.27-2.94-.82-.75-.55-1.16-1.3-1.23-2.19h9.86c0-.27.07-.55.07-.82v-.89c0-2.67-.62-4.66-1.92-6.09-1.23-1.37-2.94-2.05-5.07-2.05h-.07c-.96,0-1.85.21-2.74.55s-1.64.89-2.33,1.57-1.23,1.57-1.64,2.6c-.41,1.03-.62,2.26-.62,3.7,0,1.16.14,2.26.48,3.22.14,1.16.62,1.99,1.3,2.74h0ZM453.99,213.08c.14-.34.27-.68.55-.96.21-.27.55-.48.89-.68.34-.14.75-.27,1.23-.27s.96.07,1.3.27c.34.21.62.41.82.68.21.27.41.62.48.96s.14.75.21,1.1h-5.75c.07-.34.14-.75.27-1.1h0ZM340.67,222.05c.48.68,1.16,1.16,2.05,1.51s1.92.55,3.22.55h.07c1.23,0,2.47-.07,3.63-.27,1.16-.21,2.12-.41,2.88-.62v-15.27h-4.38v12.19c-.27.07-.62.07-.96.14-.34,0-.62.07-.89.07h-.07c-1.03,0-1.71-.34-2.05-.96s-.55-1.71-.55-3.15v-8.29h-4.38v8.83c0,1.1.14,2.05.34,2.94s.55,1.64,1.1,2.33ZM387.78,216.43v-.89c0-2.67-.62-4.66-1.92-6.09-1.23-1.37-2.94-2.05-5.07-2.05h-.07c-.96,0-1.85.21-2.74.55s-1.64.89-2.33,1.57c-.68.68-1.23,1.57-1.64,2.6-.41,1.03-.62,2.26-.62,3.7,0,1.16.14,2.26.48,3.22.34,1.03.82,1.85,1.51,2.6.68.75,1.51,1.3,2.53,1.71s2.19.62,3.63.62h.07c.55,0,1.03,0,1.57-.07s1.03-.14,1.51-.21.89-.21,1.3-.34c.41-.14.68-.27.96-.34l-.55-3.56v-.07c-.48.21-1.1.41-1.85.55-.75.14-1.51.21-2.26.21h-.07c-1.23,0-2.26-.27-2.94-.82-.75-.55-1.16-1.3-1.23-2.19h9.65c0-.07.07-.34.07-.68h0ZM377.85,214.24c.07-.41.14-.75.27-1.1s.27-.68.55-.96c.21-.27.55-.48.89-.68.34-.14.75-.27,1.23-.27s.96.07,1.3.27c.34.21.62.41.82.68s.41.62.48.96.14.75.21,1.1h-5.75ZM356.55,201.1v22.12c.41.14.82.21,1.37.34.48.14,1.03.21,1.57.27.55.07,1.1.14,1.71.21.55.07,1.1.07,1.64.07h.07c1.23,0,2.33-.21,3.29-.62.96-.41,1.85-.96,2.53-1.64.68-.75,1.23-1.57,1.57-2.6.34-1.03.55-2.19.55-3.42s-.14-2.4-.41-3.36c-.27-1.03-.68-1.85-1.3-2.6-.55-.75-1.23-1.3-2.12-1.64-.82-.41-1.78-.55-2.81-.62h-.07c-.62,0-1.16.07-1.71.21-.48.14-.96.27-1.37.48q-.07,0-.14.07v-7.87l-4.38.62h0ZM361.96,211.5c.41-.14.89-.21,1.3-.21,2.05,0,3.08,1.44,3.08,4.31,0,1.37-.27,2.47-.89,3.36-.62.82-1.51,1.23-2.67,1.23-.41,0-.75,0-1.1-.07-.34,0-.62-.07-.82-.14v-8.15c.27-.07.62-.21,1.1-.34ZM473.1,220.27c-.34.14-.89.21-1.57.21h-.07c-.75,0-1.51-.07-2.33-.27-.75-.14-1.44-.41-2.12-.68q-.07,0-.14-.07l-.75,3.63c.34.14.96.34,1.85.62s2.05.34,3.42.34h.07c2.05,0,3.63-.41,4.79-1.23s1.71-1.99,1.71-3.56c0-.68-.07-1.23-.21-1.71-.14-.48-.41-.96-.75-1.37s-.82-.82-1.44-1.16-1.44-.68-2.33-1.1c-.48-.21-.82-.34-1.16-.48-.27-.14-.55-.27-.68-.41-.21-.14-.27-.27-.34-.41-.07-.14-.07-.27-.07-.48,0-.75.68-1.16,2.05-1.16h.07c.68,0,1.37.07,1.92.21.62.14,1.16.27,1.64.48v-.07l.75-3.42c-.48-.21-1.16-.41-2.05-.55-.82-.14-1.71-.27-2.6-.27h-.07c-1.85,0-3.36.41-4.38,1.3-1.1.89-1.57,2.05-1.57,3.49,0,.75.14,1.44.34,1.99.21.55.55,1.03.89,1.37.41.41.89.75,1.44,1.03.55.27,1.16.55,1.85.82.89.34,1.51.62,1.99.89.41.27.62.62.62.96-.27.62-.41.89-.75,1.1h0ZM354.57,264.64c-.48-.34-1.16-.55-1.99-.55h-2.74v4.86h2.81c1.78,0,2.81-1.03,2.81-2.4v-.07c0-.82-.34-1.44-.89-1.85h0ZM364.98,270.25h4.25l-2.12-5.2-2.12,5.2ZM327.18,223.69v-6.92c.07,0,.07.07.14.14.41.41.89.82,1.37,1.37.48.62.96,1.16,1.44,1.85.48.62.89,1.23,1.23,1.92.41.62.75,1.23,1.03,1.71h5c-.34-.68-.75-1.37-1.23-2.19-.48-.82-1.03-1.57-1.57-2.4-.62-.82-1.16-1.57-1.78-2.33-.62-.75-1.23-1.37-1.78-1.92,1.16-1.16,2.26-2.33,3.22-3.42.96-1.1,1.99-2.26,3.01-3.49h-5.2c-.27.34-.62.75-.96,1.16-.41.48-.75.96-1.23,1.44-.41.48-.89,1.03-1.3,1.57-.41.48-.82.89-1.23,1.37l-.14.14v-13.22l-4.31.75v22.6h4.31v-.14ZM379.15,248.21h4.25l-2.12-5.2-2.12,5.2ZM412.43,223.69h4.25v-8.9c0-1.1-.14-2.05-.34-2.94-.21-.89-.55-1.64-1.1-2.26-.48-.62-1.16-1.16-2.05-1.51-.82-.34-1.92-.55-3.15-.55h-.07c-1.3,0-2.53.07-3.7.27s-2.12.41-2.88.62v15.27h4.38v-12.19c.27-.07.62-.07.96-.14s.68-.07.96-.07h.07c.96,0,1.64.27,2.05.89.34.62.55,1.64.55,3.08v8.42h.07Z"/>
  <path class="cls-1" d="M533.22,236.91l-26.43-114.69-106.89-51.08-106.89,51.08-6.09,26.36-20.34,88.33,73.95,91.96h118.66l74.02-91.96h0ZM342.72,324.76l-71.49-88.88,71.49,88.88h-.14l-71.42-88.88,19.86-86.35,5.61-24.45,103.26-49.37h.07l103.26,49.3,25.54,110.79-71.49,88.95h-114.56Z"/>
  <path class="cls-1" d="M434.27,216.43v-.89c0-2.67-.62-4.66-1.92-6.09-1.23-1.37-2.94-2.05-5.07-2.05h-.07c-.96,0-1.85.21-2.74.55s-1.64.89-2.33,1.57c-.68.68-1.23,1.57-1.64,2.6-.41,1.03-.62,2.26-.62,3.7,0,1.16.14,2.26.48,3.22.34,1.03.82,1.85,1.51,2.6.68.75,1.51,1.3,2.53,1.71s2.19.62,3.63.62h.07c.55,0,1.03,0,1.57-.07s1.03-.14,1.51-.21.89-.21,1.3-.34.68-.27.96-.34l-.55-3.56v-.07c-.48.21-1.1.41-1.85.55s-1.51.21-2.26.21h-.07c-1.23,0-2.26-.27-2.94-.82-.75-.55-1.16-1.3-1.23-2.19h9.86c-.21-.07-.21-.34-.14-.68ZM424.34,214.24c.07-.41.14-.75.27-1.1s.27-.68.55-.96c.21-.27.55-.48.89-.68.34-.14.75-.27,1.23-.27s.96.07,1.3.27.62.41.82.68c.21.27.41.62.48.96s.14.75.21,1.1h-5.75ZM437.49,203.97v13.28c0,1.03.07,1.99.27,2.81.21.82.48,1.57.96,2.12.48.62,1.1,1.03,1.85,1.37s1.78.48,2.94.48h.07c.89,0,1.64-.07,2.26-.21s1.23-.34,1.78-.55l-.62-3.42v-.07c-.41.14-.89.27-1.37.34s-.89.14-1.37.14h-.07c-.96,0-1.64-.27-1.92-.82-.34-.55-.48-1.3-.48-2.26v-5.55h5.2v-3.7h-5.2v-4.66l-4.31.68ZM367.51,244.44c0-1.57-1.03-2.33-2.74-2.33h-3.49v4.59h3.56c1.64,0,2.67-.96,2.67-2.26h0ZM400.24,207.87c-.34-.07-.68-.14-.96-.21-.34-.07-.68-.07-.96-.14-.27,0-.55-.07-.82-.07h-.07c-1.3,0-2.47.14-3.56.34-1.03.27-1.99.55-2.74.82v15h4.38v-12.12c.21-.07.48-.14.89-.14.41-.07.68-.07.96-.07h.07c.55,0,1.1.07,1.64.14.55.14.96.21,1.37.34l.75-3.7c-.34,0-.62-.07-.96-.21h0ZM449.88,264.09h-3.49v4.59h3.56c1.71,0,2.67-.89,2.67-2.26v-.07c0-1.51-1.03-2.26-2.74-2.26h0Z"/>
  <path class="cls-1" d="M321.63,229.99v55.81h156.87v-55.81h-156.87ZM418.25,238.89h3.49v16.02h-3.49v-16.02ZM399.28,238.89h3.22l7.53,9.86v-9.86h3.49v16.02h-3.01l-7.74-10.2v10.2h-3.49v-16.02h0ZM357.72,238.89h7.33c2.05,0,3.63.55,4.66,1.64.48.48.82,1.1,1.1,1.78.21.55.27,1.23.27,1.85v.07c0,1.23-.34,2.19-.82,3.01-.62.89-1.51,1.57-2.6,1.99l3.9,5.75h-4.11l-3.42-5.14h-2.81v5.14h-3.49v-16.09h0ZM341.69,238.89h13.28v3.22h-4.86v12.74h-3.49v-12.74h-4.86v-3.22h-.07ZM352.51,272.1h-2.67v4.79h-3.49v-16.02h6.57c3.83,0,6.16,2.26,6.16,5.55v.07c-.07,3.7-2.94,5.61-6.57,5.61h0ZM371.96,276.96l-1.44-3.56h-6.78l-1.44,3.56h-3.56l6.85-16.16h3.22l6.85,16.16h-3.7,0ZM376.48,254.92h-3.56l3.63-8.56.48-1.1,2.74-6.44h3.22l6.85,16.16h-3.7l-1.44-3.56h-6.78l-1.44,3.49ZM387.78,276.96l-3.42-5.14h-2.81v5.14h-3.42v-16.02h7.33c2.05,0,3.63.55,4.66,1.64.89.89,1.37,2.12,1.37,3.63v.07c0,2.6-1.37,4.18-3.42,5l3.9,5.75h-4.18v-.07ZM392.43,238.89h3.49v16.02h-3.49v-16.02ZM406.74,264.16h-4.86v12.74h-3.49v-12.74h-4.86v-3.22h13.28v3.22h-.07ZM423.66,276.96h-3.01l-7.74-10.2v10.2h-3.49v-15.95h3.22l5,6.57,1.23,1.64,1.23,1.64v-9.86h3.49v15.95h.07ZM439.75,276.96h-12.19v-16.02h12.05v3.15h-8.56v3.22h7.53v3.15h-7.53v3.36h8.7v3.15h0ZM439.95,254.92h-2.94l-7.74-10.2v10.2h-3.49v-16.02h3.22l7.53,9.86v-9.86h3.49v16.02h-.07ZM452.55,276.96l-3.42-5.14h-2.81v5.14h-3.49v-16.02h7.33c2.05,0,3.63.55,4.66,1.64.89.89,1.37,2.12,1.37,3.63v.07c0,2.6-1.37,4.18-3.42,5l3.9,5.75h-4.11v-.07ZM458.37,252.66c-.07.07-.14.07-.21.14-1.64,1.3-3.83,2.4-6.64,2.4-5,0-8.42-3.49-8.42-8.22v-.07c0-4.52,3.56-8.29,8.42-8.29,2.88,0,4.59.75,6.3,2.19l-2.19,2.67c-1.23-1.03-2.33-1.64-4.18-1.64-2.53,0-4.59,2.26-4.59,5v.07c0,2.94,1.99,5.07,4.86,5.07,1.3,0,2.4-.34,3.29-.96v-2.26h-3.63v-3.01h6.98v6.92h0Z"/>
  <path class="cls-2" d="M545.06,230.68l-24.99-108.67c-1.3-5.61-5.27-10.54-10.48-13.01l-101.27-48.34c-2.88-1.37-6.16-2.05-9.38-1.85-2.53.14-5.14.75-7.4,1.85l-101.27,48.34c-5.2,2.47-9.18,7.4-10.48,13.01l-24.99,108.74c-1.16,5-.21,10.41,2.6,14.72.34.55.68,1.03,1.1,1.51l70.05,87.17c3.63,4.52,9.31,7.26,15.13,7.26h112.37c5.82,0,11.5-2.74,15.13-7.19l70.05-87.17c3.7-4.59,5.14-10.75,3.83-16.37h0ZM533.22,236.91l-73.95,92.03h-118.66l-73.95-91.96,20.34-88.33,6.09-26.36,106.82-51.15,106.89,51.01,26.43,114.76h0Z"/>
  <path class="cls-2" d="M429.41,212.12c-.21-.27-.48-.48-.82-.68s-.75-.27-1.3-.27c-.48,0-.89.07-1.23.27-.34.14-.62.41-.89.68-.21.27-.41.62-.55.96s-.21.75-.27,1.1h5.75c0-.41-.07-.75-.21-1.1s-.27-.68-.48-.96ZM402.02,155.22c-.21-.41-.62-.75-1.1-1.03-.34-.21-.75-.27-1.1-.21-.82,0-1.57.48-1.99,1.23l-6.85,12.39c4.72,1.64,9.93,1.99,15.2.75.96-.21,1.85-.48,2.74-.75l-6.92-12.39h0ZM404.14,127.55c0,.48.21.96.55,1.37.82,1.03,2.26,1.16,3.29.41h.07l11.5-8.15c-4.31-4.25-10-7.05-16.16-7.81l.75,14.17h0ZM412.22,148.23c-.21,0-.34-.07-.55-.07-.27,0-.62.07-.89.21-1.16.55-1.64,1.92-1.16,3.08l5.48,13.15c5.27-3.36,9.18-8.35,11.23-14.11l-14.11-2.26h0ZM390.38,150.15c-.27-1.1-1.23-1.85-2.26-1.85-.14,0-.34,0-.48.07l-13.9,2.33c2.12,5.96,6.16,10.75,11.23,14.04l5.41-13.01-.07-.07c.14-.48.14-1.03.07-1.51h0ZM395.99,144.26l3.9,1.85,3.9-1.85.96-4.18-2.67-3.36h-4.31l-2.74,3.36.96,4.18ZM391.89,129.4c.41.27.89.48,1.37.48,1.3,0,2.33-1.03,2.4-2.26h.07l.82-14.11c-.96.14-1.92.27-2.88.48-5.27,1.16-9.79,3.77-13.35,7.26,0,0,11.57,8.15,11.57,8.15ZM413.11,135.98c-.34.34-.62.75-.75,1.23-.27,1.23.48,2.47,1.71,2.81v.07l13.63,3.9c.27-2.94.14-5.96-.62-9.04-.68-3.08-1.92-5.96-3.49-8.49l-10.48,9.52h0ZM385.72,140.15c.48-.21.89-.48,1.23-.89.82-1.03.68-2.47-.27-3.29v-.07l-10.61-9.45c-3.15,5.14-4.66,11.23-3.97,17.6l13.63-3.9h0ZM459.26,213.08c-.14-.34-.27-.68-.48-.96-.21-.27-.48-.48-.82-.68s-.75-.27-1.3-.27c-.48,0-.89.07-1.23.27-.34.14-.62.41-.89.68-.21.27-.41.62-.55.96-.14.34-.21.75-.27,1.1h5.75c0-.34-.07-.68-.21-1.1h0ZM382.92,212.12c-.21-.27-.48-.48-.82-.68s-.75-.27-1.3-.27c-.48,0-.89.07-1.23.27-.34.14-.62.41-.89.68-.21.27-.41.62-.55.96s-.21.75-.27,1.1h5.75c0-.41-.07-.75-.21-1.1s-.27-.68-.48-.96ZM360.87,220.13c.21.07.48.07.82.14.34,0,.68.07,1.1.07,1.16,0,2.05-.41,2.67-1.23s.89-1.99.89-3.36c0-2.88-1.03-4.31-3.08-4.31-.48,0-.89.07-1.3.21-.41.14-.82.27-1.1.48v8.01Z"/>
  <path class="cls-2" d="M503.22,125.09l-103.26-49.3-103.19,49.3-5.61,24.45-19.86,86.35,71.49,88.88h114.56l71.42-88.88-25.54-110.79ZM472.96,218.35c-.41-.27-1.1-.55-1.99-.89-.68-.27-1.3-.55-1.85-.82-.55-.27-1.03-.62-1.44-1.03s-.68-.89-.89-1.37c-.21-.55-.34-1.16-.34-1.99,0-1.51.55-2.67,1.57-3.49,1.1-.89,2.53-1.3,4.38-1.3h.14c.96,0,1.85.07,2.67.27.82.14,1.51.34,2.05.55l-.75,3.49q-.07,0-.14-.07v.07c-.48-.21-1.03-.34-1.64-.48-.55-.14-1.23-.21-1.92-.21-1.3,0-1.99.41-1.99,1.16,0,.21,0,.34.07.48s.21.27.34.41c.21.14.41.27.68.41.27.14.68.34,1.16.48.96.34,1.71.75,2.33,1.1s1.1.75,1.44,1.16c.34.41.62.89.75,1.37s.21,1.1.21,1.71c0,1.57-.55,2.74-1.71,3.56-1.16.82-2.74,1.23-4.79,1.23h-.14c-1.37,0-2.47-.14-3.42-.34s-1.51-.41-1.85-.62l.75-3.63q.07,0,.14.07v-.07c.75.27,1.51.55,2.26.68.75.14,1.51.27,2.26.27s1.3-.07,1.57-.21c.34-.14.48-.48.48-.96.21-.41,0-.75-.41-1.03h0ZM449.88,212.26c.41-1.03.96-1.92,1.64-2.6.68-.68,1.44-1.23,2.33-1.57s1.78-.55,2.74-.55h.14c2.19,0,3.9.68,5.14,2.05,1.23,1.37,1.92,3.42,1.92,6.09v.89c0,.34-.07.62-.07.82h-9.86c.07.89.55,1.64,1.23,2.19.75.55,1.71.82,2.94.82.75,0,1.51-.07,2.26-.21.75-.14,1.37-.34,1.85-.55v.07q.07,0,.14-.07l.62,3.63c-.21.14-.55.27-.96.34s-.82.21-1.3.34c-.48.07-.96.14-1.51.21-.55.07-1.1.07-1.64.07h-.14c-1.37,0-2.6-.21-3.63-.62-1.03-.41-1.85-1.03-2.53-1.71-.68-.75-1.16-1.57-1.51-2.6-.34-1.03-.48-2.05-.48-3.22.07-1.57.27-2.81.68-3.83h0ZM441.94,203.22v4.66h5.2v3.7h-5.2v5.55c0,.96.14,1.71.48,2.26s.96.82,1.92.82c.41,0,.89-.07,1.37-.14s.96-.21,1.37-.34v.07q.07,0,.14-.07l.62,3.49c-.55.21-1.1.41-1.78.55s-1.44.27-2.33.27h-.14c-1.16,0-2.19-.14-2.94-.48-.75-.34-1.37-.82-1.85-1.37-.48-.62-.82-1.3-.96-2.12-.21-.82-.27-1.78-.27-2.81v-13.28l4.31-.75h.07ZM354.77,148.71q.07,0,0,0t0,0c.27-.07.55-.14.75-.21.96-.21,1.71-.14,2.6-.21,1.92-.21,3.42-.34,4.86-.82.41-.21.89-.75,1.16-1.16l1.1-.34c-1.23-8.76.89-17.32,5.48-24.31l-.89-.75c-.07-.34-.14-1.1-.55-1.57-1.03-1.03-2.4-1.85-4.04-2.81-.75-.48-1.44-.75-2.26-1.3-.14-.14-.41-.27-.55-.48h-.07c-1.3-1.03-1.57-2.81-.68-3.97.55-.68,1.3-.96,2.12-.96h.14c.62,0,1.3.27,1.85.68.21.14.41.34.62.48.75.62,1.16,1.23,1.78,1.85,1.3,1.37,2.4,2.47,3.63,3.29.27.21.55.21.82.21.21,0,.48-.07.68-.07h.07c.14.14.62.41.89.62,4.59-4.86,10.61-8.42,17.53-10,1.64-.34,3.29-.62,4.86-.75l.07-1.16c.34-.34.75-.82.89-1.37.14-1.44-.07-3.01-.27-4.86-.14-.89-.34-1.57-.34-2.53v-.75c0-1.64,1.23-3.01,2.67-3.01h.14c1.51,0,2.67,1.37,2.67,3.01v.75c-.07.96-.27,1.71-.34,2.53-.21,1.85-.41,3.42-.27,4.86.14.75.55,1.03.89,1.37,0,.21.07.82.07,1.23,8.56.75,16.5,4.66,22.32,10.75l.96-.68h.75c.27,0,.62-.07.89-.21,1.23-.82,2.33-1.92,3.63-3.29.62-.62,1.03-1.23,1.78-1.85.14-.14.41-.34.62-.48.68-.55,1.44-.75,2.19-.68.75,0,1.51.34,1.99.96.96,1.16.62,2.94-.68,3.97-.21.14-.41.34-.62.48-.75.55-1.51.89-2.26,1.3-1.64,1.03-2.94,1.85-4.04,2.81-.48.55-.48,1.03-.48,1.51-.14.14-.68.62-.96.89,2.33,3.42,4.04,7.4,5.07,11.64.96,4.25,1.1,8.49.55,12.6l1.1.34c.21.27.62.96,1.16,1.16,1.37.41,2.94.62,4.86.82.89.07,1.64,0,2.6.21.21.07.55.14.75.21,1.57.41,2.6,1.85,2.26,3.29-.27,1.3-1.51,2.12-2.94,2.05-.21,0-.48,0-.68-.07h-.14c-.21-.07-.48-.07-.68-.14-.89-.27-1.57-.62-2.4-.96-1.78-.62-3.22-1.16-4.66-1.37-.68,0-1.03.27-1.44.55h-.07c-.21-.07-.68-.14-1.03-.21-2.6,8.08-8.08,15.13-15.54,19.51.14.34.34.96.48,1.1-.14.48-.41.89-.21,1.57.55,1.37,1.37,2.67,2.4,4.25.48.75,1.03,1.3,1.44,2.12.14.21.27.48.34.75.68,1.51.21,3.22-1.16,3.83-.34.21-.75.27-1.1.21-1.1.07-2.19-.62-2.74-1.78-.07-.21-.27-.48-.34-.68-.41-.89-.55-1.64-.75-2.47-.62-1.78-1.1-3.29-1.85-4.52-.41-.62-.89-.68-1.37-.82-.07-.14-.41-.68-.55-1.03-1.44.55-2.94,1.03-4.52,1.37-2.67.62-5.27.89-7.87.89-4.31,0-8.49-.82-12.39-2.26l-.62,1.1c-.48.14-.89.27-1.16.55-.96,1.16-1.37,3.08-2.05,4.86-.27.82-.41,1.57-.75,2.47-.07.21-.21.48-.34.68-.55,1.16-1.64,1.78-2.74,1.78-.41,0-.75-.07-1.1-.21-1.3-.62-1.85-2.33-1.16-3.83.07-.21.21-.55.34-.75.48-.82.96-1.44,1.44-2.12,1.03-1.57,1.92-3.01,2.47-4.38.14-.48-.07-1.1-.21-1.51l.48-1.16c-7.19-4.25-12.8-11.02-15.54-19.38l-1.03.21h-.07c-.27-.14-.89-.55-1.44-.55-1.44.21-2.94.75-4.66,1.37-.82.34-1.51.68-2.4.96-.21.07-.48.14-.68.14h-.14c-.21.07-.48.07-.68.07-1.37.07-2.6-.75-2.94-2.05-.34-1.51.68-2.94,2.26-3.36h0ZM425.71,219.45c.75.55,1.71.82,2.94.82.75,0,1.51-.07,2.26-.21.75-.14,1.37-.34,1.85-.55v.07q.07,0,.14-.07l.62,3.63c-.21.14-.55.27-.96.34s-.82.21-1.3.34c-.48.07-.96.14-1.51.21-.55.07-1.1.07-1.64.07h-.14c-1.37,0-2.6-.21-3.63-.62-1.03-.41-1.85-1.03-2.53-1.71-.68-.75-1.16-1.57-1.51-2.6-.34-1.03-.48-2.05-.48-3.22,0-1.44.21-2.6.62-3.7.41-1.03.96-1.92,1.64-2.6.68-.68,1.44-1.23,2.33-1.57.89-.34,1.78-.55,2.74-.55h.14c2.19,0,3.9.68,5.14,2.05,1.23,1.37,1.92,3.42,1.92,6.09v.89c0,.34-.07.62-.07.82h-9.86c.14.82.55,1.57,1.3,2.05h0ZM411.81,212.26c-.34-.62-1.03-.89-2.05-.89-.27,0-.62,0-.89.07-.34,0-.68.07-.96.14v12.19h-4.45v-15.27c.75-.21,1.71-.41,2.88-.62,1.16-.21,2.4-.27,3.7-.27h.14c1.3,0,2.4.21,3.22.55.89.34,1.57.82,2.05,1.51.48.62.89,1.44,1.1,2.26.21.89.34,1.85.34,2.94v8.9h-4.52v-8.42c0-1.44-.21-2.47-.55-3.08h0ZM401.27,208.15l-.75,3.7h-.14c-.41-.07-.82-.21-1.37-.34-.48-.14-1.03-.14-1.64-.14-.27,0-.55,0-.89.07-.41.07-.68.14-.89.14v12.12h-4.45v-14.93c.75-.27,1.71-.55,2.74-.82s2.26-.34,3.56-.34h.14c.21,0,.55,0,.82.07.34,0,.68.07.96.14.34.07.68.14.96.21.41,0,.68.07.96.14h0ZM379.22,219.45c.75.55,1.71.82,2.94.82.75,0,1.51-.07,2.26-.21s1.37-.34,1.85-.55v.07q.07,0,.14-.07l.62,3.63c-.21.14-.55.27-.96.34-.41.14-.82.21-1.3.34-.48.07-.96.14-1.51.21s-1.1.07-1.64.07h-.14c-1.37,0-2.6-.21-3.63-.62-1.03-.41-1.85-1.03-2.53-1.71-.68-.75-1.16-1.57-1.51-2.6s-.48-2.05-.48-3.22c0-1.44.21-2.6.62-3.7.41-1.03.96-1.92,1.64-2.6s1.44-1.23,2.33-1.57c.89-.34,1.78-.55,2.74-.55h.14c2.19,0,3.9.68,5.14,2.05,1.23,1.37,1.92,3.42,1.92,6.09v.89c0,.34-.07.62-.07.82h-9.79c.14.82.55,1.57,1.23,2.05ZM361,200.34v7.81c.48-.21.89-.34,1.37-.48.55-.14,1.1-.21,1.71-.21h.14c1.1,0,2.05.21,2.88.62.82.41,1.51.96,2.12,1.64.55.75.96,1.57,1.3,2.6.27,1.03.41,2.12.41,3.36s-.21,2.4-.55,3.42-.89,1.92-1.57,2.6c-.68.75-1.51,1.3-2.53,1.64-.96.41-2.12.62-3.36.62h-.14c-.55,0-1.1,0-1.64-.07-.55-.07-1.16-.14-1.71-.21s-1.1-.21-1.57-.27c-.48-.14-.96-.21-1.37-.34v-22.12l4.31-.75.21.14h0ZM339.23,207.87h4.52v8.29c0,1.44.21,2.47.55,3.15.34.62,1.03.96,2.05.96.27,0,.62,0,.89-.07.34,0,.68-.07.96-.14v-12.19h4.52v15.27c-.75.21-1.71.41-2.88.62s-2.4.27-3.7.27h-.14c-1.3,0-2.4-.21-3.22-.55-.89-.34-1.57-.89-2.05-1.51-.48-.68-.89-1.44-1.1-2.33-.21-.89-.34-1.92-.34-2.94v-8.83h-.07ZM322.8,201.1l4.31-.75h.14v13.08c.41-.41.82-.89,1.23-1.37.48-.55.89-1.03,1.3-1.57l1.23-1.44c.41-.48.68-.89.96-1.16h5.34c-1.03,1.23-2.05,2.4-3.01,3.49-.96,1.1-2.05,2.26-3.22,3.42.62.55,1.16,1.16,1.78,1.92s1.23,1.51,1.78,2.33c.62.82,1.1,1.57,1.57,2.4.48.82.89,1.51,1.23,2.19h-5.14c-.34-.55-.68-1.1-1.03-1.71-.41-.62-.82-1.23-1.23-1.92-.48-.62-.89-1.23-1.44-1.85-.48-.55-.89-.96-1.37-1.37v6.85h-4.52v-22.53h.07ZM478.5,285.8h-156.87v-55.81h156.87v55.81h0Z"/>
  <path class="cls-2" d="M346.62,254.92h3.49v-12.74h4.86v-3.29h-13.28v3.29h4.93v12.74ZM361.21,249.78h2.81l3.42,5.14h4.11l-3.9-5.75c1.1-.41,1.99-1.03,2.6-1.99.55-.82.82-1.78.82-3.01v-.07c0-.68-.14-1.3-.27-1.85-.21-.68-.62-1.3-1.1-1.78-1.03-1.03-2.6-1.64-4.66-1.64h-7.33v16.02h3.49v-5.07h0ZM361.21,242.11h3.49c1.71,0,2.74.75,2.74,2.26v.07c0,1.37-.96,2.26-2.67,2.26h-3.56v-4.59h0ZM386.13,254.92h3.7l-6.85-16.16h-3.22l-2.74,6.44-.48,1.1-3.63,8.56h3.56l1.44-3.56h6.78l1.44,3.63h0ZM379.15,248.21l2.12-5.2,2.12,5.2h-4.25ZM392.43,238.89h3.49v16.02h-3.49v-16.02ZM402.7,244.71l7.81,10.2h2.94v-16.02h-3.42v9.86l-7.53-9.86h-3.22v16.02h3.42v-10.2ZM418.25,238.89h3.49v16.02h-3.49v-16.02ZM436.53,248.75l-7.53-9.86h-3.29v16.02h3.49v-10.2l7.81,10.2h2.94v-16.02h-3.42v9.86ZM451.39,245.67v3.01h3.56v2.26c-.89.62-2.05.96-3.29.96-2.81,0-4.86-2.12-4.86-5.07v-.07c0-2.74,2.05-5,4.59-5,1.85,0,2.94.62,4.18,1.64l2.19-2.67c-1.64-1.44-3.42-2.19-6.3-2.19-4.86,0-8.42,3.7-8.42,8.29v.07c0,4.72,3.42,8.22,8.42,8.22,2.81,0,5-1.1,6.64-2.4.07-.07.14-.07.21-.14v-6.98h-6.92v.07ZM359.02,266.49c0-3.29-2.33-5.55-6.16-5.55h-6.57v16.02h3.49v-4.79h2.67c3.7-.07,6.57-1.99,6.57-5.68ZM355.46,266.56c0,1.37-1.03,2.4-2.81,2.4h-2.81v-4.86h2.74c.82,0,1.44.21,1.99.55.55.41.89,1.03.89,1.92h0ZM365.52,260.8l-6.85,16.16h3.56l1.44-3.56h6.78l1.44,3.56h3.7l-6.85-16.16h-3.22ZM364.98,270.25l2.12-5.2,2.12,5.2h-4.25ZM391.48,266.28c0-1.57-.48-2.81-1.37-3.7-1.03-1.03-2.6-1.64-4.66-1.64h-7.33v16.02h3.49v-5.14h2.81l3.42,5.14h4.11l-3.9-5.75c1.99-.75,3.42-2.4,3.42-4.93h0ZM387.91,266.42c0,1.37-.96,2.26-2.67,2.26h-3.56v-4.59h3.49c1.64,0,2.74.75,2.74,2.33h0ZM393.46,264.16h4.93v12.8h3.49v-12.8h4.86v-3.22h-13.28v3.22ZM420.23,263.61v7.19l-1.3-1.64-1.23-1.64-5-6.57h-3.22v16.02h3.42v-10.2l7.81,10.2h2.94v-16.02h-3.42v2.67ZM431.05,270.46h7.53v-3.15h-7.53v-3.29h8.56v-3.08h-12.12v16.02h12.26v-3.15h-8.7v-3.36ZM456.18,266.28c0-1.57-.48-2.81-1.37-3.7-1.03-1.03-2.6-1.64-4.66-1.64h-7.33v16.02h3.49v-5.14h2.81l3.42,5.14h4.11l-3.9-5.75c2.05-.75,3.42-2.4,3.42-4.93ZM452.62,266.42c0,1.37-.96,2.26-2.67,2.26h-3.56v-4.59h3.49c1.71,0,2.74.75,2.74,2.33h0Z"/>
</svg>