<?xml version="1.0" encoding="UTF-8"?>
<svg id="logos" xmlns="http://www.w3.org/2000/svg" viewBox="0 0 800 400">
  <defs>
    <style>
      .cls-1 {
        fill: #fff;
      }
    </style>
  </defs>
  <g id="Ebene_1">
    <path class="cls-1" d="M400.01,71.1l106.87,51.03,26.44,114.7-73.97,92.04h-118.69,118.69l73.97-92.04-26.44-114.7-106.87-51.03Z"/>
    <path class="cls-1" d="M545.14,230.65l-25-108.66c-1.3-5.63-5.29-10.51-10.51-13.05l-101.24-48.35c-2.88-1.37-6.18-2.06-9.41-1.85-2.54.14-5.08.76-7.42,1.85l-101.24,48.35c-5.22,2.47-9.2,7.42-10.51,13.05l-24.93,108.66c-1.17,5.01-.21,10.44,2.61,14.77.34.55.69,1.03,1.1,1.51l70.06,87.16c3.64,4.46,9.34,7.21,15.11,7.21h112.37c5.77,0,11.54-2.75,15.11-7.21l70.06-87.16c3.71-4.53,5.15-10.71,3.85-16.28h0ZM533.32,236.83l-73.97,92.04h-118.62l-74.04-91.97,20.33-88.33,6.04-26.37,106.94-51.1,106.87,51.03,26.44,114.7h0Z"/>
    <path class="cls-1" d="M402.07,162.04c-.21-.41-.62-.76-1.1-1.03-.34-.21-.76-.27-1.1-.21-.82,0-1.58.48-1.99,1.24l-6.87,12.36c4.74,1.58,9.96,1.99,15.18.76.96-.21,1.85-.48,2.75-.76l-6.87-12.36ZM404.2,134.36c0,.48.21.96.55,1.37.82,1.03,2.27,1.17,3.23.41h.07l11.54-8.17c-4.33-4.26-10.03-7.01-16.14-7.76l.76,14.15h0ZM383.04,212.11c-.21-.27-.48-.48-.82-.69s-.76-.27-1.24-.27-.89.07-1.24.27c-.34.14-.62.41-.89.69-.21.27-.41.62-.55.96s-.21.76-.27,1.1h5.77c0-.41-.07-.76-.21-1.1-.21-.41-.34-.69-.55-.96h0ZM412.3,155.03c-.21,0-.34-.07-.55-.07-.27,0-.62.07-.89.21-1.17.55-1.65,1.92-1.17,3.09l5.43,13.19c5.22-3.37,9.2-8.31,11.26-14.08l-14.08-2.34h0ZM459.35,213.07c-.14-.34-.27-.69-.48-.96-.21-.27-.48-.48-.82-.69s-.76-.27-1.24-.27-.89.07-1.24.27c-.34.14-.62.41-.89.69s-.41.62-.55.96c-.14.34-.21.76-.27,1.1h5.77c-.07-.41-.14-.76-.27-1.1h0Z"/>
    <path class="cls-1" d="M503.31,125.02l-103.3-49.31-103.3,49.38-5.63,24.45-19.85,86.34,71.5,88.88h114.63l71.43-88.88-25.48-110.86ZM473.02,218.29c-.41-.27-1.1-.55-1.92-.89-.69-.27-1.3-.55-1.85-.82-.55-.27-1.03-.62-1.44-1.03s-.69-.82-.89-1.37-.34-1.17-.34-1.92c0-1.51.55-2.68,1.58-3.5,1.1-.89,2.54-1.3,4.4-1.3.96,0,1.85.07,2.68.27.82.14,1.51.34,2.06.55l-.76,3.5c-.48-.21-1.03-.34-1.65-.48s-1.24-.21-1.99-.21c-1.37,0-2.06.41-2.06,1.17,0,.21,0,.34.07.48s.21.27.34.41c.21.14.41.27.69.41.27.14.69.34,1.17.48.96.34,1.72.76,2.34,1.1s1.1.76,1.44,1.17c.34.41.62.89.76,1.37s.21,1.1.21,1.72c0,1.58-.55,2.75-1.72,3.57s-2.75,1.17-4.81,1.17c-1.37,0-2.47-.14-3.37-.34-.89-.27-1.51-.41-1.85-.62l.76-3.64c.76.27,1.51.55,2.27.69s1.51.27,2.34.27,1.37-.07,1.72-.21.48-.48.48-.96c.07-.41-.14-.76-.62-1.03ZM450.01,212.17c.41-1.03.96-1.92,1.65-2.61s1.44-1.24,2.34-1.58c.89-.34,1.79-.55,2.75-.55,2.2,0,3.91.69,5.15,2.06s1.92,3.37,1.92,6.04v.82c0,.34-.07.62-.07.82h-9.82c.07.89.48,1.65,1.24,2.2.76.55,1.72.82,2.95.82.82,0,1.58-.07,2.34-.21s1.37-.34,1.85-.55l.55,3.64c-.21.14-.55.27-.96.34s-.82.21-1.3.34c-.48.07-.96.14-1.51.21-.55.07-1.1.07-1.65.07-1.37,0-2.61-.21-3.57-.62-1.03-.41-1.85-1.03-2.54-1.72-.69-.76-1.17-1.58-1.51-2.61-.34-1.03-.48-2.06-.48-3.23,0-1.44.27-2.68.69-3.71h0ZM447.12,207.85v3.71h-5.22v5.56c0,.96.14,1.72.48,2.27s.96.82,1.92.82c.48,0,.96-.07,1.44-.14s.96-.21,1.37-.34l.62,3.5c-.55.21-1.1.41-1.72.55s-1.44.27-2.34.27c-1.17,0-2.2-.14-2.95-.48-.76-.34-1.37-.82-1.85-1.37-.48-.62-.82-1.3-.96-2.13-.21-.82-.27-1.79-.27-2.82v-13.32l4.33-.76v4.67h5.15ZM354.88,155.51q.07,0,0,0c.27-.07.55-.14.76-.21.96-.21,1.72-.14,2.61-.21,1.85-.21,3.43-.34,4.81-.82.41-.21.89-.76,1.17-1.17l1.1-.34c-1.24-8.72.89-17.38,5.49-24.31l-.89-.76c-.07-.34-.14-1.1-.55-1.58-1.03-.96-2.4-1.85-3.98-2.82-.76-.48-1.44-.76-2.27-1.3-.14-.14-.41-.27-.55-.48h-.07c-1.3-1.03-1.58-2.82-.69-3.98.55-.69,1.3-.96,2.13-.96.62,0,1.3.27,1.85.69.21.14.41.34.62.48.76.62,1.17,1.24,1.79,1.85,1.3,1.37,2.4,2.47,3.64,3.3.62.34,1.1.21,1.58.14.14.14.69.48.96.69,4.6-4.88,10.58-8.45,17.58-10.03,1.65-.34,3.23-.62,4.88-.76l.07-1.17c.34-.34.76-.82.89-1.37.14-1.44-.07-3.02-.27-4.88-.14-.89-.34-1.58-.34-2.54v-.76c0-1.65,1.24-3.02,2.68-3.02s2.68,1.37,2.68,3.02v.76c-.07.96-.27,1.72-.34,2.54-.21,1.85-.41,3.43-.27,4.88.14.76.55,1.03.89,1.37,0,.21.07.82.07,1.24,8.59.76,16.55,4.67,22.39,10.78l1.03-.76c.34,0,1.1.14,1.65-.21,1.24-.82,2.34-1.92,3.64-3.3.62-.62,1.03-1.24,1.79-1.85.14-.14.41-.34.62-.48,1.3-1.03,3.09-.89,4.05.27.96,1.17.62,2.95-.69,3.98-.21.14-.41.34-.62.48-.76.55-1.44.82-2.27,1.3-1.58.96-2.95,1.85-3.98,2.82-.48.55-.48,1.03-.48,1.51-.14.14-.69.62-.96.82,2.34,3.43,4.05,7.35,5.01,11.68.96,4.26,1.1,8.52.55,12.57l1.1.34c.21.27.62.96,1.17,1.17,1.37.41,2.95.62,4.81.82.89.07,1.65,0,2.61.21.21.07.55.14.76.21,1.58.41,2.61,1.85,2.27,3.3s-1.85,2.34-3.5,1.99h-.14c-.21-.07-.48-.07-.69-.14-.89-.27-1.58-.62-2.4-.96-1.79-.62-3.23-1.17-4.67-1.37-.76-.07-1.1.27-1.51.55-.21-.07-.82-.14-1.17-.21-2.61,8.1-8.1,15.11-15.52,19.51.14.34.34.96.48,1.1-.14.48-.41.89-.21,1.58.55,1.37,1.37,2.68,2.4,4.26.48.76,1.03,1.3,1.44,2.13.14.21.27.48.34.76.69,1.51.21,3.16-1.17,3.85-1.37.62-3.02-.07-3.71-1.51-.07-.21-.27-.48-.34-.69-.41-.89-.48-1.65-.76-2.47-.62-1.79-1.1-3.3-1.85-4.53-.41-.62-.89-.69-1.37-.82-.07-.14-.41-.76-.55-1.03-1.51.55-3.02,1.03-4.6,1.37-7.01,1.58-14.01.96-20.26-1.44l-.62,1.1c-.48.14-.89.27-1.17.55-.96,1.17-1.37,3.02-2.06,4.81-.27.82-.41,1.58-.76,2.47-.07.21-.21.48-.34.69-.69,1.51-2.4,2.2-3.71,1.51-1.3-.62-1.85-2.34-1.17-3.85.07-.21.21-.55.34-.76.41-.82.96-1.44,1.44-2.13,1.03-1.58,1.92-3.02,2.47-4.4.14-.48-.07-1.1-.21-1.51l.48-1.17c-7.14-4.26-12.84-10.99-15.52-19.37l-1.17.21c-.34-.21-.96-.62-1.58-.55-1.44.21-2.88.76-4.67,1.37-.82.34-1.51.69-2.4.96-.21.07-.48.14-.69.14h-.14c-1.58.34-3.16-.55-3.5-1.99-.34-1.3.69-2.75,2.27-3.16h0ZM425.69,219.39c.76.55,1.72.82,2.95.82.82,0,1.58-.07,2.34-.21s1.37-.34,1.85-.55l.55,3.64c-.21.14-.55.27-.96.34-.41.14-.82.21-1.3.34-.48.07-.96.14-1.51.21-.55.07-1.1.07-1.65.07-1.37,0-2.61-.21-3.57-.62-1.03-.41-1.85-1.03-2.54-1.72-.69-.76-1.17-1.58-1.51-2.61s-.48-2.06-.48-3.23c0-1.37.21-2.61.62-3.71.41-1.03.96-1.92,1.65-2.61s1.44-1.24,2.34-1.58c.89-.34,1.79-.55,2.75-.55,2.2,0,3.91.69,5.15,2.06,1.24,1.37,1.92,3.37,1.92,6.04v.82c0,.34-.07.62-.07.82h-9.82c.14.96.55,1.72,1.31,2.2h0ZM411.89,212.17c-.34-.62-1.03-.89-2.06-.89-.34,0-.62,0-.96.07-.34,0-.69.07-.96.14v12.23h-4.33v-15.32c.76-.21,1.72-.41,2.88-.62,1.17-.21,2.4-.27,3.64-.27,1.3,0,2.4.21,3.23.55.89.34,1.58.82,2.06,1.51.48.62.89,1.37,1.1,2.27.21.89.34,1.85.34,2.95v8.93h-4.33v-8.38c-.07-1.51-.27-2.54-.62-3.16h0ZM401.17,208.12l-.76,3.71c-.41-.07-.82-.21-1.37-.34s-1.1-.14-1.72-.14c-.27,0-.62,0-.96.07-.41.07-.69.14-.89.14v12.09h-4.33v-14.97c.76-.27,1.72-.55,2.75-.82s2.27-.34,3.57-.34c.21,0,.48,0,.82.07.34,0,.69.07.96.14.34.07.69.14.96.21.48,0,.76.07.96.21h0ZM379.2,219.39c.76.55,1.72.82,2.95.82.82,0,1.58-.07,2.34-.21.76-.14,1.37-.34,1.85-.55l.55,3.64c-.21.14-.55.27-.96.34-.41.14-.82.21-1.3.34-.48.07-.96.14-1.51.21s-1.1.07-1.65.07c-1.37,0-2.61-.21-3.57-.62-.96-.41-1.85-1.03-2.54-1.72-.69-.76-1.17-1.58-1.51-2.61s-.48-2.06-.48-3.23c0-1.37.21-2.61.62-3.71.41-1.03.96-1.92,1.65-2.61s1.44-1.24,2.34-1.58c.89-.34,1.79-.55,2.75-.55,2.2,0,3.91.69,5.15,2.06,1.24,1.37,1.92,3.37,1.92,6.04v.82c0,.34-.07.62-.07.82h-9.82c.14.96.55,1.72,1.3,2.2ZM362.51,207.71c.55-.14,1.1-.21,1.72-.21,1.1,0,2.06.21,2.88.62.82.41,1.51.96,2.13,1.65.55.76.96,1.58,1.3,2.61.27,1.03.41,2.13.41,3.37s-.21,2.4-.55,3.43-.89,1.92-1.58,2.61c-.69.76-1.51,1.3-2.47,1.65s-2.13.62-3.37.62c-.55,0-1.1,0-1.65-.07-.55-.07-1.17-.14-1.72-.21s-1.1-.21-1.58-.27c-.48-.14-.96-.21-1.37-.34v-22.12l4.33-.76v7.9c.48-.21.96-.41,1.51-.48h0ZM339.36,207.85h4.33v8.24c0,1.44.21,2.47.55,3.16.34.62,1.03.96,2.06.96.34,0,.62,0,.96-.07.34,0,.69-.07.96-.14v-12.23h4.33v15.32c-.76.21-1.72.41-2.88.62-1.17.21-2.4.27-3.64.27-1.3,0-2.4-.21-3.23-.55-.89-.34-1.58-.89-2.06-1.51s-.89-1.44-1.1-2.34c-.21-.89-.34-1.92-.34-2.95v-8.79h.07ZM322.88,201.05l4.33-.76v13.19c.41-.48.89-.96,1.3-1.51.48-.55.89-1.03,1.3-1.51l1.24-1.44c.41-.48.69-.82.96-1.17h5.15c-1.03,1.24-2.06,2.4-3.02,3.5-.96,1.1-2.06,2.27-3.23,3.43.55.55,1.17,1.17,1.79,1.92s1.24,1.51,1.79,2.34c.55.82,1.1,1.58,1.58,2.4.48.82.89,1.51,1.24,2.2h-5.01c-.34-.55-.69-1.1-1.03-1.72-.41-.62-.82-1.24-1.24-1.92-.41-.62-.89-1.24-1.44-1.85-.48-.55-.96-1.1-1.44-1.51v6.94h-4.33l.07-22.53h0ZM478.44,280.79h-156.87v-50.89h156.87v50.89h0Z"/>
    <path class="cls-1" d="M429.47,212.11c-.21-.27-.48-.48-.82-.69s-.76-.27-1.24-.27-.89.07-1.24.27c-.34.14-.62.41-.89.69s-.41.62-.55.96c-.14.34-.21.76-.27,1.1h5.77c0-.41-.07-.76-.21-1.1-.14-.41-.34-.69-.55-.96ZM361,220.07c.21.07.48.07.82.14.34,0,.69.07,1.1.07,1.17,0,2.06-.41,2.68-1.24.62-.82.89-1.92.89-3.37,0-2.88-1.03-4.33-3.09-4.33-.48,0-.89.07-1.3.21-.41.14-.82.27-1.03.48v8.04h-.07ZM390.46,156.88c-.27-1.1-1.24-1.85-2.27-1.85-.14,0-.34,0-.48.07l-13.94,2.34c2.13,5.91,6.18,10.78,11.2,14.01l5.36-13.05-.07-.07c.27-.41.34-.89.21-1.44h0ZM396.09,151.05l3.91,1.85,3.91-1.85.96-4.19-2.68-3.37h-4.4l-2.68,3.37.96,4.19ZM391.97,136.21c.41.27.89.48,1.37.48,1.3,0,2.34-1.03,2.4-2.27h.07l.82-14.15c-.96.14-1.92.27-2.88.48-5.22,1.17-9.82,3.78-13.39,7.28l11.61,8.17ZM413.26,142.74c-.34.34-.62.76-.76,1.24-.27,1.24.48,2.47,1.72,2.82v.07l13.6,3.91c.27-2.95.14-5.98-.62-9.07-.69-3.09-1.92-5.91-3.5-8.45l-10.44,9.48h0ZM385.79,146.93c.48-.21.89-.48,1.24-.82.82-1.03.69-2.47-.27-3.3v-.07l-10.58-9.48c-3.16,5.08-4.6,11.26-3.91,17.58l13.53-3.91h0ZM338.4,256.48c3.37,0,5.36-1.17,7.14-3.09l-2.4-2.47c-1.37,1.24-2.61,2.06-4.6,2.06-2.95,0-5.01-2.47-5.01-5.49v-.07c0-2.95,2.13-5.43,5.01-5.43,1.72,0,3.09.76,4.46,1.99l2.4-2.82c-1.65-1.58-3.57-2.68-6.87-2.68-5.36,0-9.07,4.05-9.07,9v.07c0,5.01,3.78,8.93,8.93,8.93ZM362.44,252.77h-9.48v-3.64h8.24v-3.37h-8.24v-3.57h9.34v-3.37h-13.12v17.38h13.26v-3.43ZM370.27,250.64h3.02l3.71,5.56h4.46l-4.26-6.18c2.2-.82,3.71-2.61,3.71-5.43v-.07c0-1.65-.55-3.02-1.51-3.98-1.17-1.17-2.88-1.79-5.08-1.79h-7.97v17.45h3.85l.07-5.56h0ZM370.27,242.26h3.78c1.85,0,3.02.82,3.02,2.47v.07c0,1.44-1.1,2.47-2.95,2.47h-3.85v-5.01h0ZM389.09,256.2h3.85v-13.87h5.29v-3.5h-14.42v3.5h5.29v13.87ZM401.93,238.82h3.85v17.38h-3.85v-17.38ZM414.57,249.47h8.24v-3.5h-8.24v-3.71h9.41v-3.43h-13.26v17.38h3.85v-6.73ZM427.82,238.82h3.85v17.38h-3.85v-17.38ZM449.8,252.77h-9.41v-3.64h8.17v-3.37h-8.17v-3.57h9.34v-3.37h-13.12v17.38h13.19v-3.43ZM469.86,247.48c0-4.95-3.78-8.72-9.27-8.72h-6.8v17.45h6.8c5.49,0,9.27-3.85,9.27-8.72ZM457.63,242.26h2.95c3.16,0,5.22,2.13,5.22,5.22v.07c0,3.09-2.13,5.22-5.22,5.22h-2.95v-10.51h0ZM334.83,265.54c-1.65-.41-2.06-.62-2.06-1.24,0-.48.41-.82,1.24-.82s1.65.34,2.47.96l1.1-1.58c-.96-.76-2.13-1.24-3.57-1.24-1.92,0-3.37,1.17-3.37,2.88,0,1.92,1.24,2.4,3.16,2.95,1.58.41,1.92.69,1.92,1.24s-.55.89-1.37.89c-1.1,0-1.99-.48-2.88-1.17l-1.24,1.51c1.17,1.03,2.61,1.51,4.05,1.51,2.06,0,3.5-1.1,3.5-2.95.07-1.72-1.03-2.4-2.95-2.95h0ZM346.91,263.62v-1.85h-7.21v9.55h7.28v-1.85h-5.22v-2.06h4.53v-1.85h-4.53v-1.92h5.15ZM350.97,268.22h1.65l2.06,3.09h2.47l-2.34-3.43c1.24-.48,2.06-1.44,2.06-2.95,0-.89-.27-1.65-.82-2.2-.62-.62-1.58-.96-2.82-.96h-4.4v9.55h2.13v-3.09h0ZM350.97,263.62h2.06c1.03,0,1.65.48,1.65,1.37,0,.82-.62,1.37-1.58,1.37h-2.13v-2.75h0ZM357.9,261.76l3.85,9.62h1.85l3.85-9.62h-2.27l-2.47,6.73-2.47-6.73h-2.34ZM369.03,261.76h2.13v9.55h-2.13v-9.55ZM378.1,263.48c.96,0,1.72.41,2.47,1.1l1.3-1.51c-.89-.89-1.99-1.44-3.78-1.44-2.95,0-5.01,2.2-5.01,4.95s2.06,4.95,4.88,4.95c1.85,0,2.95-.69,3.91-1.72l-1.3-1.37c-.76.69-1.44,1.1-2.54,1.1-1.65,0-2.75-1.37-2.75-3.02.07-1.65,1.17-3.02,2.82-3.02h0ZM390.87,269.46h-5.15v-2.06h4.53v-1.85h-4.53v-1.92h5.08v-1.85h-7.21v9.55h7.28v-1.85ZM396.85,271.31h2.13v-2.88h1.58c2.13,0,3.85-1.17,3.85-3.37,0-1.92-1.37-3.3-3.64-3.3h-3.91v9.55h0ZM398.98,263.62h1.65c1.03,0,1.72.48,1.72,1.44,0,.82-.62,1.44-1.65,1.44h-1.65v-2.88h-.07ZM408.11,268.22h1.65l2.06,3.09h2.47l-2.34-3.43c1.24-.48,2.06-1.44,2.06-2.95,0-.89-.27-1.65-.82-2.2-.62-.62-1.58-.96-2.82-.96h-4.4v9.55h2.13v-3.09h0ZM408.11,263.62h2.06c1.03,0,1.65.48,1.65,1.37,0,.82-.62,1.37-1.58,1.37h-2.13v-2.75h0ZM415.46,266.5c0,2.75,2.13,4.95,5.08,4.95s5.08-2.2,5.08-4.95-2.13-4.95-5.08-4.95-5.08,2.27-5.08,4.95ZM423.43,266.5c0,1.65-1.17,3.02-2.88,3.02s-2.88-1.37-2.88-3.02,1.17-2.95,2.88-2.95c1.65-.07,2.88,1.3,2.88,2.95ZM432.36,271.38l3.91-9.62h-2.27l-2.54,6.73-2.47-6.73h-2.34l3.85,9.62h1.85ZM437.85,261.76h2.13v9.55h-2.13v-9.55ZM446.03,261.76h-3.71v9.55h3.71c3.02,0,5.08-2.06,5.08-4.81s-2.06-4.74-5.08-4.74ZM448.91,266.57c0,1.72-1.17,2.88-2.88,2.88h-1.65v-5.77h1.65c1.72-.07,2.88,1.1,2.88,2.88h0ZM460.31,269.46h-5.22v-2.06h4.53v-1.85h-4.53v-1.92h5.15v-1.85h-7.21v9.55h7.28v-1.85ZM470.13,264.92c0-.96-.27-1.65-.82-2.2-.62-.62-1.58-.96-2.82-.96h-4.4v9.55h2.13v-3.09h1.65l2.06,3.09h2.47l-2.34-3.43c1.24-.48,2.06-1.44,2.06-2.95ZM468,264.99c0,.82-.62,1.37-1.58,1.37h-2.13v-2.75h2.06c1.03,0,1.65.48,1.65,1.37Z"/>
  </g>
</svg>