<?xml version="1.0" encoding="UTF-8"?>
<svg id="logos" xmlns="http://www.w3.org/2000/svg" viewBox="0 0 800 400">
  <defs>
    <style>
      .cls-1 {
        fill: #fff;
        fill-rule: evenodd;
      }
    </style>
  </defs>
  <g id="Page-1">
    <g id="logo_classic_bg">
      <path id="Fill-1" class="cls-1" d="M288.11,205.67h10.96c3.19,0,5.62-.87,7.28-2.62,1.67-1.75,2.5-4,2.5-6.74s-.83-5.1-2.5-6.89c-1.66-1.79-4.1-2.69-7.28-2.69h-10.96v18.95ZM288.11,216.95v21.64h-14.74v-63.14h25.71c7.51,0,13.47,1.92,17.87,5.75,4.41,3.83,6.61,8.84,6.61,15.03s-2.2,11.23-6.61,15.03c-4.41,3.8-10.37,5.7-17.87,5.7h-10.96ZM381.72,175.45v41.37c0,7.2-2.4,12.78-7.2,16.74-4.8,3.96-11.08,5.94-18.85,5.94s-14.19-1.98-19.01-5.94c-4.81-3.96-7.22-9.54-7.22-16.74v-41.37h14.75v41.37c0,3.87,1,6.74,3,8.61,2,1.86,4.83,2.8,8.48,2.8s6.41-.92,8.37-2.78c1.96-1.85,2.93-4.73,2.93-8.63v-41.37h14.75ZM405.6,227.31h28.84v11.27h-46.93v-6.59l28.31-45.27h-28.44v-11.28h46.67v6.33l-28.45,45.53ZM457.13,227.31h28.84v11.27h-46.93v-6.59l28.31-45.27h-28.45v-11.28h46.67v6.33l-28.45,45.53ZM506.23,227.31h27.27v11.27h-42.02v-63.14h14.75v51.86ZM578.18,211.57h-24.84v15.74h29.27v11.27h-44.01v-63.14h44.1v11.28h-29.36v13.57h24.84v11.28ZM627.11,238.58h-14.66v-63.14h14.66v63.14ZM680.62,186.72h-16.7v51.86h-14.75v-51.86h-16.57v-11.28h48.02v11.28ZM734.28,216.43l.09.26c-.29,7.4-2.49,13.05-6.59,16.96-4.11,3.9-10.06,5.85-17.85,5.85s-14.19-2.4-19.09-7.2c-4.9-4.8-7.35-11.03-7.35-18.69v-13.18c0-7.63,2.35-13.85,7.07-18.67,4.71-4.81,10.83-7.22,18.38-7.22,8,0,14.12,2.01,18.35,6.03,4.24,4.02,6.63,9.73,7.18,17.13l-.08.26h-14.31c-.2-4.11-1.12-7.15-2.76-9.15-1.64-2-4.43-2.99-8.37-2.99-3.34,0-5.96,1.34-7.88,4.01-1.91,2.68-2.87,6.18-2.87,10.51v13.27c0,4.37,1.04,7.89,3.13,10.58,2.09,2.69,4.96,4.03,8.61,4.03s6.05-.94,7.52-2.82c1.48-1.88,2.32-4.87,2.52-8.97h14.31ZM90.84,260.87c-33.72-33.62-33.72-88.12,0-121.74,33.71-33.61,88.38-33.61,122.1,0,33.72,33.62,33.72,88.12,0,121.73-33.72,33.62-88.38,33.62-122.1,0ZM149.63,210.56s15.54-2.19,20.03-10.84c4.49-8.64,9.78-26.17,9.78-26.17-23.93,0-26.06,8.36-26.06,8.36,0,0-15.12,42.16-20.52,57.71-41.9,0-35.2-20.63-35.2-20.63l20.96-58.62h42.46l-2.84,8.44s3.46-8.44,26.86-8.44c0,0,23.99.1,21.17,8.49-2.81,8.38-11.87,33.51-11.87,33.51-3.03,8.19-20.74,8.12-44.79,8.19Z"/>
    </g>
  </g>
</svg>