<svg width="138" height="29" viewBox="0 0 138 29" fill="none" xmlns="http://www.w3.org/2000/svg">
<path fill-rule="evenodd" clip-rule="evenodd" d="M98.407 3.39761C98.407 1.60298 99.9286 0.316162 101.703 0.316162C103.478 0.316162 104.861 1.60298 104.861 3.39761C104.861 5.19226 103.478 6.44943 101.703 6.44943C99.9286 6.44943 98.407 5.19275 98.407 3.39761ZM99.177 8.57307H104.199V24.339H99.177V8.57307ZM72.3664 2.4704H77.3886V24.3385H72.3664V2.4704ZM42.4112 24.7282C47.0123 24.7282 50.29 21.1978 50.29 16.4714C50.29 11.7444 47.1027 8.21444 42.5299 8.21492C40.8173 8.21492 39.3738 8.72322 38.2311 9.68059V2.47089H33.209V24.339H37.8404V22.9929C38.9829 24.0999 40.5168 24.7282 42.4112 24.7282ZM41.6897 12.5837C43.7946 12.5837 45.328 14.2277 45.328 16.4714C45.328 18.715 43.7946 20.3303 41.6897 20.3303C39.4945 20.3303 37.9903 18.7446 37.9903 16.4714C37.9903 14.1689 39.4641 12.5837 41.6897 12.5837ZM69.0548 24.339V8.57307H64.4235V10.2185C63.3106 9.11201 61.8066 8.51329 59.8526 8.51329C55.2515 8.51329 51.9434 11.7449 51.9434 16.4714C51.9434 21.1978 55.2515 24.7282 59.8526 24.7282C61.8071 24.7282 63.3106 24.0693 64.4235 22.903V24.339H69.0548ZM60.5746 12.5837C62.7699 12.5837 64.2437 14.1674 64.2437 16.4714C64.2437 18.7451 62.7695 20.3303 60.5746 20.3303C58.44 20.3303 56.9358 18.7136 56.9358 16.4714C56.9358 14.2291 58.4697 12.5837 60.5746 12.5837ZM88.2474 8.21443C83.1957 8.21443 79.5868 11.7444 79.5868 16.4713C79.5868 21.1681 83.1972 24.7282 88.2474 24.7282C93.3302 24.7282 96.9387 21.1681 96.9387 16.4713C96.9387 11.7444 93.3276 8.21443 88.2474 8.21443ZM88.2771 12.642C90.4725 12.642 91.8865 14.1975 91.8865 16.4412C91.8865 18.715 90.4427 20.3002 88.2771 20.3006C86.0823 20.3006 84.6388 18.6849 84.6388 16.4713C84.6388 14.1971 86.0823 12.642 88.2771 12.642ZM110.394 18.9244L106.243 20.5101C107.176 23.2645 109.732 24.7282 113.309 24.7253C117.489 24.7253 120.135 22.7509 120.135 19.4896C120.135 15.9113 116.991 15.0851 114.58 14.4517C113.081 14.0578 111.865 13.7384 111.865 12.8782C111.865 12.2202 112.376 11.8314 113.398 11.8314C114.451 11.8314 115.203 12.3397 115.564 13.3271L119.717 11.7114C119.085 9.49885 116.739 8.21249 113.491 8.21249C109.491 8.21249 106.965 10.0693 106.965 13.1206C106.965 16.349 109.905 17.2271 112.279 17.9363C113.887 18.4166 115.236 18.8193 115.236 19.822C115.236 20.5398 114.634 20.9883 113.491 20.9883C111.867 20.9883 110.814 20.2409 110.394 18.9244ZM138 16.1424C138 12.2547 134.932 8.1843 129.76 8.1843C125.189 8.1843 121.52 11.9262 121.52 16.4713C121.52 21.1681 124.828 24.7282 130.061 24.7282C133.514 24.7282 135.553 23.4045 136.776 21.8951L133.888 19.0163C132.986 20.1262 131.985 20.6593 130.211 20.6593C128.316 20.6593 126.903 19.702 126.392 17.938H137.879C137.962 17.3431 138.002 16.743 138 16.1424ZM126.331 14.8258C126.753 12.9112 128.045 11.9237 129.88 11.9237C131.714 11.9237 132.917 13.0308 133.338 14.8258H126.331ZM14.7323 1.21178L27.3432 13.7573C27.4533 13.8669 27.5406 13.9971 27.6001 14.1404C27.6597 14.2836 27.6903 14.4372 27.6902 14.5922C27.69 14.7472 27.6592 14.9007 27.5994 15.0438C27.5396 15.187 27.452 15.3171 27.3417 15.4265L23.9223 18.8282L13.8941 8.85201L8.12493 14.5912L13.8941 20.3303L17.4708 16.7717L21.7304 21.0087L14.7348 27.9705C14.6246 28.0801 14.4939 28.1671 14.35 28.2263C14.2062 28.2856 14.052 28.3162 13.8962 28.3162C13.7405 28.3162 13.5863 28.2856 13.4424 28.2263C13.2985 28.1671 13.1678 28.0801 13.0577 27.9705L0.446824 15.425C0.224651 15.2038 0.0998535 14.9039 0.0998535 14.5912C0.0998535 14.2784 0.224651 13.9785 0.446824 13.7573L13.0553 1.21178C13.1654 1.10221 13.2961 1.01529 13.4399 0.955986C13.5839 0.896684 13.738 0.866163 13.8938 0.866163C14.0495 0.866163 14.2037 0.896684 14.3476 0.955986C14.4914 1.01529 14.6221 1.10221 14.7323 1.21178Z" fill="white"/>
</svg>
