<svg width="190" height="28" viewBox="0 0 190 28" fill="none" xmlns="http://www.w3.org/2000/svg">
<g clip-path="url(#clip0_9837_6307)">
<path d="M26.2638 9.80695C25.8722 9.77838 25.479 9.77838 25.0876 9.77838C21.3312 9.77838 18.0252 10.5917 15.3482 12.1725C17.5903 9.19937 18.7169 5.29869 18.6466 0.727571V0H10.1251L10.1365 0.839944C10.1916 3.9464 9.4639 6.27006 7.98 7.69662C6.0477 9.54411 2.9127 9.8241 0.615602 9.71172L0 9.67934V18.1722L0.336302 18.193C0.727702 18.2216 1.121 18.2216 1.5124 18.2216C5.2687 18.2216 8.5747 17.4084 11.2518 15.8275C9.0098 18.8006 7.8831 22.7013 7.9534 27.2725V28H16.4749L16.4635 27.16C16.4084 24.0536 17.1361 21.73 18.62 20.3034C20.5522 18.4559 23.6872 18.1759 25.9844 18.2884L26.6 18.3207V9.82791L26.2638 9.80695Z" fill="#C0C0C0"/>
<path d="M47.3651 10.4832C47.3651 13.7096 45.1192 16.6904 41.2337 16.6904H36.7706V23.7357H33.25V4.276H41.249C45.1192 4.276 47.3651 7.25865 47.3651 10.4832ZM36.7706 7.43959V13.5249H40.717C42.6151 13.5249 43.7531 12.3231 43.7836 10.4813C43.7531 8.63952 42.6151 7.43769 40.717 7.43769H36.7706V7.43959ZM87.2385 21.1948C85.2206 21.1948 84.4911 20.7073 84.4911 19.0045V12.4773H88.1637V9.58612H84.0199C84.6867 8.96139 85.2796 8.09478 85.1884 6.10255H82.0001C82.0001 6.27014 81.833 9.34423 78.9944 10.5765V12.4792H81.1794V19.357C81.1794 22.6596 83.258 24.1185 86.583 24.1185C87.1606 24.1185 87.7515 24.088 88.3291 23.9966V21.1357C87.9491 21.1662 87.6014 21.1967 87.2366 21.1967L87.2385 21.1948ZM103.915 4.28933H91.3919V23.7337H94.9277V15.7762H103.246V12.6411H94.9277V7.46817H103.913V4.28743L103.915 4.28933ZM109.78 9.2947H106.427V23.7489H109.78V9.2947ZM112.984 23.7509H116.337V15.5038C116.337 13.1306 118.205 12.1117 119.751 12.1117C121.133 12.1117 122.18 12.9478 122.18 15.0029V23.7509H125.533V14.5915C125.533 11.047 123.802 8.94616 120.509 8.94616C118.611 8.94616 116.715 9.96513 116.153 11.8679L115.894 9.29661H112.98V23.7509H112.984ZM127.841 16.5075C127.841 12.7954 129.996 8.96139 134.763 8.96139C136.948 8.96139 138.588 10.1937 138.846 11.2736L139.074 9.30995H142.019V20.4329C142.019 20.8749 142.247 21.391 143.249 21.3758V23.8556L142.49 23.9471C140.532 24.0689 138.924 22.928 138.848 21.5434V21.513C138.438 22.8518 136.694 24.1146 134.765 24.1146C129.985 24.1146 127.843 20.0064 127.843 16.5075H127.841ZM138.77 16.9494V15.8238C138.77 13.3897 137.1 12.0507 135.067 12.0507C132.472 12.0507 131.303 14.4544 131.303 16.4943C131.303 18.5341 132.122 20.9682 135.067 20.9682C137.48 20.9834 138.77 19.1722 138.77 16.9513V16.9494ZM145.988 9.2947V23.7489H149.342V15.5019C149.342 13.1287 151.21 12.1097 152.756 12.1097C154.138 12.1097 155.184 12.9459 155.184 15.001V23.7489H158.538V14.5896C158.538 11.0451 156.808 8.94425 153.514 8.94425C151.616 8.94425 149.72 9.96323 149.157 11.866L148.899 9.2947H145.985H145.988ZM171.188 18.8806C170.579 20.8444 169.154 21.0405 168.243 21.0405C166.375 21.0405 164.221 19.8235 164.221 16.5971C164.221 13.3706 166.406 12.0926 168.243 12.0926C169.198 12.0926 170.687 12.3212 171.157 14.2525L174.454 13.403C173.795 10.6679 171.103 9.01853 168.261 9.01853C163.797 9.01853 160.93 12.4412 160.93 16.5647C160.93 20.6882 163.601 24.0804 168.245 24.1109C171.282 24.1394 173.486 22.5166 174.28 19.6807L171.19 18.8769L171.188 18.8806ZM189.576 19.9893C188.788 22.3777 186.753 24.1146 183.517 24.1146C178.994 24.1146 176.096 20.6921 176.096 16.538C176.096 12.1555 178.996 8.99186 183.291 8.99186C186.281 9.00711 190 10.8184 190 16.3704L189.969 17.3285H179.517C179.427 19.4274 181.212 21.2235 183.489 21.2235C184.657 21.2235 186.024 20.873 186.525 19.2006L189.576 19.9893ZM179.654 14.94L186.546 14.9324C186.546 13.0602 185.097 11.7136 183.369 11.7136C181.41 11.7136 179.837 13.1592 179.654 14.94ZM108.203 7.05867C109.235 7.05867 110.116 6.2073 110.116 5.17117C110.116 4.13505 109.237 3.28369 108.203 3.28369C107.202 3.28369 106.32 4.13505 106.32 5.17117C106.32 6.2073 107.2 7.05867 108.203 7.05867ZM55.7745 8.8395C51.4481 8.8395 48.3986 12.2926 48.3986 16.477C48.3986 20.6616 51.4045 24.1146 55.8049 24.1146C60.1767 24.1146 63.1806 20.6311 63.1806 16.477C63.1806 12.2926 60.1749 8.8395 55.7745 8.8395ZM55.8049 21.1034C53.4222 21.1034 51.4786 19.035 51.4786 16.4638C51.4786 13.8925 53.4222 11.824 55.8049 11.824C58.1875 11.824 60.1311 13.8925 60.1311 16.4638C60.1311 19.035 58.1875 21.1034 55.8049 21.1034ZM71.5292 24.1146C75.2476 24.1146 77.7214 22.0767 77.7214 19.0483C77.7214 15.6561 74.6091 15.26 71.9681 14.9248C70.0396 14.6658 68.3411 14.4067 68.3411 12.9916C68.3411 12.0031 69.1904 11.2869 70.9669 11.2869C72.8346 11.2869 73.8359 12.0926 74.2462 13.523L77.4496 12.7021C76.8569 10.268 74.8086 8.50238 71.1056 8.50238C67.3569 8.50238 64.9439 10.2984 64.9439 13.3249C64.9439 16.7475 68.0256 17.2047 70.7122 17.616C72.6864 17.9207 74.2937 18.1646 74.2937 19.5187C74.2937 20.5988 73.2981 21.2958 71.5976 21.2958C69.8211 21.2958 68.4512 20.5092 67.9952 18.8806L64.7615 19.7169C65.5651 22.471 68.2061 24.1146 71.5311 24.1146H71.5292Z" fill="#C0C0C0"/>
</g>
<defs>
<clipPath id="clip0_9837_6307">
<rect width="190" height="28" fill="white"/>
</clipPath>
</defs>
</svg>
