<svg width="129" height="75" viewBox="0 0 129 75" fill="none" xmlns="http://www.w3.org/2000/svg">
<path d="M34.2043 49.8176H36.1716V44.9345H36.1995L39.7255 49.8176H42.2969L38.0958 44.2575L42.1271 39.2973H39.7126L36.1716 43.82V39.2973H34.2043V49.8176Z" fill="#C0C0C0"/>
<path fill-rule="evenodd" clip-rule="evenodd" d="M44.075 44.197C44.6967 43.6743 45.486 43.3762 46.3088 43.3533C47.4182 43.3533 47.9386 43.77 47.9386 45.0199H46.898C46.1111 45.0199 45.178 45.0949 44.4663 45.472C43.7547 45.849 43.2301 46.5261 43.2301 47.6865C43.2301 49.1635 44.4813 49.9926 45.7584 49.9926C46.2216 49.9875 46.6745 49.8598 47.0683 49.6233C47.462 49.3869 47.7815 49.0507 47.9923 48.651H48.0203C48.0259 49.039 48.0539 49.4264 48.1041 49.8114H49.7617C49.7187 49.2093 49.6908 48.6656 49.6779 48.0781C49.665 47.4906 49.6499 46.9177 49.6499 46.1344V45.1449C49.6499 42.8533 48.7362 41.8742 46.5303 41.8742C45.6575 41.889 44.7987 42.0895 44.0148 42.4617L44.0707 44.195L44.075 44.197ZM45.0296 47.574C45.0296 46.3824 46.2809 46.2324 47.1237 46.2324H47.945C47.945 46.8344 47.8611 47.3927 47.5515 47.8302C47.41 48.0446 47.2147 48.2207 46.9838 48.342C46.753 48.4634 46.4941 48.5259 46.2314 48.5239C45.5563 48.5239 45.0361 48.2385 45.0361 47.574H45.0296Z" fill="#C0C0C0"/>
<path d="M51.8021 49.8176H53.6855V46.0199C53.6855 45.0262 53.98 43.4429 55.3431 43.4429C56.5514 43.4429 56.5665 44.7241 56.5665 45.6741V49.8197H58.4499V44.9199C58.4499 43.1721 57.706 41.8763 55.9903 41.8763C55.5177 41.8563 55.0484 41.9605 54.632 42.178C54.2156 42.3955 53.8678 42.7181 53.6253 43.1117H53.5973V42.0555H51.8129V49.8176H51.8021Z" fill="#C0C0C0"/>
<path d="M61.2922 47.4823C61.2922 49.0197 62.1071 49.9989 63.582 49.9989C64.0526 50.0093 64.522 49.9482 64.973 49.8176L64.9171 48.2198C64.6574 48.3687 64.3586 48.4411 64.0571 48.4281C63.3412 48.4281 63.1713 47.8031 63.1713 47.1469V43.5408H64.844V42.0555H63.1713V39.8556L61.2879 40.5035V42.0555H59.8969V43.5408H61.2879V47.499L61.2922 47.4823Z" fill="#C0C0C0"/>
<path fill-rule="evenodd" clip-rule="evenodd" d="M65.9383 45.9907C65.9383 48.2219 67.3294 49.9989 69.718 49.9989C72.1067 49.9989 73.5106 48.2198 73.5106 45.9907C73.5106 43.4283 71.8659 41.8763 69.718 41.8763C67.5702 41.8763 65.9383 43.4283 65.9383 45.9907ZM67.9056 45.749C67.9056 44.5887 68.4947 43.4429 69.718 43.4429C70.9414 43.4429 71.5455 44.5574 71.5455 45.749C71.5455 47.0448 71.165 48.4323 69.718 48.4323C68.2711 48.4323 67.9056 47.0302 67.9056 45.749Z" fill="#C0C0C0"/>
<path d="M75.2736 49.8176H77.157V46.0199C77.157 45.0262 77.4516 43.4429 78.8147 43.4429C80.023 43.4429 80.038 44.7241 80.038 45.6741V49.8197H81.915V44.9199C81.915 43.1721 81.1754 41.8742 79.4618 41.8742C78.9893 41.8542 78.5199 41.9584 78.1035 42.1759C77.6872 42.3934 77.3393 42.716 77.0969 43.1096H77.0689V42.0555H75.2844V49.8176H75.2736Z" fill="#C0C0C0"/>
<path fill-rule="evenodd" clip-rule="evenodd" d="M84.5251 44.197C85.1468 43.6742 85.9361 43.376 86.759 43.3533C87.8684 43.3533 88.3886 43.77 88.3886 45.0199H87.3481C86.5612 45.0199 85.628 45.0949 84.9164 45.472C84.2047 45.849 83.6801 46.5261 83.6801 47.6865C83.6823 49.1656 84.925 49.9989 86.215 49.9989C86.6782 49.9937 87.1311 49.866 87.5248 49.6296C87.9185 49.3931 88.238 49.0569 88.4489 48.6573H88.4768C88.4827 49.0452 88.5107 49.4326 88.5606 49.8176H90.2183C90.1753 49.2156 90.1474 48.6718 90.1345 48.0844C90.1216 47.4969 90.1065 46.924 90.1065 46.1407V45.1449C90.1065 42.8533 89.1927 41.8742 86.9868 41.8742C86.114 41.889 85.2553 42.0895 84.4714 42.4617L84.5272 44.195L84.5251 44.197ZM85.4797 47.574C85.4797 46.3824 86.731 46.2324 87.5738 46.2324H88.3886C88.3886 46.8344 88.3048 47.3927 87.9952 47.8302C87.8537 48.0446 87.6584 48.2207 87.4275 48.342C87.1966 48.4634 86.9377 48.5259 86.6751 48.5239C86 48.5239 85.4818 48.2385 85.4818 47.574H85.4797Z" fill="#C0C0C0"/>
<path d="M92.2866 49.8176H94.1678V38.514H92.2866V49.8176Z" fill="#C0C0C0"/>
<path fill-rule="evenodd" clip-rule="evenodd" d="M98.298 45.9136C98.298 44.8283 98.7753 43.4408 99.9836 43.4408C101.192 43.4408 101.542 44.872 101.542 45.9136C101.542 46.9552 101.192 48.4302 99.9535 48.4302C98.7151 48.4302 98.2959 47.0136 98.2959 45.9136H98.298ZM96.4017 49.8176H98.2292V48.8677H98.255C98.4935 49.2254 98.8232 49.5175 99.2122 49.7157C99.6013 49.9139 100.037 50.0114 100.476 49.9989C102.697 49.9989 103.512 48.0406 103.512 45.9136C103.512 43.7866 102.695 41.8742 100.476 41.8742C99.4934 41.8742 98.8312 42.3117 98.313 43.0492H98.2851V38.514H96.4017V49.8176Z" fill="#C0C0C0"/>
<path fill-rule="evenodd" clip-rule="evenodd" d="M105.651 44.197C106.273 43.6742 107.062 43.376 107.885 43.3533C108.994 43.3533 109.515 43.77 109.515 45.0199H108.474C107.687 45.0199 106.754 45.0949 106.042 45.472C105.331 45.849 104.806 46.5261 104.806 47.6865C104.806 49.1635 106.057 49.9926 107.334 49.9926C107.798 49.9875 108.251 49.8598 108.644 49.6233C109.038 49.3869 109.357 49.0507 109.568 48.651H109.596C109.602 49.039 109.63 49.4264 109.68 49.8114H111.338C111.295 49.2093 111.267 48.6656 111.254 48.0781C111.241 47.4906 111.226 46.9177 111.226 46.1344V45.1449C111.226 42.8533 110.312 41.8742 108.106 41.8742C107.233 41.889 106.375 42.0895 105.591 42.4617L105.647 44.195L105.651 44.197ZM106.606 47.574C106.606 46.3824 107.855 46.2324 108.7 46.2324H109.515C109.515 46.8344 109.431 47.3927 109.121 47.8302C108.98 48.0446 108.784 48.2207 108.553 48.342C108.323 48.4634 108.064 48.5259 107.801 48.5239C107.126 48.5239 106.608 48.2385 106.608 47.574H106.606Z" fill="#C0C0C0"/>
<path d="M113.369 49.8176H115.253V46.0199C115.253 45.0262 115.547 43.4429 116.911 43.4429C118.119 43.4429 118.134 44.7241 118.134 45.6741V49.8197H120.017V44.9199C120.017 43.1721 119.273 41.8763 117.558 41.8763C117.085 41.8563 116.616 41.9605 116.199 42.178C115.783 42.3955 115.435 42.7181 115.193 43.1117H115.165V42.0555H113.38V49.8176H113.369Z" fill="#C0C0C0"/>
<path d="M122.283 49.8176H124.167V46.0511H124.195L126.611 49.8176H129L125.964 45.522L128.662 42.0555H126.444L124.195 45.1616H124.167V38.514H122.283V49.8176Z" fill="#C0C0C0"/>
<path fill-rule="evenodd" clip-rule="evenodd" d="M39.3235 30.7872H37.0316L38.1668 27.3145H38.1883L39.3235 30.7872ZM34.2667 34.0433H35.905L36.5908 32.1143H39.7707L40.4458 34.0433H42.1873L39.0999 25.625H37.324L34.2667 34.0413V34.0433Z" fill="#C0C0C0"/>
<path fill-rule="evenodd" clip-rule="evenodd" d="M43.7203 29.5456C44.2175 29.1275 44.8488 28.889 45.5069 28.8707C46.3948 28.8707 46.8098 29.2081 46.8098 30.2081H45.9778C45.3478 30.2081 44.6061 30.2685 44.0428 30.5706C43.4795 30.8726 43.0537 31.4143 43.0537 32.3434C43.0537 33.5246 44.0535 34.1871 45.0769 34.1871C45.4451 34.1829 45.8053 34.0819 46.1189 33.8948C46.4324 33.7076 46.6876 33.4414 46.8571 33.1246H46.8786C46.8827 33.4353 46.905 33.7455 46.9453 34.0538H48.2718C48.2374 33.5704 48.2159 33.1371 48.2051 32.6663C48.1944 32.1955 48.1837 31.7372 48.1837 31.1101V30.306C48.1837 28.4728 47.4526 27.6895 45.6875 27.6895C44.9892 27.7015 44.3022 27.8622 43.6751 28.1603L43.7203 29.5477V29.5456ZM44.4835 32.2538C44.4835 31.3018 45.4832 31.181 46.1583 31.181H46.8033C46.8335 31.6275 46.7241 32.0725 46.4894 32.458C46.3763 32.6294 46.2201 32.7701 46.0354 32.867C45.8508 32.964 45.6438 33.0139 45.4338 33.0121C44.8942 33.0121 44.4792 32.783 44.4792 32.2518L44.4835 32.2538Z" fill="#C0C0C0"/>
<path d="M50.0455 34.0433H51.5505V31.7643C51.5505 30.8726 51.5505 29.2331 52.776 29.2331C53.009 29.2227 53.241 29.2685 53.4511 29.3665V27.7374C53.3013 27.6983 53.1461 27.6821 52.991 27.6895C52.0923 27.6895 51.4731 28.6665 51.4065 29.2456H51.385V27.8332H50.0477V34.0433H50.0455Z" fill="#C0C0C0"/>
<path fill-rule="evenodd" clip-rule="evenodd" d="M57.19 32.7892C56.33 32.7892 55.9 31.7476 55.9 30.9143C55.9 29.9623 56.2268 28.9498 57.248 28.9498C58.1252 28.9498 58.5058 29.8185 58.5058 30.8789C58.5058 31.9393 58.1231 32.7955 57.1793 32.7955L57.19 32.7892ZM58.5875 27.8332V28.6769H58.566C58.4008 28.363 58.1449 28.1024 57.8297 27.9267C57.5144 27.751 57.1532 27.6679 56.7901 27.6874C55.0594 27.6874 54.3391 29.4123 54.3391 30.906C54.3391 32.5726 54.9841 34.0308 56.7041 34.0308C57.0678 34.0377 57.4268 33.9494 57.7431 33.7753C58.0594 33.6012 58.3214 33.3476 58.5015 33.0413H58.523C58.523 34.1142 58.4456 35.4537 56.7815 35.4537C56.3107 35.4537 55.556 35.1766 55.0959 34.912L54.9712 36.287C55.5983 36.5678 56.282 36.7101 56.9728 36.7036C59.4002 36.7036 60.0301 35.112 60.0301 33.4246V27.8332H58.5875Z" fill="#C0C0C0"/>
<path fill-rule="evenodd" clip-rule="evenodd" d="M62.2275 29.5456C62.7247 29.1275 63.356 28.889 64.0141 28.8707C64.902 28.8707 65.317 29.2081 65.317 30.2081H64.485C63.855 30.2081 63.1133 30.2685 62.55 30.5706C61.9867 30.8726 61.5609 31.4143 61.5609 32.3434C61.5609 33.5246 62.5607 34.1871 63.5841 34.1871C63.9516 34.1822 64.3109 34.0808 64.6236 33.8937C64.9363 33.7066 65.1908 33.4408 65.36 33.1246H65.3815C65.3858 33.4353 65.408 33.7455 65.4482 34.0538H66.7747C66.7424 33.5704 66.7188 33.1371 66.708 32.6663C66.6973 32.1955 66.6866 31.7372 66.6866 31.1101V30.306C66.6866 28.4728 65.9556 27.6895 64.1904 27.6895C63.4921 27.7015 62.8051 27.8622 62.178 28.1603L62.2232 29.5477L62.2275 29.5456ZM62.9928 32.2538C62.9928 31.3018 63.9926 31.181 64.6677 31.181H65.3127C65.343 31.6275 65.2336 32.0726 64.9988 32.458C64.8856 32.6294 64.7294 32.7701 64.5448 32.867C64.3601 32.964 64.1531 33.0139 63.9432 33.0121C63.4035 33.0121 62.9886 32.783 62.9886 32.2518L62.9928 32.2538Z" fill="#C0C0C0"/>
<path d="M72.3303 27.8332V30.8726C72.3303 31.6684 72.0938 32.9351 71.0037 32.9351C70.0362 32.9351 70.0255 31.9101 70.0255 31.1497V27.8332H68.5205V31.7518C68.5205 33.1496 69.1161 34.1871 70.4878 34.1871C70.8633 34.1821 71.232 34.0896 71.5628 33.9173C71.8936 33.7451 72.1768 33.4982 72.3883 33.1975H72.4098V34.0413H73.8375V27.8332H72.3303Z" fill="#C0C0C0"/>
<path fill-rule="evenodd" clip-rule="evenodd" d="M75.766 34.0433H77.271V27.8332H75.766V34.0433ZM75.766 26.6999H77.271V25.1562H75.766V26.6999Z" fill="#C0C0C0"/>
<path d="M82.7148 27.9165C82.1808 27.7706 81.6292 27.6935 81.0743 27.6874C79.894 27.6874 78.8039 28.279 78.8039 29.6165C78.8039 31.858 81.4226 31.0268 81.4226 32.2455C81.4226 32.8476 80.8163 33.0059 80.4336 33.0059C79.9105 32.9922 79.3997 32.8488 78.9501 32.5892L78.8598 33.9163C79.4139 34.0821 79.9893 34.1712 80.5691 34.1808C81.7946 34.1808 82.9964 33.6017 82.9964 32.1559C82.9964 29.9144 80.3778 30.5393 80.3778 29.5519C80.3778 29.0206 80.8615 28.8644 81.2657 28.8644C81.729 28.8623 82.1878 28.9523 82.6137 29.129L82.7148 27.9103V27.9165Z" fill="#C0C0C0"/>
<path d="M88.3886 27.8936C87.9166 27.746 87.4225 27.6756 86.9266 27.6853C85.1163 27.6853 84.1316 29.1081 84.1316 30.9039C84.1316 32.7976 85.0862 34.1829 86.9868 34.1829C87.4971 34.1972 88.0061 34.1268 88.4918 33.9746L88.4252 32.6351C88.0642 32.8073 87.6705 32.9059 87.2685 32.9246C86.2128 32.9246 85.7054 32.0455 85.7054 30.8997C85.7054 29.7539 86.301 28.9352 87.2341 28.9352C87.5898 28.926 87.942 29.0049 88.2575 29.1644L88.3929 27.8874L88.3886 27.8936Z" fill="#C0C0C0"/>
<path d="M89.8227 34.0433H91.3277V31.0039C91.3277 30.2081 91.5642 28.9415 92.6542 28.9415C93.6217 28.9415 93.6325 29.9664 93.6325 30.7268V34.0433H95.1375V30.1248C95.1375 28.7269 94.542 27.6895 93.1703 27.6895C92.804 27.6861 92.4432 27.7756 92.1237 27.9492C91.8042 28.1228 91.5372 28.3744 91.3492 28.679H91.3277V25H89.8227V34.0433Z" fill="#C0C0C0"/>
<path fill-rule="evenodd" clip-rule="evenodd" d="M98.1045 30.3289C98.1711 29.4956 98.599 28.8707 99.4418 28.8707C100.285 28.8707 100.622 29.5456 100.667 30.3289H98.1045ZM101.678 32.3788C101.111 32.7593 100.445 32.9761 99.7557 33.0038C98.8226 33.0038 98.1712 32.4372 98.1024 31.4372H102.103C102.103 29.2665 101.497 27.6874 99.3493 27.6874C97.5498 27.6874 96.6618 29.1706 96.6618 30.9664C96.6618 33.0038 97.7755 34.185 99.6847 34.185C100.383 34.2071 101.073 34.0358 101.673 33.6913V32.3788H101.678Z" fill="#C0C0C0"/>
<path d="M25.0905 49.8155H0V25.5958H25.0905V49.8155ZM0.84065 49.0052H24.2498V26.4062H0.84065V49.0052Z" fill="#C0C0C0"/>
<path d="M22.6051 27.7124H11.2638L4.9149 37.7182L11.2638 47.676H22.6051L16.2583 37.7182L22.6051 27.7124Z" fill="#C0C0C0"/>
<path d="M23.1125 47.949H11.1048L4.58165 37.7078L11.1048 27.4395H23.1125L16.5894 37.7078L23.1125 47.949ZM11.4208 47.4031H22.0998L15.9251 37.7078L22.0998 27.9769H11.4208L5.24815 37.7078L11.4208 47.4031Z" fill="#C0C0C0"/>
</svg>
