<svg width="72" height="75" viewBox="0 0 72 75" fill="none" xmlns="http://www.w3.org/2000/svg">
<g clip-path="url(#clip0_9831_3334)">
<path d="M39.1838 51.1714H40.8164C45.7144 50.9228 49.1429 47.0286 49.1429 42.3886C49.1429 40.8143 48.8164 39.24 48.0817 37.9971H39.1838V51.1714Z" fill="#C0C0C0"/>
<path d="M38.3674 37.9143H30.2042V51.1714H38.3674V37.9143Z" fill="#C0C0C0"/>
<path d="M47.5919 37.0857C46.7756 35.9257 45.6327 35.0143 44.4082 34.3514C45.8776 33.2743 46.8572 31.5343 46.8572 29.6286C46.8572 26.3971 44.3266 23.8286 41.1429 23.8286H39.1838V37.0857H47.5919Z" fill="#C0C0C0"/>
<path d="M38.3674 23.8286H30.2042V37.0857H38.3674V23.8286Z" fill="#C0C0C0"/>
<path d="M61.2246 51.1714H62.8572C67.7552 50.9228 71.1838 47.0286 71.1838 42.3886C71.1838 40.8143 70.8572 39.24 70.1225 37.9971H61.2246V51.1714Z" fill="#C0C0C0"/>
<path d="M60.4082 37.9143H52.245V51.1714H60.4082V37.9143Z" fill="#C0C0C0"/>
<path d="M69.6327 37.0857C68.8164 35.9257 67.6736 35.0143 66.4491 34.3514C67.9185 33.2743 68.898 31.5343 68.898 29.6286C68.898 26.3971 66.3674 23.8286 63.1838 23.8286H61.2246V37.0857H69.6327Z" fill="#C0C0C0"/>
<path d="M60.4082 23.8286H52.245V37.0857H60.4082V23.8286Z" fill="#C0C0C0"/>
<path d="M5.46947 37.9143L0.816406 51.1714H7.59192L9.5511 45.3714H13.8776V37.9143H5.46947Z" fill="#C0C0C0"/>
<path d="M13.8776 23.8286H10.3674L5.71437 37.0857H13.8776V23.8286Z" fill="#C0C0C0"/>
<path d="M14.694 45.3714H19.0205L20.9797 51.1714H27.7552L23.1021 37.9143H14.694V45.3714Z" fill="#C0C0C0"/>
<path d="M22.8572 37.0857L18.2042 23.8286H14.694V37.0857H22.8572Z" fill="#C0C0C0"/>
</g>
<defs>
<clipPath id="clip0_9831_3334">
<rect width="72" height="29" fill="white" transform="translate(0 23)"/>
</clipPath>
</defs>
</svg>
