<svg width="127" height="75" viewBox="0 0 127 75" fill="none" xmlns="http://www.w3.org/2000/svg">
<g clip-path="url(#clip0_9831_3341)">
<path fill-rule="evenodd" clip-rule="evenodd" d="M84.1885 43.2367C85.6164 46.5081 90.3602 46.8128 92.6753 45.1178C93.6393 44.412 94.2338 43.2347 94.1531 41.9427C94.0783 40.7369 93.4609 39.7413 92.4439 39.2397C90.0427 38.0558 87.5672 38.2014 87.6326 36.7972C87.6654 36.0924 88.3284 35.6047 89.5318 35.6749C90.4413 35.7284 90.9937 36.1854 91.4733 36.8303L93.8399 35.5329C93.4522 34.8834 92.9759 34.3739 92.3864 33.9788C91.2218 33.1973 89.8487 32.9167 88.3081 33.1423C87.1666 33.3098 86.2714 33.7571 85.5735 34.5095C84.3732 35.8039 84.4037 37.9652 85.645 39.1567C86.8324 40.2965 88.7815 40.5635 90.3492 41.2181C91.7264 41.7934 91.3567 43.2281 89.9686 43.5193C88.6373 43.7985 87.2399 43.1917 86.583 41.8894L84.1885 43.2367Z" fill="#C0C0C0"/>
<path fill-rule="evenodd" clip-rule="evenodd" d="M55.7139 45.7109H58.9713L61.7428 41.831L64.491 45.7119L67.893 45.7109L63.4444 39.4369L67.6724 33.4636L64.4107 33.4646L61.8062 37.1304L59.1932 33.4636L55.8069 33.4649L60.1042 39.5252L55.7139 45.7109Z" fill="#C0C0C0"/>
<path fill-rule="evenodd" clip-rule="evenodd" d="M75.1303 43.2629C73.0968 43.2629 71.4483 41.6207 71.4483 39.5951C71.4483 37.5694 73.0968 35.9273 75.1303 35.9273C77.1637 35.9273 78.8122 37.5694 78.8122 39.5951C78.8122 41.6207 77.1637 43.2629 75.1303 43.2629ZM78.7523 33.4689V34.7587C77.6715 33.7253 76.2744 33.0963 74.6123 33.0963C71.3482 33.0963 68.5728 35.914 68.5728 39.5947C68.5728 42.8618 70.948 46.0935 74.6764 46.0935C76.2552 46.0935 77.6937 45.4552 78.7775 44.408V45.7112H81.6776V33.4689H78.7523Z" fill="#C0C0C0"/>
<path fill-rule="evenodd" clip-rule="evenodd" d="M47.2511 43.2629C45.2177 43.2629 43.5692 41.6207 43.5692 39.5951C43.5692 37.5694 45.2177 35.9273 47.2511 35.9273C49.2846 35.9273 50.9331 37.5694 50.9331 39.5951C50.9331 41.6207 49.2846 43.2629 47.2511 43.2629ZM50.8729 33.4689V34.7587C49.7921 33.7253 48.3951 33.0963 46.7329 33.0963C43.4688 33.0963 40.6934 35.914 40.6934 39.5947C40.6934 42.8618 43.0686 46.0935 46.7971 46.0935C48.3758 46.0935 49.8143 45.4552 50.8979 44.408V45.7112H53.7982V33.4689H50.8729Z" fill="#C0C0C0"/>
<path fill-rule="evenodd" clip-rule="evenodd" d="M7.0353 43.2751C5.00183 43.2751 3.35368 41.6329 3.35368 39.6073C3.35368 37.5816 5.00183 35.9395 7.0353 35.9395C9.06875 35.9395 10.7172 37.5816 10.7172 39.6073C10.7172 41.6329 9.06875 43.2751 7.0353 43.2751ZM10.6566 33.4814V34.7709C9.57616 33.7378 8.17907 33.1085 6.51663 33.1085C3.25254 33.1085 0.477051 35.9263 0.477051 39.6069C0.477051 42.874 2.85262 46.1057 6.58074 46.1057C8.15947 46.1057 9.59802 45.4674 10.6818 44.4202V45.7235H13.5819V33.4814H10.6566Z" fill="#C0C0C0"/>
<path fill-rule="evenodd" clip-rule="evenodd" d="M23.3145 43.2751C21.2811 43.2751 19.6325 41.633 19.6325 39.6073C19.6325 37.5817 21.2811 35.9396 23.3145 35.9396C25.348 35.9396 26.9964 37.5817 26.9964 39.6073C26.9964 41.633 25.348 43.2751 23.3145 43.2751ZM23.9292 33.0889C22.1281 33.0889 20.6159 33.8086 19.6885 34.7787V28.4434H16.7944V45.7198H19.7018V44.4247C20.7584 45.4071 22.0498 46.094 23.8222 46.094C26.948 46.094 29.8601 43.5271 29.8601 39.5956C29.8601 35.6237 27.0052 33.0889 23.9292 33.0889Z" fill="#C0C0C0"/>
<path fill-rule="evenodd" clip-rule="evenodd" d="M39.6155 33.1349C35.6127 33.1945 34.8435 35.4366 34.8435 35.4366V33.4705H31.9526V45.7082H34.8587L34.8693 39.774C35.0792 36.0979 38.833 36.3117 39.6155 36.3961V33.1349Z" fill="#C0C0C0"/>
<path fill-rule="evenodd" clip-rule="evenodd" d="M126.682 25.6938H120.06V28.8887C122.174 31.1314 123.478 34.1586 123.478 37.4998C123.478 40.8409 122.174 43.8684 120.06 46.1115V49.3498H126.682V25.6938Z" fill="#C0C0C0"/>
<path fill-rule="evenodd" clip-rule="evenodd" d="M117.65 37.4652C117.65 41.1158 114.721 44.0751 111.109 44.0751C107.496 44.0751 104.567 41.1158 104.567 37.4652C104.567 33.8147 107.496 30.8553 111.109 30.8553C114.721 30.8553 117.65 33.8147 117.65 37.4652ZM120.061 46.1112V28.8891C117.806 26.4982 114.634 25 111.109 25C104.276 25 98.7373 30.5968 98.7373 37.4998C98.7373 44.4038 104.276 50 111.109 50C114.634 50 117.806 48.5021 120.061 46.1112Z" fill="#C0C0C0"/>
</g>
<defs>
<clipPath id="clip0_9831_3341">
<rect width="127" height="25" fill="white" transform="translate(0 25)"/>
</clipPath>
</defs>
</svg>
