<svg width="120" height="75" viewBox="0 0 120 75" fill="none" xmlns="http://www.w3.org/2000/svg">
<g clip-path="url(#clip0_9831_3371)">
<path fill-rule="evenodd" clip-rule="evenodd" d="M85.5302 27.7513C85.5302 26.1489 86.854 25 88.3979 25C89.9418 25 91.1453 26.1489 91.1453 27.7513C91.1453 29.3537 89.9418 30.4761 88.3979 30.4761C86.854 30.4761 85.5302 29.3541 85.5302 27.7513ZM86.2001 32.3722H90.569V46.449H86.2001V32.3722ZM62.874 26.9234H67.2435V46.4485H62.874V26.9234ZM36.8121 46.7965C40.8152 46.7965 43.667 43.6443 43.667 39.4243C43.667 35.2038 40.8939 32.052 36.9154 32.0525C35.4254 32.0525 34.1695 32.5063 33.1754 33.3611V26.9239H28.8059V46.449H32.8354V45.2471C33.8294 46.2355 35.164 46.7965 36.8121 46.7965ZM36.1844 35.9531C38.0157 35.9531 39.3498 37.421 39.3498 39.4243C39.3498 41.4275 38.0157 42.8698 36.1844 42.8698C34.2745 42.8698 32.9659 41.454 32.9659 39.4243C32.9659 37.3685 34.2481 35.9531 36.1844 35.9531ZM59.9929 46.449V32.3722H55.9635V33.8414C54.9953 32.8534 53.6867 32.3189 51.9867 32.3189C47.9836 32.3189 45.1055 35.2042 45.1055 39.4243C45.1055 43.6443 47.9836 46.7965 51.9867 46.7965C53.6872 46.7965 54.9953 46.2081 55.9635 45.1668V46.449H59.9929ZM52.6149 35.9531C54.5248 35.9531 55.807 37.3672 55.807 39.4243C55.807 41.4545 54.5244 42.8698 52.6149 42.8698C50.7576 42.8698 49.449 41.4263 49.449 39.4243C49.449 37.4223 50.7835 35.9531 52.6149 35.9531ZM76.691 32.052C72.2959 32.052 69.156 35.2038 69.156 39.4242C69.156 43.6178 72.2972 46.7965 76.691 46.7965C81.1132 46.7965 84.2527 43.6178 84.2527 39.4242C84.2527 35.2038 81.111 32.052 76.691 32.052ZM76.7169 36.0052C78.6269 36.0052 79.8571 37.3941 79.8571 39.3973C79.8571 41.4275 78.601 42.8429 76.7169 42.8433C74.8073 42.8433 73.5514 41.4006 73.5514 39.4242C73.5514 37.3937 74.8073 36.0052 76.7169 36.0052ZM95.9589 41.6145L92.3482 43.0303C93.1597 45.4896 95.3834 46.7965 98.4955 46.7939C102.132 46.7939 104.434 45.031 104.434 42.1191C104.434 38.9242 101.699 38.1866 99.6008 37.621C98.2968 37.2693 97.2394 36.9841 97.2394 36.2161C97.2394 35.6286 97.6839 35.2815 98.5731 35.2815C99.4889 35.2815 100.144 35.7353 100.457 36.617L104.07 35.1743C103.521 33.1988 101.48 32.0503 98.6538 32.0503C95.174 32.0503 92.9762 33.7082 92.9762 36.4326C92.9762 39.315 95.5341 40.0991 97.5994 40.7323C98.9987 41.1611 100.172 41.5207 100.172 42.4159C100.172 43.0568 99.648 43.4573 98.6538 43.4573C97.2409 43.4573 96.3251 42.7899 95.9589 41.6145ZM119.977 39.1305C119.977 35.6594 117.308 32.0251 112.808 32.0251C108.831 32.0251 105.639 35.3661 105.639 39.4242C105.639 43.6178 108.517 46.7965 113.07 46.7965C116.074 46.7965 117.849 45.6146 118.912 44.2669L116.4 41.6966C115.615 42.6876 114.744 43.1635 113.2 43.1635C111.552 43.1635 110.323 42.3088 109.878 40.7338H119.872C119.944 40.2026 119.979 39.6668 119.977 39.1305ZM109.825 37.9551C110.192 36.2455 111.316 35.3639 112.913 35.3639C114.508 35.3639 115.555 36.3523 115.921 37.9551H109.825ZM12.7307 25.7997L23.7025 37.001C23.7983 37.0989 23.8743 37.2152 23.9261 37.343C23.9779 37.4709 24.0045 37.608 24.0044 37.7465C24.0043 37.8848 23.9775 38.0219 23.9254 38.1497C23.8734 38.2776 23.7972 38.3937 23.7012 38.4914L20.7262 41.5286L12.0014 32.6213L6.98206 37.7455L12.0014 42.8698L15.1132 39.6924L18.8192 43.4755L12.7328 49.6914C12.637 49.7892 12.5232 49.8669 12.3981 49.9198C12.2729 49.9727 12.1388 50 12.0033 50C11.8678 50 11.7336 49.9727 11.6084 49.9198C11.4832 49.8669 11.3695 49.7892 11.2737 49.6914L0.301875 38.4901C0.108578 38.2926 0 38.0248 0 37.7455C0 37.4663 0.108578 37.1985 0.301875 37.001L11.2716 25.7997C11.3674 25.7018 11.4811 25.6242 11.6063 25.5713C11.7315 25.5183 11.8656 25.4911 12.0011 25.4911C12.1366 25.4911 12.2708 25.5183 12.3959 25.5713C12.5211 25.6242 12.6348 25.7018 12.7307 25.7997Z" fill="#C0C0C0"/>
</g>
<defs>
<clipPath id="clip0_9831_3371">
<rect width="120" height="25" fill="white" transform="translate(0 25)"/>
</clipPath>
</defs>
</svg>
