<svg width="144" height="75" viewBox="0 0 144 75" fill="none" xmlns="http://www.w3.org/2000/svg">
<g clip-path="url(#clip0_9831_3377)">
<path d="M144 26H0V49H144V26Z" fill="#C0C0C0"/>
<path d="M24.4163 42.4304V38.4907H30.9158V35.1299H24.4163V32.377H32.6334V28.9439H20.2861V46.0344H33.3296V42.4304H24.4163Z" fill="white"/>
<path d="M61.5035 28.9671V39.168L55.5362 28.9671H51.5215V46.0344H55.4459V35.8087L60.4654 44.4828L66.3424 28.9671H61.5035Z" fill="white"/>
<path d="M79.736 28.9671L77.2318 39.2621L74.5845 28.9671H69.0146V46.0344H72.8001V34.7941L75.863 46.0344H78.577L81.5954 34.7941V46.0344H85.3558V28.9671H79.736Z" fill="white"/>
<path d="M126.545 28.9671H122.271V46.0344L126.545 46.0311V28.9671Z" fill="white"/>
<path d="M134.102 42.2148V28.9439H129.858V46.0344H140.928V42.2148H134.102Z" fill="white"/>
<path fill-rule="evenodd" clip-rule="evenodd" d="M35.3252 28.9671V46.0344H39.5025V40.2796H41.6371L44.6082 46.0344H49.158L45.8159 39.5762C48.0421 38.8293 49.1344 36.7987 49.1344 34.6479C49.1344 32.7852 48.3937 31.3349 47.4153 30.4433C45.77 28.967 43.5646 28.9671 41.7538 28.9671H35.3252ZM41.1271 32.5217C42.1721 32.5217 43.3783 32.5434 44.0273 32.9806C44.3066 33.1731 44.8167 33.655 44.8167 34.6725C44.8167 35.347 44.5624 36.1691 43.7258 36.557C43.1463 36.8479 42.4501 36.8479 40.92 36.8479L39.5025 36.8233V32.5217H41.1271Z" fill="white"/>
<path fill-rule="evenodd" clip-rule="evenodd" d="M95.4465 28.6776C93.9623 28.6776 91.964 28.9902 90.1088 30.6127C87.5337 32.8822 87.2544 35.8565 87.2544 37.4515C87.2544 39.773 87.9742 42.07 89.507 43.7851C91.5943 46.1067 94.1222 46.3224 95.4465 46.3224C96.9543 46.3224 98.9499 46.0083 100.784 44.3916C103.362 42.0932 103.616 39.0957 103.616 37.5499C103.616 32.7606 100.623 28.6776 95.4465 28.6776ZM95.4465 32.3988C98.0702 32.351 99.207 34.6726 99.207 37.5239C99.207 38.951 98.9499 40.4244 98.0243 41.4651C97.6061 41.947 96.7709 42.6012 95.4465 42.6012C92.8937 42.6012 91.6638 40.3303 91.6638 37.3574C91.6638 34.551 92.9395 32.448 95.4465 32.3988Z" fill="white"/>
<path fill-rule="evenodd" clip-rule="evenodd" d="M105.544 28.9671V46.0344H114.061C115.684 46.0083 118.284 45.9865 119.377 43.4479C119.655 42.7937 119.773 42.0932 119.773 41.4143C119.773 40.449 119.539 38.6369 117.891 37.5731C117.195 37.1128 116.706 37.0665 116.242 37.039C116.823 36.9695 117.82 36.8479 118.633 35.7132C119.074 35.0575 119.282 34.2615 119.282 33.4886C119.282 32.2063 118.843 31.0498 118.076 30.2957C116.753 28.9902 114.827 28.9671 112.691 28.9671H105.544ZM112.994 32.5435C113.736 32.5435 115.176 32.5681 115.176 34.1139C115.176 35.5178 113.806 35.5424 113.086 35.5641H109.675V32.5435H112.994ZM113.18 38.9509C113.736 38.9509 114.431 38.9742 114.966 39.362C115.313 39.6037 115.616 40.064 115.616 40.7399C115.616 41.2696 115.406 41.7791 115.083 42.07C114.595 42.5274 113.851 42.5535 113.271 42.5535H109.675V38.9509H113.18Z" fill="white"/>
<path fill-rule="evenodd" clip-rule="evenodd" d="M8.17098 32.5435H11.0129C11.7549 32.5435 13.1933 32.5681 13.1933 34.1139C13.1933 35.5178 11.8244 35.5424 11.1046 35.5642L7.02728 35.5674L3.07227 46.0347H12.0787C13.7047 46.0087 16.3048 45.9855 17.3929 43.4483C17.6736 42.7941 17.7889 42.0936 17.7889 41.4148C17.7889 40.4494 17.5568 38.6372 15.9101 37.5734C15.2111 37.1132 14.7247 37.0669 14.2619 37.0394C14.8414 36.967 15.8392 36.8469 16.6522 35.7136C17.0941 35.058 17.3039 34.2619 17.3039 33.489C17.3039 32.2066 16.8606 31.0487 16.0949 30.2946C14.7719 28.9906 12.8458 28.9674 10.7099 28.9674H9.52314L8.17098 32.5435ZM11.1949 38.951C11.755 38.951 12.4526 38.9742 12.9834 39.3591C13.3322 39.6037 13.6338 40.0626 13.6338 40.7399C13.6338 41.2697 13.4253 41.7791 13.1015 42.0686C12.6124 42.5274 11.8703 42.5535 11.2908 42.5535H7.69156V38.951H11.1949Z" fill="white"/>
</g>
<defs>
<clipPath id="clip0_9831_3377">
<rect width="144" height="23" fill="white" transform="translate(0 26)"/>
</clipPath>
</defs>
</svg>
