<svg width="162" height="75" viewBox="0 0 162 75" fill="none" xmlns="http://www.w3.org/2000/svg">
<g opacity="0.4">
<path d="M35.8504 25.3789C36.1376 25.5639 36.4737 25.6702 36.9292 25.6702C37.5319 25.6702 38.0294 25.3576 38.0294 24.6544C38.0294 23.6807 35.787 23.56 35.787 22.2598C35.787 21.4641 36.4737 20.9666 37.3358 20.9666C37.5739 20.9666 37.9591 21.0022 38.2957 21.1298L38.2185 21.5778C38.0016 21.4567 37.6578 21.3929 37.3286 21.3929C36.8243 21.3929 36.2708 21.6061 36.2708 22.2455C36.2708 23.2405 38.5127 23.2474 38.5127 24.697C38.5127 25.6989 37.6651 26.0965 36.9082 26.0965C36.4318 26.0965 36.0606 25.9971 35.8012 25.8834L35.8504 25.3789Z" fill="#656565"/>
<path d="M42.3103 22.8706C42.0723 22.7643 41.785 22.6861 41.5465 22.6861C40.6848 22.6861 40.2011 23.3186 40.2011 24.1995C40.2011 25.0238 40.6917 25.7132 41.4973 25.7132C41.7777 25.7132 42.0371 25.649 42.3034 25.5496L42.3454 25.9689C42.044 26.0753 41.7635 26.0965 41.4275 26.0965C40.2781 26.0965 39.7177 25.2083 39.7177 24.1995C39.7177 23.0838 40.4254 22.3024 41.4836 22.3024C41.9108 22.3024 42.219 22.4018 42.3454 22.4443L42.3103 22.8706Z" fill="#656565"/>
<path d="M43.6416 20.6823H44.0829V22.9987H44.0971C44.2863 22.6011 44.6857 22.3024 45.2109 22.3024C46.1711 22.3024 46.4302 22.9492 46.4302 23.8444V26.0115H45.9888V23.8513C45.9888 23.2262 45.8698 22.6861 45.1412 22.6861C44.3565 22.6861 44.0829 23.4393 44.0829 24.0718V26.0115H43.6416V20.6823Z" fill="#656565"/>
<path d="M51.7556 26.0115H51.2231L50.2491 22.878H50.235L49.2611 26.0115H48.7286L47.5796 22.3874H48.0629L49.0017 25.5213H49.0158L50.0107 22.3874H50.5433L51.4893 25.5213H51.503L52.491 22.3874H52.9324L51.7556 26.0115Z" fill="#656565"/>
<path d="M56.2608 23.9438C56.2608 23.3113 56.0086 22.6861 55.3502 22.6861C54.6983 22.6861 54.2989 23.3469 54.2989 23.9438H56.2608ZM56.4782 25.8977C56.1701 26.0258 55.7706 26.0965 55.441 26.0965C54.2569 26.0965 53.8156 25.2865 53.8156 24.1995C53.8156 23.0912 54.4183 22.3024 55.3219 22.3024C56.331 22.3024 56.7445 23.1268 56.7445 24.1V24.3275H54.2989C54.2989 25.0951 54.7056 25.7132 55.4761 25.7132C55.7985 25.7132 56.268 25.5782 56.4782 25.4432V25.8977Z" fill="#656565"/>
<path d="M58.1315 22.3874H58.5729V26.0115H58.1315V22.3874ZM58.5729 21.4211H58.1315V20.8246H58.5729V21.4211Z" fill="#656565"/>
<path d="M59.9047 25.6351L62.0559 22.7712H59.9886V22.3874H62.5669V22.7712L60.4162 25.6277H62.5669V26.0115H59.9047V25.6351Z" fill="#656565"/>
<path d="M66.07 23.9438C66.07 23.3113 65.8178 22.6861 65.1594 22.6861C64.5075 22.6861 64.108 23.3469 64.108 23.9438H66.07ZM66.2874 25.8977C65.9792 26.0258 65.5798 26.0965 65.2502 26.0965C64.0661 26.0965 63.6247 25.2865 63.6247 24.1995C63.6247 23.0912 64.2275 22.3024 65.1311 22.3024C66.1402 22.3024 66.5537 23.1268 66.5537 24.1V24.3275H64.108C64.108 25.0951 64.5148 25.7132 65.2853 25.7132C65.6077 25.7132 66.0772 25.5782 66.2874 25.4432V25.8977Z" fill="#656565"/>
<path d="M67.9412 23.1975C67.9412 22.7999 67.9412 22.6505 67.9133 22.3874H68.3547V23.0838H68.3684C68.5298 22.6792 68.8311 22.3024 69.2866 22.3024C69.3915 22.3024 69.5178 22.3236 69.5949 22.3449V22.8142C69.5037 22.7855 69.3847 22.7712 69.2725 22.7712C68.5717 22.7712 68.3826 23.5674 68.3826 24.2207V26.0115H67.9412V23.1975Z" fill="#656565"/>
<path d="M70.8209 22.3874H71.2622V26.0115H70.8209V22.3874ZM71.2622 21.4211H70.8209V20.8246H71.2622V21.4211Z" fill="#656565"/>
<path d="M72.6497 25.4857C72.9159 25.6208 73.2384 25.7132 73.5816 25.7132C74.002 25.7132 74.3732 25.4783 74.3732 25.0664C74.3732 24.2069 72.6565 24.3419 72.6565 23.29C72.6565 22.5724 73.231 22.3024 73.8196 22.3024C74.0089 22.3024 74.3873 22.3449 74.7023 22.4661L74.6604 22.8568C74.4293 22.7499 74.1142 22.6861 73.8689 22.6861C73.4134 22.6861 73.0979 22.8281 73.0979 23.29C73.0979 23.965 74.8565 23.88 74.8565 25.0664C74.8565 25.8339 74.1489 26.0965 73.6094 26.0965C73.2661 26.0965 72.9228 26.054 72.6078 25.9264L72.6497 25.4857Z" fill="#656565"/>
<path d="M78.5209 22.8706C78.2829 22.7643 77.9957 22.6861 77.7572 22.6861C76.8955 22.6861 76.4117 23.3186 76.4117 24.1995C76.4117 25.0238 76.9023 25.7132 77.708 25.7132C77.9884 25.7132 78.2478 25.649 78.5141 25.5496L78.556 25.9689C78.2546 26.0753 77.9742 26.0965 77.6382 26.0965C76.4887 26.0965 75.9284 25.2083 75.9284 24.1995C75.9284 23.0838 76.636 22.3024 77.6943 22.3024C78.1215 22.3024 78.4297 22.4018 78.556 22.4443L78.5209 22.8706Z" fill="#656565"/>
<path d="M79.8523 20.6823H80.2936V22.9987H80.3078C80.497 22.6011 80.8964 22.3024 81.4216 22.3024C82.3819 22.3024 82.6408 22.9492 82.6408 23.8444V26.0115H82.1994V23.8513C82.1994 23.2262 82.0805 22.6861 81.3518 22.6861C80.5672 22.6861 80.2936 23.4393 80.2936 24.0718V26.0115H79.8523V20.6823Z" fill="#656565"/>
<path d="M86.4735 23.9438C86.4735 23.3113 86.2214 22.6861 85.563 22.6861C84.911 22.6861 84.5115 23.3469 84.5115 23.9438H86.4735ZM86.691 25.8977C86.3827 26.0258 85.9834 26.0965 85.6537 26.0965C84.4696 26.0965 84.0282 25.2865 84.0282 24.1995C84.0282 23.0912 84.6311 22.3024 85.5347 22.3024C86.5437 22.3024 86.9573 23.1268 86.9573 24.1V24.3275H84.5115C84.5115 25.0951 84.9183 25.7132 85.6889 25.7132C86.0112 25.7132 86.4808 25.5782 86.691 25.4432V25.8977Z" fill="#656565"/>
<path d="M90.6777 21.0517H93.0737V21.478H91.161V23.2474H92.9758V23.6737H91.161V25.5852H93.1581V26.0115H90.6777V21.0517Z" fill="#656565"/>
<path d="M94.6787 22.3874H95.1201V26.0115H94.6787V22.3874ZM95.1201 21.4211H94.6787V20.8246H95.1201V21.4211Z" fill="#656565"/>
<path d="M98.112 25.7132C98.8966 25.7132 99.1697 24.8602 99.1697 24.1995C99.1697 23.5387 98.8966 22.6861 98.112 22.6861C97.2712 22.6861 97.0537 23.4962 97.0537 24.1995C97.0537 24.9032 97.2712 25.7132 98.112 25.7132ZM99.6115 26.0115H99.1697V25.4358H99.156C98.9176 25.8977 98.5533 26.0965 98.0418 26.0965C97.061 26.0965 96.5704 25.2726 96.5704 24.1995C96.5704 23.0981 96.9908 22.3024 98.0418 22.3024C98.7425 22.3024 99.0926 22.8211 99.156 22.9987H99.1697V20.6823H99.6115V26.0115Z" fill="#656565"/>
<path d="M102.526 25.6277C103.325 25.6277 103.612 24.8602 103.612 24.1995C103.612 23.3256 103.36 22.6861 102.554 22.6861C101.714 22.6861 101.497 23.4962 101.497 24.1995C101.497 24.9101 101.777 25.6277 102.526 25.6277ZM104.054 25.7132C104.054 26.7221 103.606 27.546 102.38 27.546C101.91 27.546 101.483 27.411 101.3 27.3542L101.335 26.9066C101.609 27.049 102.001 27.1627 102.386 27.1627C103.522 27.1627 103.62 26.324 103.62 25.3008H103.606C103.368 25.8265 102.975 26.0115 102.52 26.0115C101.377 26.0115 101.013 25.0026 101.013 24.1995C101.013 23.0981 101.433 22.3024 102.484 22.3024C102.961 22.3024 103.269 22.3662 103.598 22.7999H103.612V22.3874H104.054V25.7132Z" fill="#656565"/>
<path d="M107.844 23.9438C107.844 23.3113 107.592 22.6861 106.934 22.6861C106.282 22.6861 105.882 23.3469 105.882 23.9438H107.844ZM108.062 25.8977C107.754 26.0258 107.354 26.0965 107.024 26.0965C105.84 26.0965 105.4 25.2865 105.4 24.1995C105.4 23.0912 106.002 22.3024 106.906 22.3024C107.914 22.3024 108.328 23.1268 108.328 24.1V24.3275H105.882C105.882 25.0951 106.29 25.7132 107.06 25.7132C107.382 25.7132 107.852 25.5782 108.062 25.4432V25.8977Z" fill="#656565"/>
<path d="M109.716 23.2405C109.716 22.9631 109.716 22.6792 109.688 22.3874H110.115V23.0343H110.129C110.276 22.7074 110.542 22.3024 111.285 22.3024C112.169 22.3024 112.504 22.8993 112.504 23.695V26.0115H112.063V23.8088C112.063 23.1268 111.825 22.6861 111.215 22.6861C110.409 22.6861 110.157 23.4037 110.157 24.0076V26.0115H109.716V23.2405Z" fill="#656565"/>
<path d="M115.553 25.7132C116.323 25.7132 116.737 25.0382 116.737 24.1995C116.737 23.3612 116.323 22.6861 115.553 22.6861C114.781 22.6861 114.368 23.3612 114.368 24.1995C114.368 25.0382 114.781 25.7132 115.553 25.7132ZM115.553 22.3024C116.709 22.3024 117.22 23.2118 117.22 24.1995C117.22 25.1871 116.709 26.0965 115.553 26.0965C114.397 26.0965 113.885 25.1871 113.885 24.1995C113.885 23.2118 114.397 22.3024 115.553 22.3024Z" fill="#656565"/>
<path d="M118.327 25.4857C118.593 25.6208 118.916 25.7132 119.259 25.7132C119.679 25.7132 120.051 25.4783 120.051 25.0664C120.051 24.2069 118.334 24.3419 118.334 23.29C118.334 22.5724 118.909 22.3024 119.497 22.3024C119.686 22.3024 120.065 22.3449 120.379 22.4661L120.338 22.8568C120.107 22.7499 119.792 22.6861 119.546 22.6861C119.091 22.6861 118.775 22.8281 118.775 23.29C118.775 23.965 120.534 23.88 120.534 25.0664C120.534 25.8339 119.827 26.0965 119.287 26.0965C118.943 26.0965 118.6 26.054 118.285 25.9264L118.327 25.4857Z" fill="#656565"/>
<path d="M121.599 25.4857C121.865 25.6208 122.188 25.7132 122.531 25.7132C122.951 25.7132 123.323 25.4783 123.323 25.0664C123.323 24.2069 121.605 24.3419 121.605 23.29C121.605 22.5724 122.181 22.3024 122.769 22.3024C122.958 22.3024 123.337 22.3449 123.651 22.4661L123.609 22.8568C123.379 22.7499 123.064 22.6861 122.818 22.6861C122.363 22.6861 122.047 22.8281 122.047 23.29C122.047 23.965 123.806 23.88 123.806 25.0664C123.806 25.8339 123.098 26.0965 122.559 26.0965C122.215 26.0965 121.872 26.054 121.557 25.9264L121.599 25.4857Z" fill="#656565"/>
<path d="M127.324 23.9438C127.324 23.3113 127.071 22.6861 126.412 22.6861C125.761 22.6861 125.361 23.3469 125.361 23.9438H127.324ZM127.54 25.8977C127.232 26.0258 126.834 26.0965 126.504 26.0965C125.32 26.0965 124.878 25.2865 124.878 24.1995C124.878 23.0912 125.481 22.3024 126.384 22.3024C127.394 22.3024 127.807 23.1268 127.807 24.1V24.3275H125.361C125.361 25.0951 125.768 25.7132 126.538 25.7132C126.861 25.7132 127.33 25.5782 127.54 25.4432V25.8977Z" fill="#656565"/>
<path d="M129.194 23.2405C129.194 22.9631 129.194 22.6792 129.166 22.3874H129.594V23.0343H129.608C129.754 22.7074 130.021 22.3024 130.764 22.3024C131.646 22.3024 131.982 22.8993 131.982 23.695V26.0115H131.542V23.8088C131.542 23.1268 131.304 22.6861 130.694 22.6861C129.888 22.6861 129.636 23.4037 129.636 24.0076V26.0115H129.194V23.2405Z" fill="#656565"/>
<path d="M133.363 25.4857C133.63 25.6208 133.952 25.7132 134.295 25.7132C134.716 25.7132 135.086 25.4783 135.086 25.0664C135.086 24.2069 133.37 24.3419 133.37 23.29C133.37 22.5724 133.944 22.3024 134.533 22.3024C134.722 22.3024 135.101 22.3449 135.416 22.4661L135.374 22.8568C135.143 22.7499 134.828 22.6861 134.582 22.6861C134.127 22.6861 133.812 22.8281 133.812 23.29C133.812 23.965 135.571 23.88 135.571 25.0664C135.571 25.8339 134.862 26.0965 134.323 26.0965C133.98 26.0965 133.636 26.054 133.32 25.9264L133.363 25.4857Z" fill="#656565"/>
<path d="M139.235 22.8706C138.997 22.7643 138.709 22.6861 138.471 22.6861C137.609 22.6861 137.126 23.3186 137.126 24.1995C137.126 25.0238 137.616 25.7132 138.422 25.7132C138.703 25.7132 138.961 25.649 139.228 25.5496L139.27 25.9689C138.969 26.0753 138.688 26.0965 138.353 26.0965C137.203 26.0965 136.642 25.2083 136.642 24.1995C136.642 23.0838 137.35 22.3024 138.409 22.3024C138.835 22.3024 139.144 22.4018 139.27 22.4443L139.235 22.8706Z" fill="#656565"/>
<path d="M140.567 20.6823H141.007V22.9987H141.021C141.211 22.6011 141.611 22.3024 142.135 22.3024C143.095 22.3024 143.355 22.9492 143.355 23.8444V26.0115H142.914V23.8513C142.914 23.2262 142.795 22.6861 142.066 22.6861C141.281 22.6861 141.007 23.4393 141.007 24.0718V26.0115H140.567V20.6823Z" fill="#656565"/>
<path d="M147.019 24.1851H146.894C146.129 24.1851 145.22 24.2637 145.22 25.0594C145.22 25.5352 145.555 25.7132 145.961 25.7132C146.998 25.7132 147.019 24.7964 147.019 24.4057V24.1851ZM147.061 25.4289H147.048C146.852 25.8621 146.353 26.0965 145.912 26.0965C144.896 26.0965 144.735 25.4002 144.735 25.0733C144.735 23.8587 146.01 23.8018 146.935 23.8018H147.019V23.6168C147.019 22.9987 146.802 22.6861 146.207 22.6861C145.836 22.6861 145.486 22.7712 145.155 22.9843V22.5511C145.429 22.4161 145.891 22.3024 146.207 22.3024C147.089 22.3024 147.461 22.7074 147.461 23.6525V25.2513C147.461 25.5426 147.461 25.7627 147.496 26.0115H147.061V25.4289Z" fill="#656565"/>
<path d="M149.359 22.7712H148.638V22.3874H149.359V22.1248C149.359 21.3647 149.387 20.5972 150.306 20.5972C150.445 20.5972 150.635 20.6185 150.719 20.6684L150.691 21.0591C150.599 21.0091 150.466 20.9809 150.34 20.9809C149.737 20.9809 149.801 21.6417 149.801 22.0749V22.3874H150.607V22.7712H149.801V26.0115H149.359V22.7712Z" fill="#656565"/>
<path d="M153.479 22.7712H152.666V25.1163C152.666 25.4432 152.786 25.7132 153.144 25.7132C153.312 25.7132 153.424 25.6776 153.549 25.6277L153.578 25.9971C153.472 26.0397 153.256 26.0965 153.038 26.0965C152.254 26.0965 152.225 25.5496 152.225 24.8888V22.7712H151.524V22.3874H152.225V21.5136L152.666 21.3573V22.3874H153.479V22.7712Z" fill="#656565"/>
<path d="M39.2837 31.4068C38.9755 31.2436 38.5336 31.1937 38.1903 31.1937C36.9224 31.1937 36.2074 32.1031 36.2074 33.3326C36.2074 34.5828 36.9014 35.471 38.1903 35.471C38.5127 35.471 39.0033 35.4284 39.2837 35.2579L39.3115 35.6842C39.0452 35.8478 38.499 35.8973 38.1903 35.8973C36.6488 35.8973 35.7242 34.8672 35.7242 33.3326C35.7242 31.8261 36.6771 30.7674 38.1903 30.7674C38.4776 30.7674 39.0593 30.8173 39.3115 30.9523L39.2837 31.4068Z" fill="#656565"/>
<path d="M42.3176 35.514C43.0886 35.514 43.5017 34.839 43.5017 34.0002C43.5017 33.162 43.0886 32.4869 42.3176 32.4869C41.547 32.4869 41.1334 33.162 41.1334 34.0002C41.1334 34.839 41.547 35.514 42.3176 35.514ZM42.3176 32.1031C43.4738 32.1031 43.9853 33.0126 43.9853 34.0002C43.9853 34.9878 43.4738 35.8973 42.3176 35.8973C41.1617 35.8973 40.6501 34.9878 40.6501 34.0002C40.6501 33.0126 41.1617 32.1031 42.3176 32.1031Z" fill="#656565"/>
<path d="M45.3655 33.0412C45.3655 32.7639 45.3655 32.48 45.3377 32.1882H45.7649V32.8351H45.7791C45.9259 32.5082 46.1921 32.1031 46.9349 32.1031C47.818 32.1031 48.1541 32.7001 48.1541 33.4957V35.8122H47.7127V33.6095C47.7127 32.9275 47.4747 32.4869 46.8651 32.4869C46.059 32.4869 45.8069 33.2045 45.8069 33.8084V35.8122H45.3655V33.0412Z" fill="#656565"/>
<path d="M50.1091 32.5719H49.3874V32.1882H50.1091V31.9255C50.1091 31.1654 50.137 30.3979 51.0548 30.3979C51.1952 30.3979 51.3845 30.4192 51.4683 30.4686L51.4405 30.8598C51.3494 30.8099 51.2162 30.7817 51.0899 30.7817C50.4876 30.7817 50.5505 31.4424 50.5505 31.8756V32.1882H51.3562V32.5719H50.5505V35.8122H50.1091V32.5719Z" fill="#656565"/>
<path d="M54.1311 30.7886H54.6846L53.8019 31.8118H53.4795L54.1311 30.7886ZM54.8665 33.7445C54.8665 33.112 54.6143 32.4869 53.956 32.4869C53.304 32.4869 52.9046 33.1477 52.9046 33.7445H54.8665ZM55.084 35.6985C54.7758 35.8265 54.3764 35.8973 54.0467 35.8973C52.8626 35.8973 52.4213 35.0872 52.4213 34.0002C52.4213 32.8919 53.024 32.1031 53.9277 32.1031C54.9367 32.1031 55.3503 32.9275 55.3503 33.9008V34.1283H52.9046C52.9046 34.8958 53.3112 35.514 54.0818 35.514C54.4041 35.514 54.8738 35.379 55.084 35.244V35.6985Z" fill="#656565"/>
<path d="M58.0686 35.514C58.8533 35.514 59.1264 34.6609 59.1264 34.0002C59.1264 33.3395 58.8533 32.4869 58.0686 32.4869C57.2279 32.4869 57.0104 33.297 57.0104 34.0002C57.0104 34.7039 57.2279 35.514 58.0686 35.514ZM59.5682 35.8122H59.1264V35.2366H59.1127C58.8742 35.6985 58.5099 35.8973 57.9984 35.8973C57.0177 35.8973 56.5271 35.0733 56.5271 34.0002C56.5271 32.8989 56.9474 32.1031 57.9984 32.1031C58.6992 32.1031 59.0494 32.6219 59.1127 32.7995H59.1264V30.483H59.5682V35.8122Z" fill="#656565"/>
<path d="M62.623 30.7886H63.1766L62.2934 31.8118H61.9714L62.623 30.7886ZM63.3585 33.7445C63.3585 33.112 63.1064 32.4869 62.4479 32.4869C61.796 32.4869 61.3965 33.1477 61.3965 33.7445H63.3585ZM63.5759 35.6985C63.2677 35.8265 62.8683 35.8973 62.5387 35.8973C61.3546 35.8973 60.9132 35.0872 60.9132 34.0002C60.9132 32.8919 61.516 32.1031 62.4197 32.1031C63.4287 32.1031 63.8422 32.9275 63.8422 33.9008V34.1283H61.3965C61.3965 34.8958 61.8033 35.514 62.5738 35.514C62.8962 35.514 63.3658 35.379 63.5759 35.244V35.6985Z" fill="#656565"/>
<path d="M65.2296 32.9983C65.2296 32.6006 65.2297 32.4513 65.2018 32.1882H65.6432V32.885H65.6569C65.8183 32.48 66.1196 32.1031 66.5751 32.1031C66.68 32.1031 66.8063 32.1244 66.8834 32.1456V32.6149C66.7921 32.5863 66.6732 32.5719 66.561 32.5719C65.8602 32.5719 65.6711 33.3677 65.6711 34.0215V35.8122H65.2296V32.9983Z" fill="#656565"/>
<path d="M70.1206 33.9864H69.9942C69.2306 33.9864 68.3196 34.0645 68.3196 34.8602C68.3196 35.336 68.6561 35.514 69.0623 35.514C70.0991 35.514 70.1206 34.5971 70.1206 34.2064V33.9864ZM70.1625 35.2296H70.1484C69.9523 35.6629 69.4549 35.8973 69.0131 35.8973C67.9973 35.8973 67.8363 35.201 67.8363 34.8741C67.8363 33.6595 69.1115 33.6025 70.0363 33.6025H70.1206V33.4176C70.1206 32.7995 69.9031 32.4869 69.3077 32.4869C68.936 32.4869 68.5858 32.5719 68.2567 32.7851V32.3519C68.5298 32.2168 68.9921 32.1031 69.3077 32.1031C70.1903 32.1031 70.5619 32.5082 70.5619 33.4533V35.0521C70.5619 35.3434 70.5619 35.5635 70.597 35.8122H70.1625V35.2296Z" fill="#656565"/>
<path d="M73.7007 32.5719H72.8877V34.9171C72.8877 35.244 73.0072 35.514 73.3641 35.514C73.5324 35.514 73.6446 35.4784 73.7709 35.4284L73.7987 35.7979C73.6939 35.8404 73.4763 35.8973 73.2593 35.8973C72.4746 35.8973 72.4463 35.3503 72.4463 34.6896V32.5719H71.7456V32.1882H72.4463V31.3143L72.8877 31.1581V32.1882H73.7007V32.5719Z" fill="#656565"/>
<path d="M75.0389 32.1882H75.4802V35.8122H75.0389V32.1882ZM75.4802 31.2219H75.0389V30.6254H75.4802V31.2219Z" fill="#656565"/>
<path d="M78.535 35.514C79.306 35.514 79.7191 34.839 79.7191 34.0002C79.7191 33.162 79.306 32.4869 78.535 32.4869C77.7645 32.4869 77.351 33.162 77.351 34.0002C77.351 34.839 77.7645 35.514 78.535 35.514ZM78.535 32.1031C79.6913 32.1031 80.2029 33.0126 80.2029 34.0002C80.2029 34.9878 79.6913 35.8973 78.535 35.8973C77.3792 35.8973 76.8677 34.9878 76.8677 34.0002C76.8677 33.0126 77.3792 32.1031 78.535 32.1031Z" fill="#656565"/>
<path d="M81.583 33.0412C81.583 32.7639 81.583 32.48 81.5552 32.1882H81.9824V32.8351H81.9966C82.1434 32.5082 82.4096 32.1031 83.1523 32.1031C84.0355 32.1031 84.3716 32.7001 84.3716 33.4957V35.8122H83.9303V33.6095C83.9303 32.9275 83.6923 32.4869 83.0826 32.4869C82.2766 32.4869 82.0243 33.2045 82.0243 33.8084V35.8122H81.583V33.0412Z" fill="#656565"/>
<path d="M88.1769 35.2865C88.4432 35.4215 88.7655 35.514 89.1089 35.514C89.5293 35.514 89.9004 35.2791 89.9004 34.8672C89.9004 34.0077 88.1837 34.1426 88.1837 33.0907C88.1837 32.3732 88.7583 32.1031 89.3468 32.1031C89.5361 32.1031 89.9145 32.1456 90.2296 32.2664L90.1876 32.6575C89.9565 32.5507 89.6414 32.4869 89.3961 32.4869C88.9406 32.4869 88.6251 32.6288 88.6251 33.0907C88.6251 33.7658 90.3841 33.6807 90.3841 34.8672C90.3841 35.6347 89.6761 35.8973 89.1366 35.8973C88.7934 35.8973 88.45 35.8547 88.1345 35.7272L88.1769 35.2865Z" fill="#656565"/>
<path d="M94.5104 34.9596C94.5104 35.2366 94.5104 35.5209 94.5387 35.8122H94.111V35.1658H94.0973C93.95 35.4923 93.6838 35.8973 92.9411 35.8973C92.0583 35.8973 91.7219 35.3004 91.7219 34.5047V32.1882H92.1633V34.3909C92.1633 35.0733 92.4017 35.514 93.0113 35.514C93.817 35.514 94.0691 34.796 94.0691 34.1921V32.1882H94.5104V34.9596Z" fill="#656565"/>
<path d="M96.1641 32.1882H96.6055V35.8122H96.1641V32.1882ZM96.6055 31.2219H96.1641V30.6254H96.6055V31.2219Z" fill="#656565"/>
<path d="M97.9929 35.2865C98.2592 35.4215 98.5816 35.514 98.9249 35.514C99.3453 35.514 99.7164 35.2791 99.7164 34.8672C99.7164 34.0077 97.9997 34.1426 97.9997 33.0907C97.9997 32.3732 98.5743 32.1031 99.1628 32.1031C99.3521 32.1031 99.7306 32.1456 100.046 32.2664L100.004 32.6575C99.7725 32.5507 99.4574 32.4869 99.2121 32.4869C98.7566 32.4869 98.4411 32.6288 98.4411 33.0907C98.4411 33.7658 100.2 33.6807 100.2 34.8672C100.2 35.6347 99.4921 35.8973 98.9527 35.8973C98.6094 35.8973 98.266 35.8547 97.951 35.7272L97.9929 35.2865Z" fill="#656565"/>
<path d="M101.265 35.2865C101.532 35.4215 101.854 35.514 102.198 35.514C102.618 35.514 102.989 35.2791 102.989 34.8672C102.989 34.0077 101.272 34.1426 101.272 33.0907C101.272 32.3732 101.847 32.1031 102.436 32.1031C102.625 32.1031 103.004 32.1456 103.318 32.2664L103.276 32.6575C103.046 32.5507 102.73 32.4869 102.484 32.4869C102.03 32.4869 101.714 32.6288 101.714 33.0907C101.714 33.7658 103.473 33.6807 103.473 34.8672C103.473 35.6347 102.765 35.8973 102.226 35.8973C101.882 35.8973 101.539 35.8547 101.223 35.7272L101.265 35.2865Z" fill="#656565"/>
<path d="M106.99 33.7445C106.99 33.112 106.738 32.4869 106.08 32.4869C105.427 32.4869 105.028 33.1477 105.028 33.7445H106.99ZM107.207 35.6985C106.898 35.8265 106.5 35.8973 106.17 35.8973C104.986 35.8973 104.544 35.0872 104.544 34.0002C104.544 32.8919 105.148 32.1031 106.051 32.1031C107.06 32.1031 107.474 32.9275 107.474 33.9008V34.1283H105.028C105.028 34.8958 105.434 35.514 106.205 35.514C106.528 35.514 106.996 35.379 107.207 35.244V35.6985Z" fill="#656565"/>
<path d="M39.2837 41.2075C38.9755 41.0443 38.5336 40.9944 38.1903 40.9944C36.9224 40.9944 36.2074 41.9038 36.2074 43.1333C36.2074 44.3836 36.9014 45.2718 38.1903 45.2718C38.5127 45.2718 39.0033 45.2291 39.2837 45.0586L39.3115 45.4849C39.0452 45.6485 38.499 45.698 38.1903 45.698C36.6488 45.698 35.7242 44.6679 35.7242 43.1333C35.7242 41.6269 36.6771 40.5681 38.1903 40.5681C38.4776 40.5681 39.0593 40.6176 39.3115 40.7525L39.2837 41.2075Z" fill="#656565"/>
<path d="M42.3176 45.3147C43.0886 45.3147 43.5017 44.6397 43.5017 43.8009C43.5017 42.9627 43.0886 42.2876 42.3176 42.2876C41.547 42.2876 41.1334 42.9627 41.1334 43.8009C41.1334 44.6397 41.547 45.3147 42.3176 45.3147ZM42.3176 41.9038C43.4738 41.9038 43.9853 42.8133 43.9853 43.8009C43.9853 44.7885 43.4738 45.6981 42.3176 45.6981C41.1617 45.6981 40.6501 44.7885 40.6501 43.8009C40.6501 42.8133 41.1617 41.9038 42.3176 41.9038Z" fill="#656565"/>
<path d="M45.3655 42.842C45.3655 42.5646 45.3655 42.2807 45.3377 41.9889H45.7649V42.6358H45.7791C45.9259 42.3089 46.1921 41.9038 46.9349 41.9038C47.818 41.9038 48.1541 42.5008 48.1541 43.2965V45.6129H47.7127V43.4102C47.7127 42.7282 47.4747 42.2876 46.8651 42.2876C46.059 42.2876 45.8069 43.0052 45.8069 43.609V45.6129H45.3655V42.842Z" fill="#656565"/>
<path d="M50.1091 42.3727H49.3874V41.9889H50.1091V41.7263C50.1091 40.9662 50.137 40.1986 51.0548 40.1986C51.1952 40.1986 51.3845 40.2199 51.4683 40.2698L51.4405 40.6606C51.3494 40.6106 51.2162 40.5824 51.0899 40.5824C50.4876 40.5824 50.5505 41.2432 50.5505 41.6764V41.9889H51.3562V42.3727H50.5505V45.6129H50.1091V42.3727Z" fill="#656565"/>
<path d="M54.8665 43.5452C54.8665 42.9127 54.6143 42.2876 53.956 42.2876C53.304 42.2876 52.9046 42.9483 52.9046 43.5452H54.8665ZM55.084 45.4992C54.7758 45.6273 54.3764 45.6981 54.0467 45.6981C52.8626 45.6981 52.4213 44.8879 52.4213 43.8009C52.4213 42.6926 53.024 41.9038 53.9277 41.9038C54.9367 41.9038 55.3503 42.7282 55.3503 43.7016V43.929H52.9046C52.9046 44.6965 53.3112 45.3147 54.0818 45.3147C54.4041 45.3147 54.8738 45.1797 55.084 45.0447V45.4992Z" fill="#656565"/>
<path d="M58.0686 45.3147C58.8533 45.3147 59.1264 44.4617 59.1264 43.8009C59.1264 43.1402 58.8533 42.2876 58.0686 42.2876C57.2279 42.2876 57.0104 43.0977 57.0104 43.8009C57.0104 44.5046 57.2279 45.3147 58.0686 45.3147ZM59.5682 45.6129H59.1264V45.0373H59.1127C58.8742 45.4992 58.5099 45.698 57.9984 45.698C57.0177 45.698 56.5271 44.874 56.5271 43.8009C56.5271 42.6996 56.9474 41.9038 57.9984 41.9038C58.6992 41.9038 59.0494 42.4226 59.1127 42.6002H59.1264V40.2837H59.5682V45.6129Z" fill="#656565"/>
<path d="M63.3585 43.5452C63.3585 42.9127 63.1064 42.2876 62.4479 42.2876C61.796 42.2876 61.3965 42.9483 61.3965 43.5452H63.3585ZM63.5759 45.4992C63.2677 45.6273 62.8683 45.6981 62.5387 45.6981C61.3546 45.6981 60.9132 44.8879 60.9132 43.8009C60.9132 42.6926 61.516 41.9038 62.4197 41.9038C63.4287 41.9038 63.8422 42.7282 63.8422 43.7016V43.929H61.3965C61.3965 44.6965 61.8033 45.3147 62.5738 45.3147C62.8962 45.3147 63.3658 45.1797 63.5759 45.0447V45.4992Z" fill="#656565"/>
<path d="M65.2296 42.799C65.2296 42.4013 65.2297 42.252 65.2018 41.9889H65.6432V42.6852H65.6569C65.8183 42.2807 66.1196 41.9038 66.5751 41.9038C66.68 41.9038 66.8063 41.9252 66.8834 41.9464V42.4157C66.7921 42.387 66.6732 42.3727 66.561 42.3727C65.8602 42.3727 65.6711 43.1689 65.6711 43.8222V45.6129H65.2296V42.799Z" fill="#656565"/>
<path d="M70.1206 43.7866H69.9942C69.2306 43.7866 68.3196 43.8652 68.3196 44.6609C68.3196 45.1367 68.6561 45.3147 69.0623 45.3147C70.0991 45.3147 70.1206 44.3978 70.1206 44.0071V43.7866ZM70.1625 45.0304H70.1484C69.9523 45.4636 69.4549 45.6981 69.0131 45.6981C67.9973 45.6981 67.8363 45.0017 67.8363 44.6748C67.8363 43.4602 69.1115 43.4033 70.0363 43.4033H70.1206V43.2184C70.1206 42.6002 69.9031 42.2876 69.3077 42.2876C68.936 42.2876 68.5858 42.3727 68.2567 42.5858V42.1526C68.5298 42.0176 68.9921 41.9038 69.3077 41.9038C70.1903 41.9038 70.5619 42.3089 70.5619 43.2539V44.8528C70.5619 45.1441 70.5619 45.3642 70.597 45.6129H70.1625V45.0304Z" fill="#656565"/>
<path d="M71.83 45.2366L73.9811 42.3727H71.9138V41.9889H74.4922V42.3727L72.3415 45.2291H74.4922V45.6129H71.83V45.2366Z" fill="#656565"/>
<path d="M75.8167 41.9889H76.2581V45.6129H75.8167V41.9889ZM76.2581 41.0226H75.8167V40.4262H76.2581V41.0226Z" fill="#656565"/>
<path d="M79.3128 45.3147C80.0839 45.3147 80.497 44.6397 80.497 43.8009C80.497 42.9627 80.0839 42.2876 79.3128 42.2876C78.5423 42.2876 78.1288 42.9627 78.1288 43.8009C78.1288 44.6397 78.5423 45.3147 79.3128 45.3147ZM79.3128 41.9038C80.4691 41.9038 80.9808 42.8133 80.9808 43.8009C80.9808 44.7885 80.4691 45.6981 79.3128 45.6981C78.157 45.6981 77.6455 44.7885 77.6455 43.8009C77.6455 42.8133 78.157 41.9038 79.3128 41.9038Z" fill="#656565"/>
<path d="M82.3609 42.842C82.3609 42.5646 82.3609 42.2807 82.333 41.9889H82.7602V42.6358H82.7744C82.9212 42.3089 83.1874 41.9038 83.9303 41.9038C84.8134 41.9038 85.1494 42.5008 85.1494 43.2965V45.6129H84.7081V43.4102C84.7081 42.7282 84.4701 42.2876 83.8605 42.2876C83.0544 42.2876 82.8022 43.0052 82.8022 43.609V45.6129H82.3609V42.842Z" fill="#656565"/>
<path d="M88.9821 43.5452C88.9821 42.9127 88.73 42.2876 88.0715 42.2876C87.4196 42.2876 87.0201 42.9483 87.0201 43.5452H88.9821ZM89.1996 45.4992C88.8913 45.6273 88.4919 45.6981 88.1623 45.6981C86.9782 45.6981 86.5369 44.8879 86.5369 43.8009C86.5369 42.6926 87.1396 41.9038 88.0433 41.9038C89.0523 41.9038 89.4659 42.7282 89.4659 43.7016V43.929H87.0201C87.0201 44.6965 87.4269 45.3147 88.1974 45.3147C88.5198 45.3147 88.9894 45.1797 89.1996 45.0447V45.4992Z" fill="#656565"/>
<path d="M93.1937 44.9804C93.4809 45.1654 93.817 45.2718 94.2724 45.2718C94.8751 45.2718 95.3726 44.9592 95.3726 44.2559C95.3726 43.2822 93.1303 43.1614 93.1303 41.8613C93.1303 41.0656 93.817 40.5681 94.6791 40.5681C94.9171 40.5681 95.3024 40.6037 95.6389 40.7313L95.5618 41.1794C95.3448 41.0582 95.001 40.9944 94.6719 40.9944C94.1675 40.9944 93.6141 41.2075 93.6141 41.847C93.6141 42.842 95.8559 42.8489 95.8559 44.2984C95.8559 45.3004 95.0083 45.698 94.2515 45.698C93.775 45.698 93.4039 45.5986 93.1444 45.4849L93.1937 44.9804Z" fill="#656565"/>
<path d="M98.5675 45.6129H98.049L96.8366 41.9889H97.3204L98.3084 45.1228H98.3222L99.3594 41.9889H99.8217L98.5675 45.6129Z" fill="#656565"/>
<path d="M100.985 41.9889H101.426V45.6129H100.985V41.9889ZM101.426 41.0226H100.985V40.4262H101.426V41.0226Z" fill="#656565"/>
<path d="M102.758 45.2366L104.909 42.3727H102.842V41.9889H105.42V42.3727L103.27 45.2291H105.42V45.6129H102.758V45.2366Z" fill="#656565"/>
<path d="M106.416 45.2366L108.567 42.3727H106.5V41.9889H109.078V42.3727L106.927 45.2291H109.078V45.6129H106.416V45.2366Z" fill="#656565"/>
<path d="M112.58 43.5452C112.58 42.9127 112.328 42.2876 111.67 42.2876C111.018 42.2876 110.619 42.9483 110.619 43.5452H112.58ZM112.798 45.4992C112.49 45.6273 112.091 45.6981 111.762 45.6981C110.577 45.6981 110.136 44.8879 110.136 43.8009C110.136 42.6926 110.738 41.9038 111.642 41.9038C112.651 41.9038 113.064 42.7282 113.064 43.7016V43.929H110.619C110.619 44.6965 111.026 45.3147 111.796 45.3147C112.118 45.3147 112.588 45.1797 112.798 45.0447V45.4992Z" fill="#656565"/>
<path d="M114.452 42.799C114.452 42.4013 114.452 42.252 114.425 41.9889H114.865V42.6852H114.879C115.041 42.2807 115.342 41.9038 115.797 41.9038C115.903 41.9038 116.029 41.9252 116.105 41.9464V42.4157C116.015 42.387 115.895 42.3727 115.783 42.3727C115.083 42.3727 114.893 43.1689 114.893 43.8222V45.6129H114.452V42.799Z" fill="#656565"/>
<path d="M119.343 43.7866H119.217C118.453 43.7866 117.542 43.8652 117.542 44.6609C117.542 45.1367 117.879 45.3147 118.285 45.3147C119.321 45.3147 119.343 44.3978 119.343 44.0071V43.7866ZM119.385 45.0304H119.371C119.175 45.4636 118.677 45.6981 118.235 45.6981C117.219 45.6981 117.059 45.0017 117.059 44.6748C117.059 43.4602 118.334 43.4033 119.259 43.4033H119.343V43.2184C119.343 42.6002 119.125 42.2876 118.53 42.2876C118.159 42.2876 117.809 42.3727 117.479 42.5858V42.1526C117.753 42.0176 118.215 41.9038 118.53 41.9038C119.413 41.9038 119.785 42.3089 119.785 43.2539V44.8528C119.785 45.1441 119.785 45.3642 119.819 45.6129H119.385V45.0304Z" fill="#656565"/>
<path d="M39.2837 51.0078C38.9755 50.8446 38.5336 50.7947 38.1903 50.7947C36.9224 50.7947 36.2074 51.7041 36.2074 52.9336C36.2074 54.1838 36.9014 55.072 38.1903 55.072C38.5127 55.072 39.0033 55.0294 39.2837 54.8589L39.3115 55.2851C39.0452 55.4488 38.499 55.4983 38.1903 55.4983C36.6488 55.4983 35.7242 54.4681 35.7242 52.9336C35.7242 51.4272 36.6771 50.3683 38.1903 50.3683C38.4776 50.3683 39.0593 50.4178 39.3115 50.5528L39.2837 51.0078Z" fill="#656565"/>
<path d="M42.3176 55.115C43.0886 55.115 43.5017 54.4399 43.5017 53.6012C43.5017 52.7629 43.0886 52.0879 42.3176 52.0879C41.547 52.0879 41.1334 52.7629 41.1334 53.6012C41.1334 54.4399 41.547 55.115 42.3176 55.115ZM42.3176 51.7041C43.4738 51.7041 43.9853 52.6136 43.9853 53.6012C43.9853 54.5888 43.4738 55.4983 42.3176 55.4983C41.1617 55.4983 40.6501 54.5888 40.6501 53.6012C40.6501 52.6136 41.1617 51.7041 42.3176 51.7041Z" fill="#656565"/>
<path d="M45.3655 52.6423C45.3655 52.3649 45.3655 52.0809 45.3377 51.7892H45.7649V52.4361H45.7791C45.9259 52.1092 46.1921 51.7041 46.9349 51.7041C47.818 51.7041 48.1541 52.301 48.1541 53.0967V55.4131H47.7127V53.2104C47.7127 52.5285 47.4747 52.0879 46.8651 52.0879C46.059 52.0879 45.8069 52.8055 45.8069 53.4093V55.4131H45.3655V52.6423Z" fill="#656565"/>
<path d="M50.1091 52.1729H49.3874V51.7892H50.1091V51.5265C50.1091 50.7664 50.137 49.9989 51.0548 49.9989C51.1952 49.9989 51.3845 50.0202 51.4683 50.0701L51.4405 50.4608C51.3494 50.4109 51.2162 50.3827 51.0899 50.3827C50.4876 50.3827 50.5505 51.0434 50.5505 51.4766V51.7892H51.3562V52.1729H50.5505V55.4131H50.1091V52.1729Z" fill="#656565"/>
<path d="M54.8665 53.3455C54.8665 52.713 54.6143 52.0879 53.956 52.0879C53.304 52.0879 52.9046 52.7486 52.9046 53.3455H54.8665ZM55.084 55.2994C54.7758 55.4276 54.3764 55.4983 54.0467 55.4983C52.8626 55.4983 52.4213 54.6882 52.4213 53.6012C52.4213 52.4929 53.024 51.7041 53.9277 51.7041C54.9367 51.7041 55.3503 52.5285 55.3503 53.5018V53.7293H52.9046C52.9046 54.4967 53.3112 55.115 54.0818 55.115C54.4041 55.115 54.8738 54.9799 55.084 54.8449V55.2994Z" fill="#656565"/>
<path d="M58.0686 55.115C58.8533 55.115 59.1264 54.2619 59.1264 53.6012C59.1264 52.9405 58.8533 52.0879 58.0686 52.0879C57.2279 52.0879 57.0104 52.898 57.0104 53.6012C57.0104 54.3049 57.2279 55.115 58.0686 55.115ZM59.5682 55.4131H59.1264V54.8375H59.1127C58.8742 55.2994 58.5099 55.4983 57.9984 55.4983C57.0177 55.4983 56.5271 54.6743 56.5271 53.6012C56.5271 52.4999 56.9474 51.7041 57.9984 51.7041C58.6992 51.7041 59.0494 52.2229 59.1127 52.4005H59.1264V50.084H59.5682V55.4131Z" fill="#656565"/>
<path d="M63.3585 53.3455C63.3585 52.713 63.1064 52.0879 62.4479 52.0879C61.796 52.0879 61.3965 52.7486 61.3965 53.3455H63.3585ZM63.5759 55.2994C63.2677 55.4276 62.8683 55.4983 62.5387 55.4983C61.3546 55.4983 60.9132 54.6882 60.9132 53.6012C60.9132 52.4929 61.516 51.7041 62.4197 51.7041C63.4287 51.7041 63.8422 52.5285 63.8422 53.5018V53.7293H61.3965C61.3965 54.4967 61.8033 55.115 62.5738 55.115C62.8962 55.115 63.3658 54.9799 63.5759 54.8449V55.2994Z" fill="#656565"/>
<path d="M65.2296 52.5992C65.2296 52.2016 65.2297 52.0523 65.2018 51.7892H65.6432V52.4855H65.6569C65.8183 52.081 66.1196 51.7041 66.5751 51.7041C66.68 51.7041 66.8063 51.7254 66.8834 51.7467V52.216C66.7921 52.1873 66.6732 52.1729 66.561 52.1729C65.8602 52.1729 65.6711 52.9692 65.6711 53.6224V55.4131H65.2296V52.5992Z" fill="#656565"/>
<path d="M70.1206 53.5868H69.9942C69.2306 53.5868 68.3196 53.6654 68.3196 54.4611C68.3196 54.937 68.6561 55.115 69.0623 55.115C70.0991 55.115 70.1206 54.1981 70.1206 53.8074V53.5868ZM70.1625 54.8306H70.1484C69.9523 55.2638 69.4549 55.4983 69.0131 55.4983C67.9973 55.4983 67.8363 54.8019 67.8363 54.4751C67.8363 53.2604 69.1115 53.2035 70.0363 53.2035H70.1206V53.0186C70.1206 52.4005 69.9031 52.0879 69.3077 52.0879C68.936 52.0879 68.5858 52.1729 68.2567 52.3861V51.9529C68.5298 51.8178 68.9921 51.7041 69.3077 51.7041C70.1903 51.7041 70.5619 52.1092 70.5619 53.0542V54.6531C70.5619 54.9443 70.5619 55.1644 70.597 55.4131H70.1625V54.8306Z" fill="#656565"/>
<path d="M71.83 55.0369L73.9811 52.1729H71.9138V51.7892H74.4922V52.1729L72.3415 55.0294H74.4922V55.4131H71.83V55.0369Z" fill="#656565"/>
<path d="M75.8167 51.7892H76.2581V55.4131H75.8167V51.7892ZM76.2581 50.8229H75.8167V50.2264H76.2581V50.8229Z" fill="#656565"/>
<path d="M80.7072 54.5606C80.7072 54.8375 80.7072 55.1219 80.7354 55.4131H80.3078V54.7668H80.2941C80.1468 55.0932 79.8805 55.4983 79.1378 55.4983C78.2551 55.4983 77.9186 54.9018 77.9186 54.1057V51.7892H78.3599V53.9918C78.3599 54.6743 78.5984 55.115 79.208 55.115C80.0136 55.115 80.2658 54.3969 80.2658 53.7931V51.7892H80.7072V54.5606Z" fill="#656565"/>
<path d="M82.3609 52.6423C82.3609 52.3649 82.3609 52.0809 82.333 51.7892H82.7602V52.4361H82.7744C82.9212 52.1092 83.1874 51.7041 83.9303 51.7041C84.8134 51.7041 85.1494 52.301 85.1494 53.0967V55.4131H84.7081V53.2104C84.7081 52.5285 84.4701 52.0879 83.8605 52.0879C83.0544 52.0879 82.8022 52.8055 82.8022 53.4093V55.4131H82.3609V52.6423Z" fill="#656565"/>
<path d="M88.9543 54.8874C89.2206 55.0225 89.5429 55.115 89.8863 55.115C90.3066 55.115 90.6777 54.8801 90.6777 54.4681C90.6777 53.6086 88.9612 53.7436 88.9612 52.6917C88.9612 51.9742 89.5356 51.7041 90.1243 51.7041C90.3135 51.7041 90.6919 51.7467 91.007 51.8678L90.9651 52.2585C90.7338 52.1517 90.4188 52.0879 90.1735 52.0879C89.718 52.0879 89.4025 52.2298 89.4025 52.6917C89.4025 53.3668 91.161 53.2817 91.161 54.4681C91.161 55.2356 90.4534 55.4983 89.9141 55.4983C89.5707 55.4983 89.2274 55.4557 88.9123 55.3281L88.9543 54.8874Z" fill="#656565"/>
<path d="M93.7398 55.4131H93.2215L92.0091 51.7892H92.4929L93.4809 54.923H93.4945L94.5319 51.7892H94.9942L93.7398 55.4131Z" fill="#656565"/>
<path d="M96.1573 51.7892H96.5987V55.4131H96.1573V51.7892ZM96.5987 50.8229H96.1573V50.2264H96.5987V50.8229Z" fill="#656565"/>
<path d="M97.93 55.0369L100.081 52.1729H98.0139V51.7892H100.592V52.1729L98.4416 55.0294H100.592V55.4131H97.93V55.0369Z" fill="#656565"/>
<path d="M101.917 52.5992C101.917 52.2016 101.917 52.0523 101.889 51.7892H102.33V52.4855H102.344C102.505 52.081 102.807 51.7041 103.262 51.7041C103.367 51.7041 103.493 51.7254 103.57 51.7467V52.216C103.479 52.1873 103.36 52.1729 103.248 52.1729C102.547 52.1729 102.358 52.9692 102.358 53.6224V55.4131H101.917V52.5992Z" fill="#656565"/>
<path d="M106.808 53.5868H106.682C105.918 53.5868 105.007 53.6654 105.007 54.4611C105.007 54.937 105.343 55.115 105.75 55.115C106.786 55.115 106.808 54.1981 106.808 53.8074V53.5868ZM106.85 54.8306H106.836C106.64 55.2638 106.142 55.4983 105.7 55.4983C104.684 55.4983 104.524 54.8019 104.524 54.4751C104.524 53.2604 105.798 53.2035 106.723 53.2035H106.808V53.0186C106.808 52.4005 106.59 52.0879 105.995 52.0879C105.623 52.0879 105.273 52.1729 104.944 52.3861V51.9529C105.217 51.8178 105.679 51.7041 105.995 51.7041C106.878 51.7041 107.249 52.1092 107.249 53.0542V54.6531C107.249 54.9444 107.249 55.1644 107.284 55.4131H106.85V54.8306Z" fill="#656565"/>
<path d="M27.7747 20.8344C27.7747 20.8344 24.0688 19.1884 17.8643 19.1884H17.8624C11.6579 19.1884 7.9511 20.8344 7.9511 20.8344C7.9511 20.8344 7.6192 28.1221 9.02622 32.2428C11.5111 39.4881 17.8616 41.5233 17.8616 41.5233H17.8652C17.8652 41.5233 24.2147 39.4881 26.7005 32.2428C28.1075 28.1221 27.7747 20.8344 27.7747 20.8344Z" fill="#656565"/>
<path d="M24.4499 27.117V31.1321H19.8304V35.8169H15.8709V31.1321H11.2513V27.117H15.8709V22.4332H19.8295L19.8304 27.117H24.4499Z" fill="white"/>
</g>
</svg>
