<svg width="174" height="27" viewBox="0 0 174 27" fill="none" xmlns="http://www.w3.org/2000/svg">
<path d="M41.6764 8.51169C40.9004 7.75367 39.8082 7.3887 38.4287 7.3887C37.0491 7.3887 35.8133 7.69752 34.6924 8.25902C33.5716 8.84859 32.6231 9.60661 31.8759 10.4769C30.8125 11.7122 30.0652 13.2002 29.6629 14.8566C29.2605 16.5411 29.0306 18.1975 29.0306 19.8259C29.0306 21.8473 29.4617 23.4194 30.3526 24.5424C31.2436 25.6654 32.5369 26.2269 34.2326 26.2269C35.6409 26.2269 36.9342 25.9743 38.0551 25.497C39.1759 25.0197 40.0956 24.4582 40.8429 23.8406L40.8716 23.8125V23.7844C40.9866 23.5037 41.1015 23.1668 41.1878 22.8018C41.274 22.4368 41.3315 22.0438 41.3315 21.7069V21.5665L41.1878 21.6788C40.7854 21.9315 40.3543 22.1842 39.8657 22.3807C39.3771 22.5772 38.8885 22.7737 38.3999 22.9141C37.8826 23.0545 37.394 23.1948 36.9342 23.251C36.4456 23.3352 36.0145 23.3914 35.6121 23.3914C33.5716 23.3914 32.5944 21.9315 32.5944 18.9555V17.9448C34.6637 17.8606 36.3881 17.636 37.6814 17.243C39.0322 16.8499 40.0956 16.3446 40.8429 15.755C41.5901 15.1654 42.1362 14.4916 42.4236 13.7617C42.711 13.0317 42.8547 12.3018 42.8547 11.5438C42.826 10.2804 42.4523 9.24164 41.6764 8.51169ZM39.3771 13.0879C39.2334 13.509 38.9173 13.9021 38.4574 14.267C37.9688 14.632 37.2791 14.9408 36.3594 15.1654C35.4684 15.4181 34.2901 15.5585 32.7668 15.6146C32.853 14.9689 32.9967 14.3232 33.1692 13.7055C33.3416 13.0598 33.629 12.4422 33.9739 11.8807C34.405 11.1788 34.9511 10.6173 35.5834 10.1962C36.2444 9.77506 36.9629 9.57854 37.7102 9.57854C38.3712 9.57854 38.8598 9.77506 39.1185 10.1962C39.4059 10.6173 39.5496 11.1227 39.5496 11.7684C39.607 12.2176 39.5208 12.6668 39.3771 13.0879Z" fill="#C0C0C0"/>
<path d="M24.6045 5.31116C25.2081 5.31116 25.7254 5.11463 26.1278 4.72158C26.5302 4.32854 26.7313 3.76704 26.7313 3.03709C26.7313 2.36329 26.5302 1.82987 26.1278 1.4649C25.7254 1.09993 25.2081 0.903402 24.6045 0.903402C24.001 0.903402 23.4837 1.09993 23.0813 1.49297C22.6502 1.88602 22.449 2.41944 22.449 3.03709C22.449 4.52506 23.1675 5.31116 24.6045 5.31116Z" fill="#C0C0C0"/>
<path d="M23.8286 23.1668C23.7711 22.9983 23.7711 22.9141 23.7711 22.9141L25.6679 7.78174L25.5817 7.75367C25.4093 7.69752 25.1794 7.66945 24.8345 7.64137C24.4608 7.6133 24.2022 7.6133 24.0297 7.6133C23.2537 7.6133 22.5352 7.69752 21.9029 7.86597C21.2707 8.03442 20.7246 8.23094 20.236 8.48362C20.0348 8.68014 19.8911 8.98896 19.7474 9.43816C19.6037 9.88736 19.5462 10.2243 19.5462 10.4208V10.5331L22.2766 10.2523L20.351 23.4194C20.351 23.7563 20.4947 24.2055 20.7533 24.767C21.012 25.3005 21.3281 25.8058 21.673 26.2269L21.7018 26.255H21.7592C22.0466 26.255 22.3915 26.2269 22.7652 26.1708C23.1388 26.1146 23.5412 26.0585 23.9723 25.9743C24.3746 25.89 24.777 25.8058 25.2081 25.7216C25.6105 25.6093 25.9841 25.497 26.2715 25.3847H26.3002L26.329 25.3566C26.4727 25.1039 26.6164 24.739 26.7601 24.3178C26.875 23.8686 26.9613 23.5037 26.9613 23.2229V23.1106L23.9723 23.4194C23.886 23.3633 23.8286 23.2791 23.8286 23.1668Z" fill="#C0C0C0"/>
<path d="M14.6316 23.0825C14.6029 22.9983 14.5741 22.8018 14.5741 22.7737L17.3907 0.20153L17.3045 0.173455C17.132 0.117306 16.9021 0.0892308 16.5572 0.0611559C16.2123 0.0330811 15.9537 0.0330811 15.7525 0.0330811C15.0052 0.0330811 14.2867 0.117306 13.6544 0.285755C13.0222 0.454204 12.4761 0.678803 11.9875 0.903402C11.8151 1.09993 11.6426 1.40875 11.4989 1.85795C11.3552 2.30715 11.2977 2.64404 11.2977 2.84057V2.95287L13.9706 2.67212L13.2233 8.06249C12.7922 7.89404 12.3324 7.72559 11.8725 7.6133C11.3552 7.47292 10.8379 7.41677 10.2918 7.41677C8.79732 7.41677 7.44652 7.75367 6.23942 8.45554C5.03232 9.12934 4.02641 10.0558 3.22168 11.2069C2.41694 12.3299 1.8134 13.6213 1.38229 15.0812C0.979923 16.5411 0.75 18.0852 0.75 19.6293C0.75 20.8085 0.864962 21.8473 1.12363 22.6895C1.38229 23.5317 1.72717 24.2055 2.18702 24.739C2.64687 25.2724 3.1642 25.6654 3.79648 25.9181C4.40003 26.1708 5.0898 26.2831 5.83705 26.2831C6.75675 26.2831 7.76266 26.0585 8.79732 25.6374C9.80323 25.2162 10.6942 24.5144 11.4414 23.5317H11.4989C11.5851 23.9529 11.7001 24.4301 11.8725 24.9074C12.045 25.4128 12.2462 25.862 12.4474 26.2269L12.4761 26.2831H12.5336C12.7922 26.2831 13.1084 26.255 13.5107 26.1989C13.8844 26.1427 14.2867 26.0866 14.7178 26.0304C15.1202 25.9462 15.5226 25.862 15.9537 25.7777C16.356 25.6654 16.7009 25.5531 17.0171 25.4408H17.0458L17.0746 25.4128C17.2183 25.1601 17.362 24.8232 17.5057 24.4021C17.6206 23.9809 17.7068 23.616 17.7068 23.3352V23.2229L14.7753 23.4756C14.6891 23.3352 14.6604 23.2229 14.6316 23.0825ZM4.28507 17.4676C4.34255 16.878 4.42877 16.2604 4.57248 15.6708C4.68744 15.0812 4.85988 14.4636 5.0898 13.874C5.29099 13.3125 5.54965 12.8071 5.83705 12.3579C6.32564 11.5999 6.95793 10.9542 7.73392 10.4208C8.48117 9.88736 9.40087 9.63469 10.4355 9.63469C10.8666 9.63469 11.2977 9.69084 11.7863 9.83121C12.2462 9.94351 12.6198 10.0839 12.9359 10.2804L11.5277 20.9208C11.0391 21.763 10.4355 22.4088 9.68827 22.8579C8.96976 23.2791 8.22251 23.5037 7.41778 23.5037C6.4406 23.5037 5.66461 23.1668 5.0898 22.493C4.51499 21.8192 4.19885 20.6962 4.19885 19.1521C4.19885 18.6186 4.22759 18.0571 4.28507 17.4676Z" fill="#C0C0C0"/>
<path d="M162.645 25.862V7.89404H166.956L167.703 9.66276C168.393 8.48362 169.571 7.55715 172.359 7.55715H173.25L172.589 11.993C172.589 11.993 171.957 11.9368 171.497 11.9368C169.916 11.9368 168.738 12.8071 167.99 14.1267V25.862H162.645Z" fill="#C0C0C0"/>
<path d="M86.4252 12.0491C84.5571 12.0491 83.5224 13.7617 83.5224 16.878C83.5224 19.9943 84.5571 21.6788 86.4252 21.6788C88.2933 21.6788 89.328 20.0224 89.328 16.878C89.328 13.7336 88.3221 12.0491 86.4252 12.0491ZM86.4252 26.2831C80.3035 26.2831 78.1192 21.2296 78.1192 16.878C78.1192 9.91543 82.4015 7.44485 86.4252 7.44485C90.4488 7.44485 94.7312 9.91543 94.7312 16.878C94.7312 23.8406 90.4488 26.2831 86.4252 26.2831Z" fill="#C0C0C0"/>
<path d="M102.75 21.37C103.123 21.5946 103.669 21.7911 104.675 21.7911C106.141 21.7911 108.095 21.2577 108.095 16.6253C108.095 13.5371 107.147 12.0491 105.164 12.0491C104.244 12.0491 103.44 12.4422 102.75 13.1721V21.37ZM104.388 26.2831C100.422 26.2831 98.4099 24.9074 97.5477 24.3178L97.4328 24.2336V0.875327L102.721 0.173455V9.21356C103.497 8.42747 104.905 7.44485 107.061 7.44485C111.142 7.44485 113.499 10.5612 113.499 15.9796C113.527 22.8299 110.452 26.2831 104.388 26.2831Z" fill="#C0C0C0"/>
<path d="M119.161 6.23763C117.465 6.23763 116.459 5.25501 116.459 3.62666V3.45821C116.459 1.82987 117.436 0.903402 119.161 0.903402C120.885 0.903402 121.862 1.82987 121.862 3.45821V3.62666C121.862 5.28308 120.827 6.23763 119.161 6.23763ZM121.805 25.862H116.516V7.89404H121.805V25.862Z" fill="#C0C0C0"/>
<path d="M125.656 25.862H130.973V0.173455L125.656 0.903402V25.862Z" fill="#C0C0C0"/>
<path d="M137.468 6.23763C135.772 6.23763 134.767 5.25501 134.767 3.62666V3.45821C134.767 1.82987 135.744 0.903402 137.468 0.903402C139.193 0.903402 140.17 1.82987 140.17 3.45821V3.62666C140.17 5.28308 139.164 6.23763 137.468 6.23763ZM140.112 25.862H134.824V7.89404H140.112V25.862Z" fill="#C0C0C0"/>
<path d="M153.821 20.6681C153.304 21.3419 152.499 21.6788 151.465 21.6788C150.028 21.6788 148.39 21.1454 148.39 16.9342C148.39 13.6213 149.625 11.9649 152.097 11.9649C152.787 11.9649 153.333 12.0491 153.793 12.2456V20.6681H153.821ZM159.023 8.90474C158.247 8.51169 156.207 7.44485 152.643 7.44485C146.493 7.44485 142.986 10.9823 142.986 17.1307C142.986 23.2791 145.458 26.2831 149.999 26.2831C151.465 26.2831 153.074 25.8339 153.936 24.767C154.051 24.6267 154.138 24.4863 154.138 24.4863L154.712 25.8339H159.167V8.96089L159.023 8.90474Z" fill="#C0C0C0"/>
<path d="M68.7498 0.903402L62.5706 17.271L56.4202 0.903402H50.7583L49.0914 25.862H54.4371L55.2418 12.3299L60.5301 25.862H64.5825L69.8132 12.3299L70.6467 25.862H75.9924L74.3542 0.903402H68.7498Z" fill="#C0C0C0"/>
</svg>
