<svg width="154" height="75" viewBox="0 0 154 75" fill="none" xmlns="http://www.w3.org/2000/svg">
<g opacity="0.4">
<path d="M5.71601 35.889C5.71601 35.889 4.9838 38.8356 5.17276 40.1531C5.36172 41.4707 6.25927 43.9621 9.63687 43.9621C13.0381 43.9621 15.4709 41.3509 16.1323 39.698C16.8645 37.8774 17.0771 35.889 17.0771 35.889H5.71601Z" fill="white"/>
<path d="M5.71601 35.889C5.71601 35.889 4.9838 38.8356 5.17276 40.1531C5.36172 41.4707 6.25927 43.9621 9.63687 43.9621C13.0381 43.9621 15.4709 41.3509 16.1323 39.698C16.8645 37.8774 17.0771 35.889 17.0771 35.889H5.71601Z" stroke="white" stroke-width="0.3553"/>
<path d="M15.1636 40.6082C13.8409 42.333 11.8332 43.5068 9.75469 43.5068C9.37677 43.5068 9.02248 43.4829 8.69181 43.435L8.00684 43.7464C8.55009 43.8901 9.14058 43.962 9.75469 43.962C12.1875 43.962 14.5495 42.3809 15.9194 40.2249L15.1636 40.6082Z" fill="#656565"/>
<path d="M17.077 35.865H5.69238L6.82612 30.8583H18.1872L17.077 35.865Z" fill="#656565"/>
<path d="M21.8245 30.9062H22.5567L22.0607 33.1341L22.0843 33.158L24.5171 30.9302H25.4855L22.7456 33.4216L24.7533 35.9848H23.8321L21.9662 33.5653L21.4466 35.9848H20.7144L21.8245 30.9062ZM30.6818 31.6728L29.1466 34.0684H31.1542L30.6818 31.6728ZM30.4456 30.9062H31.1542L32.2644 35.9369H31.5085L31.2487 34.6672H28.745L27.942 35.9369H27.1625L30.4456 30.9062ZM35.1223 35.9369H35.8309L36.7048 31.7447H36.7285L38.1693 35.9369H39.114L40.2242 30.9062H39.5392L38.5708 35.1224H38.5472L37.1064 30.9062H36.1616L35.1223 35.9369ZM47.3101 30.9062H43.4128L43.2711 31.553H44.8536L43.9088 35.9608H44.641L45.5858 31.553H47.1683L47.3101 30.9062ZM50.1444 33.9246C50.1444 34.811 50.6168 35.4099 51.538 35.4099C52.7898 35.4099 53.522 34.0684 53.522 32.9664C53.522 32.0082 53.0969 31.4572 52.2229 31.4572C50.9711 31.4572 50.1444 32.631 50.1444 33.9246ZM49.365 33.9007C49.365 32.4633 50.357 30.8344 52.2229 30.8344C53.522 30.8344 54.2779 31.6009 54.2779 32.8706C54.2779 34.4756 53.3331 36.0327 51.4907 36.0327C50.0972 36.0327 49.365 35.2901 49.365 33.9007ZM56.9705 35.9369H57.6791L58.553 31.7447H58.5766L60.0174 35.9369H60.9622L62.0723 30.9062H61.3874L60.4898 35.1224H60.4662L59.0254 30.9062H58.057L56.9705 35.9369ZM62.1432 43.6506C62.9935 43.8901 64.269 44.0818 65.4736 44.0578C67.5285 44.0339 69.2055 43.0277 69.2055 41.0394C69.2055 39.0032 65.7806 39.0751 65.7806 38.1887C65.7806 37.6377 66.442 37.494 67.0561 37.494C67.8828 37.494 68.5441 37.6377 69.2527 37.9492L69.8432 36.1285C68.8512 35.7932 67.8828 35.6494 67.1978 35.6494C65.3555 35.6494 63.1825 36.416 63.1825 38.2845C63.1825 40.9436 66.4656 40.3687 66.4656 41.4946C66.4656 42.1653 65.3555 42.2133 64.9303 42.2133C64.1745 42.2133 63.395 42.0695 62.7101 41.7581L62.1432 43.6506ZM77.8739 39.2188C77.8739 38.3804 77.5196 37.5898 76.4331 37.5898C75.1104 37.5898 74.2837 39.0511 74.2837 40.3208C74.2837 41.3988 74.8506 42.1414 75.7717 42.1174C77.0708 42.1174 77.8739 41.0394 77.8739 39.2188ZM80.7082 39.2428C80.7082 42.5965 78.5588 44.0818 75.5828 44.0818C72.6303 44.0818 71.4493 42.4289 71.4493 40.3926C71.4493 37.5659 73.457 35.6494 76.5748 35.6494C79.291 35.6255 80.7082 37.2065 80.7082 39.2428ZM81.9128 43.8901H84.6999L87.0855 32.2956H84.2984L81.9128 43.8901ZM94.0533 39.2188C94.0533 38.3804 93.6754 37.5898 92.6125 37.5898C91.2898 37.5898 90.4631 39.0511 90.4631 40.3208C90.4631 41.3988 91.03 42.1414 91.9512 42.1174C93.2502 42.1174 94.0533 41.0394 94.0533 39.2188ZM96.8877 39.2428C96.8877 42.5965 94.7383 44.0818 91.7622 44.0818C88.8097 44.0818 87.6288 42.4289 87.6288 40.3926C87.6288 37.5659 89.6364 35.6494 92.7542 35.6494C95.4469 35.6255 96.8877 37.2065 96.8877 39.2428ZM98.6355 37.7815H100.1L99.6275 40.0333C99.4386 40.8717 99.3913 41.279 99.3913 41.6862C99.3913 43.3631 100.501 44.0578 101.919 44.0578C102.462 44.0578 103.052 43.986 103.619 43.9141L103.926 42.0695C103.643 42.1893 103.336 42.3091 103.029 42.3091C102.486 42.3091 102.131 41.9497 102.131 41.4227C102.131 41.0394 102.249 40.6322 102.367 40.0333L102.84 37.7815H104.847L105.178 35.8411H103.289L103.832 33.3257L100.927 34.1163L100.549 35.8411H98.9662L98.6355 37.7815ZM106.406 43.8901H109.146L109.926 40.177C110.115 38.9793 110.8 37.9731 111.981 37.9731C112.736 37.9492 113.043 38.4283 113.043 38.9074C113.043 39.3146 112.949 39.7219 112.855 40.1291L112.099 43.9141H114.933L115.665 40.1531C115.831 39.2907 115.878 39.0032 115.878 38.4522C115.878 36.8712 115.004 35.6734 113.398 35.6734C112.122 35.6734 111.201 36.2723 110.634 37.0388H110.611L111.579 32.3196H108.792L106.406 43.8901ZM127.688 35.8171H124.948L124.168 39.5302C123.979 40.728 123.271 41.7341 122.113 41.7341C121.358 41.7581 121.051 41.279 121.051 40.7999C121.051 40.3926 121.169 39.9854 121.239 39.5781L121.995 35.7932H119.161L118.429 39.5542C118.263 40.4166 118.216 40.7041 118.216 41.255C118.216 42.8361 119.09 44.0339 120.696 44.0339C122.137 44.0339 122.964 43.435 123.767 42.5247H123.79L123.578 43.8422H126.129C126.2 43.1236 126.318 42.4289 126.459 41.7341L127.688 35.8171ZM130.924 35.8171C130.853 36.5358 130.735 37.2305 130.593 37.9252L129.365 43.8901H132.105L132.884 40.177C133.073 38.9793 133.758 37.9731 134.915 37.9731C135.435 37.9731 135.836 38.045 136.191 38.3085L136.828 35.8411C136.451 35.6734 136.025 35.6494 135.671 35.6494C134.537 35.6494 133.663 36.5358 133.215 37.494H133.191L133.498 35.8411H130.924V35.8171ZM137.395 43.8901H140.135L140.915 40.177C141.104 38.9793 141.789 37.9731 142.97 37.9731C143.725 37.9492 144.032 38.4283 144.032 38.9074C144.032 39.3146 143.914 39.7219 143.843 40.1291L143.088 43.9141H145.922L146.654 40.1531C146.82 39.2907 146.867 39.0032 146.867 38.4522C146.867 36.8712 145.993 35.6734 144.387 35.6734C142.946 35.6734 142.119 36.2723 141.316 37.1826H141.293L141.505 35.865H138.954C138.883 36.5837 138.765 37.2784 138.624 37.9731L137.395 43.8901Z" fill="#656565"/>
</g>
</svg>
