<svg width="151" height="75" viewBox="0 0 151 75" fill="none" xmlns="http://www.w3.org/2000/svg">
<path d="M30.6455 22.7917H1.26953V52.2284H30.6455V22.7917Z" fill="#C0C0C0"/>
<path d="M2.47224 51.0289H29.4539V23.9945H2.47224V51.0289Z" fill="white"/>
<path d="M6.97103 37.5118L14.3762 49.5998H27.8616L20.4452 37.5208L27.8949 25.4071H14.4096L6.97103 37.5118Z" fill="#C0C0C0"/>
<path d="M43.084 31.6384H46.7922V33.4559H41.1241V22.7716H43.084V31.6384Z" fill="#C0C0C0"/>
<path d="M49.5093 25.5252V29.5352C49.5316 30.2627 49.4981 31.2311 50.1552 31.6997C50.4558 31.9263 50.7676 31.9264 50.9013 31.9264C51.6474 31.9264 52.0037 31.4119 52.1373 31.1699C52.5048 30.5048 52.5048 29.7472 52.5048 29.0219V25.5252H54.3422V30.7781L54.4201 33.4559H52.6941L52.6384 32.2141C52.5271 32.4116 52.3711 32.6973 51.9925 33.0164C51.6807 33.2574 51.1462 33.591 50.2331 33.591C49.4091 33.591 48.6296 33.2886 48.1507 32.4875C47.6719 31.6541 47.6719 30.7001 47.6719 29.7629V25.5252H49.5093Z" fill="#C0C0C0"/>
<path d="M61.4356 27.2056L57.8944 31.9106C58.3399 31.8805 58.8076 31.8649 59.253 31.8649H61.6026V33.4559H55.6896V31.8649L59.2864 27.1152H55.8232V25.5252H61.4356V27.2056Z" fill="#C0C0C0"/>
<path d="M64.1416 30.2014C64.2418 30.641 64.3198 30.852 64.4311 31.0339C64.6761 31.4735 65.2217 32.0491 66.313 32.0491C67.1371 32.0491 67.783 31.7156 68.0613 31.5637C68.2061 31.4734 68.362 31.3662 68.529 31.2614L68.5513 33.031C68.1393 33.1995 67.2039 33.6223 66.0123 33.6223C65.5892 33.6223 64.342 33.6067 63.3844 32.5925C62.9278 32.0927 62.3487 31.2011 62.3487 29.5666C62.3487 29.1716 62.3821 28.0525 62.95 27.0227C63.3064 26.4035 64.1304 25.3591 65.8008 25.3591C66.0903 25.3591 66.881 25.3737 67.6048 25.8891C68.8631 26.7817 68.9856 28.5224 69.0079 28.9608C69.0302 29.3702 69.0079 29.7774 68.9967 30.2014H64.1416ZM67.3152 28.7488C67.3041 28.4765 67.2818 28.279 67.2039 28.0223C67.0146 27.2804 66.4689 26.8118 65.7785 26.8118C65.489 26.8118 65.2106 26.8877 64.9767 27.054C64.2418 27.5382 64.175 28.5367 64.1416 28.7643L67.3152 28.7488Z" fill="#C0C0C0"/>
<path d="M74.4754 27.4019C74.3084 27.3561 74.1971 27.2959 73.8741 27.2959C73.5735 27.2959 72.8163 27.3718 72.3931 28.2655C72.137 28.81 72.0924 29.4437 72.1036 30.6866V33.4559H70.2662V27.5827C70.2439 26.9032 70.2439 26.2058 70.2217 25.5252H71.9588V27.4175C72.0479 27.0694 72.0924 26.9188 72.1593 26.7514C72.6604 25.6168 73.5512 25.4204 73.9743 25.4204C74.0968 25.4204 74.2305 25.4349 74.4754 25.4806V27.4019Z" fill="#C0C0C0"/>
<path d="M80.3328 33.456V29.6267C80.3217 28.7486 80.3439 27.6898 79.6647 27.2502C79.5533 27.1754 79.3417 27.0694 78.9965 27.0694C78.7404 27.0694 78.1613 27.1453 77.7605 27.7946C77.4152 28.3715 77.3818 29.0822 77.3707 29.7472V33.456H75.5111V27.4321C75.4999 26.7961 75.4777 26.1612 75.4554 25.5252H77.2371L77.2483 26.7515C77.393 26.5239 77.6046 26.1914 78.1057 25.8589C78.4175 25.6614 78.8629 25.4047 79.6981 25.4047C79.7983 25.4047 80.1658 25.4204 80.511 25.5109C81.2459 25.7373 81.8027 26.343 82.0032 27.1597C82.1479 27.7645 82.1479 28.7799 82.159 29.3992V33.456H80.3328Z" fill="#C0C0C0"/>
<path d="M85.2325 30.2014C85.3216 30.641 85.4107 30.852 85.5109 31.0339C85.7559 31.4735 86.3015 32.0491 87.3928 32.0491C88.2169 32.0491 88.8739 31.7156 89.1412 31.5637C89.2859 31.4734 89.4418 31.3662 89.5977 31.2614L89.6311 33.031C89.2191 33.1995 88.2837 33.6223 87.0922 33.6223C86.669 33.6223 85.4218 33.6067 84.4642 32.5925C84.0076 32.0927 83.4397 31.2011 83.4397 29.5666C83.4397 29.1716 83.462 28.0525 84.0299 27.0227C84.3862 26.4035 85.2103 25.3591 86.8806 25.3591C87.1702 25.3591 87.9607 25.3737 88.6734 25.8891C89.9429 26.7817 90.0654 28.5224 90.0988 28.9608C90.11 29.3702 90.0988 29.7774 90.0765 30.2014H85.2325ZM88.395 28.7488C88.3839 28.4765 88.3728 28.279 88.2837 28.0223C88.0944 27.2804 87.5488 26.8118 86.8583 26.8118C86.5688 26.8118 86.2904 26.8877 86.0565 27.054C85.3216 27.5382 85.2548 28.5367 85.2325 28.7643L88.395 28.7488Z" fill="#C0C0C0"/>
<path d="M95.5553 27.4019C95.3883 27.3561 95.2881 27.2959 94.954 27.2959C94.6533 27.2959 93.8961 27.3718 93.4729 28.2655C93.2168 28.81 93.1722 29.4437 93.1945 30.6866V33.4559H91.346V27.5827C91.3348 26.9032 91.3349 26.2058 91.3015 25.5252H93.0386V27.4175C93.1166 27.0694 93.1722 26.9188 93.2391 26.7514C93.7513 25.6168 94.631 25.4204 95.0542 25.4204C95.1767 25.4204 95.3103 25.4349 95.5553 25.4806V27.4019Z" fill="#C0C0C0"/>
<path d="M43.5517 44.4718L44.0528 43.7376C44.3312 43.3806 44.5762 43.0415 44.8545 42.6844L47.8946 38.728H50.8567L47.1374 43.3426L45.9347 44.8489L51.124 52.0265H47.9614L44.6096 47.2433C44.3646 46.903 44.1196 46.5638 43.908 46.2257L43.5517 45.66V52.0265H41.1575V38.728H43.5517V44.4718Z" fill="#C0C0C0"/>
<path d="M57.0704 52.0265V50.576C56.9479 50.8215 56.9034 50.8963 56.8143 51.01C56.4579 51.4798 55.645 52.1972 54.2642 52.1972C53.8856 52.1972 52.3154 52.1213 51.5359 50.7277C51.4023 50.5001 51.1351 49.9367 51.1351 49.1635C51.1351 48.3535 51.4357 47.7888 51.5694 47.5434C52.4491 46.1119 54.2642 45.9234 55.645 45.9234C56.0905 45.9234 56.5247 45.9434 56.9702 45.9601C56.9702 45.9601 56.9479 45.2651 56.8365 44.907C56.6472 44.3613 56.1573 43.7766 55.0214 43.7766C53.9413 43.7766 53.0281 44.2844 52.7163 44.4718C52.5827 44.5666 52.5047 44.6234 52.2709 44.8489L52.193 42.6275C53.3288 42.1923 54.0415 41.9681 55.2441 41.9681C55.4668 41.9681 55.9902 41.9681 56.5693 42.1187C58.0503 42.4958 58.6293 43.4374 58.8298 44.1147C59.0191 44.6994 59.0302 45.283 59.0525 46.4701V48.8052C59.0525 49.7659 59.0637 50.7278 59.0971 51.6873C59.0971 51.8023 59.1193 51.9139 59.1193 52.0265H57.0704ZM54.1083 47.9764C53.841 48.166 53.7074 48.4092 53.6406 48.5431C53.5849 48.6368 53.4847 48.8633 53.4847 49.1635C53.4847 49.3342 53.5404 49.5405 53.6072 49.7101C53.9078 50.4443 54.665 50.4823 54.8766 50.4823C55.1773 50.4823 55.9679 50.3685 56.5136 49.5596C56.9367 48.937 56.9702 48.3155 57.0258 47.5624C56.1573 47.5244 54.8878 47.4486 54.1083 47.9764Z" fill="#C0C0C0"/>
<path d="M67.1593 52.0265V47.2611C67.137 46.1688 67.1704 44.8489 66.3241 44.3044C66.1905 44.2095 65.9233 44.0779 65.5001 44.0779C65.1772 44.0779 64.4422 44.1716 63.9522 44.9816C63.5179 45.6968 63.4845 46.5838 63.4622 47.4117V52.0265H61.146V44.5297C61.1349 43.7376 61.1126 42.9466 61.0792 42.1577H63.2952L63.3175 43.6829C63.4957 43.3995 63.7518 42.9855 64.3754 42.5693C64.7651 42.325 65.3219 42.006 66.3575 42.006C66.4911 42.006 66.9477 42.0249 67.3709 42.1376C68.284 42.4199 68.9856 43.1742 69.2306 44.1907C69.4199 44.9437 69.4199 46.2067 69.4421 46.9788V52.0265H67.1593Z" fill="#C0C0C0"/>
<path d="M74.3307 42.1577H76.4131V44.0779H74.3307V48.2598C74.3529 48.6737 74.3195 50.0483 75.6781 50.0483C75.8785 50.0483 76.079 50.0316 76.5021 49.8978L76.5578 51.9138C75.9899 52.0645 75.6224 52.1772 75.0434 52.1772C74.8318 52.1772 73.5846 52.1593 72.8607 51.3302C72.0812 50.4444 72.1035 48.9571 72.1147 47.8258V44.0779H70.4109V42.1577H72.1147V40.1796L74.3307 39.3874V42.1577Z" fill="#C0C0C0"/>
<path d="M83.6735 42.382C85.4218 43.211 86.2793 45.0586 86.2793 47.1116C86.2793 47.4485 86.2681 48.3156 85.9452 49.2205C85.5554 50.3127 84.4196 52.1971 81.7025 52.1971C81.1569 52.1971 79.8651 52.1592 78.6848 51.0848C78.0612 50.5191 77.0812 49.3342 77.0812 47.0915C77.0812 46.3741 77.1926 45.6032 77.4375 44.9437C78.1502 42.9465 79.8206 41.9681 81.7025 41.9681C82.0032 41.9681 82.8495 41.987 83.6735 42.382ZM80.6001 44.2285C80.0878 44.6046 79.4976 45.4726 79.4976 47.0346C79.4976 47.298 79.5199 49.0687 80.5444 49.8977C80.9007 50.1799 81.2682 50.2948 81.7025 50.2948C82.7604 50.2948 83.8517 49.4457 83.8517 47.0346C83.8517 46.2826 83.7626 45.5462 83.384 44.9069C83.1835 44.5666 82.6936 43.8525 81.7025 43.8525C81.1569 43.8525 80.7671 44.0947 80.6001 44.2285Z" fill="#C0C0C0"/>
<path d="M93.7848 52.0265V47.2611C93.7736 46.1688 93.7959 44.8489 92.9496 44.3044C92.8271 44.2095 92.5487 44.0779 92.1255 44.0779C91.8026 44.0779 91.0788 44.1716 90.5888 44.9816C90.1434 45.6968 90.11 46.5838 90.0988 47.4117V52.0265H87.7826V44.5297C87.7603 43.7376 87.7492 42.9466 87.7158 42.1577H89.9318L89.9429 43.6829C90.1323 43.3995 90.3883 42.9855 91.0119 42.5693C91.4017 42.325 91.9585 42.006 92.9941 42.006C93.1277 42.006 93.5843 42.0249 94.0075 42.1376C94.9206 42.4199 95.611 43.1742 95.8671 44.1907C96.0564 44.9437 96.0564 46.2067 96.0676 46.9788V52.0265H93.7848Z" fill="#C0C0C0"/>
<path d="M103.094 52.0265V50.576C102.983 50.8215 102.927 50.8963 102.849 51.01C102.493 51.4798 101.68 52.1972 100.288 52.1972C99.9205 52.1972 98.3503 52.1213 97.5708 50.7277C97.4261 50.5001 97.1588 49.9367 97.1588 49.1635C97.1588 48.3535 97.4595 47.7888 97.6042 47.5434C98.4839 46.1119 100.288 45.9234 101.68 45.9234C102.114 45.9234 102.56 45.9434 102.994 45.9601C102.994 45.9601 102.983 45.2651 102.86 44.907C102.671 44.3613 102.181 43.7766 101.056 43.7766C99.965 43.7766 99.0518 44.2844 98.7512 44.4718C98.6176 44.5666 98.5285 44.6234 98.2947 44.8489L98.2278 42.6275C99.3525 42.1923 100.065 41.9681 101.268 41.9681C101.491 41.9681 102.014 41.9681 102.593 42.1187C104.074 42.4958 104.653 43.4374 104.865 44.1147C105.043 44.6994 105.065 45.283 105.076 46.4701V48.8052C105.076 49.7659 105.087 50.7278 105.132 51.6873C105.132 51.8023 105.143 51.9139 105.143 52.0265H103.094ZM100.132 47.9764C99.8648 48.166 99.7311 48.4092 99.6643 48.5431C99.6087 48.6368 99.5084 48.8633 99.5084 49.1635C99.5084 49.3342 99.5641 49.5405 99.6309 49.7101C99.9316 50.4443 100.7 50.4823 100.9 50.4823C101.201 50.4823 102.003 50.3685 102.537 49.5596C102.96 48.937 102.994 48.3155 103.05 47.5624C102.181 47.5244 100.912 47.4486 100.132 47.9764Z" fill="#C0C0C0"/>
<path d="M107.136 52.0265H109.441V37.6367H107.136V52.0265Z" fill="#C0C0C0"/>
<path d="M113.862 37.6356V43.7008C113.996 43.4565 114.13 43.1932 114.542 42.816C115.132 42.2503 115.8 41.968 116.579 41.987C116.891 41.987 117.515 42.006 118.205 42.4199C119.107 42.9465 120.254 44.2286 120.254 46.8461C120.254 47.5244 120.176 48.0891 120.132 48.3356C119.965 49.4079 119.642 50.4076 118.94 51.1796C118.528 51.6136 117.838 52.1972 116.513 52.1972C115.277 52.1972 114.586 51.6304 114.23 51.1975C114.052 50.9911 113.907 50.7455 113.773 50.5001V52.0265H111.591V37.6356H113.862ZM114.942 44.4171C114.43 44.7753 113.873 45.5853 113.873 47.1117C113.873 48.089 114.107 49.1825 114.853 49.785C115.299 50.1431 115.666 50.1621 115.889 50.1621C116.078 50.1621 116.468 50.1431 116.858 49.8418C117.348 49.4659 117.882 48.58 117.882 47.0346C117.882 46.2067 117.682 45.0586 117.058 44.4918C116.758 44.2095 116.368 44.0779 115.978 44.06C115.8 44.06 115.366 44.0947 114.942 44.4171Z" fill="#C0C0C0"/>
<path d="M127.236 52.0265V50.576C127.114 50.8215 127.069 50.8963 126.98 51.01C126.624 51.4798 125.811 52.1972 124.419 52.1972C124.051 52.1972 122.481 52.1213 121.702 50.7277C121.568 50.5001 121.29 49.9367 121.29 49.1635C121.29 48.3535 121.602 47.7888 121.735 47.5434C122.615 46.1119 124.419 45.9234 125.811 45.9234C126.245 45.9234 126.691 45.9434 127.136 45.9601C127.136 45.9601 127.114 45.2651 127.002 44.907C126.813 44.3613 126.323 43.7766 125.187 43.7766C124.107 43.7766 123.194 44.2844 122.882 44.4718C122.749 44.5666 122.671 44.6234 122.426 44.8489L122.359 42.6275C123.495 42.1923 124.207 41.9681 125.41 41.9681C125.633 41.9681 126.156 41.9681 126.724 42.1187C128.216 42.4958 128.795 43.4374 128.996 44.1147C129.185 44.6994 129.196 45.283 129.218 46.4701V48.8052C129.218 49.7659 129.23 50.7278 129.263 51.6873C129.263 51.8023 129.285 51.9139 129.285 52.0265H127.236ZM124.274 47.9764C124.007 48.166 123.862 48.4092 123.795 48.5431C123.751 48.6368 123.651 48.8633 123.651 49.1635C123.651 49.3342 123.695 49.5405 123.762 49.7101C124.074 50.4443 124.831 50.4823 125.031 50.4823C125.343 50.4823 126.134 50.3685 126.679 49.5596C127.103 48.937 127.136 48.3155 127.181 47.5624C126.323 47.5244 125.054 47.4486 124.274 47.9764Z" fill="#C0C0C0"/>
<path d="M137.314 52.0265V47.2611C137.303 46.1688 137.336 44.8489 136.49 44.3044C136.356 44.2095 136.078 44.0779 135.666 44.0779C135.343 44.0779 134.608 44.1716 134.118 44.9816C133.684 45.6968 133.65 46.5838 133.628 47.4117V52.0265H131.312V44.5297C131.29 43.7376 131.279 42.9466 131.245 42.1577H133.461L133.472 43.6829C133.662 43.3995 133.918 42.9855 134.541 42.5693C134.931 42.325 135.488 42.006 136.523 42.006C136.657 42.006 137.114 42.0249 137.537 42.1376C138.45 42.4199 139.14 43.1742 139.396 44.1907C139.586 44.9437 139.586 46.2067 139.597 46.9788V52.0265H137.314Z" fill="#C0C0C0"/>
<path d="M143.84 46.1499C144.107 45.736 144.385 45.3209 144.652 44.9248L146.646 42.1577H149.307L146 46.5069L149.73 52.0265H146.891L144.92 49.0308C144.697 48.6536 144.485 48.2966 144.274 47.9195C144.129 47.6751 143.973 47.3916 143.84 47.1283V52.0265H141.557V37.6356H143.84V46.1499Z" fill="#C0C0C0"/>
</svg>
