<svg width="118" height="75" viewBox="0 0 118 75" fill="none" xmlns="http://www.w3.org/2000/svg">
<g clip-path="url(#clip0_9831_3411)">
<path d="M26.3659 37.4104C26.2658 37.6851 26.0531 37.9393 25.7348 38.1669C25.4082 38.4002 24.9283 38.5973 24.3084 38.7518C23.6964 38.9068 22.8962 38.9987 21.8637 39.0343C21.9301 38.622 22.0253 38.2094 22.1458 37.8045C22.2704 37.3856 22.4528 36.9885 22.6897 36.6264C22.9747 36.1752 23.3474 35.8135 23.7974 35.5504C24.2306 35.2914 24.7349 35.1537 25.2499 35.154C25.7074 35.154 26.0257 35.2815 26.2214 35.5435C26.4175 35.8104 26.5159 36.1477 26.5159 36.5472C26.5159 36.8459 26.4669 37.1283 26.3659 37.4104ZM27.9265 34.4628C27.393 33.9837 26.6476 33.7407 25.7103 33.7407C24.7817 33.7407 23.9212 33.9315 23.1538 34.3083C22.3884 34.683 21.7382 35.1668 21.2209 35.7444C20.5004 36.5418 19.9906 37.4934 19.7068 38.5714C19.4235 39.6497 19.2805 40.7265 19.2805 41.7713C19.2805 43.0667 19.5839 44.0871 20.1813 44.8023C20.7817 45.5232 21.675 45.8883 22.838 45.8883C23.8036 45.8883 24.6803 45.7299 25.4427 45.4174C26.2039 45.1079 26.8442 44.7474 27.3448 44.346L27.3561 44.3367L27.3623 44.3247C27.4587 44.1218 27.5333 43.9104 27.585 43.6938C27.6439 43.4623 27.6744 43.2254 27.676 42.9875V42.8689L27.5705 42.9361C27.2873 43.1157 26.9864 43.2697 26.6717 43.3959C26.027 43.6576 25.3515 43.8482 24.6591 43.9639C24.3321 44.0183 24.03 44.0462 23.7616 44.0462C22.3743 44.0462 21.6995 43.1143 21.6995 41.1975V40.5434C23.1118 40.4912 24.2818 40.339 25.1785 40.089C26.0959 39.834 26.8238 39.5141 27.3432 39.1366C27.8609 38.7588 28.2265 38.3284 28.4293 37.857C28.6266 37.3899 28.7268 36.9093 28.7268 36.4278C28.7268 35.6014 28.4571 34.9403 27.9265 34.4628ZM16.279 32.3965C16.6887 32.3965 17.0369 32.2659 17.3144 32.0082C17.5911 31.7501 17.7312 31.3858 17.7312 30.9256C17.7312 30.4975 17.5953 30.1575 17.3265 29.9157C17.0589 29.6742 16.7074 29.5525 16.279 29.5525C15.8693 29.5525 15.5162 29.6827 15.2316 29.9393C14.9457 30.1973 14.8003 30.5292 14.8003 30.9256C14.8003 31.9016 15.2989 32.3965 16.279 32.3965ZM15.736 43.9024C15.7044 43.7869 15.7002 43.7425 15.6994 43.7348L16.9899 33.9992L16.938 33.9841C16.8291 33.9509 16.6604 33.9258 16.4207 33.9091C16.2353 33.895 16.0495 33.8868 15.8635 33.8844C15.3317 33.8844 14.8427 33.9416 14.4093 34.0533C13.9776 34.1657 13.6024 34.2963 13.2763 34.4512C13.1479 34.571 13.0344 34.78 12.9397 35.0736C12.8421 35.3688 12.7943 35.5778 12.7943 35.7119V35.7815L14.654 35.5921L13.3332 44.0608C13.3332 44.2784 13.4233 44.5604 13.6091 44.9236C13.7886 45.2729 14.0025 45.5897 14.246 45.8659L14.2664 45.8887H14.298C14.5285 45.886 14.7586 45.8696 14.9868 45.8397C15.2629 45.8079 15.538 45.7686 15.8116 45.7218C16.0858 45.6735 16.36 45.619 16.6488 45.5534C16.8972 45.4976 17.1408 45.4248 17.3776 45.3355L17.3979 45.3277L17.4087 45.31C17.5139 45.1469 17.6111 44.9213 17.6979 44.6381C17.7852 44.356 17.8292 44.1211 17.8292 43.9418V43.8731L15.7966 44.067C15.7698 44.0145 15.7494 43.9593 15.736 43.9024ZM2.40363 40.2266C2.44685 39.8433 2.51125 39.4523 2.59435 39.0644C2.67786 38.6765 2.79378 38.2893 2.93921 37.9161C3.07881 37.5545 3.2529 37.2257 3.45857 36.9382C3.79891 36.4498 4.23652 36.0263 4.74785 35.6907C5.26597 35.3503 5.88297 35.1776 6.58349 35.1776C6.86852 35.1776 7.17765 35.2178 7.5034 35.2954C7.8092 35.3684 8.07054 35.4627 8.27995 35.5775L7.32016 42.4308C6.98611 42.9755 6.56646 43.3928 6.07161 43.6737C5.58049 43.953 5.06154 44.0948 4.5293 44.0948C3.86991 44.0948 3.33559 43.8765 2.94045 43.4481C2.54116 43.0165 2.33923 42.2921 2.33923 41.2945C2.33923 40.9699 2.36042 40.6106 2.40363 40.2266ZM9.45746 43.8456C9.44172 43.7775 9.42911 43.7088 9.41965 43.6397L11.3504 29.1148L11.2977 29.0985C11.1892 29.0645 11.0147 29.0394 10.7808 29.0236C10.5963 29.0097 10.4113 29.0018 10.2261 29C9.70883 29 9.22728 29.0568 8.79558 29.1692C8.35973 29.2832 7.98454 29.4138 7.66378 29.5676C7.53622 29.6862 7.42237 29.8956 7.32764 30.1896C7.22959 30.4833 7.18347 30.6919 7.18347 30.8271V30.8967L9.01828 30.7081L8.50473 34.1695C8.20186 34.0535 7.8916 33.9549 7.57569 33.8744C7.22673 33.7859 6.86667 33.7409 6.50497 33.7407C5.48784 33.7407 4.5588 33.9644 3.74194 34.4056C2.92225 34.8471 2.21788 35.452 1.67943 36.1767C1.13098 36.8938 0.709254 37.7341 0.425057 38.6765C0.141755 39.6298 -0.00123047 40.6145 7.97621e-06 41.6036C7.97621e-06 42.3697 0.0872615 43.03 0.259691 43.5667C0.432536 44.1045 0.673522 44.5492 0.977247 44.8884C1.26916 45.2197 1.64353 45.4798 2.06792 45.6461C2.48258 45.8068 2.94876 45.8883 3.454 45.8883C4.09137 45.8883 4.76821 45.7512 5.46706 45.4788C6.15761 45.2091 6.76839 44.7528 7.28235 44.1234H7.32182C7.37376 44.3981 7.45811 44.6968 7.57154 45.0109C7.68995 45.3428 7.82166 45.6279 7.96251 45.8574L7.98204 45.8883H8.02068C8.19436 45.8883 8.41623 45.8717 8.68007 45.8393C9.24061 45.7762 9.79637 45.6807 10.3441 45.5534C10.592 45.4977 10.8351 45.4249 11.0712 45.3355L11.0908 45.3277L11.1028 45.3103C11.2075 45.1496 11.3052 44.9278 11.3928 44.6508C11.4788 44.3784 11.5233 44.1482 11.5233 43.9673V43.8993L9.52352 44.0674C9.49387 43.9956 9.47174 43.9214 9.45746 43.8456ZM114.172 45.6264H110.554V34.0606H113.489L114.001 35.1926C114.467 34.4373 115.286 33.8311 117.179 33.8311H117.778L117.321 36.6933C117.321 36.6933 116.881 36.6581 116.575 36.6581C115.5 36.6581 114.695 37.2125 114.172 38.0649V45.6264ZM58.5006 45.9003C54.3182 45.9003 52.8358 42.6433 52.8358 39.8537C52.8358 35.3804 55.7617 33.7851 58.5006 33.7851C61.2424 33.7851 64.1687 35.3804 64.1687 39.8537C64.1687 44.312 61.2424 45.9003 58.5006 45.9003ZM58.5006 36.7396C57.2279 36.7396 56.5274 37.8446 56.5274 39.8537C56.5274 41.8481 57.2279 42.9462 58.5006 42.9462C59.7944 42.9462 60.4763 41.8767 60.4763 39.8537C60.4763 37.8172 59.7944 36.7396 58.5006 36.7396ZM70.7688 45.9003C68.0627 45.9003 66.6908 45.0167 66.1054 44.6392L66.0339 44.594V29.5622L69.6516 29.102V34.9156C70.1826 34.4106 71.1353 33.7851 72.6116 33.7851C75.3995 33.7851 77.0008 35.7903 77.0008 39.2831C77.0008 43.6733 74.903 45.9003 70.7688 45.9003ZM69.6516 42.7383C69.9154 42.8813 70.2873 43.0138 70.9633 43.0138C71.9696 43.0138 73.3083 42.6707 73.3083 39.6938C73.3083 37.7055 72.6527 36.7396 71.3082 36.7396C70.6833 36.7396 70.1257 36.9838 69.6516 37.4675V42.7383ZM82.6574 45.626H79.038V34.0594H82.6569L82.6574 45.626ZM80.8479 33.0031C79.6928 33.0031 79.0014 32.3772 79.0014 31.3294V31.2247C79.0014 30.1734 79.6737 29.5714 80.8479 29.5714C82.0204 29.5714 82.6943 30.1734 82.6943 31.2247V31.3294C82.6943 32.3772 82.0034 33.0031 80.8479 33.0031ZM85.2841 45.626H88.9255V29.1024L85.2841 29.5722V45.626ZM95.1732 45.626H91.556V34.0594H95.1728L95.1732 45.626ZM93.3634 33.0031C92.2095 33.0031 91.5182 32.3772 91.5182 31.3294V31.2247C91.5182 30.1734 92.1917 29.5714 93.3634 29.5714C94.5355 29.5714 95.2098 30.1734 95.2098 31.2247V31.3294C95.2098 32.3772 94.5209 33.0031 93.3634 33.0031ZM108.089 34.7166C107.563 34.4616 106.163 33.7855 103.737 33.7855C99.5438 33.7855 97.1385 36.0554 97.1385 40.0137C97.1385 43.8097 98.8358 45.9007 101.92 45.9007C102.928 45.9007 104.028 45.6152 104.607 44.9309C104.688 44.8328 104.74 44.7459 104.74 44.7459L105.134 45.619H108.168V34.7545L108.089 34.7166ZM104.533 42.2936C104.171 42.726 103.631 42.9462 102.928 42.9462C101.951 42.9462 100.831 42.6 100.831 39.8993C100.831 37.7728 101.684 36.6937 103.369 36.6937C103.846 36.6937 104.212 36.7497 104.533 36.8702V42.2936ZM46.423 29.5622L42.2062 40.0983L38.0122 29.5622H34.1303L33.0072 45.6233H36.6498L37.2024 36.9139L40.816 45.6233H43.5711L47.1601 36.9131L47.7123 45.6233H51.3807L50.2572 29.5622H46.423Z" fill="#C0C0C0"/>
</g>
<defs>
<clipPath id="clip0_9831_3411">
<rect width="118" height="17" fill="white" transform="translate(0 29)"/>
</clipPath>
</defs>
</svg>
