<svg width="120" height="75" viewBox="0 0 120 75" fill="none" xmlns="http://www.w3.org/2000/svg">
<g clip-path="url(#clip0_9831_3440)">
<path d="M24.8695 33.4631C24.8436 32.8092 24.7919 32.281 24.7143 31.8786C24.6366 31.451 24.5072 31.124 24.3261 30.8725C24.1449 30.621 23.9638 30.4449 23.705 30.3443C23.4721 30.2437 23.1874 30.1934 22.8769 30.1934C22.1264 30.1934 21.5829 30.4449 21.2724 30.9228C20.9618 31.4007 20.7548 32.2559 20.703 33.4631H24.8695ZM20.703 35.6262C20.7548 36.2047 20.8583 36.6574 21.0395 37.0095C21.2206 37.3617 21.4276 37.6132 21.6864 37.8144C21.9452 38.0156 22.204 38.1414 22.5146 38.1917C22.7992 38.2671 23.1098 38.2923 23.3944 38.2923C23.8344 38.2923 24.3002 38.2671 24.7919 38.1917C25.2836 38.1162 25.7235 38.0408 26.1376 37.9653C26.6034 37.8647 27.0692 37.7389 27.5092 37.6132V40.3547C27.121 40.4805 26.7069 40.6062 26.267 40.7069C25.8788 40.7823 25.4389 40.8578 24.9472 40.9332C24.4555 41.0087 23.9379 41.0338 23.3944 41.0338C22.6957 41.0338 21.9711 40.9584 21.2465 40.8075C20.496 40.6565 19.849 40.3547 19.228 39.902C18.6327 39.4493 18.141 38.7953 17.727 37.915C17.3388 37.0598 17.1318 35.9029 17.1318 34.4692C17.1318 33.1865 17.3129 32.1049 17.6493 31.2749C17.9858 30.4198 18.4257 29.7658 18.995 29.2628C19.5385 28.7598 20.1596 28.4328 20.8324 28.2316C21.5053 28.0304 22.1781 27.9297 22.8769 27.9297C23.498 27.9297 24.1449 28.0052 24.7919 28.1813C25.4389 28.3573 26.0341 28.6843 26.5517 29.1622C27.0692 29.6401 27.4833 30.3192 27.8197 31.1743C28.1561 32.0295 28.3114 33.1362 28.3114 34.4944V35.6262H20.703Z" fill="#C0C0C0"/>
<path d="M39.5169 40.8075L37.0067 36.6071L34.5482 40.8075H29.7606V38.4683H31.7274L34.5482 34.1171L32.0897 30.5204H30.0194V28.1813H34.9105L37.0067 31.9037L39.1546 28.1813H43.9681V30.5204H41.9237L39.4652 34.1171L42.2601 38.4683H44.2269V40.8075H39.5169Z" fill="#C0C0C0"/>
<path d="M56.1829 34.4189C56.1829 33.5134 56.1311 32.8092 56.0276 32.281C55.9241 31.7528 55.7688 31.3755 55.5359 31.0989C55.3289 30.8474 55.0701 30.6713 54.7595 30.5958C54.4749 30.5204 54.1385 30.4952 53.7503 30.4952C53.5174 30.4952 53.2586 30.5455 52.9998 30.621C52.741 30.6964 52.5081 30.7971 52.3011 30.8725C52.0423 30.9983 51.8094 31.124 51.5765 31.2498V38.1917C51.8094 38.2671 52.0681 38.3174 52.3269 38.3677C52.5598 38.418 52.7928 38.4683 53.0257 38.4935C53.2586 38.5186 53.5174 38.5438 53.7244 38.5438C54.0091 38.5438 54.2937 38.4935 54.6043 38.418C54.8889 38.3426 55.1736 38.1665 55.3806 37.8647C55.6135 37.588 55.7947 37.1604 55.95 36.6323C56.1052 36.1041 56.1829 35.3747 56.1829 34.4189ZM59.7542 34.4189C59.7542 35.3998 59.6506 36.255 59.4695 36.9844C59.2883 37.7138 59.0295 38.3174 58.719 38.7953C58.4085 39.2984 58.0462 39.6756 57.6321 39.9774C57.2439 40.2793 56.804 40.5056 56.364 40.6565C55.9241 40.8075 55.4842 40.9081 55.0701 40.9584C54.656 41.0087 54.2678 41.0338 53.9055 41.0338C53.6209 41.0338 53.3362 41.0087 53.0774 40.9835C52.8186 40.9332 52.5857 40.9081 52.3528 40.8578C52.094 40.7823 51.8611 40.732 51.6023 40.6565V43.1717H53.8797V45.4857H45.7278V43.1717H48.0052V30.5204H45.7278V28.2064H51.3177L51.5765 29.1622C51.8094 28.961 52.0682 28.7598 52.3528 28.5585C52.6116 28.4076 52.9222 28.2819 53.2586 28.131C53.6209 28.0052 54.0349 27.9297 54.4749 27.9297C55.0442 27.9297 55.6135 27.9801 56.2346 28.1058C56.8557 28.2316 57.3992 28.5082 57.9168 28.9358C58.4343 29.3634 58.8484 30.0173 59.1848 30.8725C59.573 31.778 59.7542 32.935 59.7542 34.4189Z" fill="#C0C0C0"/>
<path d="M60.6858 40.8075V38.4683H62.9631V25.314H60.6858V23H66.5344V38.4683H68.8117V40.8075H60.6858Z" fill="#C0C0C0"/>
<path d="M78.3869 34.4944C78.3869 33.5637 78.3093 32.8092 78.1799 32.281C78.0505 31.7277 77.8693 31.3252 77.6105 31.0486C77.3776 30.7719 77.093 30.5958 76.7824 30.5204C76.4719 30.4449 76.1354 30.4198 75.7731 30.4198C75.4108 30.4198 75.0744 30.4701 74.7639 30.5455C74.4533 30.6461 74.1686 30.8222 73.9357 31.124C73.7028 31.4007 73.5217 31.8283 73.3664 32.3565C73.237 32.8846 73.1594 33.614 73.1594 34.5195C73.1594 35.3998 73.237 36.1292 73.3923 36.6574C73.5476 37.1856 73.7546 37.6132 74.0134 37.8899C74.2722 38.1665 74.5568 38.3677 74.8415 38.4683C75.152 38.569 75.4367 38.5941 75.7214 38.5941C76.006 38.5941 76.3166 38.5438 76.6013 38.4683C76.9118 38.3929 77.1965 38.1917 77.4294 37.915C77.6882 37.6383 77.8952 37.2108 78.0505 36.6826C78.3093 36.1292 78.3869 35.3998 78.3869 34.4944ZM81.9323 34.4944C81.9323 35.9029 81.7253 37.0598 81.3371 37.915C80.9489 38.7702 80.4572 39.4241 79.8361 39.902C79.2409 40.3799 78.568 40.6817 77.8434 40.8326C77.1188 40.9835 76.4201 41.059 75.7473 41.059C75.0744 41.059 74.3757 40.9835 73.6252 40.8075C72.9006 40.6314 72.2277 40.3296 71.6325 39.8517C71.0373 39.3738 70.5456 38.7199 70.1574 37.8647C69.7693 37.0095 69.5622 35.8777 69.5622 34.4944C69.5622 33.1362 69.7434 32.0546 70.1316 31.1995C70.4939 30.3443 70.9856 29.6904 71.5808 29.2125C72.176 28.7346 72.8229 28.4076 73.5734 28.2316C74.298 28.0555 75.0227 27.9549 75.7473 27.9549C76.446 27.9549 77.1447 28.0304 77.8952 28.2064C78.6198 28.3825 79.2927 28.6843 79.8879 29.1622C80.4831 29.6401 80.9748 30.294 81.363 31.1492C81.7511 32.0043 81.9323 33.111 81.9323 34.4944Z" fill="#C0C0C0"/>
<path d="M92.8273 31.3252C92.6461 31.3001 92.4908 31.2498 92.2838 31.2246C92.1285 31.1995 91.9733 31.1743 91.7921 31.1492C91.611 31.124 91.4298 31.124 91.2745 31.124C90.757 31.124 90.2911 31.2246 89.9288 31.451C89.5665 31.6774 89.256 31.8534 89.0748 32.0546V38.4935H91.8697V40.8075H83.2262V38.4935H85.5036V30.5204H83.2262V28.2064H88.8161L89.0748 29.6652C89.1525 29.4892 89.2301 29.3131 89.3595 29.1119C89.4889 28.9107 89.6183 28.7346 89.8253 28.5585C90.0065 28.3825 90.2394 28.2316 90.524 28.131C90.7828 28.0052 91.1193 27.9549 91.4816 27.9549C91.6886 27.9549 91.8698 27.9549 92.0509 27.9801C92.2321 28.0052 92.3614 28.0304 92.4908 28.0555C92.6202 28.0807 92.7496 28.131 92.879 28.1561V31.3252H92.8273Z" fill="#C0C0C0"/>
<path d="M102.144 33.4631C102.118 32.8092 102.066 32.281 101.988 31.8786C101.911 31.451 101.781 31.124 101.6 30.8725C101.419 30.621 101.238 30.4449 100.979 30.3443C100.746 30.2437 100.462 30.1934 100.151 30.1934C99.4005 30.1934 98.857 30.4449 98.5465 30.9228C98.2359 31.4007 98.0289 32.2559 97.9771 33.4631H102.144ZM97.9513 35.6262C98.003 36.2047 98.1065 36.6574 98.2877 37.0095C98.4688 37.3617 98.6759 37.6132 98.9347 37.8144C99.1934 38.0156 99.4522 38.1414 99.7628 38.1917C100.047 38.2671 100.358 38.2923 100.643 38.2923C101.083 38.2923 101.548 38.2671 102.04 38.1917C102.532 38.1162 102.972 38.0408 103.386 37.9653C103.852 37.8647 104.317 37.7389 104.757 37.6132V40.3547C104.369 40.4805 103.955 40.6062 103.515 40.7069C103.127 40.7823 102.687 40.8578 102.195 40.9332C101.704 41.0087 101.186 41.0338 100.643 41.0338C99.9439 41.0338 99.2193 40.9584 98.4947 40.8075C97.7442 40.6565 97.0973 40.3547 96.4762 39.902C95.881 39.4493 95.3893 38.7953 94.9752 37.915C94.587 37.0598 94.38 35.9029 94.38 34.4692C94.38 33.1865 94.5611 32.1049 94.8976 31.2749C95.234 30.4198 95.6739 29.7658 96.2433 29.2628C96.7867 28.7598 97.4078 28.4328 98.0807 28.2316C98.7535 28.0304 99.4264 27.9297 100.125 27.9297C100.746 27.9297 101.393 28.0052 102.04 28.1813C102.687 28.3573 103.282 28.6843 103.8 29.1622C104.317 29.6401 104.732 30.3192 105.068 31.1743C105.404 32.0295 105.56 33.1362 105.56 34.4944V35.6262H97.9513Z" fill="#C0C0C0"/>
<path d="M66.1203 47.4475L65.5769 50.4909H64.8523L65.4216 47.4224C65.4475 47.3469 65.4475 47.2715 65.4475 47.196C65.4475 46.9696 65.3699 46.8439 65.1111 46.8439C64.5935 46.8439 64.0759 47.4727 63.7912 47.85C63.7654 47.8751 63.6619 48.0512 63.6619 48.0763L63.2219 50.516H62.4973L63.0666 47.3469C63.0666 47.2966 63.0925 47.2463 63.0925 47.1709C63.0925 46.9445 62.989 46.8439 62.7561 46.8439C62.2126 46.8439 61.7209 47.4475 61.4363 47.85C61.4104 47.8751 61.3069 48.0512 61.3069 48.0763L60.8669 50.516H60.1423L60.8928 46.2905H61.5139L61.4622 47.2966C61.7468 46.7433 62.342 46.2151 62.989 46.2151C63.5583 46.2151 63.843 46.5169 63.843 47.0703C63.843 47.1457 63.843 47.2212 63.8171 47.2966C64.1277 46.7433 64.6452 46.2151 65.344 46.2151C65.9133 46.2151 66.198 46.5421 66.198 47.0703C66.1721 47.196 66.1462 47.3218 66.1203 47.4475Z" fill="#C0C0C0"/>
<path d="M68.5012 45.6366C68.2424 45.6366 68.0095 45.4102 68.0095 45.1587C68.0095 44.9072 68.2165 44.6808 68.5012 44.6808C68.76 44.6808 68.9929 44.9072 68.9929 45.1587C68.9929 45.4354 68.76 45.6366 68.5012 45.6366ZM67.906 50.4909H67.1814L67.9319 46.2654H68.6565L67.906 50.4909Z" fill="#C0C0C0"/>
<path d="M72.1501 47.0703C71.9172 46.9696 71.5031 46.8187 71.1408 46.8187C70.7526 46.8187 70.3903 46.9696 70.3903 47.3972C70.3903 47.7493 70.6491 47.9003 70.8303 47.9757L71.2702 48.2272C71.6325 48.4284 71.9431 48.7303 71.9431 49.2585C71.9431 50.1891 71.3479 50.5663 70.5456 50.5663C70.0539 50.5663 69.5881 50.4154 69.2258 50.2645L69.3293 49.6609C69.6916 49.8118 70.1833 49.9627 70.5197 49.9627C70.9597 49.9627 71.2185 49.7615 71.2185 49.3842C71.2185 49.0321 71.0891 48.8812 70.8303 48.7554L70.4162 48.5291C70.0798 48.3278 69.6399 48.0009 69.6399 47.4224C69.6399 46.5169 70.4421 46.2151 71.1408 46.2151C71.5549 46.2151 71.9431 46.3408 72.2019 46.5169L72.1501 47.0703Z" fill="#C0C0C0"/>
<path d="M75.5402 47.0703C75.3073 46.9696 74.8933 46.8187 74.5309 46.8187C74.1428 46.8187 73.7805 46.9696 73.7805 47.3972C73.7805 47.7493 74.0392 47.9003 74.2204 47.9757L74.6603 48.2272C75.0226 48.4284 75.3332 48.7303 75.3332 49.2585C75.3332 50.1891 74.738 50.5663 73.9357 50.5663C73.444 50.5663 72.9782 50.4154 72.6159 50.2645L72.7194 49.6609C73.0817 49.8118 73.5734 49.9627 73.9099 49.9627C74.3498 49.9627 74.6086 49.7615 74.6086 49.3842C74.6086 49.0321 74.4792 48.8812 74.2204 48.7554L73.8063 48.5291C73.4699 48.3278 73.03 48.0009 73.03 47.4224C73.03 46.5169 73.8322 46.2151 74.5309 46.2151C74.945 46.2151 75.3332 46.3408 75.592 46.5169L75.5402 47.0703Z" fill="#C0C0C0"/>
<path d="M77.6364 45.6366C77.3776 45.6366 77.1447 45.4102 77.1447 45.1587C77.1447 44.9072 77.3517 44.6808 77.6364 44.6808C77.8952 44.6808 78.1281 44.9072 78.1281 45.1587C78.1281 45.4354 77.9211 45.6366 77.6364 45.6366ZM77.0412 50.4909H76.3166L77.0671 46.2654H77.7917L77.0412 50.4909Z" fill="#C0C0C0"/>
<path d="M80.7677 46.7433C80.0431 46.7433 79.422 47.6487 79.422 48.9566C79.422 49.7112 79.7326 50.013 80.1984 50.013C80.923 50.013 81.57 49.0069 81.57 47.7493C81.5441 47.0199 81.3112 46.7433 80.7677 46.7433ZM80.1467 50.5663C79.3703 50.5663 78.6457 50.2142 78.6457 48.9566C78.6457 47.3218 79.5514 46.1899 80.7677 46.1899C81.4923 46.1899 82.2687 46.5421 82.2687 47.7997C82.2946 49.4094 81.4147 50.5663 80.1467 50.5663Z" fill="#C0C0C0"/>
<path d="M87.0822 47.4475L86.5387 50.4909H85.8141L86.3834 47.4224C86.4093 47.3469 86.4093 47.2966 86.4093 47.2212C86.4093 46.9445 86.2282 46.8439 85.9694 46.8439C85.3742 46.8439 84.7013 47.5984 84.3908 48.0512L83.9508 50.4909H83.2262L83.9767 46.2654H84.5978L84.546 47.2715C84.8825 46.7433 85.5553 46.1899 86.2023 46.1899C86.8234 46.1899 87.1598 46.4918 87.1598 47.0954C87.108 47.2463 87.108 47.3469 87.0822 47.4475Z" fill="#C0C0C0"/>
<path d="M92.9825 46.7936C92.5167 46.7936 91.9991 47.4475 91.7145 47.9506L91.3781 49.8118C91.5851 49.8872 91.9474 50.013 92.2062 50.013C93.1119 50.013 93.6295 48.8057 93.6295 47.7242C93.5777 47.0954 93.4225 46.7936 92.9825 46.7936ZM92.2579 50.5663C91.7921 50.5663 91.4816 50.4406 91.2487 50.34L90.9381 52H90.2135L91.2487 46.2654H91.8697L91.8439 47.0703C92.025 46.6678 92.465 46.1899 93.1637 46.1899C93.7848 46.1899 94.3282 46.5924 94.3282 47.6739C94.3282 49.2333 93.5519 50.5663 92.2579 50.5663Z" fill="#C0C0C0"/>
<path d="M97.3302 46.7433C96.6056 46.7433 95.9845 47.6487 95.9845 48.9566C95.9845 49.7112 96.295 50.013 96.7608 50.013C97.4854 50.013 98.1324 49.0069 98.1324 47.7493C98.1065 47.0199 97.8736 46.7433 97.3302 46.7433ZM96.7091 50.5663C95.9327 50.5663 95.2081 50.2142 95.2081 48.9566C95.2081 47.3218 96.1139 46.1899 97.3302 46.1899C98.0548 46.1899 98.8311 46.5421 98.8311 47.7997C98.857 49.4094 97.9771 50.5663 96.7091 50.5663Z" fill="#C0C0C0"/>
<path d="M102.402 47.0703C102.17 46.9696 101.755 46.8187 101.393 46.8187C101.005 46.8187 100.643 46.9696 100.643 47.3972C100.643 47.7493 100.901 47.9003 101.083 47.9757L101.523 48.2272C101.885 48.4284 102.195 48.7303 102.195 49.2585C102.195 50.1891 101.6 50.5663 100.798 50.5663C100.306 50.5663 99.8404 50.4154 99.4781 50.2645L99.5816 49.6609C99.9439 49.8118 100.436 49.9627 100.772 49.9627C101.212 49.9627 101.471 49.7615 101.471 49.3842C101.471 49.0321 101.341 48.8812 101.083 48.7554L100.669 48.5291C100.332 48.3278 99.8922 48.0009 99.8922 47.4224C99.8922 46.5169 100.694 46.2151 101.393 46.2151C101.807 46.2151 102.195 46.3408 102.454 46.5169L102.402 47.0703Z" fill="#C0C0C0"/>
<path d="M105.793 47.0703C105.56 46.9696 105.146 46.8187 104.783 46.8187C104.395 46.8187 104.033 46.9696 104.033 47.3972C104.033 47.7493 104.292 47.9003 104.473 47.9757L104.913 48.2272C105.275 48.4284 105.586 48.7303 105.586 49.2585C105.586 50.1891 104.99 50.5663 104.188 50.5663C103.696 50.5663 103.231 50.4154 102.868 50.2645L102.972 49.6609C103.334 49.8118 103.826 49.9627 104.162 49.9627C104.602 49.9627 104.861 49.7615 104.861 49.3842C104.861 49.0321 104.732 48.8812 104.473 48.7554L104.059 48.5291C103.722 48.3278 103.282 48.0009 103.282 47.4224C103.282 46.5169 104.085 46.2151 104.809 46.2151C105.223 46.2151 105.611 46.3408 105.87 46.5169L105.793 47.0703Z" fill="#C0C0C0"/>
<path d="M107.889 45.6366C107.63 45.6366 107.397 45.4102 107.397 45.1587C107.397 44.9072 107.604 44.6808 107.889 44.6808C108.148 44.6808 108.38 44.9072 108.38 45.1587C108.38 45.4354 108.148 45.6366 107.889 45.6366ZM107.294 50.4909H106.569L107.319 46.2654H108.044L107.294 50.4909Z" fill="#C0C0C0"/>
<path d="M111.356 46.7936C110.942 46.7936 110.425 47.3469 110.088 47.9506L109.726 49.9124C109.907 49.9627 110.088 49.9879 110.347 49.9879C111.564 49.9879 111.978 48.68 111.978 47.699C111.978 47.0954 111.796 46.7936 111.356 46.7936ZM110.373 50.5663C109.83 50.5663 109.312 50.4406 108.924 50.3148L109.933 44.7563H110.658L110.244 47.0703C110.451 46.6678 110.891 46.1899 111.538 46.1899C112.159 46.1899 112.702 46.5924 112.702 47.6739C112.702 49.1578 111.978 50.5663 110.373 50.5663Z" fill="#C0C0C0"/>
<path d="M114.333 50.4909H113.582L114.643 44.7814H115.368L114.333 50.4909Z" fill="#C0C0C0"/>
<path d="M117.93 46.7433C117.36 46.7433 116.869 47.4727 116.739 48.4536C117.516 48.4284 118.551 48.3781 118.551 47.4224C118.551 46.9445 118.396 46.7433 117.93 46.7433ZM116.713 48.9566C116.713 49.7112 116.895 49.9627 117.49 49.9627C117.826 49.9627 118.292 49.8118 118.732 49.5854L118.603 50.2897C118.266 50.4406 117.774 50.5663 117.386 50.5663C116.688 50.5663 115.989 50.2645 115.989 49.0824C115.989 47.3469 116.869 46.2151 118.007 46.2151C118.758 46.2151 119.275 46.5924 119.275 47.3972C119.275 48.7051 117.852 48.9315 116.713 48.9566Z" fill="#C0C0C0"/>
<path d="M8.15182 38.4683H0V40.7823H8.15182V38.4683Z" fill="#C0C0C0"/>
<path d="M14.0004 38.4683V31.8534C14.0004 31.124 13.9228 30.5204 13.7416 30.0173C13.5605 29.5143 13.3017 29.1119 12.9912 28.8101C12.6547 28.5082 12.2666 28.2819 11.8007 28.131C11.3349 28.0052 10.8432 27.9297 10.2739 27.9297C9.65279 27.9297 9.08346 28.0052 8.54 28.1813C7.99655 28.3573 7.53073 28.5334 7.14255 28.7346C6.67673 28.961 6.26267 29.2376 5.87449 29.5143L5.6157 28.1561H0V30.4701H2.27733V36.3053H5.84861V31.7528C6.15915 31.5768 6.4697 31.4258 6.80612 31.2749C7.09079 31.1492 7.42722 31.0486 7.78952 30.948C8.15182 30.8474 8.51413 30.7971 8.90231 30.7971C9.49752 30.7971 9.8857 30.8725 10.1186 31.0486C10.3256 31.2246 10.4292 31.5516 10.4292 32.0295V40.7823H16.2778V38.4683H14.0004Z" fill="#C0C0C0"/>
</g>
<defs>
<clipPath id="clip0_9831_3440">
<rect width="120" height="29" fill="white" transform="translate(0 23)"/>
</clipPath>
</defs>
</svg>
