<svg width="56" height="75" viewBox="0 0 56 75" fill="none" xmlns="http://www.w3.org/2000/svg">
<g clip-path="url(#clip0_9831_3471)">
<path d="M26.4449 34.6219V24.2775H15.3227V32.133H7.77827V42.8664H15.3227V50.7219H26.4449V40.3775H23.8005V48.233H17.9672V40.3775H10.4227V34.6219H17.9672V26.7664H23.8005V34.6219H26.4449Z" fill="#C0C0C0"/>
<path d="M41.6601 33.6927C41.6601 35.5692 40.1111 37.033 38.1467 37.033H35.156V30.5775H38.1467C40.1867 30.5775 41.6601 31.8911 41.6601 33.6927ZM39.4312 24.2775H28.0005V50.7219H35.156V42.8664H39.4312C44.6822 42.8664 48.7623 38.8597 48.7623 33.6842C48.7623 28.4708 44.6068 24.2775 39.4312 24.2775Z" fill="#C0C0C0"/>
</g>
<defs>
<clipPath id="clip0_9831_3471">
<rect width="56" height="31" fill="white" transform="translate(0 22)"/>
</clipPath>
</defs>
</svg>
