<svg width="122" height="75" viewBox="0 0 122 75" fill="none" xmlns="http://www.w3.org/2000/svg">
<g clip-path="url(#clip0_9831_3444)">
<path d="M16.8641 34.8045C16.6127 34.7861 16.3602 34.7861 16.1089 34.7861C13.6969 34.7861 11.5741 35.3089 9.85516 36.3252C11.2948 34.4139 12.0182 31.9063 11.9731 28.9677V28.5H6.50138L6.5087 29.04C6.54408 31.037 6.07682 32.5308 5.124 33.4478C3.88326 34.6355 1.87026 34.8155 0.395281 34.7432L0 34.7224V40.1821L0.215941 40.1955C0.467261 40.2139 0.719801 40.2139 0.971121 40.2139C3.38306 40.2139 5.50586 39.6911 7.22484 38.6748C5.78524 40.5861 5.06178 43.0937 5.10692 46.0323V46.5H10.5786L10.5713 45.96C10.5359 43.963 11.0032 42.4693 11.956 41.5522C13.1967 40.3645 15.2097 40.1845 16.6847 40.2568L17.08 40.2776V34.8179L16.8641 34.8045Z" fill="#C0C0C0"/>
<path d="M30.4135 35.2392C30.4135 37.3133 28.9714 39.2295 26.4765 39.2295H23.6107V43.7586H21.3501V31.2488H26.4863C28.9714 31.2488 30.4135 33.1662 30.4135 35.2392ZM23.6107 33.2826V37.1945H26.1447C27.3635 37.1945 28.0942 36.4219 28.1138 35.2379C28.0942 34.0539 27.3635 33.2813 26.1447 33.2813H23.6107V33.2826ZM56.0164 42.1252C54.7207 42.1252 54.2523 41.8118 54.2523 40.7171V36.5211H56.6105V34.6625H53.9497C54.3779 34.2609 54.7586 33.7037 54.7 32.423H52.6528C52.6528 32.5308 52.5455 34.507 50.7228 35.2992V36.5223H52.1258V40.9437C52.1258 43.0668 53.4605 44.0047 55.5955 44.0047C55.9664 44.0047 56.3458 43.9851 56.7167 43.9263V42.0872C56.4727 42.1068 56.2494 42.1264 56.0152 42.1264L56.0164 42.1252ZM66.7243 31.2574H58.6833V43.7573H60.9537V38.6418H66.2949V36.6264H60.9537V33.3009H66.7231V31.2562L66.7243 31.2574ZM70.4904 34.4751H68.3372V43.7671H70.4904V34.4751ZM72.5474 43.7684H74.7007V38.4667C74.7007 36.9411 75.8999 36.286 76.893 36.286C77.78 36.286 78.4522 36.8235 78.4522 38.1447V43.7684H80.6055V37.8802C80.6055 35.6016 79.4941 34.2511 77.3798 34.2511C76.161 34.2511 74.9435 34.9061 74.5823 36.1293L74.4164 34.4764H72.5449V43.7684H72.5474ZM82.0878 39.1119C82.0878 36.7256 83.4713 34.2609 86.5322 34.2609C87.9352 34.2609 88.9881 35.053 89.154 35.7473L89.3004 34.4849H91.1914V41.6354C91.1914 41.9195 91.3378 42.2513 91.9808 42.2415V43.8357L91.494 43.8945C90.2362 43.9728 89.204 43.2394 89.1552 42.3493V42.3297C88.8917 43.1904 87.7718 44.0022 86.5334 44.0022C83.4639 44.0022 82.089 41.3612 82.089 39.1119H82.0878ZM89.1052 39.396V38.6724C89.1052 37.1076 88.0328 36.2468 86.7274 36.2468C85.0609 36.2468 84.3106 37.792 84.3106 39.1034C84.3106 40.4147 84.8364 41.9795 86.7274 41.9795C88.2768 41.9893 89.1052 40.8249 89.1052 39.3972V39.396ZM93.74 34.4751V43.7671H95.8933V38.4655C95.8933 36.9399 97.0926 36.2848 98.0856 36.2848C98.9726 36.2848 99.6448 36.8223 99.6448 38.1434V43.7671H101.798V37.879C101.798 35.6004 100.687 34.2498 98.5724 34.2498C97.3536 34.2498 96.1361 34.9049 95.7749 36.1281L95.609 34.4751H93.7376H93.74ZM109.921 40.6375C109.53 41.8999 108.615 42.026 108.03 42.026C106.83 42.026 105.447 41.2436 105.447 39.1695C105.447 37.0954 106.85 36.2738 108.03 36.2738C108.643 36.2738 109.599 36.4207 109.901 37.6623L112.018 37.1162C111.595 35.3579 109.866 34.2976 108.041 34.2976C105.175 34.2976 103.334 36.4978 103.334 39.1487C103.334 41.7995 105.049 43.9802 108.031 43.9998C109.981 44.0181 111.396 42.9749 111.906 41.1518L109.922 40.6351L109.921 40.6375ZM121.728 41.3502C121.222 42.8856 119.915 44.0022 117.837 44.0022C114.933 44.0022 113.072 41.802 113.072 39.1315C113.072 36.3142 114.934 34.2804 117.692 34.2804C119.612 34.2902 122 35.4547 122 39.0238L121.98 39.6397H115.269C115.211 40.989 116.357 42.1436 117.819 42.1436C118.569 42.1436 119.447 41.9183 119.769 40.8432L121.728 41.3502ZM115.357 38.1043L119.782 38.0994C119.782 36.8958 118.852 36.0301 117.742 36.0301C116.484 36.0301 115.474 36.9594 115.357 38.1043ZM69.4779 33.0377C70.1403 33.0377 70.7064 32.4904 70.7064 31.8243C70.7064 31.1582 70.1415 30.6109 69.4779 30.6109C68.8349 30.6109 68.2688 31.1582 68.2688 31.8243C68.2688 32.4904 68.8337 33.0377 69.4779 33.0377ZM35.8132 34.1825C33.0352 34.1825 31.0771 36.4023 31.0771 39.0923C31.0771 41.7824 33.0072 44.0022 35.8327 44.0022C38.6399 44.0022 40.5687 41.7628 40.5687 39.0923C40.5687 36.4023 38.6387 34.1825 35.8132 34.1825ZM35.8327 42.0664C34.3028 42.0664 33.0548 40.7367 33.0548 39.0838C33.0548 37.4308 34.3028 36.1011 35.8327 36.1011C37.3626 36.1011 38.6106 37.4308 38.6106 39.0838C38.6106 40.7367 37.3626 42.0664 35.8327 42.0664ZM45.9294 44.0022C48.317 44.0022 49.9054 42.6921 49.9054 40.7453C49.9054 38.5646 47.907 38.31 46.2112 38.0945C44.9729 37.928 43.8823 37.7614 43.8823 36.8517C43.8823 36.2162 44.4276 35.7559 45.5683 35.7559C46.7676 35.7559 47.4105 36.2738 47.674 37.1933L49.7309 36.6656C49.3503 35.1008 48.0351 33.9658 45.6574 33.9658C43.2503 33.9658 41.7009 35.1204 41.7009 37.066C41.7009 39.2662 43.6797 39.5601 45.4048 39.8245C46.6724 40.0204 47.7045 40.1772 47.7045 41.0477C47.7045 41.742 47.0652 42.1901 45.9733 42.1901C44.8326 42.1901 43.953 41.6844 43.6602 40.6375L41.5838 41.1751C42.0998 42.9456 43.7956 44.0022 45.9306 44.0022H45.9294Z" fill="#C0C0C0"/>
</g>
<defs>
<clipPath id="clip0_9831_3444">
<rect width="122" height="18" fill="white" transform="translate(0 28.5)"/>
</clipPath>
</defs>
</svg>
