<svg width="149" height="75" viewBox="0 0 149 75" fill="none" xmlns="http://www.w3.org/2000/svg">
<g clip-path="url(#clip0_9831_3456)">
<path d="M58.2136 35.66C58.0821 34.4538 57.4224 33.9033 56.0885 33.9033C54.9515 33.9033 54.2448 34.436 54.2448 35.2876C54.2448 35.9983 54.6878 36.4241 55.5937 36.6006L57.5698 36.973C59.6781 37.3616 60.8151 38.5678 60.8151 40.4151C60.8151 42.7384 59.0677 44.228 56.3013 44.228C53.3707 44.228 51.6918 42.702 51.6424 40.0225H53.981C54.1292 41.5662 54.836 42.2244 56.4009 42.2244C57.604 42.2244 58.4598 41.5484 58.4598 40.6094C58.4598 39.8646 57.9977 39.4032 57.1084 39.2251L55.3157 38.8713C53.0249 38.4099 51.9691 37.3438 51.9691 35.447C51.9691 33.2832 53.5842 31.8997 56.2192 31.8997C58.8048 31.8997 60.4024 33.3002 60.4661 35.6591L58.2136 35.66ZM67.4038 32.149C69.8061 32.149 71.1726 33.25 71.1726 35.1637C71.1726 36.2112 70.7129 36.9908 69.6428 37.5947C71.0085 38.1436 71.5869 39.068 71.5869 40.5932C71.5869 42.668 70.0698 43.981 67.6667 43.981H62.4955V32.149H67.4038ZM67.0723 36.8848C68.242 36.8848 68.9185 36.3885 68.9185 35.5539C68.9185 34.597 68.3073 34.1518 67.0396 34.1518H64.8007V36.8848H67.0723ZM67.1711 41.9767C68.5384 41.9767 69.2141 41.461 69.2141 40.3981C69.2141 39.281 68.5543 38.7815 67.0564 38.7815H64.8015V41.9767H67.1711ZM78.2401 32.149C80.6425 32.149 82.009 33.25 82.009 35.1637C82.009 36.2112 81.5492 36.9908 80.4791 37.5947C81.8448 38.1436 82.4233 39.068 82.4233 40.5932C82.4233 42.668 80.907 43.981 78.5031 43.981H73.2809V32.149H78.2401ZM77.9087 36.8848C79.0784 36.8848 79.754 36.3885 79.754 35.5539C79.754 34.597 79.1437 34.1518 77.876 34.1518H75.5892V36.8848H77.9087ZM78.0075 41.9767C79.374 41.9767 80.0505 41.461 80.0505 40.3981C80.0505 39.281 79.3907 38.7815 77.8911 38.7815H75.5884V41.9767H78.0075ZM96.3799 39.8112C96.2165 42.5255 94.3839 44.228 91.6342 44.228C88.5554 44.228 86.5268 41.7994 86.5268 38.0918C86.5268 34.4003 88.6064 31.9013 91.682 31.9013C94.3194 31.9013 96.0859 33.4799 96.2811 35.9813H94.0079C93.7449 34.6335 92.976 33.9761 91.6995 33.9761C89.9649 33.9761 88.8351 35.5709 88.8351 38.074C88.8351 40.5406 89.949 42.1726 91.6509 42.1726C93.0589 42.1726 93.8421 41.4278 94.0907 39.8128H96.3807L96.3799 39.8112ZM100.276 34.2765V37.0612H105.121V39.1207H100.276V43.9802H97.983V32.149H105.595V34.2765H100.276ZM109.87 34.2765V37.0612H114.776V39.1207H109.87V43.9802H107.577V32.149H115.254V34.2765H109.87ZM123.036 34.2765V37.0612H127.992V39.1207H123.036V43.9802H120.727V32.149H128.469V34.2765H123.036ZM132.831 34.2765V37.0612H137.755V39.1207H132.831V43.9802H130.518V32.149H138.231V34.2765H132.831ZM146.161 35.6608C146.029 34.453 145.37 33.9041 144.029 33.9041C142.893 33.9041 142.183 34.436 142.183 35.2884C142.183 35.9983 142.629 36.4241 143.536 36.5998L145.52 36.9722C147.634 37.3624 148.772 38.5694 148.772 40.4159C148.772 42.7392 147.019 44.2288 144.245 44.2288C141.305 44.2288 139.623 42.7028 139.574 40.0233H141.917C142.064 41.567 142.777 42.2252 144.344 42.2252C145.552 42.2252 146.41 41.5492 146.41 40.6102C146.41 39.8654 145.948 39.404 145.057 39.2259L143.257 38.8721C140.96 38.4107 139.904 37.3446 139.904 35.4479C139.904 33.284 141.52 31.9005 144.163 31.9005C146.756 31.9005 148.36 33.301 148.426 35.66H146.163L146.161 35.6608Z" fill="#C0C0C0"/>
<path d="M0 29H47.1964V45.6786H0V29Z" fill="#C0C0C0"/>
<path d="M28.0359 42.7781H31.0239L27.0025 38.5985H31.9944V42.7781H34.3529V38.5985H39.3464L35.3226 42.7781H38.3121L43.4331 37.3478L38.3129 31.8997H35.3234L39.3472 36.0971H34.3545V31.9005H31.996V36.0971H27.0025L31.0239 31.9005H28.0359L22.9125 37.3486L28.0359 42.7781Z" fill="white"/>
</g>
<defs>
<clipPath id="clip0_9831_3456">
<rect width="149" height="17" fill="white" transform="translate(0 29)"/>
</clipPath>
</defs>
</svg>
