<svg width="82" height="75" viewBox="0 0 82 75" fill="none" xmlns="http://www.w3.org/2000/svg">
<g clip-path="url(#clip0_9831_3475)">
<path d="M81.5352 49.8713C81.5755 49.8701 81.6279 49.881 81.6658 49.8677C81.6963 49.8567 81.6902 49.8483 81.7182 49.8313C81.7341 49.8228 81.7805 49.8058 81.7927 49.7961C81.8695 49.7354 81.7976 49.705 81.7524 49.6553C81.6816 49.5788 81.7475 49.5363 81.7756 49.4598C81.8024 49.3846 81.7695 49.347 81.7268 49.2887C81.6743 49.2171 81.6755 49.1637 81.6743 49.0799C81.6731 49.012 81.6719 48.9986 81.6108 48.9513C81.5437 48.8991 81.4376 48.8651 81.473 48.7644C81.5145 48.6454 81.7414 48.5956 81.6511 48.4561C81.6194 48.4063 81.5547 48.3881 81.523 48.3395C81.4717 48.2606 81.5376 48.2 81.584 48.1381C81.6389 48.0652 81.6975 47.9099 81.6487 47.8249C81.6121 47.7606 81.5645 47.7642 81.5596 47.6805C81.5559 47.604 81.5486 47.5348 81.5852 47.4656C81.6645 47.3175 81.5925 47.2714 81.512 47.1464C81.4095 46.9898 81.5987 46.9279 81.7146 46.86C81.7841 46.8187 81.8268 46.7677 81.8586 46.6925C81.894 46.6099 81.8634 46.5602 81.839 46.4788C81.811 46.3854 81.6999 46.281 81.7036 46.1851C81.7073 46.0686 81.9379 46.0164 81.894 45.9084C81.8683 45.8477 81.5901 45.793 81.6743 45.685C81.7292 45.6134 81.9574 45.6425 81.9232 45.5017C81.9147 45.4678 81.8634 45.4544 81.8549 45.4241C81.8427 45.3792 81.8586 45.3998 81.883 45.3634C81.933 45.2918 81.9708 45.2444 81.9623 45.1522C81.9562 45.0806 81.9428 45.0005 81.9135 44.9349C81.8805 44.8597 81.8952 44.8645 81.9257 44.7929C81.955 44.7237 81.9147 44.6691 81.9086 44.5987C81.9025 44.5295 81.9293 44.4761 81.944 44.4118C81.9586 44.3462 81.9464 44.2989 81.9306 44.2346C81.9147 44.1702 81.911 44.0816 81.872 44.027C81.8415 43.9833 81.7805 43.9675 81.7548 43.919C81.7329 43.8789 81.7146 43.7551 81.7365 43.7151C81.7658 43.6617 81.8549 43.6629 81.8988 43.6265C81.9635 43.5706 81.9342 43.5099 81.911 43.442C81.8891 43.3764 81.8647 43.3024 81.8525 43.2344C81.8403 43.1652 81.8695 43.1143 81.8744 43.0463C81.8781 42.9892 81.8561 42.9371 81.8598 42.8812C81.8634 42.8278 81.8903 42.7793 81.8842 42.7234C81.8756 42.6457 81.8317 42.5729 81.822 42.4952C81.811 42.4091 81.8671 42.3909 81.8818 42.312C81.894 42.244 81.8512 42.1627 81.8403 42.0935C81.8293 42.0158 81.8293 41.9381 81.8293 41.8592C81.8281 41.7888 81.8317 41.716 81.822 41.6468C81.811 41.5691 81.778 41.4999 81.7841 41.4198C81.7878 41.3616 81.7878 41.296 81.7939 41.2378C81.8 41.1759 81.8561 41.137 81.8634 41.0776C81.8781 40.9695 81.7634 40.8202 81.8293 40.7231C81.8659 40.6697 81.9513 40.6819 81.9855 40.6345C82.027 40.5763 81.9745 40.5326 81.9464 40.4852C81.9086 40.4197 81.9086 40.3602 81.9037 40.2862C81.8976 40.1915 81.8695 40.1126 81.8476 40.0216C81.8244 39.9257 81.7548 39.7752 81.7976 39.6805C81.8244 39.6186 81.9013 39.6016 81.9281 39.5434C81.9684 39.456 81.8634 39.4111 81.8512 39.3322C81.8403 39.2545 81.9001 39.2193 81.9196 39.1586C81.9367 39.1052 81.9501 39.1331 81.9062 39.093C81.8769 39.0663 81.8268 39.0688 81.8012 39.0384C81.728 38.9535 81.8378 38.9401 81.8842 38.8903C81.9403 38.8309 81.9147 38.7787 81.8622 38.7216C81.8293 38.6852 81.7597 38.6609 81.778 38.6003C81.7866 38.5699 81.822 38.5711 81.8366 38.5505C81.8756 38.4959 81.8586 38.5371 81.839 38.4947C81.822 38.457 81.7646 38.4315 81.7378 38.4C81.6792 38.3308 81.7622 38.2628 81.7976 38.207C81.8293 38.156 81.8671 38.0917 81.8659 38.031C81.8634 37.957 81.8232 37.9205 81.861 37.8477C81.8952 37.7822 82.0184 37.7154 81.9391 37.6353C81.8939 37.5892 81.7585 37.6135 81.7585 37.5236C81.7585 37.4496 81.983 37.3246 81.8293 37.242C81.7609 37.2056 81.7195 37.2396 81.7292 37.128C81.7304 37.1085 81.7756 36.9483 81.7963 36.952C81.5328 36.952 81.2692 36.952 81.0056 36.952C80.8775 36.952 80.7506 36.952 80.6224 36.952C80.5321 36.952 80.4418 36.952 80.3528 36.952C80.3149 36.952 80.2515 36.9641 80.2149 36.952C80.0306 36.8888 80.2246 36.7019 80.2442 36.6072C80.2588 36.5332 80.2051 36.4616 80.2234 36.3863C80.232 36.3499 80.2527 36.3329 80.2551 36.2929C80.2576 36.2553 80.249 36.1776 80.2417 36.1424C80.2259 36.0659 80.1514 36.0562 80.1209 35.9919C80.0941 35.9348 80.1502 35.8632 80.1648 35.8037C80.177 35.7552 80.2185 35.6544 80.2149 35.6071C80.21 35.5403 80.1234 35.5318 80.0904 35.4845C80.0294 35.3995 80.1453 35.2539 80.1758 35.1689C80.2344 35.0063 80.2234 34.897 80.2039 34.7308C80.1941 34.6507 80.2234 34.5827 80.2344 34.5038C80.2442 34.4346 80.2429 34.3654 80.2417 34.2962C80.2393 34.2088 80.2429 34.1166 80.2295 34.0304C80.2173 33.9467 80.1673 33.8799 80.149 33.7998C80.1331 33.733 80.16 33.6772 80.1722 33.6129C80.1856 33.5413 80.1844 33.4709 80.2039 33.4005C80.2295 33.3094 80.2344 33.2633 80.2063 33.1723C80.1856 33.1043 80.1734 33.0376 80.1612 32.9672C80.1356 32.8239 80.1868 32.7256 80.2198 32.5872C80.2564 32.4343 80.1343 32.3372 80.1319 32.1928C80.1307 32.1394 80.149 32.0884 80.1453 32.0338C80.1417 31.9804 80.1221 31.9294 80.1282 31.8748C80.1478 31.7012 80.2478 31.5446 80.2576 31.3662C80.2661 31.1938 80.249 31.0203 80.2405 30.8491C80.2344 30.7047 80.1941 30.5675 80.1844 30.4231C80.1795 30.3491 80.1795 30.2738 80.1685 30.1998C80.1575 30.1294 80.1258 30.0577 80.1282 29.9861C80.1319 29.9024 80.1978 29.8696 80.2234 29.7968C80.2454 29.7325 80.2088 29.6669 80.1966 29.6038C80.1819 29.531 80.1832 29.4545 80.1648 29.3829C80.1502 29.3222 80.1246 29.2688 80.1185 29.2057C80.1112 29.1231 80.1197 29.0358 80.1173 28.952C80.116 28.8646 80.1075 28.7699 80.1465 28.6898C80.1831 28.6158 80.2222 28.6037 80.2112 28.5211C80.2002 28.4459 80.1807 28.3779 80.1819 28.3002C80.1832 28.1655 80.2405 28.0356 80.2478 27.8985C80.2551 27.7516 80.2649 27.5902 80.2222 27.4481C80.1758 27.2964 80.232 27.1738 80.2795 27.0258C80.3235 26.891 80.2771 26.7988 80.2564 26.664C80.2454 26.5912 80.2393 26.5257 80.2112 26.4565C80.1966 26.4201 80.1734 26.3849 80.1612 26.3473C80.138 26.2732 80.1612 26.2793 80.1978 26.2162C80.2246 26.17 80.2576 26.0936 80.2527 26.039C80.2478 25.9843 80.2137 25.9698 80.1893 25.9261C80.1234 25.8083 80.1465 25.6518 80.1819 25.5304C80.21 25.4321 80.2307 25.3338 80.2393 25.2318C80.2405 25.2148 80.2551 25.1444 80.2381 25.1298C80.2124 25.108 80.1026 25.1323 80.0684 25.1335C79.7756 25.1468 79.4815 25.159 79.1886 25.1711C77.9537 25.2185 76.7188 25.2488 75.4827 25.2682C73.2045 25.3046 70.9251 25.3083 68.6456 25.2913C67.5547 25.2828 66.4638 25.267 65.3729 25.2488C62.7335 25.2063 60.0928 25.1954 57.4534 25.1735C55.3814 25.1565 53.3094 25.1432 51.2375 25.1323C49.9159 25.1262 48.5932 25.1201 47.2716 25.1177C46.6713 25.1165 46.0697 25.1153 45.4693 25.1165C44.9299 25.1177 44.3906 25.1408 43.8512 25.1517C42.3698 25.1833 40.8872 25.2063 39.4058 25.2221C37.2423 25.2452 35.08 25.2537 32.9165 25.2439C31.5059 25.2379 30.0953 25.21 28.6847 25.1845C26.2881 25.1408 23.8915 25.1007 21.4949 25.0667C19.911 25.0449 18.3271 25.0242 16.7433 25.0121C15.8146 25.0048 14.8872 24.9988 13.9586 25C13.5157 25.0012 13.0727 25.0024 12.6298 25.0109C12.4968 25.0133 12.3625 25.017 12.2295 25.023C10.5993 25.1056 8.96534 25.1408 7.33263 25.1723C5.58157 25.2051 3.8305 25.2257 2.07821 25.2318C1.99767 25.2318 1.91836 25.233 1.83782 25.233C1.81097 25.233 1.74996 25.2209 1.72556 25.233C1.68895 25.25 1.69627 25.2804 1.69871 25.3192C1.70237 25.3738 1.72068 25.4248 1.73288 25.477C1.74996 25.5522 1.74142 25.6275 1.73166 25.7027C1.7219 25.7865 1.70847 25.8702 1.68529 25.9516C1.66698 26.0159 1.62184 26.0717 1.60597 26.1361C1.57058 26.289 1.75484 26.3521 1.75606 26.4893C1.75606 26.5669 1.55228 26.8218 1.76216 26.8061C1.82684 26.8012 1.89273 26.749 1.93666 26.834C1.97327 26.9044 1.90615 26.9869 1.86955 27.0415C1.84392 27.0804 1.81952 27.118 1.78413 27.1483C1.74142 27.1872 1.68895 27.2054 1.66088 27.26C1.56936 27.4336 1.75972 27.5295 1.79023 27.6812C1.80121 27.7346 1.78047 27.7844 1.77925 27.8378C1.77803 27.9009 1.80365 27.947 1.83294 28.0028C1.88785 28.1096 1.92568 28.2019 1.79389 28.2614C1.67797 28.3136 1.5718 28.3755 1.57058 28.5211C1.57058 28.583 1.60597 28.6316 1.61329 28.6898C1.62062 28.7505 1.59133 28.7991 1.63404 28.8537C1.6621 28.8889 1.73288 28.901 1.73532 28.9532C1.73898 29.0188 1.63404 29.0285 1.59377 29.0564C1.52543 29.1049 1.51567 29.179 1.49249 29.253C1.4632 29.3489 1.4632 29.378 1.52788 29.4496C1.5718 29.4994 1.60353 29.531 1.59743 29.6002C1.59133 29.6645 1.57425 29.724 1.57302 29.7895C1.5718 29.8635 1.57913 29.9388 1.57547 30.0141C1.57302 30.0869 1.54496 30.1451 1.52788 30.2143C1.51445 30.2714 1.51323 30.3296 1.49615 30.3867C1.4754 30.4559 1.44612 30.5226 1.43148 30.5942C1.41805 30.6622 1.40097 30.7545 1.41927 30.8224C1.43514 30.8831 1.48517 30.928 1.50713 30.9887C1.52177 31.0312 1.54374 31.0822 1.54496 31.1271C1.54618 31.1866 1.50957 31.2375 1.51201 31.2982C1.51933 31.416 1.64746 31.5009 1.59865 31.6259C1.55716 31.7315 1.44978 31.8602 1.48273 31.9816C1.49859 32.0423 1.54008 32.0896 1.57547 32.1394C1.62306 32.2061 1.62061 32.2304 1.58523 32.302C1.56204 32.3493 1.5413 32.3518 1.5657 32.4003C1.58035 32.4282 1.63404 32.4549 1.65722 32.4768C1.71335 32.529 1.74142 32.5739 1.69749 32.6455C1.66576 32.6953 1.60597 32.7159 1.61207 32.7851C1.61939 32.8652 1.69383 32.8858 1.66943 32.9781C1.65478 33.0327 1.63526 33.1116 1.60597 33.1589C1.58889 33.1881 1.49615 33.2427 1.50103 33.2779C1.50835 33.3276 1.61451 33.3082 1.58523 33.3835C1.56082 33.449 1.45466 33.4369 1.46442 33.5255C1.47052 33.5753 1.53886 33.6056 1.5413 33.6554C1.54252 33.7051 1.49981 33.733 1.45954 33.7525C1.41683 33.7731 1.37046 33.767 1.36314 33.8241C1.3546 33.8969 1.4571 33.9479 1.50225 33.9794C1.56448 34.0207 1.64502 34.0644 1.58523 34.1469C1.54008 34.2101 1.43758 34.1931 1.40341 34.2671C1.3363 34.4164 1.54252 34.4297 1.62794 34.4176C1.75484 34.3982 1.92812 34.4419 1.80731 34.5887C1.75972 34.6458 1.69383 34.6907 1.66332 34.7599C1.63404 34.8242 1.64868 34.897 1.62672 34.9626C1.61207 35.0063 1.55228 35.0415 1.55228 35.0876C1.55228 35.141 1.62061 35.1689 1.64502 35.2114C1.67431 35.2648 1.65966 35.3231 1.67919 35.3801C1.69017 35.4105 1.71213 35.436 1.71702 35.4699C1.72434 35.5258 1.69383 35.5367 1.67309 35.5804C1.60109 35.7382 1.85124 35.703 1.87077 35.8207C1.87565 35.8511 1.85124 35.8753 1.84758 35.9033C1.8427 35.9409 1.85734 35.9506 1.86711 35.9834C1.88419 36.0453 1.89151 36.055 1.81708 36.0659C1.68041 36.0853 1.53154 36.0683 1.39243 36.0671C1.19475 36.0647 0.998284 36.0635 0.800603 36.0623C0.670035 36.061 0.539468 36.0562 0.410121 36.061C0.388156 36.0623 0.306399 36.055 0.289315 36.0695C0.269791 36.0865 0.285655 36.095 0.277113 36.1169C0.241725 36.1982 0.260029 36.2759 0.258809 36.3609C0.258809 36.4276 0.202677 36.4919 0.233184 36.5478C0.267351 36.6085 0.368632 36.6048 0.363751 36.6861C0.362531 36.7116 0.319822 36.7662 0.31006 36.793C0.297857 36.8282 0.290536 36.8573 0.289315 36.8937C0.288095 36.9544 0.325923 37.026 0.277113 37.0745C0.238065 37.1134 0.16973 37.0988 0.140444 37.1547C0.109938 37.2105 0.153867 37.2809 0.155087 37.3391C0.156307 37.4047 0.11848 37.463 0.117259 37.5261C0.116039 37.6074 0.184373 37.6523 0.230743 37.7106C0.271012 37.7615 0.290536 37.8271 0.244166 37.8841C0.2161 37.9181 0.16851 37.923 0.138004 37.9509C0.0818718 38.0055 0.116039 38.0492 0.147766 38.1026C0.161189 38.1257 0.181933 38.1414 0.189254 38.1694C0.201457 38.2203 0.173391 38.275 0.183153 38.3284C0.194135 38.3939 0.231963 38.4449 0.285655 38.4813C0.336905 38.5165 0.415002 38.5323 0.396698 38.6124C0.383275 38.6743 0.305179 38.7059 0.266131 38.7495C0.224642 38.7957 0.172171 38.8661 0.174611 38.9328C0.179492 39.0615 0.306399 39.1003 0.36009 39.1938C0.393037 39.2508 0.36009 39.3249 0.347888 39.3856C0.330804 39.4693 0.285655 39.5106 0.252708 39.5834C0.222201 39.6514 0.26125 39.7084 0.275893 39.7752C0.288095 39.8334 0.288095 39.8929 0.278333 39.9524C0.268571 40.0058 0.266131 40.0883 0.244166 40.1381C0.21488 40.2073 0.136783 40.2316 0.0989554 40.2971C0.0403831 40.4003 0.00133494 40.5629 0.0342819 40.6782C0.053806 40.745 0.0830921 40.7887 0.0794313 40.8615C0.0757706 40.9161 0.0708895 40.9343 0.0928542 40.9829C0.131902 41.0678 0.150206 41.1188 0.153867 41.2159C0.157528 41.3045 0.157528 41.3907 0.153867 41.4793C0.150206 41.5594 0.151426 41.6383 0.158748 41.7184C0.164849 41.7864 0.195356 41.8641 0.178272 41.9308C0.164849 41.983 0.11848 42.017 0.113599 42.0741C0.109938 42.1153 0.129462 42.1566 0.117259 42.1979C0.0806516 42.3326 -0.0584576 42.3326 0.0135375 42.4965C0.0782111 42.6445 0.11848 42.7671 0.0916339 42.9334C0.0782111 43.0159 0.053806 43.0621 0.0916339 43.141C0.12092 43.2017 0.148986 43.249 0.152647 43.3206C0.158748 43.4699 0.0196388 43.5621 0.0318413 43.709C0.0367224 43.7758 0.0525857 43.8304 0.0464844 43.8984C0.0379426 43.9967 0.068449 44.0695 0.0843124 44.1642C0.111158 44.3268 0.0794313 44.4955 0.102616 44.6594C0.112378 44.7334 0.148986 44.8002 0.175832 44.8694C0.206338 44.9495 0.223422 45.0344 0.26491 45.1085C0.329584 45.2226 0.436966 45.3306 0.457711 45.4653C0.474794 45.5782 0.380835 45.6887 0.423544 45.8015C0.468693 45.9193 0.651732 45.9169 0.651732 46.0589C0.651732 46.1353 0.610243 46.2106 0.611463 46.2895C0.612683 46.3623 0.628547 46.4376 0.662714 46.5019C0.69444 46.5614 0.69444 46.5553 0.754233 46.5565C0.868937 46.5602 0.984861 46.5565 1.10079 46.5565C1.45954 46.5565 1.81952 46.5553 2.17827 46.5553C2.50164 46.5553 2.82623 46.5553 3.1496 46.5553C3.17278 46.5553 3.29481 46.5383 3.31555 46.5565C3.33752 46.5759 3.30335 46.6694 3.30457 46.7009C3.30823 46.8029 3.32165 46.8952 3.30945 46.9983C3.30213 47.059 3.28504 47.1088 3.2582 47.1646C3.23379 47.2168 3.18376 47.2593 3.16058 47.3103C3.13495 47.3685 3.16546 47.394 3.19353 47.4426C3.24356 47.53 3.22037 47.5749 3.20329 47.6647C3.19231 47.7266 3.22159 47.7594 3.23135 47.8176C3.24234 47.8807 3.21549 47.9123 3.17888 47.9596C3.08126 48.0895 3.14105 48.2109 3.16668 48.3541C3.17766 48.4172 3.17156 48.4815 3.1801 48.5459C3.1862 48.592 3.20329 48.6345 3.20573 48.6806C3.20817 48.7522 3.174 48.8263 3.18742 48.8979C3.19475 48.9379 3.20817 48.9391 3.22647 48.9756C3.25454 49.0326 3.24478 49.0617 3.23379 49.12C3.21183 49.2426 3.22769 49.3712 3.26674 49.4878C3.30213 49.5934 3.22525 49.6358 3.22525 49.7354C3.22525 49.7851 3.25698 49.8701 3.29481 49.9029C3.33263 49.9344 3.36802 49.9259 3.42171 49.9259C3.54618 49.9247 3.67065 49.9235 3.79633 49.9223C4.05015 49.9199 4.30396 49.9174 4.55777 49.915C5.1496 49.9089 5.74142 49.9004 6.33324 49.8919C8.29664 49.8604 10.2612 49.8252 12.2222 49.7257C12.343 49.7196 12.4638 49.716 12.5846 49.7135C13.0056 49.705 13.4266 49.7038 13.8476 49.7026C14.7445 49.7002 15.6401 49.7062 16.537 49.7123C18.0794 49.7244 19.6218 49.7427 21.1642 49.7645C23.5096 49.7973 25.8561 49.8361 28.2015 49.8786C29.7475 49.9065 31.2924 49.9381 32.8396 49.9332C35.0996 49.9271 37.3583 49.9126 39.6182 49.8919C41.5694 49.8737 43.5206 49.8215 45.4717 49.8191C46.005 49.8191 46.5395 49.8191 47.0727 49.8203C48.2588 49.8228 49.4461 49.8276 50.6322 49.8337C52.5395 49.8434 54.4479 49.8555 56.3552 49.8701C59.0202 49.8907 61.6853 49.9138 64.3503 49.9405C65.5633 49.9526 66.775 49.9769 67.9879 49.989C70.3088 50.0109 72.6298 50.0073 74.9507 49.9672C76.21 49.9454 77.4705 49.9126 78.7298 49.8604C79.6694 49.8191 80.5956 49.7997 81.5352 49.8713Z" fill="#C0C0C0"/>
<path d="M57.9453 42.812C58.2394 42.5826 58.5359 42.3557 58.8336 42.1275C61.5743 40.0289 64.4078 37.8574 64.4078 34.6846C64.4078 32.1988 62.6042 30.4632 60.0222 30.4632C57.7537 30.4632 55.3132 31.9731 55.3132 35.2879C55.3132 35.4481 55.3242 35.6253 55.34 35.737L57.1887 35.0269C57.1887 33.2038 58.553 32.2498 59.9001 32.2498C61.2095 32.2498 62.531 33.0776 62.531 34.9262C62.531 37.3209 60.0734 39.195 56.6726 41.79C56.1869 42.1602 55.6829 42.545 55.1619 42.9492L55.1314 42.9723V44.7383H64.7921V42.8108H57.9453V42.812Z" fill="white"/>
<path d="M11.9001 36.6133L11.733 36.5466C10.2113 35.9373 9.13382 35.4008 9.13382 34.045C9.13382 32.7098 10.2028 32.0119 11.2583 32.0119C12.11 32.0119 13.1899 32.4622 13.6109 33.4478L15.4023 32.756L15.3754 32.6892C14.6701 30.9462 12.8092 30.1658 11.279 30.1658C9.27415 30.1658 7.11551 31.4245 7.11551 34.1858C7.11551 36.8828 9.19239 37.7239 10.8617 38.3988L11.0667 38.4813C12.7714 39.1804 13.8892 39.7424 13.8892 41.1237C13.8892 42.5559 12.6799 43.1968 11.4816 43.1968C10.2967 43.1968 8.88245 42.5681 8.46512 40.8033L8.44681 40.7256L6.54687 41.4429C7.11917 43.6471 9.00935 45.0636 11.4011 45.0636C12.6042 45.0636 13.7232 44.6982 14.5542 44.0355C15.4926 43.2866 15.9892 42.2173 15.9892 40.9428C15.988 38.2349 13.8159 37.3731 11.9001 36.6133Z" fill="white"/>
<path d="M32.0136 34.1287C29.0508 34.1287 26.8995 36.4118 26.8995 39.5567C26.8995 42.7016 29.0496 44.9847 32.0136 44.9847C34.9764 44.9847 37.1277 42.7016 37.1277 39.5567C37.1265 36.4118 34.9764 34.1287 32.0136 34.1287ZM35.251 39.5567C35.251 41.9612 33.6329 43.2187 32.0344 43.2187C30.4163 43.2187 28.7775 41.9612 28.7775 39.5567C28.7775 37.446 30.1479 35.9142 32.0344 35.9142C33.8977 35.9142 35.251 37.446 35.251 39.5567Z" fill="white"/>
<path d="M44.9642 40.3408C44.9642 42.2488 43.5572 43.2793 42.2333 43.2793C41.2253 43.2793 40.1491 42.6822 40.1491 41.0047V34.3897H38.3126V41.0047C38.3126 43.9421 40.2284 44.9847 41.8696 44.9847C43.1899 44.9847 44.3529 44.356 44.9557 43.3315L45.3059 44.7431H46.8019V34.3897H44.9654V40.3408H44.9642Z" fill="white"/>
<path d="M51.5853 31.4378L49.7488 32.1418V34.3897H48.01V36.055H49.7488V41.7281C49.7488 44.5611 51.3693 44.9847 52.3345 44.9847C52.7641 44.9847 53.207 44.9179 53.6903 44.7808L53.7476 44.765V42.9528L53.6256 43.0305C53.3425 43.2114 53.0106 43.3194 52.7385 43.3194C52.0051 43.3194 51.5841 42.7914 51.5841 41.8689V36.055H53.7476V34.3897H51.5841V31.4378H51.5853Z" fill="white"/>
<path d="M70.2626 30.6841L64.8312 39.8723V41.279H71.4218V44.7383H73.2985V41.279H75.7256V39.3929H73.2985V35.192L71.4218 35.913V39.3929H67.2107L72.3467 30.6841H70.2626Z" fill="white"/>
<path d="M24.6982 41.6019C24.1625 42.5911 23.1607 43.1992 22.0356 43.1992C20.4749 43.1992 18.8995 42.0668 18.8995 39.5373C18.8995 37.7931 19.8428 35.9154 21.9136 35.9154C22.9459 35.9154 23.8647 36.4652 24.3504 37.361L26.1003 36.6946L26.0685 36.6279C25.3413 35.0864 23.7488 34.1287 21.9123 34.1287C20.6189 34.1287 19.4218 34.607 18.5408 35.476C17.5463 36.4567 17.0216 37.8671 17.0216 39.5567C17.0216 43.2866 19.578 44.9847 21.9526 44.9847C23.7989 44.9847 25.4352 43.9845 26.3284 42.3083L26.3638 42.2428L26.3492 42.2355L24.6982 41.6019Z" fill="white"/>
</g>
<defs>
<clipPath id="clip0_9831_3475">
<rect width="82" height="25" fill="white" transform="translate(0 25)"/>
</clipPath>
</defs>
</svg>
