<svg width="91" height="75" viewBox="0 0 91 75" fill="none" xmlns="http://www.w3.org/2000/svg">
<g clip-path="url(#clip0_9837_3686)">
<path d="M37.418 52.9974C36.7565 52.9974 36.0758 52.9241 35.5386 52.8132L35.5743 51.5426C36.1471 51.708 36.8634 51.8377 37.5614 51.8377C38.8506 51.8377 39.7459 51.2475 39.7459 50.2898C39.7459 48.0973 35.4135 49.4609 35.4135 46.2007C35.4135 44.6717 36.6304 43.5119 38.8862 43.5119C39.4417 43.5119 40.0684 43.604 40.623 43.714L40.5874 44.9113C39.9963 44.7093 39.3522 44.5993 38.7428 44.5993C37.4363 44.5993 36.7922 45.151 36.7922 46.0541C36.7922 48.2458 41.1429 46.993 41.1429 50.1056C41.1429 51.7268 39.7459 52.9974 37.418 52.9974ZM29.7544 52.9974C29.092 52.9974 28.4114 52.9241 27.8742 52.8132L27.9098 51.5426C28.4826 51.708 29.1998 51.8377 29.8978 51.8377C31.187 51.8377 32.0823 51.2475 32.0823 50.2898C32.0823 48.0973 27.749 49.4609 27.749 46.2007C27.749 44.6717 28.9659 43.5119 31.2226 43.5119C31.7781 43.5119 32.4049 43.604 32.9594 43.714L32.9229 44.9113C32.3327 44.7093 31.6886 44.5993 31.0792 44.5993C29.7727 44.5993 29.1276 45.151 29.1276 46.0541C29.1276 48.2458 33.4784 46.993 33.4784 50.1056C33.4784 51.7268 32.0824 52.9974 29.7544 52.9974ZM25.1561 52.832H23.8313V44.7826C23.401 44.7093 22.7925 44.636 22.2735 44.5993V43.807C23.0611 43.6962 24.2433 43.6407 25.1561 43.6774V52.832ZM18.5295 52.832H16.9717L15.0211 46.9197C14.8237 46.3492 14.6794 45.7778 14.5195 45.1698H14.5012C14.3222 45.9611 14.0892 46.6988 13.8562 47.4723L12.2272 52.832H10.6694L7.91207 43.6774H9.41592L10.938 49.1292C11.171 49.9402 11.4031 50.7503 11.5465 51.3763H11.5639C11.7439 50.6395 11.9403 49.866 12.1733 49.1292L13.8745 43.6774H15.3957L17.1152 49.1104C17.4733 50.2532 17.6168 50.787 17.7593 51.3951H17.7958C17.9566 50.6761 18.1357 50.069 18.4043 49.148L19.9977 43.6774H21.4303L18.5295 52.832ZM2.93735 52.9974C2.27405 52.9974 1.59431 52.9241 1.05709 52.8132L1.09268 51.5426C1.66645 51.708 2.38183 51.8377 3.07985 51.8377C4.36899 51.8377 5.26435 51.2475 5.26435 50.2898C5.26435 48.0973 0.931885 49.4609 0.931885 46.2007C0.931885 44.6717 2.14885 43.5119 4.40553 43.5119C4.96011 43.5119 5.58687 43.604 6.14236 43.714L6.10676 44.9113C5.51564 44.7093 4.87061 44.5993 4.26213 44.5993C2.95471 44.5993 2.3106 45.151 2.3106 46.0541C2.3106 48.2458 6.66134 46.993 6.66134 50.1056C6.66134 51.7268 5.26439 52.9974 2.93735 52.9974Z" fill="#C0C0C0"/>
<path d="M87.562 53.0294C85.2697 53.0294 83.605 51.8687 83.605 48.6095C83.605 45.6989 85.055 43.5806 88.1175 43.5806C88.779 43.5806 89.4423 43.6727 90.0508 43.8569L89.8534 45.5692C89.3162 45.3671 88.7086 45.2196 88.0636 45.2196C86.4337 45.2196 85.6105 46.4535 85.6105 48.3877C85.6105 50.0633 86.2016 51.334 87.9741 51.334C88.6547 51.334 89.3884 51.1686 89.9073 50.8923L90.0681 52.5689C89.4779 52.8085 88.5469 53.0294 87.562 53.0294ZM81.5302 52.8818H79.6335V45.2572C79.2041 45.183 78.5956 45.1087 78.0757 45.072V43.8569C79.078 43.746 80.3671 43.6727 81.5302 43.7281V52.8818ZM80.5818 42.3654C79.9194 42.3654 79.3649 41.8128 79.3649 41.1314C79.3649 40.4491 79.9194 39.8965 80.5818 39.8965C81.2625 39.8965 81.818 40.4313 81.818 41.1314C81.818 41.8128 81.2625 42.3654 80.5818 42.3654ZM74.0128 45.3117C73.5294 45.2017 73.0644 45.1463 72.5985 45.1463C71.0763 45.1463 70.0375 46.1039 70.0375 48.5728C70.0375 50.4139 70.5921 51.4449 71.8109 51.4449C73.2252 51.4449 74.0128 49.7137 74.0128 48.148V45.3117ZM74.1023 52.8818C74.1023 52.4025 74.137 51.6845 74.2275 51.1686H74.1909C73.7076 52.2926 72.6697 53.066 71.291 53.066C69.1065 53.066 68.0147 51.4082 68.0147 48.7561C68.0147 45.6058 69.7872 43.5806 72.6697 43.5806C73.1 43.5806 73.5294 43.6181 74.0128 43.6539V40.9651C73.5834 40.8918 72.974 40.8185 72.455 40.7809V39.5657C73.4573 39.4548 74.7464 39.3806 75.9113 39.436V51.3528C76.3407 51.427 76.9492 51.5003 77.4681 51.537V52.7531C76.4659 52.863 75.1758 52.9373 74.1023 52.8818ZM62.8563 44.9987C61.7819 44.9987 61.0309 45.8088 60.8692 47.0437H64.6471C64.6836 45.791 63.9847 44.9987 62.8563 44.9987ZM66.51 48.4243H60.8335C60.7796 50.5427 61.6924 51.5003 63.4657 51.5003C64.3785 51.5003 65.3277 51.2795 66.0623 50.9111L66.2414 52.4768C65.346 52.863 64.2533 53.066 63.1615 53.066C60.3859 53.066 58.8638 51.5924 58.8638 48.3698C58.8638 45.6058 60.332 43.543 62.9285 43.543C65.4712 43.543 66.563 45.3295 66.563 47.5042C66.563 47.7618 66.5465 48.0747 66.51 48.4243ZM54.8721 52.8818V47.0437C54.8721 45.9009 54.6217 45.1829 53.6003 45.1829C52.4546 45.1829 51.308 46.4911 51.308 48.4986V52.8818H49.4113V47.025C49.4113 45.994 49.2139 45.1829 48.1395 45.1829C46.9216 45.1829 45.8472 46.5832 45.8472 48.4986V52.8818H43.9495V45.2572C43.5201 45.183 42.9107 45.1087 42.3918 45.072V43.8569C43.395 43.746 44.7015 43.6727 45.7759 43.7281C45.7759 44.2065 45.7394 44.9809 45.6498 45.5147L45.6681 45.5335C46.2053 44.3164 47.3154 43.543 48.695 43.543C50.4309 43.543 51.0037 44.7046 51.1472 45.5147C51.541 44.6303 52.5085 43.543 54.1375 43.543C55.8387 43.543 56.7871 44.4828 56.7871 46.5644V52.8818H54.8721Z" fill="#C0C0C0"/>
<path d="M42.4091 26.3811V21.934L23.6823 38.2236V42.6708L42.4091 26.3811Z" fill="#C0C0C0"/>
</g>
<defs>
<clipPath id="clip0_9837_3686">
<rect width="91" height="33" fill="white" transform="translate(0 21)"/>
</clipPath>
</defs>
</svg>
