<?xml version="1.0" encoding="UTF-8"?>
<svg id="logos" xmlns="http://www.w3.org/2000/svg" viewBox="0 0 800 400">
  <defs>
    <style>
      .cls-1 {
        fill: #fff;
      }
    </style>
  </defs>
  <g>
    <polygon class="cls-1" points="447.24 151.99 447.24 145.61 426.09 145.61 404.94 145.61 404.94 151.99 404.94 158.37 411.99 158.37 419.04 158.37 419.04 206.38 419.04 254.39 426.09 254.39 433.14 254.39 433.27 206.51 433.47 158.7 440.39 158.5 447.24 158.3 447.24 151.99"/>
    <polygon class="cls-1" points="278.02 145.61 278.02 200 278.02 254.39 295.82 254.39 313.61 254.39 313.61 248.01 313.61 241.7 303.07 241.5 292.46 241.3 292.26 222.97 292.12 204.7 301.86 204.7 311.6 204.7 311.6 198.32 311.6 192.01 302.06 191.81 292.46 191.61 292.26 174.95 292.12 158.37 302.87 158.37 313.61 158.37 313.61 151.99 313.61 145.61 295.82 145.61 278.02 145.61"/>
    <polygon class="cls-1" points="382.1 145.61 382.1 200 382.1 254.39 389.16 254.39 396.21 254.39 396.21 200 396.21 145.61 389.16 145.61 382.1 145.61"/>
    <path class="cls-1" d="M102.43,206.24l-1.81-2.35c-1.14-1.54-3.22-2.95-5.57-3.96-2.01-.81-3.69-1.68-3.69-1.88s1.61-1.14,3.49-2.08c6.11-2.95,6.24-3.22,6.45-20.21.2-11.95,0-15.51-.87-18.47-1.21-4.23-4.1-7.79-7.99-9.87-2.55-1.41-3.76-1.48-19-1.68l-16.32-.2v108.92l17.66-.2c17.39-.2,17.66-.2,20.95-1.88,2.62-1.41,3.69-2.48,5.24-5.37l1.88-3.63-.2-18.53-.2-18.6ZM71.87,174.82v-16.45h5.04c6.04,0,8.6,1.07,9.67,4.1.4,1.21.74,6.65.74,12.49,0,14.64-1.07,16.32-10.21,16.32h-5.24v-16.45ZM87.79,239.22c-1.14,1.54-5.04,2.35-11.01,2.42h-4.9v-36.93h5.71c10.74,0,11.08.6,11.08,19.27,0,10.34-.2,14.37-.87,15.24Z"/>
    <path class="cls-1" d="M249.82,145.61l-.07,25.99c0,14.37-.27,25.58-.47,25.05-.27-.54-3.76-12.22-7.86-25.85l-7.39-24.85-7.25-.2-7.19-.2v108.85h14.1v-35.46c0-19.94.27-34.92.6-34.38.34.54,3.96,11.62,8.06,24.64l7.45,23.64v21.56h14.1v-108.78h-14.1Z"/>
    <polygon class="cls-1" points="115.52 145.61 115.52 200 115.52 254.39 133.31 254.39 151.11 254.39 151.11 248.01 151.11 241.7 140.57 241.5 129.96 241.3 129.76 222.97 129.62 204.7 139.36 204.7 149.1 204.7 149.1 198.32 149.1 191.94 139.36 191.94 129.62 191.94 129.62 175.15 129.62 158.37 140.37 158.37 151.11 158.37 151.11 151.99 151.11 145.61 133.31 145.61 115.52 145.61"/>
    <polygon class="cls-1" points="643.32 145.61 643.32 200 643.32 254.39 650.7 254.39 658.09 254.39 658.09 200 658.09 145.61 650.7 145.61 643.32 145.61"/>
    <path class="cls-1" d="M672.19,199.46c0-.6,3.36-12.76,7.39-27.13,4.1-14.3,7.39-26.19,7.39-26.39s-2.95-.34-6.58-.34h-6.58l-7.66,27.46-7.59,27.46,9.07,26.79,9.07,26.73,7.39.2,7.39.2-9.6-26.99c-5.3-14.91-9.67-27.46-9.67-28Z"/>
    <polygon class="cls-1" points="458.32 235.93 450.8 235.72 443.21 235.52 443.21 244.99 443.21 254.39 450.93 254.39 458.72 254.39 458.52 245.12 458.32 235.93"/>
    <path class="cls-1" d="M737.86,201.07c-1.21-.87-6.71-4.1-12.29-7.05-5.51-3.02-10.61-6.11-11.21-6.85-1.07-1.21-1.21-2.95-1.21-13.16,0-6.45.27-12.29.67-12.96,1.61-2.95,10.01-3.36,12.49-.6,1.01,1.14,1.34,2.75,1.48,7.72l.27,6.31h14.84l-.4-8.39c-.34-6.98-.67-9.07-2.01-12.02-1.75-3.76-4.63-6.45-8.46-7.72-1.28-.4-6.58-.74-12.15-.74-9.54,0-10.07.07-13.43,1.81-2.82,1.48-3.96,2.69-5.64,5.57l-2.08,3.69-.2,16.52c-.13,10.54,0,17.53.47,19.27,1.01,3.69,3.36,5.57,15.24,12.22,5.51,3.09,10.88,6.45,11.89,7.52l1.88,1.88-.2,12.15c-.2,11.82-.27,12.15-1.81,13.43-1.14.94-2.62,1.28-5.57,1.28-3.29,0-4.23-.27-5.57-1.68-1.48-1.41-1.68-2.22-1.68-6.04v-4.36h-14.97l.34,6.65c.27,5.51.67,7.32,2.15,10.48,3.36,6.85,8.19,8.66,21.69,8.33,7.66-.27,9-.47,11.95-2.01,7.12-3.63,8.66-9.6,8.26-31.43-.27-15.31-.6-16.65-4.7-19.81Z"/>
    <path class="cls-1" d="M624.58,175.83h7.45l-.2-9.6c-.27-9.2-.34-9.67-2.35-13.23-1.68-2.89-2.82-4.1-5.64-5.57-3.42-1.75-3.83-1.81-14.03-1.81s-10.74.07-13.97,1.68c-3.89,1.95-6.51,5.44-7.59,9.87-.4,1.75-.67,18.94-.67,42.91,0,43.51.07,44.52,3.83,48.95.94,1.14,2.95,2.75,4.5,3.56,2.55,1.34,3.69,1.48,13.83,1.48s11.28-.13,13.83-1.48c5.84-3.16,8.33-8.53,8.33-18.13v-5.57h-14.77v4.57c0,6.38-1.07,7.52-7.39,7.52-8.06,0-7.39,3.56-7.39-41.03,0-35.25.07-38.14,1.21-39.48,2.15-2.69,9.6-2.69,12.29,0,1.07,1.07,1.28,2.22,1.28,8.33v7.05h7.45Z"/>
  </g>
  <path class="cls-1" d="M203.35,231.16l-4.77-21.56,3.02-2.95c5.04-4.83,5.37-6.78,5.1-30.62-.2-19.14-.27-20.14-1.68-22.76-1.88-3.49-4.83-6.04-8.13-6.98-1.41-.34-9.67-.67-18.73-.67h-16.32v108.78h14.77v-44.32h4.3c2.82,0,4.36.27,4.57.81.2.47,2.42,10.48,4.9,22.16l4.63,21.35h6.58c4.83,0,6.58-.2,6.58-.87,0-.4-2.15-10.54-4.83-22.36ZM181.93,197.99h-5.3v-39.62h5.3c10.61,0,10.81.4,10.81,19.81s-.2,19.81-10.81,19.81Z"/>
  <path class="cls-1" d="M370.62,251.84c-.34-1.34-2.55-11.48-5.04-22.5l-4.43-20.01,2.69-2.35c1.88-1.54,3.22-3.56,4.16-6.18,1.34-3.56,1.41-4.97,1.34-22.9,0-11.75-.34-20.28-.81-22.09-.94-3.89-5.24-8.46-8.93-9.47-1.61-.4-9.2-.74-18.94-.74h-16.32v108.78h14.77v-44.39l4.5.2,4.43.2,4.77,21.96,4.77,22.03h13.63l-.6-2.55ZM355.11,179.18c-.27,19.07.13,18.33-9.6,18.67l-6.38.27v-39.75h5.3c10.74,0,10.95.4,10.68,20.82Z"/>
  <path class="cls-1" d="M506.67,210.07c-.2-.6.67-1.61,2.08-2.55,1.61-1.01,3.02-2.89,4.16-5.37l1.81-3.83v-41.7l-1.75-3.29c-1.01-2.01-2.82-4.16-4.57-5.37l-2.89-2.01-17.73-.2-17.73-.2v108.85h14.1l.13-22.03.2-21.96h8.73l4.7,21.82,4.7,21.82,6.92.2c3.76.07,6.85,0,6.85-.2,0-.47-9.33-42.44-9.74-43.98ZM498.68,195.7c-1.48,1.75-1.95,1.88-8.06,2.15l-6.45.27v-39.89l6.45.27c6.11.27,6.58.4,8.06,2.15,1.61,1.81,1.61,1.95,1.61,17.53s0,15.71-1.61,17.53Z"/>
  <path class="cls-1" d="M575.36,196.98c-.2-38.48-.27-39.69-1.61-42.64-1.68-3.69-5.44-7.05-8.8-7.99-1.41-.4-8.06-.74-14.71-.74-12.09,0-12.22,0-15.78,1.88-3.02,1.61-3.96,2.48-5.64,5.84l-2.01,3.96-.2,41.23c-.2,46.4-.2,46.2,4.43,51.1,3.89,4.1,7.79,4.9,21.49,4.63,13.09-.27,16.05-1.14,19.47-5.84,3.42-4.7,3.63-7.66,3.36-51.44ZM551.25,240.96c-6.24,0-6.85-.13-8.33-1.68l-1.68-1.61v-37.6c0-20.68.2-38.07.4-38.68.27-.67,1.41-1.54,2.55-2.08,2.48-1.07,9.13-1.21,12.56-.27,1.54.4,2.69,1.28,3.16,2.42.6,1.21.81,12.09.81,38.81,0,44.65.94,40.69-9.47,40.69Z"/>
</svg>