<?xml version="1.0" encoding="UTF-8"?>
<svg id="logos" xmlns="http://www.w3.org/2000/svg" viewBox="0 0 800 400">
  <defs>
    <style>
      .cls-1 {
        fill: #fff;
      }
    </style>
  </defs>
  <path id="logo" class="cls-1" d="M558.12,172.22h0ZM640.57,132.63h-16.75v70.91h16.75v-70.91ZM565.08,172.22h47.42c.22-2.83.22-5.87.22-5.87,0-19.79-13.92-35.67-35.02-35.67s-36.98,14.57-36.98,37.41v.65c0,22.19,15.23,36.54,37.63,36.54,11.31.44,22.19-4.13,29.8-12.62l-10.22-9.79c-4.79,5.44-11.75,8.48-19.14,8.27-12.62,0-20.88-7.4-21.32-18.49,0,0-.22-4.35-.22-6.31s.44-5.66.44-5.66c.65-8.48,9.35-15.44,20.01-15.44,9.79,0,17.84,6.96,17.84,15.44h-30.45M162.01,189.19c-19.14,0-34.8-15.66-34.8-34.8s15.66-34.8,34.8-34.8c10.22,0,20.01,4.35,26.97,11.96l11.96-10.22c-9.79-11.31-23.93-17.62-38.72-17.62-28.71,0-51.99,21.54-51.99,50.68s23.28,50.68,51.99,50.68c15.01,0,29.15-6.53,38.94-17.84l-11.75-10.22c-6.96,7.83-16.97,12.4-27.41,12.18ZM230.31,105.44h-17.62v98.1h17.62v-98.1ZM410.86,106.31l-6.53,14.79c18.71,4.57,30.45,23.28,25.89,42.2-3.7,15.44-17.4,26.54-33.5,26.97-19.36-.44-34.8-16.31-34.37-35.67.22-15.66,11.09-29.37,26.1-33.28l-6.53-14.79c-21.97,6.09-37.2,26.1-36.98,48.94,0,28.71,23.06,50.68,51.77,50.68s51.99-21.97,51.99-50.68c.22-23.28-15.23-43.51-37.85-49.16h0ZM476.12,132.63h-16.97v98.1h16.97v-98.1ZM277.52,105.44v38.28h-39.81v15.88h39.81v43.94h17.4v-98.1h-17.4ZM498.74,130.89c-5.22-.22-10.66,1.09-15.23,3.7v15.88c3.7-2.83,8.27-4.13,13.05-4.13,11.96,1.09,20.66,11.75,19.58,23.71-1.09,10.44-9.14,18.71-19.58,19.58-4.79,0-9.35-1.31-13.05-4.13v15.88c4.57,2.61,10.01,3.7,15.23,3.7,20.01,0,35.46-16.1,35.46-36.98s-15.44-37.2-35.46-37.2ZM662.1,131.11c-5,0-9.79,1.31-14.14,3.7v13.7c2.83-1.74,5.87-2.39,9.14-2.39,9.57,0,15.01,6.09,15.01,15.66v41.55h16.97v-43.94c0-17.4-9.79-28.28-26.97-28.28Z"/>
  <g>
    <path class="cls-1" d="M111.62,280.92l2.3-2.66c2.16,2.25,5.19,3.76,8.31,3.76,3.95,0,6.29-1.97,6.29-4.91s-2.16-4.04-5-5.33l-4.32-1.88c-2.85-1.19-6.11-3.35-6.11-7.76s3.99-7.99,9.46-7.99c3.58,0,6.75,1.51,8.91,3.72l-2.07,2.48c-1.84-1.74-4.04-2.85-6.84-2.85-3.35,0-5.6,1.7-5.6,4.41,0,2.89,2.62,3.99,5,5l4.27,1.84c3.49,1.51,6.2,3.58,6.2,8.03,0,4.78-3.9,8.58-10.24,8.58-4.22,0-7.94-1.74-10.56-4.45Z"/>
    <path class="cls-1" d="M136.43,273.72c0-7.48,4.87-11.75,10.33-11.75s10.33,4.27,10.33,11.75-4.87,11.66-10.33,11.66-10.33-4.27-10.33-11.66ZM153.19,273.72c0-5.14-2.57-8.63-6.43-8.63s-6.43,3.49-6.43,8.63,2.62,8.54,6.43,8.54,6.43-3.44,6.43-8.54Z"/>
    <path class="cls-1" d="M162.29,276.65v-14.14h3.81v13.63c0,4.18,1.24,5.97,4.18,5.97,2.3,0,3.9-1.15,6.01-3.76v-15.84h3.76v22.31h-3.12l-.32-3.49h-.14c-2.07,2.43-4.27,4.04-7.34,4.04-4.73,0-6.84-3.03-6.84-8.72Z"/>
    <path class="cls-1" d="M186.9,262.52h3.12l.32,4.04h.14c1.51-2.8,3.81-4.59,6.33-4.59.96,0,1.65.14,2.39.46l-.73,3.3c-.73-.23-1.24-.37-2.16-.37-1.88,0-4.13,1.38-5.65,5.14v14.32h-3.76v-22.31Z"/>
    <path class="cls-1" d="M200.79,273.72c0-7.48,5-11.75,10.74-11.75,2.94,0,4.96,1.19,6.52,2.61l-1.93,2.48c-1.29-1.15-2.66-1.97-4.45-1.97-4.04,0-6.98,3.49-6.98,8.63s2.8,8.54,6.88,8.54c2.07,0,3.86-1.01,5.23-2.25l1.65,2.53c-2.02,1.79-4.54,2.84-7.21,2.84-5.92,0-10.47-4.27-10.47-11.66Z"/>
    <path class="cls-1" d="M220.82,273.72c0-7.3,4.91-11.75,10.01-11.75,5.69,0,8.9,4.08,8.9,10.46,0,.78-.05,1.61-.14,2.16h-15.06c.28,4.73,3.17,7.76,7.44,7.76,2.11,0,3.9-.69,5.55-1.74l1.33,2.48c-1.93,1.24-4.32,2.29-7.34,2.29-5.97,0-10.7-4.36-10.7-11.66ZM236.43,271.88c0-4.5-2.02-6.93-5.51-6.93-3.12,0-5.97,2.53-6.43,6.93h11.93Z"/>
    <path class="cls-1" d="M254.88,250.4h2.66v45.9h-2.66v-45.9Z"/>
    <path class="cls-1" d="M275.03,254.71h8.95c6.11,0,10.33,2.07,10.33,7.35,0,2.98-1.56,5.65-4.41,6.56v.18c3.63.69,6.15,3.08,6.15,7.21,0,5.92-4.68,8.81-11.43,8.81h-9.59v-30.11ZM283.29,267.52c5.14,0,7.25-1.88,7.25-4.96,0-3.49-2.39-4.82-7.07-4.82h-4.64v9.78h4.45ZM284.07,281.8c5.19,0,8.22-1.88,8.22-5.92,0-3.72-2.94-5.42-8.22-5.42h-5.23v11.34h5.23Z"/>
    <path class="cls-1" d="M301.25,276.65v-14.14h3.81v13.63c0,4.18,1.24,5.97,4.18,5.97,2.3,0,3.9-1.15,6.01-3.76v-15.84h3.76v22.31h-3.12l-.32-3.49h-.14c-2.07,2.43-4.27,4.04-7.34,4.04-4.73,0-6.84-3.03-6.84-8.72Z"/>
    <path class="cls-1" d="M323.62,282.3l1.88-2.52c1.93,1.56,3.9,2.66,6.56,2.66,2.94,0,4.41-1.56,4.41-3.49,0-2.29-2.66-3.31-5.1-4.22-3.17-1.15-6.66-2.66-6.66-6.43s2.85-6.33,7.67-6.33c2.8,0,5.23,1.15,6.93,2.52l-1.79,2.39c-1.51-1.15-3.12-1.97-5.1-1.97-2.8,0-4.08,1.51-4.08,3.21,0,2.11,2.43,2.89,4.96,3.86,3.21,1.19,6.79,2.53,6.79,6.75,0,3.63-2.89,6.66-8.17,6.66-3.17,0-6.2-1.33-8.31-3.08Z"/>
    <path class="cls-1" d="M344.21,255.49c0-1.47,1.15-2.43,2.62-2.43s2.62.96,2.62,2.43-1.15,2.43-2.62,2.43-2.62-1.01-2.62-2.43ZM344.9,262.52h3.76v22.31h-3.76v-22.31Z"/>
    <path class="cls-1" d="M355.47,262.52h3.12l.32,3.21h.14c2.11-2.11,4.41-3.76,7.48-3.76,4.68,0,6.79,3.03,6.79,8.72v14.14h-3.76v-13.63c0-4.18-1.29-5.97-4.22-5.97-2.3,0-3.86,1.19-6.11,3.44v16.16h-3.76v-22.31Z"/>
    <path class="cls-1" d="M378.63,273.72c0-7.3,4.91-11.75,10.01-11.75,5.69,0,8.9,4.08,8.9,10.46,0,.78-.05,1.61-.14,2.16h-15.06c.28,4.73,3.17,7.76,7.44,7.76,2.11,0,3.9-.69,5.55-1.74l1.33,2.48c-1.93,1.24-4.32,2.29-7.34,2.29-5.97,0-10.7-4.36-10.7-11.66ZM394.23,271.88c0-4.5-2.02-6.93-5.51-6.93-3.12,0-5.97,2.53-6.43,6.93h11.93Z"/>
    <path class="cls-1" d="M400.57,282.3l1.88-2.52c1.93,1.56,3.9,2.66,6.56,2.66,2.94,0,4.41-1.56,4.41-3.49,0-2.29-2.66-3.31-5.1-4.22-3.17-1.15-6.66-2.66-6.66-6.43s2.84-6.33,7.66-6.33c2.8,0,5.23,1.15,6.93,2.52l-1.79,2.39c-1.51-1.15-3.12-1.97-5.1-1.97-2.8,0-4.08,1.51-4.08,3.21,0,2.11,2.43,2.89,4.96,3.86,3.21,1.19,6.79,2.53,6.79,6.75,0,3.63-2.89,6.66-8.17,6.66-3.17,0-6.2-1.33-8.31-3.08Z"/>
    <path class="cls-1" d="M420.08,282.3l1.88-2.52c1.93,1.56,3.9,2.66,6.56,2.66,2.94,0,4.41-1.56,4.41-3.49,0-2.29-2.66-3.31-5.1-4.22-3.17-1.15-6.66-2.66-6.66-6.43s2.84-6.33,7.66-6.33c2.8,0,5.23,1.15,6.93,2.52l-1.79,2.39c-1.51-1.15-3.12-1.97-5.1-1.97-2.8,0-4.08,1.51-4.08,3.21,0,2.11,2.43,2.89,4.96,3.86,3.21,1.19,6.79,2.53,6.79,6.75,0,3.63-2.89,6.66-8.17,6.66-3.17,0-6.2-1.33-8.31-3.08Z"/>
    <path class="cls-1" d="M451.44,250.4h2.66v45.9h-2.66v-45.9Z"/>
    <path class="cls-1" d="M469.85,269.77c0-9.68,5.69-15.61,13.36-15.61,3.67,0,6.52,1.74,8.26,3.72l-2.07,2.48c-1.61-1.7-3.58-2.85-6.15-2.85-5.69,0-9.46,4.68-9.46,12.17s3.63,12.35,9.32,12.35c2.89,0,5.05-1.29,6.98-3.4l2.11,2.39c-2.39,2.76-5.32,4.36-9.23,4.36-7.53,0-13.13-5.78-13.13-15.61Z"/>
    <path class="cls-1" d="M495.27,273.72c0-7.48,4.87-11.75,10.33-11.75s10.33,4.27,10.33,11.75-4.86,11.66-10.33,11.66-10.33-4.27-10.33-11.66ZM512.02,273.72c0-5.14-2.57-8.63-6.43-8.63s-6.43,3.49-6.43,8.63,2.62,8.54,6.43,8.54,6.43-3.44,6.43-8.54Z"/>
    <path class="cls-1" d="M521.43,262.52h3.12l.32,3.21h.14c1.93-2.11,4.27-3.76,6.93-3.76,3.4,0,5.23,1.61,6.15,4.27,2.34-2.52,4.64-4.27,7.35-4.27,4.59,0,6.79,3.03,6.79,8.72v14.14h-3.76v-13.63c0-4.18-1.33-5.97-4.13-5.97-1.74,0-3.53,1.15-5.6,3.44v16.16h-3.76v-13.63c0-4.18-1.33-5.97-4.18-5.97-1.65,0-3.53,1.15-5.6,3.44v16.16h-3.76v-22.31Z"/>
    <path class="cls-1" d="M558.96,262.52h3.12l.32,3.21h.14c1.93-2.11,4.27-3.76,6.93-3.76,3.4,0,5.23,1.61,6.15,4.27,2.34-2.52,4.64-4.27,7.35-4.27,4.59,0,6.79,3.03,6.79,8.72v14.14h-3.76v-13.63c0-4.18-1.33-5.97-4.13-5.97-1.74,0-3.53,1.15-5.6,3.44v16.16h-3.76v-13.63c0-4.18-1.33-5.97-4.18-5.97-1.65,0-3.53,1.15-5.6,3.44v16.16h-3.76v-22.31Z"/>
    <path class="cls-1" d="M596.21,276.65v-14.14h3.81v13.63c0,4.18,1.24,5.97,4.18,5.97,2.29,0,3.9-1.15,6.01-3.76v-15.84h3.76v22.31h-3.12l-.32-3.49h-.14c-2.06,2.43-4.27,4.04-7.35,4.04-4.73,0-6.84-3.03-6.84-8.72Z"/>
    <path class="cls-1" d="M620.82,262.52h3.12l.32,3.21h.14c2.11-2.11,4.41-3.76,7.48-3.76,4.68,0,6.79,3.03,6.79,8.72v14.14h-3.76v-13.63c0-4.18-1.29-5.97-4.22-5.97-2.29,0-3.86,1.19-6.11,3.44v16.16h-3.76v-22.31Z"/>
    <path class="cls-1" d="M644.59,255.49c0-1.47,1.15-2.43,2.62-2.43s2.61.96,2.61,2.43-1.15,2.43-2.61,2.43-2.62-1.01-2.62-2.43ZM645.28,262.52h3.76v22.31h-3.76v-22.31Z"/>
    <path class="cls-1" d="M656.71,277.94v-12.35h-3.31v-2.85l3.49-.23.46-6.24h3.17v6.24h6.01v3.08h-6.01v12.39c0,2.76.87,4.31,3.44,4.31.78,0,1.79-.32,2.52-.59l.73,2.84c-1.24.41-2.76.83-4.13.83-4.77,0-6.38-3.03-6.38-7.43Z"/>
    <path class="cls-1" d="M670.39,293.96l.73-2.98c.46.14,1.15.32,1.7.32,2.53,0,4.13-2.02,5.05-4.77l.51-1.65-8.95-22.36h3.9l4.54,12.35c.69,1.93,1.47,4.22,2.16,6.29h.18c.64-2.02,1.29-4.31,1.88-6.29l3.99-12.35h3.67l-8.4,24.14c-1.56,4.41-3.86,7.76-8.35,7.76-1.01,0-1.88-.18-2.62-.46Z"/>
  </g>
</svg>