<?xml version="1.0" encoding="UTF-8"?>
<svg id="logos" xmlns="http://www.w3.org/2000/svg" viewBox="0 0 800 400">
  <defs>
    <style>
      .cls-1 {
        opacity: .5;
      }

      .cls-1, .cls-2 {
        fill: #fff;
      }
    </style>
  </defs>
  <g>
    <path class="cls-2" d="M215.5,192.93c5.68,0,10.32-2.25,13.93-6.74l7.41,7.63c-5.88,6.62-12.8,9.93-20.78,9.93s-14.54-2.52-19.71-7.56c-5.16-5.04-7.74-11.4-7.74-19.08s2.63-14.09,7.89-19.22c5.26-5.14,11.69-7.7,19.3-7.7,8.49,0,15.61,3.23,21.33,9.7l-7.19,8.15c-3.65-4.54-8.2-6.82-13.63-6.82-4.35,0-8.06,1.42-11.15,4.26-3.09,2.84-4.63,6.67-4.63,11.48s1.46,8.68,4.37,11.59c2.91,2.91,6.44,4.37,10.59,4.37Z"/>
    <path class="cls-2" d="M245.94,203.15v-51.78h11.56v41.48h22.08v10.3h-33.63Z"/>
    <path class="cls-2" d="M330.17,196c-5.24,5.11-11.68,7.67-19.33,7.67s-14.1-2.55-19.34-7.67c-5.24-5.11-7.85-11.47-7.85-19.08s2.62-13.96,7.85-19.08c5.23-5.11,11.68-7.67,19.34-7.67s14.1,2.56,19.33,7.67c5.23,5.11,7.85,11.47,7.85,19.08s-2.62,13.96-7.85,19.08ZM326.25,176.96c0-4.62-1.48-8.56-4.44-11.82-2.96-3.26-6.61-4.89-10.93-4.89s-7.96,1.63-10.93,4.89c-2.96,3.26-4.45,7.2-4.45,11.82s1.48,8.54,4.45,11.78c2.96,3.24,6.6,4.85,10.93,4.85s7.96-1.62,10.93-4.85c2.96-3.23,4.44-7.16,4.44-11.78Z"/>
    <path class="cls-2" d="M361.51,189.78c1.93,2.4,4.52,3.59,7.78,3.59s5.84-1.2,7.74-3.59c1.9-2.4,2.85-5.67,2.85-9.82v-28.6h11.56v28.97c0,7.51-2.08,13.27-6.22,17.3-4.15,4.03-9.46,6.04-15.93,6.04s-11.79-2.02-15.96-6.07c-4.17-4.05-6.26-9.8-6.26-17.26v-28.97h11.56v28.6c0,4.15.96,7.42,2.89,9.82Z"/>
    <path class="cls-2" d="M443,158.14c4.94,4.52,7.41,10.8,7.41,18.85s-2.41,14.42-7.22,19.11c-4.81,4.69-12.16,7.04-22.04,7.04h-17.71v-51.78h18.3c9.23,0,16.32,2.26,21.26,6.78ZM434.51,188.93c2.84-2.67,4.26-6.54,4.26-11.63s-1.42-9-4.26-11.74c-2.84-2.74-7.2-4.11-13.07-4.11h-6.45v31.48h7.33c5.28,0,9.35-1.33,12.19-4Z"/>
    <path class="cls-2" d="M516.19,151.37h11.56v51.78h-11.56l-24.67-32.45v32.45h-11.56v-51.78h10.82l25.41,33.34v-33.34Z"/>
    <path class="cls-2" d="M577.38,203.15l-4.81-11.19h-21.71l-4.81,11.19h-12.3l22.37-51.78h11.19l22.37,51.78h-12.3ZM561.75,166.78l-6.52,15.04h12.97l-6.45-15.04Z"/>
    <path class="cls-2" d="M613.83,161.37v41.78h-11.56v-41.78h-14.67v-10h40.89v10h-14.67Z"/>
    <path class="cls-2" d="M636.94,151.37h11.56v51.78h-11.56v-51.78Z"/>
    <path class="cls-2" d="M680.35,184.33l13.19-32.97h12.52l-20.82,51.78h-9.78l-20.82-51.78h12.52l13.18,32.97Z"/>
    <path class="cls-2" d="M749.54,151.37v10.3h-25.78v10.67h23.19v9.85h-23.19v10.74h26.59v10.22h-38.15v-51.78h37.34Z"/>
    <path class="cls-2" d="M202.25,247.25c3.18,0,5.79-1.26,7.81-3.78l4.15,4.28c-3.29,3.71-7.18,5.56-11.65,5.56s-8.15-1.41-11.05-4.24c-2.89-2.82-4.34-6.39-4.34-10.69s1.47-7.9,4.42-10.78c2.95-2.88,6.55-4.32,10.82-4.32,4.76,0,8.75,1.81,11.96,5.44l-4.03,4.57c-2.05-2.55-4.6-3.82-7.64-3.82-2.44,0-4.52.8-6.25,2.39-1.73,1.59-2.6,3.74-2.6,6.44s.82,4.87,2.45,6.5c1.63,1.63,3.61,2.45,5.94,2.45Z"/>
    <path class="cls-2" d="M243.11,248.97c-2.93,2.87-6.55,4.3-10.84,4.3s-7.9-1.43-10.84-4.3c-2.93-2.86-4.4-6.43-4.4-10.69s1.47-7.83,4.4-10.69c2.93-2.87,6.55-4.3,10.84-4.3s7.9,1.43,10.84,4.3c2.93,2.86,4.4,6.43,4.4,10.69s-1.47,7.83-4.4,10.69ZM240.91,238.3c0-2.59-.83-4.8-2.49-6.62-1.66-1.83-3.7-2.74-6.13-2.74s-4.46.91-6.13,2.74c-1.66,1.83-2.49,4.04-2.49,6.62s.83,4.79,2.49,6.6c1.66,1.81,3.7,2.72,6.13,2.72s4.46-.91,6.13-2.72c1.66-1.81,2.49-4.01,2.49-6.6Z"/>
    <path class="cls-2" d="M278.98,234.71l-7.85,15.86h-3.86l-7.81-15.86v18.27h-6.48v-29.03h8.76l7.47,15.95,7.52-15.95h8.72v29.03h-6.48v-18.27Z"/>
    <path class="cls-2" d="M312.6,226.55c2.03,1.73,3.05,4.39,3.05,7.97s-1.04,6.21-3.13,7.87c-2.09,1.66-5.28,2.49-9.57,2.49h-3.86v8.1h-6.48v-29.03h10.26c4.46,0,7.7.86,9.74,2.6ZM307.85,237.97c.77-.87,1.16-2.15,1.16-3.82s-.51-2.87-1.52-3.57c-1.01-.71-2.58-1.06-4.71-1.06h-3.7v9.76h4.36c2.16,0,3.63-.44,4.4-1.31Z"/>
    <path class="cls-2" d="M328.4,245.48c1.08,1.34,2.53,2.01,4.36,2.01s3.27-.67,4.34-2.01c1.07-1.34,1.6-3.18,1.6-5.5v-16.03h6.48v16.24c0,4.21-1.16,7.44-3.49,9.7-2.33,2.26-5.3,3.39-8.93,3.39s-6.61-1.14-8.95-3.41-3.51-5.5-3.51-9.68v-16.24h6.48v16.03c0,2.32.54,4.16,1.62,5.5Z"/>
    <path class="cls-2" d="M364.19,229.56v23.42h-6.48v-23.42h-8.22v-5.61h22.92v5.61h-8.22Z"/>
    <path class="cls-2" d="M377.15,223.95h6.48v29.03h-6.48v-29.03Z"/>
    <path class="cls-2" d="M411.08,223.95h6.48v29.03h-6.48l-13.83-18.19v18.19h-6.48v-29.03h6.06l14.24,18.69v-18.69Z"/>
    <path class="cls-2" d="M443.55,238.2h6.52v10.3c-2.88,3.21-6.87,4.82-11.96,4.82-4.26,0-7.84-1.41-10.73-4.24-2.89-2.82-4.34-6.39-4.34-10.69s1.48-7.9,4.42-10.78c2.95-2.88,6.5-4.32,10.67-4.32s7.78,1.37,10.86,4.11l-3.36,4.86c-1.3-1.14-2.5-1.92-3.59-2.35-1.09-.43-2.28-.64-3.55-.64-2.46,0-4.54.84-6.23,2.51-1.69,1.68-2.53,3.88-2.53,6.62s.81,4.94,2.43,6.58c1.62,1.65,3.55,2.47,5.79,2.47s4.11-.43,5.61-1.29v-7.97Z"/>
    <path class="cls-2" d="M486.74,223.95v5.69h-13.45v6.27h12.79v5.69h-12.79v11.38h-6.48v-29.03h19.93Z"/>
    <path class="cls-2" d="M516.63,248.97c-2.93,2.87-6.55,4.3-10.84,4.3s-7.9-1.43-10.84-4.3c-2.94-2.86-4.4-6.43-4.4-10.69s1.47-7.83,4.4-10.69c2.93-2.87,6.55-4.3,10.84-4.3s7.9,1.43,10.84,4.3c2.93,2.86,4.4,6.43,4.4,10.69s-1.47,7.83-4.4,10.69ZM514.43,238.3c0-2.59-.83-4.8-2.49-6.62-1.66-1.83-3.7-2.74-6.13-2.74s-4.46.91-6.13,2.74c-1.66,1.83-2.49,4.04-2.49,6.62s.83,4.79,2.49,6.6c1.66,1.81,3.7,2.72,6.13,2.72s4.46-.91,6.13-2.72c1.66-1.81,2.49-4.01,2.49-6.6Z"/>
    <path class="cls-2" d="M534.2,245.48c1.08,1.34,2.53,2.01,4.36,2.01s3.27-.67,4.34-2.01c1.07-1.34,1.6-3.18,1.6-5.5v-16.03h6.48v16.24c0,4.21-1.16,7.44-3.49,9.7-2.32,2.26-5.3,3.39-8.93,3.39s-6.61-1.14-8.95-3.41c-2.34-2.27-3.51-5.5-3.51-9.68v-16.24h6.48v16.03c0,2.32.54,4.16,1.62,5.5Z"/>
    <path class="cls-2" d="M578.01,223.95h6.48v29.03h-6.48l-13.83-18.19v18.19h-6.48v-29.03h6.06l14.24,18.69v-18.69Z"/>
    <path class="cls-2" d="M613.81,227.75c2.77,2.53,4.15,6.06,4.15,10.57s-1.35,8.08-4.05,10.71c-2.7,2.63-6.82,3.95-12.35,3.95h-9.93v-29.03h10.26c5.18,0,9.15,1.27,11.92,3.8ZM609.05,245.01c1.59-1.49,2.39-3.67,2.39-6.52s-.8-5.05-2.39-6.58c-1.59-1.54-4.04-2.3-7.33-2.3h-3.61v17.65h4.11c2.96,0,5.24-.75,6.83-2.24Z"/>
    <path class="cls-2" d="M643.41,252.98l-2.7-6.27h-12.17l-2.7,6.27h-6.89l12.54-29.03h6.27l12.54,29.03h-6.89ZM634.65,232.59l-3.65,8.43h7.27l-3.61-8.43Z"/>
    <path class="cls-2" d="M663.85,229.56v23.42h-6.48v-23.42h-8.22v-5.61h22.92v5.61h-8.22Z"/>
    <path class="cls-2" d="M676.8,223.95h6.48v29.03h-6.48v-29.03Z"/>
    <path class="cls-2" d="M714.84,248.97c-2.93,2.87-6.55,4.3-10.84,4.3s-7.9-1.43-10.84-4.3c-2.94-2.86-4.4-6.43-4.4-10.69s1.47-7.83,4.4-10.69c2.93-2.87,6.55-4.3,10.84-4.3s7.9,1.43,10.84,4.3c2.93,2.86,4.4,6.43,4.4,10.69s-1.47,7.83-4.4,10.69ZM712.64,238.3c0-2.59-.83-4.8-2.49-6.62-1.66-1.83-3.7-2.74-6.13-2.74s-4.46.91-6.13,2.74c-1.66,1.83-2.49,4.04-2.49,6.62s.83,4.79,2.49,6.6c1.66,1.81,3.7,2.72,6.13,2.72s4.46-.91,6.13-2.72c1.66-1.81,2.49-4.01,2.49-6.6Z"/>
    <path class="cls-2" d="M745.03,223.95h6.48v29.03h-6.48l-13.83-18.19v18.19h-6.48v-29.03h6.06l14.24,18.69v-18.69Z"/>
  </g>
  <g>
    <g>
      <polygon class="cls-2" points="64.44 218.6 48.5 218.6 48.5 255.8 85.7 255.8 85.7 239.86 64.44 239.86 64.44 218.6"/>
      <polygon class="cls-2" points="144.15 218.72 144.15 239.86 123.01 239.86 122.9 239.74 122.9 255.8 160.1 255.8 160.1 218.6 144.03 218.6 144.15 218.72"/>
      <polygon class="cls-2" points="48.5 181.4 64.56 181.4 64.44 181.28 64.44 160.15 64.44 160.14 85.58 160.14 85.7 160.26 85.7 144.2 48.5 144.2 48.5 181.4"/>
      <polygon class="cls-2" points="122.9 144.2 122.9 160.14 144.15 160.14 144.15 181.4 160.1 181.4 160.1 144.2 122.9 144.2"/>
    </g>
    <g>
      <polygon class="cls-1" points="120.93 181.4 99.67 160.14 122.9 160.14 122.9 144.2 85.7 144.2 85.7 160.26 106.84 181.4 120.93 181.4"/>
      <polygon class="cls-1" points="101.76 218.6 87.67 218.6 105.28 236.21 108.92 239.86 101.64 239.86 85.7 239.86 85.7 255.8 122.9 255.8 122.9 239.74 112.33 229.17 101.76 218.6"/>
      <polygon class="cls-1" points="144.15 181.4 144.15 197.35 144.15 204.63 140.51 200.98 122.9 183.37 122.9 197.46 133.46 208.03 144.03 218.6 160.1 218.6 160.1 181.4 144.15 181.4"/>
      <polygon class="cls-1" points="85.7 202.54 64.56 181.4 48.5 181.4 48.5 218.6 64.44 218.6 64.44 195.37 85.7 216.63 85.7 202.54"/>
    </g>
  </g>
</svg>