<?xml version="1.0" encoding="UTF-8"?>
<svg id="logos" xmlns="http://www.w3.org/2000/svg" viewBox="0 0 800 400">
  <defs>
    <style>
      .cls-1 {
        fill: #fff;
      }
    </style>
  </defs>
  <path class="cls-1" d="M287.61,191.5h13.97c.61,0,1.09.48,1.09,1.09v78c0,.61-.48,1.09-1.09,1.09h-13.49c-.48,0-.97-.25-1.09-.61l-17.74-39.97v39.48c0,.61-.48,1.09-1.09,1.09h-13.85c-.61,0-.97-.49-.97-1.09v-78c0-.61.36-1.09.97-1.09h14.33c.48,0,.73.36.85.61l17.01,39.24v-38.75c0-.61.49-1.09,1.09-1.09"/>
  <path class="cls-1" d="M320.41,270.59v-77.99c0-.61.36-1.09.97-1.09h41.3c.61,0,1.09.48,1.09,1.09v13c0,.61-.48,1.09-1.09,1.09h-26.24v16.52h20.41c.61,0,.97.48.97,1.09v13.24c0,.61-.36,1.09-.97,1.09h-20.41v17.86h26.24c.61,0,1.09.48,1.09,1.09v13c0,.61-.48,1.09-1.09,1.09h-41.3c-.61,0-.97-.48-.97-1.09"/>
  <path class="cls-1" d="M376.77,205.6v-13c0-.61.49-1.09,1.09-1.09h50.66c.61,0,1.09.48,1.09,1.09v13c0,.61-.48,1.09-1.09,1.09h-17.25v63.9c0,.61-.48,1.09-1.09,1.09h-13.98c-.61,0-1.09-.48-1.09-1.09v-63.9h-17.25c-.61,0-1.09-.49-1.09-1.09"/>
  <path class="cls-1" d="M530.69,192.84l-20.9,78.12c-.12.49-.61.73-1.09.73h-13.37c-.48,0-.85-.24-1.09-.73l-8.26-30.74-11.18,30.86c-.12.36-.36.6-.85.6h-12.88c-.48,0-.85-.24-.97-.73l-20.77-78.24c-.12-.61.24-1.22,1.09-1.22h13.98c.36,0,.73.36.85.73l13.49,51.51,10.08-30.5-5.59-20.41c-.24-.73.36-1.34.97-1.34h15.07c.49,0,.73.12.97.73l11.18,49.57,13.37-49.57c.12-.37.48-.73.97-.73h13.97c.73,0,1.22.61.97,1.34"/>
  <path class="cls-1" d="M588.03,197.7c3.64,4.01,5.35,9.72,5.35,17.86v31.95c0,8.38-1.7,14.21-5.35,18.1-4.74,4.86-11.91,7.29-22.36,7.29s-17.86-2.43-22.47-7.29c-3.52-3.89-5.46-9.72-5.46-18.1v-31.95c0-8.14,1.82-13.97,5.46-17.98,4.62-4.98,11.91-7.17,22.47-7.17s17.74,2.31,22.36,7.29M577.21,219.57c0-10.69-5.71-12.88-10.93-12.88h-1.46c-7.78,0-10.81,4.98-10.81,12.88v24.3c0,10.69,5.71,13,10.81,13h1.46c7.78,0,10.81-5.22,10.93-13v-24.3Z"/>
  <path class="cls-1" d="M647.79,247.75l10.2,22.47c.37.73-.12,1.46-.85,1.46h-14.94c-.48,0-.73-.24-.85-.61l-9.48-20.66h-6.19v20.17c0,.61-.49,1.09-1.09,1.09h-13.97c-.48,0-.85-.48-.85-1.09v-78c0-.61.37-1.09.85-1.09h25.27c13.49,0,21.63,7.65,21.63,21.87v15.31c0,4.25-.73,8.26-2.18,11.3-1.7,3.52-4.13,6.19-7.53,7.78M641.6,217.02c0-8.5-3.16-9.35-12.39-9.35h-3.52v26.85h3.52c7.65,0,12.15-.12,12.39-9.6v-7.9Z"/>
  <path class="cls-1" d="M728.09,193.2l-19.08,26.36,20.17,50.78c.24.61-.12,1.33-.97,1.33h-16.4c-.36,0-.73-.24-.85-.73l-12.63-36.32-6.2,8.5v27.46c0,.61-.49,1.09-1.09,1.09h-13.85c-.61,0-.97-.48-.97-1.09v-77.99c0-.61.36-1.09.97-1.09h13.85c.61,0,1.09.48,1.09,1.09v25.14l19.07-25.75c.36-.48.49-.48.97-.48h15.06c.85,0,1.34.97.85,1.7"/>
  <path class="cls-1" d="M281.42,131.53c2.05,2.26,3.07,5.6,3.07,9.7v18.09c0,8.26-4.78,13.44-13.51,13.44h-17.06c-.34,0-.54-.27-.54-.61v-43.81c0-.34.2-.61.54-.61h17.06c4.64,0,8.12,1.3,10.44,3.82M275.56,143.28c0-4.3-2.25-7.03-7.03-7.03h-6.14v27.98h6.14c4.1,0,7.03-2.66,7.03-6.96v-13.99Z"/>
  <path class="cls-1" d="M295.97,172.14v-43.82c0-.34.21-.61.55-.61h7.78c.34,0,.61.27.61.61v43.82c0,.34-.27.61-.61.61h-7.78c-.34,0-.55-.27-.55-.61"/>
  <path class="cls-1" d="M330.6,155.76v-7.3c0-.35.27-.62.61-.62h15.63c.34,0,.61.27.61.62v10.71c0,10.03-5.39,14.26-15.56,14.26-9.48,0-15.69-3.76-15.69-14.26v-17.95c0-9.9,5.53-14.13,15.69-14.13,9.56,0,15.56,3.69,15.56,14.13v1.44c0,.34-.27.61-.61.61h-7.85c-.34,0-.61-.27-.61-.61v-.89c0-4.16-2.66-5.53-6.14-5.53h-.82c-2.25,0-3.76.61-4.78,1.98-.96,1.3-1.3,3.01-1.3,5.26v13.51c0,5.94,3.21,7.23,6.08,7.23h.82c4.16,0,6.14-2.86,6.14-7.23v-.61h-7.17c-.34,0-.61-.27-.61-.61"/>
  <path class="cls-1" d="M358.71,172.14v-43.82c0-.34.21-.61.54-.61h7.78c.34,0,.61.27.61.61v43.82c0,.34-.27.61-.61.61h-7.78c-.34,0-.54-.27-.54-.61"/>
  <path class="cls-1" d="M377.56,135.63v-7.3c0-.34.27-.61.61-.61h28.46c.35,0,.62.27.62.61v7.3c0,.34-.27.61-.62.61h-9.69v35.9c0,.34-.28.61-.61.61h-7.85c-.34,0-.61-.27-.61-.61v-35.9h-9.69c-.34,0-.61-.27-.61-.61"/>
  <path class="cls-1" d="M423.21,127.72h8.46c.27,0,.41.2.48.4l11.81,43.89c.07.41-.21.75-.62.75h-7.78c-.2,0-.41-.14-.48-.41l-2.66-9.56h-9.97l-2.59,9.56c-.07.27-.21.41-.48.41h-7.85c-.41,0-.68-.34-.61-.75l11.8-43.89c.07-.21.21-.4.48-.4M430.88,154.33l-3.52-11.97-3.31,11.97h6.83Z"/>
  <path class="cls-1" d="M463.01,128.33v35.83h14.74c.34,0,.61.27.61.61v7.37c0,.34-.27.61-.61.61h-23.14c-.34,0-.54-.27-.54-.61v-43.82c0-.34.2-.61.54-.61h7.78c.35,0,.61.27.61.61"/>
  <path class="cls-1" d="M514.32,172.14v-43.82c0-.34.21-.61.54-.61h7.78c.34,0,.61.27.61.61v43.82c0,.34-.27.61-.61.61h-7.78c-.34,0-.54-.27-.54-.61"/>
  <path class="cls-1" d="M574.85,128.33v43.82c0,.34-.27.61-.61.61h-7.44c-.2,0-.54-.27-.54-.61v-25.25l-7.51,25.46c-.13.27-.27.41-.55.41h-5.39c-.21,0-.48-.14-.55-.41l-7.03-25.94v25.73c0,.34-.28.61-.62.61h-7.57c-.27,0-.48-.27-.48-.61v-43.82c0-.34.21-.61.48-.61h9.56c.27,0,.55.21.61.41l8.26,27.64,9.08-27.64c0-.21.21-.41.48-.41h9.21c.35,0,.61.27.61.61"/>
  <path class="cls-1" d="M613.84,140v8.6c0,7.3-4.5,12.22-12.15,12.22h-5.73v11.32c0,.34-.27.62-.61.62h-7.85c-.27,0-.48-.28-.48-.62v-43.81c0-.34.21-.61.48-.61h14.2c7.58,0,12.15,4.3,12.15,12.28M604.91,142.05c0-4.71-2.19-5.19-6.96-5.19h-1.98v15.01h1.98c3.75,0,6.96-.68,6.96-5.32v-4.5Z"/>
  <path class="cls-1" d="M631.93,127.72h8.47c.27,0,.41.2.48.4l11.8,43.89c.07.41-.2.75-.61.75h-7.78c-.2,0-.41-.14-.48-.41l-2.66-9.56h-9.97l-2.59,9.56c-.07.27-.21.41-.48.41h-7.85c-.41,0-.68-.34-.61-.75l11.8-43.89c.07-.21.21-.4.48-.4M639.6,154.33l-3.51-11.97-3.31,11.97h6.82Z"/>
  <path class="cls-1" d="M682.08,154.88c0-.34.27-.61.61-.61h7.78c.34,0,.61.27.61.61v4.3c0,10.03-5.39,14.27-15.56,14.27-9.48,0-15.7-3.76-15.7-14.27v-17.95c0-10.1,5.53-14.13,15.7-14.13,9.62,0,15.56,3.68,15.56,14.13v1.43c0,.34-.27.61-.61.61h-7.85c-.34,0-.61-.27-.61-.61v-1.09c0-3.76-2.8-5.33-6.15-5.33h-.82c-2.26,0-3.76.61-4.78,1.98-.96,1.3-1.29,3.01-1.29,5.25v13.51c0,5.94,3.34,7.24,6.07,7.24h.82c2.25,0,3.82-.61,4.85-1.98.89-1.22,1.36-2.93,1.36-5.25v-2.11Z"/>
  <path class="cls-1" d="M699,135.63v-7.3c0-.34.27-.61.61-.61h28.46c.34,0,.61.27.61.61v7.3c0,.34-.27.61-.61.61h-9.69v35.9c0,.34-.27.61-.61.61h-7.85c-.34,0-.61-.27-.61-.61v-35.9h-9.69c-.35,0-.61-.27-.61-.61"/>
  <path class="cls-1" d="M201.05,206.44c1.38,1.02,3.06,1.64,4.9,1.64,4.57,0,8.29-3.72,8.29-8.29s-3.72-8.29-8.29-8.29-8.29,3.72-8.29,8.29c0,1.84.62,3.52,1.64,4.9l-25.08,25.08-25.08-25.08c1.02-1.38,1.64-3.06,1.64-4.9s-.62-3.52-1.64-4.9l51.91-51.91c1.38,1.02,3.06,1.64,4.9,1.64,4.57,0,8.29-3.72,8.29-8.29s-3.72-8.29-8.29-8.29-8.29,3.72-8.29,8.29c0,1.84.62,3.52,1.64,4.9l-51.91,51.91c-1.06-.78-2.31-1.31-3.67-1.52v-47.13c3.98-.6,7.05-4.02,7.05-8.16,0-4.57-3.72-8.29-8.29-8.29-4.15,0-7.56,3.07-8.16,7.05h-47.13c-.6-3.98-4.02-7.05-8.16-7.05-4.57,0-8.29,3.72-8.29,8.29s3.72,8.29,8.29,8.29c.89,0,1.74-.18,2.54-.44l17.11,34.22-14.75,14.75c-1.38-1.02-3.06-1.64-4.9-1.64-4.57,0-8.29,3.72-8.29,8.29,0,4.15,3.07,7.56,7.05,8.16v47.13c-3.98.6-7.05,4.02-7.05,8.16,0,4.57,3.72,8.29,8.29,8.29s8.29-3.72,8.29-8.29c0-4.15-3.07-7.56-7.05-8.16v-47.13c3.98-.6,7.05-4.02,7.05-8.16,0-1.84-.62-3.52-1.64-4.9l14.17-14.17,37.88,75.77c-2.13,1.5-3.53,3.97-3.53,6.76,0,4.57,3.72,8.29,8.29,8.29s8.29-3.72,8.29-8.29c0-1.84-.62-3.52-1.64-4.9l25.08-25.08,25.08,25.08c-1.02,1.38-1.64,3.06-1.64,4.9,0,4.57,3.72,8.29,8.29,8.29s8.29-3.72,8.29-8.29-3.72-8.29-8.29-8.29c-1.84,0-3.52.62-4.9,1.64l-25.08-25.08,25.08-25.08ZM205.95,193.98c3.21,0,5.82,2.61,5.82,5.82s-2.61,5.82-5.82,5.82-5.82-2.61-5.82-5.82,2.61-5.82,5.82-5.82ZM84.85,263.25c0,3.21-2.61,5.82-5.82,5.82s-5.82-2.61-5.82-5.82,2.61-5.82,5.82-5.82,5.82,2.61,5.82,5.82ZM79.03,205.61c-3.21,0-5.82-2.61-5.82-5.82s2.61-5.82,5.82-5.82,5.82,2.61,5.82,5.82-2.61,5.82-5.82,5.82ZM205.95,257.44c3.21,0,5.82,2.61,5.82,5.82s-2.61,5.82-5.82,5.82-5.82-2.61-5.82-5.82,2.61-5.82,5.82-5.82ZM142.49,193.98c3.21,0,5.82,2.61,5.82,5.82s-2.61,5.82-5.82,5.82-5.82-2.61-5.82-5.82,2.61-5.82,5.82-5.82ZM205.95,130.52c3.21,0,5.82,2.61,5.82,5.82s-2.61,5.82-5.82,5.82-5.82-2.61-5.82-5.82,2.61-5.82,5.82-5.82ZM142.49,130.52c3.21,0,5.82,2.61,5.82,5.82s-2.61,5.82-5.82,5.82-5.82-2.61-5.82-5.82,2.61-5.82,5.82-5.82ZM73.21,136.33c0-3.21,2.61-5.82,5.82-5.82s5.82,2.61,5.82,5.82-2.61,5.82-5.82,5.82-5.82-2.61-5.82-5.82ZM83.79,143.1c1.8-1.27,3.06-3.25,3.4-5.53h47.13c.21,1.36.73,2.61,1.52,3.67l-35.32,35.32-16.73-33.46ZM142.49,269.07c-3.21,0-5.82-2.61-5.82-5.82s2.61-5.82,5.82-5.82,5.82,2.61,5.82,5.82-2.61,5.82-5.82,5.82ZM147.39,256.61c-1.38-1.02-3.06-1.64-4.9-1.64-.89,0-1.74.18-2.54.44l-38.26-76.52,35.9-35.9c1.06.78,2.31,1.31,3.66,1.51v47.13c-3.98.6-7.05,4.02-7.05,8.16,0,4.57,3.72,8.29,8.29,8.29,1.84,0,3.52-.62,4.9-1.64l25.08,25.08-25.08,25.08Z"/>
</svg>