<?xml version="1.0" encoding="UTF-8"?>
<svg id="logos" xmlns="http://www.w3.org/2000/svg" viewBox="0 0 800 400">
  <defs>
    <style>
      .cls-1 {
        fill: #fff;
      }
    </style>
  </defs>
  <polygon class="cls-1" points="337.25 111.57 368.5 111.57 368.5 114.77 354.75 114.77 354.75 151 350.99 151 350.99 114.77 337.25 114.77 337.25 111.57"/>
  <polygon class="cls-1" points="372.2 111.57 375.96 111.57 375.96 128.69 399.37 128.69 399.37 111.57 403.13 111.57 403.13 151 399.37 151 399.37 131.89 375.96 131.89 375.96 151 372.2 151 372.2 111.57"/>
  <polygon class="cls-1" points="411.09 111.57 438.31 111.57 438.31 114.77 414.84 114.77 414.84 129.02 436.82 129.02 436.82 132.22 414.84 132.22 414.84 147.8 438.59 147.8 438.59 151 411.09 151 411.09 111.57"/>
  <polygon class="cls-1" points="337.25 248.84 362.26 248.84 362.26 252.05 341 252.05 341 266.29 359.88 266.29 359.88 269.49 341 269.49 341 288.27 337.25 288.27 337.25 248.84"/>
  <g>
    <path class="cls-1" d="M383.41,248.01c12.37,0,18.55,9.72,18.55,20.54s-6.18,20.54-18.55,20.54-18.61-9.71-18.61-20.54,6.18-20.54,18.61-20.54M383.41,285.9c10.38,0,14.8-8.72,14.8-17.34s-4.42-17.34-14.8-17.34-14.85,8.72-14.85,17.34,4.42,17.34,14.85,17.34"/>
    <path class="cls-1" d="M407.44,248.84h3.76v24.41c0,9.11,4.25,12.65,11.54,12.65s11.6-3.54,11.6-12.65v-24.41h3.76v25.23c0,8.12-4.36,15.02-15.35,15.02s-15.3-6.9-15.3-15.02v-25.23Z"/>
    <polygon class="cls-1" points="445.6 248.84 449.8 248.84 472.77 282.2 472.88 282.2 472.88 248.84 476.63 248.84 476.63 288.27 472.44 288.27 449.47 254.92 449.36 254.92 449.36 288.27 445.6 288.27 445.6 248.84"/>
    <path class="cls-1" d="M484.54,248.84h13.64c11.93.28,18.12,6.68,18.12,19.71s-6.18,19.44-18.12,19.72h-13.64v-39.43ZM488.29,285.07h8c11.32,0,16.24-4.69,16.24-16.51s-4.91-16.51-16.24-16.51h-8v33.02Z"/>
    <path class="cls-1" d="M533.91,248.84h4.2l15.46,39.43h-4.03l-4.8-12.26h-17.94l-4.75,12.26h-4.03l15.9-39.43ZM527.95,272.81h15.52l-7.62-20.21-7.89,20.21Z"/>
    <polygon class="cls-1" points="549.16 248.84 580.41 248.84 580.41 252.05 566.66 252.05 566.66 288.27 562.91 288.27 562.91 252.05 549.16 252.05 549.16 248.84"/>
    <rect class="cls-1" x="584.39" y="248.84" width="3.76" height="39.43"/>
    <path class="cls-1" d="M612.89,248.01c12.37,0,18.55,9.72,18.55,20.54s-6.18,20.54-18.55,20.54-18.61-9.71-18.61-20.54,6.18-20.54,18.61-20.54M612.89,285.9c10.38,0,14.8-8.72,14.8-17.34s-4.42-17.34-14.8-17.34-14.85,8.72-14.85,17.34,4.42,17.34,14.85,17.34"/>
    <polygon class="cls-1" points="637.24 248.84 641.44 248.84 664.41 282.2 664.52 282.2 664.52 248.84 668.28 248.84 668.28 288.27 664.08 288.27 641.11 254.92 641 254.92 641 288.27 637.24 288.27 637.24 248.84"/>
    <polygon class="cls-1" points="337.25 162.74 358.98 162.74 358.98 215.2 390.2 215.2 390.2 233.29 337.25 233.29 337.25 162.74"/>
    <rect class="cls-1" x="404.42" y="162.74" width="21.74" height="70.55"/>
    <polygon class="cls-1" points="442.36 162.74 464.59 162.74 485.14 200.48 485.34 200.48 485.34 162.74 505.89 162.74 505.89 233.29 484.74 233.29 463.11 194.75 462.91 194.75 462.91 233.29 442.36 233.29 442.36 162.74"/>
    <path class="cls-1" d="M586.2,206.02c0,19.66-10.37,28.95-32.11,28.95s-32.21-9.29-32.21-28.95v-43.27h21.74v38.43c0,7.11-.1,16.21,10.57,16.21s10.27-9.09,10.27-16.21v-38.43h21.74v43.27Z"/>
    <polygon class="cls-1" points="620.78 195.74 597.56 162.74 623.05 162.74 633.72 181.91 644.19 162.74 668.3 162.74 645.67 195.94 670.87 233.29 644.69 233.29 632.63 212.24 620.18 233.29 595.28 233.29 620.78 195.74"/>
    <polygon class="cls-1" points="164.66 252.8 164.66 181.88 129.13 181.88 129.13 288.27 235.56 288.27 235.56 252.8 164.66 252.8"/>
    <polygon class="cls-1" points="306.46 110.9 129.15 110.9 129.15 164.11 164.61 164.11 164.61 146.52 271.01 146.52 271.01 252.8 253.3 252.8 253.3 288.27 306.46 288.27 306.46 110.9"/>
  </g>
</svg>