<?xml version="1.0" encoding="UTF-8"?>
<svg id="logos" xmlns="http://www.w3.org/2000/svg" viewBox="0 0 800 400">
  <defs>
    <style>
      .cls-1 {
        fill: #fff;
      }
    </style>
  </defs>
  <rect class="cls-1" x="668.46" y="209.34" width="10.76" height="10.75"/>
  <rect class="cls-1" x="723.32" y="208.72" width="11.96" height="11.98"/>
  <rect class="cls-1" x="671.23" y="101.15" width="5.22" height="5.24"/>
  <rect class="cls-1" x="668.03" y="153.43" width="11.6" height="11.62"/>
  <rect class="cls-1" x="694.82" y="180.23" width="13.5" height="13.5"/>
  <rect class="cls-1" x="642.88" y="183.75" width="6.44" height="6.45"/>
  <rect class="cls-1" x="754.41" y="212.1" width="5.24" height="5.23"/>
  <rect class="cls-1" x="555.22" y="96.1" width="15.35" height="15.34"/>
  <rect class="cls-1" x="641.8" y="99.47" width="8.61" height="8.62"/>
  <rect class="cls-1" x="586.33" y="127.2" width="8.61" height="8.6"/>
  <rect class="cls-1" x="612.37" y="153.26" width="11.98" height="11.98"/>
  <rect class="cls-1" x="639.66" y="125.06" width="12.9" height="12.9"/>
  <rect class="cls-1" x="637.97" y="151.1" width="16.28" height="16.28"/>
  <rect class="cls-1" x="608.4" y="204.74" width="19.94" height="19.94"/>
  <rect class="cls-1" x="615.75" y="101.15" width="5.24" height="5.24"/>
  <rect class="cls-1" x="588.02" y="73.41" width="5.24" height="5.24"/>
  <rect class="cls-1" x="610.69" y="179.3" width="15.36" height="15.35"/>
  <rect class="cls-1" x="637.97" y="206.58" width="16.28" height="16.28"/>
  <rect class="cls-1" x="556.3" y="124.91" width="13.2" height="13.2"/>
  <rect class="cls-1" x="529.18" y="125.51" width="11.98" height="11.98"/>
  <rect class="cls-1" x="584.64" y="97.79" width="11.98" height="11.98"/>
  <rect class="cls-1" x="611.92" y="125.06" width="12.91" height="12.9"/>
  <rect class="cls-1" x="553.08" y="149.42" width="19.63" height="19.64"/>
  <rect class="cls-1" x="558.6" y="71.73" width="8.6" height="8.6"/>
  <rect class="cls-1" x="582.95" y="151.56" width="15.35" height="15.35"/>
  <rect class="cls-1" x="530.87" y="99.47" width="8.62" height="8.62"/>
  <rect class="cls-1" x="528.11" y="152.17" width="14.13" height="14.13"/>
  <rect class="cls-1" x="472.78" y="180.03" width="13.82" height="13.81"/>
  <rect class="cls-1" x="580.69" y="177.04" width="19.88" height="19.88"/>
  <rect class="cls-1" x="697.27" y="154.94" width="8.61" height="8.61"/>
  <rect class="cls-1" x="668.66" y="181.81" width="10.33" height="10.33"/>
  <rect class="cls-1" x="503.14" y="293.61" width="8.61" height="8.61"/>
  <rect class="cls-1" x="614.06" y="71.73" width="8.62" height="8.6"/>
  <rect class="cls-1" x="697.27" y="210.41" width="8.61" height="8.61"/>
  <rect class="cls-1" x="524.82" y="176.63" width="20.71" height="20.71"/>
  <rect class="cls-1" x="698.96" y="267.57" width="5.23" height="5.23"/>
  <rect class="cls-1" x="643.48" y="295.31" width="5.23" height="5.23"/>
  <rect class="cls-1" x="560.28" y="45.69" width="5.23" height="5.24"/>
  <rect class="cls-1" x="504.81" y="73.41" width="5.23" height="5.24"/>
  <rect class="cls-1" x="697.27" y="238.14" width="8.62" height="8.61"/>
  <rect class="cls-1" x="669.96" y="238.58" width="7.75" height="7.74"/>
  <rect class="cls-1" x="560.27" y="350.77" width="5.25" height="5.23"/>
  <rect class="cls-1" x="504.81" y="323.04" width="5.25" height="5.23"/>
  <rect class="cls-1" x="584.64" y="319.66" width="11.98" height="11.98"/>
  <rect class="cls-1" x="530.87" y="44" width="8.61" height="8.61"/>
  <rect class="cls-1" x="614.06" y="265.89" width="8.62" height="8.6"/>
  <rect class="cls-1" x="586.32" y="293.61" width="8.61" height="8.61"/>
  <rect class="cls-1" x="615.74" y="323.03" width="5.24" height="5.23"/>
  <rect class="cls-1" x="669.53" y="127.2" width="8.62" height="8.6"/>
  <rect class="cls-1" x="640.72" y="264.8" width="10.78" height="10.77"/>
  <rect class="cls-1" x="610.51" y="234.58" width="15.74" height="15.74"/>
  <rect class="cls-1" x="556.91" y="319.66" width="11.98" height="11.98"/>
  <rect class="cls-1" x="530.87" y="321.35" width="8.62" height="8.6"/>
  <rect class="cls-1" x="611.3" y="290.86" width="14.13" height="14.12"/>
  <rect class="cls-1" x="553.55" y="260.82" width="18.7" height="18.72"/>
  <rect class="cls-1" x="528.14" y="69.01" width="14.06" height="14.07"/>
  <rect class="cls-1" x="582.96" y="262.52" width="15.35" height="15.34"/>
  <rect class="cls-1" x="527.5" y="290.25" width="15.35" height="15.34"/>
  <rect class="cls-1" x="527.5" y="262.52" width="15.35" height="15.34"/>
  <rect class="cls-1" x="580.81" y="232.62" width="19.66" height="19.64"/>
  <rect class="cls-1" x="668.88" y="265.23" width="9.92" height="9.91"/>
  <rect class="cls-1" x="477.08" y="267.57" width="5.22" height="5.23"/>
  <rect class="cls-1" x="473.71" y="236.46" width="11.96" height="11.97"/>
  <rect class="cls-1" x="474.16" y="209.19" width="11.05" height="11.04"/>
  <rect class="cls-1" x="477.06" y="156.62" width="5.24" height="5.23"/>
  <rect class="cls-1" x="476.04" y="127.85" width="7.32" height="7.32"/>
  <rect class="cls-1" x="640.11" y="236.46" width="11.98" height="11.97"/>
  <rect class="cls-1" x="556.91" y="291.93" width="11.98" height="11.98"/>
  <rect class="cls-1" x="497.52" y="204.8" width="19.82" height="19.83"/>
  <rect class="cls-1" x="500.98" y="263.73" width="12.91" height="12.9"/>
  <rect class="cls-1" x="499.71" y="234.72" width="15.46" height="15.46"/>
  <rect class="cls-1" x="499.76" y="179.3" width="15.35" height="15.35"/>
  <rect class="cls-1" x="503.13" y="99.47" width="8.61" height="8.62"/>
  <rect class="cls-1" x="502.64" y="126.71" width="9.58" height="9.58"/>
  <rect class="cls-1" x="499.29" y="151.1" width="16.27" height="16.27"/>
  <rect class="cls-1" x="524.82" y="232.09" width="20.71" height="20.72"/>
  <g>
    <path class="cls-1" d="M443.96,188.31v-17.83h-68.11v17.83h24v71.46h20.11v-71.46h24ZM328.44,199.7c0-7.78,2.54-12.34,12.47-12.34,6.44,0,15.28.81,23.06,2.15l2.82-17.56c-8.85-1.87-16.9-2.81-25.88-2.81-22.53,0-32.58,11.12-32.58,27.35v37.27c0,16.22,10.05,27.35,32.58,27.35,8.98,0,17.03-.94,25.88-2.82l-2.82-17.57c-7.78,1.34-16.62,2.15-23.06,2.15-9.92,0-12.47-4.56-12.47-12.34v-30.84ZM292.03,170.48h-20.11v89.29h20.11v-89.29Z"/>
    <path class="cls-1" d="M254.52,227.03c0-9.42-.97-12.33-14.47-15.34-5.64-1.26-6.02-1.66-6.02-4.57,0-2.14.97-3.21,5.05-3.21,3.69,0,8.84.58,13.02,1.36l1.26-10.87c-4.18-1.07-10.78-1.56-14.37-1.56-14.18,0-18.07,4.18-18.07,14.18,0,8.84,1.07,11.95,12.53,14.77,7.58,1.84,7.68,2.23,7.68,5.24,0,2.82-.68,3.98-4.86,3.98-5.24,0-10.39-.97-14.27-2.14l-2.24,10.4c4.66,1.55,12.05,2.82,17.19,2.82,13.5,0,17.58-5.34,17.58-15.06M212.7,227.03c0-9.42-.97-12.33-14.46-15.34-5.64-1.26-6.03-1.66-6.03-4.57,0-2.14.97-3.21,5.05-3.21,3.68,0,8.83.58,13.02,1.36l1.26-10.87c-4.18-1.07-10.78-1.56-14.37-1.56-14.18,0-18.07,4.18-18.07,14.18,0,8.84,1.07,11.95,12.53,14.77,7.58,1.84,7.67,2.23,7.67,5.24,0,2.82-.68,3.98-4.85,3.98-5.25,0-10.39-.97-14.28-2.14l-2.23,10.4c4.66,1.55,12.04,2.82,17.19,2.82,13.5,0,17.58-5.34,17.58-15.06M168.63,193.81h-13.98v47.3h13.98v-47.3ZM123.01,241.11h15.15l8.16-47.3h-12.83l-4.47,27.68-8.16-27.68h-13.99l-8.25,27.68-4.47-27.68h-12.82l8.16,47.3h15.16l9.13-30.88,9.22,30.88ZM75.12,227.03c0-9.42-.97-12.33-14.47-15.34-5.64-1.26-6.03-1.66-6.03-4.57,0-2.14.97-3.21,5.05-3.21,3.69,0,8.83.58,13.01,1.36l1.27-10.87c-4.18-1.07-10.78-1.56-14.37-1.56-14.18,0-18.07,4.18-18.07,14.18,0,8.84,1.07,11.95,12.53,14.77,7.58,1.84,7.68,2.23,7.68,5.24,0,2.82-.68,3.98-4.86,3.98-5.24,0-10.39-.97-14.27-2.14l-2.24,10.4c4.66,1.55,12.05,2.82,17.19,2.82,13.5,0,17.58-5.34,17.58-15.06"/>
    <rect class="cls-1" x="154.64" y="177.37" width="13.98" height="10.52"/>
  </g>
</svg>