<svg width="29" height="29" viewBox="0 0 29 29" fill="none" xmlns="http://www.w3.org/2000/svg">
<path d="M12.9062 13.7139L18.3762 18.0239L14.7562 9.09388L12.9062 13.7139Z" fill="#E6EDEF"/>
<path d="M14.5162 0.543884C6.78624 0.543884 0.516235 6.80388 0.516235 14.5339C0.516235 22.2639 6.78624 28.5239 14.5162 28.5239C22.2462 28.5239 28.5162 22.2639 28.5162 14.5339C28.5162 6.80388 22.2462 0.543884 14.5162 0.543884ZM20.2562 21.4939C19.9862 21.4939 19.7762 21.3839 19.4862 21.1539L12.2662 15.3239L9.84624 21.3839H7.75624L13.8762 6.68388C14.0362 6.29388 14.3762 6.09388 14.7662 6.09388C15.1562 6.09388 15.4662 6.29388 15.6262 6.68388L21.1962 20.0839C21.2562 20.2439 21.2962 20.4039 21.2862 20.4939C21.2862 21.0839 20.8062 21.4939 20.2662 21.4939H20.2562Z" fill="#E6EDEF"/>
</svg>
