<svg width="29" height="29" viewBox="0 0 29 29" fill="none" xmlns="http://www.w3.org/2000/svg">
<path d="M28.5162 14.5327C28.5162 22.2578 22.2493 28.5215 14.5162 28.5215C6.78494 28.5215 0.516235 22.2595 0.516235 14.5327C0.516235 6.80758 6.78494 0.543884 14.5162 0.543884C22.2493 0.545612 28.5162 6.80758 28.5162 14.5327Z" fill="#E6EDEF"/>
<path d="M14.7531 9.08953L18.375 18.0238L12.9032 13.7173L14.7531 9.08953ZM21.1895 20.0829L15.6175 6.6832C15.4584 6.29626 15.1403 6.09242 14.7548 6.09242C14.3676 6.09242 14.027 6.29626 13.8679 6.6832L7.74962 21.3803H9.8415L12.2618 15.3204L19.4866 21.1522C19.777 21.3872 19.9862 21.4925 20.2594 21.4925C20.8057 21.4925 21.2828 21.0831 21.2828 20.4941C21.2846 20.3991 21.25 20.2471 21.1895 20.0829Z" fill="white"/>
</svg>
