<svg width="29" height="37" viewBox="0 0 29 37" fill="none" xmlns="http://www.w3.org/2000/svg">
<g clip-path="url(#clip0_9251_16669)">
<path d="M11.1369 3.96325C11.1369 4.04667 11.1205 4.12927 11.0886 4.20634C11.0566 4.28341 11.0098 4.35344 10.9508 4.41243C10.8917 4.47141 10.8217 4.5182 10.7446 4.55013C10.6674 4.58205 10.5848 4.59848 10.5013 4.59848C10.4178 4.59848 10.3352 4.58205 10.2581 4.55013C10.1809 4.5182 10.1109 4.47141 10.0518 4.41243C9.99283 4.35344 9.94601 4.28341 9.91406 4.20634C9.88212 4.12927 9.86568 4.04667 9.86568 3.96325C9.86568 3.79548 9.93236 3.63459 10.0511 3.51597C10.1698 3.39734 10.3308 3.3307 10.4986 3.3307C10.6665 3.3307 10.8275 3.39734 10.9462 3.51597C11.0649 3.63459 11.1316 3.79548 11.1316 3.96325H11.1369ZM6.08407 20.5383C6.03834 20.5733 5.9807 20.5889 5.92352 20.5819C5.86635 20.5749 5.81421 20.5458 5.77832 20.5007C1.29403 14.781 3.89556 7.38332 8.95916 4.48859C8.9838 4.46774 9.01272 4.45256 9.04388 4.44414C9.07505 4.43572 9.10768 4.43426 9.13947 4.43986C9.17126 4.44546 9.20143 4.45798 9.22783 4.47655C9.25424 4.49511 9.27623 4.51925 9.29224 4.54726C9.30826 4.57527 9.31791 4.60646 9.32051 4.63862C9.3231 4.67078 9.31859 4.70311 9.30727 4.73333C9.29596 4.76354 9.27813 4.7909 9.25505 4.81345C9.23197 4.83601 9.2042 4.85321 9.17372 4.86383C4.30859 7.65135 1.83043 14.7542 6.12162 20.2327C6.13965 20.2551 6.153 20.2808 6.16089 20.3084C6.16878 20.336 6.17104 20.3649 6.16754 20.3934C6.16404 20.4219 6.15485 20.4494 6.14051 20.4743C6.12617 20.4992 6.10698 20.5209 6.08407 20.5383ZM9.95687 16.1801C10.1959 16.1801 10.4251 16.0852 10.5941 15.9163C10.7631 15.7474 10.858 15.5184 10.858 15.2795C10.858 15.0407 10.7631 14.8116 10.5941 14.6427C10.4251 14.4738 10.1959 14.3789 9.95687 14.3789C9.71787 14.3789 9.48866 14.4738 9.31966 14.6427C9.15066 14.8116 9.05572 15.0407 9.05572 15.2795C9.05572 15.5184 9.15066 15.7474 9.31966 15.9163C9.48866 16.0852 9.71787 16.1801 9.95687 16.1801ZM18.7806 16.1801C19.0196 16.1801 19.2488 16.0852 19.4178 15.9163C19.5868 15.7474 19.6818 15.5184 19.6818 15.2795C19.6818 15.0407 19.5868 14.8116 19.4178 14.6427C19.2488 14.4738 19.0196 14.3789 18.7806 14.3789C18.5416 14.3789 18.3124 14.4738 18.1434 14.6427C17.9744 14.8116 17.8795 15.0407 17.8795 15.2795C17.8795 15.5184 17.9744 15.7474 18.1434 15.9163C18.3124 16.0852 18.5416 16.1801 18.7806 16.1801Z" fill="#E6EDEF"/>
<path fill-rule="evenodd" clip-rule="evenodd" d="M1.33694 16.9413C1.25876 16.9965 1.16684 17.0292 1.0713 17.0355C0.97576 17.0419 0.880308 17.0219 0.795454 16.9775C0.7106 16.9332 0.639635 16.8663 0.590373 16.7842C0.541111 16.7022 0.515463 16.6081 0.516253 16.5124V11.3877C0.51744 11.2946 0.543624 11.2035 0.592072 11.124C0.640519 11.0444 0.709451 10.9793 0.791667 10.9355C0.873883 10.8917 0.966365 10.8707 1.05945 10.8748C1.15254 10.8789 1.24282 10.908 1.32085 10.9588C1.99567 7.96469 3.66944 5.28894 6.0672 3.37119C8.46495 1.45344 11.4441 0.407726 14.5152 0.405856C17.5863 0.403985 20.5667 1.44606 22.9668 3.3609C25.3669 5.27573 27.0439 7.94943 27.7224 10.9428C27.8017 10.8951 27.8922 10.8694 27.9848 10.8684C28.0773 10.8673 28.1684 10.891 28.2487 10.9369C28.3291 10.9827 28.3957 11.0492 28.4418 11.1294C28.4879 11.2096 28.5117 11.3006 28.5109 11.3931V16.5124C28.5116 16.6065 28.4868 16.6989 28.4392 16.78C28.3915 16.861 28.3227 16.9277 28.2402 16.9728C28.1576 17.0179 28.0644 17.0398 27.9704 17.0361C27.8764 17.0325 27.7851 17.0034 27.7063 16.952C27.2424 18.9597 26.3264 20.8352 25.0278 22.4358C23.7293 24.0363 22.0825 25.3198 20.2128 26.1883L20.2074 26.2795C20.445 26.6604 20.7637 26.9844 21.1408 27.2283C21.7167 27.5244 22.3457 27.7029 22.9914 27.7536C22.9914 27.7536 22.1385 28.1825 21.0979 28.086C20.4435 28.0324 20.1645 28.1932 20.0626 28.5149L20.1323 27.4588L20.0626 28.5095C19.9553 30.9057 19.8266 32.3155 19.7837 32.8087L19.7676 33.0124V33.066C19.7461 33.2 19.7247 33.4091 20.2504 33.6235C20.5454 33.7468 21.0389 33.8862 21.4626 34.0041C21.8917 34.1274 22.2458 34.2293 22.2458 34.2668C22.2458 34.3418 19.891 34.2668 19.891 34.2668C18.5392 34.2668 18.5392 33.259 18.5392 33.0124C18.5392 32.7658 18.1745 28.5524 18.1745 28.5524L18.0511 33.9934C18.0511 34.24 18.1745 34.6045 19.0327 34.8511C19.0327 34.8511 20.9101 35.1352 20.9101 35.2371C20.9101 35.3443 18.6626 35.2371 18.6626 35.2371C16.9569 35.2371 16.9569 34.24 16.9569 34.24L16.5868 29.78C16.5868 29.78 16.4634 34.24 16.4634 34.8511C16.4634 35.3335 16.5492 35.6981 17.8902 35.9447C18.1477 36.0197 18.5124 36.0948 18.8557 36.1698C19.376 36.277 19.8427 36.3842 19.8427 36.4378C19.8427 36.5236 16.8603 36.4378 16.8603 36.4378C15.2672 36.3145 15.117 35.2049 15.117 35.2049L14.5109 32.991L13.9101 35.2103C13.9101 35.2103 13.6634 36.3145 12.0649 36.4378C12.0649 36.4378 9.36146 36.5236 9.36146 36.4378C9.36146 36.3842 9.75304 36.2877 10.2197 36.1805C10.5254 36.1055 10.8634 36.0251 11.1316 35.9447C12.0649 35.6713 12.5584 35.3335 12.5584 34.8511C12.5584 34.24 12.435 29.78 12.435 29.78L12.0649 34.24C12.0649 34.24 12.0649 35.3335 10.3592 35.3335C10.3592 35.3335 7.92392 35.3389 7.92392 35.2371C7.92392 35.1298 9.97832 34.8511 9.97832 34.8511C10.8366 34.6045 10.9599 34.24 10.9599 33.9934L10.8419 28.5524C10.8419 28.5524 10.4664 32.7658 10.4664 33.0124C10.4664 33.259 10.4664 34.3633 9.12545 34.3633C9.12545 34.3633 6.85112 34.2507 6.85112 34.1703C6.85112 34.1328 7.13541 34.0631 7.50016 33.9773C7.91855 33.8808 8.44422 33.7575 8.76606 33.6235C9.28637 33.4091 9.26491 33.1947 9.24882 33.066V33.0124L8.94844 28.5577C8.84652 28.2468 8.57296 28.0753 7.91855 28.1289C7.26773 28.1789 6.61478 28.0646 6.0197 27.7965C6.66495 27.7475 7.29401 27.5708 7.87028 27.2766C8.23108 27.0476 8.51649 26.7176 8.69097 26.3277L8.6856 26.1133C6.85023 25.234 5.23657 23.9528 3.96439 22.365C2.69221 20.7772 1.79418 18.9234 1.33694 16.9413ZM20.2557 25.4539L20.3147 24.3389C20.4113 22.527 20.4971 20.951 20.5722 19.1177C21.175 18.8075 21.6832 18.341 22.0437 17.7671C22.4042 17.1932 22.6036 16.533 22.6212 15.8556C22.6387 15.1783 22.4737 14.5086 22.1434 13.9169C21.8132 13.3251 21.3298 12.833 20.7438 12.492V12.4223C20.7438 9.00222 18.1262 6.03244 14.4412 6.03244C10.7507 6.03244 8.30476 9.1148 8.30476 12.4169V12.4277C7.68673 12.7596 7.17331 13.2569 6.82193 13.8639C6.47055 14.4708 6.29507 15.1635 6.3151 15.8644C6.33514 16.5653 6.54992 17.2469 6.9354 17.8328C7.32088 18.4187 7.86188 18.8858 8.49786 19.182L8.66951 25.3843C6.08758 24.0658 4.0261 21.9156 2.81842 19.2813C1.61074 16.647 1.32747 13.6826 2.01442 10.8675C2.70136 8.05235 4.31835 5.55107 6.60392 3.76811C8.88949 1.98514 11.71 1.02473 14.6094 1.04217C17.5088 1.05961 20.3176 2.05388 22.5815 3.86421C24.8454 5.67454 26.4322 8.19509 27.0852 11.0183C27.7382 13.8415 27.4192 16.8022 26.1799 19.4218C24.9406 22.0414 22.8533 24.1667 20.2557 25.4539ZM16.7477 21.7122C16.7155 23.0792 16.1415 25.0948 14.3714 25.0948C12.5477 25.0948 12.0971 22.8165 12.0971 21.5889C12.0971 21.5889 12.9017 22.7254 14.3714 22.7254C15.8412 22.7254 16.7477 21.5889 16.7477 21.5889V21.7122ZM10.0963 18.7264C10.4866 18.7264 10.873 18.6496 11.2335 18.5003C11.5941 18.3511 11.9217 18.1323 12.1976 17.8565C12.4735 17.5808 12.6924 17.2534 12.8418 16.8931C12.9911 16.5328 13.068 16.1466 13.068 15.7566C13.068 15.3666 12.9911 14.9804 12.8418 14.6201C12.6924 14.2598 12.4735 13.9324 12.1976 13.6566C11.9217 13.3809 11.5941 13.1621 11.2335 13.0129C10.873 12.8636 10.4866 12.7868 10.0963 12.7868C9.3082 12.7868 8.55235 13.0997 7.99506 13.6566C7.43777 14.2136 7.12468 14.969 7.12468 15.7566C7.12468 16.5442 7.43777 17.2996 7.99506 17.8565C8.55235 18.4135 9.3082 18.7264 10.0963 18.7264ZM18.8396 18.7264C19.2299 18.7264 19.6163 18.6496 19.9768 18.5003C20.3374 18.3511 20.665 18.1323 20.9409 17.8565C21.2168 17.5808 21.4357 17.2534 21.5851 16.8931C21.7344 16.5328 21.8113 16.1466 21.8113 15.7566C21.8113 15.3666 21.7344 14.9804 21.5851 14.6201C21.4357 14.2598 21.2168 13.9324 20.9409 13.6566C20.665 13.3809 20.3374 13.1621 19.9768 13.0129C19.6163 12.8636 19.2299 12.7868 18.8396 12.7868C18.0515 12.7868 17.2956 13.0997 16.7384 13.6566C16.1811 14.2136 15.868 14.969 15.868 15.7566C15.868 16.5442 16.1811 17.2996 16.7384 17.8565C17.2956 18.4135 18.0515 18.7264 18.8396 18.7264Z" fill="#E6EDEF"/>
</g>
<defs>
<clipPath id="clip0_9251_16669">
<rect width="28" height="36.0769" fill="white" transform="translate(0.516235 0.398438)"/>
</clipPath>
</defs>
</svg>
