<svg width="29" height="31" viewBox="0 0 29 31" fill="none" xmlns="http://www.w3.org/2000/svg">
<g clip-path="url(#clip0_9251_16668)">
<path d="M11.954 19.9954L9.51853 15.6859L11.954 11.3765H16.8028L19.2383 15.6859L16.8028 19.9954H11.954Z" fill="#E6EDEF"/>
<path d="M11.954 30.4228L9.51853 26.1133L11.954 21.8038H16.8028L19.2383 26.1133L16.8028 30.4228H11.954Z" fill="#E6EDEF"/>
<path d="M11.954 9.56795L9.51853 5.25852L11.954 0.949066H16.8028L19.2383 5.25852L16.8028 9.56795H11.954Z" fill="#E6EDEF"/>
<path d="M20.9598 25.2088L18.5243 20.8993L20.9598 16.5899H25.8086L28.2441 20.8993L25.8086 25.2088H20.9598Z" fill="#E6EDEF"/>
<path d="M20.9598 14.7814L18.5243 10.472L20.9598 6.16254H25.8086L28.2441 10.472L25.8086 14.7814H20.9598Z" fill="#E6EDEF"/>
<path d="M2.95174 25.2088L0.516235 20.8994L2.95174 16.5899H7.80047L10.236 20.8994L7.80047 25.2088H2.95174Z" fill="#E6EDEF"/>
<path d="M2.95174 14.7814L0.516235 10.472L2.95174 6.16254H7.80047L10.236 10.472L7.80047 14.7814H2.95174Z" fill="#E6EDEF"/>
<path d="M40.6395 10.5882C41.0884 10.5914 41.5357 10.6429 41.974 10.7422C42.3894 10.8322 42.7405 10.9946 43.0818 11.1662V12.4938C42.7021 12.3533 42.3156 12.2331 41.9237 12.1337C41.5338 12.0437 41.1819 11.9797 40.7912 11.9797C40.4006 11.9797 40.0247 12.0437 39.6332 12.1598C39.2417 12.2759 38.9161 12.4938 38.5889 12.8017C38.2872 13.1096 38.0473 13.4958 37.8471 13.9837C37.6707 14.4717 37.5833 15.0757 37.5833 15.8077C37.5833 16.3125 37.6459 16.8173 37.7976 17.2716C37.9332 17.6943 38.1466 18.0866 38.4265 18.4275C38.7034 18.7615 39.0554 19.0055 39.4337 19.1847C39.8491 19.3647 40.3272 19.4539 40.8679 19.4539C41.2577 19.4539 41.6344 19.4287 42.063 19.3386C42.4557 19.2422 42.8424 19.122 43.221 18.9786V20.3146C43.1081 20.3785 42.9573 20.4685 42.7809 20.5333C42.6045 20.5981 42.391 20.6486 42.152 20.7134C41.9377 20.7773 41.7119 20.8034 41.4349 20.8286L40.6931 20.8926C40.0634 20.9012 39.4371 20.797 38.8428 20.5846C38.2861 20.3752 37.7703 20.0664 37.3196 19.6727C36.8767 19.2258 36.5333 18.6869 36.3124 18.0927C36.0651 17.4507 35.9225 16.7298 35.9225 15.8447C35.9225 15.2028 35.9851 14.6248 36.1368 14.1116C36.2497 13.6068 36.4385 13.1357 36.6783 12.7487C36.9182 12.3617 37.1728 12.0168 37.4836 11.7391C37.7814 11.4749 38.111 11.2504 38.4644 11.0711C38.8164 10.8911 39.1815 10.7632 39.5343 10.6732L40.642 10.5705L40.6395 10.5882ZM45.6358 8.58425V6.78551H47.2023V8.58425H45.6358ZM45.6608 20.6469V10.8583H47.2268V20.6544L45.6608 20.6469ZM50.4562 20.6553V5.73221H52.0222V20.6544L50.4562 20.6553ZM55.2177 8.58425V6.78551H56.7837V8.58425H55.2177ZM55.2422 20.6469V10.8583H56.8087V20.6544L55.2422 20.6469ZM63.7716 20.8993C63.3224 20.8999 62.8749 20.8483 62.4373 20.7453C62.0725 20.6395 61.7215 20.4886 61.3929 20.2961C61.091 20.0773 60.8266 19.872 60.6261 19.5641C60.4073 19.2941 60.2399 18.9848 60.1318 18.6521C60.0434 18.3997 59.9809 18.1474 59.9175 17.8302L59.855 16.8543V10.8684H61.421V16.8543C61.421 17.407 61.4835 17.8638 61.6353 18.2172C61.7858 18.6412 62.0506 18.9491 62.4016 19.1931C62.753 19.4371 63.2326 19.5532 63.7734 19.5532C64.365 19.5532 64.8433 19.4379 65.2072 19.1552C65.56 18.886 65.8364 18.5512 65.9739 18.0893C66.0869 17.7553 66.1503 17.3321 66.1503 16.8442V10.8541H67.7163V16.866C67.7163 17.1712 67.6958 17.4759 67.6538 17.778C67.6292 18.0459 67.5698 18.3093 67.4774 18.5613C67.3644 18.8953 67.1755 19.2032 66.9826 19.4993C66.7683 19.7686 66.5048 20.0041 66.2164 20.2313C65.9145 20.45 65.5617 20.5914 65.1465 20.7192C64.699 20.8405 64.2378 20.901 63.7747 20.8993H63.7716ZM78.4716 20.6469H76.9056V14.3446C76.907 13.9752 76.8561 13.6074 76.7547 13.2526C76.6667 12.9447 76.5404 12.6999 76.3649 12.5207C76.1876 12.335 75.9732 12.1903 75.7361 12.0967C75.4887 12.0067 75.2414 11.9814 74.9306 11.9814C74.3644 11.9814 73.8611 12.1354 73.4074 12.4307C72.9676 12.7386 72.5389 13.1626 72.1879 13.7027V20.6654H70.6273V10.8583H71.8472L72.1491 12.2212H72.1736L72.7399 11.5793C72.9542 11.3993 73.1801 11.2192 73.4199 11.0745C73.6771 10.9171 73.9576 10.8042 74.2509 10.7405C74.5524 10.6505 74.8797 10.6252 75.24 10.6252C75.9572 10.6252 76.5488 10.8053 77.0266 11.13C77.5049 11.4901 77.8576 11.952 78.1345 12.556H78.1595C78.5748 11.952 79.0785 11.464 79.6183 11.13C80.1582 10.796 80.8133 10.6252 81.5188 10.6252C81.8461 10.6252 82.1989 10.6892 82.5887 10.7792C82.9786 10.8692 83.3059 11.0484 83.6332 11.284C83.9601 11.5195 84.1994 11.888 84.3994 12.3499C84.6138 12.7992 84.7268 13.378 84.7268 14.1099V20.6746H83.2166V14.3674C83.2179 13.9978 83.1674 13.6301 83.0661 13.2754C82.9777 12.9674 82.8517 12.7226 82.6763 12.5434C82.4985 12.3577 82.2842 12.2131 82.0471 12.1194C81.7997 12.0294 81.5528 12.0041 81.242 12.0041C80.6758 12.0041 80.1721 12.1581 79.7188 12.4534C79.2785 12.7613 78.8499 13.1854 78.4725 13.7255L78.4716 20.6469Z" fill="#E6EDEF"/>
</g>
<defs>
<clipPath id="clip0_9251_16668">
<rect width="28" height="30" fill="white" transform="translate(0.516235 0.475372)"/>
</clipPath>
</defs>
</svg>
