<svg width="64" height="24" viewBox="0 0 64 24" fill="none" xmlns="http://www.w3.org/2000/svg">
<g clip-path="url(#clip0_9251_16666)">
<path d="M4.75688 7.08479C4.63412 7.08479 4.60343 7.02381 4.66481 6.93233L5.30929 6.10902C5.37067 6.01755 5.52411 5.95656 5.64687 5.95656H16.603C16.7258 5.95656 16.7565 6.04804 16.6951 6.13952L16.1734 6.93233C16.112 7.02381 15.9586 7.11529 15.8665 7.11529L4.75688 7.08479Z" fill="#E6EDEF"/>
<path d="M0.122758 9.89013C0 9.89013 -0.0306895 9.82914 0.0306895 9.73766L0.675169 8.91436C0.736548 8.82288 0.889996 8.7619 1.01275 8.7619H15.0072C15.1299 8.7619 15.1913 8.85337 15.1606 8.94485L14.9151 9.67668C14.8844 9.79865 14.7617 9.85964 14.6389 9.85964L0.122758 9.89013Z" fill="#E6EDEF"/>
<path d="M7.54962 12.6955C7.42686 12.6955 7.39617 12.604 7.45755 12.5125L7.88721 11.7502C7.94859 11.6587 8.07134 11.5672 8.1941 11.5672H14.332C14.4548 11.5672 14.5161 11.6587 14.5161 11.7807L14.4548 12.5125C14.4548 12.6345 14.332 12.726 14.2399 12.726L7.54962 12.6955Z" fill="#E6EDEF"/>
<path d="M39.4053 6.53592C37.4719 7.02381 36.1523 7.38972 34.2495 7.8776C33.7892 7.99958 33.7585 8.03007 33.3595 7.57268C32.8992 7.0543 32.5616 6.71888 31.9171 6.41395C29.9837 5.46868 28.1116 5.74311 26.3623 6.87134C24.2754 8.21303 23.2013 10.1951 23.232 12.665C23.2627 15.1044 24.9506 17.1169 27.3751 17.4523C29.4619 17.7268 31.2112 16.9949 32.5923 15.4398C32.8685 15.1044 33.114 14.7385 33.4209 14.3116C32.3161 14.3116 30.935 14.3116 27.4978 14.3116C26.8533 14.3116 26.6999 13.9152 26.9147 13.3968C27.3137 12.4515 28.0502 10.8659 28.4799 10.0731C28.5719 9.89013 28.7868 9.5852 29.2471 9.5852C30.8123 9.5852 36.5819 9.5852 40.4181 9.5852C40.3567 10.4085 40.3567 11.2318 40.234 12.0551C39.8964 14.2506 39.0678 16.2631 37.7174 18.0317C35.5078 20.9285 32.623 22.7276 28.9709 23.2155C25.9633 23.6119 23.1706 23.0325 20.7154 21.2029C18.4444 19.4954 17.1554 17.2389 16.8179 14.4336C16.4189 11.1098 17.401 8.12155 19.4265 5.49917C21.6054 2.66334 24.4902 0.864265 28.0195 0.223917C30.9043 -0.294461 33.6664 0.0409599 36.1523 1.71806C37.7788 2.78531 38.945 4.24896 39.7122 6.01755C39.8964 6.29198 39.7736 6.44444 39.4053 6.53592Z" fill="#E6EDEF"/>
<path d="M49.5636 23.3984C46.7708 23.3374 44.2236 22.5446 42.0753 20.7151C40.2647 19.1599 39.1291 17.1779 38.7609 14.83C38.2085 11.3843 39.1598 8.335 41.2467 5.62114C43.487 2.69383 46.1877 1.16919 49.8398 0.528845C52.9701 -0.0200256 55.9163 0.284902 58.5863 2.08398C61.0108 3.73059 62.5146 5.95656 62.9135 8.88387C63.4352 13.0004 62.2383 16.3546 59.3842 19.2209C57.3587 21.2639 54.8729 22.5446 52.0187 23.124C51.1901 23.2765 50.3615 23.307 49.5636 23.3984ZM56.8677 11.0793C56.837 10.6829 56.837 10.378 56.7756 10.0731C56.2232 7.0543 53.4305 5.3467 50.5149 6.01755C47.6608 6.65789 45.8195 8.45697 45.1443 11.3233C44.5919 13.7017 45.7581 16.1107 47.9677 17.0864C49.6556 17.8183 51.3436 17.7268 52.9701 16.9035C55.3946 15.6533 56.7142 13.7017 56.8677 11.0793Z" fill="#E6EDEF"/>
</g>
<defs>
<clipPath id="clip0_9251_16666">
<rect width="63.0325" height="23.3984" fill="white"/>
</clipPath>
</defs>
</svg>
