 <svg width="110" height="42" viewBox="0 0 110 42" xmlns="http://www.w3.org/2000/svg"><g fill="#F2F2F2" fill-rule="nonzero"><path d="M8.301 12.836c-.214 0-.267-.107-.16-.267l1.124-1.446c.108-.161.375-.268.59-.268h19.12c.214 0 .267.16.16.321l-.91 1.393c-.107.16-.375.321-.536.321l-19.388-.054ZM.214 17.764c-.214 0-.268-.107-.16-.268l1.124-1.446c.107-.16.375-.268.59-.268h24.421c.215 0 .322.16.268.321l-.428 1.286c-.054.214-.268.321-.482.321l-25.333.054ZM13.175 22.691c-.214 0-.268-.16-.16-.321l.75-1.34c.106-.16.32-.32.535-.32H25.01c.214 0 .322.16.322.374l-.108 1.286c0 .214-.214.375-.374.375l-11.676-.054ZM68.767 11.872c-3.374.857-5.677 1.5-8.997 2.357-.803.214-.857.268-1.553-.536-.804-.91-1.393-1.5-2.517-2.035-3.375-1.66-6.642-1.178-9.694.804-3.642 2.356-5.517 5.837-5.463 10.175.053 4.285 2.999 7.82 7.23 8.409 3.642.482 6.695-.803 9.105-3.535.482-.589.91-1.232 1.446-1.981H47.987c-1.124 0-1.392-.697-1.017-1.607.696-1.66 1.981-4.445 2.731-5.838.16-.321.536-.857 1.339-.857h19.495c-.107 1.446-.107 2.892-.321 4.338-.59 3.856-2.036 7.391-4.392 10.497-3.856 5.088-8.89 8.248-15.264 9.105-5.249.696-10.122-.321-14.407-3.535-3.963-2.999-6.213-6.962-6.802-11.89-.696-5.837 1.018-11.086 4.553-15.692 3.802-4.98 8.837-8.14 14.996-9.265 5.034-.91 9.854-.321 14.192 2.624 2.839 1.875 4.874 4.446 6.213 7.552.321.482.107.75-.536.91Z"/><path d="M86.495 41.49c-4.874-.108-9.319-1.5-13.068-4.713-3.16-2.732-5.142-6.213-5.784-10.337-.964-6.052.696-11.408 4.338-16.174 3.91-5.142 8.623-7.82 14.996-8.944C92.44.358 97.58.893 102.24 4.053c4.23 2.892 6.855 6.802 7.551 11.943.91 7.23-1.178 13.122-6.159 18.156-3.535 3.589-7.873 5.838-12.853 6.856-1.447.267-2.893.32-4.285.482Zm12.747-21.638c-.054-.696-.054-1.231-.161-1.767-.964-5.302-5.838-8.301-10.926-7.123-4.98 1.125-8.194 4.285-9.372 9.319-.964 4.177 1.07 8.408 4.927 10.122 2.946 1.286 5.891 1.125 8.73-.321 4.23-2.196 6.534-5.624 6.802-10.23Z"/></g></svg>