<svg width="29" height="29" viewBox="0 0 29 29" fill="none" xmlns="http://www.w3.org/2000/svg">
<g clip-path="url(#clip0_9251_16665)">
<path d="M22.2757 22.936C23.097 24.1085 23.3957 25.3149 22.9442 25.631C22.4927 25.9472 21.4614 25.253 20.64 24.0805C20.3379 23.6489 20.108 23.2125 19.9587 22.8182C18.61 23.7189 17.0502 24.2859 15.411 24.4515C15.5055 24.8482 15.5627 25.3114 15.5627 25.8119C15.5627 27.2434 15.1159 28.403 14.564 28.403C14.0122 28.403 13.5654 27.2434 13.5654 25.8119C13.5654 25.3219 13.6202 24.8704 13.7112 24.4795C12.0615 24.364 10.4854 23.8414 9.10988 22.9815C8.96171 23.3327 8.75988 23.706 8.49855 24.0805C7.67721 25.253 6.64588 25.9472 6.19438 25.631C5.74288 25.3149 6.04155 24.1085 6.86288 22.936C7.13822 22.5429 7.43688 22.2104 7.72971 21.9444C7.16155 21.4345 6.64705 20.8582 6.20255 20.2189L7.51388 19.3065C9.08305 21.5629 11.6602 22.9092 14.4065 22.9092C17.1599 22.9092 19.7394 21.5582 21.3085 19.2949L22.621 20.2049C22.215 20.7905 21.7495 21.3214 21.2409 21.7985C21.5862 22.0797 21.9467 22.467 22.2757 22.936ZM7.83938 7.03554C7.14521 7.64221 6.52805 8.34571 6.01238 9.14371L7.35405 10.0105C8.90805 7.60487 11.5447 6.16871 14.4077 6.16871C17.3652 6.16871 20.0485 7.67837 21.5839 10.2065L22.9489 9.37704C22.4414 8.54171 21.8254 7.80321 21.1289 7.16621C21.5069 6.88037 21.9117 6.46271 22.2757 5.94237C23.097 4.76987 23.3957 3.56354 22.9442 3.24737C22.4927 2.93121 21.4614 3.62537 20.64 4.79787C20.297 5.28671 20.052 5.77787 19.9085 6.21187C18.5645 5.32404 17.0094 4.77454 15.3585 4.62054C15.4845 4.18654 15.5627 3.65221 15.5627 3.06537C15.5627 1.63504 15.1159 0.475372 14.564 0.475372C14.0122 0.475372 13.5654 1.63504 13.5654 3.06654C13.5654 3.63937 13.6389 4.16437 13.7602 4.59254C12.1117 4.69754 10.5437 5.20504 9.17521 6.04737C9.02588 5.65537 8.79838 5.22487 8.49855 4.79787C7.67838 3.62537 6.64705 2.93237 6.19555 3.24854C5.74405 3.56471 6.04271 4.77104 6.86405 5.94354C7.17321 6.38454 7.51271 6.75787 7.83938 7.03554ZM1.09955 18.2927H3.02221V15.4087H5.19105V18.2939H7.11372V11.0255H5.19221V13.731H3.02221V11.0255H1.09955V18.2927ZM8.72488 11.0255V18.2927H13.5327V16.6827H10.6475V15.3854H13.0182V13.7754H10.6475V12.6344H13.4207V11.0244L8.72488 11.0255ZM14.9409 11.0255V18.2927H19.6145V16.6827H16.8635V11.0255H14.9409ZM20.8664 11.0255V18.2927H22.6327V16.146C22.6327 15.9594 22.6234 15.7552 22.6047 15.5312C22.586 15.3072 22.565 15.0785 22.5429 14.844C22.5207 14.6095 22.4939 14.3797 22.4647 14.1569C22.4344 13.9329 22.4087 13.7322 22.3865 13.5537H22.4309L23.0119 15.2535L24.0187 17.7024H24.7339L25.7395 15.2535L26.3427 13.5537H26.387C26.3649 13.7322 26.338 13.934 26.3089 14.158C26.2785 14.382 26.2529 14.6107 26.2307 14.8452C26.2085 15.0797 26.1875 15.3095 26.1689 15.5324C26.1502 15.7564 26.1409 15.9605 26.1409 16.1472V18.2939H27.9329V11.0255H25.9425L24.847 14.0449L24.4445 15.2302H24.4002L23.9977 14.0449L22.8567 11.0255H20.8664Z" fill="#E6EDEF"/>
</g>
<defs>
<clipPath id="clip0_9251_16665">
<rect width="28" height="28" fill="white" transform="translate(0.516235 0.475372)"/>
</clipPath>
</defs>
</svg>
