<svg width="75" height="74" viewBox="0 0 75 74" xmlns="http://www.w3.org/2000/svg"><g fill="#E6E6E6" fill-rule="nonzero"><path d="M29.28 37.472c.266-.074.522-.234.714-.47a1.383 1.383 0 0 0-.17-1.899l.01-.032-6.125-5.485a16.141 16.141 0 0 0-2.284 10.17l7.854-2.262v-.022Z"/><path d="m74.879 44.676-6.446-27.981a4.97 4.97 0 0 0-2.7-3.35L39.652.88A4.984 4.984 0 0 0 37.229.4a5.146 5.146 0 0 0-1.91.48L9.25 13.333a4.97 4.97 0 0 0-2.7 3.351L.124 44.676a4.938 4.938 0 0 0 .96 4.183L19.13 71.301a5.008 5.008 0 0 0 3.896 1.857l28.94-.01a4.992 4.992 0 0 0 3.896-1.857l18.045-22.443a4.899 4.899 0 0 0 .972-4.172Zm-9.925-.342c-.192.833-1.088 1.345-2.017 1.142h-.021c-.01 0-.022-.01-.032-.01-.128-.033-.288-.054-.406-.086-.533-.139-.918-.352-1.398-.544-1.035-.374-1.889-.683-2.721-.8-.427-.033-.64.17-.875.32-.117-.022-.47-.086-.662-.118a20.355 20.355 0 0 1-8.996 11.323c.075.181.203.565.256.63-.096.266-.245.512-.117.917.299.79.79 1.558 1.387 2.476.288.427.577.758.833 1.248.064.118.138.3.202.417.406.853.107 1.846-.661 2.22-.78.373-1.74-.022-2.156-.886-.064-.118-.139-.289-.192-.406-.224-.501-.299-.939-.448-1.43-.352-1.035-.64-1.9-1.067-2.625-.235-.352-.534-.395-.8-.48-.054-.086-.235-.427-.332-.598-.864.33-1.75.598-2.678.811a20.22 20.22 0 0 1-11.728-.843l-.352.64c-.267.075-.513.14-.673.331-.565.683-.8 1.772-1.205 2.807-.16.49-.225.928-.449 1.43-.053.117-.138.277-.192.395-.416.864-1.376 1.248-2.155.875-.769-.374-1.068-1.356-.662-2.22.064-.128.139-.299.203-.416.256-.491.555-.822.832-1.249.587-.928 1.11-1.75 1.409-2.54.074-.256-.032-.619-.139-.885l.288-.683c-4.151-2.465-7.438-6.382-8.996-11.237l-.683.117c-.181-.107-.544-.342-.896-.32-.833.117-1.686.427-2.722.8-.48.182-.864.395-1.398.534a4.53 4.53 0 0 1-.405.085c-.01 0-.021.01-.032.01h-.021c-.929.204-1.825-.309-2.017-1.141-.192-.832.405-1.675 1.323-1.9.01 0 .021 0 .021-.01h.01c.129-.032.3-.075.417-.096.544-.107.982-.075 1.494-.118 1.089-.117 1.996-.202 2.796-.459.256-.106.502-.458.672-.672l.651-.192c-.736-5.069.513-10.053 3.18-14.076l-.501-.448c-.032-.192-.075-.64-.31-.896-.619-.577-1.387-1.057-2.326-1.633-.448-.256-.854-.427-1.291-.758-.096-.074-.224-.181-.32-.256l-.022-.021c-.747-.598-.917-1.622-.384-2.305.299-.384.768-.566 1.249-.555.373.01.757.15 1.088.405.107.086.256.192.342.278.416.363.672.715 1.024 1.088.768.78 1.409 1.43 2.102 1.9.363.213.651.128.929.085.085.064.395.278.565.406a20.073 20.073 0 0 1 10.202-5.827c.94-.213 1.89-.352 2.818-.438l.032-.661c.202-.203.437-.491.512-.811.064-.843-.043-1.74-.17-2.828-.075-.512-.193-.929-.214-1.483v-.449c0-.96.693-1.728 1.558-1.728.864 0 1.558.779 1.558 1.728 0 .139.01.32 0 .449-.021.554-.139.97-.214 1.483-.128 1.088-.245 1.995-.181 2.828.064.416.31.587.512.779 0 .117.022.49.032.693 4.963.438 9.573 2.711 12.956 6.265l.597-.427c.203.01.64.075.95-.107.694-.47 1.334-1.12 2.102-1.9.352-.373.608-.725 1.035-1.088.096-.085.246-.192.342-.277.747-.598 1.793-.534 2.326.138.534.673.363 1.708-.384 2.305-.107.086-.245.203-.341.278-.449.33-.854.501-1.302.758-.929.576-1.708 1.056-2.327 1.632-.288.31-.267.609-.299.886-.085.075-.394.352-.554.502a20.2 20.2 0 0 1 2.924 6.755c.565 2.465.65 4.92.33 7.288l.63.182c.117.16.341.555.672.672.8.256 1.708.342 2.796.459.512.043.95.021 1.494.117.128.022.32.075.448.107.95.256 1.537 1.11 1.345 1.942Z"/><path d="M39.93 30.205c.01.278.106.555.298.8a1.386 1.386 0 0 0 1.889.257l.021.01 6.67-4.727a16.163 16.163 0 0 0-9.348-4.504l.47 8.164ZM31.958 43.278a1.386 1.386 0 0 0-1.324-1.067c-.085 0-.181.01-.266.021l-.011-.021-8.057 1.366a16.212 16.212 0 0 0 6.488 8.12l3.116-7.544-.021-.032c.117-.256.15-.555.075-.843ZM35.234 39.874l2.262 1.088 2.252-1.078.565-2.443-1.558-1.943h-2.518l-1.558 1.943zM32.865 31.283c.224.17.512.267.81.267.737 0 1.345-.587 1.377-1.313l.032-.021.46-8.185c-.556.064-1.11.16-1.666.288a16.153 16.153 0 0 0-7.747 4.215l6.712 4.76.022-.011ZM38.713 46.234a1.325 1.325 0 0 0-.62-.587 1.39 1.39 0 0 0-.64-.139c-.48.021-.928.278-1.163.726h-.01l-3.96 7.16a16.048 16.048 0 0 0 8.804.449 15.93 15.93 0 0 0 1.59-.449l-3.98-7.16h-.021ZM51.252 29.597l-6.094 5.453v.021a1.342 1.342 0 0 0-.437.726c-.16.726.267 1.44.982 1.633l.01.032 7.897 2.273c.17-1.708.064-3.468-.341-5.23a16.411 16.411 0 0 0-2.017-4.908ZM44.603 42.19c-.106-.022-.213-.033-.32-.022-.181.01-.352.053-.523.139a1.37 1.37 0 0 0-.661 1.782l-.011.01 3.159 7.62a16.156 16.156 0 0 0 6.51-8.174l-8.132-1.377-.022.021Z"/></g></svg>