<svg width="29" height="26" viewBox="0 0 29 26" fill="none" xmlns="http://www.w3.org/2000/svg">
<g clip-path="url(#clip0_9251_16659)">
<path d="M11.1197 15.5004L8.12005 16.0117C8.5445 17.2163 9.39189 18.2702 10.4523 18.9634L11.6041 16.1936C11.6641 16.1027 11.6641 15.9834 11.6341 15.8925C11.6041 15.651 11.3611 15.5004 11.1197 15.5004Z" fill="#E6EDEF"/>
<path d="M10.9367 13.6027C11.1182 13.3925 11.0882 13.0914 10.8767 12.9095L8.63449 10.9223C7.96857 12.0359 7.66561 13.3314 7.7556 14.5955L10.6937 13.7518C10.8152 13.722 10.8752 13.6921 10.9367 13.6012V13.6027Z" fill="#E6EDEF"/>
<path d="M12.27 11.6454C12.543 11.6454 12.7844 11.4352 12.7844 11.1638L12.9359 8.15253L12.33 8.27328C11.2696 8.51478 10.3008 9.05592 9.51187 9.80875L12.027 11.5857C12.1185 11.6155 12.1785 11.6454 12.27 11.6454Z" fill="#E6EDEF"/>
<path d="M12.8759 14.6567L13.6948 15.0487L14.5122 14.6567L14.7237 13.7846L14.1493 13.0616H13.2404L12.6645 13.7846L12.8759 14.6567Z" fill="#E6EDEF"/>
<path d="M14.6637 11.4352C14.8152 11.6453 15.1181 11.6767 15.3296 11.5559L17.8133 9.80875C16.9044 8.90536 15.7226 8.33291 14.3892 8.18234L14.5707 11.2235C14.5707 11.3144 14.6007 11.374 14.6622 11.4337L14.6637 11.4352Z" fill="#E6EDEF"/>
<path d="M15.967 15.5302C15.7556 15.6212 15.6341 15.8612 15.6941 16.1027L16.8759 18.9336C17.6033 18.4819 18.2392 17.8498 18.6937 17.1268C18.9367 16.7959 19.1181 16.4038 19.2696 15.9819L16.24 15.4706C16.1485 15.4706 16.0585 15.5004 15.967 15.5302Z" fill="#E6EDEF"/>
<path d="M26.9951 15.9819L24.6929 6.13406C24.5414 5.65255 24.1785 5.26048 23.724 5.02047L14.4822 0.624259C14.2393 0.503509 13.9678 0.473694 13.7248 0.473694C13.4819 0.473694 13.2104 0.473694 12.9674 0.533324L3.72712 4.96084C3.27268 5.17104 2.93972 5.5631 2.81824 6.07443L0.546031 15.9819C0.454543 16.4933 0.576027 17.0061 0.878988 17.428L7.27116 25.2872C7.63411 25.6479 8.15005 25.8894 8.66448 25.9193H18.8437C19.3896 25.9789 19.904 25.7389 20.237 25.2872L26.6292 17.428C26.9321 17.0061 27.0536 16.4947 26.9921 15.9819H26.9951ZM23.2081 16.6453C23.1481 16.6453 23.1166 16.6453 23.0566 16.6155C23.0366 16.5956 23.0166 16.5857 22.9966 16.5857C22.9366 16.5857 22.9051 16.5559 22.8751 16.5559C22.7537 16.5261 22.6637 16.4649 22.5422 16.4053C22.4822 16.4053 22.4207 16.3755 22.3607 16.3457H22.3307C22.0278 16.2249 21.6948 16.1355 21.3618 16.0744H21.3318C21.2404 16.0744 21.1504 16.1042 21.0889 16.1653C21.0889 16.1653 21.0889 16.1951 21.0589 16.1951L20.8159 16.1653C20.27 17.8811 19.0896 19.3272 17.5433 20.2604L17.6348 20.5019C17.6348 20.5019 17.6048 20.5019 17.6048 20.5317C17.5448 20.6226 17.5448 20.7419 17.5748 20.8328C17.6963 21.134 17.8478 21.4351 18.0593 21.7064V21.766C18.1193 21.8257 18.1508 21.857 18.1807 21.9166C18.2722 22.0075 18.3322 22.097 18.3922 22.2177C18.4222 22.2475 18.4522 22.2774 18.4522 22.3087C18.4522 22.3087 18.4822 22.3087 18.4822 22.3385C18.5422 22.489 18.5422 22.6396 18.5122 22.7902C18.4822 22.9407 18.3607 23.0615 18.2392 23.1211C18.1478 23.1509 18.0878 23.1807 17.9963 23.1807C17.7533 23.1807 17.5418 23.0302 17.4203 22.82C17.3904 22.82 17.3904 22.7902 17.3904 22.7902C17.3604 22.7604 17.3604 22.7305 17.3304 22.6992C17.2704 22.6083 17.2389 22.489 17.2089 22.3683L17.1489 22.1879V22.1581C17.0574 21.8272 16.9059 21.526 16.7544 21.2249C16.6944 21.134 16.603 21.0743 16.5115 21.0445C16.5115 21.0246 16.5015 21.0147 16.4815 21.0147L16.36 20.8045C16.057 20.8954 15.7241 21.0147 15.3911 21.0758C14.8452 21.2264 14.3008 21.286 13.7548 21.286C12.8459 21.286 11.9671 21.1354 11.1197 20.8045L10.9982 21.046C10.9982 21.0659 10.9882 21.0758 10.9682 21.0758C10.8767 21.1056 10.7867 21.1667 10.7252 21.2562C10.5737 21.5573 10.4223 21.8585 10.3308 22.1894L10.2708 22.3698C10.2408 22.4905 10.1793 22.58 10.1493 22.7007C10.1193 22.7305 10.0893 22.7604 10.0893 22.7917C10.0593 22.7917 10.0593 22.8215 10.0593 22.8215C9.93782 23.0317 9.72634 23.1822 9.48338 23.1822C9.42338 23.1822 9.33189 23.1524 9.2719 23.1226C8.99894 22.972 8.87745 22.6113 9.02893 22.3102C9.05893 22.3102 9.05893 22.2803 9.05893 22.2803C9.08893 22.2505 9.08893 22.2207 9.11892 22.1894C9.21041 22.0687 9.2704 21.9479 9.3304 21.8883C9.39039 21.8286 9.42188 21.7973 9.45188 21.7377V21.7079C9.63336 21.4366 9.81483 21.1354 9.93632 20.8343C9.96631 20.7434 9.96631 20.6241 9.90632 20.5332C9.90632 20.5332 9.87632 20.5332 9.87632 20.5034L10.0278 20.2932C9.72484 20.1426 9.48188 19.9622 9.21041 19.7505C8.02856 18.8471 7.18117 17.6128 6.72673 16.2279L6.45377 16.2577C6.45377 16.2577 6.45377 16.2279 6.42377 16.2279C6.36378 16.1683 6.27229 16.137 6.1808 16.137H6.15081C5.78785 16.1966 5.48489 16.2875 5.15044 16.4083H5.12044C5.06045 16.4083 4.99896 16.4381 4.93896 16.4679C4.84747 16.4977 4.72749 16.5589 4.60601 16.5887C4.57601 16.5887 4.48452 16.5589 4.48452 16.5887C4.48452 16.6185 4.48452 16.6185 4.45453 16.6185C4.39453 16.6483 4.36304 16.6483 4.30305 16.6483C4.03008 16.6781 3.75712 16.4977 3.69712 16.2264C3.63713 15.8955 3.8486 15.5943 4.18156 15.5332C4.20156 15.5133 4.22156 15.5034 4.24155 15.5034C4.30155 15.5034 4.33304 15.4736 4.36304 15.4736C4.48452 15.4736 4.60601 15.4438 4.72599 15.4438C4.78598 15.414 4.84747 15.414 4.90747 15.414C5.27042 15.3841 5.60488 15.323 5.93783 15.2336C6.02932 15.1739 6.11931 15.1128 6.14931 15.0234C6.14931 15.0234 6.1793 15.0234 6.1793 14.9936L6.42227 14.9339C6.14931 13.2181 6.54376 11.4709 7.48263 9.99509C7.51263 9.93546 7.54263 9.90416 7.57412 9.84453L7.39715 9.66862C7.39715 9.67756 7.39415 9.68502 7.39265 9.69396V9.66415L7.39715 9.66862C7.41064 9.58216 7.35665 9.4778 7.30116 9.42265C7.05819 9.18115 6.75523 9.00077 6.45227 8.82038C6.39228 8.79057 6.33078 8.76076 6.27079 8.72945C6.14931 8.66982 6.02782 8.6087 5.93783 8.54907C5.90784 8.54907 5.84635 8.48944 5.84635 8.48944C5.84635 8.48944 5.84635 8.45962 5.81635 8.45962C5.57338 8.24943 5.51339 7.88718 5.69487 7.61586C5.78635 7.4653 5.93783 7.40567 6.11931 7.40567C6.27079 7.40567 6.42227 7.4653 6.54376 7.55623L6.57375 7.58605C6.60375 7.61586 6.63374 7.61586 6.66524 7.64568C6.75673 7.73661 6.81672 7.82606 6.90821 7.91699C6.9382 7.94681 6.9997 7.97662 7.02969 8.03774C7.24117 8.27924 7.51413 8.51925 7.78709 8.73094C7.84709 8.76075 7.90858 8.79057 7.96857 8.79057C8.02856 8.79057 8.06006 8.76075 8.09006 8.76075H8.12005L8.30153 8.88151C9.3019 7.82755 10.6037 7.07472 12.0285 6.77359C12.3915 6.71396 12.726 6.65284 13.0589 6.62302L13.0889 6.38152V6.32189C13.1804 6.26226 13.2104 6.17133 13.2404 6.08039C13.2404 5.71963 13.2404 5.3872 13.1804 5.05625V5.02643C13.1804 4.9668 13.1804 4.90568 13.1504 4.84605C13.1204 4.7253 13.0904 4.60455 13.0904 4.48529V4.33473C13.0904 4.18416 13.1504 4.0336 13.2719 3.91285C13.4234 3.76228 13.6048 3.67135 13.7863 3.70265C14.0893 3.73247 14.3322 4.0336 14.3008 4.33473V4.51511C14.2708 4.63586 14.2708 4.75661 14.2408 4.87587C14.2408 4.9355 14.2108 4.99662 14.2108 5.05625V5.08606C14.1508 5.44683 14.1508 5.77926 14.1508 6.11021C14.1808 6.20114 14.2108 6.29059 14.3023 6.35171V6.32189L14.3322 6.56339C15.7556 6.71396 17.1504 7.25659 18.2707 8.12868C18.5137 8.37018 18.7852 8.61019 19.0281 8.85169L19.2711 8.70113H19.3011C19.3311 8.73094 19.3926 8.73094 19.4226 8.73094C19.4826 8.73094 19.5441 8.70113 19.6041 8.67131C19.877 8.49093 20.15 8.24943 20.3615 8.00942C20.3915 7.9796 20.453 7.94979 20.483 7.88867C20.5429 7.79773 20.6344 7.70829 20.7259 7.61735C20.7559 7.61735 20.7859 7.58754 20.8174 7.55772L20.8474 7.52791C20.9689 7.43697 21.1204 7.37734 21.2719 7.37734C21.4233 7.37734 21.6048 7.46828 21.6963 7.58754C21.9078 7.85885 21.8478 8.21961 21.5748 8.4313C21.5748 8.46111 21.6048 8.46111 21.5748 8.49093C21.5448 8.52074 21.5148 8.52074 21.4833 8.55056C21.3618 8.61019 21.2719 8.67131 21.1504 8.73094C21.0904 8.76075 21.0289 8.79057 20.9689 8.82188C20.6659 9.00226 20.393 9.18264 20.12 9.42414C20.06 9.48377 20.0285 9.60452 20.0285 9.69545V9.72527L19.847 9.90565C20.3315 10.6585 20.6959 11.5022 20.9074 12.3743C21.0889 13.2479 21.1504 14.1513 21.0289 15.0249L21.2719 15.0845C21.3018 15.1754 21.3933 15.2649 21.4833 15.2947C21.8163 15.3856 22.1807 15.4453 22.5137 15.4751H22.5437C22.6037 15.5049 22.6652 15.5049 22.7252 15.5049C22.8466 15.5049 22.9681 15.5049 23.0881 15.5347C23.1481 15.5347 23.2096 15.5347 23.2096 15.5645C23.2096 15.5943 23.2396 15.5943 23.2696 15.5943C23.5426 15.654 23.784 15.8955 23.8155 16.2264C23.724 16.4679 23.4826 16.6483 23.2096 16.6483L23.2081 16.6453Z" fill="#E6EDEF"/>
<path d="M13.8763 16.7959C13.6648 16.6751 13.4219 16.7362 13.2704 16.9166L11.7856 19.597C12.3915 19.7774 13.0574 19.8981 13.6948 19.8981C14.1493 19.8981 14.5737 19.8385 14.9982 19.7476C15.2096 19.6879 15.3926 19.6566 15.5741 19.6268L14.1193 17.0076C14.0278 16.9166 13.9678 16.857 13.8763 16.7974V16.7959Z" fill="#E6EDEF"/>
<path d="M18.7237 10.9238L16.4515 12.9721C16.3915 13.0317 16.36 13.0929 16.33 13.1823C16.27 13.4536 16.4215 13.7249 16.6929 13.7846L19.5711 14.597C19.6311 13.965 19.6011 13.3329 19.4496 12.6993C19.2981 12.0672 19.0551 11.465 18.7222 10.9223L18.7237 10.9238Z" fill="#E6EDEF"/>
<path d="M147.302 19.2944C147.727 19.3242 148.181 19.2646 148.574 19.114C148.817 18.9932 148.968 18.7219 148.937 18.4521C148.907 18.151 148.725 17.8797 148.452 17.7902C147.998 17.5189 147.484 17.2789 146.968 17.1283C146.453 16.9479 145.999 16.7362 145.574 16.5261C145.18 16.3457 144.847 16.1042 144.514 15.803C144.211 15.5019 143.999 15.171 143.848 14.7789C143.667 14.3272 143.605 13.8457 143.605 13.3642C143.575 12.3699 144.029 11.4068 144.817 10.8046C145.634 10.1725 146.726 9.87136 148.119 9.87136C148.785 9.87136 149.483 9.93099 150.149 10.0816C150.663 10.1725 151.179 10.2918 151.693 10.4736L151.118 13.0332C150.693 12.8827 150.3 12.7917 149.876 12.6725C149.391 12.5517 148.875 12.5219 148.391 12.5219C147.361 12.5219 146.846 12.7932 146.846 13.3657C146.846 13.4864 146.876 13.6072 146.906 13.7264C146.966 13.8472 147.058 13.9366 147.179 14.0276C147.301 14.1185 147.482 14.2079 147.694 14.3287C147.905 14.4494 148.208 14.5702 148.572 14.6895C149.178 14.8997 149.784 15.171 150.33 15.4721C150.755 15.6823 151.118 15.9536 151.421 16.3159C151.693 16.5872 151.875 16.9181 151.996 17.3102C152.118 17.7321 152.178 18.1539 152.178 18.5743C152.238 19.5985 151.753 20.5913 150.875 21.1638C150.026 21.7362 148.814 22.0373 147.239 22.0373C146.36 22.0672 145.513 21.9777 144.664 21.766C144.179 21.6453 143.725 21.4947 143.271 21.3441L143.817 18.6936C144.362 18.9038 144.937 19.0857 145.513 19.2049C146.119 19.2347 146.695 19.2959 147.301 19.2959M130.609 15.9819C130.579 15.0785 130.761 14.1751 131.064 13.3314C131.337 12.6084 131.761 11.9763 132.305 11.4038C132.82 10.8925 133.396 10.5005 134.063 10.259C134.729 9.98764 135.427 9.86689 136.124 9.86689C137.76 9.86689 139.062 10.3782 140.003 11.3725C140.941 12.3669 141.426 13.8412 141.426 15.7688C141.426 15.9491 141.426 16.1608 141.396 16.4008C141.396 16.6423 141.366 16.8227 141.366 17.0031H133.973C134.033 17.6352 134.368 18.2374 134.912 18.5997C135.578 19.0216 136.367 19.2318 137.154 19.2019C137.73 19.2019 138.336 19.1423 138.912 19.0514C139.397 18.9604 139.881 18.8099 140.335 18.5997L140.79 21.2502C140.578 21.371 140.335 21.4306 140.092 21.5215C139.76 21.6125 139.427 21.7019 139.092 21.7317C138.729 21.7914 138.365 21.8525 137.94 21.9121C137.546 21.9419 137.123 21.9718 136.698 21.9718C135.76 22.0016 134.851 21.851 133.972 21.5201C133.244 21.2487 132.608 20.8269 132.063 20.2857C131.548 19.7431 131.184 19.0812 130.942 18.388C130.731 17.5755 130.609 16.7616 130.609 15.979M138.275 14.7476C138.275 14.4763 138.215 14.205 138.123 13.9351C138.063 13.6638 137.912 13.4536 137.76 13.2419C137.579 13.0317 137.366 12.8499 137.124 12.7306C136.821 12.58 136.518 12.5204 136.186 12.5204C135.853 12.5204 135.55 12.58 135.247 12.7306C135.004 12.8514 134.762 13.0019 134.581 13.2121C134.399 13.4223 134.248 13.6638 134.156 13.9351C134.065 14.2065 134.005 14.4778 133.975 14.7476H138.276M121.732 7.27895L125.004 6.76763V10.1397H128.943V12.8499H125.004V16.8853C124.974 17.4578 125.096 18.0302 125.367 18.5117C125.61 18.9038 126.095 19.114 126.852 19.114C127.215 19.114 127.58 19.0842 127.913 19.0231C128.276 18.9634 128.61 18.8725 128.943 18.7517L129.397 21.2815C128.973 21.4619 128.518 21.5827 128.064 21.7034C127.488 21.8242 126.882 21.8838 126.276 21.8838C125.519 21.9136 124.761 21.7929 124.064 21.523C123.518 21.3128 123.034 20.9506 122.671 20.5287C122.308 20.077 122.065 19.5344 121.913 18.9634C121.762 18.3015 121.702 17.6083 121.732 16.9464V7.27895ZM108.493 15.9819C108.463 15.0785 108.645 14.1751 108.948 13.3314C109.22 12.6084 109.645 11.9763 110.189 11.4038C110.704 10.8925 111.28 10.5005 111.947 10.259C112.613 9.98764 113.31 9.86689 114.008 9.86689C115.644 9.86689 116.946 10.3782 117.886 11.3725C118.825 12.3669 119.31 13.8412 119.31 15.7688C119.31 15.9491 119.31 16.1608 119.28 16.4008C119.25 16.6408 119.25 16.8227 119.25 17.0031H111.827C111.887 17.6352 112.222 18.2374 112.766 18.5997C113.432 19.0216 114.221 19.2318 115.008 19.2019C115.584 19.2019 116.19 19.1423 116.766 19.0514C117.25 18.9604 117.735 18.8099 118.221 18.5997L118.675 21.2502C118.464 21.371 118.221 21.4306 117.978 21.5215C117.645 21.6125 117.312 21.7019 116.977 21.7317C116.615 21.7914 116.25 21.8525 115.826 21.9121C115.431 21.9419 115.008 21.9718 114.584 21.9718C113.645 22.0016 112.736 21.851 111.857 21.5201C111.13 21.2487 110.494 20.8269 109.948 20.2857C109.433 19.7431 109.069 19.0812 108.828 18.388C108.585 17.5755 108.465 16.7616 108.495 15.979M116.157 14.7476C116.157 14.4763 116.097 14.205 116.006 13.9351C115.946 13.6638 115.794 13.4536 115.643 13.2419C115.461 13.0317 115.248 12.8499 115.007 12.7306C114.704 12.58 114.401 12.5204 114.068 12.5204C113.735 12.5204 113.432 12.58 113.129 12.7306C112.886 12.8514 112.675 13.0019 112.493 13.2121C112.312 13.4223 112.16 13.6638 112.069 13.9351C111.977 14.2065 111.917 14.4778 111.887 14.7476H116.159M96.0717 10.5318C96.7691 10.3514 97.495 10.2008 98.2224 10.0801C99.1313 9.9295 100.07 9.86987 100.979 9.86987C101.796 9.84006 102.615 9.99062 103.403 10.2619C104.009 10.4721 104.555 10.8344 104.948 11.3159C105.342 11.7974 105.613 12.3699 105.765 12.9721C105.946 13.6653 106.008 14.3868 106.008 15.1098V21.5842H102.767V15.5317C102.767 14.4778 102.615 13.7548 102.342 13.3031C102.069 12.8812 101.555 12.6412 100.798 12.6412C100.555 12.6412 100.313 12.6412 100.04 12.671C99.7672 12.671 99.5557 12.7008 99.3428 12.7306V21.5842H96.0702V10.5318M93.768 13.0317C93.465 12.9721 93.1321 12.8812 92.7376 12.8215C92.3132 12.7306 91.8887 12.7008 91.4658 12.7008C91.2228 12.7008 90.9813 12.7306 90.7084 12.7604C90.4969 12.7902 90.2839 12.8201 90.0724 12.8812V21.6438H86.7999V10.742C87.4658 10.5005 88.1632 10.3201 88.8606 10.1695C89.7395 9.95932 90.6484 9.86838 91.5273 9.8982C91.7387 9.8982 91.9517 9.92801 92.1632 9.92801C92.4062 9.92801 92.6476 9.95782 92.9206 10.0189C93.1636 10.0488 93.405 10.0786 93.678 10.1397C93.8895 10.1695 94.1024 10.2306 94.3139 10.3201L93.768 13.0303M73.4396 15.9819C73.4096 15.0785 73.5911 14.1751 73.894 13.3314C74.167 12.6084 74.5915 11.9763 75.1359 11.4038C75.6503 10.8925 76.2262 10.5005 76.8937 10.259C77.5596 9.98764 78.257 9.86689 78.9544 9.86689C80.5907 9.86689 81.8925 10.3782 82.8329 11.3725C83.7718 12.3669 84.2562 13.8412 84.2562 15.7389C84.2562 15.9193 84.2562 16.131 84.2262 16.371C84.1962 16.611 84.1962 16.7929 84.1962 16.9733H76.7737C76.8337 17.6054 77.1681 18.2076 77.7126 18.5699C78.3785 18.9917 79.1674 19.2019 79.9548 19.1721C80.5307 19.1721 81.1366 19.1125 81.7125 19.0216C82.197 18.9306 82.6814 18.7801 83.1358 18.5997L83.5903 21.2502C83.3788 21.371 83.1358 21.4306 82.8929 21.5215C82.5599 21.6125 82.227 21.7019 81.8925 21.7317C81.5296 21.7914 81.1651 21.8525 80.7407 21.9121C80.3462 21.9419 79.9233 21.9718 79.4988 21.9718C78.5599 22.0016 77.6511 21.851 76.7722 21.5201C76.0448 21.2487 75.4088 20.8269 74.8629 20.2857C74.3485 19.7431 73.984 19.0812 73.7426 18.388C73.5611 17.5755 73.4396 16.7914 73.4396 15.979M81.1351 14.7476C81.1351 14.4763 81.0751 14.205 80.9836 13.9351C80.9236 13.6638 80.7721 13.4536 80.6207 13.2419C80.4392 13.0317 80.2262 12.8499 79.9848 12.7306C79.6818 12.58 79.3788 12.5204 79.0459 12.5204C78.7129 12.5204 78.41 12.58 78.107 12.7306C77.864 12.8514 77.6226 13.0019 77.4411 13.2121C77.2596 13.4223 77.1081 13.6638 77.0166 13.9351C76.9252 14.2065 76.8652 14.4778 76.8352 14.7476H81.1366M68.1378 15.8016C68.1378 13.6936 67.3504 12.6695 65.8056 12.6695C65.4726 12.6695 65.1397 12.6993 64.8052 12.7902C64.5323 12.8499 64.2593 12.9706 64.0178 13.1212V19.0231C64.1693 19.0529 64.3808 19.0827 64.6237 19.114C64.8667 19.1453 65.1382 19.1438 65.4411 19.1438C66.2285 19.2034 66.9859 18.8725 67.4704 18.2404C67.9248 17.5174 68.1678 16.6751 68.1363 15.8016M71.4704 15.9223C71.4704 16.7661 71.3489 17.6083 71.0459 18.4223C70.8029 19.1453 70.41 19.7774 69.8941 20.32C69.3481 20.8626 68.7122 21.283 68.0163 21.5543C67.1989 21.8555 66.35 21.9762 65.4711 21.9762C65.0767 21.9762 64.6537 21.9464 64.2293 21.9166C63.8048 21.8868 63.3804 21.8257 62.9575 21.7958C62.563 21.7362 62.1701 21.6751 61.7756 21.5856C61.3812 21.526 61.0482 21.4351 60.7752 21.3143V5.20085L64.0478 4.68953V10.411C64.4108 10.2604 64.8052 10.1397 65.1997 10.0503C65.6241 9.95932 66.0486 9.9295 66.4715 9.9295C67.2289 9.9295 67.9563 10.0503 68.6522 10.3812C69.2581 10.6525 69.8041 11.0744 70.227 11.5857C70.6815 12.1582 71.0144 12.7902 71.1959 13.4834C71.3774 14.2363 71.4689 15.08 71.4689 15.9223M57.6541 21.2219C56.9567 21.4023 56.2308 21.5529 55.5034 21.6438C54.5945 21.7944 53.6557 21.854 52.7468 21.854C51.8979 21.8838 51.0805 21.7332 50.2931 21.4619C49.6872 21.2204 49.1727 20.8597 48.7483 20.3781C48.3538 19.8668 48.0824 19.2944 47.9309 18.6623C47.7494 17.9691 47.6879 17.2163 47.6879 16.4947V10.1412H50.9605V16.134C50.9605 17.1879 51.112 17.9408 51.385 18.3925C51.6579 18.8442 52.1724 19.0857 52.9298 19.0857C53.1727 19.0857 53.4142 19.0857 53.6872 19.0559C53.9601 19.026 54.1716 19.026 54.3846 18.9649V10.1412H57.6571V21.2234M38.5676 14.2959C38.9006 13.9351 39.2035 13.5729 39.568 13.2121C39.9009 12.8201 40.2339 12.4593 40.5684 12.0985C40.9013 11.7065 41.2043 11.3755 41.4772 11.0446C41.7502 10.7136 42.0232 10.4125 42.2346 10.171H46.1131C45.3257 11.0446 44.5683 11.9182 43.8409 12.7306C43.0835 13.5431 42.2961 14.3868 41.4172 15.2306C41.9017 15.6823 42.3561 16.134 42.7806 16.6453C43.235 17.1879 43.6895 17.7291 44.1439 18.3313C44.5683 18.9038 44.9928 19.5061 45.3557 20.0785C45.7187 20.6509 46.0216 21.1921 46.2646 21.6751H42.5076C42.2646 21.283 41.9932 20.8925 41.6902 20.4408C41.3872 19.9891 41.0543 19.5374 40.7513 19.0559C40.4184 18.6042 40.0539 18.1525 39.661 17.7306C39.328 17.3385 38.9636 16.9778 38.5706 16.6766V21.7049H35.298V5.20085L38.5706 4.68953V14.2959" fill="#E6EDEF"/>
</g>
<defs>
<clipPath id="clip0_9251_16659">
<rect width="28" height="26" fill="white" transform="translate(0.516235)"/>
</clipPath>
</defs>
</svg>
