<svg width="29" height="29" viewBox="0 0 29 29" fill="none" xmlns="http://www.w3.org/2000/svg">
<path d="M28.9761 17.2993L28.9609 17.2387L26.6265 7.21887V7.1734C26.4143 6.53674 25.9596 5.99103 25.3532 5.68786H25.3229L15.9852 1.21608C15.6669 1.0645 15.3031 0.988704 14.9544 1.00386C14.6513 0.988704 14.3481 1.01902 14.0449 1.07966L13.9843 1.09481L13.9237 1.12513L4.58598 5.62722C4.35103 5.73333 4.15396 5.88492 3.97206 6.05924C3.94174 6.08198 3.91901 6.1123 3.88869 6.13504C3.82048 6.21083 3.75226 6.28662 3.69921 6.36999C3.66889 6.41547 3.63857 6.46094 3.61584 6.49884C3.56278 6.58221 3.50973 6.67316 3.47183 6.76412C3.47183 6.77169 3.47183 6.77927 3.46425 6.78685C3.4112 6.90812 3.35814 7.02939 3.32782 7.15824L1.03888 17.2387V17.269C0.917612 17.9511 1.08436 18.6333 1.47848 19.1941L1.49364 19.2093L1.5088 19.2244L7.95118 27.2282L7.96634 27.2585L7.99666 27.2736C8.48173 27.7587 9.11839 28.0467 9.80053 28.0922H17.2585L17.3192 28.1074H20.1235C20.9269 28.1074 21.5939 27.789 22.0183 27.2282L28.4759 19.2396L28.491 19.2244L28.5062 19.2093C28.5744 19.1108 28.6275 19.0047 28.6805 18.8985C28.9458 18.4135 29.0519 17.8526 28.9761 17.2993ZM16.9402 11.2056L18.2742 8.65893H18.7441C18.8653 8.65893 18.9866 8.68925 19.0927 8.74989C19.1761 8.79536 19.2443 8.856 19.2974 8.91663C19.3353 8.96211 19.3656 9.01516 19.3959 9.06822C19.4186 9.10611 19.4414 9.14401 19.4565 9.18948C19.4868 9.28044 19.4944 9.37139 19.4944 9.46234C19.4944 9.46992 19.4944 9.4775 19.4944 9.48508C19.4944 9.48508 19.4944 9.46992 19.4944 9.46234C19.4944 9.56845 19.4641 9.68214 19.4111 9.78067L18.2742 11.918C18.0771 12.297 17.6223 12.4334 17.2585 12.2364C16.8947 12.0241 16.7583 11.5845 16.9402 11.2056ZM14.4542 18.8455L13.3476 20.9222L12.5063 22.4911V22.5063L12.4836 22.529L9.33061 16.1169L5.69256 8.68925H11.8318L14.2875 13.2368L11.8394 8.70441L14.2875 13.2292L13.4462 14.7982L13.4158 14.8133L10.9298 10.2051H8.21646L12.4912 19.2699L13.0975 18.1179C13.2946 17.7541 13.7493 17.6025 14.1283 17.7995C14.3102 17.8981 14.439 18.0648 14.4997 18.2619C14.5603 18.4514 14.5452 18.6636 14.4466 18.8455H14.4542ZM14.909 16.6475C14.818 16.602 14.7498 16.5414 14.6892 16.4656C14.7498 16.5414 14.8256 16.602 14.9165 16.6475C14.5527 16.4504 14.4163 15.9957 14.5982 15.6167L15.7351 13.4794C15.9322 13.1004 16.4021 12.964 16.7659 13.161C16.8644 13.2141 16.9402 13.2747 17.0008 13.3581C17.0463 13.4187 17.0766 13.4794 17.0994 13.5476C17.1827 13.7522 17.1903 13.9872 17.0766 14.1918L15.9397 16.3292C15.7427 16.7081 15.2728 16.8446 14.909 16.6475ZM17.971 21.6043C17.971 21.6043 17.9558 21.6195 17.9558 21.6347L17.4253 22.7412C17.2282 23.105 16.7886 23.2566 16.4097 23.0747C16.3945 23.0671 16.3793 23.052 16.3642 23.0368C16.3339 23.0217 16.3035 23.0141 16.2732 22.9989C16.2278 22.9686 16.1899 22.9231 16.152 22.8777C16.152 22.8777 16.1595 22.8777 16.1595 22.8852C16.0989 22.8094 16.0534 22.7337 16.0155 22.6427C16.0459 22.7261 16.0838 22.8095 16.1444 22.8777C15.9625 22.673 15.917 22.3926 16.0155 22.1349C15.9625 22.3016 15.9625 22.476 16.0155 22.6351C15.9549 22.4532 15.9625 22.241 16.0534 22.0515L16.5991 20.9601C16.781 20.6418 17.1752 20.4902 17.5238 20.6266C17.9179 20.763 18.115 21.2026 17.9634 21.5968L17.971 21.6043ZM20.2296 17.1477L19.9568 17.6783L19.1685 19.3154C19.0321 19.5655 18.782 19.7019 18.5167 19.7171C18.5622 19.7171 18.6001 19.7171 18.6455 19.7095C18.4257 19.7626 18.1908 19.7398 18.0013 19.5883C17.7133 19.376 17.6072 18.9819 17.7739 18.6484L18.3272 17.557L17.7891 18.6333C17.6072 19.0122 17.7588 19.467 18.1377 19.6489C18.2287 19.6944 18.3272 19.7171 18.4257 19.7171C18.3348 19.7171 18.2438 19.6868 18.1529 19.6489C17.7739 19.467 17.6223 19.0122 17.8042 18.6333L18.8805 16.4656C19.0624 16.1018 19.5323 15.9502 19.8961 16.1321C20.2599 16.314 20.4115 16.7688 20.2296 17.1477ZM22.4731 12.676L21.8667 13.9038L21.412 14.8588C21.2149 15.2226 20.7753 15.3742 20.3964 15.1923C20.3812 15.1847 20.3736 15.1695 20.3509 15.162C20.3281 15.1468 20.3054 15.1468 20.2903 15.1316C20.2524 15.1089 20.2296 15.071 20.1917 15.0407C20.2145 15.0634 20.2372 15.071 20.2599 15.0937C20.222 15.0634 20.1766 15.0331 20.1462 14.9952C20.0856 14.927 20.0477 14.8436 20.0098 14.7603C19.9416 14.5784 19.934 14.3661 20.0326 14.1767L21.1088 12.009C21.1543 11.9104 21.2225 11.8271 21.2983 11.7664C21.2301 11.8271 21.1694 11.9029 21.124 11.9938C21.3059 11.6149 21.7606 11.4784 22.1396 11.6603C22.5186 11.8422 22.6701 12.297 22.4731 12.676ZM23.7009 10.2809L23.6251 10.4931L23.61 10.5083C23.5039 10.6902 23.322 10.8266 23.1097 10.8721C23.0946 10.8721 23.0718 10.8721 23.0567 10.8721C22.8899 10.9024 22.708 10.8872 22.5489 10.7963C22.5413 10.7963 22.5337 10.7811 22.5261 10.7736C22.6095 10.8266 22.7005 10.8569 22.799 10.8721C22.511 10.8115 22.2684 10.5992 22.2002 10.2961H21.2907C20.8663 10.2961 20.5328 9.96257 20.5328 9.53813C20.5328 9.11369 20.8663 8.7802 21.2907 8.7802H24.4589L23.7009 10.2809Z" fill="#E6EDEF"/>
</svg>
