<svg width="29" height="26" viewBox="0 0 29 26" fill="none" xmlns="http://www.w3.org/2000/svg">
<path d="M25.7943 12.7806C25.6635 11.1558 25.2348 9.56981 24.5302 8.10343L28.5162 6.64072C28.2019 5.98274 27.8332 5.35273 27.414 4.75741L25.5451 5.44542C23.9126 3.13284 21.5748 1.4249 18.89 0.583218C16.2052 -0.258459 13.3214 -0.187454 10.6804 0.785356C8.03932 1.75817 5.78666 3.57914 4.26747 5.96932C2.74828 8.3595 2.04634 11.1871 2.26917 14.0189L4.14293 13.3242C4.20236 14.0496 4.32102 14.7688 4.4977 15.4745L0.516235 16.9429C0.910152 18.5228 1.59095 20.015 2.52402 21.3436L4.63215 20.5675L4.63494 20.5717C5.9141 22.3918 7.63947 23.8446 9.64179 24.7875C12.7345 26.2401 16.271 26.3938 19.4757 25.2148C22.6804 24.0359 25.2916 21.6206 26.7365 18.4987C27.6743 16.4731 28.0734 14.2355 27.8944 12.0065L25.7943 12.7806ZM22.6637 16.5692C21.7266 18.5975 20.0316 20.1673 17.9505 20.934C15.8695 21.7007 13.5725 21.6017 11.5636 20.6587C10.6537 20.2303 9.82853 19.6382 9.12835 18.9113L7.00059 19.6952C5.85759 18.5047 5.08452 17.002 4.77678 15.3726L4.77774 15.3718L8.77058 13.9019C8.62864 13.1652 8.58422 12.4127 8.63849 11.6642L6.76044 12.3535C6.86 10.9917 7.28574 9.67476 8.00098 8.51621C8.71621 7.35767 9.69947 6.39225 10.866 5.70317C12.0326 5.01409 13.3475 4.62202 14.6973 4.56073C16.0472 4.49944 17.3916 4.77079 18.6146 5.35137H18.6217C19.5289 5.78179 20.3515 6.37462 21.0497 7.1012L22.9197 6.41427C23.4355 6.95073 23.8786 7.55401 24.2374 8.20831L20.2598 9.68131C21.0615 11.1285 21.4255 12.7816 21.3068 14.4359L23.4173 13.6611C23.3431 14.6687 23.0877 15.6542 22.6637 16.5692Z" fill="#E6EDEF"/>
</svg>
