<svg width="29" height="27" viewBox="0 0 29 27" fill="none" xmlns="http://www.w3.org/2000/svg">
<g clip-path="url(#clip0_9251_16664)">
<path d="M38.0283 14.8898V20.9069H36.9363V5.94286H40.8545C42.653 5.94286 44.0019 6.3209 44.9012 7.10847C45.8004 7.86455 46.2501 8.96716 46.2501 10.3848C46.2501 11.0464 46.1216 11.6449 45.8647 12.1805C45.6077 12.716 45.2545 13.2201 44.8048 13.5981C44.3231 14.0077 43.7771 14.2912 43.1027 14.5432C42.4282 14.7637 41.6895 14.8898 40.8545 14.8898H38.0283ZM38.0283 14.0392H40.8545C41.5289 14.0392 42.1392 13.9447 42.653 13.7556C43.199 13.5666 43.6486 13.3146 44.0019 12.9996C44.3552 12.6845 44.6442 12.3065 44.8369 11.8654C45.0296 11.4244 45.126 10.9519 45.126 10.4163C45.126 9.28219 44.7727 8.4001 44.034 7.77004C43.3275 7.13998 42.2355 6.82495 40.8224 6.82495H37.9961V14.0392H38.0283ZM49.9113 20.9384V10.4163H50.4573C50.5858 10.4163 50.6821 10.4478 50.7143 10.4793C50.7785 10.5423 50.8106 10.6053 50.8106 10.7313L50.907 12.9366C51.2602 12.086 51.7099 11.4244 52.288 10.9204C52.8661 10.4478 53.5726 10.1958 54.4077 10.1958C54.7288 10.1958 55.0179 10.2273 55.3069 10.2903C55.5638 10.3533 55.8529 10.4478 56.0777 10.5738L55.9492 11.2669C55.9171 11.3929 55.8529 11.4244 55.7244 11.4244C55.6923 11.4244 55.6281 11.4244 55.5317 11.3929C55.4675 11.3614 55.339 11.3299 55.2427 11.2984C55.1142 11.2669 54.9536 11.2354 54.793 11.2039C54.6003 11.1724 54.4076 11.1724 54.215 11.1724C53.412 11.1724 52.7376 11.4244 52.2237 11.897C51.7099 12.401 51.2924 13.0941 50.9712 14.0392V20.8753L49.9113 20.9384ZM63.6893 10.2273C64.4601 10.2273 65.1345 10.3533 65.7448 10.6053C66.355 10.8573 66.8688 11.2354 67.2863 11.7079C67.7039 12.1805 68.025 12.7475 68.2498 13.4091C68.4747 14.0707 68.571 14.8267 68.571 15.6458C68.571 16.4649 68.4747 17.221 68.2498 17.8826C68.025 18.5441 67.7039 19.1112 67.2863 19.5837C66.8688 20.0563 66.355 20.4028 65.7448 20.6863C65.1345 20.9384 64.4601 21.0644 63.6893 21.0644C62.9185 21.0644 62.2441 20.9384 61.6339 20.6863C61.0236 20.4343 60.5098 20.0563 60.0923 19.5837C59.6748 19.1112 59.3536 18.5441 59.1288 17.8826C58.904 17.221 58.8076 16.4649 58.8076 15.6458C58.8076 14.8267 58.904 14.0707 59.1288 13.4091C59.3536 12.7475 59.6748 12.1805 60.0923 11.7079C60.5098 11.2354 61.0236 10.8573 61.6339 10.6053C62.212 10.3848 62.9185 10.2273 63.6893 10.2273ZM63.6893 20.2768C64.3316 20.2768 64.8776 20.1823 65.3594 19.9618C65.8411 19.7412 66.2265 19.4262 66.5477 19.0482C66.8688 18.6386 67.0937 18.1661 67.2542 17.599C67.4148 17.032 67.479 16.4019 67.479 15.6773C67.479 14.9528 67.4148 14.3542 67.2542 13.7871C67.0937 13.2201 66.8688 12.716 66.5477 12.338C66.2265 11.9285 65.809 11.6134 65.3594 11.3929C64.8776 11.1724 64.3316 11.0779 63.6893 11.0779C63.047 11.0779 62.501 11.1724 62.0193 11.3929C61.5375 11.6134 61.1521 11.9285 60.8309 12.338C60.5098 12.7475 60.285 13.2201 60.1244 13.7871C59.9638 14.3542 59.8675 14.9843 59.8675 15.6773C59.8675 16.3704 59.9638 17.032 60.1244 17.599C60.285 18.1661 60.5419 18.6386 60.8309 19.0482C61.1521 19.4577 61.5696 19.7727 62.0193 19.9618C62.4689 20.1508 63.047 20.2768 63.6893 20.2768ZM72.1038 20.9384V10.4163H72.6498C72.8425 10.4163 72.9388 10.5108 72.971 10.6683L73.0673 12.1805C73.26 11.897 73.4848 11.6449 73.7418 11.3929C73.9666 11.1724 74.2235 10.9519 74.5126 10.7628C74.7695 10.6053 75.0585 10.4478 75.3797 10.3533C75.7009 10.2588 76.022 10.1958 76.3432 10.1958C77.114 10.1958 77.7563 10.4163 78.2059 10.8574C78.6877 11.2984 78.9767 11.9285 79.1694 12.716C79.2979 12.275 79.4906 11.897 79.7154 11.5819C79.9402 11.2669 80.1972 11.0149 80.5183 10.7943C80.8074 10.5738 81.1607 10.4163 81.5139 10.3218C81.8672 10.2273 82.2205 10.1643 82.6059 10.1643C83.1198 10.1643 83.6015 10.2588 84.0511 10.4163C84.4687 10.5738 84.854 10.8573 85.1431 11.1724C85.4322 11.5189 85.657 11.9285 85.8176 12.4325C85.9781 12.9366 86.0424 13.5036 86.0424 14.1337V20.8438H85.0146V14.1967C85.0146 13.1571 84.7898 12.3695 84.3402 11.8339C83.8906 11.2984 83.2482 11.0149 82.4132 11.0149C82.0599 11.0149 81.6745 11.0779 81.3534 11.2039C81.0001 11.3299 80.711 11.5504 80.4541 11.8024C80.1972 12.0545 79.9724 12.401 79.8439 12.779C79.6833 13.1886 79.6191 13.6296 79.6191 14.1652V20.8753H78.5913V14.1967C78.5913 13.1886 78.3665 12.401 77.9811 11.8654C77.5636 11.3299 76.9534 11.0464 76.1505 11.0464C75.5724 11.0464 75.0264 11.2039 74.5447 11.5504C74.0629 11.897 73.6133 12.3695 73.2279 12.9681V20.9069L72.1038 20.9384ZM94.1357 10.2273C94.7459 10.2273 95.2919 10.3218 95.8058 10.5423C96.3196 10.7313 96.7692 11.0464 97.1546 11.4244C97.54 11.8024 97.8291 12.3065 98.0539 12.8736C98.2787 13.4406 98.3751 14.1022 98.3751 14.8267C98.3751 14.9843 98.343 15.0788 98.3108 15.1418C98.2787 15.2048 98.1824 15.2363 98.086 15.2363H90.346V15.4253C90.346 16.2129 90.4423 16.906 90.635 17.5045C90.8277 18.1031 91.0846 18.6071 91.4379 19.0167C91.7591 19.4262 92.2087 19.7412 92.6905 19.9303C93.1722 20.1193 93.7182 20.2453 94.3284 20.2453C94.8744 20.2453 95.324 20.1823 95.7415 20.0563C96.1269 19.9303 96.4802 19.8042 96.7371 19.6782C96.9941 19.5207 97.2189 19.3947 97.3795 19.3002C97.54 19.1742 97.6364 19.1112 97.7327 19.1112C97.8291 19.1112 97.8933 19.1427 97.9576 19.2057L98.2466 19.5522C98.086 19.7727 97.8612 19.9618 97.5722 20.1508C97.2831 20.3398 96.962 20.4973 96.6408 20.6233C96.2875 20.7493 95.9342 20.8438 95.5167 20.9384C95.1313 21.0014 94.7138 21.0644 94.3284 21.0644C93.5897 21.0644 92.9153 20.9384 92.3372 20.6863C91.727 20.4343 91.2131 20.0563 90.7956 19.5837C90.3781 19.1112 90.0248 18.5126 89.8 17.8195C89.5752 17.1265 89.4467 16.3389 89.4467 15.4253C89.4467 14.6692 89.5431 13.9762 89.7679 13.3461C89.9927 12.716 90.3138 12.149 90.6992 11.7079C91.1168 11.2354 91.6306 10.8889 92.2087 10.6368C92.6905 10.3848 93.397 10.2273 94.1357 10.2273ZM94.1678 10.9834C93.6218 10.9834 93.108 11.0779 92.6905 11.2354C92.273 11.3929 91.8876 11.6449 91.5664 11.96C91.2452 12.275 90.9883 12.653 90.7956 13.0941C90.6029 13.5351 90.4744 14.0392 90.4102 14.5747H97.4758C97.4758 14.0077 97.4116 13.5036 97.251 13.0626C97.0904 12.6215 96.8656 12.2435 96.5766 11.9285C96.2875 11.6134 95.9342 11.3614 95.5488 11.2039C95.0992 11.0779 94.6496 10.9834 94.1678 10.9834ZM104.445 21.0959C103.706 21.0959 103.16 20.9069 102.743 20.4973C102.325 20.0878 102.133 19.4892 102.133 18.6701V11.4874H100.591C100.527 11.4874 100.463 11.4559 100.398 11.4244C100.334 11.3929 100.334 11.3299 100.334 11.2354V10.8574L102.165 10.7313L102.422 6.98246C102.422 6.91946 102.454 6.85645 102.486 6.82495C102.518 6.79344 102.55 6.79344 102.582 6.76194C102.614 6.76194 102.647 6.73044 102.679 6.73044H103.16V10.7313H106.533V11.4874H103.16V18.6071C103.16 18.8907 103.193 19.1427 103.289 19.3632C103.353 19.5837 103.482 19.7412 103.61 19.8672C103.739 19.9933 103.899 20.0878 104.092 20.1508C104.285 20.2138 104.477 20.2453 104.67 20.2453C104.927 20.2453 105.152 20.2138 105.344 20.1193C105.505 20.0563 105.666 19.9618 105.826 19.8672C105.955 19.7727 106.083 19.7097 106.147 19.6152C106.244 19.5522 106.308 19.4892 106.34 19.4892C106.404 19.4892 106.468 19.5207 106.501 19.5837L106.79 20.0248C106.533 20.3083 106.179 20.5603 105.762 20.7493C105.344 21.0014 104.895 21.0959 104.445 21.0959ZM110.065 20.9384V5.56482H111.093V12.212C111.575 11.6134 112.153 11.1409 112.795 10.7943C113.438 10.4478 114.144 10.2588 114.947 10.2588C115.525 10.2588 116.071 10.3533 116.489 10.5423C116.938 10.7313 117.324 10.9834 117.613 11.3299C117.902 11.6764 118.127 12.086 118.287 12.59C118.448 13.0626 118.512 13.6296 118.512 14.2282V20.9384H117.484V14.1967C117.484 13.2201 117.26 12.4325 116.81 11.8654C116.36 11.2984 115.654 11.0149 114.69 11.0149C113.984 11.0149 113.341 11.2039 112.731 11.5504C112.121 11.897 111.575 12.401 111.125 12.9996V20.8753H110.065V20.9384ZM126.638 10.2273C127.248 10.2273 127.794 10.3218 128.308 10.5423C128.821 10.7313 129.271 11.0464 129.657 11.4244C130.042 11.8024 130.331 12.3065 130.556 12.8736C130.781 13.4406 130.877 14.1022 130.877 14.8267C130.877 14.9843 130.845 15.0788 130.813 15.1418C130.781 15.2048 130.684 15.2363 130.588 15.2363H122.848V15.4253C122.848 16.2129 122.944 16.906 123.137 17.5045C123.33 18.1031 123.586 18.6071 123.94 19.0167C124.261 19.4262 124.711 19.7412 125.192 19.9303C125.674 20.1193 126.22 20.2453 126.83 20.2453C127.376 20.2453 127.826 20.1823 128.243 20.0563C128.629 19.9303 128.982 19.8042 129.239 19.6782C129.496 19.5207 129.721 19.3947 129.881 19.3002C130.042 19.1742 130.138 19.1112 130.235 19.1112C130.331 19.1112 130.395 19.1427 130.459 19.2057L130.748 19.5522C130.588 19.7727 130.363 19.9618 130.074 20.1508C129.785 20.3398 129.464 20.4973 129.143 20.6233C128.789 20.7493 128.436 20.8438 128.019 20.9384C127.633 21.0014 127.216 21.0644 126.83 21.0644C126.092 21.0644 125.417 20.9384 124.839 20.6863C124.229 20.4343 123.715 20.0563 123.297 19.5837C122.88 19.1112 122.527 18.5126 122.302 17.8195C122.077 17.1265 121.949 16.3389 121.949 15.4253C121.949 14.6692 122.045 13.9762 122.27 13.3461C122.495 12.716 122.816 12.149 123.201 11.7079C123.619 11.2354 124.132 10.8889 124.711 10.6368C125.192 10.3848 125.867 10.2273 126.638 10.2273ZM126.638 10.9834C126.092 10.9834 125.578 11.0779 125.16 11.2354C124.743 11.3929 124.357 11.6449 124.036 11.96C123.715 12.275 123.458 12.653 123.265 13.0941C123.073 13.5351 122.944 14.0392 122.88 14.5747H129.946C129.946 14.0077 129.881 13.5036 129.721 13.0626C129.56 12.6215 129.335 12.2435 129.046 11.9285C128.757 11.6134 128.404 11.3614 128.019 11.2039C127.569 11.0779 127.119 10.9834 126.638 10.9834ZM134.763 10.4163V17.1265C134.763 18.1031 134.988 18.8907 135.47 19.4577C135.919 20.0248 136.626 20.3083 137.589 20.3083C138.296 20.3083 138.938 20.1193 139.548 19.7727C140.159 19.4262 140.705 18.9537 141.186 18.3236V10.4163H142.214V20.9384H141.636C141.443 20.9384 141.347 20.8438 141.315 20.6548L141.218 19.0797C140.737 19.6782 140.159 20.1823 139.484 20.5288C138.842 20.9069 138.103 21.0644 137.3 21.0644C136.69 21.0644 136.176 20.9699 135.727 20.7808C135.277 20.5918 134.924 20.3398 134.602 19.9933C134.313 19.6467 134.089 19.2372 133.928 18.7331C133.767 18.2606 133.703 17.6935 133.703 17.095V10.4163H134.763ZM152.01 11.7079C151.945 11.8024 151.881 11.8654 151.785 11.8654C151.721 11.8654 151.592 11.8339 151.464 11.7394C151.335 11.6449 151.175 11.5504 150.982 11.4559C150.789 11.3614 150.532 11.2354 150.243 11.1724C149.954 11.0779 149.569 11.0464 149.151 11.0464C148.766 11.0464 148.413 11.1094 148.091 11.2039C147.77 11.2984 147.513 11.4559 147.288 11.6449C147.064 11.8339 146.903 12.023 146.775 12.275C146.646 12.527 146.582 12.779 146.582 13.0311C146.582 13.3461 146.678 13.6296 146.839 13.8501C146.999 14.0707 147.224 14.2597 147.513 14.4172C147.802 14.5747 148.123 14.7007 148.477 14.8267C148.83 14.9528 149.183 15.0473 149.569 15.1733C149.954 15.2993 150.307 15.4253 150.661 15.5513C151.014 15.6773 151.335 15.8664 151.624 16.0554C151.913 16.2444 152.138 16.4964 152.299 16.8114C152.459 17.095 152.556 17.473 152.556 17.8826C152.556 18.3551 152.459 18.7646 152.299 19.1742C152.138 19.5522 151.881 19.8988 151.56 20.2138C151.239 20.4973 150.853 20.7178 150.372 20.9069C149.89 21.0644 149.376 21.1589 148.766 21.1589C148.027 21.1589 147.353 21.0329 146.807 20.8123C146.261 20.5918 145.779 20.2768 145.329 19.8988L145.586 19.5522C145.618 19.4892 145.651 19.4577 145.715 19.4262C145.747 19.3947 145.811 19.3947 145.907 19.3947C146.004 19.3947 146.132 19.4577 146.261 19.5522C146.389 19.6782 146.582 19.7727 146.807 19.9303C147.032 20.0563 147.288 20.1823 147.61 20.3083C147.931 20.4343 148.348 20.4658 148.83 20.4658C149.28 20.4658 149.665 20.4028 150.018 20.2768C150.372 20.1508 150.661 19.9933 150.885 19.7727C151.11 19.5522 151.303 19.3002 151.399 19.0167C151.528 18.7331 151.592 18.4181 151.592 18.1031C151.592 17.7565 151.496 17.473 151.335 17.221C151.175 17.0005 150.95 16.7799 150.661 16.6224C150.372 16.4649 150.05 16.3074 149.697 16.2129C149.344 16.0869 148.991 15.9924 148.605 15.8663C148.22 15.7403 147.867 15.6458 147.513 15.4883C147.16 15.3623 146.839 15.2048 146.55 14.9843C146.261 14.7952 146.036 14.5432 145.875 14.2282C145.715 13.9447 145.618 13.5666 145.618 13.1256C145.618 12.7475 145.715 12.401 145.875 12.0545C146.036 11.7079 146.293 11.3929 146.582 11.1409C146.871 10.8889 147.256 10.6683 147.706 10.5108C148.156 10.3533 148.637 10.2903 149.183 10.2903C149.826 10.2903 150.404 10.3848 150.918 10.5738C151.431 10.7628 151.881 11.0464 152.299 11.4244L152.01 11.7079ZM13.7161 0.65033C20.9423 0.65033 26.8517 6.3839 26.8517 13.3776C26.8517 20.3713 20.9423 26.1049 13.5555 26.1049C6.16873 26.1049 0.516235 20.3713 0.516235 13.2516C0.548352 6.3209 6.45778 0.65033 13.7161 0.65033ZM9.73366 5.09227C9.89424 5.87985 9.73366 6.63593 9.50884 7.3605C9.34826 7.86455 9.09133 8.3371 8.96286 8.87265C8.73805 9.72324 8.48112 10.5738 8.38477 11.4244C8.2563 12.653 8.73805 13.7556 9.60519 14.8267L5.68698 14.0077V14.2282C6.07238 15.2993 6.71471 16.1814 7.45339 17.032C7.51762 17.1265 7.71032 17.158 7.83879 17.158H19.5934C19.7219 17.158 19.8825 17.1265 19.9467 17.0635C20.7817 16.2129 21.424 15.2363 21.8416 13.9762L17.6985 14.7637C17.9876 14.2282 18.2766 13.7871 18.4693 13.2831C19.0795 11.5504 18.8226 9.88075 17.9555 8.30559C17.2489 7.04547 16.6066 5.78534 16.9599 4.24169C16.2212 4.96626 15.9321 5.87985 15.7394 6.82495C15.5467 7.77004 15.4504 8.71514 15.3219 9.66023C15.2898 9.62873 15.2898 9.59722 15.2577 9.59722C15.2256 9.50271 15.2256 9.40821 15.2256 9.28219C15.1292 7.73854 14.8402 6.22639 14.1657 4.80875C13.7803 3.95816 13.3628 3.10758 13.7482 2.09947C13.4913 2.22549 13.2344 2.383 13.0738 2.57202C12.5599 3.17058 12.3351 3.86365 12.2709 4.61973C12.2387 5.28129 12.1745 5.94286 12.046 6.57292C11.9176 7.26599 11.6928 7.92756 11.2431 8.55762C10.9541 7.26599 10.9541 5.94286 9.73366 5.09227ZM19.8182 18.3551H7.54974V20.4343H19.8182V18.3551ZM9.95847 21.5054C9.95847 23.2381 11.757 24.5297 14.0051 24.4352C15.8679 24.3722 17.5058 22.9231 17.3453 21.5054H9.95847Z" fill="#E6EDEF"/>
</g>
<defs>
<clipPath id="clip0_9251_16664">
<rect width="28" height="26" fill="white" transform="translate(0.516235 0.475372)"/>
</clipPath>
</defs>
</svg>
