<svg width="29" height="29" viewBox="0 0 29 29" fill="none" xmlns="http://www.w3.org/2000/svg">
<path d="M14.7528 18.316L19.059 15.8215V10.8462L14.7528 13.3338V18.316Z" fill="#E6EDEF"/>
<path d="M15.1652 18.5526L19.059 20.8037V16.3015L15.1652 18.5526Z" fill="#E6EDEF"/>
<path d="M18.8291 9.96735V5.46518L14.9286 7.71626L18.8291 9.96735Z" fill="#E6EDEF"/>
<path d="M14.5162 7.95286L10.2033 10.4406L14.5162 12.9282L18.8291 10.4406L14.5162 7.95286Z" fill="#E6EDEF"/>
<path d="M14.1039 7.71626L10.2033 5.46518V9.96735L14.1039 7.71626Z" fill="#E6EDEF"/>
<path d="M19.4713 11.0828V15.5849L23.3719 13.3338L19.4713 11.0828Z" fill="#E6EDEF"/>
<path d="M14.2796 18.316V13.3338L9.9735 10.8462V15.8215L14.2796 18.316Z" fill="#E6EDEF"/>
<path d="M9.55438 11.0828L5.66061 13.3338L9.55438 15.5849V11.0828Z" fill="#E6EDEF"/>
<path d="M9.9735 16.3015V20.8037L13.8673 18.5526L9.9735 16.3015Z" fill="#E6EDEF"/>
<path d="M23.8721 0.543884H5.16037C2.59832 0.550644 0.522995 2.62597 0.516235 5.18802V23.8998C0.522995 26.4618 2.59832 28.5371 5.16037 28.5439H17.9706L14.5162 20.1412L12.0083 25.4478H5.16037C4.30861 25.4343 3.62585 24.7515 3.61233 23.8998V5.18802C3.62585 4.33626 4.30861 3.65349 5.16037 3.63997H23.8721C24.7239 3.65349 25.4066 4.33626 25.4201 5.18802V23.8998C25.4066 24.7515 24.7239 25.4343 23.8721 25.4478H19.8093L21.087 28.5439H23.8721C26.4342 28.5371 28.5095 26.4618 28.5162 23.8998V5.18802C28.5095 2.62597 26.4342 0.550644 23.8721 0.543884Z" fill="#E6EDEF"/>
</svg>
