<svg width="29" height="29" viewBox="0 0 29 29" fill="none" xmlns="http://www.w3.org/2000/svg">
<g clip-path="url(#clip0_9251_16663)">
<path fill-rule="evenodd" clip-rule="evenodd" d="M11.6892 13.0971V13.387V13.0971ZM19.2887 22.4648L19.5389 22.3965L19.5684 22.5922C19.71 23.4877 19.6475 24.2649 19.285 25.0569C19.8462 25.1345 20.3357 25.4059 20.5933 25.9801C20.7773 26.3862 20.9521 26.857 20.9558 27.3075C20.9723 27.6435 20.838 27.9666 20.5896 28.1918C20.435 28.3192 20.24 28.3894 20.0394 28.3912H17.1119C16.9444 28.8528 16.6114 29.2756 16.1256 29.403C15.9894 29.4343 15.8496 29.4528 15.7116 29.4583C15.5625 29.4657 15.4172 29.4694 15.27 29.4694C14.8927 29.4731 14.5155 29.4694 14.1383 29.4694C13.5477 29.462 12.957 29.451 12.3663 29.4362C12.0075 29.4288 11.6855 29.2183 11.5328 28.8916C11.3819 29.2165 11.0599 29.427 10.7029 29.4362C10.1086 29.451 9.51791 29.462 8.92725 29.4694C8.55003 29.4731 8.17282 29.4768 7.79376 29.4694C7.6484 29.4694 7.50303 29.4657 7.35399 29.4583C7.2123 29.4547 7.07246 29.4362 6.93445 29.403C6.44868 29.2756 6.11931 28.8472 5.94818 28.3912H3.04823C2.84767 28.3912 2.65446 28.3211 2.49805 28.1918C2.24965 27.9666 2.11532 27.6417 2.13188 27.3075C2.13188 26.857 2.31037 26.3844 2.49069 25.9801C2.58822 25.7604 2.73726 25.5683 2.92495 25.417C3.17152 25.2231 3.46409 25.0994 3.77322 25.0569C3.41073 24.2649 3.34632 23.4895 3.48801 22.5922L3.51745 22.3965L3.79714 22.4722C3.83026 22.3024 3.87626 22.1344 3.93147 21.9701C4.12651 21.3774 4.48533 20.8531 4.96742 20.458C5.14039 20.3195 5.32992 20.2014 5.53232 20.1091C5.55992 19.5718 5.63169 19.0383 5.74577 18.5121C5.85066 17.7994 6.05858 17.1071 6.36587 16.4572C6.21499 16.2726 6.08618 16.0695 5.98498 15.8535C5.97026 15.8203 5.95554 15.7852 5.9445 15.752C4.99502 15.211 4.15411 14.4966 3.46593 13.6436C3.05559 13.1377 2.45389 12.3494 2.40053 11.6866C2.37477 11.454 2.36741 11.2214 2.36373 10.9924C2.35637 10.4349 2.38581 9.8773 2.45389 9.32343C2.49069 9.00035 2.54406 8.6791 2.60662 8.3597C2.17972 7.86676 1.80803 7.32767 1.49706 6.75534C1.0076 5.85253 0.692949 4.86665 0.569664 3.84754C0.4519 2.83765 0.529183 1.813 0.797832 0.832654C0.933997 0.339712 1.37929 7.40835e-06 1.88899 7.40835e-06C3.80266 7.40835e-06 5.45504 0.784652 6.9915 1.79638C9.87672 0.022162 13.5109 0.022162 16.3961 1.79638C17.9289 0.784652 19.5812 7.40835e-06 21.4949 7.40835e-06C22.0046 -0.00183881 22.4517 0.341559 22.5824 0.836346C22.8473 1.81854 22.9228 2.84134 22.8069 3.85123C22.6836 4.87034 22.3689 5.85623 21.8795 6.75718C21.5703 7.33136 21.1986 7.87046 20.7736 8.3634C20.8325 8.66618 20.8822 8.97081 20.9226 9.28282C20.9926 9.84776 21.0238 10.4146 21.0165 10.9813C21.0128 11.2177 21.0054 11.454 20.9797 11.6829C20.919 12.366 20.3357 13.1303 19.9143 13.6491C19.2261 14.5002 18.3852 15.2147 17.4376 15.7557L17.3916 15.8572C17.3124 16.0252 17.2241 16.1895 17.1266 16.3483C17.0383 16.4923 16.9371 16.6271 16.8193 16.7489C16.8984 16.9317 16.9683 17.1182 17.0291 17.3083C17.1579 17.7108 17.2554 18.1244 17.3161 18.5416C17.3621 18.7558 17.4026 18.9736 17.432 19.1878C18.2803 17.7625 19.4101 16.4757 20.8306 15.6855C21.6623 15.2 22.6081 14.9452 23.5705 14.9507C24.5899 14.9766 25.5927 15.4529 26.3674 16.1065C27.2157 16.8228 27.9075 17.8474 28.0235 18.9755C28.0419 19.162 28.0308 19.3484 27.9867 19.5312C27.8192 20.1294 27.3942 20.6186 26.8274 20.866C26.1245 21.1965 25.2468 21.1854 24.6561 20.626C24.3231 20.3066 24.2182 19.9577 24.0508 19.5497C23.9698 19.3189 23.8244 19.1158 23.6331 18.9644C23.3497 18.7484 23.0001 18.6432 22.6468 18.6672C22.1426 18.7004 21.6936 18.9903 21.3385 19.3355C21.1379 19.5312 20.9521 19.738 20.7773 19.9577C20.4424 20.3731 20.1369 20.8143 19.8683 21.2777C19.6585 21.6285 19.4727 21.9941 19.3144 22.3688C19.3052 22.391 19.296 22.4132 19.285 22.4316C19.285 22.4427 19.2887 22.4538 19.2923 22.4648H19.2887ZM20.0633 19.2709C20.1093 19.2709 20.1553 19.2783 20.1977 19.2967C20.3688 19.0936 20.5491 18.8943 20.7368 18.7115C20.7957 18.6542 20.8564 18.5989 20.9116 18.5509C20.6798 18.3902 20.4865 18.1779 20.3504 17.9324C20.2289 17.7219 20.1461 17.4911 20.1075 17.2493C19.7248 17.5853 19.3715 17.9545 19.0531 18.3515C19.0347 18.6099 19.2887 18.9109 19.4653 19.0493C19.6328 19.1915 19.8444 19.2709 20.0633 19.2709ZM19.7965 19.8063C19.5499 19.7564 19.3199 19.6475 19.1231 19.4906C18.9206 19.3318 18.755 19.1324 18.6336 18.9053C18.2987 19.3835 17.9988 19.8875 17.7356 20.41C17.8313 20.4672 17.9215 20.5319 18.008 20.602C18.3171 20.8476 18.571 21.154 18.755 21.503C19.0531 20.9085 19.4009 20.3417 19.7947 19.8081L19.7965 19.8063ZM24.3654 18.3515C24.3654 18.3847 24.358 18.4179 24.3433 18.4493C24.9119 19.0087 24.8861 19.6604 25.2413 19.9983C25.8669 20.5946 27.2525 19.9226 27.166 19.0641C27.0869 18.3182 26.6581 17.576 26.0601 16.9908C26.0564 16.9871 26.0527 16.9834 26.0491 16.9834C25.9644 16.904 25.8485 16.8597 25.7307 16.8634C24.9763 16.8302 24.393 17.6241 24.3672 18.3533L24.3654 18.3515ZM23.8355 18.0764C23.8649 17.8881 23.9201 17.7034 23.9956 17.5299C24.2237 16.9742 24.6819 16.5477 25.2523 16.3594C24.7408 16.0326 24.1538 15.8424 23.5466 15.8111C23.381 15.8055 23.2154 15.8129 23.0498 15.8332C22.9964 15.8701 22.9486 15.9089 22.9228 15.9311C22.8915 15.9569 22.8639 15.9828 22.8363 16.0123C22.4591 16.4406 22.5033 17.2659 22.829 17.7071C22.8492 17.7348 22.8639 17.7662 22.8731 17.8013C23.2098 17.8216 23.5374 17.9158 23.8336 18.0745L23.8355 18.0764ZM22.253 17.8493C22.0984 17.552 22.0156 17.2234 22.0101 16.8893C22.0009 16.592 22.0561 16.2966 22.1739 16.0234C21.8519 16.1305 21.5427 16.2689 21.2465 16.4369C21.0717 16.5348 20.895 16.6474 20.7202 16.7674C20.7202 16.7711 20.7166 16.7711 20.7166 16.7748C20.5546 17.0111 20.7092 17.4302 20.8362 17.6517C20.9502 17.8641 21.1269 18.0376 21.3403 18.1465C21.3661 18.1558 21.3882 18.1705 21.4084 18.1871C21.6697 18.0284 21.9549 17.9139 22.253 17.8493ZM10.8704 2.43333C11.1077 2.43333 11.2255 2.71949 11.058 2.8875C10.8906 3.05551 10.6035 2.9355 10.6035 2.69919C10.6017 2.55149 10.7213 2.43148 10.8685 2.43333H10.8704ZM10.8704 3.60753C11.1077 3.60753 11.2255 3.89369 11.058 4.0617C10.8906 4.2297 10.6035 4.11155 10.6035 3.87338C10.6035 3.72753 10.7232 3.60753 10.8685 3.60753H10.8704ZM12.5117 2.43333C12.7491 2.43333 12.8668 2.71949 12.6994 2.8875C12.5319 3.05551 12.2467 2.9355 12.2467 2.69919C12.2467 2.55333 12.3663 2.43333 12.5117 2.43333ZM12.5117 3.60753C12.7491 3.60753 12.8668 3.89369 12.6994 4.0617C12.5319 4.2297 12.2467 4.11155 12.2467 3.87338C12.2467 3.72753 12.3663 3.60753 12.5117 3.60753ZM11.9137 1.56007V4.7448C13.6102 4.78172 15.2792 5.25436 16.3022 6.15901C17.4836 7.20582 18.2711 9.01696 18.1865 9.96961C18.111 10.8244 16.7512 11.4023 14.9387 11.7032C15.0307 11.8657 15.0933 12.0429 15.1264 12.2275C15.1688 12.4879 15.1669 12.7519 15.1228 13.0122C15.8073 12.9328 16.4237 12.8276 16.9739 12.7131C17.9491 12.5045 18.9059 12.2165 19.8333 11.8491C19.8664 11.7641 19.8867 11.6774 19.8959 11.5869C19.8959 11.5869 20.2878 8.00154 18.2637 5.06604C16.8303 2.94289 14.4695 1.63945 11.9155 1.56191L11.9137 1.56007ZM11.4702 4.7448V1.56007C8.87204 1.63945 6.47812 2.9872 5.05575 5.16759C3.11264 8.08646 3.49353 11.5887 3.49353 11.5887C3.50641 11.6811 3.53217 11.7715 3.56897 11.8583C4.49269 12.2202 5.444 12.5063 6.41371 12.7131C6.96758 12.8294 7.58032 12.9346 8.2685 13.014C8.22434 12.7537 8.2225 12.4897 8.26482 12.2294C8.29794 12.0448 8.36051 11.8675 8.45251 11.7051C6.64004 11.406 5.27839 10.8244 5.20479 9.97146C5.12015 9.01881 5.9077 7.20766 7.08902 6.16085C8.11026 5.25436 9.77736 4.78172 11.4739 4.74295L11.4702 4.7448ZM8.41203 13.4793C7.71096 13.4054 7.01358 13.2965 6.32355 13.1488C5.49368 12.9716 4.67669 12.7371 3.8781 12.4472C4.00139 12.6374 4.13571 12.8202 4.27924 12.9956C5.24711 14.179 6.53332 15.0615 7.98329 15.5378C8.45803 15.6984 8.94013 15.8295 9.42958 15.9274C9.42958 15.9237 9.4259 15.9163 9.4259 15.9126C9.37622 15.7815 9.36334 15.6412 9.38542 15.5027C9.4443 15.1575 9.70376 14.9396 10.0368 14.8012C9.4075 14.587 8.84444 14.2307 8.51507 13.6657C8.47459 13.6067 8.44147 13.5439 8.41387 13.4793H8.41203ZM10.0037 15.6929C10.0754 15.8775 10.311 16.0197 10.6054 16.1175C10.9642 16.1582 11.3267 16.1932 11.6892 16.2154C12.0554 16.1932 12.4215 16.1618 12.7803 16.1175C13.0564 16.0271 13.2808 15.8997 13.3673 15.7317C13.7409 15.0043 9.74976 15.0227 10.0037 15.6947V15.6929ZM19.5021 12.4528C18.7072 12.7408 17.892 12.9734 17.0659 13.1507C16.3758 13.2965 15.6785 13.4073 14.9755 13.4811C14.9461 13.5439 14.9148 13.6048 14.8817 13.6639C14.5523 14.227 13.9911 14.587 13.3636 14.8012C13.6893 14.9396 13.9396 15.1538 14.0021 15.488C14.0298 15.6357 14.015 15.7871 13.9617 15.9255C15.1522 15.7058 16.2912 15.2609 17.3143 14.6129C18.0264 14.1199 18.6594 13.5254 19.1948 12.8423C19.3034 12.7186 19.4046 12.5839 19.5003 12.4528H19.5021ZM11.5291 13.6177C11.3617 13.915 11.0139 14.3562 10.2797 14.2067C9.37806 13.9131 8.7322 13.3057 8.89228 12.3346C9.03765 11.4577 10.4931 10.9093 11.6855 10.9204H11.6965C12.8889 10.9093 14.3426 11.4577 14.4842 12.3346C14.6223 13.1747 14.1586 13.7451 13.4464 14.0719C12.3884 14.4652 12.0186 13.9519 11.853 13.6251C11.7738 13.4682 11.7407 13.3851 11.7002 13.3814H11.6892C11.6561 13.3962 11.6137 13.4719 11.5291 13.6177ZM11.6892 11.3303C10.9679 11.3303 10.0938 11.5407 10.0074 11.9894C9.86568 12.7353 10.9679 13.0953 11.6892 13.0953H11.7039C12.4252 13.0916 13.5164 12.7316 13.3747 11.9894C13.2882 11.5389 12.4142 11.3303 11.6929 11.3303H11.6892ZM9.67799 9.86807C9.67799 10.2281 9.14069 10.2281 9.14069 9.86807C9.14437 9.57637 9.04317 9.29389 8.85548 9.07235C8.6954 8.88034 8.45987 8.76587 8.20962 8.76034C8.04401 8.76034 7.88209 8.81203 7.74592 8.90619C7.5932 9.01327 7.47175 9.15912 7.39447 9.33082C7.33191 9.46375 7.17182 9.52098 7.03934 9.45821C6.90685 9.39544 6.84797 9.23481 6.91237 9.10189C7.03198 8.84526 7.21598 8.62372 7.44783 8.4594C7.67232 8.30432 7.94097 8.21939 8.2133 8.21939C8.61627 8.22309 9.00085 8.40401 9.2603 8.71418C9.53263 9.03542 9.68167 9.44344 9.67799 9.86622V9.86807ZM13.7041 9.86807C13.7041 10.2281 14.2414 10.2281 14.2432 9.86807C14.2395 9.57637 14.3407 9.29389 14.5284 9.07235C14.6885 8.87849 14.924 8.76587 15.1743 8.76034C15.3399 8.76034 15.5018 8.81203 15.638 8.90619C15.7907 9.01327 15.9121 9.15912 15.9894 9.33082C16.144 9.65022 16.6224 9.42498 16.4752 9.10189C16.3556 8.84526 16.1716 8.62372 15.9397 8.4594C15.7153 8.30432 15.4466 8.21939 15.1743 8.21939C14.7695 8.22309 14.3867 8.40401 14.1273 8.71418C13.8531 9.03358 13.7022 9.44344 13.7041 9.86622V9.86807ZM13.9212 17.0462C13.3489 17.2308 12.7564 17.3416 12.1566 17.3804C10.7765 17.4634 9.40014 17.157 8.18386 16.4997C7.94833 16.4314 7.72016 16.3538 7.49199 16.2708C8.05321 17.0277 8.83156 17.5927 9.724 17.8899C8.815 17.7367 7.89681 17.4542 7.18654 16.9594C6.72653 17.9564 6.44684 19.3447 6.67132 21.239C6.72469 21.671 6.79093 22.079 6.87373 22.4648C8.06977 21.9202 8.90701 22.1381 9.94664 22.8322C10.0239 21.682 10.2337 20.5429 10.5741 19.4407C10.6459 19.2266 10.7397 19.1213 10.8667 19.1103C11.001 19.0992 11.2292 19.1066 11.2218 19.5035C11.1813 19.6641 11.1464 19.8561 11.1206 19.9946C11.0488 20.362 10.9936 20.7368 10.9366 21.1097C10.8832 21.4771 10.8317 21.8445 10.7876 22.2156C10.7581 22.4519 10.7287 22.6956 10.7084 22.9356C10.7011 23.0723 10.6937 23.207 10.69 23.3418C11.2513 23.4101 11.8217 23.4046 12.3829 23.3307C12.3792 23.1996 12.3719 23.0649 12.3645 22.9338C12.324 22.3412 12.2338 21.719 12.1474 21.13C12.094 20.7774 12.0388 20.4211 11.9707 20.0721C11.9339 19.8543 11.8806 19.6401 11.8143 19.4315C11.8254 19.0383 12.3369 18.9515 12.4804 19.3853C12.8374 20.5171 13.0564 21.6894 13.1318 22.8729C14.0702 22.3319 15.3104 21.9313 16.2084 22.4335C16.2857 22.055 16.3501 21.658 16.4016 21.2371C16.6114 19.4869 16.3869 18.165 15.9876 17.1902C15.27 17.6148 14.3573 17.8401 13.4796 17.9508C14.4511 17.6739 15.3049 17.0813 15.9048 16.2671C15.6766 16.3483 15.4448 16.4277 15.2129 16.496C14.8026 16.7212 14.3702 16.904 13.923 17.0443L13.9212 17.0462ZM3.48433 1.3496C4.43564 1.63022 5.33912 2.05116 6.16531 2.60318C5.81937 2.88012 5.49736 3.18474 5.19743 3.51152C5.03551 3.24382 4.8607 2.9872 4.67669 2.73057C4.32524 2.23209 3.92595 1.77054 3.48433 1.3496ZM1.91107 1.12805H2.00124C3.06295 1.7133 4.01243 2.90227 4.71165 4.08385C4.56997 4.26848 4.43196 4.45864 4.29764 4.65434C3.78426 5.43159 3.38129 6.27717 3.10528 7.16705C2.2478 6.01131 1.16033 3.89 1.88163 1.15205C1.89267 1.14836 1.90003 1.13728 1.91107 1.1299V1.12805ZM21.4728 1.12805H21.3827C20.3209 1.7133 19.3715 2.90227 18.6722 4.08385C18.7882 4.2297 18.9004 4.38294 19.0053 4.54172C19.5573 5.35036 19.986 6.23655 20.2768 7.17074C21.1324 6.01685 22.2199 3.89369 21.4986 1.15574L21.4728 1.12805ZM19.8996 1.3496C18.9482 1.63022 18.0448 2.05116 17.2186 2.60318C17.5645 2.88196 17.8865 3.18659 18.1865 3.51522C18.3521 3.24936 18.5232 2.9872 18.7054 2.73057C19.0568 2.23209 19.4561 1.77054 19.8977 1.3496H19.8996ZM7.05774 23.2827C7.31167 24.2557 7.67232 25.1973 8.13786 26.089C8.1857 26.1868 8.26666 26.2681 8.36603 26.3142C8.73588 26.5395 9.25662 26.7832 9.34494 27.71C8.92173 27.169 8.51875 26.7832 7.89865 26.6484C7.5748 26.6225 7.25463 26.7333 7.01174 26.9512C6.5002 27.4829 6.87005 28.4023 7.18102 28.4854C7.49015 28.5685 10.6753 28.4854 10.6753 28.4854C10.6753 28.4854 10.806 27.8891 10.5594 27.5586C10.3165 27.2244 9.93744 25.5259 9.91168 23.7184C9.16461 23.063 8.00905 22.6199 7.0559 23.2827H7.05774ZM16.0041 23.2827C15.7502 24.2557 15.3896 25.1954 14.9277 26.089C14.878 26.1868 14.7971 26.2662 14.6995 26.3142C14.3297 26.5395 13.8089 26.7832 13.7206 27.71C14.1438 27.169 14.5468 26.7832 15.1669 26.6484C15.4687 26.6447 15.8165 26.7038 16.052 26.9512C16.5654 27.4829 16.1937 28.4023 15.8845 28.4854C15.5754 28.5685 12.3903 28.4854 12.3903 28.4854C12.3903 28.4854 12.2596 27.8891 12.5062 27.5586C12.7491 27.2244 13.1318 25.5259 13.1576 23.7184C13.8973 23.063 15.0528 22.6199 16.006 23.2827H16.0041ZM11.8198 27.3001C11.726 27.3001 11.6285 27.3038 11.5328 27.3038H11.3046C11.2697 27.2373 11.231 27.1709 11.1887 27.1081C11.1408 26.9992 11.1004 26.8866 11.0691 26.7702C10.9789 26.4508 10.9072 26.1241 10.852 25.7954C10.7508 25.1862 10.6919 24.5714 10.6808 23.9548C11.2623 24.036 11.8548 24.0304 12.4344 23.94C12.4252 24.6563 12.3516 25.3708 12.2136 26.0742C12.1658 26.3216 12.0425 26.9216 11.9137 27.1432C11.8806 27.1949 11.8493 27.2466 11.8198 27.3001ZM18.7808 23.4341C18.8066 25.1622 17.7191 25.8453 17.0843 26.3548C19.9768 25.0348 20.3099 27.2816 20.0118 27.529H17.018C16.9959 26.7961 16.4844 26.1684 15.7723 25.9985C16.0023 25.5148 16.1955 25.0163 16.3556 24.5049C17.2002 24.0508 18.1938 23.5855 18.7808 23.4323V23.4341ZM17.2002 20.8937C17.9252 21.2316 18.3815 21.9996 18.4827 22.8618C17.8718 23.063 17.2793 23.3141 16.7107 23.6114C16.9131 22.8618 17.0622 22.0974 17.1542 21.3276C17.1726 21.1891 17.1873 21.0433 17.2002 20.8919V20.8937ZM5.8617 20.9085C5.14775 21.2537 4.70245 22.0181 4.60493 22.8729C5.20479 23.0741 5.78625 23.3215 6.34747 23.615C6.14507 22.8655 5.99602 22.1011 5.90218 21.3294C5.88746 21.191 5.87274 21.0488 5.8617 20.9066V20.9085ZM4.2774 23.4341C4.25164 25.1622 5.33912 25.8453 5.97762 26.3548C3.08135 25.0348 2.75198 27.2816 3.04639 27.529H5.98866C6.00154 27.1136 6.16715 26.7167 6.45236 26.4158C6.66212 26.2016 6.92341 26.0447 7.21046 25.9616C7.14974 25.8379 7.09454 25.7142 7.03934 25.5868C6.87741 25.2157 6.73205 24.8372 6.6014 24.4495C5.78257 24.0175 4.84414 23.5837 4.2774 23.4341Z" fill="#E6EDEF"/>
</g>
<defs>
<clipPath id="clip0_9251_16663">
<rect width="28" height="29" fill="white" transform="translate(0.516235)"/>
</clipPath>
</defs>
</svg>
