<svg width="88" height="60" viewBox="0 0 88 60" fill="none" xmlns="http://www.w3.org/2000/svg">
<g clip-path="url(#clip0_9314_2489)">
<path d="M61.435 21.1855L73.5471 30.7367L65.5314 10.9473L61.435 21.1855Z" fill="#E6EDEF"/>
<path d="M65 -8C47.8836 -8 34 5.87253 34 23.0027C34 40.1328 47.8836 54.0053 65 54.0053C82.1164 54.0053 96 40.1328 96 23.0027C96 5.87253 82.1164 -8 65 -8ZM77.71 38.4264C77.1121 38.4264 76.6471 38.1827 76.005 37.673L60.0179 24.7533L54.6593 38.1827H50.0314L63.5829 5.6066C63.9371 4.74234 64.69 4.29913 65.5536 4.29913C66.4171 4.29913 67.1036 4.74234 67.4579 5.6066L79.7914 35.3018C79.9243 35.6564 80.0129 36.0109 79.9907 36.2104C79.9907 37.5178 78.9279 38.4264 77.7321 38.4264H77.71Z" fill="#E6EDEF"/>
</g>
<defs>
<clipPath id="clip0_9314_2489">
<rect width="88" height="60" fill="white"/>
</clipPath>
</defs>
</svg>
