<svg width="108" height="72" viewBox="0 0 108 72" fill="none" xmlns="http://www.w3.org/2000/svg">
<g clip-path="url(#clip0_9314_2488)">
<path d="M118 29C118 49.9849 100.99 67 80 67C59.0151 67 42 49.9896 42 29C42 8.01506 59.0151 -9 80 -9C100.99 -8.99531 118 8.01506 118 29Z" fill="#E6EDEF"/>
<path d="M80.6429 14.2139L90.4737 38.4836L75.6219 26.7851L80.6429 14.2139ZM98.1131 44.0771L82.9891 7.67721C82.5574 6.62609 81.694 6.07237 80.6476 6.07237C79.5964 6.07237 78.672 6.62609 78.2403 7.67721L61.6335 47.6011H67.3114L73.8809 31.1398L93.491 46.9817C94.2793 47.6199 94.8471 47.9062 95.5885 47.9062C97.0714 47.9062 98.3665 46.794 98.3665 45.1939C98.3712 44.9358 98.2773 44.5229 98.1131 44.0771Z" fill="white"/>
</g>
<defs>
<clipPath id="clip0_9314_2488">
<rect width="108" height="72" fill="white"/>
</clipPath>
</defs>
</svg>
