<svg width="108" height="72" viewBox="0 0 108 72" fill="none" xmlns="http://www.w3.org/2000/svg">
<g clip-path="url(#clip0_9314_2488)">
<path d="M75.63 26.7758L90.4771 38.4837L80.6514 14.2257L75.63 26.7758Z" fill="#E6EDEF"/>
<path d="M80 -9C59.0186 -9 42 8.00503 42 29.0033C42 50.0015 59.0186 67.0065 80 67.0065C100.981 67.0065 118 50.0015 118 29.0033C118 8.00503 100.981 -9 80 -9ZM95.58 47.9098C94.8471 47.9098 94.2771 47.611 93.49 46.9862L73.8929 31.1493L67.3243 47.611H61.6514L78.2629 7.67906C78.6971 6.61964 79.62 6.07635 80.6786 6.07635C81.7371 6.07635 82.5786 6.61964 83.0129 7.67906L98.1314 44.0796C98.2943 44.5142 98.4029 44.9489 98.3757 45.1934C98.3757 46.7961 97.0729 47.9098 95.6071 47.9098H95.58Z" fill="#E6EDEF"/>
</g>
<defs>
<clipPath id="clip0_9314_2488">
<rect width="108" height="72" fill="white"/>
</clipPath>
</defs>
</svg>
