<svg width="208" height="72" viewBox="0 0 208 72" fill="none" xmlns="http://www.w3.org/2000/svg">
<g clip-path="url(#clip0_9314_2487)">
<path d="M26.94 41.4246L44.1314 54.9811L32.7543 26.8929L26.94 41.4246Z" fill="#E6EDEF"/>
<path d="M32 0C7.70571 0 -12 19.69 -12 44.0038C-12 68.3175 7.70571 88.0075 32 88.0075C56.2943 88.0075 76 68.3175 76 44.0038C76 19.69 56.2943 0 32 0ZM50.04 65.8956C49.1914 65.8956 48.5314 65.5496 47.62 64.8261L24.9286 46.4886L17.3229 65.5496H10.7543L29.9886 19.3126C30.4914 18.0859 31.56 17.4568 32.7857 17.4568C34.0114 17.4568 34.9857 18.0859 35.4886 19.3126L52.9943 61.4606C53.1829 61.9639 53.3086 62.4671 53.2771 62.7502C53.2771 64.606 51.7686 65.8956 50.0714 65.8956H50.04Z" fill="#E6EDEF"/>
</g>
<defs>
<clipPath id="clip0_9314_2487">
<rect width="208" height="72" fill="white"/>
</clipPath>
</defs>
</svg>
