<svg width="208" height="72" viewBox="0 0 208 72" fill="none" xmlns="http://www.w3.org/2000/svg">
<g clip-path="url(#clip0_9314_2487)">
<path d="M76 44C76 68.2983 56.3038 88 32 88C7.70166 88 -12 68.3038 -12 44C-12 19.7017 7.70166 0 32 0C56.3038 0.00543344 76 19.7017 76 44Z" fill="#E6EDEF"/>
<path d="M32.7444 26.8792L44.1274 54.981L26.9306 41.4354L32.7444 26.8792ZM52.9731 61.4577L35.4611 19.3105C34.9612 18.0934 33.9615 17.4522 32.7498 17.4522C31.5327 17.4522 30.4623 18.0934 29.9624 19.3105L10.7335 65.5382H17.308L24.9148 46.4777L47.6211 64.821C48.5339 65.5599 49.1914 65.8913 50.0499 65.8913C51.7668 65.8913 53.2665 64.6036 53.2665 62.7508C53.2719 62.452 53.1632 61.9738 52.9731 61.4577Z" fill="white"/>
</g>
<defs>
<clipPath id="clip0_9314_2487">
<rect width="208" height="72" fill="white"/>
</clipPath>
</defs>
</svg>
