<svg width="88" height="60" viewBox="0 0 88 60" fill="none" xmlns="http://www.w3.org/2000/svg">
<g clip-path="url(#clip0_9314_2552)">
<g clip-path="url(#clip1_9314_2552)">
<path d="M64.1035 -5.33467C64.1035 -5.1787 64.0724 -5.02425 64.0119 -4.88015C63.9514 -4.73605 63.8628 -4.60512 63.7511 -4.49483C63.6394 -4.38454 63.5067 -4.29705 63.3608 -4.23736C63.2148 -4.17767 63.0583 -4.14695 62.9003 -4.14695C62.7423 -4.14695 62.5859 -4.17767 62.4399 -4.23736C62.2939 -4.29705 62.1613 -4.38454 62.0496 -4.49483C61.9378 -4.60512 61.8492 -4.73605 61.7887 -4.88015C61.7283 -5.02425 61.6972 -5.1787 61.6972 -5.33467C61.6972 -5.64835 61.8234 -5.94917 62.0481 -6.17097C62.2728 -6.39278 62.5775 -6.51738 62.8952 -6.51738C63.213 -6.51738 63.5177 -6.39278 63.7424 -6.17097C63.9671 -5.94917 64.0933 -5.64835 64.0933 -5.33467H64.1035ZM54.5391 25.6563C54.4526 25.7218 54.3434 25.7511 54.2352 25.738C54.127 25.7249 54.0283 25.6704 53.9604 25.5862C45.4723 14.8917 50.3966 1.05998 59.9813 -4.35242C60.0279 -4.3914 60.0826 -4.41978 60.1416 -4.43552C60.2006 -4.45127 60.2624 -4.454 60.3226 -4.44353C60.3827 -4.43306 60.4398 -4.40964 60.4898 -4.37494C60.5398 -4.34023 60.5814 -4.29509 60.6117 -4.24272C60.642 -4.19034 60.6603 -4.13203 60.6652 -4.0719C60.6701 -4.01178 60.6616 -3.95132 60.6402 -3.89483C60.6188 -3.83833 60.585 -3.78718 60.5413 -3.74501C60.4976 -3.70284 60.4451 -3.67068 60.3874 -3.65081C51.1784 1.56113 46.4876 14.8416 54.6102 25.085C54.6443 25.1268 54.6696 25.1749 54.6845 25.2266C54.6995 25.2782 54.7037 25.3322 54.6971 25.3855C54.6905 25.4388 54.6731 25.4902 54.6459 25.5367C54.6188 25.5833 54.5825 25.6239 54.5391 25.6563ZM61.8698 17.5077C62.3222 17.5077 62.756 17.3303 63.0759 17.0145C63.3958 16.6987 63.5755 16.2704 63.5755 15.8238C63.5755 15.3772 63.3958 14.9489 63.0759 14.6331C62.756 14.3174 62.3222 14.1399 61.8698 14.1399C61.4174 14.1399 60.9835 14.3174 60.6636 14.6331C60.3437 14.9489 60.164 15.3772 60.164 15.8238C60.164 16.2704 60.3437 16.6987 60.6636 17.0145C60.9835 17.3303 61.4174 17.5077 61.8698 17.5077ZM78.5719 17.5077C79.0243 17.5077 79.4581 17.3303 79.778 17.0145C80.0979 16.6987 80.2776 16.2704 80.2776 15.8238C80.2776 15.3772 80.0979 14.9489 79.778 14.6331C79.4581 14.3174 79.0243 14.1399 78.5719 14.1399C78.1195 14.1399 77.6856 14.3174 77.3657 14.6331C77.0458 14.9489 76.8661 15.3772 76.8661 15.8238C76.8661 16.2704 77.0458 16.6987 77.3657 17.0145C77.6856 17.3303 78.1195 17.5077 78.5719 17.5077Z" fill="#E6EDEF"/>
<path fill-rule="evenodd" clip-rule="evenodd" d="M45.5535 18.9309C45.4055 19.0342 45.2315 19.0952 45.0507 19.1072C44.8698 19.1191 44.6891 19.0816 44.5285 18.9987C44.3679 18.9158 44.2336 18.7907 44.1403 18.6373C44.0471 18.4839 43.9985 18.308 44 18.1291V8.54713C44.0023 8.37304 44.0518 8.20273 44.1435 8.05401C44.2353 7.90528 44.3657 7.7836 44.5214 7.70167C44.677 7.61973 44.852 7.58055 45.0282 7.58823C45.2044 7.5959 45.3753 7.65015 45.523 7.74529C46.8004 2.14699 49.9686 -2.85596 54.5072 -6.44167C59.0458 -10.0274 64.6849 -11.9826 70.498 -11.9861C76.3112 -11.9896 81.9527 -10.0412 86.4957 -6.46092C91.0387 -2.88067 94.2131 2.11846 95.4974 7.71523C95.6474 7.6261 95.8189 7.57809 95.994 7.57615C96.1691 7.57421 96.3416 7.6184 96.4937 7.70418C96.6458 7.78996 96.7719 7.91422 96.8591 8.06415C96.9463 8.21409 96.9915 8.38427 96.9899 8.55716V18.1291C96.9913 18.3049 96.9444 18.4778 96.8541 18.6293C96.7639 18.7809 96.6337 18.9055 96.4775 18.9898C96.3212 19.0741 96.1447 19.115 95.9667 19.1082C95.7888 19.1014 95.616 19.047 95.4669 18.951C94.5889 22.7049 92.8549 26.2116 90.397 29.2042C87.939 32.1968 84.8219 34.5965 81.2828 36.2205L81.2726 36.3909C81.7224 37.1032 82.3256 37.7089 83.0393 38.165C84.1294 38.7186 85.3201 39.0525 86.5422 39.1472C86.5422 39.1472 84.9278 39.9491 82.9581 39.7687C81.7194 39.6684 81.1914 39.9691 80.9985 40.5705L81.1305 38.596L80.9985 40.5605C80.7954 45.0407 80.5518 47.6768 80.4705 48.5989L80.4401 48.9798V49.08C80.3995 49.3306 80.3588 49.7215 81.3539 50.1224C81.9123 50.3529 82.8464 50.6135 83.6485 50.834C84.4608 51.0645 85.1309 51.255 85.1309 51.3251C85.1309 51.4655 80.6736 51.3251 80.6736 51.3251C78.115 51.3251 78.115 49.4408 78.115 48.9798C78.115 48.5187 77.4246 40.6407 77.4246 40.6407L77.191 50.814C77.191 51.275 77.4246 51.9566 79.0491 52.4176C79.0491 52.4176 82.6027 52.9489 82.6027 53.1393C82.6027 53.3398 78.3485 53.1393 78.3485 53.1393C75.1198 53.1393 75.1198 51.275 75.1198 51.275L74.4192 42.9359C74.4192 42.9359 74.1857 51.275 74.1857 52.4176C74.1857 53.3197 74.3481 54.0013 76.8864 54.4623C77.3738 54.6026 78.0642 54.743 78.714 54.8833C79.6989 55.0837 80.5822 55.2842 80.5822 55.3844C80.5822 55.5448 74.937 55.3844 74.937 55.3844C71.9215 55.1539 71.6372 53.0792 71.6372 53.0792L70.4899 48.9397L69.3527 53.0892C69.3527 53.0892 68.8857 55.1539 65.86 55.3844C65.86 55.3844 60.7428 55.5448 60.7428 55.3844C60.7428 55.2842 61.4839 55.1038 62.3673 54.9033C62.946 54.763 63.5857 54.6127 64.0933 54.4623C65.86 53.9511 66.7941 53.3197 66.7941 52.4176C66.7941 51.275 66.5606 42.9359 66.5606 42.9359L65.86 51.275C65.86 51.275 65.86 53.3197 62.6313 53.3197C62.6313 53.3197 58.0217 53.3297 58.0217 53.1393C58.0217 52.9388 61.9104 52.4176 61.9104 52.4176C63.5349 51.9566 63.7684 51.275 63.7684 50.814L63.5451 40.6407C63.5451 40.6407 62.8343 48.5187 62.8343 48.9798C62.8343 49.4408 62.8343 51.5055 60.296 51.5055C60.296 51.5055 55.991 51.2951 55.991 51.1447C55.991 51.0746 56.5292 50.9443 57.2196 50.7839C58.0115 50.6035 59.0065 50.373 59.6157 50.1224C60.6006 49.7215 60.56 49.3205 60.5295 49.08V48.9798L59.961 40.6507C59.768 40.0693 59.2502 39.7486 58.0115 39.8488C56.7796 39.9423 55.5437 39.7287 54.4173 39.2274C55.6386 39.1358 56.8294 38.8053 57.9202 38.2552C58.6031 37.8271 59.1433 37.2101 59.4736 36.4811L59.4634 36.0802C55.9893 34.4361 52.9349 32.0407 50.5269 29.0719C48.1188 26.103 46.419 22.637 45.5535 18.9309ZM81.364 34.8474L81.4757 32.7626C81.6585 29.3749 81.8209 26.4281 81.9631 23.0002C83.1041 22.4202 84.0661 21.548 84.7484 20.475C85.4307 19.4019 85.8083 18.1675 85.8415 16.901C85.8747 15.6345 85.5624 14.3825 84.9372 13.276C84.312 12.1696 83.397 11.2494 82.288 10.6119V10.4816C82.288 4.08691 77.3332 -1.46581 70.3579 -1.46581C63.3725 -1.46581 58.7426 4.29739 58.7426 10.4715V10.4916C57.5727 11.1123 56.6009 12.0421 55.9358 13.1769C55.2707 14.3118 54.9385 15.6069 54.9764 16.9174C55.0144 18.228 55.4209 19.5023 56.1506 20.5978C56.8802 21.6932 57.9043 22.5667 59.1081 23.1205L59.433 34.7171C54.5458 32.252 50.6437 28.2316 48.3577 23.3062C46.0717 18.3807 45.5356 12.838 46.8358 7.57446C48.1361 2.3109 51.1969 -2.36585 55.5231 -5.69954C59.8494 -9.03322 65.1882 -10.8289 70.6764 -10.7963C76.1645 -10.7637 81.4811 -8.9047 85.7664 -5.51985C90.0517 -2.135 93.0552 2.57777 94.2912 7.8564C95.5272 13.135 94.9235 18.6709 92.5776 23.5689C90.2318 28.4668 86.281 32.4405 81.364 34.8474ZM74.7238 27.8514C74.6629 30.4072 73.5765 34.1758 70.2259 34.1758C66.7738 34.1758 65.9209 29.9161 65.9209 27.6208C65.9209 27.6208 67.4439 29.7457 70.2259 29.7457C73.0079 29.7457 74.7238 27.6208 74.7238 27.6208V27.8514ZM62.1338 22.2686C62.8724 22.2686 63.6039 22.1249 64.2863 21.8459C64.9688 21.5668 65.5888 21.1578 66.1112 20.6422C66.6335 20.1266 67.0478 19.5145 67.3305 18.8408C67.6132 18.1671 67.7587 17.445 67.7587 16.7158C67.7587 15.9867 67.6132 15.2646 67.3305 14.5909C67.0478 13.9172 66.6335 13.3051 66.1112 12.7895C65.5888 12.2739 64.9688 11.8649 64.2863 11.5858C63.6039 11.3068 62.8724 11.1631 62.1338 11.1631C60.6419 11.1631 59.2112 11.7481 58.1563 12.7895C57.1015 13.8308 56.5088 15.2432 56.5088 16.7158C56.5088 18.1885 57.1015 19.6009 58.1563 20.6422C59.2112 21.6836 60.6419 22.2686 62.1338 22.2686ZM78.6836 22.2686C79.4222 22.2686 80.1537 22.1249 80.8361 21.8459C81.5186 21.5668 82.1386 21.1578 82.661 20.6422C83.1833 20.1266 83.5976 19.5145 83.8803 18.8408C84.163 18.1671 84.3085 17.445 84.3085 16.7158C84.3085 15.9867 84.163 15.2646 83.8803 14.5909C83.5976 13.9172 83.1833 13.3051 82.661 12.7895C82.1386 12.2739 81.5186 11.8649 80.8361 11.5858C80.1537 11.3068 79.4222 11.1631 78.6836 11.1631C77.1917 11.1631 75.761 11.7481 74.7062 12.7895C73.6513 13.8308 73.0587 15.2432 73.0587 16.7158C73.0587 18.1885 73.6513 19.6009 74.7062 20.6422C75.761 21.6836 77.1917 22.2686 78.6836 22.2686Z" fill="#E6EDEF"/>
</g>
</g>
<defs>
<clipPath id="clip0_9314_2552">
<rect width="88" height="60" fill="white"/>
</clipPath>
<clipPath id="clip1_9314_2552">
<rect width="53" height="67.4546" fill="white" transform="translate(44 -12)"/>
</clipPath>
</defs>
</svg>
