<svg width="108" height="72" viewBox="0 0 108 72" fill="none" xmlns="http://www.w3.org/2000/svg">
<g clip-path="url(#clip0_9314_2560)">
<g clip-path="url(#clip1_9314_2560)">
<path d="M13.056 8.38647C12.8223 8.38647 12.7639 8.27124 12.8808 8.09839L14.1077 6.54279C14.2246 6.36994 14.5167 6.25471 14.7504 6.25471H35.6085C35.8422 6.25471 35.9006 6.42756 35.7838 6.6004L34.7905 8.09839C34.6737 8.27124 34.3816 8.44408 34.2063 8.44408L13.056 8.38647Z" fill="#E6EDEF"/>
<path d="M4.2337 13.6871C4 13.6871 3.94157 13.5718 4.05843 13.399L5.28537 11.8434C5.40223 11.6705 5.69436 11.5553 5.92806 11.5553H32.5703C32.8041 11.5553 32.9209 11.7281 32.8625 11.901L32.3951 13.2837C32.3366 13.5142 32.1029 13.6294 31.8692 13.6294L4.2337 13.6871Z" fill="#E6EDEF"/>
<path d="M18.3728 18.9876C18.1391 18.9876 18.0807 18.8148 18.1975 18.642L19.0155 17.2016C19.1324 17.0287 19.3661 16.8559 19.5998 16.8559H31.285C31.5187 16.8559 31.6355 17.0287 31.6355 17.2592L31.5187 18.642C31.5187 18.8724 31.285 19.0453 31.1097 19.0453L18.3728 18.9876Z" fill="#E6EDEF"/>
<path d="M79.0191 7.3494C75.3382 8.27124 72.8259 8.96262 69.2035 9.88446C68.3271 10.1149 68.2687 10.1725 67.5091 9.30831C66.6327 8.32885 65.9901 7.69509 64.7631 7.11894C61.0823 5.33287 57.5183 5.85141 54.188 7.98316C50.215 10.5182 48.1701 14.2632 48.2285 18.93C48.287 23.5392 51.5004 27.3418 56.1161 27.9756C60.089 28.4941 63.4193 27.1114 66.0485 24.173C66.5743 23.5392 67.0417 22.8479 67.626 22.0412C65.5227 22.0412 62.8935 22.0412 56.3498 22.0412C55.1228 22.0412 54.8307 21.2922 55.2397 20.3128C55.9992 18.5267 57.4014 15.5307 58.2194 14.0327C58.3947 13.6871 58.8037 13.1109 59.68 13.1109C62.6598 13.1109 73.6439 13.1109 80.9471 13.1109C80.8303 14.6665 80.8303 16.2221 80.5966 17.7777C79.9539 21.926 78.3764 25.7286 75.8056 29.0703C71.599 34.5437 66.1069 37.943 59.1542 38.8648C53.4285 39.6138 48.1117 38.5191 43.4376 35.0622C39.1141 31.8358 36.6602 27.5723 36.0175 22.2717C35.2579 15.9917 37.1276 10.3454 40.9837 5.39049C45.132 0.0322868 50.624 -3.367 57.343 -4.57692C62.8351 -5.55637 68.0934 -4.92261 72.8259 -1.75378C75.9225 0.262747 78.1427 3.02827 79.6033 6.36994C79.9539 6.88848 79.7202 7.17655 79.0191 7.3494Z" fill="#E6EDEF"/>
<path d="M98.3581 39.2105C93.0413 39.0953 88.192 37.5973 84.1021 34.1404C80.655 31.202 78.4932 27.4571 77.7921 23.0207C76.7405 16.5102 78.5517 10.7487 82.5246 5.62095C86.7897 0.0899015 91.9312 -2.79085 98.8839 -4.00077C104.843 -5.03784 110.452 -4.46169 115.535 -1.0624C120.151 2.04881 123.014 6.25471 123.773 11.7858C124.767 19.5638 122.488 25.9014 117.054 31.3173C113.198 35.1775 108.466 37.5973 103.032 38.692C101.455 38.9801 99.8772 39.0377 98.3581 39.2105ZM112.264 15.934C112.205 15.185 112.205 14.6089 112.088 14.0327C111.037 8.32885 105.72 5.10241 100.169 6.36994C94.7357 7.57986 91.2301 10.9791 89.9448 16.395C88.8931 20.8889 91.1133 25.4405 95.3199 27.2842C98.5334 28.667 101.747 28.4941 104.843 26.9385C109.459 24.5763 111.971 20.8889 112.264 15.934Z" fill="#E6EDEF"/>
</g>
</g>
<defs>
<clipPath id="clip0_9314_2560">
<rect width="108" height="72" fill="white"/>
</clipPath>
<clipPath id="clip1_9314_2560">
<rect width="120" height="44.2105" fill="white" transform="translate(4 -5)"/>
</clipPath>
</defs>
</svg>
