<svg width="88" height="60" viewBox="0 0 88 60" fill="none" xmlns="http://www.w3.org/2000/svg">
<g clip-path="url(#clip0_9314_2561)">
<g clip-path="url(#clip1_9314_2561)">
<path d="M9.61531 7.2032C9.41878 7.2032 9.36965 7.10676 9.46791 6.96211L10.4997 5.66021C10.5979 5.51556 10.8436 5.41912 11.0401 5.41912H28.5799C28.7764 5.41912 28.8255 5.56378 28.7273 5.70843L27.892 6.96211C27.7938 7.10676 27.5481 7.25142 27.4007 7.25142L9.61531 7.2032Z" fill="#E6EDEF"/>
<path d="M2.19652 11.6393C2 11.6393 1.95087 11.5428 2.04913 11.3982L3.08088 10.0963C3.17914 9.95164 3.4248 9.85521 3.62132 9.85521H26.0251C26.2216 9.85521 26.3199 9.99986 26.2707 10.1445L25.8777 11.3018C25.8285 11.4946 25.632 11.5911 25.4355 11.5911L2.19652 11.6393Z" fill="#E6EDEF"/>
<path d="M14.0862 16.0754C13.8897 16.0754 13.8406 15.9307 13.9388 15.7861L14.6267 14.5806C14.7249 14.4359 14.9215 14.2913 15.118 14.2913H24.9442C25.1407 14.2913 25.239 14.4359 25.239 14.6288L25.1407 15.7861C25.1407 15.9789 24.9442 16.1236 24.7968 16.1236L14.0862 16.0754Z" fill="#E6EDEF"/>
<path d="M65.0842 6.33527C61.989 7.10676 59.8763 7.68538 56.8302 8.45688C56.0932 8.64975 56.0441 8.69797 55.4054 7.97469C54.6684 7.15498 54.128 6.62458 53.0963 6.1424C50.001 4.64763 47.004 5.08159 44.2035 6.86567C40.8626 8.98728 39.143 12.1215 39.1922 16.0272C39.2413 19.8846 41.9435 23.067 45.8249 23.5974C49.1658 24.0314 51.9662 22.8742 54.1771 20.415C54.6193 19.8846 55.0124 19.306 55.5037 18.6309C53.735 18.6309 51.5241 18.6309 46.0214 18.6309C44.9896 18.6309 44.744 18.0041 45.0879 17.1844C45.7266 15.6896 46.9057 13.1823 47.5936 11.9286C47.741 11.6393 48.0849 11.1571 48.8219 11.1571C51.3275 11.1571 60.5642 11.1571 66.7055 11.1571C66.6073 12.459 66.6073 13.7609 66.4108 15.0628C65.8703 18.5345 64.5438 21.7169 62.382 24.5136C58.8446 29.0943 54.2263 31.9392 48.3797 32.7107C43.5648 33.3375 39.0939 32.4214 35.1634 29.5283C31.5277 26.8281 29.4642 23.2599 28.9238 18.8238C28.2851 13.568 29.8573 8.84262 33.0999 4.69585C36.5882 0.211545 41.2065 -2.63334 46.8566 -3.64592C51.4749 -4.46563 55.8967 -3.93523 59.8763 -1.28322C62.4803 0.404418 64.3473 2.7189 65.5755 5.51556C65.8703 5.94952 65.6738 6.19061 65.0842 6.33527Z" fill="#E6EDEF"/>
<path d="M81.3466 33C76.8757 32.9036 72.7978 31.6499 69.3586 28.7568C66.4599 26.2977 64.642 23.1635 64.0525 19.4506C63.1681 14.002 64.6912 9.18015 68.0321 4.88872C71.6186 0.259763 75.9422 -2.15115 81.7888 -3.16374C86.8001 -4.03167 91.5167 -3.54948 95.7911 -0.704603C99.6724 1.89919 102.08 5.41912 102.719 10.0481C103.554 16.5576 101.638 21.8616 97.0685 26.3941C93.8259 29.6247 89.8462 31.6499 85.2771 32.566C83.9505 32.8071 82.624 32.8553 81.3466 33ZM93.0398 13.5198C92.9906 12.893 92.9906 12.4108 92.8924 11.9286C92.008 7.15498 87.5371 4.45476 82.8696 5.51556C78.3005 6.52814 75.3526 9.37302 74.2717 13.9055C73.3874 17.6666 75.2543 21.4758 78.7918 23.0188C81.494 24.176 84.1962 24.0314 86.8001 22.7295C90.6815 20.7525 92.7941 17.6666 93.0398 13.5198Z" fill="#E6EDEF"/>
</g>
</g>
<defs>
<clipPath id="clip0_9314_2561">
<rect width="88" height="60" fill="white"/>
</clipPath>
<clipPath id="clip1_9314_2561">
<rect width="100.909" height="37" fill="white" transform="translate(2 -4)"/>
</clipPath>
</defs>
</svg>
