<svg width="208" height="72" viewBox="0 0 208 72" fill="none" xmlns="http://www.w3.org/2000/svg">
<g clip-path="url(#clip0_9314_2532)">
<g clip-path="url(#clip1_9314_2532)">
<path d="M47.8444 64.3495C49.8391 67.2389 50.5645 70.2116 49.468 70.9908C48.3715 71.7699 45.8668 70.0592 43.8721 67.1699C43.1383 66.1061 42.5801 65.0309 42.2175 64.0591C38.9421 66.2786 35.154 67.6759 31.1731 68.0841C31.4026 69.0616 31.5415 70.203 31.5415 71.4364C31.5415 74.964 30.4563 77.8217 29.1161 77.8217C27.776 77.8217 26.6908 74.964 26.6908 71.4364C26.6908 70.2289 26.824 69.1163 27.045 68.1531C23.0386 67.8685 19.2108 66.5805 15.8703 64.4616C15.5105 65.327 15.0203 66.247 14.3856 67.1699C12.391 70.0592 9.88629 71.7699 8.78979 70.9908C7.69329 70.2116 8.41862 67.2389 10.4133 64.3495C11.082 63.3806 11.8073 62.5613 12.5185 61.9058C11.1386 60.6494 9.88912 59.2291 8.80962 57.6536L11.9943 55.4054C15.8051 60.9656 22.064 64.2834 28.7336 64.2834C35.4203 64.2834 41.6848 60.9541 45.4956 55.3766L48.6831 57.6191C47.6971 59.0624 46.5666 60.3705 45.3313 61.5464C46.1699 62.2393 47.0454 63.1938 47.8444 64.3495ZM12.7848 25.1661C11.099 26.6611 9.60012 28.3947 8.34779 30.3612L11.6061 32.4974C15.3801 26.5691 21.7835 23.03 28.7365 23.03C35.919 23.03 42.4356 26.7502 46.1643 32.9804L49.4793 30.9363C48.2468 28.8778 46.7508 27.0579 45.0593 25.4881C45.9773 24.7838 46.9604 23.7545 47.8444 22.4722C49.8391 19.5829 50.5645 16.6101 49.468 15.831C48.3715 15.0519 45.8668 16.7625 43.8721 19.6519C43.0391 20.8565 42.4441 22.0669 42.0956 23.1364C38.8316 20.9485 35.0548 19.5944 31.0456 19.2149C31.3516 18.1454 31.5415 16.8286 31.5415 15.3825C31.5415 11.8578 30.4563 9 29.1161 9C27.776 9 26.6908 11.8577 26.6908 15.3854C26.6908 16.797 26.8693 18.0908 27.164 19.1459C23.1605 19.4046 19.3525 20.6553 16.029 22.731C15.6663 21.765 15.1138 20.7041 14.3856 19.6519C12.3938 16.7625 9.88912 15.0548 8.79262 15.8339C7.69612 16.613 8.42146 19.5857 10.4161 22.4751C11.167 23.5619 11.9915 24.4819 12.7848 25.1661ZM-3.58337 52.907H1.08596V45.8H6.35312V52.9099H11.0225V34.9986H6.35596V41.6658H1.08596V34.9986H-3.58337V52.907ZM14.9353 34.9986V52.907H26.6115V48.9395H19.6046V45.7425H25.362V41.775H19.6046V38.9632H26.3395V34.9957L14.9353 34.9986ZM30.0313 34.9986V52.907H41.3816V48.9395H34.7006V34.9986H30.0313ZM44.4218 34.9986V52.907H48.7115V47.617C48.7115 47.157 48.6888 46.6539 48.6435 46.1019C48.5981 45.5499 48.5471 44.9864 48.4933 44.4085C48.4394 43.8306 48.3743 43.2643 48.3034 42.7151C48.2298 42.1631 48.1674 41.6686 48.1136 41.2288H48.2213L49.6323 45.4176L52.0774 51.4522H53.8143L56.2566 45.4176L57.7214 41.2288H57.8291C57.7753 41.6686 57.7101 42.166 57.6393 42.718C57.5656 43.27 57.5033 43.8335 57.4494 44.4114C57.3956 44.9893 57.3446 45.5556 57.2993 46.1048C57.2539 46.6568 57.2313 47.1599 57.2313 47.6199V52.9099H61.5833V34.9986H56.7496L54.0891 42.4391L53.1116 45.3601H53.0039L52.0265 42.4391L49.2554 34.9986H44.4218Z" fill="#E6EDEF"/>
</g>
</g>
<defs>
<clipPath id="clip0_9314_2532">
<rect width="208" height="72" fill="white"/>
</clipPath>
<clipPath id="clip1_9314_2532">
<rect width="68" height="69" fill="white" transform="translate(-5 9)"/>
</clipPath>
</defs>
</svg>
