<svg width="88" height="60" viewBox="0 0 88 60" fill="none" xmlns="http://www.w3.org/2000/svg">
<g clip-path="url(#clip0_9314_2534)">
<g clip-path="url(#clip1_9314_2534)">
<path d="M82.5191 39.7235C84.1617 42.1104 84.7591 44.5661 83.8561 45.2098C82.9531 45.8534 80.8904 44.4402 79.2477 42.0534C78.6434 41.1746 78.1837 40.2864 77.8851 39.4836C75.1877 41.3171 72.0681 42.4714 68.7897 42.8086C68.9787 43.6161 69.0931 44.559 69.0931 45.5779C69.0931 48.492 68.1994 50.8527 67.0957 50.8527C65.9921 50.8527 65.0984 48.492 65.0984 45.5779C65.0984 44.5804 65.2081 43.6613 65.3901 42.8656C62.0907 42.6305 58.9384 41.5665 56.1874 39.8161C55.8911 40.531 55.4874 41.291 54.9647 42.0534C53.3221 44.4402 51.2594 45.8534 50.3564 45.2098C49.4534 44.5661 50.0507 42.1104 51.6934 39.7235C52.2441 38.9231 52.8414 38.2463 53.4271 37.7048C52.2907 36.6669 51.2617 35.4936 50.3727 34.1921L52.9954 32.3349C56.1337 36.9281 61.2881 39.6689 66.7807 39.6689C72.2874 39.6689 77.4464 36.9186 80.5847 32.3111L83.2097 34.1636C82.3977 35.3559 81.4667 36.4365 80.4494 37.4079C81.1401 37.9803 81.8611 38.7688 82.5191 39.7235ZM53.6464 7.35463C52.2581 8.58963 51.0237 10.0217 49.9924 11.6462L52.6757 13.4109C55.7837 8.51363 61.0571 5.59 66.7831 5.59C72.6981 5.59 78.0647 8.66325 81.1354 13.8099L83.8654 12.1213C82.8504 10.4208 81.6184 8.91738 80.2254 7.62063C80.9814 7.03875 81.7911 6.1885 82.5191 5.12925C84.1617 2.74237 84.7591 0.286625 83.8561 -0.357C82.9531 -1.00063 80.8904 0.4125 79.2477 2.79937C78.5617 3.7945 78.0717 4.79437 77.7847 5.67787C75.0967 3.8705 71.9864 2.75187 68.6847 2.43837C68.9367 1.55487 69.0931 0.467125 69.0931 -0.7275C69.0931 -3.63925 68.1994 -6 67.0957 -6C65.9921 -6 65.0984 -3.63925 65.0984 -0.725125C65.0984 0.441 65.2454 1.50975 65.4881 2.38138C62.1911 2.59513 59.0551 3.62825 56.3181 5.343C56.0194 4.545 55.5644 3.66862 54.9647 2.79937C53.3244 0.4125 51.2617 -0.99825 50.3587 -0.354625C49.4557 0.289 50.0531 2.74475 51.6957 5.13162C52.3141 6.02937 52.9931 6.78938 53.6464 7.35463ZM40.1667 30.271H44.0121V24.4H48.3497V30.2734H52.1951V15.4771H48.3521V20.9848H44.0121V15.4771H40.1667V30.271ZM55.4174 15.4771V30.271H65.0331V26.9935H59.2627V24.3525H64.0041V21.075H59.2627V18.7522H64.8091V15.4747L55.4174 15.4771ZM67.8494 15.4771V30.271H77.1967V26.9935H71.6947V15.4771H67.8494ZM79.7004 15.4771V30.271H83.2331V25.901C83.2331 25.521 83.2144 25.1054 83.1771 24.6494C83.1397 24.1934 83.0977 23.7279 83.0534 23.2505C83.0091 22.7731 82.9554 22.3053 82.8971 21.8516C82.8364 21.3956 82.7851 20.9871 82.7407 20.6238H82.8294L83.9914 24.0841L86.0051 29.0692H87.4354L89.4467 24.0841L90.6531 20.6238H90.7417C90.6974 20.9871 90.6437 21.398 90.5854 21.854C90.5247 22.31 90.4734 22.7755 90.4291 23.2529C90.3847 23.7303 90.3427 24.1981 90.3054 24.6518C90.2681 25.1078 90.2494 25.5234 90.2494 25.9034V30.2734H93.8334V15.4771H89.8527L87.6617 21.6236L86.8567 24.0366H86.7681L85.9631 21.6236L83.6811 15.4771H79.7004Z" fill="#E6EDEF"/>
</g>
</g>
<defs>
<clipPath id="clip0_9314_2534">
<rect width="88" height="60" fill="white"/>
</clipPath>
<clipPath id="clip1_9314_2534">
<rect width="56" height="57" fill="white" transform="translate(39 -6)"/>
</clipPath>
</defs>
</svg>
