<svg width="208" height="72" viewBox="0 0 208 72" fill="none" xmlns="http://www.w3.org/2000/svg">
<g clip-path="url(#clip0_9314_2586)">
<g clip-path="url(#clip1_9314_2586)">
<path d="M20.5677 52.2096L11.3546 53.7669C12.6582 57.4355 15.2609 60.6456 18.5178 62.7568L22.0556 54.3208C22.2398 54.0439 22.2398 53.6807 22.1477 53.4037C22.0556 52.6682 21.3093 52.2096 20.5677 52.2096Z" fill="#E6EDEF"/>
<path d="M20.0057 46.4297C20.5631 45.7895 20.4709 44.8724 19.8214 44.3184L12.9346 38.2661C10.8893 41.6578 9.95879 45.6034 10.2352 49.4536L19.2594 46.8837C19.6325 46.7929 19.8168 46.7021 20.0057 46.4252V46.4297Z" fill="#E6EDEF"/>
<path d="M24.1009 40.4682C24.9393 40.4682 25.6809 39.828 25.6809 39.0017L26.1462 29.8301L24.2851 30.1979C21.0283 30.9334 18.0525 32.5816 15.6295 34.8745L23.3546 40.2866C23.6356 40.3774 23.8199 40.4682 24.1009 40.4682Z" fill="#E6EDEF"/>
<path d="M25.9619 49.6397L28.4771 50.8338L30.9877 49.6397L31.6372 46.9836L29.8729 44.7815H27.0813L25.3124 46.9836L25.9619 49.6397Z" fill="#E6EDEF"/>
<path d="M31.4529 39.828C31.9182 40.4682 32.8487 40.5635 33.4982 40.1958L41.1267 34.8745C38.3351 32.123 34.7052 30.3795 30.6099 29.9209L31.1673 39.1833C31.1673 39.4602 31.2595 39.6419 31.4483 39.8235L31.4529 39.828Z" fill="#E6EDEF"/>
<path d="M35.456 52.3004C34.8065 52.5773 34.4334 53.3083 34.6176 54.0439L38.2476 62.666C40.4818 61.2903 42.4349 59.3652 43.8307 57.1631C44.577 56.1552 45.1344 54.961 45.5996 53.6761L36.2944 52.1188C36.0134 52.1188 35.737 52.2096 35.456 52.3004Z" fill="#E6EDEF"/>
<path d="M69.328 53.6761L62.2569 23.6825C61.7916 22.2159 60.6769 21.0218 59.2811 20.2908L30.8955 6.9013C30.1493 6.53353 29.3155 6.44273 28.5692 6.44273C27.823 6.44273 26.9892 6.44273 26.2429 6.62434L-2.138 20.1092C-3.53378 20.7494 -4.55644 21.9435 -4.92957 23.5009L-11.9085 53.6761C-12.1895 55.2335 -11.8164 56.7953 -10.8858 58.0803L8.74727 82.0171C9.86205 83.1158 11.4467 83.8514 13.0268 83.9422H44.2914C45.9682 84.1238 47.5482 83.3928 48.5709 82.0171L68.204 58.0803C69.1345 56.7953 69.5076 55.238 69.3187 53.6761H69.328ZM57.6964 55.6966C57.5122 55.6966 57.4154 55.6966 57.2312 55.6058C57.1697 55.5452 57.1083 55.515 57.0469 55.515C56.8626 55.515 56.7659 55.4242 56.6738 55.4242C56.3006 55.3333 56.0243 55.1472 55.6511 54.9656C55.4669 54.9656 55.278 54.8748 55.0937 54.784H55.0016C54.0711 54.4162 53.0484 54.1438 52.0258 53.9576H51.9336C51.6526 53.9576 51.3762 54.0484 51.1874 54.2346C51.1874 54.2346 51.1874 54.3254 51.0952 54.3254L50.349 54.2346C48.6722 59.4605 45.0469 63.8647 40.2975 66.707L40.5785 67.4425C40.5785 67.4425 40.4864 67.4425 40.4864 67.5333C40.3021 67.8103 40.3021 68.1735 40.3942 68.4505C40.7674 69.3676 41.2326 70.2848 41.8822 71.1111V71.2927C42.0664 71.4743 42.1632 71.5697 42.2553 71.7513C42.5363 72.0283 42.7206 72.3007 42.9048 72.6685C42.9969 72.7593 43.0891 72.8501 43.0891 72.9454C43.0891 72.9454 43.1812 72.9454 43.1812 73.0362C43.3655 73.4948 43.3655 73.9534 43.2733 74.4119C43.1812 74.8705 42.8081 75.2383 42.4349 75.4199C42.1539 75.5107 41.9697 75.6015 41.6887 75.6015C40.9424 75.6015 40.2929 75.1429 39.9198 74.5028C39.8276 74.5028 39.8276 74.4119 39.8276 74.4119C39.7355 74.3211 39.7355 74.2303 39.6434 74.135C39.4591 73.858 39.3624 73.4948 39.2702 73.127L39.086 72.5776V72.4868C38.805 71.4789 38.3397 70.5617 37.8745 69.6446C37.6902 69.3676 37.4092 69.186 37.1282 69.0952C37.1282 69.0347 37.0975 69.0044 37.0361 69.0044L36.6629 68.3642C35.7324 68.6412 34.7098 69.0044 33.6871 69.1905C32.0103 69.6491 30.3382 69.8307 28.6614 69.8307C25.8698 69.8307 23.1704 69.3722 20.5677 68.3642L20.1945 69.0997C20.1945 69.1603 20.1638 69.1905 20.1024 69.1905C19.8214 69.2813 19.545 69.4675 19.3561 69.7399C18.8909 70.6571 18.4256 71.5742 18.1446 72.5822L17.9604 73.1316C17.8682 73.4993 17.6794 73.7718 17.5872 74.1395C17.4951 74.2303 17.403 74.3211 17.403 74.4165C17.3108 74.4165 17.3108 74.5073 17.3108 74.5073C16.9377 75.1475 16.2882 75.6061 15.5419 75.6061C15.3577 75.6061 15.0767 75.5153 14.8924 75.4244C14.054 74.9659 13.6809 73.8671 14.1461 72.95C14.2383 72.95 14.2383 72.8591 14.2383 72.8591C14.3304 72.7683 14.3304 72.6775 14.4225 72.5822C14.7035 72.2144 14.8878 71.8466 15.0721 71.665C15.2563 71.4834 15.3531 71.3881 15.4452 71.2065V71.1156C16.0026 70.2893 16.56 69.3721 16.9331 68.455C17.0252 68.178 17.0252 67.8148 16.841 67.5378C16.841 67.5378 16.7488 67.5378 16.7488 67.447L17.2141 66.8068C16.2836 66.3483 15.5373 65.7989 14.7035 65.1542C11.0736 62.4027 8.47088 58.6433 7.07509 54.4253L6.2367 54.5161C6.2367 54.5161 6.2367 54.4253 6.14457 54.4253C5.96031 54.2437 5.67931 54.1483 5.39831 54.1483H5.30618C4.1914 54.3299 3.26087 54.6069 2.23361 54.9747H2.14148C1.95722 54.9747 1.76835 55.0655 1.58409 55.1563C1.30309 55.2471 0.934567 55.4332 0.561436 55.524C0.469306 55.524 0.188306 55.4332 0.188306 55.524C0.188306 55.6148 0.188306 55.6149 0.0961752 55.6149C-0.0880867 55.7057 -0.184824 55.7057 -0.369086 55.7057C-1.20748 55.7965 -2.04587 55.2471 -2.23013 54.4207C-2.41439 53.4128 -1.76487 52.4956 -0.742216 52.3095C-0.680795 52.2489 -0.619375 52.2187 -0.557954 52.2187C-0.373693 52.2187 -0.276955 52.1279 -0.184824 52.1279C0.188306 52.1279 0.561436 52.037 0.92996 52.037C1.11422 51.9462 1.30309 51.9462 1.48735 51.9462C2.60214 51.8554 3.6294 51.6693 4.65205 51.3969C4.93305 51.2152 5.20944 51.0291 5.30157 50.7567C5.30157 50.7567 5.3937 50.7567 5.3937 50.6659L6.13997 50.4842C5.30157 45.2583 6.5131 39.937 9.39679 35.442C9.48892 35.2604 9.58106 35.1651 9.67779 34.9834L9.13422 34.4477C9.13422 34.4749 9.12501 34.4976 9.1204 34.5249V34.4341L9.13422 34.4477C9.17568 34.1843 9.00984 33.8665 8.8394 33.6985C8.09314 32.963 7.16262 32.4136 6.2321 31.8642C6.04783 31.7734 5.85897 31.6826 5.6747 31.5873C5.30157 31.4056 4.92844 31.2195 4.65205 31.0379C4.55992 31.0379 4.37105 30.8563 4.37105 30.8563C4.37105 30.8563 4.37105 30.7654 4.27892 30.7654C3.53266 30.1253 3.3484 29.0219 3.90579 28.1956C4.18679 27.737 4.65205 27.5554 5.20944 27.5554C5.6747 27.5554 6.13996 27.737 6.51309 28.014L6.60523 28.1048C6.69736 28.1956 6.78949 28.1956 6.88623 28.2864C7.16722 28.5634 7.35149 28.8358 7.63249 29.1128C7.72462 29.2036 7.91349 29.2944 8.00562 29.4805C8.65514 30.2161 9.49353 30.9471 10.3319 31.5918C10.5162 31.6826 10.7051 31.7734 10.8893 31.7734C11.0736 31.7734 11.1703 31.6826 11.2624 31.6826H11.3546L11.912 32.0504C14.9845 28.8403 18.983 26.5474 23.3592 25.6303C24.474 25.4487 25.5013 25.2625 26.5239 25.1717L26.6161 24.4362V24.2546C26.8971 24.073 26.9892 23.796 27.0813 23.519C27.0813 22.4203 27.0813 21.4078 26.8971 20.3998V20.309C26.8971 20.1274 26.8971 19.9412 26.8049 19.7596C26.7128 19.3918 26.6207 19.0241 26.6207 18.6608V18.2023C26.6207 17.7437 26.8049 17.2851 27.1781 16.9173C27.6433 16.4588 28.2007 16.1818 28.7581 16.2772C29.6886 16.368 30.4349 17.2851 30.3382 18.2023V18.7516C30.246 19.1194 30.246 19.4872 30.1539 19.8504C30.1539 20.032 30.0618 20.2182 30.0618 20.3998V20.4906C29.8775 21.5894 29.8775 22.6019 29.8775 23.6098C29.9696 23.8868 30.0618 24.1592 30.3428 24.3454V24.2546L30.4349 24.9901C34.8065 25.4487 39.0906 27.1014 42.5317 29.7575C43.2779 30.493 44.1117 31.224 44.858 31.9596L45.6042 31.501H45.6964C45.7885 31.5918 45.9774 31.5918 46.0695 31.5918C46.2538 31.5918 46.4426 31.501 46.6269 31.4102C47.4653 30.8608 48.3037 30.1253 48.9532 29.3943C49.0453 29.3035 49.2342 29.2126 49.3263 29.0265C49.5106 28.7495 49.7916 28.4771 50.0726 28.2001C50.1647 28.2001 50.2569 28.1093 50.3536 28.0185L50.4457 27.9277C50.8189 27.6508 51.2841 27.4691 51.7494 27.4691C52.2146 27.4691 52.772 27.7461 53.053 28.1093C53.7026 28.9357 53.5183 30.0344 52.6799 30.6792C52.6799 30.77 52.772 30.77 52.6799 30.8608C52.5878 30.9516 52.4956 30.9516 52.3989 31.0424C52.0258 31.224 51.7494 31.4102 51.3762 31.5918C51.192 31.6826 51.0031 31.7734 50.8189 31.8688C49.8883 32.4181 49.0499 32.9675 48.2116 33.7031C48.0273 33.8847 47.9306 34.2524 47.9306 34.5294V34.6202L47.3732 35.1696C48.8611 37.4625 49.9805 40.0323 50.63 42.6884C51.1874 45.3491 51.3762 48.1006 51.0031 50.7612L51.7494 50.9428C51.8415 51.2198 52.1225 51.4922 52.3989 51.583C53.4216 51.86 54.5409 52.0416 55.5636 52.1324H55.6557C55.84 52.2232 56.0289 52.2232 56.2131 52.2232C56.5863 52.2232 56.9594 52.2232 57.3279 52.314C57.5122 52.314 57.701 52.314 57.701 52.4048C57.701 52.4956 57.7932 52.4956 57.8853 52.4956C58.7237 52.6772 59.4653 53.4128 59.5621 54.4207C59.2811 55.1563 58.5394 55.7057 57.701 55.7057L57.6964 55.6966Z" fill="#E6EDEF"/>
<path d="M29.0345 56.1552C28.385 55.7874 27.6387 55.9735 27.1735 56.5229L22.613 64.6865C24.474 65.2359 26.5193 65.6036 28.4771 65.6036C29.8729 65.6036 31.1765 65.422 32.4802 65.1451C33.1297 64.9635 33.6917 64.8681 34.2491 64.7773L29.7808 56.7999C29.4998 56.5229 29.3155 56.3413 29.0345 56.1597V56.1552Z" fill="#E6EDEF"/>
<path d="M43.9229 38.2707L36.9439 44.5091C36.7597 44.6907 36.6629 44.8769 36.5708 45.1493C36.3866 45.9757 36.8518 46.802 37.6856 46.9836L46.5256 49.4581C46.7098 47.533 46.6177 45.6079 46.1524 43.6782C45.6872 41.7531 44.9409 39.9188 43.9183 38.2661L43.9229 38.2707Z" fill="#E6EDEF"/>
<path d="M438.842 63.7648C440.146 63.8556 441.542 63.674 442.748 63.2154C443.495 62.8476 443.96 62.0213 443.863 61.1995C443.771 60.2823 443.214 59.456 442.375 59.1836C440.98 58.3572 439.399 57.6262 437.815 57.1677C436.235 56.6183 434.839 55.9735 433.535 55.3333C432.324 54.784 431.301 54.0484 430.279 53.1313C429.348 52.2141 428.698 51.2062 428.233 50.012C427.676 48.6363 427.487 47.1698 427.487 45.7032C427.395 42.6748 428.791 39.7417 431.209 37.9074C433.72 35.9823 437.073 35.0652 441.353 35.0652C443.398 35.0652 445.54 35.2468 447.585 35.7054C449.165 35.9823 450.75 36.3456 452.33 36.8995L450.561 44.6953C449.257 44.2367 448.051 43.9597 446.747 43.5965C445.259 43.2287 443.674 43.1379 442.186 43.1379C439.022 43.1379 437.442 43.9643 437.442 45.7078C437.442 46.0756 437.534 46.4433 437.626 46.8065C437.81 47.1743 438.091 47.4467 438.464 47.7237C438.837 48.0007 439.395 48.2731 440.044 48.6409C440.694 49.0086 441.624 49.3764 442.744 49.7396C444.605 50.3798 446.466 51.2062 448.143 52.1233C449.446 52.7635 450.561 53.5898 451.492 54.6932C452.33 55.5195 452.887 56.5275 453.261 57.7216C453.634 59.0065 453.818 60.2914 453.818 61.5718C454.002 64.691 452.514 67.7149 449.815 69.4584C447.208 71.2019 443.485 72.1191 438.649 72.1191C435.949 72.2099 433.346 71.9375 430.739 71.2927C429.251 70.925 427.856 70.4664 426.46 70.0078L428.137 61.935C429.813 62.5752 431.578 63.1292 433.346 63.4924C435.208 63.5832 436.976 63.7693 438.838 63.7693M387.571 53.6761C387.479 50.9247 388.037 48.1732 388.967 45.6034C389.805 43.4013 391.109 41.4762 392.781 39.7327C394.361 38.1753 396.13 36.9812 398.18 36.2457C400.225 35.4193 402.367 35.0515 404.51 35.0515C409.535 35.0515 413.534 36.6089 416.422 39.6373C419.306 42.6657 420.794 47.1562 420.794 53.0268C420.794 53.5762 420.794 54.221 420.702 54.952C420.702 55.6875 420.609 56.2369 420.609 56.7863H397.904C398.088 58.7114 399.115 60.5457 400.787 61.649C402.833 62.9339 405.256 63.5741 407.674 63.4833C409.443 63.4833 411.304 63.3017 413.073 63.0247C414.561 62.7478 416.049 62.2892 417.445 61.649L418.84 69.7218C418.191 70.0895 417.445 70.2711 416.698 70.5481C415.676 70.8251 414.653 71.0975 413.626 71.1883C412.511 71.3699 411.392 71.5561 410.088 71.7377C408.877 71.8285 407.577 71.9193 406.274 71.9193C403.39 72.0101 400.599 71.5515 397.899 70.5436C395.665 69.7172 393.712 68.4323 392.035 66.7841C390.455 65.1314 389.336 63.1155 388.594 61.0043C387.944 58.5298 387.571 56.0507 387.571 53.667M411.115 49.9167C411.115 49.0903 410.931 48.264 410.65 47.4422C410.466 46.6159 410.001 45.9757 409.535 45.3309C408.978 44.6907 408.324 44.1368 407.582 43.7736C406.652 43.315 405.721 43.1334 404.698 43.1334C403.676 43.1334 402.745 43.315 401.815 43.7736C401.068 44.1414 400.327 44.5999 399.769 45.2401C399.212 45.8803 398.747 46.6159 398.466 47.4422C398.185 48.2685 398 49.0949 397.908 49.9167H411.12M360.305 27.1695L370.357 25.6121V35.8824H382.453V44.1368H370.357V56.4276C370.264 58.1711 370.638 59.9146 371.471 61.3811C372.218 62.5752 373.706 63.2154 376.032 63.2154C377.147 63.2154 378.266 63.1246 379.289 62.9385C380.403 62.7568 381.431 62.4799 382.453 62.1121L383.849 69.8171C382.546 70.3665 381.15 70.7343 379.754 71.102C377.985 71.4698 376.124 71.6514 374.263 71.6514C371.937 71.7422 369.61 71.3744 367.468 70.5526C365.791 69.9125 364.304 68.8091 363.189 67.5242C362.074 66.1485 361.328 64.4958 360.862 62.7568C360.397 60.7409 360.213 58.6297 360.305 56.6137V27.1695ZM319.643 53.6761C319.551 50.9247 320.108 48.1732 321.039 45.6034C321.877 43.4013 323.181 41.4762 324.853 39.7327C326.433 38.1753 328.202 36.9812 330.252 36.2457C332.297 35.4193 334.439 35.0515 336.581 35.0515C341.607 35.0515 345.606 36.6089 348.494 39.6373C351.378 42.6657 352.866 47.1562 352.866 53.0268C352.866 53.5762 352.865 54.221 352.773 54.952C352.681 55.683 352.681 56.2369 352.681 56.7863H329.883C330.068 58.7114 331.095 60.5457 332.767 61.649C334.812 62.9339 337.235 63.5741 339.654 63.4833C341.423 63.4833 343.284 63.3017 345.053 63.0247C346.541 62.7478 348.029 62.2892 349.521 61.649L350.917 69.7218C350.267 70.0895 349.521 70.2711 348.775 70.5481C347.752 70.8251 346.73 71.0975 345.702 71.1883C344.588 71.3699 343.468 71.5561 342.165 71.7377C340.953 71.8285 339.654 71.9193 338.35 71.9193C335.467 72.0101 332.675 71.5515 329.976 70.5436C327.741 69.7172 325.788 68.4323 324.111 66.7841C322.531 65.1314 321.412 63.1155 320.67 61.0043C319.924 58.5298 319.556 56.0507 319.648 53.667M343.183 49.9167C343.183 49.0903 342.998 48.264 342.717 47.4422C342.533 46.6159 342.068 45.9757 341.602 45.3309C341.045 44.6907 340.391 44.1368 339.649 43.7736C338.719 43.315 337.788 43.1334 336.766 43.1334C335.743 43.1334 334.812 43.315 333.882 43.7736C333.136 44.1414 332.486 44.5999 331.929 45.2401C331.371 45.8803 330.906 46.6159 330.625 47.4422C330.344 48.2685 330.16 49.0949 330.068 49.9167H343.187M281.492 37.0766C283.634 36.5272 285.863 36.0686 288.097 35.7008C290.889 35.2422 293.773 35.0606 296.564 35.0606C299.075 34.9698 301.59 35.4284 304.008 36.2547C305.87 36.8949 307.546 37.9982 308.753 39.4648C309.965 40.9313 310.799 42.6748 311.264 44.5091C311.821 46.6204 312.01 48.8179 312.01 51.02V70.7388H302.055V52.3049C302.055 49.0949 301.59 46.8928 300.752 45.5171C299.913 44.2322 298.333 43.5012 296.007 43.5012C295.261 43.5012 294.519 43.5012 293.681 43.592C292.842 43.592 292.193 43.6828 291.539 43.7736V70.7388H281.487V37.0766M274.416 44.6907C273.485 44.5091 272.463 44.2322 271.251 44.0505C269.948 43.7736 268.644 43.6828 267.345 43.6828C266.599 43.6828 265.857 43.7736 265.019 43.8644C264.369 43.9552 263.715 44.046 263.065 44.2322V70.9204H253.014V37.7167C255.059 36.9812 257.201 36.4318 259.343 35.9732C262.043 35.3331 264.834 35.0561 267.534 35.1469C268.183 35.1469 268.837 35.2377 269.487 35.2377C270.233 35.2377 270.975 35.3285 271.813 35.5147C272.56 35.6055 273.301 35.6963 274.14 35.8824C274.789 35.9732 275.443 36.1594 276.093 36.4318L274.416 44.6862M211.979 53.6761C211.887 50.9247 212.444 48.1732 213.375 45.6034C214.213 43.4013 215.517 41.4762 217.189 39.7327C218.769 38.1753 220.538 36.9812 222.588 36.2457C224.633 35.4193 226.775 35.0515 228.917 35.0515C233.943 35.0515 237.941 36.6089 240.83 39.6373C243.713 42.6657 245.201 47.1562 245.201 52.936C245.201 53.4854 245.201 54.1302 245.109 54.8612C245.017 55.5921 245.017 56.1461 245.017 56.6955H222.219C222.404 58.6206 223.431 60.4549 225.103 61.5582C227.148 62.8431 229.571 63.4833 231.99 63.3925C233.759 63.3925 235.62 63.2109 237.389 62.9339C238.877 62.657 240.364 62.1984 241.76 61.649L243.156 69.7218C242.506 70.0895 241.76 70.2711 241.014 70.5481C239.991 70.8251 238.969 71.0975 237.941 71.1883C236.827 71.3699 235.707 71.5561 234.404 71.7377C233.192 71.8285 231.893 71.9193 230.589 71.9193C227.706 72.0101 224.914 71.5515 222.215 70.5436C219.98 69.7172 218.027 68.4323 216.35 66.7841C214.77 65.1314 213.651 63.1155 212.909 61.0043C212.352 58.5298 211.979 56.1415 211.979 53.667M235.615 49.9167C235.615 49.0903 235.431 48.264 235.15 47.4422C234.966 46.6159 234.5 45.9757 234.035 45.3309C233.478 44.6907 232.823 44.1368 232.082 43.7736C231.151 43.315 230.221 43.1334 229.198 43.1334C228.175 43.1334 227.245 43.315 226.314 43.7736C225.568 44.1414 224.827 44.5999 224.269 45.2401C223.712 45.8803 223.246 46.6159 222.966 47.4422C222.685 48.2685 222.5 49.0949 222.408 49.9167H235.62M195.695 53.1267C195.695 46.7067 193.276 43.5874 188.532 43.5874C187.509 43.5874 186.486 43.6782 185.459 43.9552C184.621 44.1368 183.782 44.5046 183.041 44.9632V62.9385C183.506 63.0293 184.155 63.1201 184.902 63.2154C185.648 63.3108 186.482 63.3062 187.412 63.3062C189.831 63.4878 192.157 62.4799 193.645 60.5548C195.041 58.3527 195.787 55.7874 195.69 53.1267M205.93 53.4945C205.93 56.0643 205.557 58.6297 204.627 61.1087C203.881 63.3108 202.674 65.2359 201.089 66.8886C199.412 68.5413 197.459 69.8216 195.322 70.648C192.811 71.5651 190.204 71.9329 187.504 71.9329C186.293 71.9329 184.994 71.8421 183.69 71.7513C182.386 71.6605 181.083 71.4743 179.784 71.3835C178.572 71.2019 177.365 71.0158 176.154 70.7433C174.942 70.5617 173.92 70.2848 173.081 69.917V20.8402L183.133 19.2829V36.7088C184.247 36.2502 185.459 35.8824 186.671 35.61C187.974 35.3331 189.278 35.2422 190.577 35.2422C192.903 35.2422 195.137 35.61 197.275 36.618C199.136 37.4443 200.813 38.7292 202.112 40.2866C203.507 42.0301 204.53 43.9552 205.087 46.0665C205.645 48.3593 205.926 50.9292 205.926 53.4945M163.495 69.6355C161.353 70.1849 159.123 70.6434 156.889 70.9204C154.098 71.379 151.214 71.5606 148.422 71.5606C145.815 71.6514 143.304 71.1928 140.886 70.3665C139.025 69.6309 137.445 68.5322 136.141 67.0656C134.93 65.5083 134.096 63.7648 133.631 61.8397C133.073 59.7284 132.884 57.4355 132.884 55.238V35.887H142.936V54.1392C142.936 57.3493 143.401 59.6422 144.24 61.0179C145.078 62.3936 146.658 63.1291 148.984 63.1291C149.731 63.1291 150.472 63.1292 151.311 63.0383C152.149 62.9475 152.799 62.9475 153.453 62.7614V35.887H163.504V69.64M104.872 48.541C105.895 47.4422 106.825 46.3389 107.945 45.2401C108.967 44.046 109.99 42.9472 111.017 41.8485C112.04 40.6544 112.97 39.6464 113.809 38.6384C114.647 37.6305 115.486 36.7133 116.135 35.9778H128.048C125.629 38.6384 123.303 41.2991 121.069 43.7736C118.742 46.2481 116.324 48.8179 113.625 51.3878C115.112 52.7635 116.508 54.1392 117.812 55.6966C119.208 57.3493 120.603 58.9974 121.999 60.8317C123.303 62.5752 124.607 64.4095 125.721 66.153C126.836 67.8965 127.767 69.5447 128.513 71.0158H116.973C116.227 69.8216 115.393 68.6321 114.463 67.2563C113.532 65.8806 112.51 64.5049 111.579 63.0383C110.557 61.6626 109.437 60.2869 108.23 59.002C107.208 57.8078 106.088 56.7091 104.881 55.7919V71.1066H94.8298V20.8402L104.881 19.2829V48.541" fill="#E6EDEF"/>
</g>
</g>
<defs>
<clipPath id="clip0_9314_2586">
<rect width="208" height="72" fill="white"/>
</clipPath>
<clipPath id="clip1_9314_2586">
<rect width="86" height="79.1881" fill="white" transform="translate(-12 5)"/>
</clipPath>
</defs>
</svg>
