<svg width="88" height="60" viewBox="0 0 88 60" fill="none" xmlns="http://www.w3.org/2000/svg">
<g clip-path="url(#clip0_9314_2588)">
<g clip-path="url(#clip1_9314_2588)">
<path d="M57.266 25.5243L49.5527 26.8281C50.6441 29.8995 52.8231 32.587 55.5498 34.3546L58.5117 27.2919C58.6659 27.06 58.6659 26.7559 58.5888 26.524C58.5117 25.9082 57.8869 25.5243 57.266 25.5243Z" fill="#E6EDEF"/>
<path d="M56.7955 20.6853C57.2621 20.1494 57.185 19.3815 56.6412 18.9178L50.8755 13.8507C49.1632 16.6902 48.3841 19.9935 48.6155 23.217L56.1707 21.0655C56.4831 20.9894 56.6373 20.9134 56.7955 20.6815V20.6853Z" fill="#E6EDEF"/>
<path d="M60.224 15.6943C60.9259 15.6943 61.5468 15.1583 61.5468 14.4665L61.9364 6.78802L60.3783 7.09592C57.6516 7.71172 55.1602 9.09157 53.1316 11.0112L59.5992 15.5423C59.8345 15.6183 59.9888 15.6943 60.224 15.6943Z" fill="#E6EDEF"/>
<path d="M61.7821 23.3728L63.8878 24.3725L65.9897 23.3728L66.5335 21.1491L65.0564 19.3055H62.7193L61.2383 21.1491L61.7821 23.3728Z" fill="#E6EDEF"/>
<path d="M66.3792 15.1583C66.7687 15.6943 67.5478 15.7741 68.0916 15.4662L74.4782 11.0112C72.141 8.70765 69.102 7.24797 65.6734 6.86405L66.1401 14.6186C66.1401 14.8504 66.2172 15.0025 66.3754 15.1545L66.3792 15.1583Z" fill="#E6EDEF"/>
<path d="M69.7306 25.6003C69.1868 25.8322 68.8745 26.4442 69.0287 27.06L72.0678 34.2786C73.9382 33.1268 75.5734 31.5151 76.742 29.6715C77.3668 28.8276 77.8334 27.8279 78.223 26.7521L70.4325 25.4483C70.1973 25.4483 69.9659 25.5243 69.7306 25.6003Z" fill="#E6EDEF"/>
<path d="M98.0885 26.7521L92.1686 1.64115C91.7791 0.413353 90.8458 -0.586373 89.6772 -1.19837L65.9126 -12.4082C65.2878 -12.7161 64.5897 -12.7921 63.965 -12.7921C63.3402 -12.7921 62.6421 -12.7921 62.0173 -12.6401L38.2566 -1.35042C37.088 -0.814447 36.2318 0.185278 35.9194 1.4891L30.0766 26.7521C29.8414 28.0559 30.1538 29.3636 30.9328 30.4393L47.3698 50.4794C48.3031 51.3993 49.6298 52.0151 50.9526 52.0911H77.1277C78.5315 52.2432 79.8543 51.6312 80.7105 50.4794L97.1475 30.4393C97.9266 29.3636 98.2389 28.0597 98.0808 26.7521H98.0885ZM88.3505 28.4437C88.1962 28.4437 88.1153 28.4437 87.961 28.3676C87.9096 28.3169 87.8581 28.2916 87.8067 28.2916C87.6525 28.2916 87.5715 28.2156 87.4943 28.2156C87.1819 28.1396 86.9505 27.9837 86.6382 27.8317C86.4839 27.8317 86.3258 27.7556 86.1715 27.6796H86.0944C85.3153 27.3717 84.4592 27.1436 83.603 26.9878H83.5258C83.2906 26.9878 83.0592 27.0638 82.9011 27.2197C82.9011 27.2197 82.9011 27.2957 82.8239 27.2957L82.1992 27.2197C80.7953 31.5949 77.7602 35.2821 73.784 37.6616L74.0192 38.2775C74.0192 38.2775 73.9421 38.2775 73.9421 38.3535C73.7878 38.5854 73.7878 38.8895 73.865 39.1213C74.1773 39.8892 74.5669 40.657 75.1107 41.3488V41.5009C75.2649 41.6529 75.3459 41.7328 75.423 41.8848C75.6583 42.1167 75.8126 42.3448 75.9668 42.6527C76.044 42.7287 76.1211 42.8047 76.1211 42.8845C76.1211 42.8845 76.1982 42.8845 76.1982 42.9606C76.3525 43.3445 76.3525 43.7284 76.2754 44.1123C76.1982 44.4963 75.8858 44.8042 75.5735 44.9562C75.3382 45.0322 75.1839 45.1083 74.9487 45.1083C74.3239 45.1083 73.7801 44.7243 73.4677 44.1884C73.3906 44.1884 73.3906 44.1123 73.3906 44.1123C73.3135 44.0363 73.3135 43.9603 73.2363 43.8805C73.0821 43.6486 73.0011 43.3445 72.9239 43.0366L72.7697 42.5766V42.5006C72.5344 41.6568 72.1449 40.8889 71.7554 40.121C71.6011 39.8892 71.3659 39.7371 71.1306 39.6611C71.1306 39.6104 71.1049 39.5851 71.0535 39.5851L70.7411 39.0491C69.962 39.281 69.1059 39.5851 68.2497 39.7409C66.8459 40.1248 65.4459 40.2769 64.0421 40.2769C61.705 40.2769 59.445 39.893 57.266 39.0491L56.9536 39.6649C56.9536 39.7156 56.9279 39.7409 56.8764 39.7409C56.6412 39.8169 56.4098 39.9728 56.2517 40.2009C55.8621 40.9687 55.4726 41.7366 55.2374 42.5804L55.0831 43.0404C55.006 43.3483 54.8478 43.5764 54.7707 43.8843C54.6936 43.9603 54.6164 44.0363 54.6164 44.1161C54.5393 44.1161 54.5393 44.1922 54.5393 44.1922C54.2269 44.7281 53.6831 45.1121 53.0584 45.1121C52.9041 45.1121 52.6688 45.036 52.5146 44.96C51.8127 44.5761 51.5003 43.6562 51.8898 42.8883C51.9669 42.8883 51.9669 42.8123 51.9669 42.8123C52.0441 42.7363 52.0441 42.6603 52.1212 42.5804C52.3565 42.2725 52.5107 41.9646 52.665 41.8126C52.8192 41.6605 52.9002 41.5807 52.9774 41.4287V41.3527C53.444 40.6608 53.9107 39.893 54.2231 39.1251C54.3002 38.8933 54.3002 38.5892 54.1459 38.3573C54.1459 38.3573 54.0688 38.3573 54.0688 38.2813L54.4583 37.7453C53.6793 37.3614 53.0545 36.9014 52.3565 36.3616C49.3174 34.0581 47.1384 30.9107 45.9698 27.3793L45.2679 27.4553C45.2679 27.4553 45.2679 27.3793 45.1908 27.3793C45.0365 27.2273 44.8013 27.1474 44.566 27.1474H44.4889C43.5556 27.2995 42.7765 27.5314 41.9165 27.8393H41.8394C41.6851 27.8393 41.527 27.9153 41.3727 27.9913C41.1375 28.0673 40.8289 28.2232 40.5166 28.2992C40.4394 28.2992 40.2042 28.2232 40.2042 28.2992C40.2042 28.3752 40.2042 28.3752 40.127 28.3752C39.9728 28.4513 39.8918 28.4513 39.7375 28.4513C39.0356 28.5273 38.3337 28.0673 38.1794 27.3755C38.0252 26.5316 38.5689 25.7638 39.4251 25.6079C39.4765 25.5573 39.528 25.5319 39.5794 25.5319C39.7337 25.5319 39.8146 25.4559 39.8918 25.4559C40.2042 25.4559 40.5166 25.3799 40.8251 25.3799C40.9794 25.3038 41.1375 25.3038 41.2917 25.3038C42.225 25.2278 43.0851 25.072 43.9413 24.8439C44.1765 24.6918 44.4079 24.536 44.485 24.3079C44.485 24.3079 44.5622 24.3079 44.5622 24.2319L45.187 24.0798C44.485 19.7046 45.4993 15.2496 47.9136 11.4863C47.9907 11.3343 48.0679 11.2545 48.1489 11.1024L47.6938 10.6539C47.6938 10.6767 47.6861 10.6957 47.6822 10.7185V10.6425L47.6938 10.6539C47.7285 10.4334 47.5896 10.1673 47.4469 10.0267C46.8222 9.41087 46.0431 8.95093 45.2641 8.49098C45.1098 8.41495 44.9517 8.33893 44.7974 8.2591C44.485 8.10705 44.1727 7.9512 43.9413 7.79915C43.8641 7.79915 43.706 7.6471 43.706 7.6471C43.706 7.6471 43.706 7.57108 43.6289 7.57108C43.0041 7.0351 42.8498 6.1114 43.3165 5.41958C43.5517 5.03565 43.9413 4.8836 44.4079 4.8836C44.7974 4.8836 45.1869 5.03565 45.4993 5.26753L45.5765 5.34355C45.6536 5.41958 45.7307 5.41958 45.8117 5.4956C46.047 5.72748 46.2012 5.95555 46.4365 6.18743C46.5136 6.26345 46.6718 6.33948 46.7489 6.49533C47.2927 7.11113 47.9946 7.72313 48.6965 8.2629C48.8508 8.33893 49.0089 8.41495 49.1632 8.41495C49.3174 8.41495 49.3984 8.33893 49.4755 8.33893H49.5527L50.0193 8.64683C52.5917 5.95935 55.9393 4.03973 59.6031 3.27188C60.5364 3.11983 61.3964 2.96398 62.2526 2.88796L62.3297 2.27216V2.12011C62.565 1.96806 62.6421 1.73618 62.7193 1.50431C62.7193 0.584408 62.7193 -0.263268 62.565 -1.10714V-1.18317C62.565 -1.33522 62.565 -1.49107 62.4879 -1.64312C62.4107 -1.95102 62.3336 -2.25892 62.3336 -2.56301V-2.94694C62.3336 -3.33086 62.4879 -3.71479 62.8002 -4.02269C63.1898 -4.40661 63.6564 -4.63849 64.1231 -4.55866C64.9021 -4.48264 65.5269 -3.71479 65.4459 -2.94694V-2.48699C65.3688 -2.17909 65.3688 -1.87119 65.2916 -1.56709C65.2916 -1.41504 65.2145 -1.25919 65.2145 -1.10714V-1.03112C65.0602 -0.111218 65.0602 0.736458 65.0602 1.58033C65.1374 1.81221 65.2145 2.04028 65.4498 2.19613V2.12011L65.5269 2.73591C69.1868 3.11983 72.7735 4.50348 75.6544 6.7272C76.2792 7.343 76.9773 7.955 77.602 8.5708L78.2268 8.18688H78.304C78.3811 8.2629 78.5392 8.2629 78.6163 8.2629C78.7706 8.2629 78.9287 8.18688 79.083 8.11085C79.7849 7.6509 80.4868 7.0351 81.0306 6.4231C81.1077 6.34708 81.2659 6.27106 81.343 6.1152C81.4973 5.88333 81.7325 5.65525 81.9678 5.42338C82.0449 5.42338 82.122 5.34735 82.203 5.27133L82.2802 5.19531C82.5925 4.96343 82.9821 4.81138 83.3716 4.81138C83.7611 4.81138 84.2278 5.04326 84.463 5.34736C85.0068 6.03918 84.8525 6.95908 84.1506 7.49885C84.1506 7.57488 84.2278 7.57488 84.1506 7.6509C84.0735 7.72693 83.9964 7.72693 83.9154 7.80295C83.603 7.955 83.3716 8.11085 83.0592 8.2629C82.9049 8.33893 82.7468 8.41495 82.5925 8.49478C81.8135 8.95473 81.1116 9.41468 80.4097 10.0305C80.2554 10.1825 80.1744 10.4904 80.1744 10.7223V10.7983L79.7078 11.2583C80.9535 13.1779 81.8906 15.3294 82.4344 17.5531C82.9011 19.7806 83.0592 22.0842 82.7468 24.3117L83.3716 24.4638C83.4487 24.6956 83.684 24.9237 83.9154 24.9997C84.7715 25.2316 85.7087 25.3837 86.5649 25.4597H86.642C86.7963 25.5357 86.9544 25.5357 87.1087 25.5357C87.4211 25.5357 87.7334 25.5357 88.042 25.6117C88.1962 25.6117 88.3544 25.6117 88.3544 25.6878C88.3544 25.7638 88.4315 25.7638 88.5086 25.7638C89.2105 25.9158 89.8315 26.5316 89.9125 27.3755C89.6772 27.9913 89.0563 28.4513 88.3544 28.4513L88.3505 28.4437Z" fill="#E6EDEF"/>
<path d="M64.3545 28.8276C63.8107 28.5197 63.1859 28.6755 62.7964 29.1355L58.9783 35.9701C60.5364 36.4301 62.2487 36.738 63.8878 36.738C65.0564 36.738 66.1478 36.5859 67.2392 36.354C67.783 36.202 68.2535 36.1221 68.7202 36.0461L64.9792 29.3674C64.744 29.1355 64.5897 28.9834 64.3545 28.8314V28.8276Z" fill="#E6EDEF"/>
<path d="M76.8191 13.8545L70.9763 19.0774C70.8221 19.2295 70.7411 19.3853 70.6639 19.6134C70.5097 20.3052 70.8992 20.997 71.5973 21.1491L78.9982 23.2208C79.1524 21.609 79.0753 19.9973 78.6858 18.3818C78.2962 16.7701 77.6715 15.2344 76.8153 13.8507L76.8191 13.8545Z" fill="#E6EDEF"/>
<path d="M407.449 35.1985C408.541 35.2745 409.709 35.1224 410.72 34.7385C411.344 34.4306 411.734 33.7388 411.653 33.0508C411.576 32.2829 411.109 31.5911 410.407 31.363C409.239 30.6712 407.916 30.0592 406.589 29.6753C405.266 29.2153 404.098 28.6755 403.006 28.1396C401.992 27.6796 401.136 27.0638 400.28 26.296C399.501 25.5281 398.957 24.6842 398.567 23.6845C398.101 22.5327 397.943 21.3049 397.943 20.0771C397.866 17.5417 399.034 15.0861 401.059 13.5504C403.161 11.9387 405.968 11.1708 409.551 11.1708C411.263 11.1708 413.057 11.3229 414.769 11.7068C416.092 11.9387 417.419 12.2428 418.742 12.7065L417.261 19.2333C416.169 18.8493 415.159 18.6175 414.067 18.3134C412.822 18.0055 411.495 17.9294 410.249 17.9294C407.6 17.9294 406.277 18.6213 406.277 20.0809C406.277 20.3888 406.354 20.6967 406.431 21.0008C406.585 21.3087 406.821 21.5368 407.133 21.7687C407.445 22.0006 407.912 22.2286 408.456 22.5365C409 22.8444 409.779 23.1523 410.716 23.4564C412.274 23.9924 413.832 24.6842 415.236 25.4521C416.327 25.9881 417.261 26.6799 418.04 27.6036C418.742 28.2954 419.208 29.1393 419.521 30.139C419.833 31.2148 419.987 32.2905 419.987 33.3625C420.142 35.9739 418.896 38.5055 416.636 39.9652C414.453 41.4249 411.337 42.1927 407.287 42.1927C405.027 42.2687 402.848 42.0407 400.665 41.5009C399.42 41.193 398.251 40.8091 397.083 40.4251L398.486 33.6666C399.89 34.2025 401.367 34.6663 402.848 34.9704C404.406 35.0464 405.887 35.2023 407.445 35.2023M364.525 26.7521C364.448 24.4486 364.914 22.145 365.693 19.9935C366.395 18.1499 367.487 16.5382 368.887 15.0785C370.21 13.7747 371.69 12.775 373.407 12.1592C375.119 11.4673 376.912 11.1594 378.706 11.1594C382.913 11.1594 386.261 12.4633 388.679 14.9987C391.093 17.5341 392.339 21.2935 392.339 26.2085C392.339 26.6685 392.339 27.2083 392.262 27.8203C392.262 28.4361 392.185 28.896 392.185 29.356H373.175C373.33 30.9677 374.19 32.5034 375.59 33.4271C377.302 34.5028 379.33 35.0388 381.355 34.9628C382.836 34.9628 384.394 34.8107 385.875 34.5789C387.121 34.347 388.367 33.963 389.535 33.4271L390.704 40.1857C390.16 40.4936 389.535 40.6456 388.91 40.8775C388.054 41.1094 387.198 41.3374 386.338 41.4135C385.405 41.5655 384.468 41.7214 383.376 41.8734C382.362 41.9494 381.274 42.0255 380.183 42.0255C377.769 42.1015 375.431 41.7176 373.171 40.8737C371.301 40.1819 369.666 39.1061 368.262 37.7263C366.939 36.3426 366.002 34.6549 365.381 32.8873C364.837 30.8156 364.525 28.7402 364.525 26.7445M384.236 23.6047C384.236 22.9129 384.082 22.221 383.847 21.533C383.692 20.8412 383.303 20.3052 382.913 19.7654C382.447 19.2295 381.899 18.7657 381.278 18.4616C380.499 18.0777 379.72 17.9256 378.864 17.9256C378.008 17.9256 377.229 18.0777 376.45 18.4616C375.825 18.7695 375.204 19.1534 374.737 19.6894C374.271 20.2254 373.881 20.8412 373.646 21.533C373.411 22.2248 373.256 22.9167 373.179 23.6047H384.24M341.697 4.5605L350.113 3.25668V11.8551H360.24V18.7657H350.113V29.0557C350.035 30.5153 350.348 31.975 351.046 33.2028C351.671 34.2025 352.916 34.7385 354.864 34.7385C355.797 34.7385 356.734 34.6625 357.591 34.5066C358.524 34.3546 359.384 34.1227 360.24 33.8148L361.409 40.2655C360.317 40.7254 359.149 41.0333 357.98 41.3412C356.499 41.6491 354.941 41.8012 353.383 41.8012C351.435 41.8772 349.488 41.5693 347.694 40.8813C346.291 40.3453 345.045 39.4216 344.112 38.3459C343.178 37.1941 342.554 35.8104 342.164 34.3546C341.774 32.6668 341.62 30.8993 341.697 29.2115V4.5605ZM307.655 26.7521C307.578 24.4486 308.044 22.145 308.823 19.9935C309.525 18.1499 310.617 16.5382 312.017 15.0785C313.339 13.7747 314.82 12.775 316.537 12.1592C318.249 11.4673 320.042 11.1594 321.836 11.1594C326.043 11.1594 329.391 12.4633 331.809 14.9987C334.223 17.5341 335.469 21.2935 335.469 26.2085C335.469 26.6685 335.469 27.2083 335.392 27.8203C335.315 28.4323 335.315 28.896 335.315 29.356H316.228C316.382 30.9677 317.242 32.5034 318.642 33.4271C320.355 34.5028 322.383 35.0388 324.408 34.9628C325.889 34.9628 327.447 34.8107 328.928 34.5789C330.174 34.347 331.419 33.963 332.669 33.4271L333.838 40.1857C333.294 40.4936 332.669 40.6456 332.044 40.8775C331.188 41.1094 330.332 41.3374 329.472 41.4135C328.538 41.5655 327.601 41.7214 326.51 41.8734C325.496 41.9494 324.408 42.0255 323.317 42.0255C320.902 42.1015 318.565 41.7176 316.305 40.8737C314.435 40.1819 312.8 39.1061 311.396 37.7263C310.073 36.3426 309.136 34.6549 308.515 32.8873C307.89 30.8156 307.581 28.7402 307.659 26.7445M327.362 23.6047C327.362 22.9129 327.208 22.221 326.973 21.533C326.818 20.8412 326.429 20.3052 326.039 19.7654C325.573 19.2295 325.025 18.7657 324.404 18.4616C323.625 18.0777 322.846 17.9256 321.99 17.9256C321.134 17.9256 320.355 18.0777 319.576 18.4616C318.951 18.7695 318.407 19.1534 317.94 19.6894C317.474 20.2254 317.084 20.8412 316.849 21.533C316.614 22.2248 316.459 22.9167 316.382 23.6047H327.366M275.714 12.8548C277.507 12.3948 279.374 12.0109 281.244 11.703C283.582 11.3191 285.996 11.167 288.333 11.167C290.435 11.091 292.541 11.4749 294.565 12.1668C296.123 12.7027 297.527 13.6264 298.538 14.8542C299.552 16.082 300.25 17.5417 300.639 19.0774C301.106 20.845 301.264 22.6848 301.264 24.5284V41.0371H292.93V25.6041C292.93 22.9167 292.541 21.0731 291.839 19.9213C291.137 18.8455 289.814 18.2335 287.866 18.2335C287.242 18.2335 286.621 18.2335 285.919 18.3096C285.217 18.3096 284.673 18.3856 284.125 18.4616V41.0371H275.71V12.8548M269.79 19.2295C269.011 19.0774 268.155 18.8455 267.141 18.6935C266.049 18.4616 264.958 18.3856 263.87 18.3856C263.245 18.3856 262.625 18.4616 261.923 18.5376C261.379 18.6137 260.831 18.6897 260.287 18.8455V41.1892H251.872V13.3908C253.585 12.775 255.378 12.315 257.171 11.9311C259.431 11.3951 261.768 11.1632 264.028 11.2393C264.572 11.2393 265.12 11.3153 265.664 11.3153C266.288 11.3153 266.909 11.3913 267.611 11.5472C268.236 11.6232 268.857 11.6992 269.559 11.8551C270.103 11.9311 270.65 12.0869 271.194 12.315L269.79 19.2257M217.517 26.7521C217.44 24.4486 217.907 22.145 218.686 19.9935C219.388 18.1499 220.479 16.5382 221.879 15.0785C223.202 13.7747 224.683 12.775 226.399 12.1592C228.111 11.4673 229.905 11.1594 231.698 11.1594C235.906 11.1594 239.253 12.4633 241.671 14.9987C244.086 17.5341 245.331 21.2935 245.331 26.1325C245.331 26.5925 245.331 27.1322 245.254 27.7442C245.177 28.3562 245.177 28.82 245.177 29.2799H226.091C226.245 30.8917 227.105 32.4274 228.505 33.3511C230.217 34.4268 232.246 34.9628 234.27 34.8867C235.751 34.8867 237.31 34.7347 238.79 34.5028C240.036 34.2709 241.282 33.887 242.45 33.4271L243.619 40.1857C243.075 40.4936 242.45 40.6456 241.826 40.8775C240.969 41.1094 240.113 41.3374 239.253 41.4135C238.32 41.5655 237.383 41.7214 236.291 41.8734C235.277 41.9494 234.19 42.0255 233.098 42.0255C230.684 42.1015 228.347 41.7176 226.087 40.8737C224.216 40.1819 222.581 39.1061 221.177 37.7263C219.854 36.3426 218.917 34.6549 218.296 32.8873C217.83 30.8156 217.517 28.8162 217.517 26.7445M237.306 23.6047C237.306 22.9129 237.151 22.221 236.916 21.533C236.762 20.8412 236.372 20.3052 235.983 19.7654C235.516 19.2295 234.969 18.7657 234.348 18.4616C233.569 18.0777 232.79 17.9256 231.933 17.9256C231.077 17.9256 230.298 18.0777 229.519 18.4616C228.894 18.7695 228.273 19.1534 227.807 19.6894C227.34 20.2254 226.951 20.8412 226.715 21.533C226.48 22.2248 226.326 22.9167 226.249 23.6047H237.31M203.884 26.2922C203.884 20.9172 201.859 18.3058 197.887 18.3058C197.031 18.3058 196.175 18.3818 195.315 18.6137C194.613 18.7657 193.911 19.0736 193.29 19.4575V34.5066C193.679 34.5827 194.223 34.6587 194.848 34.7385C195.473 34.8183 196.171 34.8145 196.95 34.8145C198.975 34.9666 200.922 34.1227 202.168 32.511C203.336 30.6674 203.961 28.5197 203.88 26.2922M212.453 26.6001C212.453 28.7516 212.141 30.8993 211.362 32.9747C210.737 34.8183 209.727 36.4301 208.4 37.8137C206.996 39.1974 205.361 40.2693 203.572 40.9611C201.47 41.729 199.287 42.0369 197.027 42.0369C196.013 42.0369 194.925 41.9608 193.834 41.8848C192.742 41.8088 191.651 41.6529 190.563 41.5769C189.549 41.4249 188.538 41.269 187.524 41.0409C186.51 40.8889 185.654 40.657 184.952 40.3491V-0.738422L193.367 -2.04225V12.5469C194.3 12.163 195.315 11.8551 196.329 11.627C197.42 11.3951 198.512 11.3191 199.599 11.3191C201.547 11.3191 203.417 11.627 205.207 12.4709C206.765 13.1627 208.169 14.2384 209.256 15.5423C210.425 17.0019 211.281 18.6137 211.748 20.3812C212.214 22.3009 212.45 24.4524 212.45 26.6001M176.926 40.1134C175.133 40.5734 173.266 40.9573 171.396 41.1892C169.059 41.5731 166.644 41.7252 164.307 41.7252C162.124 41.8012 160.022 41.4173 157.998 40.7254C156.44 40.1096 155.117 39.1897 154.025 37.9619C153.011 36.6581 152.313 35.1985 151.923 33.5867C151.457 31.8192 151.299 29.8995 151.299 28.0597V11.8589H159.714V27.1398C159.714 29.8273 160.103 31.7469 160.805 32.8987C161.507 34.0505 162.83 34.6663 164.778 34.6663C165.402 34.6663 166.023 34.6663 166.725 34.5903C167.427 34.5142 167.971 34.5142 168.519 34.3584V11.8589H176.934V40.1172M127.846 22.4529C128.703 21.533 129.482 20.6093 130.419 19.6894C131.275 18.6897 132.131 17.7698 132.991 16.8499C133.847 15.8502 134.626 15.0063 135.328 14.1624C136.03 13.3185 136.732 12.5507 137.276 11.9349H147.249C145.224 14.1624 143.277 16.3899 141.406 18.4616C139.459 20.5333 137.434 22.6848 135.174 24.8363C136.42 25.9881 137.588 27.1398 138.68 28.4437C139.848 29.8273 141.017 31.2072 142.185 32.7429C143.277 34.2025 144.368 35.7382 145.302 37.1979C146.235 38.6576 147.014 40.0374 147.639 41.269H137.978C137.353 40.2693 136.655 39.2734 135.876 38.1216C135.097 36.9698 134.241 35.8181 133.462 34.5903C132.606 33.4385 131.668 32.2867 130.658 31.211C129.802 30.2112 128.865 29.2913 127.854 28.5235V41.345H119.439V-0.738422L127.854 -2.04225V22.4529" fill="#E6EDEF"/>
</g>
</g>
<defs>
<clipPath id="clip0_9314_2588">
<rect width="88" height="60" fill="white"/>
</clipPath>
<clipPath id="clip1_9314_2588">
<rect width="72" height="66.297" fill="white" transform="translate(30 -14)"/>
</clipPath>
</defs>
</svg>
