<svg width="208" height="72" viewBox="0 0 208 72" fill="none" xmlns="http://www.w3.org/2000/svg">
<g clip-path="url(#clip0_9314_2597)">
<path d="M72.952 51.2604L72.9057 51.0752L65.7734 20.4622V20.3232C65.125 18.3781 63.7357 16.7108 61.8831 15.7845H61.7905L33.2616 2.12216C32.289 1.65903 31.1775 1.42746 30.1123 1.47378C29.186 1.42746 28.2598 1.52009 27.3335 1.70534L27.1483 1.75166L26.963 1.84428L-1.5659 15.5993C-2.28376 15.9235 -2.88583 16.3866 -3.44159 16.9192C-3.53421 16.9887 -3.60368 17.0813 -3.69631 17.1508C-3.90472 17.3823 -4.11313 17.6139 -4.27522 17.8686C-4.36785 18.0076 -4.46048 18.1465 -4.52994 18.2623C-4.69204 18.517 -4.85414 18.7949 -4.96992 19.0728C-4.96992 19.0959 -4.96992 19.1191 -4.99308 19.1422C-5.15517 19.5128 -5.31727 19.8833 -5.4099 20.2769L-12.4032 51.0752V51.1678C-12.7737 53.2519 -12.2642 55.336 -11.0601 57.0496L-11.0138 57.0959L-10.9675 57.1422L8.71562 81.5956L8.76193 81.6882L8.85456 81.7345C10.3366 83.2165 12.2817 84.0965 14.3658 84.2354H37.1519L37.3372 84.2817H45.9051C48.3597 84.2817 50.3975 83.3091 51.6942 81.5956L71.4236 57.1885L71.47 57.1422L71.5163 57.0959C71.7247 56.7948 71.8868 56.4707 72.0489 56.1465C72.8593 54.6644 73.1835 52.9509 72.952 51.2604ZM36.1793 32.6425L40.2549 24.8619H41.6906C42.0611 24.8619 42.4316 24.9545 42.7558 25.1398C43.0105 25.2787 43.2189 25.464 43.381 25.6492C43.4968 25.7882 43.5894 25.9503 43.6821 26.1124C43.7515 26.2282 43.821 26.3439 43.8673 26.4829C43.9599 26.7608 43.9831 27.0386 43.9831 27.3165C43.9831 27.3397 43.9831 27.3628 43.9831 27.386C43.9831 27.386 43.9831 27.3397 43.9831 27.3165C43.9831 27.6407 43.8905 27.9881 43.7284 28.2891L40.2549 34.8193C39.6528 35.9771 38.2634 36.3939 37.1519 35.7918C36.0404 35.1434 35.6236 33.8004 36.1793 32.6425ZM28.584 55.9844L25.2031 62.3293L22.6327 67.1227V67.169L22.5633 67.2385L12.9301 47.648L1.81496 24.9545H20.5718L28.0745 38.8485L20.5949 25.0009L28.0745 38.8253L25.5041 43.6188L25.4115 43.6651L17.8162 29.5859H9.5261L22.5864 57.2811L24.4389 53.7613C25.041 52.6498 26.4304 52.1867 27.5882 52.7888C28.144 53.0898 28.5377 53.5992 28.7229 54.2013C28.9082 54.7802 28.8618 55.4286 28.5608 55.9844H28.584ZM29.9734 49.269C29.6955 49.13 29.4871 48.9448 29.3018 48.7132C29.4871 48.9448 29.7186 49.13 29.9965 49.269C28.885 48.6669 28.4682 47.2775 29.0239 46.1197L32.4974 39.5895C33.0995 38.4317 34.5352 38.0149 35.6467 38.6169C35.9478 38.779 36.1793 38.9643 36.3646 39.219C36.5035 39.4043 36.5961 39.5895 36.6656 39.7979C36.9203 40.4231 36.9435 41.141 36.5961 41.7662L33.1227 48.2964C32.5206 49.4542 31.0849 49.871 29.9734 49.269ZM39.3286 64.4134C39.3286 64.4134 39.2823 64.4597 39.2823 64.506L37.6613 67.8869C37.0593 68.9984 35.7162 69.4615 34.5584 68.9057C34.5121 68.8826 34.4657 68.8363 34.4194 68.79C34.3268 68.7436 34.2342 68.7205 34.1415 68.6742C34.0026 68.5815 33.8868 68.4426 33.771 68.3037C33.771 68.3037 33.7942 68.3037 33.7942 68.3268C33.6089 68.0953 33.47 67.8637 33.3542 67.5858C33.4468 67.8405 33.5626 68.0953 33.7479 68.3037C33.1921 67.6784 33.0532 66.8216 33.3542 66.0343C33.1921 66.5438 33.1921 67.0764 33.3542 67.5627C33.169 67.0069 33.1921 66.3585 33.47 65.7796L35.1373 62.4451C35.693 61.4725 36.8972 61.0093 37.9624 61.4262C39.1665 61.843 39.7686 63.1861 39.3055 64.3902L39.3286 64.4134ZM46.2293 50.7973L45.3956 52.4183L42.9874 57.4201C42.5705 58.1842 41.8064 58.6011 40.9959 58.6474C41.1348 58.6474 41.2506 58.6474 41.3896 58.6242C40.718 58.7863 40.0002 58.7168 39.4212 58.2537C38.5413 57.6053 38.2171 56.4012 38.7265 55.3823L40.417 52.0477L38.7729 55.336C38.2171 56.4938 38.6802 57.8832 39.8381 58.439C40.1159 58.5779 40.417 58.6474 40.718 58.6474C40.4401 58.6474 40.1623 58.5547 39.8844 58.439C38.7265 57.8832 38.2634 56.4938 38.8192 55.336L42.1074 48.7132C42.6632 47.6017 44.0989 47.1386 45.2104 47.6943C46.3219 48.2501 46.785 49.6395 46.2293 50.7973ZM53.0836 37.1349L51.2311 40.8863L49.8417 43.804C49.2396 44.9155 47.8966 45.3787 46.7387 44.8229C46.6924 44.7997 46.6693 44.7534 46.5998 44.7303C46.5303 44.684 46.4608 44.684 46.4145 44.6376C46.2988 44.5682 46.2293 44.4524 46.1135 44.3598C46.183 44.4292 46.2524 44.4524 46.3219 44.5219C46.2061 44.4292 46.0672 44.3366 45.9746 44.2208C45.7893 44.0124 45.6735 43.7577 45.5577 43.503C45.3493 42.9472 45.3262 42.2988 45.6272 41.7199L48.9154 35.0971C49.0544 34.7961 49.2628 34.5414 49.4944 34.3561C49.286 34.5414 49.1007 34.7729 48.9618 35.0508C49.5175 33.893 50.9069 33.4762 52.0647 34.0319C53.2226 34.5877 53.6857 35.9771 53.0836 37.1349ZM56.835 29.8174L56.6034 30.4658L56.5571 30.5121C56.2329 31.0679 55.6772 31.4847 55.0288 31.6236C54.9825 31.6236 54.913 31.6236 54.8667 31.6236C54.3572 31.7163 53.8015 31.67 53.3152 31.3921C53.292 31.3921 53.2689 31.3458 53.2457 31.3226C53.5004 31.4847 53.7783 31.5773 54.0794 31.6236C53.1994 31.4384 52.4584 30.79 52.25 29.8637H49.4712C48.1744 29.8637 47.1555 28.8449 47.1555 27.5481C47.1555 26.2513 48.1744 25.2324 49.4712 25.2324H59.1507L56.835 29.8174Z" fill="#E6EDEF"/>
</g>
<defs>
<clipPath id="clip0_9314_2597">
<rect width="208" height="72" fill="white"/>
</clipPath>
</defs>
</svg>
