<svg width="108" height="72" viewBox="0 0 108 72" fill="none" xmlns="http://www.w3.org/2000/svg">
<g clip-path="url(#clip0_9314_2587)">
<g clip-path="url(#clip1_9314_2587)">
<path d="M74.434 28.1166L65.8245 29.5719C67.0427 33.0002 69.4749 35.9999 72.5183 37.9728L75.8244 30.0895C75.9966 29.8307 75.9966 29.4913 75.9105 29.2325C75.8244 28.5451 75.127 28.1166 74.434 28.1166Z" fill="#E6EDEF"/>
<path d="M73.9088 22.7154C74.4297 22.1171 74.3436 21.2601 73.7366 20.7424L67.301 15.0867C65.3897 18.2561 64.5201 21.9432 64.7784 25.5412L73.2114 23.1397C73.5601 23.0548 73.7323 22.97 73.9088 22.7111V22.7154Z" fill="#E6EDEF"/>
<path d="M77.7357 17.1445C78.5192 17.1445 79.2122 16.5462 79.2122 15.774L79.647 7.20336L77.9079 7.54703C74.8644 8.23438 72.0836 9.77455 69.8193 11.9172L77.0383 16.9747C77.3009 17.0596 77.4731 17.1445 77.7357 17.1445Z" fill="#E6EDEF"/>
<path d="M79.4748 25.7151L81.8252 26.831L84.1713 25.7151L84.7783 23.233L83.1295 21.1752H80.5209L78.8678 23.233L79.4748 25.7151Z" fill="#E6EDEF"/>
<path d="M84.6061 16.5462C85.0408 17.1445 85.9104 17.2336 86.5174 16.8899L93.646 11.9172C91.0373 9.34602 87.6452 7.71675 83.8183 7.28821L84.3392 15.9437C84.3392 16.2025 84.4253 16.3723 84.6018 16.542L84.6061 16.5462Z" fill="#E6EDEF"/>
<path d="M88.3469 28.2014C87.7399 28.4603 87.3912 29.1434 87.5634 29.8307L90.9556 37.888C93.0434 36.6024 94.8686 34.8034 96.1729 32.7456C96.8703 31.8037 97.3911 30.6878 97.8259 29.487L89.1303 28.0317C88.8678 28.0317 88.6095 28.1166 88.3469 28.2014Z" fill="#E6EDEF"/>
<path d="M120 29.487L113.392 1.45848C112.957 0.0880231 111.915 -1.02786 110.611 -1.71096L84.0852 -14.2233C83.3878 -14.5669 82.6087 -14.6518 81.9113 -14.6518C81.2139 -14.6518 80.4348 -14.6518 79.7374 -14.4821L53.2159 -1.88068C51.9115 -1.28243 50.9559 -0.166551 50.6072 1.28876L44.0855 29.487C43.8229 30.9424 44.1716 32.4019 45.0412 33.6027L63.388 55.9712C64.4297 56.998 65.9106 57.6853 67.3871 57.7702H96.6034C98.1703 57.9399 99.6468 57.2568 100.602 55.9712L118.949 33.6027C119.819 32.4019 120.168 30.9466 119.991 29.487H120ZM109.13 31.3751C108.958 31.3751 108.868 31.3751 108.695 31.2903C108.638 31.2337 108.581 31.2054 108.523 31.2054C108.351 31.2054 108.261 31.1206 108.175 31.1206C107.826 31.0357 107.568 30.8617 107.219 30.692C107.047 30.692 106.87 30.6072 106.698 30.5223H106.612C105.742 30.1786 104.787 29.9241 103.831 29.7501H103.745C103.482 29.7501 103.224 29.835 103.048 30.0089C103.048 30.0089 103.048 30.0938 102.961 30.0938L102.264 30.0089C100.697 34.8925 97.3094 39.0081 92.8712 41.6641L93.1338 42.3515C93.1338 42.3515 93.0477 42.3515 93.0477 42.4364C92.8755 42.6952 92.8755 43.0346 92.9616 43.2934C93.3102 44.1505 93.745 45.0075 94.352 45.7798V45.9495C94.5242 46.1192 94.6146 46.2083 94.7007 46.378C94.9633 46.6368 95.1355 46.8914 95.3077 47.2351C95.3937 47.3199 95.4798 47.4048 95.4798 47.4939C95.4798 47.4939 95.5659 47.4939 95.5659 47.5787C95.7381 48.0073 95.7381 48.4358 95.652 48.8643C95.5659 49.2929 95.2173 49.6365 94.8686 49.8063C94.606 49.8911 94.4338 49.976 94.1712 49.976C93.4738 49.976 92.8669 49.5474 92.5182 48.9492C92.4321 48.9492 92.4321 48.8643 92.4321 48.8643C92.346 48.7795 92.346 48.6946 92.2599 48.6055C92.0877 48.3467 91.9973 48.0073 91.9112 47.6636L91.739 47.1502V47.0654C91.4764 46.1234 91.0417 45.2664 90.6069 44.4093C90.4347 44.1505 90.1721 43.9808 89.9095 43.8959C89.9095 43.8393 89.8808 43.8111 89.8234 43.8111L89.4747 43.2128C88.6052 43.4716 87.6495 43.8111 86.6939 43.985C85.1269 44.4135 83.5643 44.5833 81.9974 44.5833C79.3887 44.5833 76.8661 44.1547 74.434 43.2128L74.0853 43.9002C74.0853 43.9567 74.0566 43.985 73.9992 43.985C73.7366 44.0699 73.4783 44.2438 73.3018 44.4984C72.867 45.3555 72.4323 46.2125 72.1697 47.1545L71.9975 47.6678C71.9114 48.0115 71.7349 48.2661 71.6488 48.6098C71.5627 48.6946 71.4766 48.7795 71.4766 48.8686C71.3905 48.8686 71.3905 48.9534 71.3905 48.9534C71.0418 49.5517 70.4348 49.9802 69.7375 49.9802C69.5653 49.9802 69.3027 49.8954 69.1305 49.8105C68.347 49.382 67.9984 48.3552 68.4331 47.4981C68.5192 47.4981 68.5192 47.4133 68.5192 47.4133C68.6053 47.3284 68.6053 47.2436 68.6914 47.1545C68.954 46.8108 69.1262 46.4671 69.2984 46.2974C69.4706 46.1277 69.561 46.0386 69.6471 45.8689V45.784C70.168 45.0118 70.6888 44.1547 71.0375 43.2977C71.1236 43.0388 71.1236 42.6994 70.9514 42.4406C70.9514 42.4406 70.8653 42.4406 70.8653 42.3557L71.3001 41.7575C70.4305 41.329 69.7332 40.8156 68.954 40.2131C65.5619 37.6419 63.1297 34.1288 61.8254 30.1871L61.0419 30.272C61.0419 30.272 61.0419 30.1871 60.9558 30.1871C60.7836 30.0174 60.521 29.9283 60.2584 29.9283H60.1723C59.1306 30.098 58.261 30.3568 57.3011 30.7005H57.215C57.0428 30.7005 56.8663 30.7854 56.6941 30.8702C56.4315 30.9551 56.0871 31.129 55.7385 31.2139C55.6524 31.2139 55.3898 31.129 55.3898 31.2139C55.3898 31.2988 55.3898 31.2988 55.3037 31.2988C55.1315 31.3836 55.0411 31.3836 54.8689 31.3836C54.0854 31.4685 53.302 30.9551 53.1298 30.1829C52.9576 29.241 53.5646 28.3839 54.5202 28.2099C54.5776 28.1534 54.635 28.1251 54.6924 28.1251C54.8646 28.1251 54.955 28.0402 55.0411 28.0402C55.3898 28.0402 55.7385 27.9554 56.0828 27.9554C56.255 27.8705 56.4315 27.8705 56.6037 27.8705C57.6455 27.7856 58.6054 27.6117 59.5611 27.3571C59.8237 27.1874 60.0819 27.0134 60.168 26.7589C60.168 26.7589 60.2541 26.7589 60.2541 26.674L60.9515 26.5043C60.168 21.6207 61.3002 16.648 63.995 12.4476C64.081 12.2779 64.1671 12.1888 64.2575 12.019L63.7496 11.5184C63.7496 11.5438 63.741 11.5651 63.7367 11.5905V11.5057L63.7496 11.5184C63.7883 11.2723 63.6334 10.9753 63.4741 10.8183C62.7767 10.131 61.9072 9.61757 61.0376 9.10418C60.8654 9.01932 60.6889 8.93446 60.5167 8.84536C60.168 8.67564 59.8194 8.50168 59.5611 8.33197C59.475 8.33197 59.2985 8.16225 59.2985 8.16225C59.2985 8.16225 59.2985 8.07739 59.2124 8.07739C58.515 7.47915 58.3428 6.44812 58.8637 5.67592C59.1263 5.24738 59.5611 5.07767 60.0819 5.07767C60.5167 5.07767 60.9515 5.24738 61.3002 5.5062L61.3863 5.59106C61.4724 5.67591 61.5585 5.67592 61.6489 5.76077C61.9115 6.01959 62.0836 6.27416 62.3462 6.53298C62.4323 6.61784 62.6088 6.7027 62.6949 6.87666C63.3019 7.564 64.0854 8.24711 64.8688 8.8496C65.041 8.93446 65.2175 9.01932 65.3897 9.01932C65.5619 9.01932 65.6523 8.93446 65.7384 8.93446H65.8245L66.3453 9.27813C69.2166 6.27841 72.9531 4.13574 77.0426 3.27868C78.0844 3.10896 79.0443 2.93501 80 2.85015L80.0861 2.1628V1.99308C80.3487 1.82337 80.4348 1.56455 80.5209 1.30573C80.5209 0.278953 80.5209 -0.667213 80.3487 -1.60914V-1.69399C80.3487 -1.86371 80.3487 -2.03767 80.2626 -2.20738C80.1765 -2.55106 80.0904 -2.89473 80.0904 -3.23416V-3.6627C80.0904 -4.09123 80.2626 -4.51976 80.6113 -4.86344C81.046 -5.29197 81.5669 -5.55078 82.0878 -5.46168C82.9573 -5.37683 83.6547 -4.51976 83.5643 -3.6627V-3.14931C83.4782 -2.80563 83.4782 -2.46196 83.3921 -2.12253C83.3921 -1.95281 83.306 -1.77885 83.306 -1.60914V-1.52428C83.1338 -0.497497 83.1338 0.448669 83.1338 1.39059C83.2199 1.64941 83.306 1.90398 83.5686 2.07794V1.99308L83.6547 2.68043C87.7399 3.10896 91.7433 4.65338 94.959 7.13547C95.6563 7.82282 96.4355 8.50593 97.1329 9.19328L97.8302 8.76474H97.9163C98.0024 8.8496 98.1789 8.8496 98.265 8.8496C98.4372 8.8496 98.6137 8.76474 98.7859 8.67989C99.5693 8.1665 100.353 7.47915 100.96 6.79604C101.046 6.71118 101.222 6.62632 101.308 6.45237C101.481 6.19355 101.743 5.93897 102.006 5.68016C102.092 5.68016 102.178 5.5953 102.268 5.51044L102.355 5.42558C102.703 5.16677 103.138 4.99705 103.573 4.99705C104.008 4.99705 104.528 5.25587 104.791 5.5953C105.398 6.36751 105.226 7.39429 104.442 7.99678C104.442 8.08164 104.528 8.08164 104.442 8.16649C104.356 8.25135 104.27 8.25135 104.18 8.33621C103.831 8.50593 103.573 8.67988 103.224 8.8496C103.052 8.93446 102.875 9.01932 102.703 9.10842C101.834 9.62181 101.05 10.1352 100.267 10.8225C100.095 10.9923 100.004 11.3359 100.004 11.5948V11.6796L99.4832 12.193C100.874 14.3357 101.92 16.7371 102.527 19.2192C103.048 21.7056 103.224 24.2768 102.875 26.7631L103.573 26.9328C103.659 27.1916 103.921 27.4462 104.18 27.5311C105.135 27.7899 106.181 27.9596 107.137 28.0445H107.223C107.395 28.1293 107.572 28.1293 107.744 28.1293C108.093 28.1293 108.441 28.1293 108.786 28.2142C108.958 28.2142 109.134 28.2142 109.134 28.299C109.134 28.3839 109.221 28.3839 109.307 28.3839C110.09 28.5536 110.783 29.241 110.874 30.1829C110.611 30.8702 109.918 31.3836 109.134 31.3836L109.13 31.3751Z" fill="#E6EDEF"/>
<path d="M82.3461 31.8037C81.7391 31.46 81.0417 31.6339 80.607 32.1473L76.3453 39.7761C78.0844 40.2895 79.9957 40.6331 81.8252 40.6331C83.1295 40.6331 84.3478 40.4634 85.566 40.2046C86.173 40.0349 86.6982 39.9458 87.219 39.8609L83.0434 32.4062C82.7808 32.1473 82.6087 31.9776 82.3461 31.8079V31.8037Z" fill="#E6EDEF"/>
<path d="M96.259 15.0909L89.7373 20.9206C89.5651 21.0904 89.4747 21.2643 89.3886 21.5189C89.2164 22.2911 89.6512 23.0633 90.4304 23.233L98.6912 25.5454C98.8634 23.7464 98.7773 21.9474 98.3425 20.1442C97.9077 18.3452 97.2103 16.6311 96.2547 15.0867L96.259 15.0909Z" fill="#E6EDEF"/>
<path d="M465.305 38.9148C466.523 38.9996 467.827 38.8299 468.955 38.4014C469.652 38.0577 470.087 37.2855 469.997 36.5175C469.911 35.6605 469.39 34.8882 468.606 34.6337C467.302 33.8615 465.825 33.1784 464.345 32.7498C462.868 32.2364 461.564 31.6339 460.346 31.0357C459.213 30.5223 458.258 29.835 457.302 28.9779C456.432 28.1208 455.826 27.1789 455.391 26.063C454.87 24.7774 454.693 23.407 454.693 22.0365C454.607 19.2065 455.912 16.4656 458.172 14.7515C460.518 12.9525 463.652 12.0954 467.651 12.0954C469.562 12.0954 471.564 12.2651 473.475 12.6937C474.952 12.9525 476.432 13.2919 477.909 13.8095L476.256 21.0946C475.038 20.6661 473.91 20.4072 472.692 20.0678C471.301 19.7241 469.82 19.6393 468.43 19.6393C465.472 19.6393 463.996 20.4115 463.996 22.0408C463.996 22.3844 464.082 22.7281 464.168 23.0675C464.34 23.4112 464.603 23.6658 464.952 23.9246C465.3 24.1834 465.821 24.438 466.428 24.7817C467.035 25.1253 467.905 25.469 468.951 25.8085C470.69 26.4067 472.429 27.1789 473.996 28.036C475.214 28.6342 476.256 29.4064 477.125 30.4374C477.909 31.2097 478.43 32.1516 478.778 33.2675C479.127 34.4682 479.299 35.6689 479.299 36.8654C479.472 39.7803 478.081 42.6061 475.558 44.2353C473.122 45.8646 469.644 46.7217 465.124 46.7217C462.601 46.8065 460.169 46.552 457.733 45.9495C456.342 45.6058 455.038 45.1773 453.733 44.7487L455.3 37.2049C456.867 37.8031 458.516 38.3207 460.169 38.6602C461.908 38.745 463.561 38.919 465.3 38.919M417.393 29.487C417.307 26.9158 417.828 24.3447 418.697 21.9432C419.481 19.8854 420.699 18.0864 422.261 16.4571C423.738 15.0018 425.391 13.8859 427.307 13.1986C429.218 12.4264 431.22 12.0827 433.221 12.0827C437.918 12.0827 441.654 13.538 444.353 16.368C447.048 19.198 448.439 23.3942 448.439 28.8803C448.439 29.3937 448.439 29.9962 448.353 30.6793C448.353 31.3666 448.266 31.88 448.266 32.3934H427.048C427.221 34.1924 428.181 35.9065 429.743 36.9376C431.654 38.1383 433.919 38.7366 436.179 38.6517C437.832 38.6517 439.571 38.482 441.224 38.2232C442.614 37.9643 444.005 37.5358 445.309 36.9376L446.613 44.4814C446.006 44.8251 445.309 44.9948 444.612 45.2536C443.656 45.5125 442.7 45.767 441.74 45.8519C440.699 46.0216 439.653 46.1956 438.434 46.3653C437.302 46.4501 436.088 46.535 434.87 46.535C432.175 46.6199 429.567 46.1913 427.044 45.2494C424.956 44.4772 423.131 43.2764 421.564 41.7363C420.088 40.1919 419.042 38.308 418.348 36.3351C417.741 34.0227 417.393 31.7061 417.393 29.4786M439.394 25.9739C439.394 25.2017 439.222 24.4295 438.96 23.6615C438.787 22.8893 438.353 22.2911 437.918 21.6886C437.397 21.0904 436.786 20.5727 436.093 20.2333C435.223 19.8048 434.354 19.635 433.398 19.635C432.442 19.635 431.573 19.8048 430.703 20.2333C430.006 20.577 429.313 21.0055 428.792 21.6037C428.271 22.202 427.836 22.8893 427.574 23.6615C427.311 24.4338 427.139 25.206 427.053 25.9739H439.399M391.913 4.71702L401.306 3.26171V12.8591H412.61V20.5727H401.306V32.0582C401.22 33.6875 401.569 35.3168 402.348 36.6872C403.045 37.8031 404.436 38.4014 406.609 38.4014C407.651 38.4014 408.697 38.3165 409.653 38.1425C410.695 37.9728 411.655 37.714 412.61 37.3703L413.915 44.5705C412.696 45.0839 411.392 45.4276 410.088 45.7713C408.435 46.1149 406.696 46.2847 404.956 46.2847C402.782 46.3695 400.609 46.0258 398.607 45.2579C397.04 44.6596 395.65 43.6286 394.608 42.4279C393.566 41.1423 392.869 39.5979 392.434 37.9728C391.999 36.089 391.827 34.116 391.913 32.2322V4.71702ZM353.915 29.487C353.829 26.9158 354.35 24.3447 355.219 21.9432C356.003 19.8854 357.221 18.0864 358.784 16.4571C360.26 15.0018 361.913 13.8859 363.829 13.1986C365.74 12.4264 367.742 12.0827 369.744 12.0827C374.44 12.0827 378.177 13.538 380.876 16.368C383.57 19.198 384.961 23.3942 384.961 28.8803C384.961 29.3937 384.961 29.9962 384.875 30.6793C384.789 31.3624 384.789 31.88 384.789 32.3934H363.484C363.657 34.1924 364.617 35.9065 366.179 36.9376C368.091 38.1383 370.355 38.7366 372.615 38.6517C374.268 38.6517 376.007 38.482 377.66 38.2232C379.05 37.9643 380.441 37.5358 381.836 36.9376L383.14 44.4814C382.533 44.8251 381.836 44.9948 381.138 45.2536C380.183 45.5125 379.227 45.767 378.267 45.8519C377.225 46.0216 376.179 46.1956 374.961 46.3653C373.829 46.4501 372.615 46.535 371.397 46.535C368.702 46.6199 366.093 46.1913 363.571 45.2494C361.483 44.4772 359.658 43.2764 358.091 41.7363C356.614 40.1919 355.568 38.308 354.875 36.3351C354.178 34.0227 353.833 31.7061 353.919 29.4786M375.912 25.9739C375.912 25.2017 375.74 24.4295 375.478 23.6615C375.305 22.8893 374.871 22.2911 374.436 21.6886C373.915 21.0904 373.304 20.5727 372.611 20.2333C371.741 19.8048 370.871 19.635 369.916 19.635C368.96 19.635 368.091 19.8048 367.221 20.2333C366.524 20.577 365.917 21.0055 365.396 21.6037C364.875 22.202 364.44 22.8893 364.178 23.6615C363.915 24.4338 363.743 25.206 363.657 25.9739H375.917M318.263 13.975C320.265 13.4616 322.348 13.0331 324.436 12.6894C327.045 12.2609 329.74 12.0912 332.348 12.0912C334.694 12.0063 337.045 12.4348 339.305 13.2071C341.044 13.8053 342.611 14.8363 343.739 16.2068C344.871 17.5772 345.65 19.2065 346.085 20.9206C346.606 22.8936 346.782 24.9471 346.782 27.0049V45.4318H337.48V28.2057C337.48 25.206 337.045 23.1482 336.261 21.8626C335.478 20.6618 334.001 19.9787 331.827 19.9787C331.13 19.9787 330.437 19.9787 329.654 20.0636C328.87 20.0636 328.263 20.1484 327.652 20.2333V45.4318H318.259V13.975M311.651 21.0904C310.782 20.9206 309.826 20.6618 308.694 20.4921C307.475 20.2333 306.257 20.1484 305.043 20.1484C304.346 20.1484 303.653 20.2333 302.869 20.3181C302.262 20.403 301.651 20.4879 301.044 20.6618V45.6016H291.651V14.5733C293.563 13.8859 295.564 13.3725 297.566 12.944C300.089 12.3457 302.697 12.0869 305.22 12.1718C305.827 12.1718 306.438 12.2566 307.045 12.2566C307.742 12.2566 308.435 12.3415 309.219 12.5155C309.916 12.6003 310.609 12.6852 311.393 12.8591C312 12.944 312.611 13.118 313.218 13.3725L311.651 21.0861M253.305 29.487C253.219 26.9158 253.739 24.3447 254.609 21.9432C255.392 19.8854 256.611 18.0864 258.173 16.4571C259.65 15.0018 261.303 13.8859 263.218 13.1986C265.13 12.4264 267.131 12.0827 269.133 12.0827C273.83 12.0827 277.566 13.538 280.265 16.368C282.96 19.198 284.35 23.3942 284.35 28.7955C284.35 29.3088 284.35 29.9113 284.264 30.5944C284.178 31.2775 284.178 31.7952 284.178 32.3086H262.874C263.046 34.1076 264.006 35.8217 265.569 36.8527C267.48 38.0534 269.744 38.6517 272.004 38.5668C273.657 38.5668 275.397 38.3971 277.05 38.1383C278.44 37.8795 279.83 37.451 281.135 36.9376L282.439 44.4814C281.832 44.8251 281.135 44.9948 280.437 45.2536C279.482 45.5125 278.526 45.767 277.566 45.8519C276.524 46.0216 275.478 46.1956 274.26 46.3653C273.128 46.4501 271.914 46.535 270.696 46.535C268.001 46.6199 265.392 46.1913 262.87 45.2494C260.782 44.4772 258.957 43.2764 257.39 41.7363C255.913 40.1919 254.867 38.308 254.174 36.3351C253.653 34.0227 253.305 31.7909 253.305 29.4786M275.392 25.9739C275.392 25.2017 275.22 24.4295 274.957 23.6615C274.785 22.8893 274.35 22.2911 273.916 21.6886C273.395 21.0904 272.784 20.5727 272.091 20.2333C271.221 19.8048 270.351 19.635 269.396 19.635C268.44 19.635 267.571 19.8048 266.701 20.2333C266.004 20.577 265.311 21.0055 264.79 21.6037C264.269 22.202 263.834 22.8893 263.571 23.6615C263.309 24.4338 263.137 25.206 263.051 25.9739H275.397M238.087 28.9737C238.087 22.9742 235.827 20.0593 231.393 20.0593C230.438 20.0593 229.482 20.1442 228.522 20.403C227.739 20.5727 226.955 20.9164 226.262 21.3449V38.1425C226.697 38.2274 227.304 38.3123 228.001 38.4014C228.699 38.4905 229.478 38.4862 230.347 38.4862C232.607 38.6559 234.781 37.714 236.172 35.915C237.476 33.8572 238.173 31.46 238.083 28.9737M247.652 29.3173C247.652 31.7188 247.304 34.116 246.434 36.4327C245.737 38.4905 244.609 40.2895 243.128 41.8339C241.561 43.3783 239.736 44.5748 237.739 45.347C235.393 46.204 232.956 46.5477 230.434 46.5477C229.301 46.5477 228.087 46.4629 226.869 46.378C225.651 46.2931 224.433 46.1192 223.219 46.0343C222.087 45.8646 220.959 45.6907 219.827 45.4361C218.694 45.2664 217.739 45.0076 216.955 44.6639V-1.19757L226.348 -2.65289V13.6313C227.39 13.2028 228.522 12.8591 229.654 12.6046C230.873 12.3457 232.091 12.2609 233.305 12.2609C235.479 12.2609 237.566 12.6046 239.564 13.5465C241.303 14.3187 242.87 15.5194 244.084 16.9747C245.388 18.604 246.344 20.403 246.865 22.3759C247.386 24.5186 247.648 26.9201 247.648 29.3173M207.997 44.4008C205.995 44.9142 203.912 45.3427 201.824 45.6016C199.216 46.0301 196.521 46.1998 193.912 46.1998C191.476 46.2847 189.13 45.8561 186.87 45.0839C185.13 44.3966 183.654 43.3698 182.436 41.9993C181.303 40.544 180.524 38.9148 180.09 37.1158C179.569 35.1428 179.392 33.0002 179.392 30.9466V12.8634H188.785V29.9198C188.785 32.9195 189.22 35.0622 190.003 36.3478C190.787 37.6334 192.263 38.3207 194.437 38.3207C195.135 38.3207 195.828 38.3207 196.611 38.2359C197.395 38.151 198.002 38.151 198.613 37.9771V12.8634H208.006V44.4051M153.215 24.6883C154.171 23.6615 155.04 22.6305 156.086 21.6037C157.042 20.4879 157.998 19.4611 158.958 18.4343C159.913 17.3184 160.783 16.3765 161.566 15.4346C162.35 14.4927 163.133 13.6356 163.74 12.9482H174.872C172.612 15.4346 170.438 17.9209 168.351 20.2333C166.177 22.5457 163.917 24.9471 161.394 27.3486C162.784 28.6342 164.089 29.9198 165.307 31.3751C166.611 32.9195 167.916 34.4597 169.22 36.1738C170.438 37.8031 171.657 39.5172 172.698 41.1465C173.74 42.7758 174.61 44.316 175.307 45.6907H164.524C163.826 44.5748 163.047 43.4631 162.178 42.1775C161.308 40.8919 160.352 39.6063 159.483 38.2359C158.527 36.9503 157.481 35.6647 156.353 34.464C155.398 33.3481 154.351 32.3213 153.224 31.4642V45.7755H143.831V-1.19757L153.224 -2.65289V24.6883" fill="#E6EDEF"/>
</g>
</g>
<defs>
<clipPath id="clip0_9314_2587">
<rect width="108" height="72" fill="white"/>
</clipPath>
<clipPath id="clip1_9314_2587">
<rect width="80.3656" height="74" fill="white" transform="translate(44 -16)"/>
</clipPath>
</defs>
</svg>
