<svg width="208" height="72" viewBox="0 0 208 72" fill="none" xmlns="http://www.w3.org/2000/svg">
<g clip-path="url(#clip0_9314_2577)">
<path d="M64.6398 45.9259C64.2379 40.9773 62.9213 36.1468 60.757 31.6806L73 27.2256C72.0345 25.2216 70.902 23.3028 69.6145 21.4896L63.8745 23.5851C58.8602 16.5417 51.68 11.3398 43.4338 8.77631C35.1877 6.21281 26.3302 6.42907 18.2184 9.39196C10.1066 12.3548 3.18773 17.901 -1.47835 25.1807C-6.14444 32.4605 -8.3004 41.0725 -7.61599 49.6974L-1.86085 47.5815C-1.67834 49.7909 -1.31389 51.9814 -0.771207 54.1306L-13 58.603C-11.7901 63.4148 -9.69908 67.9596 -6.83325 72.0062L-0.358269 69.6424L-0.349707 69.6553C3.57915 75.1987 8.87852 79.6233 15.0285 82.4951C24.5275 86.9193 35.3897 87.3874 45.2327 83.7967C55.0756 80.2061 63.0957 72.8498 67.5337 63.3415C70.4141 57.1722 71.6399 50.3569 71.0901 43.5681L64.6398 45.9259ZM55.0243 57.4649C52.1462 63.6424 46.94 68.4234 40.5482 70.7585C34.1565 73.0936 27.1013 72.7922 20.9311 69.9203C18.1365 68.6154 15.6021 66.812 13.4515 64.5981L6.91624 66.9856C3.4056 63.3597 1.03116 58.783 0.0859536 53.8204L0.0889181 53.8178L12.3526 49.341C11.9167 47.0973 11.7802 44.8054 11.9469 42.5256L6.17862 44.625C6.48442 40.4773 7.79206 36.4664 9.98885 32.9378C12.1856 29.4092 15.2057 26.4689 18.7887 24.3701C22.3717 22.2714 26.4102 21.0773 30.5562 20.8906C34.7022 20.7039 38.8313 21.5304 42.5877 23.2987H42.6098C45.3961 24.6096 47.9226 26.4152 50.0671 28.6281L55.8107 26.5359C57.395 28.1698 58.7559 30.0072 59.8577 32L47.6408 36.4863C50.1032 40.8941 51.2213 45.9289 50.8567 50.9672L57.3389 48.6074C57.1109 51.6764 56.3268 54.6779 55.0243 57.4649Z" fill="#E6EDEF"/>
</g>
<defs>
<clipPath id="clip0_9314_2577">
<rect width="208" height="72" fill="white"/>
</clipPath>
</defs>
</svg>
