<svg width="108" height="72" viewBox="0 0 108 72" fill="none" xmlns="http://www.w3.org/2000/svg">
<g clip-path="url(#clip0_9314_2578)">
<path d="M111.553 23.3756C111.178 18.7512 109.947 14.2372 107.925 10.0636L119.366 5.90052C118.463 4.02779 117.405 2.23469 116.202 0.540315L110.838 2.49851C106.152 -4.08345 99.4424 -8.94453 91.7365 -11.3401C84.0306 -13.7356 75.7535 -13.5335 68.1731 -10.7648C60.5928 -7.99599 54.1272 -2.81323 49.7668 3.9896C45.4064 10.7924 43.3917 18.8402 44.0313 26.9L49.4094 24.9227C49.5799 26.9874 49.9205 29.0344 50.4276 31.0428L39 35.2222C40.1306 39.7187 42.0847 43.9657 44.7627 47.7472L50.8135 45.5383L50.8215 45.5503C54.4929 50.7305 59.4451 54.8653 65.1922 57.549C74.0688 61.6833 84.2194 62.1207 93.4175 58.7653C102.616 55.4099 110.11 48.5356 114.257 39.6502C116.949 33.8851 118.095 27.5163 117.581 21.1723L111.553 23.3756ZM102.568 34.1586C99.878 39.9314 95.0129 44.3991 89.0399 46.5813C83.0669 48.7634 76.4741 48.4817 70.7081 45.798C68.0966 44.5786 65.7282 42.8933 63.7185 40.8245L57.6114 43.0556C54.3308 39.6672 52.1119 35.3904 51.2286 30.7529L51.2314 30.7504L62.6916 26.567C62.2842 24.4702 62.1567 22.3285 62.3125 20.1981L56.9221 22.16C57.2079 18.284 58.4298 14.5358 60.4827 11.2384C62.5356 7.94105 65.3577 5.19334 68.706 3.23211C72.0543 1.27088 75.8282 0.15497 79.7026 -0.0194606C83.577 -0.193891 87.4355 0.578392 90.9458 2.23083H90.9664C93.5702 3.45585 95.9312 5.14316 97.9351 7.21112L103.302 5.25601C104.783 6.78285 106.055 8.49988 107.084 10.3621L95.6678 14.5545C97.9689 18.6735 99.0138 23.3785 98.6731 28.0867L104.731 25.8815C104.518 28.7493 103.785 31.5543 102.568 34.1586Z" fill="#E6EDEF"/>
</g>
<defs>
<clipPath id="clip0_9314_2578">
<rect width="108" height="72" fill="white"/>
</clipPath>
</defs>
</svg>
