<svg width="88" height="60" viewBox="0 0 88 60" fill="none" xmlns="http://www.w3.org/2000/svg">
<g clip-path="url(#clip0_9314_2525)">
<g clip-path="url(#clip1_9314_2525)">
<path d="M118.005 25.9227V40.0831H115.502V4.86736H124.485C128.609 4.86736 131.701 5.75703 133.763 7.61049C135.825 9.38981 136.856 11.9847 136.856 15.3209C136.856 16.8778 136.561 18.2864 135.972 19.5468C135.383 20.8071 134.573 21.9933 133.542 22.883C132.438 23.8468 131.186 24.514 129.64 25.1072C128.093 25.6261 126.4 25.9227 124.485 25.9227H118.005ZM118.005 23.9209H124.485C126.032 23.9209 127.431 23.6985 128.609 23.2537C129.861 22.8089 130.891 22.2158 131.701 21.4744C132.511 20.733 133.174 19.8433 133.616 18.8054C134.058 17.7674 134.279 16.6554 134.279 15.395C134.279 12.726 133.469 10.6502 131.775 9.16739C130.155 7.68462 127.651 6.94324 124.412 6.94324H117.932V23.9209H118.005ZM145.25 40.1573V15.395H146.502C146.796 15.395 147.017 15.4692 147.091 15.5433C147.238 15.6916 147.312 15.8399 147.312 16.1364L147.533 21.3261C148.343 19.3244 149.374 17.7675 150.699 16.5812C152.025 15.4692 153.645 14.8761 155.559 14.8761C156.295 14.8761 156.958 14.9502 157.621 15.0985C158.21 15.2467 158.873 15.4692 159.388 15.7657L159.093 17.3968C159.02 17.6933 158.873 17.7675 158.578 17.7675C158.504 17.7675 158.357 17.7674 158.136 17.6933C157.989 17.6192 157.694 17.545 157.474 17.4709C157.179 17.3968 156.811 17.3226 156.443 17.2485C156.001 17.1743 155.559 17.1743 155.117 17.1743C153.276 17.1743 151.73 17.7675 150.552 18.8795C149.374 20.0657 148.416 21.6968 147.68 23.9209V40.009L145.25 40.1573ZM176.839 14.9502C178.607 14.9502 180.153 15.2467 181.552 15.8399C182.951 16.433 184.129 17.3226 185.087 18.4347C186.044 19.5468 186.78 20.8813 187.296 22.4382C187.811 23.9951 188.032 25.7744 188.032 27.702C188.032 29.6296 187.811 31.4089 187.296 32.9658C186.78 34.5227 186.044 35.8572 185.087 36.9693C184.129 38.0814 182.951 38.8969 181.552 39.5641C180.153 40.1573 178.607 40.4538 176.839 40.4538C175.072 40.4538 173.526 40.1573 172.127 39.5641C170.728 38.971 169.55 38.0814 168.592 36.9693C167.635 35.8572 166.899 34.5227 166.383 32.9658C165.868 31.4089 165.647 29.6296 165.647 27.702C165.647 25.7744 165.868 23.9951 166.383 22.4382C166.899 20.8813 167.635 19.5468 168.592 18.4347C169.55 17.3226 170.728 16.433 172.127 15.8399C173.452 15.3209 175.072 14.9502 176.839 14.9502ZM176.839 38.6003C178.312 38.6003 179.564 38.3779 180.668 37.859C181.773 37.34 182.657 36.5986 183.393 35.709C184.129 34.7452 184.645 33.6331 185.013 32.2986C185.381 30.9641 185.528 29.4813 185.528 27.7761C185.528 26.071 185.381 24.6623 185.013 23.3278C184.645 21.9933 184.129 20.8071 183.393 19.9175C182.657 18.9537 181.699 18.2123 180.668 17.6933C179.564 17.1743 178.312 16.9519 176.839 16.9519C175.367 16.9519 174.115 17.1743 173.01 17.6933C171.906 18.2123 171.022 18.9537 170.286 19.9175C169.55 20.8813 169.034 21.9933 168.666 23.3278C168.298 24.6623 168.077 26.1451 168.077 27.7761C168.077 29.4072 168.298 30.9641 168.666 32.2986C169.034 33.6331 169.623 34.7452 170.286 35.709C171.022 36.6728 171.98 37.4141 173.01 37.859C174.041 38.3038 175.367 38.6003 176.839 38.6003ZM196.132 40.1573V15.395H197.384C197.825 15.395 198.046 15.6174 198.12 15.9881L198.341 19.5468C198.783 18.8795 199.298 18.2864 199.887 17.6933C200.403 17.1743 200.992 16.6554 201.654 16.2105C202.243 15.8399 202.906 15.4692 203.642 15.2467C204.379 15.0243 205.115 14.8761 205.852 14.8761C207.619 14.8761 209.091 15.395 210.122 16.433C211.227 17.4709 211.89 18.9537 212.331 20.8071C212.626 19.7692 213.068 18.8795 213.583 18.1381C214.099 17.3968 214.688 16.8037 215.424 16.2847C216.087 15.7657 216.897 15.395 217.707 15.1726C218.517 14.9502 219.327 14.8019 220.21 14.8019C221.388 14.8019 222.493 15.0243 223.524 15.395C224.481 15.7657 225.365 16.433 226.027 17.1743C226.69 17.9899 227.206 18.9537 227.574 20.1399C227.942 21.3261 228.089 22.6606 228.089 24.1434V39.9348H225.733V24.2916C225.733 21.8451 225.217 19.9916 224.187 18.7313C223.156 17.4709 221.683 16.8037 219.768 16.8037C218.958 16.8037 218.075 16.9519 217.339 17.2485C216.529 17.545 215.866 18.064 215.277 18.6571C214.688 19.2502 214.172 20.0657 213.878 20.9554C213.51 21.9192 213.362 22.9571 213.362 24.2175V40.009H211.006V24.2916C211.006 21.9192 210.49 20.0657 209.607 18.8054C208.65 17.545 207.251 16.8778 205.41 16.8778C204.084 16.8778 202.832 17.2485 201.728 18.064C200.623 18.8795 199.593 19.9916 198.709 21.4002V40.0831L196.132 40.1573ZM246.645 14.9502C248.044 14.9502 249.296 15.1726 250.474 15.6916C251.652 16.1364 252.683 16.8778 253.567 17.7675C254.45 18.6571 255.113 19.8433 255.629 21.1778C256.144 22.5123 256.365 24.0692 256.365 25.7744C256.365 26.1451 256.291 26.3675 256.218 26.5158C256.144 26.6641 255.923 26.7382 255.702 26.7382H237.956V27.183C237.956 29.0365 238.177 30.6675 238.619 32.0762C239.061 33.4848 239.65 34.671 240.46 35.6348C241.196 36.5986 242.227 37.34 243.332 37.7848C244.436 38.2297 245.688 38.5262 247.087 38.5262C248.339 38.5262 249.37 38.3779 250.327 38.0814C251.21 37.7848 252.02 37.4883 252.61 37.1917C253.199 36.821 253.714 36.5245 254.082 36.3021C254.45 36.0055 254.671 35.8572 254.892 35.8572C255.113 35.8572 255.26 35.9314 255.408 36.0796L256.07 36.8952C255.702 37.4141 255.187 37.859 254.524 38.3038C253.861 38.7486 253.125 39.1193 252.389 39.4159C251.579 39.7124 250.769 39.9348 249.811 40.1573C248.928 40.3055 247.971 40.4538 247.087 40.4538C245.393 40.4538 243.847 40.1573 242.522 39.5641C241.123 38.971 239.944 38.0814 238.987 36.9693C238.03 35.8572 237.22 34.4486 236.704 32.8176C236.189 31.1865 235.894 29.333 235.894 27.183C235.894 25.4037 236.115 23.7727 236.631 22.2899C237.146 20.8071 237.883 19.4726 238.766 18.4347C239.723 17.3226 240.902 16.5071 242.227 15.914C243.332 15.3209 244.952 14.9502 246.645 14.9502ZM246.719 16.7295C245.467 16.7295 244.289 16.9519 243.332 17.3226C242.374 17.6933 241.491 18.2864 240.754 19.0278C240.018 19.7692 239.429 20.6588 238.987 21.6968C238.545 22.7347 238.251 23.9209 238.104 25.1813H254.303C254.303 23.8468 254.156 22.6606 253.788 21.6226C253.42 20.5847 252.904 19.695 252.241 18.9537C251.579 18.2123 250.769 17.6192 249.885 17.2485C248.854 16.9519 247.823 16.7295 246.719 16.7295ZM270.282 40.5279C268.588 40.5279 267.336 40.0831 266.379 39.1193C265.422 38.1555 264.98 36.7469 264.98 34.8193V17.9157H261.446C261.298 17.9157 261.151 17.8416 261.004 17.7675C260.857 17.6933 260.857 17.545 260.857 17.3226V16.433L265.054 16.1364L265.643 7.31393C265.643 7.16566 265.717 7.01738 265.79 6.94324C265.864 6.8691 265.937 6.8691 266.011 6.79496C266.085 6.79496 266.158 6.72083 266.232 6.72083H267.337V16.1364H275.068V17.9157H267.337V34.671C267.337 35.3383 267.41 35.9314 267.631 36.4503C267.778 36.9693 268.073 37.34 268.367 37.6365C268.662 37.9331 269.03 38.1555 269.472 38.3038C269.914 38.4521 270.355 38.5262 270.797 38.5262C271.386 38.5262 271.902 38.4521 272.344 38.2297C272.712 38.0814 273.08 37.859 273.448 37.6365C273.743 37.4141 274.037 37.2659 274.185 37.0434C274.405 36.8952 274.553 36.7469 274.626 36.7469C274.774 36.7469 274.921 36.821 274.994 36.9693L275.657 38.0072C275.068 38.6745 274.258 39.2676 273.301 39.7124C272.344 40.3055 271.313 40.5279 270.282 40.5279ZM283.168 40.1573V3.9777H285.524V19.6209C286.629 18.2123 287.954 17.1002 289.427 16.2847C290.9 15.4692 292.52 15.0243 294.36 15.0243C295.686 15.0243 296.938 15.2467 297.895 15.6916C298.926 16.1364 299.809 16.7295 300.472 17.545C301.135 18.3606 301.65 19.3244 302.018 20.5106C302.387 21.6227 302.534 22.9571 302.534 24.3658V40.1573H300.178V24.2916C300.178 21.9933 299.662 20.1399 298.631 18.8054C297.6 17.4709 295.98 16.8037 293.771 16.8037C292.151 16.8037 290.679 17.2485 289.28 18.064C287.881 18.8795 286.629 20.0657 285.598 21.4744V40.009H283.168V40.1573ZM321.163 14.9502C322.563 14.9502 323.814 15.1726 324.992 15.6916C326.171 16.1364 327.202 16.8778 328.085 17.7675C328.969 18.6571 329.631 19.8433 330.147 21.1778C330.662 22.5123 330.883 24.0692 330.883 25.7744C330.883 26.1451 330.81 26.3675 330.736 26.5158C330.662 26.6641 330.441 26.7382 330.221 26.7382H312.475V27.183C312.475 29.0365 312.695 30.6675 313.137 32.0762C313.579 33.4848 314.168 34.671 314.978 35.6348C315.714 36.5986 316.745 37.34 317.85 37.7848C318.954 38.2297 320.206 38.5262 321.605 38.5262C322.857 38.5262 323.888 38.3779 324.845 38.0814C325.729 37.7848 326.539 37.4883 327.128 37.1917C327.717 36.821 328.232 36.5245 328.601 36.3021C328.969 36.0055 329.19 35.8572 329.411 35.8572C329.631 35.8572 329.779 35.9314 329.926 36.0796L330.589 36.8952C330.221 37.4141 329.705 37.859 329.042 38.3038C328.38 38.7486 327.643 39.1193 326.907 39.4159C326.097 39.7124 325.287 39.9348 324.33 40.1573C323.446 40.3055 322.489 40.4538 321.605 40.4538C319.912 40.4538 318.365 40.1573 317.04 39.5641C315.641 38.971 314.463 38.0814 313.505 36.9693C312.548 35.8572 311.738 34.4486 311.223 32.8176C310.707 31.1865 310.413 29.333 310.413 27.183C310.413 25.4037 310.634 23.7727 311.149 22.2899C311.665 20.8071 312.401 19.4726 313.285 18.4347C314.242 17.3226 315.42 16.5071 316.745 15.914C317.85 15.3209 319.396 14.9502 321.163 14.9502ZM321.163 16.7295C319.912 16.7295 318.734 16.9519 317.776 17.3226C316.819 17.6933 315.935 18.2864 315.199 19.0278C314.463 19.7692 313.874 20.6588 313.432 21.6968C312.99 22.7347 312.695 23.9209 312.548 25.1813H328.748C328.748 23.8468 328.601 22.6606 328.232 21.6226C327.864 20.5847 327.349 19.695 326.686 18.9537C326.023 18.2123 325.213 17.6192 324.33 17.2485C323.299 16.9519 322.268 16.7295 321.163 16.7295ZM339.793 15.395V31.1865C339.793 33.4848 340.308 35.3383 341.413 36.6728C342.444 38.0072 344.064 38.6745 346.273 38.6745C347.893 38.6745 349.366 38.2297 350.765 37.4141C352.164 36.5986 353.415 35.4865 354.52 34.0038V15.395H356.876V40.1573H355.551C355.109 40.1573 354.888 39.9348 354.815 39.49L354.594 35.7831C353.489 37.1917 352.164 38.3779 350.617 39.1935C349.145 40.0831 347.451 40.4538 345.61 40.4538C344.211 40.4538 343.033 40.2314 342.002 39.7866C340.971 39.3417 340.161 38.7486 339.425 37.9331C338.762 37.1176 338.247 36.1538 337.879 34.9676C337.51 33.8555 337.363 32.521 337.363 31.1124V15.395H339.793ZM379.335 18.4347C379.188 18.6571 379.04 18.8054 378.819 18.8054C378.672 18.8054 378.378 18.7312 378.083 18.5088C377.789 18.2864 377.42 18.064 376.979 17.8416C376.537 17.6192 375.948 17.3226 375.285 17.1743C374.622 16.9519 373.739 16.8778 372.781 16.8778C371.898 16.8778 371.088 17.0261 370.351 17.2485C369.615 17.4709 369.026 17.8416 368.511 18.2864C367.995 18.7313 367.627 19.1761 367.332 19.7692C367.038 20.3623 366.891 20.9554 366.891 21.5485C366.891 22.2899 367.112 22.9571 367.48 23.4761C367.848 23.9951 368.363 24.4399 369.026 24.8106C369.689 25.1813 370.425 25.4778 371.235 25.7744C372.045 26.071 372.855 26.2934 373.739 26.5899C374.622 26.8865 375.432 27.183 376.242 27.4796C377.052 27.7761 377.789 28.221 378.451 28.6658C379.114 29.1106 379.629 29.7037 379.998 30.4451C380.366 31.1124 380.587 32.002 380.587 32.9658C380.587 34.0779 380.366 35.0417 379.998 36.0055C379.629 36.8952 379.04 37.7107 378.304 38.4521C377.568 39.1193 376.684 39.6383 375.579 40.0831C374.475 40.4538 373.297 40.6762 371.898 40.6762C370.204 40.6762 368.658 40.3797 367.406 39.8607C366.154 39.3417 365.05 38.6003 364.019 37.7107L364.608 36.8952C364.682 36.7469 364.755 36.6727 364.902 36.5986C364.976 36.5245 365.123 36.5245 365.344 36.5245C365.565 36.5245 365.86 36.6727 366.154 36.8952C366.449 37.1917 366.891 37.4141 367.406 37.7848C367.921 38.0814 368.511 38.3779 369.247 38.6745C369.983 38.971 370.941 39.0452 372.045 39.0452C373.076 39.0452 373.96 38.8969 374.77 38.6003C375.579 38.3038 376.242 37.9331 376.758 37.4141C377.273 36.8952 377.715 36.3021 377.936 35.6348C378.23 34.9676 378.378 34.2262 378.378 33.4848C378.378 32.6693 378.157 32.002 377.789 31.4089C377.42 30.89 376.905 30.371 376.242 30.0003C375.58 29.6296 374.843 29.2589 374.033 29.0365C373.223 28.7399 372.413 28.5175 371.53 28.221C370.646 27.9244 369.836 27.702 369.026 27.3313C368.216 27.0348 367.48 26.6641 366.817 26.1451C366.154 25.7003 365.639 25.1072 365.271 24.3658C364.902 23.6985 364.682 22.8089 364.682 21.7709C364.682 20.8813 364.902 20.0657 365.271 19.2502C365.639 18.4347 366.228 17.6933 366.891 17.1002C367.553 16.5071 368.437 15.9881 369.468 15.6174C370.499 15.2467 371.603 15.0985 372.855 15.0985C374.328 15.0985 375.653 15.3209 376.831 15.7657C378.009 16.2105 379.04 16.8778 379.998 17.7675L379.335 18.4347ZM62.2639 -7.58789C78.8317 -7.58789 92.3805 5.9053 92.3805 22.364C92.3805 38.8228 78.8317 52.316 61.8957 52.316C44.9597 52.316 32 38.8228 32 22.0675C32.0736 5.75703 45.6224 -7.58789 62.2639 -7.58789ZM53.1332 2.86563C53.5013 4.71909 53.1332 6.49841 52.6177 8.20359C52.2495 9.38981 51.6605 10.5019 51.3659 11.7622C50.8505 13.764 50.2614 15.7657 50.0405 17.7675C49.746 20.6589 50.8505 23.2537 52.8386 25.7744L43.8552 23.8468V24.3658C44.7388 26.8865 46.2115 28.9624 47.9051 30.9641C48.0524 31.1865 48.4942 31.2606 48.7887 31.2606H75.739C76.0336 31.2606 76.4017 31.1865 76.549 31.0382C78.4635 29.0365 79.9362 26.7382 80.8934 23.7727L71.3946 25.6261C72.0573 24.3658 72.72 23.3278 73.1618 22.1416C74.5609 18.064 73.9718 14.1347 71.9836 10.4277C70.3637 7.46221 68.891 4.49667 69.701 0.863889C68.0074 2.56907 67.3447 4.71909 66.9028 6.94324C66.461 9.16739 66.2401 11.3915 65.9456 13.6157C65.872 13.5416 65.872 13.4674 65.7983 13.4674C65.7247 13.245 65.7247 13.0226 65.7247 12.726C65.5038 9.09326 64.8411 5.53461 63.2947 2.19838C62.4111 0.196644 61.4539 -1.80509 62.3375 -4.17752C61.7484 -3.88097 61.1593 -3.51028 60.7912 -3.06545C59.613 -1.65682 59.0976 -0.025771 58.9503 1.75355C58.8767 3.31046 58.7294 4.86736 58.4349 6.35013C58.1403 7.98118 57.6249 9.53809 56.594 11.0209C55.9313 7.98118 55.9313 4.86737 53.1332 2.86563ZM76.2545 34.0779H48.126V38.971H76.2545V34.0779ZM53.6486 41.4917C53.6486 45.5694 57.7721 48.609 62.9266 48.3866C67.1974 48.2383 70.9528 44.828 70.5846 41.4917H53.6486Z" fill="#E6EDEF"/>
</g>
</g>
<defs>
<clipPath id="clip0_9314_2525">
<rect width="88" height="60" fill="white"/>
</clipPath>
<clipPath id="clip1_9314_2525">
<rect width="64.1967" height="61.1875" fill="white" transform="translate(32 -8)"/>
</clipPath>
</defs>
</svg>
