<svg width="208" height="72" viewBox="0 0 208 72" fill="none" xmlns="http://www.w3.org/2000/svg">
<g clip-path="url(#clip0_9314_2523)">
<g clip-path="url(#clip1_9314_2523)">
<path d="M102.177 47.2278V64.7676H99.0573V21.1478H110.252C115.391 21.1478 119.245 22.2498 121.814 24.5456C124.383 26.7495 125.668 29.9636 125.668 34.096C125.668 36.0245 125.301 37.7692 124.567 39.3304C123.833 40.8915 122.823 42.3608 121.539 43.4628C120.162 44.6566 118.602 45.4831 116.676 46.2177C114.749 46.8605 112.638 47.2278 110.252 47.2278H102.177ZM102.177 44.7484H110.252C112.179 44.7484 113.923 44.4729 115.391 43.9219C116.951 43.3709 118.235 42.6363 119.245 41.718C120.254 40.7997 121.08 39.6977 121.631 38.4121C122.181 37.1264 122.456 35.749 122.456 34.1878C122.456 30.8819 121.447 28.3107 119.337 26.474C117.318 24.6374 114.198 23.7191 110.16 23.7191H102.085V44.7484H102.177ZM136.129 64.8594V34.1878H137.689C138.056 34.1878 138.331 34.2797 138.423 34.3715C138.606 34.5552 138.698 34.7388 138.698 35.1061L138.973 41.5343C139.983 39.0549 141.268 37.1264 142.919 35.6571C144.571 34.2797 146.59 33.545 148.975 33.545C149.893 33.545 150.719 33.6369 151.545 33.8205C152.279 34.0042 153.105 34.2797 153.747 34.647L153.38 36.6673C153.288 37.0346 153.105 37.1264 152.738 37.1264C152.646 37.1264 152.462 37.1264 152.187 37.0346C152.004 36.9428 151.637 36.8509 151.361 36.7591C150.994 36.6673 150.535 36.5754 150.077 36.4836C149.526 36.3918 148.975 36.3918 148.425 36.3918C146.131 36.3918 144.204 37.1264 142.736 38.5039C141.268 39.9732 140.075 41.9935 139.157 44.7484V64.6757L136.129 64.8594ZM175.494 33.6369C177.697 33.6369 179.624 34.0042 181.367 34.7388C183.111 35.4735 184.579 36.5754 185.772 37.9529C186.965 39.3304 187.882 40.9833 188.525 42.9118C189.167 44.8402 189.442 47.0442 189.442 49.4318C189.442 51.8194 189.167 54.0233 188.525 55.9518C187.882 57.8802 186.965 59.5332 185.772 60.9107C184.579 62.2881 183.111 63.2983 181.367 64.1248C179.624 64.8594 177.697 65.2267 175.494 65.2267C173.292 65.2267 171.365 64.8594 169.622 64.1248C167.878 63.3901 166.41 62.2881 165.217 60.9107C164.024 59.5332 163.107 57.8802 162.464 55.9518C161.822 54.0233 161.547 51.8194 161.547 49.4318C161.547 47.0442 161.822 44.8402 162.464 42.9118C163.107 40.9833 164.024 39.3304 165.217 37.9529C166.41 36.5754 167.878 35.4735 169.622 34.7388C171.273 34.096 173.292 33.6369 175.494 33.6369ZM175.494 62.931C177.33 62.931 178.89 62.6555 180.266 62.0126C181.642 61.3698 182.744 60.4515 183.661 59.3495C184.579 58.1557 185.221 56.7783 185.68 55.1253C186.139 53.4724 186.322 51.6357 186.322 49.5236C186.322 47.4115 186.139 45.6667 185.68 44.0138C185.221 42.3608 184.579 40.8915 183.661 39.7895C182.744 38.5957 181.551 37.6774 180.266 37.0346C178.89 36.3918 177.33 36.1163 175.494 36.1163C173.659 36.1163 172.099 36.3918 170.723 37.0346C169.346 37.6774 168.245 38.5957 167.328 39.7895C166.41 40.9833 165.768 42.3608 165.309 44.0138C164.85 45.6667 164.575 47.5033 164.575 49.5236C164.575 51.5439 164.85 53.4724 165.309 55.1253C165.768 56.7783 166.502 58.1557 167.328 59.3495C168.245 60.5433 169.438 61.4617 170.723 62.0126C172.008 62.5636 173.659 62.931 175.494 62.931ZM199.536 64.8594V34.1878H201.096C201.646 34.1878 201.922 34.4633 202.014 34.9225L202.289 39.3304C202.839 38.5039 203.482 37.7692 204.216 37.0346C204.858 36.3918 205.592 35.749 206.418 35.198C207.152 34.7388 207.978 34.2797 208.896 34.0042C209.813 33.7287 210.731 33.545 211.648 33.545C213.851 33.545 215.686 34.1878 216.971 35.4735C218.347 36.7591 219.173 38.5957 219.723 40.8915C220.09 39.6059 220.641 38.5039 221.283 37.5856C221.926 36.6673 222.66 35.9326 223.577 35.2898C224.403 34.647 225.413 34.1878 226.422 33.9123C227.431 33.6369 228.441 33.4532 229.542 33.4532C231.01 33.4532 232.387 33.7287 233.671 34.1878C234.864 34.647 235.965 35.4735 236.791 36.3918C237.617 37.4019 238.259 38.5957 238.718 40.065C239.177 41.5343 239.36 43.1873 239.36 45.0239V64.5839H236.424V45.2076C236.424 42.1771 235.782 39.8814 234.497 38.3202C233.212 36.7591 231.377 35.9326 228.991 35.9326C227.982 35.9326 226.881 36.1163 225.963 36.4836C224.954 36.8509 224.128 37.4938 223.394 38.2284C222.66 38.9631 222.017 39.9732 221.65 41.0752C221.192 42.269 221.008 43.5546 221.008 45.1157V64.6757H218.072V45.2076C218.072 42.269 217.429 39.9732 216.328 38.4121C215.135 36.8509 213.392 36.0245 211.098 36.0245C209.446 36.0245 207.886 36.4836 206.51 37.4938C205.133 38.5039 203.849 39.8814 202.748 41.6262V64.7676L199.536 64.8594ZM262.484 33.6369C264.228 33.6369 265.788 33.9123 267.256 34.5552C268.724 35.1061 270.009 36.0245 271.11 37.1264C272.211 38.2284 273.037 39.6977 273.679 41.3507C274.321 43.0036 274.597 44.9321 274.597 47.0442C274.597 47.5033 274.505 47.7788 274.413 47.9625C274.321 48.1462 274.046 48.238 273.771 48.238H251.656V48.789C251.656 51.0848 251.932 53.105 252.482 54.8498C253.033 56.5946 253.767 58.0639 254.776 59.2577C255.694 60.4515 256.979 61.3698 258.355 61.9208C259.731 62.4718 261.291 62.8391 263.035 62.8391C264.595 62.8391 265.879 62.6555 267.072 62.2881C268.173 61.9208 269.183 61.5535 269.917 61.1862C270.651 60.727 271.293 60.3597 271.752 60.0842C272.211 59.7169 272.486 59.5332 272.761 59.5332C273.037 59.5332 273.22 59.625 273.404 59.8087L274.23 60.8188C273.771 61.4617 273.129 62.0126 272.303 62.5636C271.477 63.1146 270.559 63.5738 269.642 63.9411C268.632 64.3084 267.623 64.5839 266.43 64.8594C265.329 65.0431 264.136 65.2267 263.035 65.2267C260.924 65.2267 258.997 64.8594 257.346 64.1248C255.602 63.3901 254.134 62.2881 252.941 60.9107C251.748 59.5332 250.739 57.7884 250.096 55.7681C249.454 53.7478 249.087 51.4521 249.087 48.789C249.087 46.585 249.362 44.5647 250.005 42.7281C250.647 40.8915 251.565 39.2385 252.666 37.9529C253.859 36.5754 255.327 35.5653 256.979 34.8307C258.355 34.096 260.374 33.6369 262.484 33.6369ZM262.576 35.8408C261.016 35.8408 259.548 36.1163 258.355 36.5754C257.162 37.0346 256.061 37.7693 255.143 38.6876C254.226 39.6059 253.492 40.7078 252.941 41.9935C252.39 43.2791 252.023 44.7484 251.84 46.3095H272.027C272.027 44.6566 271.844 43.1873 271.385 41.9016C270.926 40.616 270.284 39.514 269.458 38.5957C268.632 37.6774 267.623 36.9428 266.522 36.4836C265.237 36.1163 263.952 35.8408 262.576 35.8408ZM291.94 65.3186C289.829 65.3186 288.269 64.7676 287.076 63.5738C285.883 62.38 285.333 60.6352 285.333 58.2476V37.3101H280.928C280.745 37.3101 280.561 37.2183 280.378 37.1264C280.194 37.0346 280.194 36.8509 280.194 36.5754V35.4735L285.425 35.1061L286.159 24.1783C286.159 23.9946 286.25 23.8109 286.342 23.7191C286.434 23.6273 286.526 23.6273 286.617 23.5354C286.709 23.5354 286.801 23.4436 286.893 23.4436H288.269V35.1061H297.904V37.3101H288.269V58.0639C288.269 58.8904 288.361 59.625 288.636 60.2679C288.82 60.9107 289.187 61.3698 289.554 61.7371C289.921 62.1045 290.38 62.38 290.93 62.5636C291.481 62.7473 292.031 62.8391 292.582 62.8391C293.316 62.8391 293.958 62.7473 294.509 62.4718C294.968 62.2881 295.427 62.0126 295.885 61.7371C296.252 61.4617 296.619 61.278 296.803 61.0025C297.078 60.8188 297.262 60.6352 297.354 60.6352C297.537 60.6352 297.721 60.727 297.812 60.9107L298.638 62.1963C297.904 63.0228 296.895 63.7574 295.702 64.3084C294.509 65.0431 293.224 65.3186 291.94 65.3186ZM307.998 64.8594V20.0459H310.934V39.4222C312.311 37.6774 313.962 36.3 315.798 35.2898C317.633 34.2797 319.652 33.7287 321.946 33.7287C323.597 33.7287 325.157 34.0042 326.35 34.5552C327.635 35.1061 328.736 35.8408 329.562 36.8509C330.388 37.8611 331.03 39.0549 331.489 40.5242C331.948 41.9016 332.131 43.5546 332.131 45.2994V64.8594H329.195V45.2076C329.195 42.3608 328.552 40.065 327.268 38.4121C325.983 36.7591 323.964 35.9326 321.211 35.9326C319.193 35.9326 317.357 36.4836 315.614 37.4938C313.871 38.5039 312.311 39.9732 311.026 41.718V64.6757H307.998V64.8594ZM355.347 33.6369C357.09 33.6369 358.65 33.9123 360.118 34.5552C361.586 35.1061 362.871 36.0245 363.972 37.1264C365.073 38.2284 365.899 39.6977 366.542 41.3507C367.184 43.0036 367.459 44.9321 367.459 47.0442C367.459 47.5033 367.367 47.7788 367.276 47.9625C367.184 48.1462 366.909 48.238 366.633 48.238H344.519V48.789C344.519 51.0848 344.794 53.105 345.345 54.8498C345.895 56.5946 346.629 58.0639 347.639 59.2577C348.556 60.4515 349.841 61.3698 351.217 61.9208C352.594 62.4718 354.154 62.8391 355.897 62.8391C357.457 62.8391 358.742 62.6555 359.935 62.2881C361.036 61.9208 362.045 61.5535 362.779 61.1862C363.513 60.727 364.156 60.3597 364.615 60.0842C365.073 59.7169 365.349 59.5332 365.624 59.5332C365.899 59.5332 366.083 59.625 366.266 59.8087L367.092 60.8188C366.633 61.4617 365.991 62.0126 365.165 62.5636C364.339 63.1146 363.422 63.5738 362.504 63.9411C361.495 64.3084 360.485 64.5839 359.292 64.8594C358.191 65.0431 356.998 65.2267 355.897 65.2267C353.787 65.2267 351.86 64.8594 350.208 64.1248C348.465 63.3901 346.996 62.2881 345.803 60.9107C344.611 59.5332 343.601 57.7884 342.959 55.7681C342.317 53.7478 341.95 51.4521 341.95 48.789C341.95 46.585 342.225 44.5647 342.867 42.7281C343.509 40.8915 344.427 39.2385 345.528 37.9529C346.721 36.5754 348.189 35.5653 349.841 34.8307C351.217 34.096 353.144 33.6369 355.347 33.6369ZM355.347 35.8408C353.787 35.8408 352.319 36.1163 351.126 36.5754C349.933 37.0346 348.832 37.7693 347.914 38.6876C346.996 39.6059 346.262 40.7078 345.712 41.9935C345.161 43.2791 344.794 44.7484 344.611 46.3095H364.798C364.798 44.6566 364.615 43.1873 364.156 41.9016C363.697 40.616 363.055 39.514 362.229 38.5957C361.403 37.6774 360.394 36.9428 359.292 36.4836C358.008 36.1163 356.723 35.8408 355.347 35.8408ZM378.562 34.1878V53.7478C378.562 56.5946 379.205 58.8904 380.581 60.5433C381.866 62.1963 383.884 63.0228 386.637 63.0228C388.656 63.0228 390.491 62.4718 392.235 61.4617C393.978 60.4515 395.538 59.074 396.915 57.2374V34.1878H399.851V64.8594H398.199C397.649 64.8594 397.373 64.5839 397.282 64.0329L397.006 59.4414C395.63 61.1862 393.978 62.6555 392.051 63.6656C390.216 64.7676 388.105 65.2267 385.811 65.2267C384.068 65.2267 382.6 64.9512 381.315 64.4003C380.03 63.8493 379.021 63.1146 378.103 62.1045C377.278 61.0943 376.635 59.9005 376.176 58.4312C375.718 57.0538 375.534 55.4008 375.534 53.656V34.1878H378.562ZM427.838 37.9529C427.655 38.2284 427.471 38.4121 427.196 38.4121C427.012 38.4121 426.645 38.3202 426.278 38.0447C425.911 37.7692 425.452 37.4938 424.902 37.2183C424.351 36.9428 423.617 36.5754 422.791 36.3918C421.965 36.1163 420.864 36.0245 419.671 36.0245C418.57 36.0245 417.561 36.2081 416.643 36.4836C415.726 36.7591 414.992 37.2183 414.349 37.7692C413.707 38.3202 413.248 38.8712 412.881 39.6059C412.514 40.3405 412.33 41.0752 412.33 41.8098C412.33 42.7281 412.606 43.5546 413.065 44.1974C413.523 44.8402 414.166 45.3912 414.992 45.8504C415.817 46.3095 416.735 46.6769 417.744 47.0442C418.754 47.4115 419.763 47.687 420.864 48.0543C421.965 48.4216 422.975 48.789 423.984 49.1563C424.994 49.5236 425.911 50.0746 426.737 50.6256C427.563 51.1766 428.205 51.9112 428.664 52.8295C429.123 53.656 429.398 54.758 429.398 55.9518C429.398 57.3293 429.123 58.5231 428.664 59.7169C428.205 60.8188 427.471 61.829 426.553 62.7473C425.636 63.5738 424.535 64.2166 423.158 64.7676C421.782 65.2267 420.314 65.5022 418.57 65.5022C416.46 65.5022 414.533 65.1349 412.973 64.4921C411.413 63.8493 410.036 62.931 408.752 61.829L409.486 60.8188C409.578 60.6352 409.669 60.5433 409.853 60.4515C409.945 60.3597 410.128 60.3597 410.403 60.3597C410.679 60.3597 411.046 60.5433 411.413 60.8188C411.78 61.1862 412.33 61.4617 412.973 61.9208C413.615 62.2881 414.349 62.6555 415.267 63.0228C416.184 63.3901 417.377 63.4819 418.754 63.4819C420.038 63.4819 421.14 63.2983 422.149 62.931C423.158 62.5636 423.984 62.1045 424.626 61.4617C425.269 60.8188 425.819 60.0842 426.095 59.2577C426.462 58.4312 426.645 57.5129 426.645 56.5946C426.645 55.5845 426.37 54.758 425.911 54.0233C425.452 53.3805 424.81 52.7377 423.984 52.2786C423.158 51.8194 422.241 51.3602 421.231 51.0847C420.222 50.7174 419.213 50.4419 418.111 50.0746C417.01 49.7073 416.001 49.4318 414.992 48.9726C413.982 48.6053 413.065 48.1462 412.239 47.5033C411.413 46.9524 410.771 46.2177 410.312 45.2994C409.853 44.4729 409.578 43.3709 409.578 42.0853C409.578 40.9833 409.853 39.9732 410.312 38.9631C410.771 37.9529 411.505 37.0346 412.33 36.3C413.156 35.5653 414.257 34.9225 415.542 34.4633C416.827 34.0042 418.203 33.8205 419.763 33.8205C421.598 33.8205 423.25 34.096 424.718 34.647C426.186 35.198 427.471 36.0245 428.664 37.1264L427.838 37.9529ZM32.7139 5.72021C53.3602 5.72021 70.2443 22.4335 70.2443 42.82C70.2443 63.2065 53.3602 79.9197 32.2551 79.9197C11.15 79.9197 -5 63.2064 -5 42.4526C-4.90824 22.2498 11.9758 5.72021 32.7139 5.72021ZM21.3355 18.6684C21.7943 20.9642 21.3355 23.1681 20.6932 25.2802C20.2344 26.7495 19.5003 28.127 19.1332 29.6881C18.4909 32.1676 17.7568 34.647 17.4815 37.1264C17.1145 40.7078 18.4909 43.9219 20.9685 47.0442L9.77357 44.6566V45.2994C10.8747 48.4216 12.7099 50.9929 14.8204 53.4724C15.004 53.7478 15.5545 53.8397 15.9216 53.8397H49.5062C49.8733 53.8397 50.3321 53.7478 50.5156 53.5642C52.9014 51.0847 54.7366 48.238 55.9295 44.5647L44.0923 46.8605C44.9182 45.2994 45.744 44.0138 46.2946 42.5445C48.038 37.4938 47.3039 32.6267 44.8264 28.0352C42.8076 24.3619 40.9724 20.6887 41.9818 16.189C39.8713 18.3011 39.0454 20.9642 38.4949 23.7191C37.9443 26.474 37.669 29.229 37.302 31.9839C37.2102 31.8921 37.2102 31.8002 37.1184 31.8002C37.0267 31.5247 37.0267 31.2492 37.0267 30.8819C36.7514 26.3822 35.9255 21.9743 33.9986 17.8419C32.8974 15.3625 31.7045 12.883 32.8057 9.94444C32.0716 10.3118 31.3375 10.7709 30.8787 11.3219C29.4105 13.0667 28.7682 15.087 28.5846 17.2909C28.4929 19.2194 28.3094 21.1478 27.9423 22.9844C27.5753 25.0047 26.9329 26.9332 25.6483 28.7698C24.8224 25.0047 24.8224 21.1478 21.3355 18.6684ZM50.1485 57.3293H15.0957V63.3901H50.1485V57.3293ZM21.9778 66.5124C21.9778 71.5631 27.1165 75.3281 33.5397 75.0527C38.8619 74.869 43.5417 70.6448 43.0829 66.5124H21.9778Z" fill="#E6EDEF"/>
</g>
</g>
<defs>
<clipPath id="clip0_9314_2523">
<rect width="208" height="72" fill="white"/>
</clipPath>
<clipPath id="clip1_9314_2523">
<rect width="80" height="75.7895" fill="white" transform="translate(-5 5.21045)"/>
</clipPath>
</defs>
</svg>
