<svg width="108" height="72" viewBox="0 0 108 72" fill="none" xmlns="http://www.w3.org/2000/svg">
<g clip-path="url(#clip0_9314_2524)">
<g clip-path="url(#clip1_9314_2524)">
<path d="M141.818 34.0281V50.7371H138.854V9.18327H149.49C154.371 9.18327 158.033 10.2331 160.473 12.4201C162.914 14.5197 164.135 17.5815 164.135 21.5182C164.135 23.3553 163.786 25.0175 163.089 26.5047C162.391 27.9919 161.432 29.3916 160.212 30.4414C158.904 31.5786 157.422 32.366 155.592 33.0658C153.761 33.6782 151.756 34.0281 149.49 34.0281H141.818ZM141.818 31.6661H149.49C151.32 31.6661 152.977 31.4037 154.371 30.8788C155.853 30.3539 157.074 29.654 158.033 28.7792C158.991 27.9044 159.776 26.8546 160.299 25.6299C160.822 24.4051 161.084 23.0929 161.084 21.6057C161.084 18.4563 160.125 16.0069 158.12 14.2572C156.202 12.5076 153.238 11.6328 149.402 11.6328H141.731V31.6661H141.818ZM174.072 50.8246V21.6057H175.554C175.903 21.6057 176.165 21.6932 176.252 21.7807C176.426 21.9556 176.513 22.1306 176.513 22.4805L176.775 28.6042C177.734 26.2422 178.954 24.4051 180.523 23.0054C182.092 21.6932 184.01 20.9933 186.277 20.9933C187.148 20.9933 187.933 21.0808 188.718 21.2558C189.415 21.4307 190.199 21.6932 190.81 22.0431L190.461 23.9677C190.374 24.3176 190.199 24.4051 189.851 24.4051C189.764 24.4051 189.589 24.4051 189.328 24.3176C189.153 24.2301 188.805 24.1427 188.543 24.0552C188.195 23.9677 187.759 23.8802 187.323 23.7927C186.8 23.7053 186.277 23.7053 185.754 23.7053C183.574 23.7053 181.744 24.4051 180.349 25.7173C178.954 27.117 177.821 29.0416 176.949 31.6661V50.6497L174.072 50.8246ZM211.47 21.0808C213.562 21.0808 215.393 21.4307 217.049 22.1306C218.705 22.8304 220.1 23.8802 221.233 25.1924C222.366 26.5047 223.238 28.0793 223.848 29.9165C224.459 31.7536 224.72 33.8531 224.72 36.1277C224.72 38.4022 224.459 40.5018 223.848 42.3389C223.238 44.176 222.366 45.7507 221.233 47.0629C220.1 48.3751 218.705 49.3374 217.049 50.1248C215.393 50.8246 213.562 51.1745 211.47 51.1745C209.378 51.1745 207.547 50.8246 205.891 50.1248C204.234 49.4249 202.84 48.3751 201.706 47.0629C200.573 45.7507 199.701 44.176 199.091 42.3389C198.481 40.5018 198.219 38.4022 198.219 36.1277C198.219 33.8531 198.481 31.7536 199.091 29.9165C199.701 28.0793 200.573 26.5047 201.706 25.1924C202.84 23.8802 204.234 22.8304 205.891 22.1306C207.46 21.5182 209.378 21.0808 211.47 21.0808ZM211.47 48.9875C213.213 48.9875 214.695 48.7251 216.003 48.1127C217.31 47.5003 218.356 46.6255 219.228 45.5757C220.1 44.4384 220.71 43.1262 221.146 41.5515C221.582 39.9769 221.756 38.2272 221.756 36.2152C221.756 34.2031 221.582 32.5409 221.146 30.9662C220.71 29.3916 220.1 27.9919 219.228 26.9421C218.356 25.8048 217.223 24.93 216.003 24.3176C214.695 23.7053 213.213 23.4428 211.47 23.4428C209.726 23.4428 208.244 23.7053 206.937 24.3176C205.629 24.93 204.583 25.8048 203.711 26.9421C202.84 28.0793 202.229 29.3916 201.794 30.9662C201.358 32.5409 201.096 34.2906 201.096 36.2152C201.096 38.1398 201.358 39.9769 201.794 41.5515C202.229 43.1262 202.927 44.4384 203.711 45.5757C204.583 46.713 205.716 47.5878 206.937 48.1127C208.157 48.6376 209.726 48.9875 211.47 48.9875ZM234.309 50.8246V21.6057H235.791C236.314 21.6057 236.576 21.8681 236.663 22.3055L236.924 26.5047C237.447 25.7173 238.058 25.0175 238.755 24.3176C239.365 23.7053 240.063 23.0929 240.847 22.568C241.545 22.1306 242.329 21.6932 243.201 21.4307C244.073 21.1683 244.944 20.9933 245.816 20.9933C247.908 20.9933 249.652 21.6057 250.872 22.8304C252.18 24.0552 252.964 25.8048 253.487 27.9919C253.836 26.7671 254.359 25.7173 254.969 24.8425C255.579 23.9677 256.277 23.2678 257.149 22.6555C257.933 22.0431 258.892 21.6057 259.851 21.3432C260.81 21.0808 261.769 20.9058 262.815 20.9058C264.21 20.9058 265.517 21.1683 266.738 21.6057C267.871 22.0431 268.917 22.8304 269.701 23.7053C270.486 24.6676 271.096 25.8048 271.532 27.2045C271.968 28.6042 272.142 30.1789 272.142 31.9285V50.5622H269.353V32.1035C269.353 29.2166 268.743 27.0296 267.522 25.5424C266.302 24.0552 264.558 23.2678 262.292 23.2678C261.333 23.2678 260.287 23.4428 259.415 23.7927C258.456 24.1427 257.672 24.755 256.974 25.4549C256.277 26.1547 255.667 27.117 255.318 28.1668C254.882 29.3041 254.708 30.5288 254.708 32.016V50.6497H251.918V32.1035C251.918 29.3041 251.308 27.117 250.262 25.6299C249.129 24.1427 247.472 23.3553 245.293 23.3553C243.724 23.3553 242.242 23.7927 240.934 24.755C239.627 25.7173 238.406 27.0296 237.36 28.6917V50.7371L234.309 50.8246ZM294.11 21.0808C295.766 21.0808 297.248 21.3432 298.643 21.9556C300.038 22.4805 301.258 23.3553 302.304 24.4051C303.35 25.4549 304.135 26.8546 304.745 28.4293C305.355 30.0039 305.617 31.8411 305.617 33.8531C305.617 34.2906 305.53 34.553 305.443 34.728C305.355 34.9029 305.094 34.9904 304.832 34.9904H283.824V35.5153C283.824 37.7023 284.085 39.6269 284.608 41.2891C285.131 42.9513 285.829 44.351 286.787 45.4882C287.659 46.6255 288.88 47.5003 290.187 48.0252C291.495 48.5501 292.977 48.9 294.633 48.9C296.115 48.9 297.335 48.7251 298.469 48.3751C299.515 48.0252 300.474 47.6753 301.171 47.3253C301.868 46.8879 302.479 46.538 302.914 46.2756C303.35 45.9256 303.612 45.7507 303.873 45.7507C304.135 45.7507 304.309 45.8382 304.484 46.0131L305.268 46.9754C304.832 47.5878 304.222 48.1127 303.438 48.6376C302.653 49.1625 301.781 49.5999 300.91 49.9498C299.951 50.2997 298.992 50.5622 297.858 50.8246C296.812 50.9996 295.679 51.1745 294.633 51.1745C292.628 51.1745 290.797 50.8246 289.228 50.1248C287.572 49.4249 286.177 48.3751 285.044 47.0629C283.911 45.7507 282.952 44.0885 282.342 42.1639C281.731 40.2393 281.383 38.0523 281.383 35.5153C281.383 33.4157 281.644 31.4911 282.254 29.7415C282.865 27.9919 283.736 26.4172 284.782 25.1924C285.916 23.8802 287.31 22.9179 288.88 22.2181C290.187 21.5182 292.105 21.0808 294.11 21.0808ZM294.197 23.1804C292.715 23.1804 291.32 23.4428 290.187 23.8802C289.054 24.3176 288.008 25.0175 287.136 25.8923C286.264 26.7671 285.567 27.8169 285.044 29.0416C284.521 30.2664 284.172 31.6661 283.998 33.1533H303.176C303.176 31.5786 303.002 30.1789 302.566 28.9542C302.13 27.7294 301.52 26.6796 300.735 25.8048C299.951 24.93 298.992 24.2301 297.946 23.7927C296.725 23.4428 295.505 23.1804 294.197 23.1804ZM322.093 51.262C320.088 51.262 318.606 50.7371 317.472 49.5999C316.339 48.4626 315.816 46.8005 315.816 44.5259V24.5801H311.632C311.457 24.5801 311.283 24.4926 311.109 24.4051C310.934 24.3176 310.934 24.1427 310.934 23.8802V22.8304L315.903 22.4805L316.601 12.0702C316.601 11.8952 316.688 11.7202 316.775 11.6328C316.862 11.5453 316.949 11.5453 317.037 11.4578C317.124 11.4578 317.211 11.3703 317.298 11.3703H318.606V22.4805H327.759V24.5801H318.606V44.351C318.606 45.1383 318.693 45.8382 318.954 46.4505C319.129 47.0629 319.477 47.5003 319.826 47.8502C320.175 48.2002 320.611 48.4626 321.134 48.6376C321.657 48.8125 322.18 48.9 322.703 48.9C323.4 48.9 324.01 48.8125 324.533 48.5501C324.969 48.3751 325.405 48.1127 325.841 47.8502C326.19 47.5878 326.538 47.4128 326.713 47.1504C326.974 46.9754 327.149 46.8005 327.236 46.8005C327.41 46.8005 327.585 46.8879 327.672 47.0629L328.456 48.2876C327.759 49.075 326.8 49.7748 325.667 50.2997C324.533 50.9996 323.313 51.262 322.093 51.262ZM337.348 50.8246V8.13349H340.137V26.5922C341.445 24.93 343.014 23.6178 344.758 22.6555C346.501 21.6932 348.419 21.1683 350.598 21.1683C352.167 21.1683 353.649 21.4307 354.783 21.9556C356.003 22.4805 357.049 23.1804 357.834 24.1427C358.618 25.105 359.228 26.2422 359.664 27.6419C360.1 28.9542 360.274 30.5288 360.274 32.191V50.8246H357.485V32.1035C357.485 29.3916 356.875 27.2045 355.654 25.6299C354.434 24.0552 352.516 23.2678 349.901 23.2678C347.983 23.2678 346.24 23.7927 344.583 24.755C342.927 25.7173 341.445 27.117 340.225 28.7792V50.6497H337.348V50.8246ZM382.329 21.0808C383.986 21.0808 385.468 21.3432 386.862 21.9556C388.257 22.4805 389.478 23.3553 390.524 24.4051C391.57 25.4549 392.354 26.8546 392.964 28.4293C393.575 30.0039 393.836 31.8411 393.836 33.8531C393.836 34.2906 393.749 34.553 393.662 34.728C393.575 34.9029 393.313 34.9904 393.052 34.9904H372.043V35.5153C372.043 37.7023 372.304 39.6269 372.827 41.2891C373.35 42.9513 374.048 44.351 375.007 45.4882C375.878 46.6255 377.099 47.5003 378.407 48.0252C379.714 48.5501 381.196 48.9 382.852 48.9C384.334 48.9 385.555 48.7251 386.688 48.3751C387.734 48.0252 388.693 47.6753 389.39 47.3253C390.088 46.8879 390.698 46.538 391.134 46.2756C391.57 45.9256 391.831 45.7507 392.093 45.7507C392.354 45.7507 392.529 45.8382 392.703 46.0131L393.487 46.9754C393.052 47.5878 392.441 48.1127 391.657 48.6376C390.872 49.1625 390.001 49.5999 389.129 49.9498C388.17 50.2997 387.211 50.5622 386.078 50.8246C385.032 50.9996 383.898 51.1745 382.852 51.1745C380.847 51.1745 379.017 50.8246 377.448 50.1248C375.791 49.4249 374.397 48.3751 373.263 47.0629C372.13 45.7507 371.171 44.0885 370.561 42.1639C369.951 40.2393 369.602 38.0523 369.602 35.5153C369.602 33.4157 369.864 31.4911 370.474 29.7415C371.084 27.9919 371.956 26.4172 373.002 25.1924C374.135 23.8802 375.53 22.9179 377.099 22.2181C378.407 21.5182 380.237 21.0808 382.329 21.0808ZM382.329 23.1804C380.847 23.1804 379.453 23.4428 378.319 23.8802C377.186 24.3176 376.14 25.0175 375.268 25.8923C374.397 26.7671 373.699 27.8169 373.176 29.0416C372.653 30.2664 372.304 31.6661 372.13 33.1533H391.308C391.308 31.5786 391.134 30.1789 390.698 28.9542C390.262 27.7294 389.652 26.6796 388.867 25.8048C388.083 24.93 387.124 24.2301 386.078 23.7927C384.857 23.4428 383.637 23.1804 382.329 23.1804ZM404.384 21.6057V40.2393C404.384 42.9513 404.994 45.1383 406.302 46.713C407.522 48.2876 409.44 49.075 412.055 49.075C413.973 49.075 415.717 48.5501 417.373 47.5878C419.029 46.6255 420.511 45.3133 421.819 43.5636V21.6057H424.608V50.8246H423.039C422.516 50.8246 422.255 50.5622 422.168 50.0373L421.906 45.6632C420.598 47.3253 419.029 48.7251 417.199 49.6874C415.455 50.7371 413.45 51.1745 411.271 51.1745C409.615 51.1745 408.22 50.9121 406.999 50.3872C405.779 49.8623 404.82 49.1625 403.948 48.2002C403.164 47.2379 402.554 46.1006 402.118 44.7009C401.682 43.3887 401.507 41.814 401.507 40.1518V21.6057H404.384ZM451.196 25.1924C451.022 25.4549 450.848 25.6299 450.586 25.6299C450.412 25.6299 450.063 25.5424 449.714 25.2799C449.366 25.0175 448.93 24.755 448.407 24.4926C447.884 24.2301 447.186 23.8802 446.402 23.7053C445.617 23.4428 444.571 23.3553 443.438 23.3553C442.392 23.3553 441.433 23.5303 440.561 23.7927C439.689 24.0552 438.992 24.4926 438.382 25.0175C437.772 25.5424 437.336 26.0673 436.987 26.7671C436.638 27.467 436.464 28.1668 436.464 28.8667C436.464 29.7415 436.725 30.5288 437.161 31.1412C437.597 31.7536 438.207 32.2785 438.992 32.7159C439.776 33.1533 440.648 33.5032 441.607 33.8531C442.566 34.2031 443.525 34.4655 444.571 34.8154C445.617 35.1654 446.576 35.5153 447.535 35.8652C448.494 36.2152 449.366 36.74 450.15 37.2649C450.935 37.7898 451.545 38.4897 451.981 39.3645C452.417 40.1518 452.678 41.2016 452.678 42.3389C452.678 43.6511 452.417 44.7884 451.981 45.9256C451.545 46.9754 450.847 47.9377 449.976 48.8125C449.104 49.5999 448.058 50.2122 446.75 50.7371C445.443 51.1745 444.048 51.437 442.392 51.437C440.387 51.437 438.556 51.0871 437.074 50.4747C435.592 49.8623 434.285 48.9875 433.064 47.9377L433.762 46.9754C433.849 46.8005 433.936 46.713 434.11 46.6255C434.197 46.538 434.372 46.538 434.633 46.538C434.895 46.538 435.243 46.713 435.592 46.9754C435.941 47.3253 436.464 47.5878 437.074 48.0252C437.684 48.3751 438.382 48.7251 439.253 49.075C440.125 49.4249 441.258 49.5124 442.566 49.5124C443.786 49.5124 444.833 49.3374 445.791 48.9875C446.75 48.6376 447.535 48.2002 448.145 47.5878C448.755 46.9754 449.278 46.2756 449.54 45.4882C449.889 44.7009 450.063 43.8261 450.063 42.9513C450.063 41.989 449.801 41.2016 449.366 40.5018C448.93 39.8894 448.319 39.277 447.535 38.8396C446.75 38.4022 445.879 37.9648 444.92 37.7023C443.961 37.3524 443.002 37.09 441.956 36.74C440.91 36.3901 439.951 36.1277 438.992 35.6903C438.033 35.3403 437.161 34.9029 436.377 34.2906C435.592 33.7657 434.982 33.0658 434.546 32.191C434.11 31.4037 433.849 30.3539 433.849 29.1291C433.849 28.0793 434.11 27.117 434.546 26.1547C434.982 25.1924 435.679 24.3176 436.464 23.6178C437.248 22.9179 438.295 22.3055 439.515 21.8681C440.735 21.4307 442.043 21.2558 443.525 21.2558C445.268 21.2558 446.838 21.5182 448.232 22.0431C449.627 22.568 450.847 23.3553 451.981 24.4051L451.196 25.1924ZM75.8282 -5.51367C95.4422 -5.51367 111.482 10.408 111.482 29.829C111.482 49.2499 95.4422 65.1716 75.3923 65.1716C55.3425 65.1716 40 49.2499 40 29.4791C40.0872 10.2331 56.127 -5.51367 75.8282 -5.51367ZM65.0187 6.82126C65.4546 9.00831 65.0187 11.1079 64.4085 13.12C63.9726 14.5197 63.2753 15.8319 62.9266 17.3191C62.3163 19.6811 61.619 22.0431 61.3574 24.4051C61.0088 27.8169 62.3163 30.8788 64.67 33.8531L54.0349 31.5786V32.191C55.081 35.1654 56.8244 37.6149 58.8294 39.9769C59.0038 40.2393 59.5268 40.3268 59.8755 40.3268H91.7809C92.1296 40.3268 92.5655 40.2393 92.7398 40.0644C95.0063 37.7023 96.7498 34.9904 97.883 31.4911L86.6377 33.6782C87.4222 32.191 88.2068 30.9662 88.7298 29.5665C90.3861 24.755 89.6887 20.1185 87.3351 15.7444C85.4173 12.2451 83.6738 8.74586 84.6327 4.45925C82.6277 6.47134 81.8432 9.00831 81.3201 11.6328C80.7971 14.2572 80.5356 16.8817 80.1869 19.5061C80.0997 19.4186 80.0997 19.3312 80.0125 19.3312C79.9253 19.0687 79.9253 18.8063 79.9253 18.4563C79.6638 14.1697 78.8793 9.97061 77.0486 6.03393C76.0025 3.67192 74.8693 1.30991 75.9154 -1.48951C75.218 -1.13958 74.5206 -0.702172 74.0847 -0.177281C72.69 1.48487 72.0798 3.40947 71.9054 5.50904C71.8182 7.34616 71.6439 9.18327 71.2952 10.9329C70.9465 12.8575 70.3363 14.6946 69.1159 16.4443C68.3313 12.8575 68.3313 9.18327 65.0187 6.82126ZM92.3911 43.6511H59.0909V49.4249H92.3911V43.6511ZM65.6289 52.3993C65.6289 57.2108 70.5106 60.7975 76.6128 60.5351C81.6688 60.3601 86.1146 56.336 85.6788 52.3993H65.6289Z" fill="#E6EDEF"/>
</g>
</g>
<defs>
<clipPath id="clip0_9314_2524">
<rect width="108" height="72" fill="white"/>
</clipPath>
<clipPath id="clip1_9314_2524">
<rect width="76" height="72.2" fill="white" transform="translate(40 -6)"/>
</clipPath>
</defs>
</svg>
