<svg width="108" height="72" viewBox="0 0 108 72" fill="none" xmlns="http://www.w3.org/2000/svg">
<g clip-path="url(#clip0_9314_2497)">
<path d="M80.6084 37.6997L91.6813 31.2854V18.4916L80.6084 24.8885V37.6997Z" fill="#E6EDEF"/>
<path d="M81.6688 38.3081L91.6813 44.0966V32.5196L81.6688 38.3081Z" fill="#E6EDEF"/>
<path d="M91.0903 16.2318V4.65475L81.0603 10.4433L91.0903 16.2318Z" fill="#E6EDEF"/>
<path d="M80 11.0517L68.9097 17.4486L80 23.8455L91.0903 17.4486L80 11.0517Z" fill="#E6EDEF"/>
<path d="M78.9396 10.4433L68.9097 4.65475V16.2318L78.9396 10.4433Z" fill="#E6EDEF"/>
<path d="M92.7417 19.1V30.677L102.772 24.8885L92.7417 19.1Z" fill="#E6EDEF"/>
<path d="M79.3916 37.6997V24.8885L68.3187 18.4916V31.2854L79.3916 37.6997Z" fill="#E6EDEF"/>
<path d="M67.2409 19.1L57.2284 24.8885L67.2409 30.677V19.1Z" fill="#E6EDEF"/>
<path d="M68.3187 32.5196V44.0966L78.3313 38.3081L68.3187 32.5196Z" fill="#E6EDEF"/>
<path d="M104.058 -8H55.9421C49.3539 -7.98262 44.0174 -2.64607 44 3.94206V52.0579C44.0174 58.6461 49.3539 63.9826 55.9421 64H88.8827L80 42.3931L73.5509 56.0386H55.9421C53.7518 56.0039 51.9961 54.2482 51.9614 52.0579V3.94206C51.9961 1.75181 53.7518 -0.00386225 55.9421 -0.0386281H104.058C106.248 -0.00386225 108.004 1.75181 108.039 3.94206V52.0579C108.004 54.2482 106.248 56.0039 104.058 56.0386H93.6108L96.8962 64H104.058C110.646 63.9826 115.983 58.6461 116 52.0579V3.94206C115.983 -2.64607 110.646 -7.98262 104.058 -8Z" fill="#E6EDEF"/>
</g>
<defs>
<clipPath id="clip0_9314_2497">
<rect width="108" height="72" fill="white"/>
</clipPath>
</defs>
</svg>
