<svg width="88" height="60" viewBox="0 0 88 60" fill="none" xmlns="http://www.w3.org/2000/svg">
<g clip-path="url(#clip0_9314_2498)">
<path d="M65.507 31.0831L74.7344 25.7378V15.0763L65.507 20.4071V31.0831Z" fill="#E6EDEF"/>
<path d="M66.3906 31.59L74.7344 36.4138V26.7663L66.3906 31.59Z" fill="#E6EDEF"/>
<path d="M74.2419 13.1931V3.54563L65.8836 8.36938L74.2419 13.1931Z" fill="#E6EDEF"/>
<path d="M65 8.87638L55.7581 14.2071L65 19.5379L74.2419 14.2071L65 8.87638Z" fill="#E6EDEF"/>
<path d="M64.1164 8.36938L55.7581 3.54563V13.1931L64.1164 8.36938Z" fill="#E6EDEF"/>
<path d="M75.6181 15.5833V25.2308L83.9763 20.4071L75.6181 15.5833Z" fill="#E6EDEF"/>
<path d="M64.493 31.0831V20.4071L55.2656 15.0763V25.7378L64.493 31.0831Z" fill="#E6EDEF"/>
<path d="M54.3674 15.5833L46.0237 20.4071L54.3674 25.2308V15.5833Z" fill="#E6EDEF"/>
<path d="M55.2656 26.7663V36.4138L63.6094 31.59L55.2656 26.7663Z" fill="#E6EDEF"/>
<path d="M85.0483 -7H44.9517C39.4616 -6.98551 35.0145 -2.53839 35 2.95171V43.0483C35.0145 48.5384 39.4616 52.9855 44.9517 53H72.4022L65 34.9942L59.6258 46.3655H44.9517C43.1265 46.3366 41.6635 44.8735 41.6345 43.0483V2.95171C41.6635 1.12651 43.1265 -0.336552 44.9517 -0.365524H85.0483C86.8735 -0.336552 88.3366 1.12651 88.3655 2.95171V43.0483C88.3366 44.8735 86.8735 46.3366 85.0483 46.3655H76.3423L79.0802 53H85.0483C90.5384 52.9855 94.9855 48.5384 95 43.0483V2.95171C94.9855 -2.53839 90.5384 -6.98551 85.0483 -7Z" fill="#E6EDEF"/>
</g>
<defs>
<clipPath id="clip0_9314_2498">
<rect width="88" height="60" fill="white"/>
</clipPath>
</defs>
</svg>
