<svg width="108" height="72" viewBox="0 0 108 72" fill="none" xmlns="http://www.w3.org/2000/svg">
<g clip-path="url(#clip0_9314_2551)">
<g clip-path="url(#clip1_9314_2551)">
<path d="M80.8053 -7.42846C80.8053 -7.25128 80.77 -7.07583 80.7014 -6.91213C80.6329 -6.74844 80.5323 -6.5997 80.4056 -6.47441C80.2788 -6.34912 80.1284 -6.24974 79.9628 -6.18193C79.7972 -6.11413 79.6197 -6.07923 79.4405 -6.07923C79.2612 -6.07923 79.0838 -6.11413 78.9182 -6.18193C78.7526 -6.24974 78.6021 -6.34912 78.4754 -6.47441C78.3486 -6.5997 78.2481 -6.74844 78.1795 -6.91213C78.1109 -7.07583 78.0756 -7.25128 78.0756 -7.42846C78.0756 -7.78479 78.2188 -8.12653 78.4737 -8.37849C78.7286 -8.63045 79.0743 -8.772 79.4347 -8.772C79.7952 -8.772 80.1409 -8.63045 80.3958 -8.37849C80.6506 -8.12653 80.7938 -7.78479 80.7938 -7.42846H80.8053ZM69.9555 27.7769C69.8574 27.8512 69.7336 27.8846 69.6108 27.8696C69.4881 27.8547 69.3761 27.7928 69.299 27.6972C59.6701 15.5484 65.2563 -0.164226 76.1291 -6.31264C76.182 -6.35692 76.2441 -6.38915 76.311 -6.40704C76.3779 -6.42493 76.448 -6.42804 76.5163 -6.41614C76.5845 -6.40424 76.6493 -6.37764 76.706 -6.33821C76.7627 -6.29879 76.8099 -6.24751 76.8443 -6.18801C76.8787 -6.12852 76.8994 -6.06227 76.905 -5.99397C76.9106 -5.92567 76.9009 -5.85699 76.8766 -5.79282C76.8523 -5.72864 76.814 -5.67054 76.7644 -5.62263C76.7149 -5.57472 76.6553 -5.53819 76.5898 -5.51562C66.1431 0.405072 60.8219 15.4915 70.0362 27.1279C70.0749 27.1754 70.1036 27.23 70.1205 27.2887C70.1374 27.3473 70.1423 27.4087 70.1348 27.4693C70.1273 27.5298 70.1075 27.5882 70.0767 27.641C70.0459 27.6939 70.0047 27.7401 69.9555 27.7769ZM78.2714 18.5201C78.7846 18.5201 79.2768 18.3186 79.6397 17.9599C80.0025 17.6011 80.2064 17.1146 80.2064 16.6073C80.2064 16.1 80.0025 15.6134 79.6397 15.2547C79.2768 14.896 78.7846 14.6944 78.2714 14.6944C77.7582 14.6944 77.2661 14.896 76.9032 15.2547C76.5403 15.6134 76.3364 16.1 76.3364 16.6073C76.3364 17.1146 76.5403 17.6011 76.9032 17.9599C77.2661 18.3186 77.7582 18.5201 78.2714 18.5201ZM97.2183 18.5201C97.7314 18.5201 98.2236 18.3186 98.5865 17.9599C98.9494 17.6011 99.1532 17.1146 99.1532 16.6073C99.1532 16.1 98.9494 15.6134 98.5865 15.2547C98.2236 14.896 97.7314 14.6944 97.2183 14.6944C96.7051 14.6944 96.2129 14.896 95.85 15.2547C95.4871 15.6134 95.2833 16.1 95.2833 16.6073C95.2833 17.1146 95.4871 17.6011 95.85 17.9599C96.2129 18.3186 96.7051 18.5201 97.2183 18.5201Z" fill="#E6EDEF"/>
<path fill-rule="evenodd" clip-rule="evenodd" d="M59.7623 20.1369C59.5944 20.2543 59.397 20.3235 59.1919 20.3371C58.9867 20.3507 58.7818 20.3081 58.5996 20.2139C58.4173 20.1197 58.265 19.9776 58.1592 19.8033C58.0534 19.6291 57.9983 19.4293 58 19.226V8.34108C58.0026 8.14331 58.0588 7.94985 58.1628 7.7809C58.2669 7.61195 58.4149 7.47372 58.5914 7.38064C58.768 7.28756 58.9665 7.24306 59.1664 7.25178C59.3663 7.2605 59.5602 7.32212 59.7277 7.4302C61.1767 1.07061 64.7707 -4.61268 69.9193 -8.686C75.0679 -12.7593 81.4649 -14.9804 88.0593 -14.9844C94.6537 -14.9883 101.053 -12.775 106.207 -8.70786C111.361 -4.64075 114.962 1.0382 116.418 7.39604C116.589 7.2948 116.783 7.24026 116.982 7.23805C117.181 7.23585 117.376 7.28606 117.549 7.3835C117.721 7.48095 117.864 7.6221 117.963 7.79242C118.062 7.96274 118.113 8.15607 118.112 8.35246V19.226C118.113 19.4257 118.06 19.6221 117.958 19.7943C117.855 19.9665 117.708 20.108 117.53 20.2038C117.353 20.2996 117.153 20.3461 116.951 20.3383C116.749 20.3306 116.553 20.2688 116.384 20.1597C115.388 24.4241 113.421 28.4077 110.633 31.8073C107.844 35.2068 104.308 37.9328 100.294 39.7777L100.282 39.9712C100.792 40.7804 101.476 41.4685 102.286 41.9866C103.523 42.6154 104.873 42.9947 106.26 43.1024C106.26 43.1024 104.428 44.0133 102.194 43.8083C100.789 43.6945 100.19 44.036 99.971 44.7192L100.121 42.4762L99.971 44.7078C99.7407 49.7973 99.4642 52.7918 99.3721 53.8393L99.3375 54.272V54.3859C99.2915 54.6705 99.2454 55.1146 100.374 55.57C101.008 55.8319 102.067 56.1279 102.977 56.3784C103.899 56.6403 104.659 56.8566 104.659 56.9363C104.659 57.0957 99.6024 56.9363 99.6024 56.9363C96.7 56.9363 96.7 54.7958 96.7 54.272C96.7 53.7482 95.9167 44.7989 95.9167 44.7989L95.6518 56.3556C95.6518 56.8794 95.9167 57.6536 97.7596 58.1774C97.7596 58.1774 101.791 58.7808 101.791 58.9972C101.791 59.2249 96.9649 58.9972 96.9649 58.9972C93.3022 58.9972 93.3022 56.8794 93.3022 56.8794L92.5075 47.4063C92.5075 47.4063 92.2426 56.8794 92.2426 58.1774C92.2426 59.2021 92.4268 59.9764 95.3063 60.5001C95.8591 60.6595 96.6424 60.8189 97.3795 60.9783C98.4967 61.206 99.4988 61.4338 99.4988 61.5476C99.4988 61.7298 93.0949 61.5476 93.0949 61.5476C89.6741 61.2857 89.3516 58.9289 89.3516 58.9289L88.0501 54.2265L86.7601 58.9402C86.7601 58.9402 86.2302 61.2857 82.7979 61.5476C82.7979 61.5476 76.9929 61.7298 76.9929 61.5476C76.9929 61.4338 77.8337 61.2288 78.8358 61.0011C79.4923 60.8417 80.2179 60.6709 80.7938 60.5001C82.7979 59.9194 83.8576 59.2021 83.8576 58.1774C83.8576 56.8794 83.5927 47.4063 83.5927 47.4063L82.7979 56.8794C82.7979 56.8794 82.7979 59.2021 79.1353 59.2021C79.1353 59.2021 73.9062 59.2135 73.9062 58.9972C73.9062 58.7695 78.3175 58.1774 78.3175 58.1774C80.1603 57.6536 80.4253 56.8794 80.4253 56.3556L80.1719 44.7989C80.1719 44.7989 79.3656 53.7482 79.3656 54.272C79.3656 54.7958 79.3656 57.1413 76.4862 57.1413C76.4862 57.1413 71.6026 56.9021 71.6026 56.7314C71.6026 56.6517 72.213 56.5036 72.9963 56.3215C73.8946 56.1165 75.0234 55.8546 75.7145 55.57C76.8317 55.1146 76.7856 54.6591 76.7511 54.3859V54.272L76.1061 44.8103C75.8872 44.1499 75.2998 43.7855 73.8946 43.8994C72.4972 44.0056 71.0951 43.7629 69.8173 43.1935C71.2028 43.0893 72.5536 42.7139 73.791 42.089C74.5657 41.6028 75.1786 40.9019 75.5532 40.0737L75.5417 39.6183C71.6007 37.7506 68.1357 35.0295 65.4041 31.6569C62.6724 28.2843 60.7441 24.3469 59.7623 20.1369ZM100.386 38.2178L100.512 35.8495C100.72 32.0011 100.904 28.6536 101.065 24.7596C102.36 24.1007 103.451 23.1099 104.225 21.8909C104.999 20.672 105.427 19.2697 105.465 17.831C105.503 16.3923 105.148 14.97 104.439 13.7131C103.73 12.4561 102.692 11.4108 101.434 10.6866V10.5386C101.434 3.27433 95.8131 -3.03349 87.9003 -3.03349C79.9761 -3.03349 74.7239 3.51343 74.7239 10.5272V10.55C73.3969 11.2551 72.2944 12.3113 71.5399 13.6005C70.7854 14.8896 70.4086 16.3609 70.4516 17.8496C70.4947 19.3384 70.9558 20.786 71.7836 22.0304C72.6113 23.2749 73.7729 24.2672 75.1386 24.8962L75.5071 38.0698C69.9631 35.2695 65.5366 30.7024 62.9434 25.1071C60.3502 19.5118 59.7419 13.2155 61.217 7.23613C62.692 1.2568 66.1641 -4.05592 71.0718 -7.84294C75.9795 -11.63 82.0359 -13.6699 88.2616 -13.6328C94.4874 -13.5958 100.518 -11.484 105.38 -7.63882C110.241 -3.79368 113.648 1.55997 115.05 7.55642C116.452 13.5529 115.767 19.8416 113.106 25.4056C110.445 30.9696 105.963 35.4837 100.386 38.2178ZM92.853 30.2704C92.7839 33.1738 91.5515 37.455 87.7506 37.455C83.8345 37.455 82.867 32.6159 82.867 30.0085C82.867 30.0085 84.5947 32.4224 87.7506 32.4224C90.9065 32.4224 92.853 30.0085 92.853 30.0085V30.2704ZM78.5709 23.9284C79.4088 23.9284 80.2386 23.7653 81.0127 23.4483C81.7869 23.1313 82.4903 22.6667 83.0828 22.0809C83.6754 21.4952 84.1454 20.7998 84.466 20.0345C84.7867 19.2692 84.9518 18.449 84.9518 17.6206C84.9518 16.7923 84.7867 15.972 84.466 15.2067C84.1454 14.4414 83.6754 13.7461 83.0828 13.1603C82.4903 12.5746 81.7869 12.11 81.0127 11.793C80.2386 11.476 79.4088 11.3128 78.5709 11.3128C76.8786 11.3128 75.2556 11.9774 74.0589 13.1603C72.8623 14.3433 72.19 15.9477 72.19 17.6206C72.19 19.2936 72.8623 20.898 74.0589 22.0809C75.2556 23.2639 76.8786 23.9284 78.5709 23.9284ZM97.345 23.9284C98.1829 23.9284 99.0126 23.7653 99.7868 23.4483C100.561 23.1313 101.264 22.6667 101.857 22.0809C102.449 21.4952 102.919 20.7998 103.24 20.0345C103.561 19.2692 103.726 18.449 103.726 17.6206C103.726 16.7923 103.561 15.972 103.24 15.2067C102.919 14.4414 102.449 13.7461 101.857 13.1603C101.264 12.5746 100.561 12.11 99.7868 11.793C99.0126 11.476 98.1829 11.3128 97.345 11.3128C95.6526 11.3128 94.0296 11.9774 92.833 13.1603C91.6363 14.3433 90.9641 15.9477 90.9641 17.6206C90.9641 19.2936 91.6363 20.898 92.833 22.0809C94.0296 23.2639 95.6526 23.9284 97.345 23.9284Z" fill="#E6EDEF"/>
</g>
</g>
<defs>
<clipPath id="clip0_9314_2551">
<rect width="108" height="72" fill="white"/>
</clipPath>
<clipPath id="clip1_9314_2551">
<rect width="60.1231" height="76.6274" fill="white" transform="translate(58 -15)"/>
</clipPath>
</defs>
</svg>
