<svg width="108" height="72" viewBox="0 0 108 72" fill="none" xmlns="http://www.w3.org/2000/svg">
<g clip-path="url(#clip0_9314_2533)">
<g clip-path="url(#clip1_9314_2533)">
<path d="M100.844 46.5214C102.839 49.4197 103.564 52.4017 102.468 53.1833C101.371 53.9648 98.8668 52.2489 96.8721 49.3505C96.1383 48.2835 95.5801 47.2049 95.2175 46.2301C91.9421 48.4565 88.154 49.8581 84.1731 50.2676C84.4026 51.2482 84.5415 52.3931 84.5415 53.6303C84.5415 57.1689 83.4563 60.0355 82.1161 60.0355C80.776 60.0355 79.6908 57.1689 79.6908 53.6303C79.6908 52.419 79.824 51.303 80.045 50.3368C76.0386 50.0513 72.2108 48.7593 68.8703 46.6339C68.5105 47.5019 68.0203 48.4248 67.3856 49.3505C65.391 52.2489 62.8863 53.9648 61.7898 53.1833C60.6933 52.4017 61.4186 49.4197 63.4133 46.5214C64.082 45.5495 64.8073 44.7276 65.5185 44.0701C64.1386 42.8098 62.8891 41.3851 61.8096 39.8047L64.9943 37.5495C68.8051 43.127 75.064 46.4551 81.7336 46.4551C88.4203 46.4551 94.6848 43.1155 98.4956 37.5207L101.683 39.7701C100.697 41.2178 99.5666 42.53 98.3313 43.7096C99.17 44.4046 100.045 45.3621 100.844 46.5214ZM65.7848 7.21633C64.099 8.71597 62.6001 10.455 61.3478 12.4276L64.6061 14.5704C68.3801 8.62369 74.7835 5.07357 81.7365 5.07357C88.919 5.07357 95.4356 8.80537 99.1643 15.0548L102.479 13.0044C101.247 10.9395 99.7508 9.11396 98.0593 7.53933C98.9773 6.83277 99.9605 5.80032 100.844 4.51409C102.839 1.61574 103.564 -1.36624 102.468 -2.14779C101.371 -2.92933 98.8668 -1.21339 96.8721 1.68496C96.0391 2.89332 95.4441 4.10746 95.0956 5.18028C91.8316 2.98561 88.0548 1.62728 84.0456 1.2466C84.3516 0.173777 84.5415 -1.14706 84.5415 -2.59768C84.5415 -6.13337 83.4563 -9 82.1161 -9C80.776 -9 79.6908 -6.13337 79.6908 -2.59479C79.6908 -1.17879 79.8693 0.118983 80.164 1.17738C76.1605 1.43694 72.3525 2.69145 69.029 4.77364C68.6663 3.80464 68.1138 2.74047 67.3856 1.68496C65.3938 -1.21339 62.8891 -2.92645 61.7926 -2.1449C60.6961 -1.36336 61.4215 1.61863 63.4161 4.51697C64.167 5.6071 64.9915 6.52996 65.7848 7.21633ZM49.4166 35.0434H54.086V27.9143H59.3531V35.0462H64.0225V17.0794H59.356V23.7672H54.086V17.0794H49.4166V35.0434ZM67.9353 17.0794V35.0434H79.6115V31.0635H72.6046V27.8566H78.362V23.8768H72.6046V21.0563H79.3395V17.0765L67.9353 17.0794ZM83.0313 17.0794V35.0434H94.3816V31.0635H87.7006V17.0794H83.0313ZM97.4218 17.0794V35.0434H101.711V29.7369C101.711 29.2755 101.689 28.7708 101.643 28.2171C101.598 27.6634 101.547 27.0981 101.493 26.5185C101.439 25.9388 101.374 25.3707 101.303 24.8198C101.23 24.2661 101.167 23.7701 101.114 23.3288H101.221L102.632 27.5307L105.077 33.5841H106.814L109.257 27.5307L110.721 23.3288H110.829C110.775 23.7701 110.71 24.269 110.639 24.8227C110.566 25.3764 110.503 25.9417 110.449 26.5214C110.396 27.101 110.345 27.6692 110.299 28.22C110.254 28.7737 110.231 29.2784 110.231 29.7398V35.0462H114.583V17.0794H109.75L107.089 24.543L106.112 27.473H106.004L105.026 24.543L102.255 17.0794H97.4218Z" fill="#E6EDEF"/>
</g>
</g>
<defs>
<clipPath id="clip0_9314_2533">
<rect width="108" height="72" fill="white"/>
</clipPath>
<clipPath id="clip1_9314_2533">
<rect width="68" height="69.2143" fill="white" transform="translate(48 -9)"/>
</clipPath>
</defs>
</svg>
