<svg width="208" height="72" viewBox="0 0 208 72" fill="none" xmlns="http://www.w3.org/2000/svg">
<g clip-path="url(#clip0_9314_2541)">
<g clip-path="url(#clip1_9314_2541)">
<path d="M19.2285 60.3364L12.7918 48.7821L19.2285 37.2278H32.043L38.4798 48.7821L32.043 60.3364H19.2285Z" fill="#E6EDEF"/>
<path d="M19.2285 88.2939L12.7918 76.7395L19.2285 65.1853H32.043L38.4798 76.7395L32.043 88.2939H19.2285Z" fill="#E6EDEF"/>
<path d="M19.2285 32.3789L12.7918 20.8246L19.2285 9.27026H32.043L38.4798 20.8246L32.043 32.3789H19.2285Z" fill="#E6EDEF"/>
<path d="M43.0295 74.3144L36.5928 62.7601L43.0295 51.2058H55.8441L62.2808 62.7601L55.8441 74.3144H43.0295Z" fill="#E6EDEF"/>
<path d="M43.0295 46.3571L36.5928 34.8028L43.0295 23.2484H55.8441L62.2808 34.8028L55.8441 46.3571H43.0295Z" fill="#E6EDEF"/>
<path d="M-4.5633 74.3145L-11 62.7603L-4.5633 51.2059H8.2512L14.6879 62.7603L8.2512 74.3145H-4.5633Z" fill="#E6EDEF"/>
<path d="M-4.5633 46.3571L-11 34.8028L-4.5633 23.2484H8.2512L14.6879 34.8028L8.2512 46.3571H-4.5633Z" fill="#E6EDEF"/>
<path d="M95.0402 35.1144C96.2266 35.1228 97.4087 35.2611 98.5669 35.5272C99.6648 35.7685 100.593 36.2039 101.495 36.664V40.2235C100.491 39.8469 99.4697 39.5247 98.434 39.2581C97.4036 39.0166 96.4736 38.8453 95.4411 38.8453C94.4086 38.8453 93.4152 39.0166 92.3805 39.328C91.3457 39.6393 90.4853 40.2235 89.6205 41.0491C88.8233 41.8746 88.1893 42.91 87.6601 44.2183C87.1939 45.5265 86.9629 47.1461 86.9629 49.1085C86.9629 50.462 87.1285 51.8155 87.5294 53.0335C87.8877 54.1668 88.4518 55.2188 89.1914 56.1328C89.9233 57.0282 90.8535 57.6825 91.8533 58.1628C92.9512 58.6456 94.2147 58.8847 95.6436 58.8847C96.674 58.8847 97.6694 58.8171 98.8022 58.5756C99.84 58.3172 100.862 57.9948 101.863 57.6102V61.1922C101.564 61.3636 101.166 61.6051 100.7 61.7787C100.233 61.9524 99.6691 62.0878 99.0374 62.2615C98.4711 62.4328 97.8742 62.5028 97.1422 62.5704L95.1818 62.7419C93.5176 62.765 91.8624 62.4856 90.2915 61.9163C88.8203 61.3549 87.4572 60.527 86.266 59.4712C85.0956 58.273 84.1878 56.8283 83.604 55.2351C82.9506 53.5139 82.5737 51.5808 82.5737 49.2078C82.5737 47.4867 82.7392 45.9371 83.14 44.5611C83.4385 43.2077 83.9373 41.9445 84.5712 40.9069C85.2051 39.8693 85.8782 38.9445 86.6994 38.2001C87.4866 37.4916 88.3576 36.8897 89.2916 36.4091C90.2218 35.9264 91.1868 35.5835 92.1191 35.3422L95.0468 35.067L95.0402 35.1144ZM108.245 29.7414V24.9187H112.385V29.7414H108.245ZM108.311 62.0833V35.8385H112.449V62.1035L108.311 62.0833ZM120.984 62.1058V22.0946H125.123V62.1035L120.984 62.1058ZM133.568 29.7414V24.9187H137.707V29.7414H133.568ZM133.633 62.0833V35.8385H137.773V62.1035L133.633 62.0833ZM156.175 62.7599C154.988 62.7617 153.805 62.6233 152.649 62.3472C151.684 62.0635 150.757 61.6589 149.888 61.1427C149.09 60.5561 148.392 60.0058 147.862 59.1802C147.284 58.4561 146.841 57.6269 146.556 56.735C146.322 56.0583 146.157 55.3816 145.989 54.5312L145.824 51.9146V35.8655H149.963V51.9146C149.963 53.3966 150.128 54.6214 150.529 55.5688C150.927 56.7057 151.627 57.5313 152.554 58.1854C153.483 58.8396 154.75 59.1508 156.18 59.1508C157.743 59.1508 159.007 58.8418 159.969 58.0839C160.901 57.3621 161.632 56.4644 161.995 55.226C162.294 54.3305 162.461 53.1959 162.461 51.8875V35.8272H166.6V51.9462C166.6 52.7643 166.546 53.5814 166.435 54.3914C166.37 55.1097 166.213 55.8159 165.969 56.4915C165.67 57.3869 165.171 58.2125 164.661 59.0065C164.095 59.7283 163.398 60.3599 162.636 60.9689C161.838 61.5554 160.906 61.9344 159.808 62.2773C158.626 62.6024 157.407 62.7647 156.183 62.7599H156.175ZM195.025 62.0833H190.886V45.1859C190.89 44.1953 190.755 43.2092 190.487 42.2581C190.255 41.4326 189.921 40.7761 189.457 40.2957C188.989 39.7977 188.422 39.4099 187.795 39.1588C187.142 38.9175 186.488 38.8498 185.666 38.8498C184.17 38.8498 182.84 39.2625 181.641 40.0544C180.479 40.8799 179.346 42.0167 178.418 43.4649V62.1328H174.293V35.8385H177.518L178.315 39.4927H178.38L179.877 37.7715C180.443 37.2889 181.04 36.8061 181.674 36.4181C182.354 35.9961 183.095 35.6934 183.87 35.5227C184.667 35.2813 185.532 35.2136 186.484 35.2136C188.38 35.2136 189.943 35.6963 191.206 36.5671C192.47 37.5325 193.402 38.7708 194.134 40.3904H194.2C195.298 38.7708 196.629 37.4625 198.056 36.5671C199.482 35.6715 201.214 35.2136 203.078 35.2136C203.943 35.2136 204.876 35.3851 205.906 35.6264C206.936 35.8678 207.801 36.3483 208.666 36.9798C209.53 37.6114 210.163 38.5994 210.691 39.8377C211.258 41.0423 211.556 42.5942 211.556 44.5566V62.1576H207.565V45.2469C207.569 44.2561 207.435 43.2701 207.167 42.319C206.934 41.4934 206.601 40.837 206.137 40.3565C205.667 39.8586 205.101 39.4709 204.474 39.2198C203.821 38.9783 203.168 38.9107 202.347 38.9107C200.85 38.9107 199.519 39.3235 198.321 40.1152C197.157 40.9408 196.025 42.0777 195.027 43.5258L195.025 62.0833Z" fill="#E6EDEF"/>
</g>
</g>
<defs>
<clipPath id="clip0_9314_2541">
<rect width="208" height="72" fill="white"/>
</clipPath>
<clipPath id="clip1_9314_2541">
<rect width="74" height="80.4348" fill="white" transform="translate(-11 8)"/>
</clipPath>
</defs>
</svg>
