<svg width="208" height="72" viewBox="0 0 208 72" fill="none" xmlns="http://www.w3.org/2000/svg">
<g clip-path="url(#clip0_9314_2496)">
<path d="M28.6422 54.2385L40.3303 47.4679V33.9633L28.6422 40.7156V54.2385Z" fill="#E6EDEF"/>
<path d="M29.7615 54.8807L40.3303 60.9908V48.7706L29.7615 54.8807Z" fill="#E6EDEF"/>
<path d="M39.7064 31.578V19.3578L29.1193 25.4679L39.7064 31.578Z" fill="#E6EDEF"/>
<path d="M28 26.1101L16.2936 32.8624L28 39.6147L39.7064 32.8624L28 26.1101Z" fill="#E6EDEF"/>
<path d="M26.8807 25.4679L16.2936 19.3578V31.578L26.8807 25.4679Z" fill="#E6EDEF"/>
<path d="M41.4495 34.6055V46.8257L52.0367 40.7156L41.4495 34.6055Z" fill="#E6EDEF"/>
<path d="M27.3578 54.2385V40.7156L15.6697 33.9633V47.4679L27.3578 54.2385Z" fill="#E6EDEF"/>
<path d="M14.5321 34.6055L3.9633 40.7156L14.5321 46.8257V34.6055Z" fill="#E6EDEF"/>
<path d="M15.6697 48.7706V60.9908L26.2385 54.8807L15.6697 48.7706Z" fill="#E6EDEF"/>
<path d="M53.3945 6H2.60551C-4.34862 6.01835 -9.98165 11.6514 -10 18.6055V69.3945C-9.98165 76.3486 -4.34862 81.9817 2.60551 82H37.3761L28 59.1927L21.1927 73.5963H2.60551C0.293581 73.5596 -1.55963 71.7064 -1.59633 69.3945V18.6055C-1.55963 16.2936 0.293581 14.4404 2.60551 14.4037H53.3945C55.7064 14.4404 57.5596 16.2936 57.5963 18.6055V69.3945C57.5596 71.7064 55.7064 73.5596 53.3945 73.5963H42.367L45.8349 82H53.3945C60.3486 81.9817 65.9816 76.3486 66 69.3945V18.6055C65.9816 11.6514 60.3486 6.01835 53.3945 6Z" fill="#E6EDEF"/>
</g>
<defs>
<clipPath id="clip0_9314_2496">
<rect width="208" height="72" fill="white"/>
</clipPath>
</defs>
</svg>
