<svg width="208" height="72" viewBox="0 0 208 72" fill="none" xmlns="http://www.w3.org/2000/svg">
<g clip-path="url(#clip0_9314_2550)">
<g clip-path="url(#clip1_9314_2550)">
<path d="M21.9311 8.9392C21.9311 9.14839 21.8894 9.35553 21.8084 9.54879C21.7274 9.74205 21.6087 9.91766 21.459 10.0656C21.3093 10.2135 21.1316 10.3308 20.9361 10.4109C20.7405 10.4909 20.531 10.5321 20.3193 10.5321C20.1076 10.5321 19.898 10.4909 19.7025 10.4109C19.5069 10.3308 19.3293 10.2135 19.1796 10.0656C19.0299 9.91766 18.9112 9.74205 18.8302 9.54879C18.7492 9.35553 18.7075 9.14839 18.7075 8.9392C18.7075 8.51851 18.8766 8.11505 19.1776 7.81758C19.4786 7.52011 19.8868 7.35299 20.3125 7.35299C20.7382 7.35299 21.1464 7.52011 21.4474 7.81758C21.7484 8.11505 21.9175 8.51851 21.9175 8.9392H21.9311ZM9.11844 50.5033C9.00248 50.5911 8.85631 50.6304 8.71134 50.6128C8.56636 50.5952 8.43416 50.5221 8.34315 50.4092C-3.02773 36.0661 3.56901 17.5155 16.4089 10.2566C16.4713 10.2043 16.5447 10.1662 16.6237 10.1451C16.7027 10.124 16.7855 10.1203 16.8661 10.1344C16.9467 10.1484 17.0232 10.1798 17.0901 10.2264C17.1571 10.2729 17.2128 10.3335 17.2534 10.4037C17.2941 10.4739 17.3185 10.5522 17.3251 10.6328C17.3317 10.7134 17.3202 10.7945 17.2916 10.8703C17.2629 10.946 17.2177 11.0146 17.1591 11.0712C17.1006 11.1278 17.0302 11.1709 16.9529 11.1975C4.61633 18.1876 -1.66758 35.9989 9.21365 49.7371C9.25937 49.7931 9.29324 49.8577 9.31324 49.9269C9.33324 49.9961 9.33898 50.0686 9.3301 50.1401C9.32122 50.2115 9.29791 50.2805 9.26155 50.3429C9.22519 50.4053 9.17652 50.4598 9.11844 50.5033ZM18.9387 39.5746C19.5448 39.5746 20.126 39.3366 20.5545 38.9131C20.9831 38.4896 21.2238 37.9152 21.2238 37.3162C21.2238 36.7173 20.9831 36.1429 20.5545 35.7193C20.126 35.2958 19.5448 35.0579 18.9387 35.0579C18.3327 35.0579 17.7515 35.2958 17.323 35.7193C16.8944 36.1429 16.6537 36.7173 16.6537 37.3162C16.6537 37.9152 16.8944 38.4896 17.323 38.9131C17.7515 39.3366 18.3327 39.5746 18.9387 39.5746ZM41.3133 39.5746C41.9193 39.5746 42.5005 39.3366 42.929 38.9131C43.3576 38.4896 43.5983 37.9152 43.5983 37.3162C43.5983 36.7173 43.3576 36.1429 42.929 35.7193C42.5005 35.2958 41.9193 35.0579 41.3133 35.0579C40.7072 35.0579 40.126 35.2958 39.6975 35.7193C39.269 36.1429 39.0282 36.7173 39.0282 37.3162C39.0282 37.9152 39.269 38.4896 39.6975 38.9131C40.126 39.3366 40.7072 39.5746 41.3133 39.5746Z" fill="#E6EDEF"/>
<path fill-rule="evenodd" clip-rule="evenodd" d="M-2.91892 41.4834C-3.11717 41.6219 -3.35026 41.7037 -3.59252 41.7198C-3.83478 41.7358 -4.07682 41.6854 -4.29198 41.5742C-4.50715 41.4631 -4.68709 41.2953 -4.81201 41.0896C-4.93692 40.8838 -5.00196 40.648 -4.99996 40.408V27.557C-4.99695 27.3235 -4.93055 27.0951 -4.8077 26.8956C-4.68485 26.6962 -4.51006 26.533 -4.30158 26.4231C-4.09311 26.3132 -3.8586 26.2607 -3.62256 26.271C-3.38651 26.2813 -3.1576 26.354 -2.95973 26.4816C-1.24858 18.9734 2.99563 12.2636 9.07565 7.45453C15.1557 2.64551 22.7099 0.023252 30.4973 0.018561C38.2848 0.01387 45.8422 2.62702 51.9282 7.42872C58.0141 12.2304 62.2666 18.9351 63.987 26.4413C64.1881 26.3217 64.4177 26.2574 64.6523 26.2548C64.8869 26.2522 65.118 26.3114 65.3217 26.4265C65.5254 26.5415 65.6944 26.7082 65.8113 26.9093C65.9281 27.1103 65.9886 27.3386 65.9864 27.5704V40.408C65.9883 40.6438 65.9255 40.8756 65.8046 41.0789C65.6837 41.2822 65.5093 41.4493 65.3 41.5624C65.0907 41.6755 64.8542 41.7303 64.6158 41.7212C64.3774 41.712 64.146 41.6391 63.9462 41.5103C62.77 46.5449 60.4471 51.248 57.1544 55.2616C53.8617 59.2752 49.6859 62.4935 44.9449 64.6716L44.9313 64.9002C45.5337 65.8554 46.3418 66.6678 47.2979 67.2795C48.7582 68.0219 50.3534 68.4697 51.9905 68.5968C51.9905 68.5968 49.8278 69.6722 47.1891 69.4303C45.5297 69.2958 44.8225 69.6991 44.564 70.5057L44.7409 67.8575L44.564 70.4922C44.292 76.501 43.9656 80.0364 43.8568 81.2731L43.816 81.7839V81.9183C43.7615 82.2544 43.7071 82.7786 45.0401 83.3163C45.7882 83.6255 47.0395 83.975 48.114 84.2707C49.2022 84.5799 50.0999 84.8353 50.0999 84.9294C50.0999 85.1176 44.1288 84.9294 44.1288 84.9294C40.7012 84.9294 40.7012 82.4022 40.7012 81.7839C40.7012 81.1655 39.7763 70.5998 39.7763 70.5998L39.4635 84.2439C39.4635 84.8622 39.7763 85.7763 41.9525 86.3946C41.9525 86.3946 46.7131 87.1071 46.7131 87.3625C46.7131 87.6314 41.014 87.3625 41.014 87.3625C36.6887 87.3625 36.6887 84.8622 36.6887 84.8622L35.7502 73.6781C35.7502 73.6781 35.4374 84.8622 35.4374 86.3946C35.4374 87.6045 35.655 88.5185 39.0554 89.1369C39.7083 89.3251 40.6332 89.5133 41.5037 89.7015C42.823 89.9703 44.0064 90.2392 44.0064 90.3736C44.0064 90.5887 36.4439 90.3736 36.4439 90.3736C32.4043 90.0644 32.0234 87.2818 32.0234 87.2818L30.4864 81.7301L28.9631 87.2953C28.9631 87.2953 28.3374 90.0644 24.2841 90.3736C24.2841 90.3736 17.429 90.5887 17.429 90.3736C17.429 90.2392 18.4219 89.9972 19.6052 89.7284C20.3805 89.5402 21.2374 89.3385 21.9175 89.1369C24.2841 88.4513 25.5355 87.6045 25.5355 86.3946C25.5355 84.8622 25.2227 73.6781 25.2227 73.6781L24.2841 84.8622C24.2841 84.8622 24.2841 87.6045 19.9589 87.6045C19.9589 87.6045 13.7838 87.6179 13.7838 87.3625C13.7838 87.0937 18.9931 86.3946 18.9931 86.3946C21.1694 85.7763 21.4822 84.8622 21.4822 84.2439L21.183 70.5998C21.183 70.5998 20.2309 81.1655 20.2309 81.7839C20.2309 82.4022 20.2309 85.1714 16.8305 85.1714C16.8305 85.1714 11.0635 84.8891 11.0635 84.6874C11.0635 84.5934 11.7843 84.4186 12.7092 84.2035C13.7702 83.9616 15.1031 83.6524 15.9192 83.3163C17.2386 82.7786 17.1841 82.2409 17.1433 81.9183V81.7839L16.3817 70.6132C16.1232 69.8335 15.4295 69.4034 13.7702 69.5378C12.1199 69.6632 10.4642 69.3766 8.95522 68.7044C10.5914 68.5814 12.1865 68.1382 13.6477 67.4005C14.5626 66.8263 15.2864 65.9989 15.7288 65.0211L15.7152 64.4834C11.0612 62.2784 6.96942 59.0658 3.74354 55.0841C0.517661 51.1024 -1.75949 46.4538 -2.91892 41.4834ZM45.0537 62.83L45.2033 60.034C45.4481 55.4904 45.6658 51.5384 45.8562 46.941C47.3847 46.1631 48.6734 44.9933 49.5875 43.5542C50.5016 42.1151 51.0073 40.4596 51.0518 38.761C51.0963 37.0624 50.6779 35.3832 49.8404 33.8993C49.0029 32.4153 47.7771 31.1812 46.2914 30.3262V30.1514C46.2914 21.5751 39.6539 14.128 30.3096 14.128C20.9518 14.128 14.7495 21.8574 14.7495 30.138V30.1648C13.1823 30.9974 11.8804 32.2443 10.9894 33.7663C10.0984 35.2883 9.65346 37.0253 9.70428 38.783C9.75509 40.5406 10.2997 42.2497 11.2772 43.7189C12.2546 45.1881 13.6264 46.3596 15.2391 47.1023L15.6744 62.6553C9.12733 59.3491 3.90001 53.9572 0.837686 47.3513C-2.22464 40.7454 -2.94293 33.3118 -1.20104 26.2525C0.540846 19.1932 4.64108 12.9209 10.4366 8.44986C16.2322 3.97883 23.3843 1.57046 30.7363 1.6142C38.0883 1.65793 45.2105 4.1512 50.9512 8.69084C56.6919 13.2305 60.7155 19.5511 62.3712 26.6306C64.027 33.7101 63.2182 41.1347 60.0757 47.7037C56.9331 54.2726 51.6405 59.602 45.0537 62.83ZM36.1583 53.4472C36.0767 56.875 34.6213 61.9294 30.1328 61.9294C25.5083 61.9294 24.3658 56.2163 24.3658 53.138C24.3658 53.138 26.406 55.9878 30.1328 55.9878C33.8596 55.9878 36.1583 53.138 36.1583 53.138V53.4472ZM19.2924 45.9597C20.2819 45.9597 21.2618 45.7671 22.176 45.3929C23.0902 45.0186 23.9209 44.4701 24.6206 43.7785C25.3203 43.087 25.8754 42.266 26.254 41.3625C26.6327 40.459 26.8276 39.4906 26.8276 38.5126C26.8276 37.5346 26.6327 36.5662 26.254 35.6627C25.8754 34.7592 25.3203 33.9382 24.6206 33.2467C23.9209 32.5552 23.0902 32.0066 22.176 31.6324C21.2618 31.2581 20.2819 31.0655 19.2924 31.0655C17.2939 31.0655 15.3773 31.8501 13.9642 33.2467C12.551 34.6433 11.7571 36.5375 11.7571 38.5126C11.7571 40.4877 12.551 42.3819 13.9642 43.7785C15.3773 45.1751 17.2939 45.9597 19.2924 45.9597ZM41.4629 45.9597C42.4524 45.9597 43.4323 45.7671 44.3465 45.3929C45.2607 45.0186 46.0914 44.4701 46.7911 43.7785C47.4908 43.087 48.0459 42.266 48.4245 41.3625C48.8032 40.459 48.9981 39.4906 48.9981 38.5126C48.9981 37.5346 48.8032 36.5662 48.4245 35.6627C48.0459 34.7592 47.4908 33.9382 46.7911 33.2467C46.0914 32.5552 45.2607 32.0066 44.3465 31.6324C43.4323 31.2581 42.4524 31.0655 41.4629 31.0655C39.4644 31.0655 37.5478 31.8501 36.1347 33.2467C34.7215 34.6433 33.9276 36.5375 33.9276 38.5126C33.9276 40.4877 34.7215 42.3819 36.1347 43.7785C37.5478 45.1751 39.4644 45.9597 41.4629 45.9597Z" fill="#E6EDEF"/>
</g>
</g>
<defs>
<clipPath id="clip0_9314_2550">
<rect width="208" height="72" fill="white"/>
</clipPath>
<clipPath id="clip1_9314_2550">
<rect width="71" height="90.4678" fill="white" transform="translate(-5)"/>
</clipPath>
</defs>
</svg>
