<svg width="88" height="60" viewBox="0 0 88 60" fill="none" xmlns="http://www.w3.org/2000/svg">
<g clip-path="url(#clip0_9314_2489)">
<path d="M96 23C96 40.1193 82.1231 54 65 54C47.8807 54 34 40.1231 34 23C34 5.88071 47.8807 -8 65 -8C82.1231 -7.99617 96 5.88071 96 23Z" fill="#E6EDEF"/>
<path d="M65.5244 10.9376L73.5443 30.7366L61.4284 21.1931L65.5244 10.9376ZM79.7765 35.2997L67.4385 5.60509C67.0863 4.7476 66.3819 4.29588 65.5283 4.29588C64.6708 4.29588 63.9166 4.7476 63.5644 5.60509L50.0168 38.1746H54.6488L60.0081 24.7456L76.0058 37.6693C76.6489 38.1899 77.1121 38.4234 77.717 38.4234C78.9266 38.4234 79.9832 37.5162 79.9832 36.2108C79.987 36.0002 79.9105 35.6634 79.7765 35.2997Z" fill="white"/>
</g>
<defs>
<clipPath id="clip0_9314_2489">
<rect width="88" height="60" fill="white"/>
</clipPath>
</defs>
</svg>
