<svg width="88" height="60" viewBox="0 0 88 60" fill="none" xmlns="http://www.w3.org/2000/svg">
<g clip-path="url(#clip0_9314_2596)">
<path d="M95.7278 28.4645L95.6885 28.3074L89.641 2.35018V2.23237C89.0913 0.583044 87.9132 -0.830661 86.3424 -1.61605H86.2638L62.0738 -13.2006C61.2491 -13.5933 60.3066 -13.7896 59.4034 -13.7504C58.618 -13.7896 57.8326 -13.7111 57.0472 -13.554L56.8902 -13.5148L56.7331 -13.4362L32.543 -1.77313C31.9343 -1.49824 31.4238 -1.10555 30.9526 -0.653948C30.874 -0.595044 30.8151 -0.516504 30.7366 -0.457599C30.5599 -0.261251 30.3832 -0.0649029 30.2457 0.15108C30.1672 0.268889 30.0886 0.386698 30.0297 0.484872C29.8923 0.700855 29.7548 0.936473 29.6567 1.17209C29.6567 1.19173 29.6567 1.21136 29.637 1.23099C29.4996 1.54515 29.3622 1.85931 29.2836 2.1931L23.3539 28.3074V28.3859C23.0397 30.1531 23.4717 31.9202 24.4927 33.3732L24.532 33.4125L24.5713 33.4517L41.2608 54.1861L41.3001 54.2646L41.3787 54.3039C42.6353 55.5605 44.2846 56.3067 46.0517 56.4245H65.3724L65.5295 56.4637H72.7944C74.8756 56.4637 76.6035 55.6391 77.7031 54.1861L94.4319 33.491L94.4712 33.4517L94.5105 33.4125C94.6872 33.1572 94.8246 32.8823 94.9621 32.6074C95.6493 31.3508 95.9242 29.8978 95.7278 28.4645ZM64.5477 12.6781L68.0035 6.08079H69.2208C69.535 6.08079 69.8491 6.15933 70.124 6.31641C70.34 6.43422 70.5167 6.5913 70.6542 6.74838C70.7523 6.86618 70.8309 7.00363 70.9094 7.14107C70.9683 7.23925 71.0272 7.33742 71.0665 7.45523C71.145 7.69085 71.1647 7.92647 71.1647 8.16208C71.1647 8.18172 71.1647 8.20135 71.1647 8.22099C71.1647 8.22099 71.1647 8.18172 71.1647 8.16208C71.1647 8.43697 71.0861 8.73149 70.9487 8.98675L68.0035 14.5238C67.493 15.5055 66.3149 15.8589 65.3724 15.3484C64.4299 14.7987 64.0765 13.6598 64.5477 12.6781ZM58.1075 32.47L55.2408 37.8499L53.0614 41.9143V41.9536L53.0025 42.0125L44.8344 25.4015L35.4097 6.15933H51.3139L57.6756 17.9402L51.3335 6.1986L57.6756 17.9206L55.4961 21.985L55.4175 22.0243L48.9773 10.0863H41.9481L53.0221 33.5695L54.5929 30.585C55.1034 29.6426 56.2815 29.2499 57.2632 29.7604C57.7345 30.0156 58.0682 30.4476 58.2253 30.9581C58.3824 31.449 58.3431 31.9987 58.0879 32.47H58.1075ZM59.2856 26.7759C59.05 26.6581 58.8733 26.501 58.7162 26.3047C58.8733 26.501 59.0696 26.6581 59.3052 26.7759C58.3628 26.2654 58.0093 25.0873 58.4806 24.1056L61.4258 18.5685C61.9363 17.5868 63.1537 17.2334 64.0961 17.7439C64.3514 17.8813 64.5477 18.0384 64.7048 18.2544C64.8226 18.4115 64.9012 18.5685 64.9601 18.7452C65.176 19.2754 65.1957 19.8841 64.9012 20.4142L61.9559 25.9512C61.4454 26.933 60.2281 27.2864 59.2856 26.7759ZM67.2181 39.6171C67.2181 39.6171 67.1788 39.6563 67.1788 39.6956L65.8044 42.5623C65.2939 43.5047 64.155 43.8974 63.1733 43.4262C63.134 43.4066 63.0948 43.3673 63.0555 43.328C62.977 43.2888 62.8984 43.2691 62.8199 43.2299C62.7021 43.1513 62.6039 43.0335 62.5057 42.9157C62.5057 42.9157 62.5254 42.9157 62.5254 42.9353C62.3683 42.739 62.2505 42.5426 62.1523 42.307C62.2308 42.523 62.329 42.739 62.4861 42.9157C62.0148 42.3856 61.897 41.6591 62.1523 40.9915C62.0148 41.4235 62.0148 41.8751 62.1523 42.2874C61.9952 41.8162 62.0148 41.2664 62.2505 40.7755L63.6642 37.9481C64.1354 37.1234 65.1564 36.7307 66.0596 37.0842C67.0806 37.4376 67.5911 38.5764 67.1984 39.5974L67.2181 39.6171ZM73.0692 28.0718L72.3624 29.4462L70.3204 33.6873C69.9669 34.3353 69.319 34.6887 68.6318 34.728C68.7496 34.728 68.8478 34.728 68.9656 34.7084C68.3962 34.8458 67.7875 34.7869 67.2966 34.3942C66.5505 33.8444 66.2756 32.8234 66.7076 31.9595L68.1409 29.1321L66.7468 31.9202C66.2756 32.9019 66.6683 34.08 67.65 34.5513C67.8857 34.6691 68.1409 34.728 68.3962 34.728C68.1605 34.728 67.9249 34.6494 67.6893 34.5513C66.7076 34.08 66.3149 32.9019 66.7861 31.9202L69.5742 26.3047C70.0455 25.3622 71.2628 24.9695 72.2053 25.4407C73.1478 25.912 73.5405 27.09 73.0692 28.0718ZM78.8811 16.4872L77.3104 19.6681L76.1323 22.1421C75.6218 23.0845 74.483 23.4772 73.5012 23.006C73.4619 22.9864 73.4423 22.9471 73.3834 22.9275C73.3245 22.8882 73.2656 22.8882 73.2263 22.8489C73.1282 22.79 73.0692 22.6918 72.9711 22.6133C73.03 22.6722 73.0889 22.6918 73.1478 22.7508C73.0496 22.6722 72.9318 22.5937 72.8533 22.4955C72.6962 22.3188 72.598 22.1028 72.4998 21.8868C72.3231 21.4156 72.3035 20.8658 72.5587 20.3749L75.3469 14.7594C75.4647 14.5041 75.6414 14.2881 75.8378 14.1311C75.661 14.2881 75.504 14.4845 75.3862 14.7201C75.8574 13.7384 77.0355 13.3849 78.0172 13.8562C78.999 14.3274 79.3917 15.5055 78.8811 16.4872ZM82.062 10.2826L81.8656 10.8324L81.8264 10.8717C81.5515 11.3429 81.0802 11.6963 80.5305 11.8142C80.4912 11.8142 80.4323 11.8142 80.393 11.8142C79.9611 11.8927 79.4898 11.8534 79.0775 11.6178C79.0579 11.6178 79.0382 11.5785 79.0186 11.5589C79.2346 11.6963 79.4702 11.7749 79.7254 11.8142C78.9793 11.6571 78.351 11.1073 78.1743 10.3219H75.8181C74.7186 10.3219 73.8546 9.45798 73.8546 8.35843C73.8546 7.25888 74.7186 6.39495 75.8181 6.39495H84.0255L82.062 10.2826Z" fill="#E6EDEF"/>
</g>
<defs>
<clipPath id="clip0_9314_2596">
<rect width="88" height="60" fill="white"/>
</clipPath>
</defs>
</svg>
