<svg width="108" height="72" viewBox="0 0 108 72" fill="none" xmlns="http://www.w3.org/2000/svg">
<g clip-path="url(#clip0_9314_2569)">
<g clip-path="url(#clip1_9314_2569)">
<path fill-rule="evenodd" clip-rule="evenodd" d="M78.5546 24.13V24.9296ZM99.3368 49.972L100.021 49.7835L100.102 50.3234C100.489 52.7935 100.318 54.9377 99.3268 57.1226C100.862 57.3365 102.2 58.0852 102.905 59.6691C103.408 60.7896 103.886 62.0883 103.896 63.331C103.941 64.2579 103.574 65.1492 102.894 65.7706C102.472 66.122 101.938 66.3155 101.39 66.3206H93.384C92.926 67.5939 92.0152 68.7602 90.6868 69.1116C90.3144 69.1982 89.932 69.2491 89.5546 69.2644C89.147 69.2848 88.7495 69.2949 88.3469 69.2949C87.3153 69.3051 86.2838 69.2949 85.2522 69.2949C83.6369 69.2746 82.0217 69.244 80.4064 69.2033C79.4251 69.1829 78.5445 68.6023 78.1269 67.7008C77.7142 68.5972 76.8336 69.1778 75.8574 69.2033C74.2321 69.244 72.6168 69.2746 71.0015 69.2949C69.97 69.3051 68.9384 69.3153 67.9018 69.2949C67.5043 69.2949 67.1068 69.2848 66.6992 69.2644C66.3117 69.2542 65.9293 69.2033 65.5519 69.1116C64.2234 68.7602 63.3227 67.5786 62.8547 66.3206H54.9242C54.3758 66.3206 53.8474 66.1271 53.4197 65.7706C52.7403 65.1492 52.373 64.2528 52.4183 63.331C52.4183 62.0883 52.9064 60.7845 53.3995 59.6691C53.6662 59.063 54.0738 58.5334 54.5871 58.1157C55.2614 57.581 56.0615 57.2397 56.9069 57.1226C55.9155 54.9377 55.7394 52.7986 56.1269 50.3234L56.2074 49.7835L56.9723 49.9924C57.0628 49.5238 57.1886 49.0603 57.3396 48.6071C57.873 46.9722 58.8542 45.5258 60.1726 44.4359C60.6456 44.0539 61.1639 43.7279 61.7175 43.4733C61.7929 41.9912 61.9892 40.5193 62.3012 39.0678C62.588 37.1019 63.1566 35.192 63.997 33.3993C63.5843 32.89 63.2321 32.3297 62.9553 31.7339C62.9151 31.6422 62.8748 31.5454 62.8446 31.4537C60.2481 29.9615 57.9485 27.9905 56.0665 25.6375C54.9444 24.242 53.2989 22.0673 53.153 20.2389C53.0825 19.5972 53.0624 18.9554 53.0523 18.3239C53.0322 16.7858 53.1127 15.2477 53.2989 13.7198C53.3995 12.8285 53.5455 11.9423 53.7166 11.0613C52.5491 9.70141 51.5327 8.21425 50.6822 6.63541C49.3437 4.14492 48.4833 1.42524 48.1461 -1.38611C47.8241 -4.17199 48.0354 -6.99863 48.7701 -9.70302C49.1425 -11.0629 50.3602 -12 51.7541 -12C56.9874 -12 61.5061 -9.83544 65.7079 -7.04446C73.5981 -11.9389 83.5363 -11.9389 91.4265 -7.04446C95.6182 -9.83544 100.137 -12 105.37 -12C106.764 -12.0051 107.987 -11.0578 108.344 -9.69284C109.069 -6.98335 109.275 -4.16181 108.958 -1.37592C108.621 1.43543 107.76 4.15511 106.422 6.6405C105.577 8.22444 104.56 9.7116 103.398 11.0714C103.559 11.9067 103.695 12.747 103.805 13.6078C103.996 15.1662 104.082 16.7298 104.062 18.2934C104.052 18.9453 104.032 19.5972 103.961 20.2287C103.795 22.1131 102.2 24.2216 101.048 25.6528C99.1657 28.0007 96.8661 29.9717 94.2746 31.4639L94.1488 31.744C93.9324 32.2075 93.6909 32.6608 93.4242 33.0988C93.1827 33.496 92.9059 33.8678 92.5839 34.204C92.8002 34.7082 92.9915 35.2226 93.1575 35.7472C93.5098 36.8574 93.7765 37.9983 93.9425 39.1493C94.0683 39.7401 94.179 40.3411 94.2595 40.9319C96.5793 37 99.6689 33.4502 103.554 31.2704C105.828 29.9309 108.415 29.2281 111.046 29.2434C113.834 29.3147 116.577 30.6287 118.695 32.4316C121.015 34.4077 122.907 37.2343 123.224 40.3462C123.274 40.8606 123.244 41.375 123.123 41.8792C122.665 43.5293 121.503 44.879 119.953 45.5614C118.031 46.4731 115.631 46.4425 114.015 44.8993C113.104 44.0182 112.818 43.0557 112.36 41.9301C112.138 41.2935 111.741 40.7332 111.217 40.3156C110.443 39.7197 109.486 39.4294 108.52 39.4956C107.141 39.5873 105.914 40.3869 104.943 41.3393C104.394 41.8792 103.886 42.4496 103.408 43.0556C102.492 44.2016 101.657 45.4188 100.922 46.6972C100.348 47.6648 99.84 48.6733 99.4073 49.7071C99.3821 49.7683 99.357 49.8294 99.3268 49.8803C99.3268 49.9109 99.3368 49.9414 99.3469 49.972H99.3368ZM101.455 41.161C101.581 41.161 101.707 41.1814 101.823 41.2323C102.291 40.6721 102.784 40.1221 103.297 39.6179C103.458 39.46 103.624 39.3072 103.775 39.1748C103.141 38.7317 102.613 38.146 102.24 37.4686C101.908 36.888 101.682 36.2514 101.576 35.5842C100.529 36.5111 99.5633 37.5297 98.6927 38.6247C98.6424 39.3377 99.3368 40.1679 99.8199 40.5499C100.278 40.942 100.857 41.161 101.455 41.161ZM100.726 42.638C100.051 42.5005 99.4224 42.2 98.884 41.7671C98.3304 41.3291 97.8775 40.7791 97.5454 40.1526C96.6296 41.4717 95.8094 42.8621 95.0898 44.3034C95.3515 44.4613 95.598 44.6396 95.8346 44.8331C96.6799 45.5105 97.3743 46.3559 97.8775 47.3185C98.6927 45.6786 99.6438 44.115 100.721 42.6431L100.726 42.638ZM113.22 38.6247C113.22 38.7164 113.2 38.8081 113.16 38.8947C114.715 40.4378 114.644 42.2357 115.615 43.1677C117.326 44.8127 121.115 42.9589 120.879 40.5906C120.663 38.533 119.49 36.4856 117.855 34.8712C117.845 34.861 117.835 34.8508 117.824 34.8508C117.593 34.6318 117.276 34.5096 116.954 34.5197C114.891 34.4281 113.296 36.6181 113.225 38.6298L113.22 38.6247ZM111.771 37.8659C111.851 37.3464 112.002 36.8371 112.209 36.3583C112.833 34.8253 114.086 33.6488 115.646 33.1293C114.247 32.2279 112.641 31.7033 110.981 31.6167C110.528 31.6014 110.075 31.6218 109.622 31.6778C109.476 31.7797 109.346 31.8866 109.275 31.9478C109.19 32.0191 109.114 32.0904 109.039 32.1719C108.007 33.3534 108.128 35.63 109.018 36.8473C109.074 36.9236 109.114 37.0102 109.139 37.107C110.06 37.163 110.956 37.4228 111.766 37.8608L111.771 37.8659ZM107.443 37.2394C107.021 36.4194 106.794 35.5129 106.779 34.591C106.754 33.7711 106.905 32.9562 107.227 32.2024C106.346 32.4978 105.501 32.8798 104.691 33.3432C104.213 33.6132 103.73 33.9238 103.252 34.2549C103.252 34.2651 103.242 34.2651 103.242 34.2753C102.799 34.9272 103.222 36.0833 103.569 36.6945C103.881 37.2802 104.364 37.7589 104.948 38.0594C105.018 38.0849 105.078 38.1256 105.134 38.1714C105.848 37.7334 106.628 37.4177 107.443 37.2394ZM76.3154 -5.28737C76.9645 -5.28737 77.2865 -4.49795 76.8286 -4.03448C76.3707 -3.57102 75.5857 -3.90206 75.5857 -4.55397C75.5807 -4.96141 75.9078 -5.29246 76.3103 -5.28737H76.3154ZM76.3154 -2.0482C76.9645 -2.0482 77.2865 -1.25878 76.8286 -0.795318C76.3707 -0.331852 75.5857 -0.657806 75.5857 -1.31481C75.5857 -1.71716 75.9128 -2.0482 76.3103 -2.0482H76.3154ZM80.8039 -5.28737C81.453 -5.28737 81.7751 -4.49795 81.3172 -4.03448C80.8593 -3.57102 80.0793 -3.90206 80.0793 -4.55397C80.0793 -4.95632 80.4064 -5.28737 80.8039 -5.28737ZM80.8039 -2.0482C81.453 -2.0482 81.7751 -1.25878 81.3172 -0.795318C80.8593 -0.331852 80.0793 -0.657806 80.0793 -1.31481C80.0793 -1.71716 80.4064 -2.0482 80.8039 -2.0482ZM79.1685 -7.69637V1.0891C83.808 1.19096 88.3721 2.49478 91.1699 4.99036C94.4004 7.87811 96.5541 12.8744 96.3227 15.5024C96.1163 17.8604 92.3977 19.4546 87.4411 20.2847C87.6927 20.7329 87.8638 21.2218 87.9544 21.7311C88.0701 22.4493 88.0651 23.1776 87.9443 23.8957C89.8163 23.6767 91.502 23.3864 93.0066 23.0706C95.6735 22.4951 98.2902 21.7006 100.826 20.6871C100.917 20.4528 100.972 20.2134 100.997 19.9639C100.997 19.9639 102.069 10.0732 96.534 1.97529C92.6141 -3.88169 86.158 -7.47737 79.1735 -7.69128L79.1685 -7.69637ZM77.9558 1.0891V-7.69637C70.8506 -7.47737 64.3039 -3.75946 60.4142 2.25541C55.1004 10.3075 56.142 19.969 56.142 19.969C56.1772 20.2236 56.2477 20.4732 56.3483 20.7125C58.8744 21.7108 61.4759 22.5002 64.1278 23.0706C65.6424 23.3915 67.3181 23.6818 69.2001 23.9008C69.0793 23.1827 69.0743 22.4544 69.19 21.7362C69.2806 21.2269 69.4517 20.738 69.7033 20.2898C64.7467 19.4647 61.023 17.8604 60.8218 15.5075C60.5903 12.8795 62.744 7.8832 65.9746 4.99546C68.7673 2.49478 73.3263 1.19096 77.9659 1.08401L77.9558 1.0891ZM69.5926 25.1842C67.6754 24.9805 65.7682 24.68 63.8812 24.2726C61.6118 23.7836 59.3776 23.1368 57.1937 22.3372C57.5308 22.8618 57.8982 23.366 58.2907 23.8498C60.9375 27.1145 64.4549 29.5489 68.4201 30.8629C69.7184 31.306 71.0368 31.6676 72.3753 31.9376C72.3753 31.9274 72.3652 31.907 72.3652 31.8968C72.2293 31.5352 72.1941 31.1482 72.2545 30.7662C72.4155 29.8138 73.1251 29.2128 74.0358 28.8308C72.3149 28.24 70.7751 27.2571 69.8744 25.6986C69.7637 25.5356 69.6731 25.3625 69.5976 25.1842H69.5926ZM73.9453 31.2908C74.1415 31.8001 74.7856 32.1922 75.5907 32.4622C76.572 32.5742 77.5633 32.671 78.5546 32.7321C79.556 32.671 80.5573 32.5844 81.5386 32.4622C82.2934 32.2126 82.9073 31.8612 83.1438 31.3977C84.1653 29.3911 73.2509 29.442 73.9453 31.2959V31.2908ZM99.9205 22.3525C97.7467 23.147 95.5175 23.7887 93.2582 24.2777C91.3712 24.68 89.464 24.9856 87.5418 25.1893C87.4613 25.3625 87.3757 25.5305 87.2852 25.6935C86.3844 27.2469 84.8497 28.24 83.1337 28.8308C84.0244 29.2128 84.7088 29.8036 84.8798 30.7254C84.9553 31.1329 84.9151 31.5505 84.7691 31.9325C88.0249 31.3264 91.1397 30.099 93.9375 28.3113C95.8849 26.9515 97.6159 25.3115 99.0802 23.4271C99.3771 23.0859 99.6539 22.7141 99.9155 22.3525H99.9205ZM78.1168 25.5662C77.6589 26.3862 76.7078 27.6034 74.7001 27.1909C72.2344 26.3811 70.4681 24.7055 70.9059 22.0265C71.3035 19.6073 75.2838 18.0947 78.5445 18.1253H78.5747C81.8355 18.0947 85.8108 19.6073 86.1982 22.0265C86.5756 24.3439 85.3076 25.9176 83.3602 26.8191C80.4668 27.9039 79.4553 26.488 79.0024 25.5866C78.7861 25.1537 78.6955 24.9245 78.5848 24.9143H78.5546C78.464 24.955 78.3483 25.1638 78.1168 25.5662ZM78.5546 19.2559C76.582 19.2559 74.1918 19.8365 73.9553 21.0741C73.5679 23.1317 76.582 24.1249 78.5546 24.1249H78.5949C80.5674 24.1147 83.5514 23.1215 83.1639 21.0741C82.9274 19.8314 80.5372 19.2559 78.5647 19.2559H78.5546ZM73.0546 15.2223C73.0546 16.2154 71.5853 16.2154 71.5853 15.2223C71.5953 14.4176 71.3186 13.6383 70.8053 13.0272C70.3675 12.4975 69.7234 12.1817 69.0391 12.1664C68.5862 12.1664 68.1434 12.309 67.771 12.5688C67.3533 12.8642 67.0212 13.2665 66.8099 13.7402C66.6388 14.1069 66.201 14.2648 65.8387 14.0916C65.4764 13.9184 65.3154 13.4753 65.4915 13.1086C65.8186 12.4007 66.3218 11.7896 66.9558 11.3363C67.5697 10.9085 68.3044 10.6742 69.0491 10.6742C70.1511 10.6844 71.2028 11.1835 71.9123 12.0391C72.6571 12.9253 73.0647 14.0509 73.0546 15.2172V15.2223ZM84.0647 15.2223C84.0647 16.2154 85.534 16.2154 85.539 15.2223C85.529 14.4176 85.8057 13.6383 86.319 13.0272C86.7568 12.4924 87.4009 12.1817 88.0852 12.1664C88.5381 12.1664 88.9809 12.309 89.3533 12.5688C89.771 12.8642 90.1031 13.2665 90.3144 13.7402C90.7371 14.6213 92.0454 13.9999 91.6429 13.1086C91.3158 12.4007 90.8126 11.7896 90.1786 11.3363C89.5647 10.9085 88.83 10.6742 88.0852 10.6742C86.9782 10.6844 85.9315 11.1835 85.222 12.0391C84.4723 12.9202 84.0596 14.0509 84.0647 15.2172V15.2223ZM84.6584 35.024C83.0935 35.5333 81.4732 35.8388 79.8327 35.9458C76.0587 36.175 72.2948 35.3295 68.9686 33.5164C68.3245 33.328 67.7005 33.1141 67.0766 32.8849C68.6113 34.973 70.7399 36.5315 73.1804 37.3515C70.6946 36.9287 68.1836 36.1495 66.2413 34.7846C64.9832 37.5348 64.2184 41.3648 64.8323 46.5902C64.9782 47.782 65.1594 48.9075 65.3858 49.972C68.6566 48.4695 70.9462 49.0705 73.7893 50.9855C74.0006 47.8125 74.5743 44.6701 75.5052 41.6296C75.7014 41.0388 75.9581 40.7485 76.3053 40.718C76.6726 40.6874 77.2966 40.7078 77.2765 41.8028C77.1658 42.2459 77.0702 42.7755 76.9997 43.1575C76.8035 44.171 76.6525 45.2049 76.4965 46.2337C76.3506 47.2472 76.2097 48.2607 76.0889 49.2844C76.0084 49.9363 75.9279 50.6086 75.8725 51.2707C75.8524 51.6476 75.8323 52.0194 75.8222 52.3912C77.357 52.5796 78.9169 52.5643 80.4517 52.3606C80.4416 51.999 80.4215 51.6272 80.4013 51.2656C80.2906 49.6308 80.0441 47.9144 79.8076 46.2897C79.6616 45.317 79.5107 44.334 79.3245 43.3714C79.2239 42.7704 79.0779 42.1797 78.8968 41.6041C78.927 40.5193 80.3259 40.28 80.7184 41.4768C81.6946 44.5988 82.2934 47.8329 82.4997 51.0975C85.066 49.6053 88.4576 48.5001 90.9132 49.8854C91.1246 48.8413 91.3007 47.7463 91.4416 46.5851C92.0153 41.7569 91.4013 38.1103 90.3094 35.4212C88.3469 36.5926 85.851 37.2139 83.4508 37.5195C86.1077 36.7556 88.4425 35.1207 90.083 32.8747C89.459 33.0988 88.825 33.3178 88.1909 33.5062C87.0688 34.1276 85.8863 34.6318 84.6635 35.0189L84.6584 35.024ZM56.1168 -8.27698C58.7184 -7.50284 61.1891 -6.34163 63.4485 -4.81881C62.5025 -4.05486 61.6219 -3.21451 60.8016 -2.31304C60.3588 -3.05153 59.8808 -3.75946 59.3776 -4.46739C58.4165 -5.84251 57.3245 -7.11577 56.1168 -8.27698ZM51.8145 -8.88814H52.061C54.9645 -7.27365 57.561 -3.99374 59.4732 -0.734201C59.0857 -0.224898 58.7083 0.299682 58.341 0.839543C56.937 2.98371 55.835 5.31632 55.0802 7.77116C52.7353 4.58292 49.7614 -1.26897 51.7339 -8.82193C51.7641 -8.83212 51.7843 -8.86267 51.8145 -8.88305V-8.88814ZM105.31 -8.88814H105.063C102.16 -7.27365 99.5633 -3.99374 97.6511 -0.734201C97.9681 -0.331852 98.2751 0.0908684 98.5619 0.528869C100.072 2.75962 101.244 5.20427 102.039 7.78134C104.379 4.5982 107.353 -1.25878 105.38 -8.81174L105.31 -8.88814ZM101.007 -8.27698C98.4059 -7.50284 95.9352 -6.34163 93.6758 -4.81881C94.6218 -4.04976 95.5024 -3.20941 96.3227 -2.30285C96.7755 -3.03625 97.2435 -3.75946 97.7417 -4.46739C98.7028 -5.84251 99.7948 -7.11577 101.002 -8.27698H101.007ZM65.889 52.2282C66.5834 54.9122 67.5697 57.5097 68.8428 59.9696C68.9736 60.2395 69.195 60.4636 69.4668 60.591C70.4782 61.2123 71.9023 61.8846 72.1438 64.4413C70.9864 62.949 69.8844 61.8846 68.1886 61.5128C67.303 61.4415 66.4274 61.7471 65.7632 62.348C64.3643 63.8148 65.3757 66.3512 66.2262 66.5803C67.0715 66.8095 75.782 66.5803 75.782 66.5803C75.782 66.5803 76.1392 64.9353 75.4649 64.0237C74.8007 63.1018 73.7641 58.4162 73.6937 53.4302C71.6507 51.6221 68.4906 50.3998 65.884 52.2282H65.889ZM90.3547 52.2282C89.6603 54.9122 88.674 57.5046 87.411 59.9696C87.2751 60.2395 87.0537 60.4585 86.787 60.591C85.7755 61.2123 84.3515 61.8846 84.1099 64.4413C85.2673 62.949 86.3693 61.8846 88.0651 61.5128C88.8904 61.5026 89.8414 61.6656 90.4855 62.348C91.8894 63.8148 90.873 66.3512 90.0276 66.5803C89.1822 66.8095 80.4718 66.5803 80.4718 66.5803C80.4718 66.5803 80.1145 64.9353 80.7888 64.0237C81.453 63.1018 82.4997 58.4162 82.5701 53.4302C84.593 51.6221 87.7531 50.3998 90.3597 52.2282H90.3547ZM78.9119 63.3106C78.6552 63.3106 78.3885 63.3208 78.1269 63.3208H77.5029C77.4073 63.1375 77.3016 62.9541 77.1859 62.781C77.0551 62.4805 76.9444 62.1698 76.8588 61.8489C76.6122 60.9678 76.416 60.0664 76.265 59.1598C75.9883 57.4791 75.8272 55.7831 75.7971 54.0821C77.3872 54.3062 79.0075 54.2909 80.5926 54.0413C80.5674 56.0174 80.3661 57.9884 79.9887 59.9289C79.8579 60.6113 79.5207 62.2666 79.1685 62.8777C79.0779 63.0203 78.9924 63.1629 78.9119 63.3106ZM97.948 52.6458C98.0184 57.4129 95.0445 59.2973 93.3085 60.703C101.219 57.0615 102.13 63.2597 101.314 63.9422H93.1273C93.0669 61.9202 91.668 60.1886 89.7207 59.72C90.3497 58.3857 90.878 57.0106 91.3158 55.5998C93.6255 54.3469 96.3428 53.0635 97.948 52.6407V52.6458ZM93.6255 45.6378C95.6081 46.5698 96.8561 48.6885 97.1328 51.067C95.4622 51.6221 93.8419 52.3148 92.287 53.1348C92.8405 51.067 93.2481 48.9585 93.4997 46.8347C93.55 46.4527 93.5903 46.0504 93.6255 45.6327V45.6378ZM62.6182 45.6786C60.6658 46.631 59.448 48.7395 59.1813 51.0975C60.8218 51.6527 62.4119 52.3352 63.9466 53.1449C63.3931 51.0772 62.9855 48.9687 62.7289 46.8398C62.6886 46.4578 62.6484 46.0656 62.6182 45.6735V45.6786ZM58.2856 52.6458C58.2152 57.4129 61.1891 59.2973 62.9352 60.703C55.0148 57.0615 54.1141 63.2597 54.9192 63.9422H62.9654C63.0006 62.7962 63.4535 61.7012 64.2335 60.8711C64.8071 60.2803 65.5217 59.8474 66.3067 59.6182C66.1406 59.277 65.9896 58.9357 65.8387 58.5843C65.3959 57.5606 64.9983 56.5165 64.6411 55.447C62.4018 54.2552 59.8355 53.0584 58.2856 52.6458Z" fill="#E6EDEF"/>
</g>
</g>
<defs>
<clipPath id="clip0_9314_2569">
<rect width="108" height="72" fill="white"/>
</clipPath>
<clipPath id="clip1_9314_2569">
<rect width="76.5714" height="80" fill="white" transform="translate(48 -12)"/>
</clipPath>
</defs>
</svg>
