<svg width="108" height="72" viewBox="0 0 108 72" fill="none" xmlns="http://www.w3.org/2000/svg">
<g clip-path="url(#clip0_9314_2595)">
<path d="M116.806 31.2265L116.762 31.0522L110.052 2.25108V2.12036C109.442 0.290336 108.135 -1.27826 106.392 -2.1497H106.305L79.4643 -15.0035C78.5493 -15.4392 77.5036 -15.657 76.5014 -15.6135C75.63 -15.657 74.7585 -15.5699 73.8871 -15.3956L73.7128 -15.352L73.5385 -15.2649L46.6981 -2.32399C46.0228 -2.01898 45.4563 -1.58326 44.9335 -1.08218C44.8463 -1.01683 44.781 -0.92968 44.6938 -0.864322C44.4977 -0.646462 44.3017 -0.428601 44.1492 -0.188955C44.062 -0.0582387 43.9749 0.0724777 43.9095 0.181408C43.757 0.421054 43.6045 0.682486 43.4956 0.943919C43.4956 0.965705 43.4956 0.98749 43.4738 1.00928C43.3213 1.35785 43.1688 1.70643 43.0816 2.07679L36.5023 31.0522V31.1394C36.1537 33.1001 36.633 35.0609 37.7659 36.673L37.8094 36.7166L37.853 36.7602L56.3711 59.7662L56.4147 59.8534L56.5018 59.8969C57.8961 61.2912 59.7262 62.1191 61.6869 62.2498H83.1244L83.2987 62.2934H91.3595C93.6688 62.2934 95.586 61.3784 96.806 59.7662L115.368 36.8037L115.411 36.7602L115.455 36.7166C115.651 36.4334 115.803 36.1284 115.956 35.8234C116.718 34.4291 117.023 32.8169 116.806 31.2265ZM82.2094 13.7105L86.0437 6.39043H87.3944C87.743 6.39043 88.0916 6.47757 88.3966 6.65186C88.6363 6.78257 88.8323 6.95686 88.9848 7.13115C89.0938 7.26187 89.1809 7.41437 89.268 7.56687C89.3334 7.6758 89.3988 7.78473 89.4423 7.91545C89.5295 8.17688 89.5513 8.43831 89.5513 8.69975C89.5513 8.72153 89.5513 8.74332 89.5513 8.7651C89.5513 8.7651 89.5513 8.72153 89.5513 8.69975C89.5513 9.00475 89.4641 9.33154 89.3116 9.61476L86.0437 15.7584C85.4773 16.8477 84.1701 17.2399 83.1244 16.6734C82.0787 16.0634 81.6865 14.7998 82.2094 13.7105ZM75.0635 35.6709L71.8828 41.6402L69.4645 46.1499V46.1935L69.3992 46.2589L60.3362 27.8279L49.8789 6.47757H67.5256L74.5843 19.5492L67.5474 6.52114L74.5843 19.5274L72.166 24.0371L72.0789 24.0807L64.933 10.8348H57.1336L69.421 36.8909L71.1638 33.5794C71.7303 32.5337 73.0374 32.0979 74.1267 32.6644C74.6496 32.9476 75.02 33.4269 75.1943 33.9933C75.3686 34.538 75.325 35.148 75.0418 35.6709H75.0635ZM76.3707 29.3529C76.1093 29.2222 75.9132 29.0479 75.7389 28.83C75.9132 29.0479 76.1311 29.2222 76.3925 29.3529C75.3468 28.7865 74.9546 27.4793 75.4775 26.39L78.7454 20.2463C79.3118 19.157 80.6626 18.7649 81.7083 19.3313C81.9915 19.4838 82.2094 19.6581 82.3837 19.8978C82.5144 20.0721 82.6015 20.2463 82.6669 20.4424C82.9065 21.0306 82.9283 21.706 82.6015 22.2942L79.3336 28.4379C78.7672 29.5272 77.4164 29.9193 76.3707 29.3529ZM85.1723 43.601C85.1723 43.601 85.1287 43.6445 85.1287 43.6881L83.6037 46.8689C83.0372 47.9146 81.7736 48.3503 80.6843 47.8275C80.6408 47.8057 80.5972 47.7621 80.5536 47.7185C80.4665 47.675 80.3793 47.6532 80.2922 47.6096C80.1615 47.5225 80.0525 47.3917 79.9436 47.261C79.9436 47.261 79.9654 47.261 79.9654 47.2828C79.7911 47.065 79.6604 46.8471 79.5515 46.5857C79.6386 46.8253 79.7475 47.065 79.9218 47.261C79.399 46.6728 79.2683 45.8667 79.5515 45.126C79.399 45.6053 79.399 46.1064 79.5515 46.5639C79.3772 46.041 79.399 45.431 79.6604 44.8864L81.229 41.7492C81.7519 40.8342 82.8847 40.3984 83.8869 40.7906C85.0198 41.1827 85.5862 42.4463 85.1505 43.5792L85.1723 43.601ZM91.6645 30.7908L90.8802 32.3158L88.6145 37.0216C88.2223 37.7405 87.5034 38.1327 86.7409 38.1763C86.8716 38.1763 86.9805 38.1763 87.1112 38.1545C86.4794 38.307 85.8041 38.2416 85.2594 37.8059C84.4315 37.1959 84.1265 36.063 84.6058 35.1044L86.1962 31.9672L84.6494 35.0609C84.1265 36.1502 84.5623 37.4573 85.6516 37.9802C85.913 38.1109 86.1962 38.1763 86.4794 38.1763C86.218 38.1763 85.9566 38.0891 85.6951 37.9802C84.6058 37.4573 84.1701 36.1502 84.693 35.0609L87.7866 28.83C88.3095 27.7843 89.6602 27.3486 90.7059 27.8715C91.7517 28.3943 92.1874 29.7015 91.6645 30.7908ZM98.1132 17.937L96.3703 21.4664L95.0631 24.2114C94.4967 25.2571 93.2331 25.6929 92.1438 25.17C92.1002 25.1482 92.0784 25.1046 92.0131 25.0828C91.9477 25.0393 91.8824 25.0393 91.8388 24.9957C91.7299 24.9303 91.6645 24.8214 91.5556 24.7343C91.6209 24.7996 91.6863 24.8214 91.7517 24.8868C91.6427 24.7996 91.512 24.7125 91.4249 24.6036C91.2506 24.4075 91.1416 24.1678 91.0327 23.9282C90.8366 23.4053 90.8149 22.7953 91.0981 22.2507L94.1917 16.0199C94.3224 15.7366 94.5185 15.497 94.7363 15.3227C94.5403 15.497 94.366 15.7149 94.2353 15.9763C94.7581 14.887 96.0653 14.4948 97.1546 15.0177C98.2439 15.5406 98.6796 16.8477 98.1132 17.937ZM101.643 11.0526L101.425 11.6626L101.381 11.7062C101.076 12.2291 100.553 12.6212 99.9432 12.7519C99.8996 12.7519 99.8343 12.7519 99.7907 12.7519C99.3114 12.8391 98.7885 12.7955 98.331 12.5341C98.3092 12.5341 98.2875 12.4905 98.2657 12.4687C98.5053 12.6212 98.7668 12.7084 99.05 12.7519C98.2221 12.5777 97.5249 11.9677 97.3289 11.0962H94.7146C93.4945 11.0962 92.5359 10.1376 92.5359 8.91761C92.5359 7.69759 93.4945 6.739 94.7146 6.739H103.821L101.643 11.0526Z" fill="#E6EDEF"/>
</g>
<defs>
<clipPath id="clip0_9314_2595">
<rect width="108" height="72" fill="white"/>
</clipPath>
</defs>
</svg>
