<svg width="88" height="60" viewBox="0 0 88 60" fill="none" xmlns="http://www.w3.org/2000/svg">
<g clip-path="url(#clip0_9314_2543)">
<g clip-path="url(#clip1_9314_2543)">
<path d="M60.5096 27.5101L55.2906 18.125L60.5096 8.74006H70.8998L76.1187 18.125L70.8998 27.5101H60.5096Z" fill="#E6EDEF"/>
<path d="M60.5096 50.2186L55.2906 40.8336L60.5096 31.4486H70.8998L76.1187 40.8336L70.8998 50.2186H60.5096Z" fill="#E6EDEF"/>
<path d="M60.5096 4.8015L55.2906 -4.58347L60.5096 -13.9685H70.8998L76.1187 -4.58347L70.8998 4.8015H60.5096Z" fill="#E6EDEF"/>
<path d="M79.8077 38.8637L74.5888 29.4788L79.8077 20.0937H90.1979L95.4169 29.4788L90.1979 38.8637H79.8077Z" fill="#E6EDEF"/>
<path d="M79.8077 16.1553L74.5888 6.77035L79.8077 -2.61473H90.1979L95.4169 6.77035L90.1979 16.1553H79.8077Z" fill="#E6EDEF"/>
<path d="M41.2189 38.8638L36 29.4789L41.2189 20.0938H51.6091L56.828 29.4789L51.6091 38.8638H41.2189Z" fill="#E6EDEF"/>
<path d="M41.2189 16.1553L36 6.77035L41.2189 -2.61473H51.6091L56.828 6.77035L51.6091 16.1553H41.2189Z" fill="#E6EDEF"/>
<path d="M121.979 7.02345C122.94 7.03026 123.899 7.14261 124.838 7.35876C125.728 7.55477 126.481 7.90836 127.212 8.28209V11.1733C126.398 10.8675 125.57 10.6057 124.73 10.3892C123.895 10.1931 123.141 10.0539 122.304 10.0539C121.466 10.0539 120.661 10.1931 119.822 10.446C118.983 10.6988 118.285 11.1733 117.584 11.8439C116.938 12.5144 116.424 13.3555 115.995 14.4181C115.617 15.4807 115.429 16.7963 115.429 18.3902C115.429 19.4896 115.564 20.5889 115.889 21.5783C116.179 22.4988 116.637 23.3533 117.236 24.0957C117.83 24.823 118.584 25.3544 119.395 25.7446C120.285 26.1367 121.309 26.3309 122.468 26.3309C123.303 26.3309 124.11 26.276 125.029 26.0799C125.87 25.87 126.699 25.6081 127.51 25.2957V28.2052C127.268 28.3444 126.945 28.5405 126.567 28.6816C126.189 28.8226 125.732 28.9327 125.22 29.0737C124.76 29.2129 124.276 29.2697 123.683 29.3247L122.093 29.464C120.744 29.4828 119.402 29.2558 118.128 28.7934C116.935 28.3373 115.83 27.6649 114.864 26.8073C113.915 25.8341 113.179 24.6606 112.706 23.3665C112.176 21.9685 111.871 20.3984 111.871 18.4708C111.871 17.0729 112.005 15.8142 112.33 14.6966C112.572 13.5973 112.976 12.5712 113.49 11.7284C114.004 10.8857 114.55 10.1345 115.216 9.52983C115.854 8.95436 116.56 8.46546 117.317 8.07509C118.072 7.68298 118.854 7.40448 119.61 7.20847L121.984 6.98493L121.979 7.02345ZM132.685 2.65922V-1.25804H136.042V2.65922H132.685ZM132.738 28.929V7.61158H136.094V28.9454L132.738 28.929ZM143.014 28.9472V-3.55187H146.37V28.9454L143.014 28.9472ZM153.217 2.65922V-1.25804H156.573V2.65922H153.217ZM153.27 28.929V7.61158H156.627V28.9454L153.27 28.929ZM171.547 29.4786C170.585 29.48 169.626 29.3676 168.688 29.1434C167.906 28.9129 167.154 28.5843 166.45 28.165C165.803 27.6885 165.237 27.2415 164.807 26.5709C164.338 25.9828 163.979 25.3093 163.748 24.5849C163.558 24.0352 163.424 23.4856 163.288 22.7948L163.154 20.6695V7.63356H166.51V20.6695C166.51 21.8732 166.644 22.8681 166.969 23.6376C167.292 24.561 167.859 25.2316 168.611 25.763C169.364 26.2943 170.392 26.5471 171.551 26.5471C172.819 26.5471 173.844 26.2961 174.623 25.6805C175.379 25.0942 175.972 24.365 176.266 23.3591C176.508 22.6318 176.644 21.7102 176.644 20.6475V7.60243H180V20.6951C180 21.3596 179.956 22.0233 179.866 22.6812C179.814 23.2646 179.686 23.8383 179.488 24.387C179.246 25.1143 178.841 25.7849 178.428 26.4299C177.969 27.0161 177.404 27.5292 176.786 28.0238C176.139 28.5002 175.383 28.8081 174.493 29.0865C173.535 29.3506 172.546 29.4825 171.554 29.4786H171.547ZM203.047 28.929H199.692V15.2041C199.694 14.3994 199.585 13.5985 199.368 12.8259C199.18 12.1554 198.909 11.6222 198.533 11.232C198.153 10.8275 197.694 10.5125 197.185 10.3085C196.655 10.1125 196.125 10.0576 195.459 10.0576C194.246 10.0576 193.168 10.3928 192.195 11.0359C191.253 11.7065 190.334 12.6299 189.582 13.8061V28.9692H186.238V7.61158H188.852L189.499 10.5797H189.552L190.765 9.18169C191.224 8.78967 191.708 8.39756 192.222 8.08239C192.773 7.73959 193.374 7.49378 194.003 7.35506C194.649 7.15905 195.35 7.104 196.122 7.104C197.659 7.104 198.927 7.49611 199.951 8.2034C200.976 8.98753 201.732 9.99335 202.325 11.3089H202.378C203.268 9.99335 204.348 8.93072 205.504 8.2034C206.661 7.47598 208.065 7.104 209.577 7.104C210.278 7.104 211.034 7.2433 211.87 7.43931C212.705 7.63541 213.406 8.02568 214.108 8.53861C214.808 9.05163 215.321 9.85415 215.75 10.86C216.209 11.8384 216.451 13.0989 216.451 14.6929V28.9894H213.215V15.2536C213.218 14.4488 213.11 13.648 212.892 12.8754C212.703 12.2048 212.433 11.6716 212.057 11.2814C211.676 10.8769 211.217 10.562 210.709 10.358C210.179 10.1619 209.65 10.107 208.984 10.107C207.77 10.107 206.691 10.4423 205.72 11.0854C204.776 11.756 203.858 12.6794 203.049 13.8556L203.047 28.929Z" fill="#E6EDEF"/>
</g>
</g>
<defs>
<clipPath id="clip0_9314_2543">
<rect width="88" height="60" fill="white"/>
</clipPath>
<clipPath id="clip1_9314_2543">
<rect width="60" height="65.3333" fill="white" transform="translate(36 -15)"/>
</clipPath>
</defs>
</svg>
