<svg width="88" height="60" viewBox="0 0 88 60" fill="none" xmlns="http://www.w3.org/2000/svg">
<g clip-path="url(#clip0_9314_2579)">
<path d="M90.8453 22.0125C90.5045 17.8157 89.3879 13.719 87.5524 9.93128L97.9355 6.15309C97.1167 4.45351 96.1562 2.82619 95.0643 1.28846L90.1963 3.06561C85.9437 -2.90782 79.8543 -7.31947 72.8608 -9.49354C65.8673 -11.6676 58.3555 -11.4842 51.476 -8.97141C44.5964 -6.45863 38.7286 -1.75503 34.7714 4.41885C30.8141 10.5927 28.9857 17.8964 29.5661 25.2111L34.447 23.4166C34.6018 25.2904 34.9108 27.1481 35.3711 28.9709L25 32.7639C26.0261 36.8447 27.7995 40.699 30.2299 44.1309L35.7213 42.1262L35.7286 42.1372C39.0606 46.8384 43.5549 50.5909 48.7706 53.0265C56.8266 56.7785 66.0387 57.1755 74.3864 54.1303C82.7341 51.0851 89.5358 44.8464 93.2996 36.7825C95.7425 31.5504 96.782 25.7705 96.3157 20.0129L90.8453 22.0125ZM82.6905 31.7986C80.2496 37.0377 75.8343 41.0924 70.4136 43.0728C64.9928 45.0532 59.0094 44.7975 53.7766 42.3619C51.4065 41.2552 49.257 39.7258 47.4332 37.8482L41.8907 39.873C38.9134 36.7979 36.8997 32.9165 36.098 28.7078L36.1005 28.7055L46.5012 24.9089C46.1315 23.006 46.0158 21.0623 46.1572 19.1288L41.2651 20.9093C41.5245 17.3917 42.6335 13.9901 44.4965 10.9975C46.3596 8.00497 48.9209 5.5113 51.9596 3.73139C54.9983 1.95149 58.4233 0.938745 61.9395 0.780441C65.4557 0.622137 68.9575 1.32302 72.1432 2.82269H72.162C74.525 3.93445 76.6677 5.46576 78.4864 7.34253L83.3575 5.56817C84.7011 6.95385 85.8553 8.51214 86.7897 10.2022L76.4287 14.007C78.517 17.7452 79.4653 22.0151 79.1561 26.2881L84.6536 24.2867C84.4602 26.8895 83.7952 29.4351 82.6905 31.7986Z" fill="#E6EDEF"/>
</g>
<defs>
<clipPath id="clip0_9314_2579">
<rect width="88" height="60" fill="white"/>
</clipPath>
</defs>
</svg>
