<svg width="208" height="72" viewBox="0 0 208 72" fill="none" xmlns="http://www.w3.org/2000/svg">
<g clip-path="url(#clip0_9314_2559)">
<g clip-path="url(#clip1_9314_2559)">
<path d="M-8.64234 34.9166C-8.98705 34.9166 -9.07323 34.7451 -8.90087 34.488L-7.09113 32.1735C-6.91877 31.9164 -6.48788 31.7449 -6.14316 31.7449H24.6225C24.9673 31.7449 25.0534 32.0021 24.8811 32.2592L23.416 34.488C23.2437 34.7451 22.8128 35.0023 22.5543 35.0023L-8.64234 34.9166Z" fill="#E6EDEF"/>
<path d="M-21.6553 42.8029C-22 42.8029 -22.0862 42.6314 -21.9138 42.3743L-20.1041 40.0598C-19.9317 39.8026 -19.5008 39.6312 -19.1561 39.6312H20.1413C20.486 39.6312 20.6583 39.8884 20.5722 40.1455L19.8827 42.2028C19.7966 42.5457 19.4518 42.7171 19.1071 42.7171L-21.6553 42.8029Z" fill="#E6EDEF"/>
<path d="M-0.800099 50.6891C-1.14481 50.6891 -1.23099 50.432 -1.05864 50.1748L0.147864 48.0318C0.320221 47.7746 0.664935 47.5175 1.00965 47.5175H18.2453C18.5901 47.5175 18.7624 47.7746 18.7624 48.1175L18.5901 50.1748C18.5901 50.5177 18.2453 50.7749 17.9868 50.7749L-0.800099 50.6891Z" fill="#E6EDEF"/>
<path d="M88.6531 33.3736C83.2239 34.7451 79.5182 35.7738 74.1752 37.1453C72.8825 37.4882 72.7963 37.5739 71.676 36.2881C70.3833 34.8309 69.4353 33.8879 67.6256 33.0307C62.1964 30.3734 56.9395 31.1449 52.0273 34.3165C46.1672 38.0882 43.1509 43.6601 43.2371 50.6034C43.3233 57.4611 48.0631 63.1186 54.8712 64.0615C60.7313 64.833 65.6435 62.7757 69.5215 58.404C70.2971 57.4611 70.9866 56.4324 71.8483 55.2323C68.7459 55.2323 64.8679 55.2323 55.2159 55.2323C53.4061 55.2323 52.9753 54.118 53.5785 52.6607C54.6988 50.0034 56.7671 45.5459 57.9736 43.3172C58.2321 42.8029 58.8354 41.9457 60.1281 41.9457C64.5232 41.9457 80.7247 41.9457 91.497 41.9457C91.3247 44.2601 91.3247 46.5746 90.98 48.889C90.032 55.0609 87.7052 60.7184 83.9133 65.6902C77.7085 73.8337 69.6077 78.8912 59.3525 80.2627C50.907 81.3771 43.0647 79.7484 36.1705 74.6052C29.7933 69.8048 26.1738 63.4615 25.2258 55.5752C24.1055 46.2317 26.8632 37.8311 32.551 30.4591C38.6696 22.4871 46.7704 17.4296 56.6809 15.6295C64.7817 14.1722 72.5378 15.1151 79.5182 19.8298C84.0857 22.83 87.3605 26.9446 89.5149 31.9164C90.032 32.6878 89.6873 33.1164 88.6531 33.3736Z" fill="#E6EDEF"/>
<path d="M117.178 80.777C109.336 80.6056 102.183 78.3769 96.1507 73.2336C91.0661 68.8619 87.8775 63.29 86.8434 56.6896C85.2922 47.0032 87.9637 38.4311 93.8238 30.802C100.115 22.5728 107.699 18.2868 117.954 16.4867C126.744 14.9437 135.017 15.8009 142.515 20.8584C149.323 25.4873 153.546 31.7449 154.666 39.9741C156.131 51.5463 152.77 60.9756 144.755 69.0333C139.068 74.7766 132.087 78.3769 124.072 80.0056C121.746 80.4342 119.419 80.5199 117.178 80.777ZM137.689 46.146C137.603 45.0316 137.603 44.1744 137.43 43.3172C135.879 34.8309 128.037 30.0305 119.85 31.9164C111.835 33.7165 106.664 38.774 104.769 46.8317C103.217 53.5179 106.492 60.2898 112.697 63.0329C117.437 65.0902 122.177 64.833 126.744 62.5186C133.552 59.004 137.258 53.5179 137.689 46.146Z" fill="#E6EDEF"/>
</g>
</g>
<defs>
<clipPath id="clip0_9314_2559">
<rect width="208" height="72" fill="white"/>
</clipPath>
<clipPath id="clip1_9314_2559">
<rect width="177" height="65.777" fill="white" transform="translate(-22 15)"/>
</clipPath>
</defs>
</svg>
