<svg width="108" height="72" viewBox="0 0 108 72" fill="none" xmlns="http://www.w3.org/2000/svg">
<g clip-path="url(#clip0_9314_2542)">
<g clip-path="url(#clip1_9314_2542)">
<path d="M80.1436 31.4986L74.5767 21.4538L80.1436 11.4091H91.2264L96.7933 21.4538L91.2264 31.4986H80.1436Z" fill="#E6EDEF"/>
<path d="M80.1436 55.8034L74.5767 45.7586L80.1436 35.7139H91.2264L96.7933 45.7586L91.2264 55.8034H80.1436Z" fill="#E6EDEF"/>
<path d="M80.1436 7.1937L74.5767 -2.851L80.1436 -12.8958H91.2264L96.7933 -2.851L91.2264 7.1937H80.1436Z" fill="#E6EDEF"/>
<path d="M100.728 43.6503L95.1614 33.6056L100.728 23.5608H111.811L117.378 33.6056L111.811 43.6503H100.728Z" fill="#E6EDEF"/>
<path d="M100.728 19.3456L95.1614 9.30094L100.728 -0.74386H111.811L117.378 9.30094L111.811 19.3456H100.728Z" fill="#E6EDEF"/>
<path d="M59.5669 43.6504L54 33.6057L59.5669 23.5609H70.6497L76.2166 33.6057L70.6497 43.6504H59.5669Z" fill="#E6EDEF"/>
<path d="M59.5669 19.3456L54 9.30094L59.5669 -0.74386H70.6497L76.2166 9.30094L70.6497 19.3456H59.5669Z" fill="#E6EDEF"/>
<path d="M145.71 9.57184C146.736 9.57913 147.759 9.69937 148.761 9.93071C149.71 10.1405 150.513 10.519 151.293 10.919V14.0134C150.425 13.6861 149.541 13.4059 148.646 13.1741C147.755 12.9642 146.95 12.8153 146.057 12.8153C145.164 12.8153 144.305 12.9642 143.41 13.2349C142.515 13.5055 141.771 14.0134 141.023 14.7311C140.334 15.4488 139.785 16.349 139.328 17.4863C138.924 18.6236 138.725 20.0316 138.725 21.7376C138.725 22.9143 138.868 24.0909 139.215 25.1498C139.525 26.135 140.012 27.0496 140.652 27.8441C141.285 28.6226 142.09 29.1914 142.954 29.609C143.904 30.0286 144.996 30.2366 146.232 30.2366C147.123 30.2366 147.984 30.1777 148.964 29.9678C149.862 29.7432 150.746 29.4629 151.611 29.1286V32.2426C151.353 32.3916 151.008 32.6015 150.605 32.7524C150.202 32.9034 149.714 33.0212 149.168 33.1721C148.678 33.3211 148.161 33.3819 147.528 33.4407L145.833 33.5898C144.394 33.6099 142.962 33.367 141.603 32.8721C140.331 32.384 139.152 31.6642 138.122 30.7464C137.11 29.7047 136.325 28.4488 135.82 27.0637C135.255 25.5674 134.929 23.8869 134.929 21.8239C134.929 20.3277 135.072 18.9805 135.418 17.7844C135.677 16.6078 136.108 15.5096 136.656 14.6076C137.204 13.7055 137.787 12.9016 138.497 12.2544C139.178 11.6385 139.931 11.1152 140.739 10.6974C141.543 10.2777 142.378 9.97965 143.184 9.76986L145.716 9.53061L145.71 9.57184ZM157.131 4.90082V0.708201H160.711V4.90082H157.131ZM157.188 33.0172V10.2013H160.767V33.0348L157.188 33.0172ZM168.149 33.0368V-1.74688H171.728V33.0348L168.149 33.0368ZM179.032 4.90082V0.708201H182.611V4.90082H179.032ZM179.088 33.0172V10.2013H182.668V33.0348L179.088 33.0172ZM198.584 33.6054C197.557 33.607 196.534 33.4866 195.534 33.2467C194.7 33 193.898 32.6483 193.147 32.1995C192.457 31.6895 191.852 31.2112 191.394 30.4934C190.894 29.8639 190.511 29.1431 190.264 28.3677C190.062 27.7794 189.919 27.1911 189.774 26.4518L189.631 24.1771V10.2248H193.211V24.1771C193.211 25.4655 193.354 26.5302 193.701 27.3539C194.045 28.3422 194.65 29.06 195.452 29.6286C196.255 30.1973 197.352 30.4679 198.588 30.4679C199.94 30.4679 201.033 30.1993 201.865 29.5403C202.671 28.9129 203.303 28.1324 203.618 27.0558C203.876 26.2773 204.021 25.291 204.021 24.1536V10.1915H207.6V24.2046C207.6 24.9158 207.553 25.6261 207.457 26.3302C207.401 26.9547 207.265 27.5687 207.054 28.156C206.796 28.9344 206.364 29.6522 205.923 30.3424C205.433 30.9699 204.831 31.519 204.172 32.0484C203.482 32.5583 202.675 32.8878 201.726 33.1859C200.704 33.4685 199.649 33.6096 198.591 33.6054H198.584ZM232.184 33.0172H228.604V18.3275C228.607 17.4663 228.491 16.609 228.259 15.7822C228.058 15.0645 227.769 14.4939 227.368 14.0762C226.963 13.6433 226.473 13.3062 225.931 13.0878C225.366 12.878 224.8 12.8192 224.09 12.8192C222.796 12.8192 221.645 13.178 220.608 13.8664C219.603 14.584 218.623 15.5724 217.821 16.8313V33.0603H214.254V10.2013H217.042L217.732 13.3781H217.788L219.083 11.8818C219.572 11.4622 220.089 11.0425 220.637 10.7052C221.225 10.3383 221.866 10.0752 222.536 9.92676C223.225 9.71697 223.974 9.65804 224.797 9.65804C226.436 9.65804 227.789 10.0777 228.881 10.8347C229.974 11.674 230.78 12.7505 231.413 14.1585H231.47C232.42 12.7505 233.571 11.6132 234.805 10.8347C236.039 10.0562 237.536 9.65804 239.149 9.65804C239.897 9.65804 240.703 9.80713 241.594 10.0169C242.485 10.2268 243.233 10.6445 243.982 11.1935C244.729 11.7426 245.276 12.6015 245.733 13.678C246.223 14.7252 246.481 16.0744 246.481 17.7804V33.0818H243.029V18.3805C243.032 17.5192 242.917 16.662 242.685 15.8352C242.483 15.1174 242.195 14.5468 241.794 14.1291C241.388 13.6962 240.898 13.3591 240.356 13.1408C239.791 12.9309 239.226 12.8721 238.516 12.8721C237.222 12.8721 236.07 13.231 235.034 13.9193C234.028 14.637 233.048 15.6254 232.186 16.8843L232.184 33.0172Z" fill="#E6EDEF"/>
</g>
</g>
<defs>
<clipPath id="clip0_9314_2542">
<rect width="108" height="72" fill="white"/>
</clipPath>
<clipPath id="clip1_9314_2542">
<rect width="64" height="69.9259" fill="white" transform="translate(54 -14)"/>
</clipPath>
</defs>
</svg>
