<svg width="88" height="60" viewBox="0 0 88 60" fill="none" xmlns="http://www.w3.org/2000/svg">
<g clip-path="url(#clip0_9314_2570)">
<g clip-path="url(#clip1_9314_2570)">
<path fill-rule="evenodd" clip-rule="evenodd" d="M66.1473 19.5535V20.1854ZM82.5714 39.9764L83.1123 39.8274L83.1759 40.2541C83.4821 42.2062 83.3469 43.9008 82.5635 45.6275C83.7764 45.7965 84.8342 46.3882 85.391 47.64C85.7887 48.5255 86.1665 49.5519 86.1744 50.534C86.2102 51.2665 85.9199 51.9709 85.383 52.462C85.049 52.7397 84.6274 52.8926 84.194 52.8967H77.8669C77.505 53.9029 76.7852 54.8247 75.7353 55.1024C75.441 55.1708 75.1388 55.2111 74.8405 55.2231C74.5184 55.2392 74.2043 55.2473 73.8861 55.2473C73.0709 55.2553 72.2556 55.2473 71.4404 55.2473C70.1638 55.2312 68.8873 55.207 67.6107 55.1748C66.8352 55.1587 66.1393 54.6999 65.8092 53.9875C65.4831 54.6959 64.7872 55.1547 64.0157 55.1748C62.7312 55.207 61.4546 55.2312 60.1781 55.2473C59.3628 55.2553 58.5476 55.2634 57.7284 55.2473C57.4142 55.2473 57.1 55.2392 56.7779 55.2231C56.4717 55.2151 56.1695 55.1748 55.8712 55.1024C54.8213 54.8247 54.1095 53.8908 53.7397 52.8967H47.4722C47.0387 52.8967 46.6212 52.7437 46.2832 52.462C45.7463 51.9709 45.456 51.2625 45.4918 50.534C45.4918 49.5519 45.8775 48.5215 46.2672 47.64C46.478 47.161 46.8001 46.7424 47.2058 46.4124C47.7387 45.9897 48.371 45.7201 49.0391 45.6275C48.2556 43.9008 48.1165 42.2103 48.4227 40.2541L48.4863 39.8274L49.0908 39.9925C49.1624 39.6222 49.2618 39.2559 49.3811 38.8977C49.8026 37.6056 50.5781 36.4625 51.62 35.6012C51.9938 35.2993 52.4034 35.0417 52.8409 34.8405C52.9005 33.6692 53.0556 32.5059 53.3022 31.3588C53.5289 29.8052 53.9783 28.2958 54.6424 26.879C54.3163 26.4765 54.0379 26.0337 53.8192 25.5628C53.7874 25.4904 53.7556 25.4139 53.7317 25.3414C51.6797 24.1621 49.8623 22.6044 48.375 20.7449C47.4881 19.642 46.1877 17.9233 46.0724 16.4783C46.0167 15.9712 46.0008 15.464 45.9928 14.9649C45.9769 13.7494 46.0406 12.5338 46.1877 11.3263C46.2672 10.622 46.3826 9.9216 46.5178 9.22528C45.5952 8.1506 44.7919 6.97529 44.1198 5.72754C43.0619 3.75931 42.3819 1.60995 42.1155 -0.611856C41.861 -2.81354 42.028 -5.04742 42.6086 -7.1847C42.9029 -8.25938 43.8653 -8.99998 44.9668 -8.99998C49.1027 -8.99998 52.6739 -7.28935 55.9945 -5.08365C62.2301 -8.95168 70.0843 -8.95168 76.3199 -5.08365C79.6326 -7.28935 83.2037 -8.99998 87.3396 -8.99998C88.4412 -9.00401 89.4075 -8.25536 89.6899 -7.17665C90.2626 -5.03535 90.4256 -2.80549 90.1751 -0.603806C89.9086 1.618 89.2286 3.76736 88.1708 5.73156C87.5027 6.98334 86.6993 8.15865 85.7807 9.23333C85.908 9.89343 86.0153 10.5576 86.1028 11.2378C86.254 12.4694 86.3216 13.7051 86.3056 14.9408C86.2977 15.456 86.2818 15.9712 86.2261 16.4703C86.0949 17.9596 84.8342 19.6259 83.9235 20.7569C82.4362 22.6125 80.6188 24.1701 78.5708 25.3495L78.4714 25.5709C78.3004 25.9371 78.1095 26.2954 77.8987 26.6415C77.7078 26.9555 77.4891 27.2493 77.2346 27.5149C77.4056 27.9134 77.5567 28.3199 77.6879 28.7345C77.9663 29.612 78.1771 30.5136 78.3083 31.4232C78.4077 31.8901 78.4952 32.3651 78.5588 32.832C80.3921 29.7247 82.8339 26.9192 85.904 25.1965C87.7015 24.1379 89.7456 23.5825 91.8254 23.5946C94.0286 23.6509 96.1959 24.6894 97.8702 26.1142C99.7035 27.6759 101.199 29.9098 101.449 32.3691C101.489 32.7756 101.465 33.1822 101.37 33.5806C101.008 34.8847 100.089 35.9514 98.8644 36.4907C97.3452 37.2112 95.4483 37.187 94.1718 35.9675C93.452 35.2711 93.2253 34.5104 92.8634 33.6209C92.6884 33.1178 92.3742 32.675 91.9607 32.3449C91.3482 31.874 90.5926 31.6446 89.8291 31.6969C88.7394 31.7694 87.7691 32.4013 87.0016 33.154C86.5681 33.5806 86.1665 34.0314 85.7887 34.5104C85.0649 35.416 84.4047 36.378 83.8241 37.3883C83.3708 38.153 82.9691 38.95 82.6271 39.7671C82.6072 39.8154 82.5873 39.8637 82.5635 39.9039C82.5635 39.9281 82.5714 39.9522 82.5794 39.9764H82.5714ZM84.2457 33.0131C84.3451 33.0131 84.4445 33.0292 84.536 33.0694C84.9058 32.6267 85.2955 32.192 85.7012 31.7935C85.8284 31.6687 85.9597 31.548 86.079 31.4433C85.5779 31.0932 85.1603 30.6303 84.866 30.095C84.6036 29.6361 84.4246 29.133 84.3411 28.6057C83.5139 29.3383 82.7504 30.1433 82.0624 31.0086C82.0226 31.5721 82.5714 32.2282 82.9532 32.5301C83.3151 32.84 83.7724 33.0131 84.2457 33.0131ZM83.669 34.1804C83.1361 34.0717 82.639 33.8342 82.2135 33.4921C81.7761 33.1459 81.4182 32.7112 81.1557 32.2162C80.4319 33.2586 79.7837 34.3575 79.215 35.4965C79.4218 35.6213 79.6167 35.7622 79.8036 35.9151C80.4717 36.4505 81.0205 37.1186 81.4182 37.8793C82.0624 36.5833 82.814 35.3476 83.6651 34.1844L83.669 34.1804ZM93.5434 31.0086C93.5434 31.0811 93.5275 31.1535 93.4957 31.222C94.7245 32.4416 94.6688 33.8624 95.4364 34.599C96.7885 35.899 99.783 34.4339 99.5961 32.5623C99.4251 30.9362 98.4985 29.3181 97.206 28.0422C97.1981 28.0342 97.1901 28.0261 97.1822 28.0261C96.9993 27.853 96.7487 27.7564 96.4942 27.7645C94.8637 27.692 93.6031 29.4228 93.5474 31.0127L93.5434 31.0086ZM92.3981 30.4089C92.4617 29.9984 92.581 29.5959 92.7441 29.2175C93.2372 28.006 94.2274 27.0762 95.4602 26.6657C94.3547 25.9532 93.0861 25.5387 91.7737 25.4702C91.4158 25.4582 91.0579 25.4743 90.7 25.5185C90.5847 25.599 90.4813 25.6836 90.4256 25.7319C90.358 25.7882 90.2984 25.8446 90.2387 25.909C89.4235 26.8428 89.5189 28.6419 90.2228 29.6039C90.2665 29.6643 90.2984 29.7327 90.3182 29.8092C91.046 29.8535 91.7539 30.0587 92.3941 30.4049L92.3981 30.4089ZM88.9781 29.9138C88.644 29.2658 88.465 28.5494 88.4531 27.8208C88.4332 27.1728 88.5525 26.5288 88.8071 25.9331C88.1111 26.1666 87.443 26.4684 86.8027 26.8347C86.425 27.048 86.0432 27.2936 85.6654 27.5552C85.6654 27.5632 85.6574 27.5632 85.6574 27.5713C85.3075 28.0865 85.6415 29.0002 85.9159 29.4832C86.1625 29.946 86.5443 30.3244 87.0056 30.5619C87.0612 30.582 87.109 30.6142 87.1527 30.6504C87.7174 30.3043 88.3338 30.0547 88.9781 29.9138ZM64.3776 -3.69502C64.8906 -3.69502 65.1451 -3.07114 64.7832 -2.70486C64.4213 -2.33859 63.8009 -2.60021 63.8009 -3.11541C63.797 -3.43742 64.0555 -3.69904 64.3736 -3.69502H64.3776ZM64.3776 -1.13511C64.8906 -1.13511 65.1451 -0.511231 64.7832 -0.144955C64.4213 0.221321 63.8009 -0.0362794 63.8009 -0.555506C63.8009 -0.873482 64.0594 -1.13511 64.3736 -1.13511H64.3776ZM67.9249 -3.69502C68.4379 -3.69502 68.6924 -3.07114 68.3305 -2.70486C67.9686 -2.33859 67.3522 -2.60021 67.3522 -3.11541C67.3522 -3.43339 67.6107 -3.69502 67.9249 -3.69502ZM67.9249 -1.13511C68.4379 -1.13511 68.6924 -0.511231 68.3305 -0.144955C67.9686 0.221321 67.3522 -0.0362794 67.3522 -0.555506C67.3522 -0.873482 67.6107 -1.13511 67.9249 -1.13511ZM66.6324 -5.59885V1.3443C70.299 1.4248 73.906 2.4552 76.1171 4.42746C78.6702 6.70964 80.3723 10.6582 80.1893 12.7351C80.0263 14.5987 77.0874 15.8585 73.1703 16.5146C73.3691 16.8688 73.5043 17.2552 73.5759 17.6577C73.6674 18.2252 73.6634 18.8008 73.568 19.3683C75.0473 19.1952 76.3796 18.9658 77.5686 18.7163C79.6763 18.2614 81.7443 17.6335 83.7486 16.8326C83.8201 16.6474 83.8639 16.4582 83.8838 16.261C83.8838 16.261 84.7308 8.44442 80.3564 2.04465C77.2584 -2.58411 72.1562 -5.42577 66.6364 -5.59482L66.6324 -5.59885ZM65.674 1.3443V-5.59885C60.0588 -5.42577 54.885 -2.48751 51.8109 2.26603C47.6114 8.62957 48.4346 16.265 48.4346 16.265C48.4624 16.4663 48.5181 16.6635 48.5977 16.8527C50.594 17.6416 52.65 18.2655 54.7458 18.7163C55.9428 18.9698 57.2671 19.1993 58.7544 19.3723C58.6589 18.8048 58.655 18.2292 58.7464 17.6617C58.818 17.2592 58.9532 16.8728 59.1521 16.5186C55.2349 15.8665 52.2921 14.5987 52.133 12.7391C51.9501 10.6622 53.6522 6.71367 56.2053 4.43149C58.4124 2.4552 62.0154 1.4248 65.682 1.34027L65.674 1.3443ZM59.0646 20.3866C57.5494 20.2256 56.0422 19.9882 54.5509 19.6662C52.7574 19.2798 50.9917 18.7686 49.2658 18.1367C49.5322 18.5512 49.8225 18.9497 50.1327 19.3321C52.2245 21.9121 55.0043 23.8361 58.138 24.8745C59.164 25.2247 60.2059 25.5105 61.2637 25.7238C61.2637 25.7158 61.2558 25.6997 61.2558 25.6916C61.1484 25.4058 61.1206 25.0999 61.1683 24.798C61.2956 24.0454 61.8563 23.5704 62.5761 23.2685C61.216 22.8016 59.9991 22.0248 59.2873 20.7932C59.1998 20.6644 59.1282 20.5275 59.0686 20.3866H59.0646ZM62.5045 25.2126C62.6596 25.6151 63.1686 25.9251 63.8049 26.1384C64.5804 26.2269 65.3638 26.3034 66.1473 26.3517C66.9386 26.3034 67.73 26.235 68.5055 26.1384C69.102 25.9412 69.5872 25.6634 69.7741 25.2972C70.5814 23.7113 61.9557 23.7515 62.5045 25.2167V25.2126ZM83.0327 18.1487C81.3148 18.7766 79.553 19.2838 77.7675 19.6702C76.2762 19.9882 74.769 20.2297 73.2498 20.3907C73.1862 20.5275 73.1186 20.6603 73.047 20.7891C72.3352 22.0168 71.1222 22.8016 69.7661 23.2685C70.47 23.5704 71.0109 24.0373 71.1461 24.7659C71.2057 25.0879 71.1739 25.4179 71.0586 25.7198C73.6316 25.2408 76.0932 24.2708 78.3043 22.858C79.8434 21.7833 81.2114 20.4873 82.3686 18.998C82.6032 18.7283 82.822 18.4345 83.0288 18.1487H83.0327ZM65.8013 20.6885C65.4394 21.3365 64.6878 22.2985 63.101 21.9725C61.1524 21.3325 59.7565 20.0083 60.1025 17.8911C60.4167 15.9792 63.5623 14.7838 66.1393 14.808H66.1632C68.7401 14.7838 71.8818 15.9792 72.188 17.8911C72.4863 19.7225 71.4841 20.9662 69.9451 21.6787C67.6584 22.536 66.8591 21.417 66.5012 20.7046C66.3302 20.3625 66.2586 20.1814 66.1711 20.1733H66.1473C66.0757 20.2055 65.9842 20.3705 65.8013 20.6885ZM66.1473 15.7015C64.5884 15.7015 62.6994 16.1604 62.5125 17.1385C62.2063 18.7646 64.5884 19.5494 66.1473 19.5494H66.1791C67.738 19.5414 70.0962 18.7565 69.79 17.1385C69.6031 16.1563 67.7141 15.7015 66.1552 15.7015H66.1473ZM61.8006 12.5137C61.8006 13.2986 60.6394 13.2986 60.6394 12.5137C60.6473 11.8778 60.4286 11.2619 60.023 10.7789C59.677 10.3603 59.168 10.1108 58.6271 10.0987C58.2692 10.0987 57.9193 10.2114 57.625 10.4167C57.2949 10.6501 57.0324 10.9681 56.8654 11.3424C56.7302 11.6322 56.3842 11.757 56.0979 11.6202C55.8116 11.4833 55.6843 11.1331 55.8235 10.8433C56.082 10.2839 56.4797 9.80085 56.9807 9.44263C57.4659 9.10453 58.0465 8.91938 58.6351 8.91938C59.506 8.92743 60.3372 9.32188 60.8979 9.99808C61.4865 10.6984 61.8086 11.588 61.8006 12.5097V12.5137ZM70.5019 12.5137C70.5019 13.2986 71.6631 13.2986 71.6671 12.5137C71.6591 11.8778 71.8778 11.2619 72.2835 10.7789C72.6294 10.3563 73.1385 10.1108 73.6793 10.0987C74.0372 10.0987 74.3872 10.2114 74.6815 10.4167C75.0115 10.6501 75.274 10.9681 75.441 11.3424C75.7751 12.0388 76.8091 11.5477 76.4909 10.8433C76.2324 10.2839 75.8347 9.80085 75.3337 9.44263C74.8485 9.10453 74.2679 8.91938 73.6793 8.91938C72.8044 8.92743 71.9772 9.32188 71.4165 9.99808C70.824 10.6944 70.4979 11.588 70.5019 12.5097V12.5137ZM70.9711 28.163C69.7343 28.5655 68.4538 28.807 67.1574 28.8915C64.1748 29.0726 61.2001 28.4045 58.5715 26.9716C58.0624 26.8226 57.5693 26.6536 57.0762 26.4725C58.2891 28.1227 59.9713 29.3544 61.9 30.0024C59.9355 29.6683 57.9511 29.0525 56.416 27.9738C55.4218 30.1473 54.8174 33.1741 55.3025 37.3038C55.4179 38.2456 55.561 39.1351 55.74 39.9764C58.3249 38.789 60.1343 39.2639 62.3812 40.7773C62.5483 38.2698 63.0016 35.7863 63.7373 33.3834C63.8924 32.9165 64.0952 32.6871 64.3696 32.6629C64.6599 32.6388 65.1531 32.6549 65.1372 33.5203C65.0497 33.8704 64.9741 34.289 64.9184 34.5909C64.7633 35.3919 64.644 36.209 64.5207 37.022C64.4054 37.823 64.2941 38.624 64.1986 39.433C64.135 39.9482 64.0714 40.4795 64.0276 41.0028C64.0117 41.3006 63.9958 41.5944 63.9879 41.8883C65.2008 42.0372 66.4336 42.0251 67.6465 41.8641C67.6386 41.5783 67.6227 41.2845 67.6067 40.9987C67.5193 39.7067 67.3244 38.3503 67.1375 37.0663C67.0222 36.2975 66.9029 35.5207 66.7557 34.76C66.6762 34.285 66.5608 33.8181 66.4177 33.3633C66.4415 32.5059 67.5471 32.3168 67.8573 33.2627C68.6288 35.73 69.102 38.2859 69.2651 40.8659C71.2932 39.6866 73.9736 38.8131 75.9143 39.9079C76.0813 39.0828 76.2205 38.2174 76.3318 37.2997C76.7852 33.484 76.3 30.6021 75.4371 28.4769C73.8861 29.4027 71.9136 29.8937 70.0167 30.1352C72.1164 29.5315 73.9617 28.2394 75.2581 26.4644C74.765 26.6415 74.2639 26.8146 73.7628 26.9635C72.876 27.4546 71.9415 27.853 70.9751 28.1589L70.9711 28.163ZM48.4147 -6.0577C50.4707 -5.4459 52.4233 -4.52819 54.2089 -3.32472C53.4613 -2.72096 52.7653 -2.05684 52.1171 -1.34441C51.7672 -1.92804 51.3894 -2.48751 50.9917 -3.04699C50.2321 -4.13374 49.3692 -5.14 48.4147 -6.0577ZM45.0146 -6.5407H45.2094C47.504 -5.26477 49.5561 -2.67266 51.0672 -0.0966545C50.761 0.305847 50.4628 0.720422 50.1725 1.14707C49.0629 2.8416 48.192 4.68506 47.5955 6.62512C45.7423 4.10546 43.392 -0.519281 44.9509 -6.48838C44.9748 -6.49643 44.9907 -6.52058 45.0146 -6.53668V-6.5407ZM87.2919 -6.5407H87.097C84.8024 -5.26477 82.7504 -2.67266 81.2392 -0.0966545C81.4897 0.221322 81.7323 0.555397 81.959 0.901548C83.152 2.6645 84.0786 4.59651 84.707 6.63317C86.5562 4.11753 88.9065 -0.511231 87.3476 -6.48033L87.2919 -6.5407ZM83.8917 -6.0577C81.8357 -5.4459 79.8831 -4.52819 78.0975 -3.32472C78.8452 -2.71694 79.5411 -2.05281 80.1893 -1.33636C80.5472 -1.91596 80.9171 -2.48751 81.3108 -3.04699C82.0704 -4.13374 82.9333 -5.14 83.8878 -6.0577H83.8917ZM56.1377 41.7595C56.6865 43.8806 57.4659 45.9334 58.472 47.8775C58.5754 48.0908 58.7504 48.2679 58.9652 48.3685C59.7645 48.8596 60.8899 49.3909 61.0808 51.4114C60.1662 50.2321 59.2952 49.3909 57.9551 49.0971C57.2551 49.0407 56.5632 49.2822 56.0382 49.7572C54.9327 50.9164 55.732 52.9208 56.4041 53.1019C57.0722 53.2831 63.956 53.1019 63.956 53.1019C63.956 53.1019 64.2384 51.8019 63.7055 51.0814C63.1806 50.3529 62.3613 46.6499 62.3057 42.7094C60.6911 41.2805 58.1937 40.3145 56.1337 41.7595H56.1377ZM75.4728 41.7595C74.9241 43.8806 74.1446 45.9294 73.1464 47.8775C73.0391 48.0908 72.8641 48.2639 72.6533 48.3685C71.854 48.8596 70.7285 49.3909 70.5376 51.4114C71.4523 50.2321 72.3232 49.3909 73.6634 49.0971C74.3156 49.089 75.0672 49.2178 75.5762 49.7572C76.6858 50.9164 75.8825 52.9208 75.2144 53.1019C74.5463 53.2831 67.6624 53.1019 67.6624 53.1019C67.6624 53.1019 67.3801 51.8019 67.913 51.0814C68.4379 50.3529 69.2651 46.6499 69.3207 42.7094C70.9194 41.2805 73.4168 40.3145 75.4768 41.7595H75.4728ZM66.4296 50.5179C66.2268 50.5179 66.016 50.5259 65.8092 50.5259H65.3161C65.2405 50.381 65.157 50.2361 65.0656 50.0993C64.9622 49.8618 64.8747 49.6163 64.8071 49.3627C64.6122 48.6664 64.4571 47.954 64.3378 47.2375C64.1191 45.9092 63.9918 44.5689 63.968 43.2246C65.2246 43.4017 66.5052 43.3896 67.7579 43.1924C67.738 44.7541 67.5789 46.3117 67.2806 47.8453C67.1772 48.3846 66.9108 49.6928 66.6324 50.1758C66.5608 50.2885 66.4932 50.4012 66.4296 50.5179ZM81.4738 42.0895C81.5295 45.8569 79.1792 47.3462 77.8072 48.4571C84.0588 45.5792 84.7786 50.4776 84.1343 51.017H77.6641C77.6163 49.4191 76.5108 48.0506 74.9718 47.6803C75.4689 46.6257 75.8864 45.5389 76.2324 44.424C78.0578 43.4339 80.2052 42.4196 81.4738 42.0855V42.0895ZM78.0578 36.5511C79.6246 37.2877 80.6109 38.9621 80.8296 40.8418C79.5093 41.2805 78.2288 41.8279 76.9999 42.4759C77.4374 40.8417 77.7595 39.1754 77.9583 37.497C77.9981 37.1951 78.0299 36.8771 78.0578 36.5471V36.5511ZM53.5527 36.5833C52.0097 37.336 51.0474 39.0023 50.8366 40.8659C52.133 41.3046 53.3897 41.844 54.6026 42.484C54.1652 40.8498 53.843 39.1834 53.6402 37.501C53.6084 37.1991 53.5766 36.8892 53.5527 36.5793V36.5833ZM50.1287 42.0895C50.073 45.8569 52.4233 47.3462 53.8033 48.4571C47.5438 45.5792 46.832 50.4776 47.4682 51.017H53.8271C53.855 50.1114 54.2129 49.246 54.8293 48.5899C55.2826 48.123 55.8474 47.7809 56.4677 47.5998C56.3365 47.3301 56.2172 47.0604 56.0979 46.7827C55.7479 45.9736 55.4338 45.1485 55.1514 44.3033C53.3817 43.3614 51.3536 42.4155 50.1287 42.0895Z" fill="#E6EDEF"/>
</g>
</g>
<defs>
<clipPath id="clip0_9314_2570">
<rect width="88" height="60" fill="white"/>
</clipPath>
<clipPath id="clip1_9314_2570">
<rect width="60.5143" height="63.2239" fill="white" transform="translate(42 -9)"/>
</clipPath>
</defs>
</svg>
