<svg width="208" height="72" viewBox="0 0 208 72" fill="none" xmlns="http://www.w3.org/2000/svg">
<g clip-path="url(#clip0_9314_2568)">
<g clip-path="url(#clip1_9314_2568)">
<path fill-rule="evenodd" clip-rule="evenodd" d="M33.5189 42.2152V43.0831ZM56.3173 70.264L57.068 70.0595L57.1564 70.6454C57.5814 73.3265 57.3937 75.6537 56.3062 78.0252C57.9899 78.2574 59.4583 79.07 60.2311 80.7892C60.7831 82.0053 61.3075 83.415 61.3186 84.7638C61.3683 85.7699 60.9653 86.7373 60.2201 87.4117C59.7564 87.7931 59.1712 88.0032 58.5695 88.0087H49.7869C49.2846 89.3907 48.2854 90.6566 46.8281 91.038C46.4196 91.132 46 91.1873 45.586 91.2038C45.1389 91.226 44.7028 91.237 44.2612 91.237C43.1295 91.2481 41.9979 91.237 40.8662 91.237C39.0943 91.2149 37.3223 91.1817 35.5503 91.1375C34.4739 91.1154 33.5078 90.4852 33.0496 89.5068C32.597 90.4797 31.6309 91.1099 30.56 91.1375C28.777 91.1817 27.005 91.2149 25.233 91.237C24.1014 91.2481 22.9698 91.2591 21.8326 91.237C21.3965 91.237 20.9604 91.226 20.5133 91.2038C20.0882 91.1928 19.6687 91.1375 19.2547 91.038C17.7973 90.6566 16.8092 89.3741 16.2958 88.0087H7.596C6.99429 88.0087 6.41467 87.7986 5.94546 87.4117C5.20023 86.7373 4.79725 85.7643 4.84694 84.7638C4.84694 83.415 5.3824 81.9998 5.92338 80.7892C6.21595 80.1314 6.66308 79.5565 7.22614 79.1032C7.96585 78.5227 8.84356 78.1524 9.77095 78.0252C8.68348 75.6537 8.49027 73.332 8.91532 70.6454L9.00365 70.0595L9.84272 70.2861C9.94208 69.7775 10.0801 69.2745 10.2457 68.7825C10.8308 67.008 11.9073 65.4381 13.3536 64.2551C13.8725 63.8405 14.441 63.4867 15.0483 63.2103C15.1311 61.6017 15.3464 60.0041 15.6886 58.4287C16.0033 56.2949 16.627 54.2219 17.5489 52.2761C17.0963 51.7233 16.7098 51.1152 16.4062 50.4684C16.3621 50.3689 16.3179 50.2639 16.2848 50.1644C13.4364 48.5447 10.9136 46.4054 8.84908 43.8515C7.61808 42.3368 5.81297 39.9764 5.65289 37.9919C5.5756 37.2954 5.55352 36.5988 5.54248 35.9134C5.5204 34.2439 5.60872 32.5745 5.81297 30.9161C5.92338 29.9487 6.08346 28.9869 6.27115 28.0305C4.99046 26.5546 3.87538 24.9404 2.94247 23.2268C1.47409 20.5236 0.53014 17.5717 0.160287 14.5203C-0.193006 11.4965 0.0388423 8.42846 0.844791 5.49312C1.25329 4.01716 2.58917 3.00002 4.11827 3.00002C9.85928 3.00002 14.8164 5.3494 19.4258 8.37871C28.0815 3.06636 38.9839 3.06636 47.6395 8.37871C52.2379 5.3494 57.195 3.00002 62.936 3.00002C64.4651 2.99449 65.8065 4.02269 66.1984 5.50418C66.9933 8.44504 67.2197 11.5075 66.8719 14.5313C66.502 17.5827 65.5581 20.5346 64.0897 23.2323C63.1623 24.9515 62.0472 26.5656 60.7721 28.0416C60.9487 28.9482 61.0978 29.8603 61.2192 30.7945C61.429 32.4861 61.5228 34.1831 61.5008 35.8802C61.4897 36.5878 61.4676 37.2954 61.3903 37.9808C61.2082 40.0262 59.4583 42.3147 58.1941 43.8681C56.1296 46.4165 53.6069 48.5558 50.764 50.1755L50.626 50.4795C50.3886 50.9825 50.1236 51.4745 49.831 51.9499C49.5661 52.3811 49.2625 52.7846 48.9092 53.1495C49.1465 53.6968 49.3563 54.2551 49.5385 54.8245C49.9249 56.0296 50.2175 57.2678 50.3996 58.5171C50.5376 59.1584 50.6591 59.8107 50.7474 60.4519C53.2922 56.1843 56.6816 52.3314 60.9432 49.9654C63.4383 48.5115 66.2757 47.7487 69.1628 47.7653C72.221 47.8427 75.2295 49.2689 77.5535 51.2258C80.0983 53.3706 82.1739 56.4386 82.5217 59.8162C82.5769 60.3745 82.5437 60.9328 82.4113 61.4801C81.9089 63.2711 80.6338 64.7361 78.9335 65.4768C76.8248 66.4663 74.1917 66.4331 72.4197 64.7582C71.4206 63.8018 71.1059 62.7571 70.6036 61.5354C70.3607 60.8444 69.9246 60.2363 69.3505 59.783C68.5004 59.1363 67.4515 58.8212 66.3916 58.893C64.8791 58.9925 63.5322 59.8604 62.4668 60.8941C61.8651 61.4801 61.3075 62.0992 60.7831 62.757C59.7784 64.0008 58.8621 65.322 58.0561 66.7095C57.4268 67.7598 56.8693 68.8544 56.3946 69.9765C56.367 70.0429 56.3394 70.1092 56.3062 70.1645C56.3062 70.1977 56.3173 70.2308 56.3283 70.264H56.3173ZM58.6413 60.7007C58.7793 60.7007 58.9173 60.7228 59.0443 60.778C59.5576 60.17 60.0986 59.573 60.6617 59.0257C60.8383 58.8543 61.0205 58.6885 61.1861 58.5448C60.4905 58.0638 59.9109 57.4281 59.5024 56.6929C59.1381 56.0627 58.8897 55.3717 58.7738 54.6476C57.6256 55.6536 56.5657 56.7592 55.6107 57.9477C55.5555 58.7217 56.3173 59.6227 56.8472 60.0373C57.3496 60.463 57.9844 60.7007 58.6413 60.7007ZM57.8409 62.3038C57.1011 62.1545 56.4111 61.8284 55.8205 61.3585C55.2132 60.8831 54.7164 60.2861 54.3521 59.6061C53.3474 61.0379 52.4476 62.547 51.6582 64.1114C51.9453 64.2828 52.2158 64.4762 52.4752 64.6863C53.4026 65.4215 54.1644 66.3392 54.7164 67.3839C55.6107 65.6039 56.654 63.9069 57.8353 62.3093L57.8409 62.3038ZM71.5475 57.9477C71.5475 58.0472 71.5254 58.1468 71.4813 58.2407C73.187 59.9157 73.1097 61.8671 74.1751 62.8787C76.052 64.6642 80.2087 62.652 79.9493 60.0815C79.7119 57.8482 78.4257 55.626 76.6316 53.8737C76.6206 53.8626 76.6095 53.8515 76.5985 53.8515C76.3446 53.6138 75.9968 53.4812 75.6435 53.4922C73.3802 53.3927 71.6303 55.7697 71.553 57.9533L71.5475 57.9477ZM69.9577 57.1241C70.046 56.5602 70.2116 56.0074 70.438 55.4878C71.1225 53.8239 72.497 52.5469 74.2083 51.9831C72.6736 51.0047 70.9127 50.4353 69.091 50.3413C68.5942 50.3247 68.0974 50.3468 67.6006 50.4076C67.4405 50.5182 67.297 50.6343 67.2197 50.7006C67.1258 50.778 67.043 50.8554 66.9602 50.9438C65.8286 52.2263 65.9611 54.6973 66.9382 56.0185C66.9989 56.1014 67.043 56.1954 67.0706 56.3004C68.0808 56.3612 69.0634 56.6432 69.9522 57.1186L69.9577 57.1241ZM65.2103 56.4441C64.7466 55.5541 64.4982 54.5702 64.4817 53.5696C64.4541 52.6796 64.6197 51.7951 64.973 50.977C64.0069 51.2976 63.0795 51.7122 62.1908 52.2153C61.6664 52.5083 61.1364 52.8455 60.612 53.2048C60.612 53.2158 60.601 53.2158 60.601 53.2269C60.1152 53.9345 60.5789 55.1893 60.9598 55.8527C61.302 56.4884 61.832 57.008 62.4723 57.3341C62.5496 57.3618 62.6158 57.406 62.6766 57.4558C63.4604 56.9804 64.3161 56.6376 65.2103 56.4441ZM31.0624 10.2858C31.7745 10.2858 32.1278 11.1427 31.6254 11.6457C31.1231 12.1488 30.2619 11.7894 30.2619 11.0819C30.2564 10.6396 30.6152 10.2803 31.0568 10.2858H31.0624ZM31.0624 13.8016C31.7745 13.8016 32.1278 14.6584 31.6254 15.1615C31.1231 15.6645 30.2619 15.3107 30.2619 14.5976C30.2619 14.1609 30.6207 13.8016 31.0568 13.8016H31.0624ZM35.9864 10.2858C36.6985 10.2858 37.0518 11.1427 36.5494 11.6457C36.0471 12.1488 35.1915 11.7894 35.1915 11.0819C35.1915 10.6452 35.5503 10.2858 35.9864 10.2858ZM35.9864 13.8016C36.6985 13.8016 37.0518 14.6584 36.5494 15.1615C36.0471 15.6645 35.1915 15.3107 35.1915 14.5976C35.1915 14.1609 35.5503 13.8016 35.9864 13.8016ZM34.1923 7.67113V17.2068C39.2819 17.3174 44.2888 18.7325 47.358 21.4412C50.902 24.5756 53.2646 29.9985 53.0107 32.8509C52.7844 35.4103 48.7049 37.1406 43.2675 38.0416C43.5435 38.5281 43.7312 39.0588 43.8306 39.6116C43.9576 40.391 43.952 41.1815 43.8195 41.9609C45.8731 41.7232 47.7223 41.4081 49.3729 41.0654C52.2986 40.4408 55.1691 39.5784 57.9513 38.4783C58.0506 38.2241 58.1113 37.9642 58.1389 37.6934C58.1389 37.6934 59.3148 26.9581 53.2425 18.1687C48.9423 11.8116 41.8599 7.90883 34.1978 7.67666L34.1923 7.67113ZM32.8619 17.2068V7.67113C25.0674 7.90883 17.8856 11.9442 13.6185 18.4727C7.7892 27.2124 8.93188 37.6989 8.93188 37.6989C8.97053 37.9753 9.04781 38.2462 9.15821 38.506C11.9294 39.5895 14.7833 40.4463 17.6924 41.0654C19.354 41.4137 21.1922 41.7288 23.2568 41.9665C23.1243 41.187 23.1188 40.3965 23.2458 39.6171C23.3451 39.0643 23.5328 38.5336 23.8088 38.0472C18.3714 37.1516 14.2865 35.4103 14.0657 32.8564C13.8117 30.004 16.1744 24.5811 19.7184 21.4468C22.7821 18.7325 27.7834 17.3174 32.873 17.2013L32.8619 17.2068ZM23.6874 43.3595C21.5842 43.1384 19.492 42.8122 17.422 42.37C14.9323 41.8393 12.4814 41.1373 10.0856 40.2694C10.4555 40.8388 10.8584 41.386 11.289 41.9112C14.1926 45.4546 18.0513 48.097 22.4012 49.5232C23.8254 50.0041 25.2717 50.3966 26.74 50.6896C26.74 50.6785 26.729 50.6564 26.729 50.6453C26.58 50.2529 26.5413 49.8327 26.6076 49.4181C26.7842 48.3844 27.5626 47.7321 28.5617 47.3175C26.6738 46.6763 24.9846 45.6094 23.9965 43.9178C23.8751 43.7409 23.7757 43.553 23.6929 43.3595H23.6874ZM28.4624 49.9875C28.6776 50.5403 29.3842 50.966 30.2675 51.2589C31.3439 51.3806 32.4314 51.4856 33.5189 51.5519C34.6174 51.4856 35.7159 51.3916 36.7923 51.2589C37.6204 50.9881 38.2938 50.6066 38.5533 50.1036C39.6739 47.9256 27.7006 47.9809 28.4624 49.993V49.9875ZM56.9576 40.286C54.5729 41.1483 52.1274 41.8449 49.6489 42.3755C47.5788 42.8122 45.4867 43.1439 43.3779 43.365C43.2896 43.553 43.1958 43.7354 43.0964 43.9123C42.1083 45.5983 40.4246 46.6763 38.5422 47.3175C39.5193 47.7321 40.2701 48.3734 40.4577 49.3739C40.5405 49.8161 40.4964 50.2694 40.3363 50.684C43.9079 50.0262 47.3249 48.694 50.3941 46.7537C52.5304 45.2777 54.4294 43.4977 56.0358 41.4524C56.3614 41.082 56.6651 40.6785 56.9521 40.286H56.9576ZM33.0386 43.7741C32.5363 44.6641 31.4929 45.9853 29.2904 45.5375C26.5855 44.6586 24.6479 42.8399 25.1281 39.9322C25.5642 37.3064 29.9307 35.6646 33.5078 35.6978H33.5409C37.118 35.6646 41.479 37.3064 41.904 39.9322C42.3181 42.4474 40.927 44.1555 38.7906 45.134C35.6165 46.3114 34.507 44.7747 34.0102 43.7962C33.7728 43.3263 33.6734 43.0776 33.552 43.0665H33.5189C33.4195 43.1108 33.2925 43.3374 33.0386 43.7741ZM33.5189 36.925C31.3549 36.925 28.7328 37.5552 28.4734 38.8985C28.0483 41.1318 31.3549 42.2097 33.5189 42.2097H33.563C35.7269 42.1986 39.0004 41.1207 38.5754 38.8985C38.3159 37.5496 35.6938 36.925 33.5299 36.925H33.5189ZM27.4853 32.5469C27.4853 33.6248 25.8734 33.6248 25.8734 32.5469C25.8844 31.6734 25.5808 30.8277 25.0177 30.1643C24.5375 29.5894 23.8309 29.2467 23.0802 29.2301C22.5833 29.2301 22.0976 29.3849 21.6891 29.6668C21.2309 29.9874 20.8666 30.4241 20.6347 30.9382C20.447 31.3362 19.9668 31.5076 19.5693 31.3197C19.1719 31.1317 18.9952 30.6508 19.1884 30.2528C19.5472 29.4844 20.0992 28.821 20.7948 28.329C21.4683 27.8647 22.2742 27.6104 23.0912 27.6104C24.3001 27.6215 25.4538 28.1632 26.2322 29.0919C27.0492 30.0538 27.4963 31.2754 27.4853 32.5413V32.5469ZM39.5635 32.5469C39.5635 33.6248 41.1754 33.6248 41.1809 32.5469C41.1699 31.6734 41.4735 30.8277 42.0365 30.1643C42.5168 29.5839 43.2234 29.2467 43.9741 29.2301C44.4709 29.2301 44.9567 29.3849 45.3652 29.6668C45.8234 29.9874 46.1877 30.4241 46.4196 30.9382C46.8833 31.8946 48.3185 31.2202 47.8769 30.2528C47.5181 29.4844 46.9661 28.821 46.2705 28.329C45.5971 27.8647 44.7911 27.6104 43.9741 27.6104C42.7597 27.6215 41.6115 28.1632 40.8331 29.0919C40.0106 30.0482 39.558 31.2754 39.5635 32.5413V32.5469ZM40.2149 54.0395C38.4981 54.5923 36.7206 54.924 34.921 55.04C30.7808 55.2888 26.6517 54.3712 23.0029 52.4032C22.2963 52.1987 21.6118 51.9665 20.9273 51.7178C22.6109 53.9842 24.946 55.6758 27.6233 56.5658C24.8963 56.1069 22.1417 55.2612 20.0109 53.7797C18.6309 56.7648 17.7918 60.9218 18.4653 66.5934C18.6254 67.887 18.8241 69.1087 19.0725 70.264C22.6606 68.6333 25.1723 69.2855 28.2912 71.3641C28.5231 67.9201 29.1524 64.5094 30.1736 61.2092C30.3889 60.568 30.6704 60.2529 31.0513 60.2197C31.4543 60.1866 32.1388 60.2087 32.1167 61.3972C31.9953 61.8781 31.8904 62.453 31.8131 62.8676C31.5978 63.9677 31.4322 65.0898 31.2611 66.2065C31.101 67.3065 30.9464 68.4066 30.814 69.5177C30.7256 70.2253 30.6373 70.955 30.5766 71.6736C30.5545 72.0827 30.5324 72.4862 30.5214 72.8898C32.205 73.0943 33.9163 73.0777 35.6 72.8566C35.5889 72.4641 35.5668 72.0606 35.5448 71.6681C35.4233 69.8936 35.1528 68.0307 34.8934 66.2673C34.7333 65.2115 34.5677 64.1446 34.3634 63.0998C34.253 62.4475 34.093 61.8062 33.8942 61.1816C33.9273 60.0041 35.462 59.7443 35.8925 61.0434C36.9635 64.432 37.6204 67.9423 37.8467 71.4857C40.662 69.866 44.3826 68.6664 47.0765 70.17C47.3083 69.0368 47.5015 67.8483 47.6561 66.5879C48.2854 61.3474 47.6119 57.3894 46.414 54.4707C44.2612 55.7421 41.5231 56.4165 38.89 56.7482C41.8047 55.919 44.366 54.1445 46.1656 51.7067C45.4811 51.9499 44.7856 52.1876 44.09 52.3922C42.859 53.0666 41.5618 53.6138 40.2204 54.034L40.2149 54.0395ZM8.90428 7.04095C11.7582 7.88119 14.4686 9.14156 16.9472 10.7944C15.9094 11.6236 14.9434 12.5357 14.0436 13.5142C13.5578 12.7126 13.0334 11.9442 12.4814 11.1758C11.427 9.6833 10.2291 8.30132 8.90428 7.04095ZM4.18451 6.37759H4.455C7.64016 8.12995 10.4886 11.6899 12.5863 15.2278C12.1612 15.7806 11.7472 16.35 11.3442 16.936C9.80408 19.2632 8.59515 21.795 7.76712 24.4595C5.19471 20.999 1.93227 14.6474 4.09619 6.44946C4.12931 6.4384 4.15139 6.40523 4.18451 6.38312V6.37759ZM62.8698 6.37759H62.5993C59.4141 8.12995 56.5657 11.6899 54.468 15.2278C54.8158 15.6645 55.1525 16.1234 55.4672 16.5988C57.1232 19.02 58.4094 21.6734 59.2816 24.4705C61.8485 21.0156 65.111 14.6584 62.947 6.46051L62.8698 6.37759ZM58.15 7.04095C55.296 7.88119 52.5856 9.14156 50.1071 10.7944C51.1449 11.6291 52.1109 12.5412 53.0107 13.5252C53.5075 12.7292 54.0209 11.9442 54.5674 11.1758C55.6217 9.6833 56.8196 8.30132 58.1445 7.04095H58.15ZM19.6245 72.7129C20.3863 75.6261 21.4683 78.4454 22.8649 81.1153C23.0084 81.4083 23.2513 81.6516 23.5494 81.7898C24.6589 82.4642 26.2211 83.1938 26.4861 85.9689C25.2165 84.3492 24.0075 83.1938 22.1472 82.7903C21.1757 82.7129 20.2152 83.0446 19.4865 83.6969C17.9519 85.2889 19.0615 88.0418 19.9944 88.2906C20.9218 88.5394 30.4772 88.2906 30.4772 88.2906C30.4772 88.2906 30.8692 86.5051 30.1295 85.5156C29.4008 84.515 28.2636 79.4293 28.1863 74.0175C25.9451 72.0551 22.4785 70.7283 19.619 72.7129H19.6245ZM46.4637 72.7129C45.7019 75.6261 44.62 78.4398 43.2344 81.1153C43.0854 81.4083 42.8425 81.646 42.5499 81.7898C41.4403 82.4642 39.8781 83.1938 39.6132 85.9689C40.8828 84.3492 42.0917 83.1938 43.952 82.7903C44.8573 82.7793 45.9007 82.9561 46.6072 83.6969C48.1474 85.2889 47.0323 88.0418 46.1049 88.2906C45.1775 88.5394 35.6221 88.2906 35.6221 88.2906C35.6221 88.2906 35.2301 86.5051 35.9698 85.5156C36.6985 84.515 37.8467 79.4293 37.924 74.0175C40.1431 72.0551 43.6098 70.7283 46.4692 72.7129H46.4637ZM33.9108 84.7417C33.6293 84.7417 33.3367 84.7527 33.0496 84.7527H32.3651C32.2602 84.5537 32.1443 84.3547 32.0174 84.1668C31.8738 83.8406 31.7524 83.5034 31.6585 83.1552C31.3881 82.1988 31.1728 81.2204 31.0072 80.2364C30.7036 78.4122 30.5269 76.5714 30.4938 74.725C32.2382 74.9683 34.0157 74.9517 35.7545 74.6808C35.7269 76.8257 35.5061 78.965 35.0921 81.0711C34.9486 81.8119 34.5787 83.6084 34.1923 84.2718C34.093 84.4266 33.9991 84.5814 33.9108 84.7417ZM54.7937 73.1662C54.871 78.3403 51.6086 80.3857 49.7041 81.9114C58.3818 77.9589 59.381 84.6864 58.4867 85.4271H49.5054C49.4391 83.2325 47.9045 81.3531 45.7682 80.8445C46.4582 79.3962 47.0378 77.9036 47.5181 76.3724C50.0519 75.0125 53.0328 73.6195 54.7937 73.1606V73.1662ZM50.0519 65.5597C52.2268 66.5713 53.5958 68.871 53.8994 71.4525C52.0667 72.055 50.2892 72.8068 48.5835 73.6968C49.1907 71.4525 49.6378 69.1639 49.9138 66.8588C49.969 66.4442 50.0132 66.0075 50.0519 65.5542V65.5597ZM16.0364 65.6039C13.8945 66.6377 12.5587 68.9262 12.2661 71.4857C14.0657 72.0882 15.8101 72.829 17.4937 73.7079C16.8865 71.4636 16.4394 69.175 16.1578 66.8643C16.1137 66.4497 16.0695 66.0241 16.0364 65.5984V65.6039ZM11.2835 73.1662C11.2062 78.3403 14.4686 80.3857 16.3842 81.9114C7.69536 77.9589 6.70724 84.6864 7.59048 85.4271H16.4173C16.4559 84.1834 16.9527 82.9948 17.8084 82.0938C18.4377 81.4525 19.2215 80.9827 20.0827 80.7339C19.9005 80.3635 19.7349 79.9932 19.5693 79.6117C19.0835 78.5006 18.6474 77.3674 18.2555 76.2065C15.799 74.913 12.9837 73.6139 11.2835 73.1662Z" fill="#E6EDEF"/>
</g>
</g>
<defs>
<clipPath id="clip0_9314_2568">
<rect width="208" height="72" fill="white"/>
</clipPath>
<clipPath id="clip1_9314_2568">
<rect width="84" height="86.8315" fill="white" transform="translate(0 3)"/>
</clipPath>
</defs>
</svg>
